<?xml version="1.0" encoding="utf-8" standalone="no"?>
<!DOCTYPE svg PUBLIC "-//W3C//DTD SVG 1.1//EN"
  "http://www.w3.org/Graphics/SVG/1.1/DTD/svg11.dtd">
<!-- Created with matplotlib (https://matplotlib.org/) -->
<svg height="345.6pt" version="1.1" viewBox="0 0 460.8 345.6" width="460.8pt" xmlns="http://www.w3.org/2000/svg" xmlns:xlink="http://www.w3.org/1999/xlink">
 <metadata>
  <rdf:RDF xmlns:cc="http://creativecommons.org/ns#" xmlns:dc="http://purl.org/dc/elements/1.1/" xmlns:rdf="http://www.w3.org/1999/02/22-rdf-syntax-ns#">
   <cc:Work>
    <dc:type rdf:resource="http://purl.org/dc/dcmitype/StillImage"/>
    <dc:date>2023-09-19T15:55:06.021327</dc:date>
    <dc:format>image/svg+xml</dc:format>
    <dc:creator>
     <cc:Agent>
      <dc:title>Matplotlib v3.3.4, https://matplotlib.org/</dc:title>
     </cc:Agent>
    </dc:creator>
   </cc:Work>
  </rdf:RDF>
 </metadata>
 <defs>
  <style type="text/css">*{stroke-linecap:butt;stroke-linejoin:round;}</style>
 </defs>
 <g id="figure_1">
  <g id="patch_1">
   <path d="M 0 345.6 
L 460.8 345.6 
L 460.8 0 
L 0 0 
z
" style="fill:#ffffff;"/>
  </g>
  <g id="axes_1">
   <g id="patch_2">
    <path d="M 57.6 307.584 
L 414.72 307.584 
L 414.72 41.472 
L 57.6 41.472 
z
" style="fill:#ffffff;"/>
   </g>
   <g id="PolyCollection_1">
    <path clip-path="url(#pd476aaa833)" d="M 73.832727 103.989941 
L 73.832727 103.989941 
L 77.112066 115.266938 
L 80.391405 121.464012 
L 83.670744 120.394428 
L 86.950083 121.032181 
L 90.229421 130.157763 
L 93.50876 136.153234 
L 96.788099 133.836406 
L 100.067438 132.626814 
L 103.346777 133.734179 
L 106.626116 141.067409 
L 109.905455 138.466219 
L 113.184793 139.533452 
L 116.464132 139.805904 
L 119.743471 138.552496 
L 123.02281 146.40001 
L 126.302149 139.33068 
L 129.581488 146.223832 
L 132.860826 147.429047 
L 136.140165 152.369084 
L 139.419504 149.587202 
L 142.698843 153.452848 
L 145.978182 151.89385 
L 149.257521 145.889017 
L 152.53686 156.067571 
L 155.816198 153.125916 
L 159.095537 155.208356 
L 162.374876 152.411924 
L 165.654215 153.300294 
L 168.933554 162.137356 
L 172.212893 152.967586 
L 175.492231 160.171124 
L 178.77157 155.247273 
L 182.050909 164.526619 
L 185.330248 162.514117 
L 188.609587 165.358955 
L 191.888926 172.056653 
L 195.168264 170.982238 
L 198.447603 171.354484 
L 201.726942 167.799999 
L 205.006281 165.010778 
L 208.28562 167.800228 
L 211.564959 167.659234 
L 214.844298 171.236029 
L 218.123636 170.824692 
L 221.402975 174.265554 
L 224.682314 178.90578 
L 227.961653 175.624963 
L 231.240992 175.624237 
L 234.520331 178.441165 
L 237.799669 189.173166 
L 241.079008 189.502668 
L 244.358347 188.913863 
L 247.637686 184.512554 
L 250.917025 190.473392 
L 254.196364 184.402218 
L 257.475702 192.33123 
L 260.755041 190.699511 
L 264.03438 189.980276 
L 267.313719 196.418129 
L 270.593058 193.906405 
L 273.872397 193.063493 
L 277.151736 200.258039 
L 280.431074 195.269842 
L 283.710413 203.511409 
L 286.989752 198.573221 
L 290.269091 201.560842 
L 293.54843 202.77243 
L 296.827769 207.149195 
L 300.107107 208.628337 
L 303.386446 201.653091 
L 306.665785 215.225165 
L 309.945124 203.08267 
L 313.224463 215.503245 
L 316.503802 220.025954 
L 319.78314 219.19317 
L 323.062479 222.663891 
L 326.341818 221.415483 
L 329.621157 213.549401 
L 332.900496 226.095825 
L 336.179835 223.890521 
L 339.459174 215.736518 
L 342.738512 225.913913 
L 346.017851 232.523157 
L 349.29719 228.94293 
L 352.576529 233.285044 
L 355.855868 231.587611 
L 359.135207 235.832706 
L 362.414545 238.618406 
L 365.693884 246.481612 
L 368.973223 247.268064 
L 372.252562 246.57727 
L 375.531901 245.371759 
L 378.81124 249.180657 
L 382.090579 245.073106 
L 385.369917 257.636294 
L 388.649256 261.481103 
L 391.928595 263.505473 
L 395.207934 266.281889 
L 398.487273 295.488 
L 398.487273 211.406451 
L 398.487273 211.406451 
L 395.207934 197.769085 
L 391.928595 187.254123 
L 388.649256 195.217192 
L 385.369917 197.365234 
L 382.090579 185.749426 
L 378.81124 186.732187 
L 375.531901 182.764215 
L 372.252562 182.124295 
L 368.973223 178.746944 
L 365.693884 175.715664 
L 362.414545 171.135878 
L 359.135207 172.649003 
L 355.855868 168.410235 
L 352.576529 169.964947 
L 349.29719 163.136645 
L 346.017851 167.757487 
L 342.738512 156.550627 
L 339.459174 158.244165 
L 336.179835 163.098748 
L 332.900496 158.065489 
L 329.621157 158.31032 
L 326.341818 151.009827 
L 323.062479 161.214625 
L 319.78314 153.939122 
L 316.503802 155.934293 
L 313.224463 151.831749 
L 309.945124 150.536754 
L 306.665785 153.099608 
L 303.386446 148.43139 
L 300.107107 148.526028 
L 296.827769 145.763242 
L 293.54843 142.787332 
L 290.269091 138.908603 
L 286.989752 138.926874 
L 283.710413 138.089216 
L 280.431074 133.887793 
L 277.151736 136.959259 
L 273.872397 136.942527 
L 270.593058 135.958216 
L 267.313719 133.022297 
L 264.03438 131.683284 
L 260.755041 126.722121 
L 257.475702 138.381777 
L 254.196364 129.767263 
L 250.917025 131.190166 
L 247.637686 123.011245 
L 244.358347 129.214753 
L 241.079008 130.464117 
L 237.799669 118.492026 
L 234.520331 131.062197 
L 231.240992 122.28452 
L 227.961653 124.546155 
L 224.682314 118.295984 
L 221.402975 124.35019 
L 218.123636 116.055047 
L 214.844298 112.674358 
L 211.564959 114.130192 
L 208.28562 118.231129 
L 205.006281 119.323805 
L 201.726942 117.948559 
L 198.447603 116.65644 
L 195.168264 111.372779 
L 191.888926 111.429542 
L 188.609587 112.329943 
L 185.330248 107.115111 
L 182.050909 110.475719 
L 178.77157 105.332507 
L 175.492231 111.579069 
L 172.212893 103.370262 
L 168.933554 110.60262 
L 165.654215 106.572497 
L 162.374876 109.864628 
L 159.095537 100.705302 
L 155.816198 104.908703 
L 152.53686 104.088021 
L 149.257521 100.692393 
L 145.978182 100.060674 
L 142.698843 98.643071 
L 139.419504 101.943126 
L 136.140165 99.444042 
L 132.860826 99.152365 
L 129.581488 99.226401 
L 126.302149 97.777095 
L 123.02281 98.626025 
L 119.743471 98.696673 
L 116.464132 98.008855 
L 113.184793 98.139911 
L 109.905455 98.075969 
L 106.626116 96.323159 
L 103.346777 97.434894 
L 100.067438 97.693873 
L 96.788099 101.009004 
L 93.50876 96.429815 
L 90.229421 98.890347 
L 86.950083 96.279928 
L 83.670744 99.321443 
L 80.391405 99.241639 
L 77.112066 99.217224 
L 73.832727 103.989941 
z
" style="fill:#1f77b4;fill-opacity:0.2;"/>
   </g>
   <g id="PolyCollection_2">
    <path clip-path="url(#pd476aaa833)" d="M 73.832727 61.570651 
L 73.832727 61.570651 
L 77.112066 76.653108 
L 80.391405 84.525077 
L 83.670744 85.931761 
L 86.950083 86.823801 
L 90.229421 93.305565 
L 93.50876 95.742796 
L 96.788099 100.16689 
L 100.067438 102.296552 
L 103.346777 106.446418 
L 106.626116 108.856059 
L 109.905455 104.55708 
L 113.184793 111.62168 
L 116.464132 109.36304 
L 119.743471 114.241608 
L 123.02281 120.046236 
L 126.302149 112.165185 
L 129.581488 119.120577 
L 132.860826 125.017682 
L 136.140165 129.627991 
L 139.419504 128.631443 
L 142.698843 131.9803 
L 145.978182 132.975277 
L 149.257521 134.063917 
L 152.53686 130.577779 
L 155.816198 135.669608 
L 159.095537 140.190299 
L 162.374876 136.196436 
L 165.654215 138.417341 
L 168.933554 145.598028 
L 172.212893 136.842191 
L 175.492231 145.594322 
L 178.77157 147.445954 
L 182.050909 147.490976 
L 185.330248 150.23445 
L 188.609587 153.088811 
L 191.888926 153.086164 
L 195.168264 153.91196 
L 198.447603 155.454409 
L 201.726942 154.289152 
L 205.006281 154.735274 
L 208.28562 164.504761 
L 211.564959 154.873242 
L 214.844298 162.453466 
L 218.123636 169.552761 
L 221.402975 168.784782 
L 224.682314 175.397123 
L 227.961653 175.369213 
L 231.240992 164.074425 
L 234.520331 174.138064 
L 237.799669 169.319478 
L 241.079008 176.969706 
L 244.358347 178.619975 
L 247.637686 176.687966 
L 250.917025 187.75179 
L 254.196364 183.652268 
L 257.475702 186.317989 
L 260.755041 187.483532 
L 264.03438 186.376394 
L 267.313719 187.413889 
L 270.593058 188.053033 
L 273.872397 187.790101 
L 277.151736 192.586246 
L 280.431074 191.920352 
L 283.710413 201.059064 
L 286.989752 193.816675 
L 290.269091 199.376638 
L 293.54843 199.099396 
L 296.827769 205.429916 
L 300.107107 203.61763 
L 303.386446 199.618531 
L 306.665785 209.678754 
L 309.945124 204.07829 
L 313.224463 204.9662 
L 316.503802 214.975893 
L 319.78314 213.482879 
L 323.062479 214.666236 
L 326.341818 215.574694 
L 329.621157 213.399037 
L 332.900496 231.373598 
L 336.179835 217.728327 
L 339.459174 223.70559 
L 342.738512 219.350353 
L 346.017851 229.706336 
L 349.29719 223.869562 
L 352.576529 232.789944 
L 355.855868 232.247774 
L 359.135207 236.915086 
L 362.414545 242.240395 
L 365.693884 247.776291 
L 368.973223 241.017845 
L 372.252562 243.444686 
L 375.531901 243.382676 
L 378.81124 252.292779 
L 382.090579 246.472333 
L 385.369917 256.35633 
L 388.649256 261.258187 
L 391.928595 268.551753 
L 395.207934 268.635949 
L 398.487273 290.551079 
L 398.487273 205.73855 
L 398.487273 205.73855 
L 395.207934 198.808567 
L 391.928595 190.267507 
L 388.649256 196.712688 
L 385.369917 197.514015 
L 382.090579 175.866337 
L 378.81124 187.437802 
L 375.531901 182.20814 
L 372.252562 181.014949 
L 368.973223 172.695574 
L 365.693884 171.310235 
L 362.414545 171.190228 
L 359.135207 170.152642 
L 355.855868 168.457061 
L 352.576529 167.066504 
L 349.29719 160.150357 
L 346.017851 159.262497 
L 342.738512 149.540009 
L 339.459174 158.334757 
L 336.179835 161.201273 
L 332.900496 162.826949 
L 329.621157 156.19832 
L 326.341818 145.680197 
L 323.062479 158.466059 
L 319.78314 141.550521 
L 316.503802 151.510717 
L 313.224463 143.421507 
L 309.945124 146.006191 
L 306.665785 144.506255 
L 303.386446 142.971879 
L 300.107107 142.790513 
L 296.827769 145.78575 
L 293.54843 136.986718 
L 290.269091 132.608946 
L 286.989752 136.472137 
L 283.710413 128.098569 
L 280.431074 134.833522 
L 277.151736 129.501503 
L 273.872397 128.21755 
L 270.593058 126.964836 
L 267.313719 125.483015 
L 264.03438 124.823743 
L 260.755041 125.837568 
L 257.475702 128.558478 
L 254.196364 125.568296 
L 250.917025 118.49942 
L 247.637686 123.765945 
L 244.358347 121.692543 
L 241.079008 120.514854 
L 237.799669 117.277467 
L 234.520331 117.125001 
L 231.240992 107.251576 
L 227.961653 118.863203 
L 224.682314 110.492835 
L 221.402975 109.752499 
L 218.123636 105.025382 
L 214.844298 106.610172 
L 211.564959 104.99955 
L 208.28562 104.841666 
L 205.006281 101.743973 
L 201.726942 108.694389 
L 198.447603 108.518915 
L 195.168264 102.001694 
L 191.888926 100.282337 
L 188.609587 97.027548 
L 185.330248 100.87169 
L 182.050909 94.141521 
L 178.77157 98.428472 
L 175.492231 93.917213 
L 172.212893 89.943556 
L 168.933554 94.761891 
L 165.654215 88.6512 
L 162.374876 86.488781 
L 159.095537 89.706198 
L 155.816198 85.743028 
L 152.53686 81.502611 
L 149.257521 83.10679 
L 145.978182 81.508871 
L 142.698843 76.989343 
L 139.419504 80.338203 
L 136.140165 77.927674 
L 132.860826 78.15466 
L 129.581488 73.729737 
L 126.302149 70.363105 
L 123.02281 73.793863 
L 119.743471 71.256031 
L 116.464132 63.833007 
L 113.184793 68.644245 
L 109.905455 72.456701 
L 106.626116 70.420085 
L 103.346777 62.79049 
L 100.067438 66.940358 
L 96.788099 66.242069 
L 93.50876 60.20274 
L 90.229421 58.822233 
L 86.950083 53.568 
L 83.670744 56.439604 
L 80.391405 56.997907 
L 77.112066 54.830648 
L 73.832727 61.570651 
z
" style="fill:#ff7f0e;fill-opacity:0.2;"/>
   </g>
   <g id="matplotlib.axis_1">
    <g id="xtick_1">
     <g id="line2d_1">
      <defs>
       <path d="M 0 0 
L 0 3.5 
" id="mb6180a4384" style="stroke:#000000;stroke-width:0.8;"/>
      </defs>
      <g>
       <use style="stroke:#000000;stroke-width:0.8;" x="401.766612" xlink:href="#mb6180a4384" y="307.584"/>
      </g>
     </g>
     <g id="text_1">
      <!-- 0 -->
      <g transform="translate(398.585362 322.182437)scale(0.1 -0.1)">
       <defs>
        <path d="M 31.78125 66.40625 
Q 24.171875 66.40625 20.328125 58.90625 
Q 16.5 51.421875 16.5 36.375 
Q 16.5 21.390625 20.328125 13.890625 
Q 24.171875 6.390625 31.78125 6.390625 
Q 39.453125 6.390625 43.28125 13.890625 
Q 47.125 21.390625 47.125 36.375 
Q 47.125 51.421875 43.28125 58.90625 
Q 39.453125 66.40625 31.78125 66.40625 
z
M 31.78125 74.21875 
Q 44.046875 74.21875 50.515625 64.515625 
Q 56.984375 54.828125 56.984375 36.375 
Q 56.984375 17.96875 50.515625 8.265625 
Q 44.046875 -1.421875 31.78125 -1.421875 
Q 19.53125 -1.421875 13.0625 8.265625 
Q 6.59375 17.96875 6.59375 36.375 
Q 6.59375 54.828125 13.0625 64.515625 
Q 19.53125 74.21875 31.78125 74.21875 
z
" id="DejaVuSans-48"/>
       </defs>
       <use xlink:href="#DejaVuSans-48"/>
      </g>
     </g>
    </g>
    <g id="xtick_2">
     <g id="line2d_2">
      <g>
       <use style="stroke:#000000;stroke-width:0.8;" x="336.179835" xlink:href="#mb6180a4384" y="307.584"/>
      </g>
     </g>
     <g id="text_2">
      <!-- 20 -->
      <g transform="translate(329.817335 322.182437)scale(0.1 -0.1)">
       <defs>
        <path d="M 19.1875 8.296875 
L 53.609375 8.296875 
L 53.609375 0 
L 7.328125 0 
L 7.328125 8.296875 
Q 12.9375 14.109375 22.625 23.890625 
Q 32.328125 33.6875 34.8125 36.53125 
Q 39.546875 41.84375 41.421875 45.53125 
Q 43.3125 49.21875 43.3125 52.78125 
Q 43.3125 58.59375 39.234375 62.25 
Q 35.15625 65.921875 28.609375 65.921875 
Q 23.96875 65.921875 18.8125 64.3125 
Q 13.671875 62.703125 7.8125 59.421875 
L 7.8125 69.390625 
Q 13.765625 71.78125 18.9375 73 
Q 24.125 74.21875 28.421875 74.21875 
Q 39.75 74.21875 46.484375 68.546875 
Q 53.21875 62.890625 53.21875 53.421875 
Q 53.21875 48.921875 51.53125 44.890625 
Q 49.859375 40.875 45.40625 35.40625 
Q 44.1875 33.984375 37.640625 27.21875 
Q 31.109375 20.453125 19.1875 8.296875 
z
" id="DejaVuSans-50"/>
       </defs>
       <use xlink:href="#DejaVuSans-50"/>
       <use x="63.623047" xlink:href="#DejaVuSans-48"/>
      </g>
     </g>
    </g>
    <g id="xtick_3">
     <g id="line2d_3">
      <g>
       <use style="stroke:#000000;stroke-width:0.8;" x="270.593058" xlink:href="#mb6180a4384" y="307.584"/>
      </g>
     </g>
     <g id="text_3">
      <!-- 40 -->
      <g transform="translate(264.230558 322.182437)scale(0.1 -0.1)">
       <defs>
        <path d="M 37.796875 64.3125 
L 12.890625 25.390625 
L 37.796875 25.390625 
z
M 35.203125 72.90625 
L 47.609375 72.90625 
L 47.609375 25.390625 
L 58.015625 25.390625 
L 58.015625 17.1875 
L 47.609375 17.1875 
L 47.609375 0 
L 37.796875 0 
L 37.796875 17.1875 
L 4.890625 17.1875 
L 4.890625 26.703125 
z
" id="DejaVuSans-52"/>
       </defs>
       <use xlink:href="#DejaVuSans-52"/>
       <use x="63.623047" xlink:href="#DejaVuSans-48"/>
      </g>
     </g>
    </g>
    <g id="xtick_4">
     <g id="line2d_4">
      <g>
       <use style="stroke:#000000;stroke-width:0.8;" x="205.006281" xlink:href="#mb6180a4384" y="307.584"/>
      </g>
     </g>
     <g id="text_4">
      <!-- 60 -->
      <g transform="translate(198.643781 322.182437)scale(0.1 -0.1)">
       <defs>
        <path d="M 33.015625 40.375 
Q 26.375 40.375 22.484375 35.828125 
Q 18.609375 31.296875 18.609375 23.390625 
Q 18.609375 15.53125 22.484375 10.953125 
Q 26.375 6.390625 33.015625 6.390625 
Q 39.65625 6.390625 43.53125 10.953125 
Q 47.40625 15.53125 47.40625 23.390625 
Q 47.40625 31.296875 43.53125 35.828125 
Q 39.65625 40.375 33.015625 40.375 
z
M 52.59375 71.296875 
L 52.59375 62.3125 
Q 48.875 64.0625 45.09375 64.984375 
Q 41.3125 65.921875 37.59375 65.921875 
Q 27.828125 65.921875 22.671875 59.328125 
Q 17.53125 52.734375 16.796875 39.40625 
Q 19.671875 43.65625 24.015625 45.921875 
Q 28.375 48.1875 33.59375 48.1875 
Q 44.578125 48.1875 50.953125 41.515625 
Q 57.328125 34.859375 57.328125 23.390625 
Q 57.328125 12.15625 50.6875 5.359375 
Q 44.046875 -1.421875 33.015625 -1.421875 
Q 20.359375 -1.421875 13.671875 8.265625 
Q 6.984375 17.96875 6.984375 36.375 
Q 6.984375 53.65625 15.1875 63.9375 
Q 23.390625 74.21875 37.203125 74.21875 
Q 40.921875 74.21875 44.703125 73.484375 
Q 48.484375 72.75 52.59375 71.296875 
z
" id="DejaVuSans-54"/>
       </defs>
       <use xlink:href="#DejaVuSans-54"/>
       <use x="63.623047" xlink:href="#DejaVuSans-48"/>
      </g>
     </g>
    </g>
    <g id="xtick_5">
     <g id="line2d_5">
      <g>
       <use style="stroke:#000000;stroke-width:0.8;" x="139.419504" xlink:href="#mb6180a4384" y="307.584"/>
      </g>
     </g>
     <g id="text_5">
      <!-- 80 -->
      <g transform="translate(133.057004 322.182437)scale(0.1 -0.1)">
       <defs>
        <path d="M 31.78125 34.625 
Q 24.75 34.625 20.71875 30.859375 
Q 16.703125 27.09375 16.703125 20.515625 
Q 16.703125 13.921875 20.71875 10.15625 
Q 24.75 6.390625 31.78125 6.390625 
Q 38.8125 6.390625 42.859375 10.171875 
Q 46.921875 13.96875 46.921875 20.515625 
Q 46.921875 27.09375 42.890625 30.859375 
Q 38.875 34.625 31.78125 34.625 
z
M 21.921875 38.8125 
Q 15.578125 40.375 12.03125 44.71875 
Q 8.5 49.078125 8.5 55.328125 
Q 8.5 64.0625 14.71875 69.140625 
Q 20.953125 74.21875 31.78125 74.21875 
Q 42.671875 74.21875 48.875 69.140625 
Q 55.078125 64.0625 55.078125 55.328125 
Q 55.078125 49.078125 51.53125 44.71875 
Q 48 40.375 41.703125 38.8125 
Q 48.828125 37.15625 52.796875 32.3125 
Q 56.78125 27.484375 56.78125 20.515625 
Q 56.78125 9.90625 50.3125 4.234375 
Q 43.84375 -1.421875 31.78125 -1.421875 
Q 19.734375 -1.421875 13.25 4.234375 
Q 6.78125 9.90625 6.78125 20.515625 
Q 6.78125 27.484375 10.78125 32.3125 
Q 14.796875 37.15625 21.921875 38.8125 
z
M 18.3125 54.390625 
Q 18.3125 48.734375 21.84375 45.5625 
Q 25.390625 42.390625 31.78125 42.390625 
Q 38.140625 42.390625 41.71875 45.5625 
Q 45.3125 48.734375 45.3125 54.390625 
Q 45.3125 60.0625 41.71875 63.234375 
Q 38.140625 66.40625 31.78125 66.40625 
Q 25.390625 66.40625 21.84375 63.234375 
Q 18.3125 60.0625 18.3125 54.390625 
z
" id="DejaVuSans-56"/>
       </defs>
       <use xlink:href="#DejaVuSans-56"/>
       <use x="63.623047" xlink:href="#DejaVuSans-48"/>
      </g>
     </g>
    </g>
    <g id="xtick_6">
     <g id="line2d_6">
      <g>
       <use style="stroke:#000000;stroke-width:0.8;" x="73.832727" xlink:href="#mb6180a4384" y="307.584"/>
      </g>
     </g>
     <g id="text_6">
      <!-- 100 -->
      <g transform="translate(64.288977 322.182437)scale(0.1 -0.1)">
       <defs>
        <path d="M 12.40625 8.296875 
L 28.515625 8.296875 
L 28.515625 63.921875 
L 10.984375 60.40625 
L 10.984375 69.390625 
L 28.421875 72.90625 
L 38.28125 72.90625 
L 38.28125 8.296875 
L 54.390625 8.296875 
L 54.390625 0 
L 12.40625 0 
z
" id="DejaVuSans-49"/>
       </defs>
       <use xlink:href="#DejaVuSans-49"/>
       <use x="63.623047" xlink:href="#DejaVuSans-48"/>
       <use x="127.246094" xlink:href="#DejaVuSans-48"/>
      </g>
     </g>
    </g>
    <g id="text_7">
     <!-- Number of features -->
     <g transform="translate(187.4225 335.860562)scale(0.1 -0.1)">
      <defs>
       <path d="M 9.8125 72.90625 
L 23.09375 72.90625 
L 55.421875 11.921875 
L 55.421875 72.90625 
L 64.984375 72.90625 
L 64.984375 0 
L 51.703125 0 
L 19.390625 60.984375 
L 19.390625 0 
L 9.8125 0 
z
" id="DejaVuSans-78"/>
       <path d="M 8.5 21.578125 
L 8.5 54.6875 
L 17.484375 54.6875 
L 17.484375 21.921875 
Q 17.484375 14.15625 20.5 10.265625 
Q 23.53125 6.390625 29.59375 6.390625 
Q 36.859375 6.390625 41.078125 11.03125 
Q 45.3125 15.671875 45.3125 23.6875 
L 45.3125 54.6875 
L 54.296875 54.6875 
L 54.296875 0 
L 45.3125 0 
L 45.3125 8.40625 
Q 42.046875 3.421875 37.71875 1 
Q 33.40625 -1.421875 27.6875 -1.421875 
Q 18.265625 -1.421875 13.375 4.4375 
Q 8.5 10.296875 8.5 21.578125 
z
M 31.109375 56 
z
" id="DejaVuSans-117"/>
       <path d="M 52 44.1875 
Q 55.375 50.25 60.0625 53.125 
Q 64.75 56 71.09375 56 
Q 79.640625 56 84.28125 50.015625 
Q 88.921875 44.046875 88.921875 33.015625 
L 88.921875 0 
L 79.890625 0 
L 79.890625 32.71875 
Q 79.890625 40.578125 77.09375 44.375 
Q 74.3125 48.1875 68.609375 48.1875 
Q 61.625 48.1875 57.5625 43.546875 
Q 53.515625 38.921875 53.515625 30.90625 
L 53.515625 0 
L 44.484375 0 
L 44.484375 32.71875 
Q 44.484375 40.625 41.703125 44.40625 
Q 38.921875 48.1875 33.109375 48.1875 
Q 26.21875 48.1875 22.15625 43.53125 
Q 18.109375 38.875 18.109375 30.90625 
L 18.109375 0 
L 9.078125 0 
L 9.078125 54.6875 
L 18.109375 54.6875 
L 18.109375 46.1875 
Q 21.1875 51.21875 25.484375 53.609375 
Q 29.78125 56 35.6875 56 
Q 41.65625 56 45.828125 52.96875 
Q 50 49.953125 52 44.1875 
z
" id="DejaVuSans-109"/>
       <path d="M 48.6875 27.296875 
Q 48.6875 37.203125 44.609375 42.84375 
Q 40.53125 48.484375 33.40625 48.484375 
Q 26.265625 48.484375 22.1875 42.84375 
Q 18.109375 37.203125 18.109375 27.296875 
Q 18.109375 17.390625 22.1875 11.75 
Q 26.265625 6.109375 33.40625 6.109375 
Q 40.53125 6.109375 44.609375 11.75 
Q 48.6875 17.390625 48.6875 27.296875 
z
M 18.109375 46.390625 
Q 20.953125 51.265625 25.265625 53.625 
Q 29.59375 56 35.59375 56 
Q 45.5625 56 51.78125 48.09375 
Q 58.015625 40.1875 58.015625 27.296875 
Q 58.015625 14.40625 51.78125 6.484375 
Q 45.5625 -1.421875 35.59375 -1.421875 
Q 29.59375 -1.421875 25.265625 0.953125 
Q 20.953125 3.328125 18.109375 8.203125 
L 18.109375 0 
L 9.078125 0 
L 9.078125 75.984375 
L 18.109375 75.984375 
z
" id="DejaVuSans-98"/>
       <path d="M 56.203125 29.59375 
L 56.203125 25.203125 
L 14.890625 25.203125 
Q 15.484375 15.921875 20.484375 11.0625 
Q 25.484375 6.203125 34.421875 6.203125 
Q 39.59375 6.203125 44.453125 7.46875 
Q 49.3125 8.734375 54.109375 11.28125 
L 54.109375 2.78125 
Q 49.265625 0.734375 44.1875 -0.34375 
Q 39.109375 -1.421875 33.890625 -1.421875 
Q 20.796875 -1.421875 13.15625 6.1875 
Q 5.515625 13.8125 5.515625 26.8125 
Q 5.515625 40.234375 12.765625 48.109375 
Q 20.015625 56 32.328125 56 
Q 43.359375 56 49.78125 48.890625 
Q 56.203125 41.796875 56.203125 29.59375 
z
M 47.21875 32.234375 
Q 47.125 39.59375 43.09375 43.984375 
Q 39.0625 48.390625 32.421875 48.390625 
Q 24.90625 48.390625 20.390625 44.140625 
Q 15.875 39.890625 15.1875 32.171875 
z
" id="DejaVuSans-101"/>
       <path d="M 41.109375 46.296875 
Q 39.59375 47.171875 37.8125 47.578125 
Q 36.03125 48 33.890625 48 
Q 26.265625 48 22.1875 43.046875 
Q 18.109375 38.09375 18.109375 28.8125 
L 18.109375 0 
L 9.078125 0 
L 9.078125 54.6875 
L 18.109375 54.6875 
L 18.109375 46.1875 
Q 20.953125 51.171875 25.484375 53.578125 
Q 30.03125 56 36.53125 56 
Q 37.453125 56 38.578125 55.875 
Q 39.703125 55.765625 41.0625 55.515625 
z
" id="DejaVuSans-114"/>
       <path id="DejaVuSans-32"/>
       <path d="M 30.609375 48.390625 
Q 23.390625 48.390625 19.1875 42.75 
Q 14.984375 37.109375 14.984375 27.296875 
Q 14.984375 17.484375 19.15625 11.84375 
Q 23.34375 6.203125 30.609375 6.203125 
Q 37.796875 6.203125 41.984375 11.859375 
Q 46.1875 17.53125 46.1875 27.296875 
Q 46.1875 37.015625 41.984375 42.703125 
Q 37.796875 48.390625 30.609375 48.390625 
z
M 30.609375 56 
Q 42.328125 56 49.015625 48.375 
Q 55.71875 40.765625 55.71875 27.296875 
Q 55.71875 13.875 49.015625 6.21875 
Q 42.328125 -1.421875 30.609375 -1.421875 
Q 18.84375 -1.421875 12.171875 6.21875 
Q 5.515625 13.875 5.515625 27.296875 
Q 5.515625 40.765625 12.171875 48.375 
Q 18.84375 56 30.609375 56 
z
" id="DejaVuSans-111"/>
       <path d="M 37.109375 75.984375 
L 37.109375 68.5 
L 28.515625 68.5 
Q 23.6875 68.5 21.796875 66.546875 
Q 19.921875 64.59375 19.921875 59.515625 
L 19.921875 54.6875 
L 34.71875 54.6875 
L 34.71875 47.703125 
L 19.921875 47.703125 
L 19.921875 0 
L 10.890625 0 
L 10.890625 47.703125 
L 2.296875 47.703125 
L 2.296875 54.6875 
L 10.890625 54.6875 
L 10.890625 58.5 
Q 10.890625 67.625 15.140625 71.796875 
Q 19.390625 75.984375 28.609375 75.984375 
z
" id="DejaVuSans-102"/>
       <path d="M 34.28125 27.484375 
Q 23.390625 27.484375 19.1875 25 
Q 14.984375 22.515625 14.984375 16.5 
Q 14.984375 11.71875 18.140625 8.90625 
Q 21.296875 6.109375 26.703125 6.109375 
Q 34.1875 6.109375 38.703125 11.40625 
Q 43.21875 16.703125 43.21875 25.484375 
L 43.21875 27.484375 
z
M 52.203125 31.203125 
L 52.203125 0 
L 43.21875 0 
L 43.21875 8.296875 
Q 40.140625 3.328125 35.546875 0.953125 
Q 30.953125 -1.421875 24.3125 -1.421875 
Q 15.921875 -1.421875 10.953125 3.296875 
Q 6 8.015625 6 15.921875 
Q 6 25.140625 12.171875 29.828125 
Q 18.359375 34.515625 30.609375 34.515625 
L 43.21875 34.515625 
L 43.21875 35.40625 
Q 43.21875 41.609375 39.140625 45 
Q 35.0625 48.390625 27.6875 48.390625 
Q 23 48.390625 18.546875 47.265625 
Q 14.109375 46.140625 10.015625 43.890625 
L 10.015625 52.203125 
Q 14.9375 54.109375 19.578125 55.046875 
Q 24.21875 56 28.609375 56 
Q 40.484375 56 46.34375 49.84375 
Q 52.203125 43.703125 52.203125 31.203125 
z
" id="DejaVuSans-97"/>
       <path d="M 18.3125 70.21875 
L 18.3125 54.6875 
L 36.8125 54.6875 
L 36.8125 47.703125 
L 18.3125 47.703125 
L 18.3125 18.015625 
Q 18.3125 11.328125 20.140625 9.421875 
Q 21.96875 7.515625 27.59375 7.515625 
L 36.8125 7.515625 
L 36.8125 0 
L 27.59375 0 
Q 17.1875 0 13.234375 3.875 
Q 9.28125 7.765625 9.28125 18.015625 
L 9.28125 47.703125 
L 2.6875 47.703125 
L 2.6875 54.6875 
L 9.28125 54.6875 
L 9.28125 70.21875 
z
" id="DejaVuSans-116"/>
       <path d="M 44.28125 53.078125 
L 44.28125 44.578125 
Q 40.484375 46.53125 36.375 47.5 
Q 32.28125 48.484375 27.875 48.484375 
Q 21.1875 48.484375 17.84375 46.4375 
Q 14.5 44.390625 14.5 40.28125 
Q 14.5 37.15625 16.890625 35.375 
Q 19.28125 33.59375 26.515625 31.984375 
L 29.59375 31.296875 
Q 39.15625 29.25 43.1875 25.515625 
Q 47.21875 21.78125 47.21875 15.09375 
Q 47.21875 7.46875 41.1875 3.015625 
Q 35.15625 -1.421875 24.609375 -1.421875 
Q 20.21875 -1.421875 15.453125 -0.5625 
Q 10.6875 0.296875 5.421875 2 
L 5.421875 11.28125 
Q 10.40625 8.6875 15.234375 7.390625 
Q 20.0625 6.109375 24.8125 6.109375 
Q 31.15625 6.109375 34.5625 8.28125 
Q 37.984375 10.453125 37.984375 14.40625 
Q 37.984375 18.0625 35.515625 20.015625 
Q 33.0625 21.96875 24.703125 23.78125 
L 21.578125 24.515625 
Q 13.234375 26.265625 9.515625 29.90625 
Q 5.8125 33.546875 5.8125 39.890625 
Q 5.8125 47.609375 11.28125 51.796875 
Q 16.75 56 26.8125 56 
Q 31.78125 56 36.171875 55.265625 
Q 40.578125 54.546875 44.28125 53.078125 
z
" id="DejaVuSans-115"/>
      </defs>
      <use xlink:href="#DejaVuSans-78"/>
      <use x="74.804688" xlink:href="#DejaVuSans-117"/>
      <use x="138.183594" xlink:href="#DejaVuSans-109"/>
      <use x="235.595703" xlink:href="#DejaVuSans-98"/>
      <use x="299.072266" xlink:href="#DejaVuSans-101"/>
      <use x="360.595703" xlink:href="#DejaVuSans-114"/>
      <use x="401.708984" xlink:href="#DejaVuSans-32"/>
      <use x="433.496094" xlink:href="#DejaVuSans-111"/>
      <use x="494.677734" xlink:href="#DejaVuSans-102"/>
      <use x="529.882812" xlink:href="#DejaVuSans-32"/>
      <use x="561.669922" xlink:href="#DejaVuSans-102"/>
      <use x="596.875" xlink:href="#DejaVuSans-101"/>
      <use x="658.398438" xlink:href="#DejaVuSans-97"/>
      <use x="719.677734" xlink:href="#DejaVuSans-116"/>
      <use x="758.886719" xlink:href="#DejaVuSans-117"/>
      <use x="822.265625" xlink:href="#DejaVuSans-114"/>
      <use x="861.128906" xlink:href="#DejaVuSans-101"/>
      <use x="922.652344" xlink:href="#DejaVuSans-115"/>
     </g>
    </g>
   </g>
   <g id="matplotlib.axis_2">
    <g id="ytick_1">
     <g id="line2d_7">
      <defs>
       <path d="M 0 0 
L -3.5 0 
" id="mb8e4e30683" style="stroke:#000000;stroke-width:0.8;"/>
      </defs>
      <g>
       <use style="stroke:#000000;stroke-width:0.8;" x="57.6" xlink:href="#mb8e4e30683" y="280.736967"/>
      </g>
     </g>
     <g id="text_8">
      <!-- 0.45 -->
      <g transform="translate(28.334375 284.536185)scale(0.1 -0.1)">
       <defs>
        <path d="M 10.6875 12.40625 
L 21 12.40625 
L 21 0 
L 10.6875 0 
z
" id="DejaVuSans-46"/>
        <path d="M 10.796875 72.90625 
L 49.515625 72.90625 
L 49.515625 64.59375 
L 19.828125 64.59375 
L 19.828125 46.734375 
Q 21.96875 47.46875 24.109375 47.828125 
Q 26.265625 48.1875 28.421875 48.1875 
Q 40.625 48.1875 47.75 41.5 
Q 54.890625 34.8125 54.890625 23.390625 
Q 54.890625 11.625 47.5625 5.09375 
Q 40.234375 -1.421875 26.90625 -1.421875 
Q 22.3125 -1.421875 17.546875 -0.640625 
Q 12.796875 0.140625 7.71875 1.703125 
L 7.71875 11.625 
Q 12.109375 9.234375 16.796875 8.0625 
Q 21.484375 6.890625 26.703125 6.890625 
Q 35.15625 6.890625 40.078125 11.328125 
Q 45.015625 15.765625 45.015625 23.390625 
Q 45.015625 31 40.078125 35.4375 
Q 35.15625 39.890625 26.703125 39.890625 
Q 22.75 39.890625 18.8125 39.015625 
Q 14.890625 38.140625 10.796875 36.28125 
z
" id="DejaVuSans-53"/>
       </defs>
       <use xlink:href="#DejaVuSans-48"/>
       <use x="63.623047" xlink:href="#DejaVuSans-46"/>
       <use x="95.410156" xlink:href="#DejaVuSans-52"/>
       <use x="159.033203" xlink:href="#DejaVuSans-53"/>
      </g>
     </g>
    </g>
    <g id="ytick_2">
     <g id="line2d_8">
      <g>
       <use style="stroke:#000000;stroke-width:0.8;" x="57.6" xlink:href="#mb8e4e30683" y="245.38756"/>
      </g>
     </g>
     <g id="text_9">
      <!-- 0.50 -->
      <g transform="translate(28.334375 249.186779)scale(0.1 -0.1)">
       <use xlink:href="#DejaVuSans-48"/>
       <use x="63.623047" xlink:href="#DejaVuSans-46"/>
       <use x="95.410156" xlink:href="#DejaVuSans-53"/>
       <use x="159.033203" xlink:href="#DejaVuSans-48"/>
      </g>
     </g>
    </g>
    <g id="ytick_3">
     <g id="line2d_9">
      <g>
       <use style="stroke:#000000;stroke-width:0.8;" x="57.6" xlink:href="#mb8e4e30683" y="210.038153"/>
      </g>
     </g>
     <g id="text_10">
      <!-- 0.55 -->
      <g transform="translate(28.334375 213.837372)scale(0.1 -0.1)">
       <use xlink:href="#DejaVuSans-48"/>
       <use x="63.623047" xlink:href="#DejaVuSans-46"/>
       <use x="95.410156" xlink:href="#DejaVuSans-53"/>
       <use x="159.033203" xlink:href="#DejaVuSans-53"/>
      </g>
     </g>
    </g>
    <g id="ytick_4">
     <g id="line2d_10">
      <g>
       <use style="stroke:#000000;stroke-width:0.8;" x="57.6" xlink:href="#mb8e4e30683" y="174.688746"/>
      </g>
     </g>
     <g id="text_11">
      <!-- 0.60 -->
      <g transform="translate(28.334375 178.487965)scale(0.1 -0.1)">
       <use xlink:href="#DejaVuSans-48"/>
       <use x="63.623047" xlink:href="#DejaVuSans-46"/>
       <use x="95.410156" xlink:href="#DejaVuSans-54"/>
       <use x="159.033203" xlink:href="#DejaVuSans-48"/>
      </g>
     </g>
    </g>
    <g id="ytick_5">
     <g id="line2d_11">
      <g>
       <use style="stroke:#000000;stroke-width:0.8;" x="57.6" xlink:href="#mb8e4e30683" y="139.339339"/>
      </g>
     </g>
     <g id="text_12">
      <!-- 0.65 -->
      <g transform="translate(28.334375 143.138558)scale(0.1 -0.1)">
       <use xlink:href="#DejaVuSans-48"/>
       <use x="63.623047" xlink:href="#DejaVuSans-46"/>
       <use x="95.410156" xlink:href="#DejaVuSans-54"/>
       <use x="159.033203" xlink:href="#DejaVuSans-53"/>
      </g>
     </g>
    </g>
    <g id="ytick_6">
     <g id="line2d_12">
      <g>
       <use style="stroke:#000000;stroke-width:0.8;" x="57.6" xlink:href="#mb8e4e30683" y="103.989932"/>
      </g>
     </g>
     <g id="text_13">
      <!-- 0.70 -->
      <g transform="translate(28.334375 107.789151)scale(0.1 -0.1)">
       <defs>
        <path d="M 8.203125 72.90625 
L 55.078125 72.90625 
L 55.078125 68.703125 
L 28.609375 0 
L 18.3125 0 
L 43.21875 64.59375 
L 8.203125 64.59375 
z
" id="DejaVuSans-55"/>
       </defs>
       <use xlink:href="#DejaVuSans-48"/>
       <use x="63.623047" xlink:href="#DejaVuSans-46"/>
       <use x="95.410156" xlink:href="#DejaVuSans-55"/>
       <use x="159.033203" xlink:href="#DejaVuSans-48"/>
      </g>
     </g>
    </g>
    <g id="ytick_7">
     <g id="line2d_13">
      <g>
       <use style="stroke:#000000;stroke-width:0.8;" x="57.6" xlink:href="#mb8e4e30683" y="68.640526"/>
      </g>
     </g>
     <g id="text_14">
      <!-- 0.75 -->
      <g transform="translate(28.334375 72.439744)scale(0.1 -0.1)">
       <use xlink:href="#DejaVuSans-48"/>
       <use x="63.623047" xlink:href="#DejaVuSans-46"/>
       <use x="95.410156" xlink:href="#DejaVuSans-55"/>
       <use x="159.033203" xlink:href="#DejaVuSans-53"/>
      </g>
     </g>
    </g>
    <g id="text_15">
     <!-- Accuracy -->
     <g transform="translate(22.254687 197.356125)rotate(-90)scale(0.1 -0.1)">
      <defs>
       <path d="M 34.1875 63.1875 
L 20.796875 26.90625 
L 47.609375 26.90625 
z
M 28.609375 72.90625 
L 39.796875 72.90625 
L 67.578125 0 
L 57.328125 0 
L 50.6875 18.703125 
L 17.828125 18.703125 
L 11.1875 0 
L 0.78125 0 
z
" id="DejaVuSans-65"/>
       <path d="M 48.78125 52.59375 
L 48.78125 44.1875 
Q 44.96875 46.296875 41.140625 47.34375 
Q 37.3125 48.390625 33.40625 48.390625 
Q 24.65625 48.390625 19.8125 42.84375 
Q 14.984375 37.3125 14.984375 27.296875 
Q 14.984375 17.28125 19.8125 11.734375 
Q 24.65625 6.203125 33.40625 6.203125 
Q 37.3125 6.203125 41.140625 7.25 
Q 44.96875 8.296875 48.78125 10.40625 
L 48.78125 2.09375 
Q 45.015625 0.34375 40.984375 -0.53125 
Q 36.96875 -1.421875 32.421875 -1.421875 
Q 20.0625 -1.421875 12.78125 6.34375 
Q 5.515625 14.109375 5.515625 27.296875 
Q 5.515625 40.671875 12.859375 48.328125 
Q 20.21875 56 33.015625 56 
Q 37.15625 56 41.109375 55.140625 
Q 45.0625 54.296875 48.78125 52.59375 
z
" id="DejaVuSans-99"/>
       <path d="M 32.171875 -5.078125 
Q 28.375 -14.84375 24.75 -17.8125 
Q 21.140625 -20.796875 15.09375 -20.796875 
L 7.90625 -20.796875 
L 7.90625 -13.28125 
L 13.1875 -13.28125 
Q 16.890625 -13.28125 18.9375 -11.515625 
Q 21 -9.765625 23.484375 -3.21875 
L 25.09375 0.875 
L 2.984375 54.6875 
L 12.5 54.6875 
L 29.59375 11.921875 
L 46.6875 54.6875 
L 56.203125 54.6875 
z
" id="DejaVuSans-121"/>
      </defs>
      <use xlink:href="#DejaVuSans-65"/>
      <use x="66.658203" xlink:href="#DejaVuSans-99"/>
      <use x="121.638672" xlink:href="#DejaVuSans-99"/>
      <use x="176.619141" xlink:href="#DejaVuSans-117"/>
      <use x="239.998047" xlink:href="#DejaVuSans-114"/>
      <use x="281.111328" xlink:href="#DejaVuSans-97"/>
      <use x="342.390625" xlink:href="#DejaVuSans-99"/>
      <use x="397.371094" xlink:href="#DejaVuSans-121"/>
     </g>
    </g>
   </g>
   <g id="line2d_14">
    <path clip-path="url(#pd476aaa833)" d="M 73.832727 103.989941 
L 77.112066 107.242081 
L 80.391405 110.352825 
L 83.670744 109.857936 
L 86.950083 108.656054 
L 90.229421 114.524055 
L 93.50876 116.291525 
L 96.788099 117.422705 
L 100.067438 115.160344 
L 103.346777 115.584536 
L 106.626116 118.695284 
L 109.905455 118.271094 
L 113.184793 118.836681 
L 116.464132 118.90738 
L 119.743471 118.624585 
L 123.02281 122.513018 
L 126.302149 118.553887 
L 129.581488 122.725117 
L 132.860826 123.290706 
L 136.140165 125.906563 
L 139.419504 125.765164 
L 142.698843 126.047959 
L 145.978182 125.977262 
L 149.257521 123.290705 
L 152.53686 130.077796 
L 155.816198 129.01731 
L 159.095537 127.956829 
L 162.374876 131.138276 
L 165.654215 129.936395 
L 168.933554 136.369988 
L 172.212893 128.168924 
L 175.492231 135.875096 
L 178.77157 130.28989 
L 182.050909 137.501169 
L 185.330248 134.814614 
L 188.609587 138.844449 
L 191.888926 141.743097 
L 195.168264 141.177509 
L 198.447603 144.005462 
L 201.726942 142.874279 
L 205.006281 142.167291 
L 208.28562 143.015678 
L 211.564959 140.894713 
L 214.844298 141.955193 
L 218.123636 143.43987 
L 221.402975 149.307872 
L 224.682314 148.600882 
L 227.961653 150.085559 
L 231.240992 148.954378 
L 234.520331 154.751681 
L 237.799669 153.832596 
L 241.079008 159.983393 
L 244.358347 159.064308 
L 247.637686 153.7619 
L 250.917025 160.831779 
L 254.196364 157.084741 
L 257.475702 165.356504 
L 260.755041 158.710816 
L 264.03438 160.83178 
L 267.313719 164.720213 
L 270.593058 164.93231 
L 273.872397 165.00301 
L 277.151736 168.608649 
L 280.431074 164.578817 
L 283.710413 170.800312 
L 286.989752 168.750047 
L 290.269091 170.234723 
L 293.54843 172.779881 
L 296.827769 176.456219 
L 300.107107 178.577182 
L 303.386446 175.04224 
L 306.665785 184.162387 
L 309.945124 176.809712 
L 313.224463 183.667497 
L 316.503802 187.980123 
L 319.78314 186.566146 
L 323.062479 191.939258 
L 326.341818 186.212655 
L 329.621157 185.929861 
L 332.900496 192.080657 
L 336.179835 193.494635 
L 339.459174 186.990341 
L 342.738512 191.23227 
L 346.017851 200.140322 
L 349.29719 196.039787 
L 352.576529 201.624996 
L 355.855868 199.998923 
L 359.135207 204.240855 
L 362.414545 204.877142 
L 365.693884 211.098638 
L 368.973223 213.007504 
L 372.252562 214.350783 
L 375.531901 214.067987 
L 378.81124 217.956422 
L 382.090579 215.411266 
L 385.369917 227.500764 
L 388.649256 228.349148 
L 391.928595 225.379798 
L 395.207934 232.025487 
L 398.487273 253.447226 
" style="fill:none;stroke:#1f77b4;stroke-linecap:square;stroke-width:1.5;"/>
   </g>
   <g id="line2d_15">
    <path clip-path="url(#pd476aaa833)" d="M 73.832727 61.570651 
L 77.112066 65.741878 
L 80.391405 70.761492 
L 83.670744 71.185683 
L 86.950083 70.195901 
L 90.229421 76.063899 
L 93.50876 77.972768 
L 96.788099 83.20448 
L 100.067438 84.618455 
L 103.346777 84.618454 
L 106.626116 89.638072 
L 109.905455 88.50689 
L 113.184793 90.132963 
L 116.464132 86.598024 
L 119.743471 92.74882 
L 123.02281 96.920049 
L 126.302149 91.264145 
L 129.581488 96.425157 
L 132.860826 101.586171 
L 136.140165 103.777832 
L 139.419504 104.484823 
L 142.698843 104.484822 
L 145.978182 107.242074 
L 149.257521 108.585353 
L 152.53686 106.040195 
L 155.816198 110.706318 
L 159.095537 114.948249 
L 162.374876 111.342608 
L 165.654215 113.53427 
L 168.933554 120.17996 
L 172.212893 113.392874 
L 175.492231 119.755768 
L 178.77157 122.937213 
L 182.050909 120.816249 
L 185.330248 125.55307 
L 188.609587 125.058179 
L 191.888926 126.684251 
L 195.168264 127.956827 
L 198.447603 131.986662 
L 201.726942 131.49177 
L 205.006281 128.239623 
L 208.28562 134.673214 
L 211.564959 129.936396 
L 214.844298 134.531819 
L 218.123636 137.289072 
L 221.402975 139.26864 
L 224.682314 142.944979 
L 227.961653 147.116208 
L 231.240992 135.663 
L 234.520331 145.631533 
L 237.799669 143.298472 
L 241.079008 148.74228 
L 244.358347 150.156259 
L 247.637686 150.226955 
L 250.917025 153.125605 
L 254.196364 154.610282 
L 257.475702 157.438233 
L 260.755041 156.66055 
L 264.03438 155.600069 
L 267.313719 156.448452 
L 270.593058 157.508935 
L 273.872397 158.003826 
L 277.151736 161.043875 
L 280.431074 163.376937 
L 283.710413 164.578816 
L 286.989752 165.144406 
L 290.269091 165.992792 
L 293.54843 168.043057 
L 296.827769 175.607833 
L 300.107107 173.204071 
L 303.386446 171.295205 
L 306.665785 177.092505 
L 309.945124 175.04224 
L 313.224463 174.193853 
L 316.503802 183.243305 
L 319.78314 177.5167 
L 323.062479 186.566148 
L 326.341818 180.627446 
L 329.621157 184.798678 
L 332.900496 197.100274 
L 336.179835 189.4648 
L 339.459174 191.020174 
L 342.738512 184.445181 
L 346.017851 194.484417 
L 349.29719 192.009959 
L 352.576529 199.928224 
L 355.855868 200.352417 
L 359.135207 203.533864 
L 362.414545 206.715311 
L 365.693884 209.543263 
L 368.973223 206.856709 
L 372.252562 212.229817 
L 375.531901 212.795408 
L 378.81124 219.86529 
L 382.090579 211.169335 
L 385.369917 226.935173 
L 388.649256 228.985438 
L 391.928595 229.40963 
L 395.207934 233.722258 
L 398.487273 248.144815 
" style="fill:none;stroke:#ff7f0e;stroke-linecap:square;stroke-width:1.5;"/>
   </g>
   <g id="patch_3">
    <path d="M 57.6 307.584 
L 57.6 41.472 
" style="fill:none;stroke:#000000;stroke-linecap:square;stroke-linejoin:miter;stroke-width:0.8;"/>
   </g>
   <g id="patch_4">
    <path d="M 414.72 307.584 
L 414.72 41.472 
" style="fill:none;stroke:#000000;stroke-linecap:square;stroke-linejoin:miter;stroke-width:0.8;"/>
   </g>
   <g id="patch_5">
    <path d="M 57.6 307.584 
L 414.72 307.584 
" style="fill:none;stroke:#000000;stroke-linecap:square;stroke-linejoin:miter;stroke-width:0.8;"/>
   </g>
   <g id="patch_6">
    <path d="M 57.6 41.472 
L 414.72 41.472 
" style="fill:none;stroke:#000000;stroke-linecap:square;stroke-linejoin:miter;stroke-width:0.8;"/>
   </g>
   <g id="text_16">
    <!-- Toy_non_linear_1000_100 -->
    <g transform="translate(159.3225 35.472)scale(0.12 -0.12)">
     <defs>
      <path d="M -0.296875 72.90625 
L 61.375 72.90625 
L 61.375 64.59375 
L 35.5 64.59375 
L 35.5 0 
L 25.59375 0 
L 25.59375 64.59375 
L -0.296875 64.59375 
z
" id="DejaVuSans-84"/>
      <path d="M 50.984375 -16.609375 
L 50.984375 -23.578125 
L -0.984375 -23.578125 
L -0.984375 -16.609375 
z
" id="DejaVuSans-95"/>
      <path d="M 54.890625 33.015625 
L 54.890625 0 
L 45.90625 0 
L 45.90625 32.71875 
Q 45.90625 40.484375 42.875 44.328125 
Q 39.84375 48.1875 33.796875 48.1875 
Q 26.515625 48.1875 22.3125 43.546875 
Q 18.109375 38.921875 18.109375 30.90625 
L 18.109375 0 
L 9.078125 0 
L 9.078125 54.6875 
L 18.109375 54.6875 
L 18.109375 46.1875 
Q 21.34375 51.125 25.703125 53.5625 
Q 30.078125 56 35.796875 56 
Q 45.21875 56 50.046875 50.171875 
Q 54.890625 44.34375 54.890625 33.015625 
z
" id="DejaVuSans-110"/>
      <path d="M 9.421875 75.984375 
L 18.40625 75.984375 
L 18.40625 0 
L 9.421875 0 
z
" id="DejaVuSans-108"/>
      <path d="M 9.421875 54.6875 
L 18.40625 54.6875 
L 18.40625 0 
L 9.421875 0 
z
M 9.421875 75.984375 
L 18.40625 75.984375 
L 18.40625 64.59375 
L 9.421875 64.59375 
z
" id="DejaVuSans-105"/>
     </defs>
     <use xlink:href="#DejaVuSans-84"/>
     <use x="44.083984" xlink:href="#DejaVuSans-111"/>
     <use x="105.265625" xlink:href="#DejaVuSans-121"/>
     <use x="164.445312" xlink:href="#DejaVuSans-95"/>
     <use x="214.445312" xlink:href="#DejaVuSans-110"/>
     <use x="277.824219" xlink:href="#DejaVuSans-111"/>
     <use x="339.005859" xlink:href="#DejaVuSans-110"/>
     <use x="402.384766" xlink:href="#DejaVuSans-95"/>
     <use x="452.384766" xlink:href="#DejaVuSans-108"/>
     <use x="480.167969" xlink:href="#DejaVuSans-105"/>
     <use x="507.951172" xlink:href="#DejaVuSans-110"/>
     <use x="571.330078" xlink:href="#DejaVuSans-101"/>
     <use x="632.853516" xlink:href="#DejaVuSans-97"/>
     <use x="694.132812" xlink:href="#DejaVuSans-114"/>
     <use x="735.246094" xlink:href="#DejaVuSans-95"/>
     <use x="785.246094" xlink:href="#DejaVuSans-49"/>
     <use x="848.869141" xlink:href="#DejaVuSans-48"/>
     <use x="912.492188" xlink:href="#DejaVuSans-48"/>
     <use x="976.115234" xlink:href="#DejaVuSans-48"/>
     <use x="1039.738281" xlink:href="#DejaVuSans-95"/>
     <use x="1089.738281" xlink:href="#DejaVuSans-49"/>
     <use x="1153.361328" xlink:href="#DejaVuSans-48"/>
     <use x="1216.984375" xlink:href="#DejaVuSans-48"/>
    </g>
   </g>
   <g id="legend_1">
    <g id="patch_7">
     <path d="M 211.399687 78.82825 
L 407.72 78.82825 
Q 409.72 78.82825 409.72 76.82825 
L 409.72 48.472 
Q 409.72 46.472 407.72 46.472 
L 211.399687 46.472 
Q 209.399687 46.472 209.399687 48.472 
L 209.399687 76.82825 
Q 209.399687 78.82825 211.399687 78.82825 
z
" style="fill:#ffffff;opacity:0.8;stroke:#cccccc;stroke-linejoin:miter;"/>
    </g>
    <g id="line2d_16">
     <path d="M 213.399687 54.570437 
L 233.399687 54.570437 
" style="fill:none;stroke:#1f77b4;stroke-linecap:square;stroke-width:1.5;"/>
    </g>
    <g id="line2d_17"/>
    <g id="text_17">
     <!-- Neural Network -->
     <g transform="translate(241.399687 58.070437)scale(0.1 -0.1)">
      <defs>
       <path d="M 4.203125 54.6875 
L 13.1875 54.6875 
L 24.421875 12.015625 
L 35.59375 54.6875 
L 46.1875 54.6875 
L 57.421875 12.015625 
L 68.609375 54.6875 
L 77.59375 54.6875 
L 63.28125 0 
L 52.6875 0 
L 40.921875 44.828125 
L 29.109375 0 
L 18.5 0 
z
" id="DejaVuSans-119"/>
       <path d="M 9.078125 75.984375 
L 18.109375 75.984375 
L 18.109375 31.109375 
L 44.921875 54.6875 
L 56.390625 54.6875 
L 27.390625 29.109375 
L 57.625 0 
L 45.90625 0 
L 18.109375 26.703125 
L 18.109375 0 
L 9.078125 0 
z
" id="DejaVuSans-107"/>
      </defs>
      <use xlink:href="#DejaVuSans-78"/>
      <use x="74.804688" xlink:href="#DejaVuSans-101"/>
      <use x="136.328125" xlink:href="#DejaVuSans-117"/>
      <use x="199.707031" xlink:href="#DejaVuSans-114"/>
      <use x="240.820312" xlink:href="#DejaVuSans-97"/>
      <use x="302.099609" xlink:href="#DejaVuSans-108"/>
      <use x="329.882812" xlink:href="#DejaVuSans-32"/>
      <use x="361.669922" xlink:href="#DejaVuSans-78"/>
      <use x="436.474609" xlink:href="#DejaVuSans-101"/>
      <use x="497.998047" xlink:href="#DejaVuSans-116"/>
      <use x="537.207031" xlink:href="#DejaVuSans-119"/>
      <use x="618.994141" xlink:href="#DejaVuSans-111"/>
      <use x="680.175781" xlink:href="#DejaVuSans-114"/>
      <use x="721.289062" xlink:href="#DejaVuSans-107"/>
     </g>
    </g>
    <g id="line2d_18">
     <path d="M 213.399687 69.248562 
L 233.399687 69.248562 
" style="fill:none;stroke:#ff7f0e;stroke-linecap:square;stroke-width:1.5;"/>
    </g>
    <g id="line2d_19"/>
    <g id="text_18">
     <!-- Neural Network + Regularization -->
     <g transform="translate(241.399687 72.748562)scale(0.1 -0.1)">
      <defs>
       <path d="M 46 62.703125 
L 46 35.5 
L 73.1875 35.5 
L 73.1875 27.203125 
L 46 27.203125 
L 46 0 
L 37.796875 0 
L 37.796875 27.203125 
L 10.59375 27.203125 
L 10.59375 35.5 
L 37.796875 35.5 
L 37.796875 62.703125 
z
" id="DejaVuSans-43"/>
       <path d="M 44.390625 34.1875 
Q 47.5625 33.109375 50.5625 29.59375 
Q 53.5625 26.078125 56.59375 19.921875 
L 66.609375 0 
L 56 0 
L 46.6875 18.703125 
Q 43.0625 26.03125 39.671875 28.421875 
Q 36.28125 30.8125 30.421875 30.8125 
L 19.671875 30.8125 
L 19.671875 0 
L 9.8125 0 
L 9.8125 72.90625 
L 32.078125 72.90625 
Q 44.578125 72.90625 50.734375 67.671875 
Q 56.890625 62.453125 56.890625 51.90625 
Q 56.890625 45.015625 53.6875 40.46875 
Q 50.484375 35.9375 44.390625 34.1875 
z
M 19.671875 64.796875 
L 19.671875 38.921875 
L 32.078125 38.921875 
Q 39.203125 38.921875 42.84375 42.21875 
Q 46.484375 45.515625 46.484375 51.90625 
Q 46.484375 58.296875 42.84375 61.546875 
Q 39.203125 64.796875 32.078125 64.796875 
z
" id="DejaVuSans-82"/>
       <path d="M 45.40625 27.984375 
Q 45.40625 37.75 41.375 43.109375 
Q 37.359375 48.484375 30.078125 48.484375 
Q 22.859375 48.484375 18.828125 43.109375 
Q 14.796875 37.75 14.796875 27.984375 
Q 14.796875 18.265625 18.828125 12.890625 
Q 22.859375 7.515625 30.078125 7.515625 
Q 37.359375 7.515625 41.375 12.890625 
Q 45.40625 18.265625 45.40625 27.984375 
z
M 54.390625 6.78125 
Q 54.390625 -7.171875 48.1875 -13.984375 
Q 42 -20.796875 29.203125 -20.796875 
Q 24.46875 -20.796875 20.265625 -20.09375 
Q 16.0625 -19.390625 12.109375 -17.921875 
L 12.109375 -9.1875 
Q 16.0625 -11.328125 19.921875 -12.34375 
Q 23.78125 -13.375 27.78125 -13.375 
Q 36.625 -13.375 41.015625 -8.765625 
Q 45.40625 -4.15625 45.40625 5.171875 
L 45.40625 9.625 
Q 42.625 4.78125 38.28125 2.390625 
Q 33.9375 0 27.875 0 
Q 17.828125 0 11.671875 7.65625 
Q 5.515625 15.328125 5.515625 27.984375 
Q 5.515625 40.671875 11.671875 48.328125 
Q 17.828125 56 27.875 56 
Q 33.9375 56 38.28125 53.609375 
Q 42.625 51.21875 45.40625 46.390625 
L 45.40625 54.6875 
L 54.390625 54.6875 
z
" id="DejaVuSans-103"/>
       <path d="M 5.515625 54.6875 
L 48.1875 54.6875 
L 48.1875 46.484375 
L 14.40625 7.171875 
L 48.1875 7.171875 
L 48.1875 0 
L 4.296875 0 
L 4.296875 8.203125 
L 38.09375 47.515625 
L 5.515625 47.515625 
z
" id="DejaVuSans-122"/>
      </defs>
      <use xlink:href="#DejaVuSans-78"/>
      <use x="74.804688" xlink:href="#DejaVuSans-101"/>
      <use x="136.328125" xlink:href="#DejaVuSans-117"/>
      <use x="199.707031" xlink:href="#DejaVuSans-114"/>
      <use x="240.820312" xlink:href="#DejaVuSans-97"/>
      <use x="302.099609" xlink:href="#DejaVuSans-108"/>
      <use x="329.882812" xlink:href="#DejaVuSans-32"/>
      <use x="361.669922" xlink:href="#DejaVuSans-78"/>
      <use x="436.474609" xlink:href="#DejaVuSans-101"/>
      <use x="497.998047" xlink:href="#DejaVuSans-116"/>
      <use x="537.207031" xlink:href="#DejaVuSans-119"/>
      <use x="618.994141" xlink:href="#DejaVuSans-111"/>
      <use x="680.175781" xlink:href="#DejaVuSans-114"/>
      <use x="721.289062" xlink:href="#DejaVuSans-107"/>
      <use x="779.199219" xlink:href="#DejaVuSans-32"/>
      <use x="810.986328" xlink:href="#DejaVuSans-43"/>
      <use x="894.775391" xlink:href="#DejaVuSans-32"/>
      <use x="926.5625" xlink:href="#DejaVuSans-82"/>
      <use x="991.544922" xlink:href="#DejaVuSans-101"/>
      <use x="1053.068359" xlink:href="#DejaVuSans-103"/>
      <use x="1116.544922" xlink:href="#DejaVuSans-117"/>
      <use x="1179.923828" xlink:href="#DejaVuSans-108"/>
      <use x="1207.707031" xlink:href="#DejaVuSans-97"/>
      <use x="1268.986328" xlink:href="#DejaVuSans-114"/>
      <use x="1310.099609" xlink:href="#DejaVuSans-105"/>
      <use x="1337.882812" xlink:href="#DejaVuSans-122"/>
      <use x="1390.373047" xlink:href="#DejaVuSans-97"/>
      <use x="1451.652344" xlink:href="#DejaVuSans-116"/>
      <use x="1490.861328" xlink:href="#DejaVuSans-105"/>
      <use x="1518.644531" xlink:href="#DejaVuSans-111"/>
      <use x="1579.826172" xlink:href="#DejaVuSans-110"/>
     </g>
    </g>
   </g>
  </g>
 </g>
 <defs>
  <clipPath id="pd476aaa833">
   <rect height="266.112" width="357.12" x="57.6" y="41.472"/>
  </clipPath>
 </defs>
</svg>
