<?xml version="1.0" encoding="utf-8" standalone="no"?>
<!DOCTYPE svg PUBLIC "-//W3C//DTD SVG 1.1//EN"
  "http://www.w3.org/Graphics/SVG/1.1/DTD/svg11.dtd">
<!-- Created with matplotlib (https://matplotlib.org/) -->
<svg height="345.6pt" version="1.1" viewBox="0 0 460.8 345.6" width="460.8pt" xmlns="http://www.w3.org/2000/svg" xmlns:xlink="http://www.w3.org/1999/xlink">
 <metadata>
  <rdf:RDF xmlns:cc="http://creativecommons.org/ns#" xmlns:dc="http://purl.org/dc/elements/1.1/" xmlns:rdf="http://www.w3.org/1999/02/22-rdf-syntax-ns#">
   <cc:Work>
    <dc:type rdf:resource="http://purl.org/dc/dcmitype/StillImage"/>
    <dc:date>2023-09-19T15:55:06.122062</dc:date>
    <dc:format>image/svg+xml</dc:format>
    <dc:creator>
     <cc:Agent>
      <dc:title>Matplotlib v3.3.4, https://matplotlib.org/</dc:title>
     </cc:Agent>
    </dc:creator>
   </cc:Work>
  </rdf:RDF>
 </metadata>
 <defs>
  <style type="text/css">*{stroke-linecap:butt;stroke-linejoin:round;}</style>
 </defs>
 <g id="figure_1">
  <g id="patch_1">
   <path d="M 0 345.6 
L 460.8 345.6 
L 460.8 0 
L 0 0 
z
" style="fill:#ffffff;"/>
  </g>
  <g id="axes_1">
   <g id="patch_2">
    <path d="M 57.6 307.584 
L 414.72 307.584 
L 414.72 41.472 
L 57.6 41.472 
z
" style="fill:#ffffff;"/>
   </g>
   <g id="PolyCollection_1">
    <path clip-path="url(#pdbae6e9448)" d="M 73.832727 155.560488 
L 73.832727 155.560488 
L 77.112066 170.912317 
L 80.391405 179.294902 
L 83.670744 177.873656 
L 86.950083 182.267971 
L 90.229421 181.377875 
L 93.50876 183.6488 
L 96.788099 184.008552 
L 100.067438 181.875249 
L 103.346777 173.492923 
L 106.626116 184.22526 
L 109.905455 180.344622 
L 113.184793 182.538549 
L 116.464132 179.553781 
L 119.743471 179.661335 
L 123.02281 181.849113 
L 126.302149 175.52874 
L 129.581488 183.243698 
L 132.860826 179.08969 
L 136.140165 178.268347 
L 139.419504 180.713286 
L 142.698843 182.505734 
L 145.978182 182.70973 
L 149.257521 181.198267 
L 152.53686 183.342969 
L 155.816198 183.036368 
L 159.095537 181.03271 
L 162.374876 178.334652 
L 165.654215 179.726095 
L 168.933554 187.58398 
L 172.212893 185.314032 
L 175.492231 177.889624 
L 178.77157 185.064718 
L 182.050909 181.173827 
L 185.330248 184.241076 
L 188.609587 187.869446 
L 191.888926 188.404661 
L 195.168264 188.592396 
L 198.447603 190.497422 
L 201.726942 186.891924 
L 205.006281 184.880515 
L 208.28562 183.491216 
L 211.564959 190.675836 
L 214.844298 185.659151 
L 218.123636 188.517345 
L 221.402975 188.521321 
L 224.682314 194.682037 
L 227.961653 197.752817 
L 231.240992 190.498188 
L 234.520331 193.765154 
L 237.799669 193.405521 
L 241.079008 194.527268 
L 244.358347 198.971612 
L 247.637686 200.342968 
L 250.917025 194.086703 
L 254.196364 202.075087 
L 257.475702 202.16611 
L 260.755041 206.280428 
L 264.03438 201.671429 
L 267.313719 202.331996 
L 270.593058 201.768955 
L 273.872397 206.785996 
L 277.151736 214.324063 
L 280.431074 205.867246 
L 283.710413 218.746363 
L 286.989752 216.632864 
L 290.269091 209.016157 
L 293.54843 213.890361 
L 296.827769 218.291013 
L 300.107107 215.717097 
L 303.386446 226.077505 
L 306.665785 220.896741 
L 309.945124 230.304946 
L 313.224463 221.737215 
L 316.503802 223.970415 
L 319.78314 225.5374 
L 323.062479 226.056496 
L 326.341818 230.106165 
L 329.621157 227.462408 
L 332.900496 241.313801 
L 336.179835 234.90165 
L 339.459174 239.605964 
L 342.738512 230.149712 
L 346.017851 243.053149 
L 349.29719 241.815312 
L 352.576529 243.929534 
L 355.855868 233.593873 
L 359.135207 248.532838 
L 362.414545 254.795616 
L 365.693884 248.813313 
L 368.973223 243.563055 
L 372.252562 255.000694 
L 375.531901 251.57075 
L 378.81124 259.687991 
L 382.090579 258.187647 
L 385.369917 263.873776 
L 388.649256 258.639185 
L 391.928595 250.025238 
L 395.207934 254.562424 
L 398.487273 251.243673 
L 398.487273 181.414341 
L 398.487273 181.414341 
L 395.207934 186.323157 
L 391.928595 183.643179 
L 388.649256 187.587097 
L 385.369917 192.167849 
L 382.090579 178.078949 
L 378.81124 183.362739 
L 375.531901 180.94292 
L 372.252562 174.626111 
L 368.973223 180.434362 
L 365.693884 178.07097 
L 362.414545 177.285024 
L 359.135207 174.887206 
L 355.855868 169.473769 
L 352.576529 177.614048 
L 349.29719 165.149599 
L 346.017851 175.892253 
L 342.738512 158.339259 
L 339.459174 175.442171 
L 336.179835 173.939724 
L 332.900496 172.146557 
L 329.621157 165.934235 
L 326.341818 158.382806 
L 323.062479 163.298536 
L 319.78314 162.518541 
L 316.503802 163.508154 
L 313.224463 158.09116 
L 309.945124 155.152817 
L 306.665785 160.375067 
L 303.386446 152.740467 
L 300.107107 156.028054 
L 296.827769 156.341004 
L 293.54843 153.524492 
L 290.269091 155.656174 
L 286.989752 160.308645 
L 283.710413 149.390207 
L 280.431074 147.54631 
L 277.151736 147.317059 
L 273.872397 143.740693 
L 270.593058 148.036019 
L 267.313719 144.008739 
L 264.03438 139.039918 
L 260.755041 147.421814 
L 257.475702 143.019879 
L 254.196364 140.801409 
L 250.917025 139.84051 
L 247.637686 137.914543 
L 244.358347 142.894481 
L 241.079008 139.832975 
L 237.799669 131.861096 
L 234.520331 137.56388 
L 231.240992 133.902369 
L 227.961653 131.555411 
L 224.682314 137.080027 
L 221.402975 131.404594 
L 218.123636 134.584122 
L 214.844298 133.400705 
L 211.564959 138.199362 
L 208.28562 132.104401 
L 205.006281 133.746311 
L 201.726942 134.477424 
L 198.447603 133.614449 
L 195.168264 132.632609 
L 191.888926 134.40812 
L 188.609587 135.665051 
L 185.330248 130.199794 
L 182.050909 131.101895 
L 178.77157 138.469779 
L 175.492231 132.076605 
L 172.212893 136.055316 
L 168.933554 135.806174 
L 165.654215 130.240134 
L 162.374876 133.219353 
L 159.095537 127.345743 
L 155.816198 133.425309 
L 152.53686 129.798812 
L 149.257521 130.788768 
L 145.978182 136.783156 
L 142.698843 133.955942 
L 139.419504 134.304958 
L 136.140165 133.574345 
L 132.860826 137.371986 
L 129.581488 136.104844 
L 126.302149 137.757384 
L 123.02281 135.911653 
L 119.743471 137.810745 
L 116.464132 139.217389 
L 113.184793 142.006351 
L 109.905455 142.756846 
L 106.626116 138.443177 
L 103.346777 135.31856 
L 100.067438 141.370561 
L 96.788099 146.310079 
L 93.50876 147.102861 
L 90.229421 145.043487 
L 86.950083 145.596824 
L 83.670744 145.660841 
L 80.391405 147.703834 
L 77.112066 146.559763 
L 73.832727 155.560488 
z
" style="fill:#1f77b4;fill-opacity:0.2;"/>
   </g>
   <g id="PolyCollection_2">
    <path clip-path="url(#pdbae6e9448)" d="M 73.832727 177.211979 
L 73.832727 177.211979 
L 77.112066 189.237346 
L 80.391405 194.163332 
L 83.670744 193.613738 
L 86.950083 188.926977 
L 90.229421 189.531422 
L 93.50876 186.697177 
L 96.788099 189.01258 
L 100.067438 185.107025 
L 103.346777 184.978848 
L 106.626116 193.96925 
L 109.905455 192.230487 
L 113.184793 197.562621 
L 116.464132 194.711462 
L 119.743471 199.252075 
L 123.02281 202.587502 
L 126.302149 202.918362 
L 129.581488 205.010643 
L 132.860826 203.824987 
L 136.140165 205.026315 
L 139.419504 203.548611 
L 142.698843 205.857385 
L 145.978182 206.330859 
L 149.257521 205.028413 
L 152.53686 204.491054 
L 155.816198 204.013604 
L 159.095537 204.89681 
L 162.374876 203.896667 
L 165.654215 205.46415 
L 168.933554 202.31993 
L 172.212893 202.697432 
L 175.492231 203.204764 
L 178.77157 202.084921 
L 182.050909 201.837097 
L 185.330248 201.172963 
L 188.609587 201.215056 
L 191.888926 201.285512 
L 195.168264 200.769748 
L 198.447603 200.039263 
L 201.726942 198.863471 
L 205.006281 199.884132 
L 208.28562 199.653741 
L 211.564959 198.863471 
L 214.844298 198.863471 
L 218.123636 198.863471 
L 221.402975 198.863471 
L 224.682314 198.863471 
L 227.961653 198.863471 
L 231.240992 198.863471 
L 234.520331 198.863471 
L 237.799669 198.863471 
L 241.079008 198.863471 
L 244.358347 198.863471 
L 247.637686 198.863471 
L 250.917025 198.863471 
L 254.196364 198.863471 
L 257.475702 198.863471 
L 260.755041 198.863471 
L 264.03438 198.863471 
L 267.313719 198.863471 
L 270.593058 198.863471 
L 273.872397 198.863471 
L 277.151736 198.863471 
L 280.431074 198.863471 
L 283.710413 198.863471 
L 286.989752 198.863471 
L 290.269091 198.863471 
L 293.54843 198.863471 
L 296.827769 198.863471 
L 300.107107 198.863471 
L 303.386446 198.863471 
L 306.665785 198.863471 
L 309.945124 198.863471 
L 313.224463 198.863471 
L 316.503802 198.863471 
L 319.78314 198.863471 
L 323.062479 198.863471 
L 326.341818 198.863471 
L 329.621157 198.863471 
L 332.900496 198.863471 
L 336.179835 198.863471 
L 339.459174 198.863471 
L 342.738512 198.863471 
L 346.017851 198.863471 
L 349.29719 198.863471 
L 352.576529 198.863471 
L 355.855868 198.863471 
L 359.135207 198.863471 
L 362.414545 198.863471 
L 365.693884 198.863471 
L 368.973223 198.863471 
L 372.252562 198.863471 
L 375.531901 198.863471 
L 378.81124 198.863471 
L 382.090579 198.863471 
L 385.369917 198.863471 
L 388.649256 198.863471 
L 391.928595 198.863471 
L 395.207934 198.863471 
L 398.487273 198.863471 
L 398.487273 198.863471 
L 398.487273 198.863471 
L 395.207934 198.863471 
L 391.928595 198.863471 
L 388.649256 198.863471 
L 385.369917 198.863471 
L 382.090579 198.863471 
L 378.81124 198.863471 
L 375.531901 198.863471 
L 372.252562 198.863471 
L 368.973223 198.863471 
L 365.693884 198.863471 
L 362.414545 198.863471 
L 359.135207 198.863471 
L 355.855868 198.863471 
L 352.576529 198.863471 
L 349.29719 198.863471 
L 346.017851 198.863471 
L 342.738512 198.863471 
L 339.459174 198.863471 
L 336.179835 198.863471 
L 332.900496 198.863471 
L 329.621157 198.863471 
L 326.341818 198.863471 
L 323.062479 198.863471 
L 319.78314 198.863471 
L 316.503802 198.863471 
L 313.224463 198.863471 
L 309.945124 198.863471 
L 306.665785 198.863471 
L 303.386446 198.863471 
L 300.107107 198.863471 
L 296.827769 198.863471 
L 293.54843 198.863471 
L 290.269091 198.863471 
L 286.989752 198.863471 
L 283.710413 198.863471 
L 280.431074 198.863471 
L 277.151736 198.863471 
L 273.872397 198.863471 
L 270.593058 198.863471 
L 267.313719 198.863471 
L 264.03438 198.863471 
L 260.755041 198.863471 
L 257.475702 198.863471 
L 254.196364 198.863471 
L 250.917025 198.863471 
L 247.637686 198.863471 
L 244.358347 198.863471 
L 241.079008 198.863471 
L 237.799669 198.863471 
L 234.520331 198.863471 
L 231.240992 198.863471 
L 227.961653 198.863471 
L 224.682314 198.863471 
L 221.402975 198.863471 
L 218.123636 198.863471 
L 214.844298 198.863471 
L 211.564959 198.863471 
L 208.28562 198.217543 
L 205.006281 197.842809 
L 201.726942 198.863471 
L 198.447603 197.543335 
L 195.168264 197.24588 
L 191.888926 196.730115 
L 188.609587 196.223199 
L 185.330248 197.131351 
L 182.050909 196.467217 
L 178.77157 194.775961 
L 175.492231 194.666521 
L 172.212893 193.874763 
L 168.933554 192.953175 
L 165.654215 192.984507 
L 162.374876 193.397244 
L 159.095537 190.953668 
L 155.816198 190.537785 
L 152.53686 192.947201 
L 149.257521 186.636111 
L 145.978182 186.055381 
L 142.698843 186.528855 
L 139.419504 181.909152 
L 136.140165 181.586194 
L 132.860826 175.137328 
L 129.581488 173.951672 
L 126.302149 173.878805 
L 123.02281 169.446336 
L 119.743471 167.874091 
L 116.464132 162.455019 
L 113.184793 162.057696 
L 109.905455 161.616098 
L 106.626116 159.877336 
L 103.346777 157.897649 
L 100.067438 158.058158 
L 96.788099 152.70917 
L 93.50876 151.560335 
L 90.229421 155.077193 
L 86.950083 156.114668 
L 83.670744 159.511131 
L 80.391405 163.436178 
L 77.112066 169.228224 
L 73.832727 177.211979 
z
" style="fill:#ff7f0e;fill-opacity:0.2;"/>
   </g>
   <g id="PolyCollection_3">
    <path clip-path="url(#pdbae6e9448)" d="M 73.832727 61.737365 
L 73.832727 61.737365 
L 77.112066 77.134026 
L 80.391405 85.169986 
L 83.670744 86.605975 
L 86.950083 87.516598 
L 90.229421 94.133393 
L 93.50876 96.621397 
L 96.788099 101.137656 
L 100.067438 103.311683 
L 103.346777 107.548001 
L 106.626116 110.007841 
L 109.905455 105.619303 
L 113.184793 112.831076 
L 116.464132 110.525384 
L 119.743471 115.505583 
L 123.02281 121.431135 
L 126.302149 113.385903 
L 129.581488 120.486192 
L 132.860826 126.506149 
L 136.140165 131.212501 
L 139.419504 130.195193 
L 142.698843 133.613814 
L 145.978182 134.629519 
L 149.257521 135.740838 
L 152.53686 132.182075 
L 155.816198 137.379979 
L 159.095537 141.994848 
L 162.374876 137.917783 
L 165.654215 140.184954 
L 168.933554 147.515232 
L 172.212893 138.576991 
L 175.492231 147.511449 
L 178.77157 149.401655 
L 182.050909 149.447615 
L 185.330248 152.248242 
L 188.609587 155.162066 
L 191.888926 155.159364 
L 195.168264 156.002363 
L 198.447603 157.576945 
L 201.726942 156.387413 
L 205.006281 156.842829 
L 208.28562 166.815838 
L 211.564959 156.983671 
L 214.844298 164.721809 
L 218.123636 171.969 
L 221.402975 171.185021 
L 224.682314 177.935113 
L 227.961653 177.906622 
L 231.240992 166.376536 
L 234.520331 176.649826 
L 237.799669 171.730857 
L 241.079008 179.540457 
L 244.358347 181.225104 
L 247.637686 179.252847 
L 250.917025 190.547158 
L 254.196364 186.362232 
L 257.475702 189.083487 
L 260.755041 190.27331 
L 264.03438 189.143109 
L 267.313719 190.202217 
L 270.593058 190.854676 
L 273.872397 190.586267 
L 277.151736 195.482326 
L 280.431074 194.80256 
L 283.710413 204.131653 
L 286.989752 196.738388 
L 290.269091 202.414178 
L 293.54843 202.131161 
L 296.827769 208.59356 
L 300.107107 206.74352 
L 303.386446 202.66111 
L 306.665785 212.930912 
L 309.945124 207.213777 
L 313.224463 208.120184 
L 316.503802 218.338403 
L 319.78314 216.814286 
L 323.062479 218.022296 
L 326.341818 218.949679 
L 329.621157 216.728698 
L 332.900496 235.077711 
L 336.179835 221.148177 
L 339.459174 227.24996 
L 342.738512 222.803994 
L 346.017851 233.375717 
L 349.29719 227.417348 
L 352.576529 236.523563 
L 355.855868 235.970098 
L 359.135207 240.734642 
L 362.414545 246.170889 
L 365.693884 251.822112 
L 368.973223 244.922871 
L 372.252562 247.400269 
L 375.531901 247.336967 
L 378.81124 256.432688 
L 382.090579 250.490989 
L 385.369917 260.580893 
L 388.649256 265.584868 
L 391.928595 273.030375 
L 395.207934 273.116326 
L 398.487273 295.488 
L 398.487273 208.908624 
L 398.487273 208.908624 
L 395.207934 201.834273 
L 391.928595 193.115283 
L 388.649256 199.694732 
L 385.369917 200.512753 
L 382.090579 178.414102 
L 378.81124 190.226628 
L 375.531901 184.88802 
L 372.252562 183.669972 
L 368.973223 175.177284 
L 365.693884 173.763085 
L 362.414545 173.640578 
L 359.135207 172.581377 
L 355.855868 170.850473 
L 352.576529 169.430947 
L 349.29719 162.37072 
L 346.017851 161.464365 
L 342.738512 151.539334 
L 339.459174 160.517298 
L 336.179835 163.44353 
L 332.900496 165.103073 
L 329.621157 158.336353 
L 326.341818 147.599113 
L 323.062479 160.651335 
L 319.78314 143.383406 
L 316.503802 153.551096 
L 313.224463 145.293369 
L 309.945124 147.931898 
L 306.665785 146.400715 
L 303.386446 144.834375 
L 300.107107 144.64923 
L 296.827769 147.706865 
L 293.54843 138.724528 
L 290.269091 134.255557 
L 286.989752 138.199227 
L 283.710413 129.651218 
L 280.431074 136.526476 
L 277.151736 131.083379 
L 273.872397 129.772678 
L 270.593058 128.493867 
L 267.313719 126.981176 
L 264.03438 126.30817 
L 260.755041 127.343115 
L 257.475702 130.120708 
L 254.196364 127.068233 
L 250.917025 119.852096 
L 247.637686 125.228335 
L 244.358347 123.111739 
L 241.079008 121.909516 
L 237.799669 118.604686 
L 234.520331 118.449044 
L 231.240992 108.369932 
L 227.961653 120.223457 
L 224.682314 111.678715 
L 221.402975 110.922955 
L 218.123636 106.097362 
L 214.844298 107.715167 
L 211.564959 106.070991 
L 208.28562 105.909818 
L 205.006281 102.747593 
L 201.726942 109.842803 
L 198.447603 109.663673 
L 195.168264 103.010683 
L 191.888926 101.255508 
L 188.609587 97.932913 
L 185.330248 101.857138 
L 182.050909 94.986764 
L 178.77157 99.363023 
L 175.492231 94.757783 
L 172.212893 90.701345 
L 168.933554 95.620058 
L 165.654215 89.382066 
L 162.374876 87.174599 
L 159.095537 90.459042 
L 155.816198 86.41331 
L 152.53686 82.084555 
L 149.257521 83.722154 
L 145.978182 82.090946 
L 142.698843 77.477266 
L 139.419504 80.89589 
L 136.140165 78.435144 
L 132.860826 78.666858 
L 129.581488 74.149754 
L 126.302149 70.712987 
L 123.02281 74.215216 
L 119.743471 71.624515 
L 116.464132 64.046851 
L 113.184793 68.958319 
L 109.905455 72.850197 
L 106.626116 70.771154 
L 103.346777 62.982616 
L 100.067438 67.218936 
L 96.788099 66.5061 
L 93.50876 60.340957 
L 90.229421 58.931691 
L 86.950083 53.568 
L 83.670744 56.499426 
L 80.391405 57.06936 
L 77.112066 54.856952 
L 73.832727 61.737365 
z
" style="fill:#2ca02c;fill-opacity:0.2;"/>
   </g>
   <g id="PolyCollection_4">
    <path clip-path="url(#pdbae6e9448)" d="M 73.832727 234.94929 
L 73.832727 234.94929 
L 77.112066 242.293438 
L 80.391405 250.294122 
L 83.670744 249.395363 
L 86.950083 247.664616 
L 90.229421 253.816808 
L 93.50876 251.715944 
L 96.788099 252.326399 
L 100.067438 245.587348 
L 103.346777 246.211481 
L 106.626116 252.275169 
L 109.905455 255.438944 
L 113.184793 252.727559 
L 116.464132 245.152739 
L 119.743471 242.735233 
L 123.02281 247.890738 
L 126.302149 248.271708 
L 129.581488 256.214418 
L 132.860826 246.233376 
L 136.140165 242.361147 
L 139.419504 246.52197 
L 142.698843 248.673274 
L 145.978182 246.951902 
L 149.257521 253.201678 
L 152.53686 249.087399 
L 155.816198 243.908881 
L 159.095537 253.421903 
L 162.374876 249.781176 
L 165.654215 247.438056 
L 168.933554 247.291922 
L 172.212893 246.026759 
L 175.492231 250.455301 
L 178.77157 246.409208 
L 182.050909 243.477716 
L 185.330248 248.629162 
L 188.609587 239.921614 
L 191.888926 253.178298 
L 195.168264 247.113595 
L 198.447603 243.576484 
L 201.726942 248.394171 
L 205.006281 248.429792 
L 208.28562 240.73211 
L 211.564959 249.033126 
L 214.844298 245.779383 
L 218.123636 246.640013 
L 221.402975 257.068228 
L 224.682314 245.704241 
L 227.961653 244.627338 
L 231.240992 239.319007 
L 234.520331 249.671149 
L 237.799669 248.894176 
L 241.079008 250.068439 
L 244.358347 254.769177 
L 247.637686 247.193674 
L 250.917025 249.290785 
L 254.196364 248.467648 
L 257.475702 240.164112 
L 260.755041 237.701159 
L 264.03438 249.671635 
L 267.313719 242.467111 
L 270.593058 244.607116 
L 273.872397 249.591129 
L 277.151736 245.487194 
L 280.431074 246.627353 
L 283.710413 244.915536 
L 286.989752 246.859581 
L 290.269091 241.640103 
L 293.54843 240.261752 
L 296.827769 253.895732 
L 300.107107 243.474093 
L 303.386446 251.127193 
L 306.665785 249.127154 
L 309.945124 243.923472 
L 313.224463 251.804934 
L 316.503802 241.116938 
L 319.78314 244.642305 
L 323.062479 247.442654 
L 326.341818 251.508646 
L 329.621157 248.901548 
L 332.900496 252.308667 
L 336.179835 251.055937 
L 339.459174 253.740697 
L 342.738512 259.777 
L 346.017851 247.950539 
L 349.29719 249.599448 
L 352.576529 257.802312 
L 355.855868 254.659258 
L 359.135207 244.780883 
L 362.414545 245.140818 
L 365.693884 252.406538 
L 368.973223 253.140389 
L 372.252562 249.469414 
L 375.531901 250.866154 
L 378.81124 261.735965 
L 382.090579 256.589165 
L 385.369917 260.281206 
L 388.649256 260.35727 
L 391.928595 255.742256 
L 395.207934 263.48574 
L 398.487273 271.351256 
L 398.487273 187.86592 
L 398.487273 187.86592 
L 395.207934 196.74184 
L 391.928595 193.515235 
L 388.649256 190.19931 
L 385.369917 181.037405 
L 382.090579 181.265206 
L 378.81124 195.893435 
L 375.531901 190.885487 
L 372.252562 188.673644 
L 368.973223 185.435699 
L 365.693884 183.282685 
L 362.414545 178.8566 
L 359.135207 180.659967 
L 355.855868 185.071576 
L 352.576529 182.938925 
L 349.29719 181.03776 
L 346.017851 183.552728 
L 342.738512 181.685954 
L 339.459174 177.473884 
L 336.179835 185.788032 
L 332.900496 190.886406 
L 329.621157 178.848795 
L 326.341818 186.634412 
L 323.062479 185.648389 
L 319.78314 183.108037 
L 316.503802 183.890882 
L 313.224463 189.369333 
L 309.945124 178.630513 
L 306.665785 185.407322 
L 303.386446 181.097791 
L 300.107107 182.54413 
L 296.827769 183.52561 
L 293.54843 182.003546 
L 290.269091 180.336509 
L 286.989752 186.087119 
L 283.710413 184.566926 
L 280.431074 180.68996 
L 277.151736 183.850925 
L 273.872397 181.912139 
L 270.593058 185.308376 
L 267.313719 179.798187 
L 264.03438 187.316677 
L 260.755041 181.96596 
L 257.475702 179.21432 
L 254.196364 177.550575 
L 250.917025 182.501169 
L 247.637686 180.412325 
L 244.358347 183.662568 
L 241.079008 184.033007 
L 237.799669 179.144853 
L 234.520331 177.50182 
L 231.240992 178.760336 
L 227.961653 182.545632 
L 224.682314 188.974579 
L 221.402975 181.363517 
L 218.123636 179.233867 
L 214.844298 185.868228 
L 211.564959 185.212664 
L 208.28562 184.564397 
L 205.006281 182.640445 
L 201.726942 187.728081 
L 198.447603 187.78244 
L 195.168264 189.008658 
L 191.888926 190.016775 
L 188.609587 181.044595 
L 185.330248 178.976838 
L 182.050909 184.41697 
L 178.77157 185.09406 
L 175.492231 184.945236 
L 172.212893 191.105897 
L 168.933554 186.376495 
L 165.654215 188.106824 
L 162.374876 192.547838 
L 159.095537 190.783573 
L 155.816198 187.3057 
L 152.53686 182.704555 
L 149.257521 190.282081 
L 145.978182 185.706112 
L 142.698843 192.789679 
L 139.419504 193.208864 
L 136.140165 190.585554 
L 132.860826 196.817354 
L 129.581488 189.867521 
L 126.302149 190.593067 
L 123.02281 194.005245 
L 119.743471 194.253079 
L 116.464132 192.55729 
L 113.184793 200.282857 
L 109.905455 198.148845 
L 106.626116 196.693635 
L 103.346777 197.416622 
L 100.067438 199.484187 
L 96.788099 205.880375 
L 93.50876 200.139726 
L 90.229421 203.090876 
L 86.950083 203.180651 
L 83.670744 205.924545 
L 80.391405 211.80992 
L 77.112066 212.304754 
L 73.832727 234.94929 
z
" style="fill:#d62728;fill-opacity:0.2;"/>
   </g>
   <g id="matplotlib.axis_1">
    <g id="xtick_1">
     <g id="line2d_1">
      <defs>
       <path d="M 0 0 
L 0 3.5 
" id="m37e58f6d31" style="stroke:#000000;stroke-width:0.8;"/>
      </defs>
      <g>
       <use style="stroke:#000000;stroke-width:0.8;" x="401.766612" xlink:href="#m37e58f6d31" y="307.584"/>
      </g>
     </g>
     <g id="text_1">
      <!-- 0 -->
      <g transform="translate(398.585362 322.182437)scale(0.1 -0.1)">
       <defs>
        <path d="M 31.78125 66.40625 
Q 24.171875 66.40625 20.328125 58.90625 
Q 16.5 51.421875 16.5 36.375 
Q 16.5 21.390625 20.328125 13.890625 
Q 24.171875 6.390625 31.78125 6.390625 
Q 39.453125 6.390625 43.28125 13.890625 
Q 47.125 21.390625 47.125 36.375 
Q 47.125 51.421875 43.28125 58.90625 
Q 39.453125 66.40625 31.78125 66.40625 
z
M 31.78125 74.21875 
Q 44.046875 74.21875 50.515625 64.515625 
Q 56.984375 54.828125 56.984375 36.375 
Q 56.984375 17.96875 50.515625 8.265625 
Q 44.046875 -1.421875 31.78125 -1.421875 
Q 19.53125 -1.421875 13.0625 8.265625 
Q 6.59375 17.96875 6.59375 36.375 
Q 6.59375 54.828125 13.0625 64.515625 
Q 19.53125 74.21875 31.78125 74.21875 
z
" id="DejaVuSans-48"/>
       </defs>
       <use xlink:href="#DejaVuSans-48"/>
      </g>
     </g>
    </g>
    <g id="xtick_2">
     <g id="line2d_2">
      <g>
       <use style="stroke:#000000;stroke-width:0.8;" x="336.179835" xlink:href="#m37e58f6d31" y="307.584"/>
      </g>
     </g>
     <g id="text_2">
      <!-- 20 -->
      <g transform="translate(329.817335 322.182437)scale(0.1 -0.1)">
       <defs>
        <path d="M 19.1875 8.296875 
L 53.609375 8.296875 
L 53.609375 0 
L 7.328125 0 
L 7.328125 8.296875 
Q 12.9375 14.109375 22.625 23.890625 
Q 32.328125 33.6875 34.8125 36.53125 
Q 39.546875 41.84375 41.421875 45.53125 
Q 43.3125 49.21875 43.3125 52.78125 
Q 43.3125 58.59375 39.234375 62.25 
Q 35.15625 65.921875 28.609375 65.921875 
Q 23.96875 65.921875 18.8125 64.3125 
Q 13.671875 62.703125 7.8125 59.421875 
L 7.8125 69.390625 
Q 13.765625 71.78125 18.9375 73 
Q 24.125 74.21875 28.421875 74.21875 
Q 39.75 74.21875 46.484375 68.546875 
Q 53.21875 62.890625 53.21875 53.421875 
Q 53.21875 48.921875 51.53125 44.890625 
Q 49.859375 40.875 45.40625 35.40625 
Q 44.1875 33.984375 37.640625 27.21875 
Q 31.109375 20.453125 19.1875 8.296875 
z
" id="DejaVuSans-50"/>
       </defs>
       <use xlink:href="#DejaVuSans-50"/>
       <use x="63.623047" xlink:href="#DejaVuSans-48"/>
      </g>
     </g>
    </g>
    <g id="xtick_3">
     <g id="line2d_3">
      <g>
       <use style="stroke:#000000;stroke-width:0.8;" x="270.593058" xlink:href="#m37e58f6d31" y="307.584"/>
      </g>
     </g>
     <g id="text_3">
      <!-- 40 -->
      <g transform="translate(264.230558 322.182437)scale(0.1 -0.1)">
       <defs>
        <path d="M 37.796875 64.3125 
L 12.890625 25.390625 
L 37.796875 25.390625 
z
M 35.203125 72.90625 
L 47.609375 72.90625 
L 47.609375 25.390625 
L 58.015625 25.390625 
L 58.015625 17.1875 
L 47.609375 17.1875 
L 47.609375 0 
L 37.796875 0 
L 37.796875 17.1875 
L 4.890625 17.1875 
L 4.890625 26.703125 
z
" id="DejaVuSans-52"/>
       </defs>
       <use xlink:href="#DejaVuSans-52"/>
       <use x="63.623047" xlink:href="#DejaVuSans-48"/>
      </g>
     </g>
    </g>
    <g id="xtick_4">
     <g id="line2d_4">
      <g>
       <use style="stroke:#000000;stroke-width:0.8;" x="205.006281" xlink:href="#m37e58f6d31" y="307.584"/>
      </g>
     </g>
     <g id="text_4">
      <!-- 60 -->
      <g transform="translate(198.643781 322.182437)scale(0.1 -0.1)">
       <defs>
        <path d="M 33.015625 40.375 
Q 26.375 40.375 22.484375 35.828125 
Q 18.609375 31.296875 18.609375 23.390625 
Q 18.609375 15.53125 22.484375 10.953125 
Q 26.375 6.390625 33.015625 6.390625 
Q 39.65625 6.390625 43.53125 10.953125 
Q 47.40625 15.53125 47.40625 23.390625 
Q 47.40625 31.296875 43.53125 35.828125 
Q 39.65625 40.375 33.015625 40.375 
z
M 52.59375 71.296875 
L 52.59375 62.3125 
Q 48.875 64.0625 45.09375 64.984375 
Q 41.3125 65.921875 37.59375 65.921875 
Q 27.828125 65.921875 22.671875 59.328125 
Q 17.53125 52.734375 16.796875 39.40625 
Q 19.671875 43.65625 24.015625 45.921875 
Q 28.375 48.1875 33.59375 48.1875 
Q 44.578125 48.1875 50.953125 41.515625 
Q 57.328125 34.859375 57.328125 23.390625 
Q 57.328125 12.15625 50.6875 5.359375 
Q 44.046875 -1.421875 33.015625 -1.421875 
Q 20.359375 -1.421875 13.671875 8.265625 
Q 6.984375 17.96875 6.984375 36.375 
Q 6.984375 53.65625 15.1875 63.9375 
Q 23.390625 74.21875 37.203125 74.21875 
Q 40.921875 74.21875 44.703125 73.484375 
Q 48.484375 72.75 52.59375 71.296875 
z
" id="DejaVuSans-54"/>
       </defs>
       <use xlink:href="#DejaVuSans-54"/>
       <use x="63.623047" xlink:href="#DejaVuSans-48"/>
      </g>
     </g>
    </g>
    <g id="xtick_5">
     <g id="line2d_5">
      <g>
       <use style="stroke:#000000;stroke-width:0.8;" x="139.419504" xlink:href="#m37e58f6d31" y="307.584"/>
      </g>
     </g>
     <g id="text_5">
      <!-- 80 -->
      <g transform="translate(133.057004 322.182437)scale(0.1 -0.1)">
       <defs>
        <path d="M 31.78125 34.625 
Q 24.75 34.625 20.71875 30.859375 
Q 16.703125 27.09375 16.703125 20.515625 
Q 16.703125 13.921875 20.71875 10.15625 
Q 24.75 6.390625 31.78125 6.390625 
Q 38.8125 6.390625 42.859375 10.171875 
Q 46.921875 13.96875 46.921875 20.515625 
Q 46.921875 27.09375 42.890625 30.859375 
Q 38.875 34.625 31.78125 34.625 
z
M 21.921875 38.8125 
Q 15.578125 40.375 12.03125 44.71875 
Q 8.5 49.078125 8.5 55.328125 
Q 8.5 64.0625 14.71875 69.140625 
Q 20.953125 74.21875 31.78125 74.21875 
Q 42.671875 74.21875 48.875 69.140625 
Q 55.078125 64.0625 55.078125 55.328125 
Q 55.078125 49.078125 51.53125 44.71875 
Q 48 40.375 41.703125 38.8125 
Q 48.828125 37.15625 52.796875 32.3125 
Q 56.78125 27.484375 56.78125 20.515625 
Q 56.78125 9.90625 50.3125 4.234375 
Q 43.84375 -1.421875 31.78125 -1.421875 
Q 19.734375 -1.421875 13.25 4.234375 
Q 6.78125 9.90625 6.78125 20.515625 
Q 6.78125 27.484375 10.78125 32.3125 
Q 14.796875 37.15625 21.921875 38.8125 
z
M 18.3125 54.390625 
Q 18.3125 48.734375 21.84375 45.5625 
Q 25.390625 42.390625 31.78125 42.390625 
Q 38.140625 42.390625 41.71875 45.5625 
Q 45.3125 48.734375 45.3125 54.390625 
Q 45.3125 60.0625 41.71875 63.234375 
Q 38.140625 66.40625 31.78125 66.40625 
Q 25.390625 66.40625 21.84375 63.234375 
Q 18.3125 60.0625 18.3125 54.390625 
z
" id="DejaVuSans-56"/>
       </defs>
       <use xlink:href="#DejaVuSans-56"/>
       <use x="63.623047" xlink:href="#DejaVuSans-48"/>
      </g>
     </g>
    </g>
    <g id="xtick_6">
     <g id="line2d_6">
      <g>
       <use style="stroke:#000000;stroke-width:0.8;" x="73.832727" xlink:href="#m37e58f6d31" y="307.584"/>
      </g>
     </g>
     <g id="text_6">
      <!-- 100 -->
      <g transform="translate(64.288977 322.182437)scale(0.1 -0.1)">
       <defs>
        <path d="M 12.40625 8.296875 
L 28.515625 8.296875 
L 28.515625 63.921875 
L 10.984375 60.40625 
L 10.984375 69.390625 
L 28.421875 72.90625 
L 38.28125 72.90625 
L 38.28125 8.296875 
L 54.390625 8.296875 
L 54.390625 0 
L 12.40625 0 
z
" id="DejaVuSans-49"/>
       </defs>
       <use xlink:href="#DejaVuSans-49"/>
       <use x="63.623047" xlink:href="#DejaVuSans-48"/>
       <use x="127.246094" xlink:href="#DejaVuSans-48"/>
      </g>
     </g>
    </g>
    <g id="text_7">
     <!-- Number of features -->
     <g transform="translate(187.4225 335.860562)scale(0.1 -0.1)">
      <defs>
       <path d="M 9.8125 72.90625 
L 23.09375 72.90625 
L 55.421875 11.921875 
L 55.421875 72.90625 
L 64.984375 72.90625 
L 64.984375 0 
L 51.703125 0 
L 19.390625 60.984375 
L 19.390625 0 
L 9.8125 0 
z
" id="DejaVuSans-78"/>
       <path d="M 8.5 21.578125 
L 8.5 54.6875 
L 17.484375 54.6875 
L 17.484375 21.921875 
Q 17.484375 14.15625 20.5 10.265625 
Q 23.53125 6.390625 29.59375 6.390625 
Q 36.859375 6.390625 41.078125 11.03125 
Q 45.3125 15.671875 45.3125 23.6875 
L 45.3125 54.6875 
L 54.296875 54.6875 
L 54.296875 0 
L 45.3125 0 
L 45.3125 8.40625 
Q 42.046875 3.421875 37.71875 1 
Q 33.40625 -1.421875 27.6875 -1.421875 
Q 18.265625 -1.421875 13.375 4.4375 
Q 8.5 10.296875 8.5 21.578125 
z
M 31.109375 56 
z
" id="DejaVuSans-117"/>
       <path d="M 52 44.1875 
Q 55.375 50.25 60.0625 53.125 
Q 64.75 56 71.09375 56 
Q 79.640625 56 84.28125 50.015625 
Q 88.921875 44.046875 88.921875 33.015625 
L 88.921875 0 
L 79.890625 0 
L 79.890625 32.71875 
Q 79.890625 40.578125 77.09375 44.375 
Q 74.3125 48.1875 68.609375 48.1875 
Q 61.625 48.1875 57.5625 43.546875 
Q 53.515625 38.921875 53.515625 30.90625 
L 53.515625 0 
L 44.484375 0 
L 44.484375 32.71875 
Q 44.484375 40.625 41.703125 44.40625 
Q 38.921875 48.1875 33.109375 48.1875 
Q 26.21875 48.1875 22.15625 43.53125 
Q 18.109375 38.875 18.109375 30.90625 
L 18.109375 0 
L 9.078125 0 
L 9.078125 54.6875 
L 18.109375 54.6875 
L 18.109375 46.1875 
Q 21.1875 51.21875 25.484375 53.609375 
Q 29.78125 56 35.6875 56 
Q 41.65625 56 45.828125 52.96875 
Q 50 49.953125 52 44.1875 
z
" id="DejaVuSans-109"/>
       <path d="M 48.6875 27.296875 
Q 48.6875 37.203125 44.609375 42.84375 
Q 40.53125 48.484375 33.40625 48.484375 
Q 26.265625 48.484375 22.1875 42.84375 
Q 18.109375 37.203125 18.109375 27.296875 
Q 18.109375 17.390625 22.1875 11.75 
Q 26.265625 6.109375 33.40625 6.109375 
Q 40.53125 6.109375 44.609375 11.75 
Q 48.6875 17.390625 48.6875 27.296875 
z
M 18.109375 46.390625 
Q 20.953125 51.265625 25.265625 53.625 
Q 29.59375 56 35.59375 56 
Q 45.5625 56 51.78125 48.09375 
Q 58.015625 40.1875 58.015625 27.296875 
Q 58.015625 14.40625 51.78125 6.484375 
Q 45.5625 -1.421875 35.59375 -1.421875 
Q 29.59375 -1.421875 25.265625 0.953125 
Q 20.953125 3.328125 18.109375 8.203125 
L 18.109375 0 
L 9.078125 0 
L 9.078125 75.984375 
L 18.109375 75.984375 
z
" id="DejaVuSans-98"/>
       <path d="M 56.203125 29.59375 
L 56.203125 25.203125 
L 14.890625 25.203125 
Q 15.484375 15.921875 20.484375 11.0625 
Q 25.484375 6.203125 34.421875 6.203125 
Q 39.59375 6.203125 44.453125 7.46875 
Q 49.3125 8.734375 54.109375 11.28125 
L 54.109375 2.78125 
Q 49.265625 0.734375 44.1875 -0.34375 
Q 39.109375 -1.421875 33.890625 -1.421875 
Q 20.796875 -1.421875 13.15625 6.1875 
Q 5.515625 13.8125 5.515625 26.8125 
Q 5.515625 40.234375 12.765625 48.109375 
Q 20.015625 56 32.328125 56 
Q 43.359375 56 49.78125 48.890625 
Q 56.203125 41.796875 56.203125 29.59375 
z
M 47.21875 32.234375 
Q 47.125 39.59375 43.09375 43.984375 
Q 39.0625 48.390625 32.421875 48.390625 
Q 24.90625 48.390625 20.390625 44.140625 
Q 15.875 39.890625 15.1875 32.171875 
z
" id="DejaVuSans-101"/>
       <path d="M 41.109375 46.296875 
Q 39.59375 47.171875 37.8125 47.578125 
Q 36.03125 48 33.890625 48 
Q 26.265625 48 22.1875 43.046875 
Q 18.109375 38.09375 18.109375 28.8125 
L 18.109375 0 
L 9.078125 0 
L 9.078125 54.6875 
L 18.109375 54.6875 
L 18.109375 46.1875 
Q 20.953125 51.171875 25.484375 53.578125 
Q 30.03125 56 36.53125 56 
Q 37.453125 56 38.578125 55.875 
Q 39.703125 55.765625 41.0625 55.515625 
z
" id="DejaVuSans-114"/>
       <path id="DejaVuSans-32"/>
       <path d="M 30.609375 48.390625 
Q 23.390625 48.390625 19.1875 42.75 
Q 14.984375 37.109375 14.984375 27.296875 
Q 14.984375 17.484375 19.15625 11.84375 
Q 23.34375 6.203125 30.609375 6.203125 
Q 37.796875 6.203125 41.984375 11.859375 
Q 46.1875 17.53125 46.1875 27.296875 
Q 46.1875 37.015625 41.984375 42.703125 
Q 37.796875 48.390625 30.609375 48.390625 
z
M 30.609375 56 
Q 42.328125 56 49.015625 48.375 
Q 55.71875 40.765625 55.71875 27.296875 
Q 55.71875 13.875 49.015625 6.21875 
Q 42.328125 -1.421875 30.609375 -1.421875 
Q 18.84375 -1.421875 12.171875 6.21875 
Q 5.515625 13.875 5.515625 27.296875 
Q 5.515625 40.765625 12.171875 48.375 
Q 18.84375 56 30.609375 56 
z
" id="DejaVuSans-111"/>
       <path d="M 37.109375 75.984375 
L 37.109375 68.5 
L 28.515625 68.5 
Q 23.6875 68.5 21.796875 66.546875 
Q 19.921875 64.59375 19.921875 59.515625 
L 19.921875 54.6875 
L 34.71875 54.6875 
L 34.71875 47.703125 
L 19.921875 47.703125 
L 19.921875 0 
L 10.890625 0 
L 10.890625 47.703125 
L 2.296875 47.703125 
L 2.296875 54.6875 
L 10.890625 54.6875 
L 10.890625 58.5 
Q 10.890625 67.625 15.140625 71.796875 
Q 19.390625 75.984375 28.609375 75.984375 
z
" id="DejaVuSans-102"/>
       <path d="M 34.28125 27.484375 
Q 23.390625 27.484375 19.1875 25 
Q 14.984375 22.515625 14.984375 16.5 
Q 14.984375 11.71875 18.140625 8.90625 
Q 21.296875 6.109375 26.703125 6.109375 
Q 34.1875 6.109375 38.703125 11.40625 
Q 43.21875 16.703125 43.21875 25.484375 
L 43.21875 27.484375 
z
M 52.203125 31.203125 
L 52.203125 0 
L 43.21875 0 
L 43.21875 8.296875 
Q 40.140625 3.328125 35.546875 0.953125 
Q 30.953125 -1.421875 24.3125 -1.421875 
Q 15.921875 -1.421875 10.953125 3.296875 
Q 6 8.015625 6 15.921875 
Q 6 25.140625 12.171875 29.828125 
Q 18.359375 34.515625 30.609375 34.515625 
L 43.21875 34.515625 
L 43.21875 35.40625 
Q 43.21875 41.609375 39.140625 45 
Q 35.0625 48.390625 27.6875 48.390625 
Q 23 48.390625 18.546875 47.265625 
Q 14.109375 46.140625 10.015625 43.890625 
L 10.015625 52.203125 
Q 14.9375 54.109375 19.578125 55.046875 
Q 24.21875 56 28.609375 56 
Q 40.484375 56 46.34375 49.84375 
Q 52.203125 43.703125 52.203125 31.203125 
z
" id="DejaVuSans-97"/>
       <path d="M 18.3125 70.21875 
L 18.3125 54.6875 
L 36.8125 54.6875 
L 36.8125 47.703125 
L 18.3125 47.703125 
L 18.3125 18.015625 
Q 18.3125 11.328125 20.140625 9.421875 
Q 21.96875 7.515625 27.59375 7.515625 
L 36.8125 7.515625 
L 36.8125 0 
L 27.59375 0 
Q 17.1875 0 13.234375 3.875 
Q 9.28125 7.765625 9.28125 18.015625 
L 9.28125 47.703125 
L 2.6875 47.703125 
L 2.6875 54.6875 
L 9.28125 54.6875 
L 9.28125 70.21875 
z
" id="DejaVuSans-116"/>
       <path d="M 44.28125 53.078125 
L 44.28125 44.578125 
Q 40.484375 46.53125 36.375 47.5 
Q 32.28125 48.484375 27.875 48.484375 
Q 21.1875 48.484375 17.84375 46.4375 
Q 14.5 44.390625 14.5 40.28125 
Q 14.5 37.15625 16.890625 35.375 
Q 19.28125 33.59375 26.515625 31.984375 
L 29.59375 31.296875 
Q 39.15625 29.25 43.1875 25.515625 
Q 47.21875 21.78125 47.21875 15.09375 
Q 47.21875 7.46875 41.1875 3.015625 
Q 35.15625 -1.421875 24.609375 -1.421875 
Q 20.21875 -1.421875 15.453125 -0.5625 
Q 10.6875 0.296875 5.421875 2 
L 5.421875 11.28125 
Q 10.40625 8.6875 15.234375 7.390625 
Q 20.0625 6.109375 24.8125 6.109375 
Q 31.15625 6.109375 34.5625 8.28125 
Q 37.984375 10.453125 37.984375 14.40625 
Q 37.984375 18.0625 35.515625 20.015625 
Q 33.0625 21.96875 24.703125 23.78125 
L 21.578125 24.515625 
Q 13.234375 26.265625 9.515625 29.90625 
Q 5.8125 33.546875 5.8125 39.890625 
Q 5.8125 47.609375 11.28125 51.796875 
Q 16.75 56 26.8125 56 
Q 31.78125 56 36.171875 55.265625 
Q 40.578125 54.546875 44.28125 53.078125 
z
" id="DejaVuSans-115"/>
      </defs>
      <use xlink:href="#DejaVuSans-78"/>
      <use x="74.804688" xlink:href="#DejaVuSans-117"/>
      <use x="138.183594" xlink:href="#DejaVuSans-109"/>
      <use x="235.595703" xlink:href="#DejaVuSans-98"/>
      <use x="299.072266" xlink:href="#DejaVuSans-101"/>
      <use x="360.595703" xlink:href="#DejaVuSans-114"/>
      <use x="401.708984" xlink:href="#DejaVuSans-32"/>
      <use x="433.496094" xlink:href="#DejaVuSans-111"/>
      <use x="494.677734" xlink:href="#DejaVuSans-102"/>
      <use x="529.882812" xlink:href="#DejaVuSans-32"/>
      <use x="561.669922" xlink:href="#DejaVuSans-102"/>
      <use x="596.875" xlink:href="#DejaVuSans-101"/>
      <use x="658.398438" xlink:href="#DejaVuSans-97"/>
      <use x="719.677734" xlink:href="#DejaVuSans-116"/>
      <use x="758.886719" xlink:href="#DejaVuSans-117"/>
      <use x="822.265625" xlink:href="#DejaVuSans-114"/>
      <use x="861.128906" xlink:href="#DejaVuSans-101"/>
      <use x="922.652344" xlink:href="#DejaVuSans-115"/>
     </g>
    </g>
   </g>
   <g id="matplotlib.axis_2">
    <g id="ytick_1">
     <g id="line2d_7">
      <defs>
       <path d="M 0 0 
L -3.5 0 
" id="m55c48c7b45" style="stroke:#000000;stroke-width:0.8;"/>
      </defs>
      <g>
       <use style="stroke:#000000;stroke-width:0.8;" x="57.6" xlink:href="#m55c48c7b45" y="285.469436"/>
      </g>
     </g>
     <g id="text_8">
      <!-- 0.45 -->
      <g transform="translate(28.334375 289.268655)scale(0.1 -0.1)">
       <defs>
        <path d="M 10.6875 12.40625 
L 21 12.40625 
L 21 0 
L 10.6875 0 
z
" id="DejaVuSans-46"/>
        <path d="M 10.796875 72.90625 
L 49.515625 72.90625 
L 49.515625 64.59375 
L 19.828125 64.59375 
L 19.828125 46.734375 
Q 21.96875 47.46875 24.109375 47.828125 
Q 26.265625 48.1875 28.421875 48.1875 
Q 40.625 48.1875 47.75 41.5 
Q 54.890625 34.8125 54.890625 23.390625 
Q 54.890625 11.625 47.5625 5.09375 
Q 40.234375 -1.421875 26.90625 -1.421875 
Q 22.3125 -1.421875 17.546875 -0.640625 
Q 12.796875 0.140625 7.71875 1.703125 
L 7.71875 11.625 
Q 12.109375 9.234375 16.796875 8.0625 
Q 21.484375 6.890625 26.703125 6.890625 
Q 35.15625 6.890625 40.078125 11.328125 
Q 45.015625 15.765625 45.015625 23.390625 
Q 45.015625 31 40.078125 35.4375 
Q 35.15625 39.890625 26.703125 39.890625 
Q 22.75 39.890625 18.8125 39.015625 
Q 14.890625 38.140625 10.796875 36.28125 
z
" id="DejaVuSans-53"/>
       </defs>
       <use xlink:href="#DejaVuSans-48"/>
       <use x="63.623047" xlink:href="#DejaVuSans-46"/>
       <use x="95.410156" xlink:href="#DejaVuSans-52"/>
       <use x="159.033203" xlink:href="#DejaVuSans-53"/>
      </g>
     </g>
    </g>
    <g id="ytick_2">
     <g id="line2d_8">
      <g>
       <use style="stroke:#000000;stroke-width:0.8;" x="57.6" xlink:href="#m55c48c7b45" y="249.383617"/>
      </g>
     </g>
     <g id="text_9">
      <!-- 0.50 -->
      <g transform="translate(28.334375 253.182836)scale(0.1 -0.1)">
       <use xlink:href="#DejaVuSans-48"/>
       <use x="63.623047" xlink:href="#DejaVuSans-46"/>
       <use x="95.410156" xlink:href="#DejaVuSans-53"/>
       <use x="159.033203" xlink:href="#DejaVuSans-48"/>
      </g>
     </g>
    </g>
    <g id="ytick_3">
     <g id="line2d_9">
      <g>
       <use style="stroke:#000000;stroke-width:0.8;" x="57.6" xlink:href="#m55c48c7b45" y="213.297798"/>
      </g>
     </g>
     <g id="text_10">
      <!-- 0.55 -->
      <g transform="translate(28.334375 217.097017)scale(0.1 -0.1)">
       <use xlink:href="#DejaVuSans-48"/>
       <use x="63.623047" xlink:href="#DejaVuSans-46"/>
       <use x="95.410156" xlink:href="#DejaVuSans-53"/>
       <use x="159.033203" xlink:href="#DejaVuSans-53"/>
      </g>
     </g>
    </g>
    <g id="ytick_4">
     <g id="line2d_10">
      <g>
       <use style="stroke:#000000;stroke-width:0.8;" x="57.6" xlink:href="#m55c48c7b45" y="177.211979"/>
      </g>
     </g>
     <g id="text_11">
      <!-- 0.60 -->
      <g transform="translate(28.334375 181.011198)scale(0.1 -0.1)">
       <use xlink:href="#DejaVuSans-48"/>
       <use x="63.623047" xlink:href="#DejaVuSans-46"/>
       <use x="95.410156" xlink:href="#DejaVuSans-54"/>
       <use x="159.033203" xlink:href="#DejaVuSans-48"/>
      </g>
     </g>
    </g>
    <g id="ytick_5">
     <g id="line2d_11">
      <g>
       <use style="stroke:#000000;stroke-width:0.8;" x="57.6" xlink:href="#m55c48c7b45" y="141.12616"/>
      </g>
     </g>
     <g id="text_12">
      <!-- 0.65 -->
      <g transform="translate(28.334375 144.925379)scale(0.1 -0.1)">
       <use xlink:href="#DejaVuSans-48"/>
       <use x="63.623047" xlink:href="#DejaVuSans-46"/>
       <use x="95.410156" xlink:href="#DejaVuSans-54"/>
       <use x="159.033203" xlink:href="#DejaVuSans-53"/>
      </g>
     </g>
    </g>
    <g id="ytick_6">
     <g id="line2d_12">
      <g>
       <use style="stroke:#000000;stroke-width:0.8;" x="57.6" xlink:href="#m55c48c7b45" y="105.040341"/>
      </g>
     </g>
     <g id="text_13">
      <!-- 0.70 -->
      <g transform="translate(28.334375 108.83956)scale(0.1 -0.1)">
       <defs>
        <path d="M 8.203125 72.90625 
L 55.078125 72.90625 
L 55.078125 68.703125 
L 28.609375 0 
L 18.3125 0 
L 43.21875 64.59375 
L 8.203125 64.59375 
z
" id="DejaVuSans-55"/>
       </defs>
       <use xlink:href="#DejaVuSans-48"/>
       <use x="63.623047" xlink:href="#DejaVuSans-46"/>
       <use x="95.410156" xlink:href="#DejaVuSans-55"/>
       <use x="159.033203" xlink:href="#DejaVuSans-48"/>
      </g>
     </g>
    </g>
    <g id="ytick_7">
     <g id="line2d_13">
      <g>
       <use style="stroke:#000000;stroke-width:0.8;" x="57.6" xlink:href="#m55c48c7b45" y="68.954522"/>
      </g>
     </g>
     <g id="text_14">
      <!-- 0.75 -->
      <g transform="translate(28.334375 72.753741)scale(0.1 -0.1)">
       <use xlink:href="#DejaVuSans-48"/>
       <use x="63.623047" xlink:href="#DejaVuSans-46"/>
       <use x="95.410156" xlink:href="#DejaVuSans-55"/>
       <use x="159.033203" xlink:href="#DejaVuSans-53"/>
      </g>
     </g>
    </g>
    <g id="text_15">
     <!-- Accuracy -->
     <g transform="translate(22.254687 197.356125)rotate(-90)scale(0.1 -0.1)">
      <defs>
       <path d="M 34.1875 63.1875 
L 20.796875 26.90625 
L 47.609375 26.90625 
z
M 28.609375 72.90625 
L 39.796875 72.90625 
L 67.578125 0 
L 57.328125 0 
L 50.6875 18.703125 
L 17.828125 18.703125 
L 11.1875 0 
L 0.78125 0 
z
" id="DejaVuSans-65"/>
       <path d="M 48.78125 52.59375 
L 48.78125 44.1875 
Q 44.96875 46.296875 41.140625 47.34375 
Q 37.3125 48.390625 33.40625 48.390625 
Q 24.65625 48.390625 19.8125 42.84375 
Q 14.984375 37.3125 14.984375 27.296875 
Q 14.984375 17.28125 19.8125 11.734375 
Q 24.65625 6.203125 33.40625 6.203125 
Q 37.3125 6.203125 41.140625 7.25 
Q 44.96875 8.296875 48.78125 10.40625 
L 48.78125 2.09375 
Q 45.015625 0.34375 40.984375 -0.53125 
Q 36.96875 -1.421875 32.421875 -1.421875 
Q 20.0625 -1.421875 12.78125 6.34375 
Q 5.515625 14.109375 5.515625 27.296875 
Q 5.515625 40.671875 12.859375 48.328125 
Q 20.21875 56 33.015625 56 
Q 37.15625 56 41.109375 55.140625 
Q 45.0625 54.296875 48.78125 52.59375 
z
" id="DejaVuSans-99"/>
       <path d="M 32.171875 -5.078125 
Q 28.375 -14.84375 24.75 -17.8125 
Q 21.140625 -20.796875 15.09375 -20.796875 
L 7.90625 -20.796875 
L 7.90625 -13.28125 
L 13.1875 -13.28125 
Q 16.890625 -13.28125 18.9375 -11.515625 
Q 21 -9.765625 23.484375 -3.21875 
L 25.09375 0.875 
L 2.984375 54.6875 
L 12.5 54.6875 
L 29.59375 11.921875 
L 46.6875 54.6875 
L 56.203125 54.6875 
z
" id="DejaVuSans-121"/>
      </defs>
      <use xlink:href="#DejaVuSans-65"/>
      <use x="66.658203" xlink:href="#DejaVuSans-99"/>
      <use x="121.638672" xlink:href="#DejaVuSans-99"/>
      <use x="176.619141" xlink:href="#DejaVuSans-117"/>
      <use x="239.998047" xlink:href="#DejaVuSans-114"/>
      <use x="281.111328" xlink:href="#DejaVuSans-97"/>
      <use x="342.390625" xlink:href="#DejaVuSans-99"/>
      <use x="397.371094" xlink:href="#DejaVuSans-121"/>
     </g>
    </g>
   </g>
   <g id="line2d_14">
    <path clip-path="url(#pdbae6e9448)" d="M 73.832727 155.560488 
L 77.112066 158.73604 
L 80.391405 163.499368 
L 83.670744 161.767249 
L 86.950083 163.932398 
L 90.229421 163.210681 
L 93.50876 165.375831 
L 96.788099 165.159316 
L 100.067438 161.622905 
L 103.346777 154.405742 
L 106.626116 161.334219 
L 109.905455 161.550734 
L 113.184793 162.27245 
L 116.464132 159.385585 
L 119.743471 158.73604 
L 123.02281 158.880383 
L 126.302149 156.643062 
L 129.581488 159.674271 
L 132.860826 158.230838 
L 136.140165 155.921346 
L 139.419504 157.509122 
L 142.698843 158.230838 
L 145.978182 159.746443 
L 149.257521 155.993518 
L 152.53686 156.570891 
L 155.816198 158.230838 
L 159.095537 154.189227 
L 162.374876 155.777003 
L 165.654215 154.983115 
L 168.933554 161.695077 
L 172.212893 160.684674 
L 175.492231 154.983115 
L 178.77157 161.767249 
L 182.050909 156.137861 
L 185.330248 157.220435 
L 188.609587 161.767249 
L 191.888926 161.40639 
L 195.168264 160.612502 
L 198.447603 162.055935 
L 201.726942 160.684674 
L 205.006281 159.313413 
L 208.28562 157.797809 
L 211.564959 164.437599 
L 214.844298 159.529928 
L 218.123636 161.550734 
L 221.402975 159.962958 
L 224.682314 165.881032 
L 227.961653 164.654114 
L 231.240992 162.200278 
L 234.520331 165.664517 
L 237.799669 162.633308 
L 241.079008 167.180121 
L 244.358347 170.933047 
L 247.637686 169.128756 
L 250.917025 166.963607 
L 254.196364 171.438248 
L 257.475702 172.592994 
L 260.755041 176.851121 
L 264.03438 170.355674 
L 267.313719 173.170367 
L 270.593058 174.902487 
L 273.872397 175.263345 
L 277.151736 180.820561 
L 280.431074 176.706778 
L 283.710413 184.068285 
L 286.989752 188.470755 
L 290.269091 182.336165 
L 293.54843 183.707427 
L 296.827769 187.316008 
L 300.107107 185.872576 
L 303.386446 189.408986 
L 306.665785 190.635904 
L 309.945124 192.728881 
L 313.224463 189.914187 
L 316.503802 193.739284 
L 319.78314 194.027971 
L 323.062479 194.677516 
L 326.341818 194.244486 
L 329.621157 196.698321 
L 332.900496 206.730179 
L 336.179835 204.420687 
L 339.459174 207.524067 
L 342.738512 194.244486 
L 346.017851 209.472701 
L 349.29719 203.482455 
L 352.576529 210.771791 
L 355.855868 201.533821 
L 359.135207 211.710022 
L 362.414545 216.04032 
L 365.693884 213.442141 
L 368.973223 211.998709 
L 372.252562 214.813403 
L 375.531901 216.256835 
L 378.81124 221.525365 
L 382.090579 218.133298 
L 385.369917 228.020812 
L 388.649256 223.113141 
L 391.928595 216.834208 
L 395.207934 220.44279 
L 398.487273 216.329007 
" style="fill:none;stroke:#1f77b4;stroke-linecap:square;stroke-width:1.5;"/>
   </g>
   <g id="line2d_15">
    <path clip-path="url(#pdbae6e9448)" d="M 73.832727 177.211979 
L 77.112066 179.232785 
L 80.391405 178.799755 
L 83.670744 176.562434 
L 86.950083 172.520823 
L 90.229421 172.304308 
L 93.50876 169.128756 
L 96.788099 170.860875 
L 100.067438 171.582591 
L 103.346777 171.438248 
L 106.626116 176.923293 
L 109.905455 176.923293 
L 113.184793 179.810158 
L 116.464132 178.58324 
L 119.743471 183.563083 
L 123.02281 186.016919 
L 126.302149 188.398583 
L 129.581488 189.481158 
L 132.860826 189.481158 
L 136.140165 193.306254 
L 139.419504 192.728881 
L 142.698843 196.19312 
L 145.978182 196.19312 
L 149.257521 195.832262 
L 152.53686 198.719127 
L 155.816198 197.275695 
L 159.095537 197.925239 
L 162.374876 198.646956 
L 165.654215 199.224329 
L 168.933554 197.636553 
L 172.212893 198.286097 
L 175.492231 198.935642 
L 178.77157 198.430441 
L 182.050909 199.152157 
L 185.330248 199.152157 
L 188.609587 198.719127 
L 191.888926 199.007814 
L 195.168264 199.007814 
L 198.447603 198.791299 
L 201.726942 198.863471 
L 205.006281 198.863471 
L 208.28562 198.935642 
L 211.564959 198.863471 
L 214.844298 198.863471 
L 218.123636 198.863471 
L 221.402975 198.863471 
L 224.682314 198.863471 
L 227.961653 198.863471 
L 231.240992 198.863471 
L 234.520331 198.863471 
L 237.799669 198.863471 
L 241.079008 198.863471 
L 244.358347 198.863471 
L 247.637686 198.863471 
L 250.917025 198.863471 
L 254.196364 198.863471 
L 257.475702 198.863471 
L 260.755041 198.863471 
L 264.03438 198.863471 
L 267.313719 198.863471 
L 270.593058 198.863471 
L 273.872397 198.863471 
L 277.151736 198.863471 
L 280.431074 198.863471 
L 283.710413 198.863471 
L 286.989752 198.863471 
L 290.269091 198.863471 
L 293.54843 198.863471 
L 296.827769 198.863471 
L 300.107107 198.863471 
L 303.386446 198.863471 
L 306.665785 198.863471 
L 309.945124 198.863471 
L 313.224463 198.863471 
L 316.503802 198.863471 
L 319.78314 198.863471 
L 323.062479 198.863471 
L 326.341818 198.863471 
L 329.621157 198.863471 
L 332.900496 198.863471 
L 336.179835 198.863471 
L 339.459174 198.863471 
L 342.738512 198.863471 
L 346.017851 198.863471 
L 349.29719 198.863471 
L 352.576529 198.863471 
L 355.855868 198.863471 
L 359.135207 198.863471 
L 362.414545 198.863471 
L 365.693884 198.863471 
L 368.973223 198.863471 
L 372.252562 198.863471 
L 375.531901 198.863471 
L 378.81124 198.863471 
L 382.090579 198.863471 
L 385.369917 198.863471 
L 388.649256 198.863471 
L 391.928595 198.863471 
L 395.207934 198.863471 
L 398.487273 198.863471 
" style="fill:none;stroke:#ff7f0e;stroke-linecap:square;stroke-width:1.5;"/>
   </g>
   <g id="line2d_16">
    <path clip-path="url(#pdbae6e9448)" d="M 73.832727 61.737365 
L 77.112066 65.995489 
L 80.391405 71.119673 
L 83.670744 71.552701 
L 86.950083 70.542299 
L 90.229421 76.532542 
L 93.50876 78.481177 
L 96.788099 83.821878 
L 100.067438 85.26531 
L 103.346777 85.265308 
L 106.626116 90.389498 
L 109.905455 89.23475 
L 113.184793 90.894698 
L 116.464132 87.286117 
L 119.743471 93.565049 
L 123.02281 97.823176 
L 126.302149 92.049445 
L 129.581488 97.317973 
L 132.860826 102.586503 
L 136.140165 104.823823 
L 139.419504 105.545542 
L 142.698843 105.54554 
L 145.978182 108.360232 
L 149.257521 109.731496 
L 152.53686 107.133315 
L 155.816198 111.896645 
L 159.095537 116.226945 
L 162.374876 112.546191 
L 165.654215 114.78351 
L 168.933554 121.567645 
L 172.212893 114.639168 
L 175.492231 121.134616 
L 178.77157 124.382339 
L 182.050909 122.21719 
L 185.330248 127.05269 
L 188.609587 126.547489 
L 191.888926 128.207436 
L 195.168264 129.506523 
L 198.447603 133.620309 
L 201.726942 133.115108 
L 205.006281 129.795211 
L 208.28562 136.362828 
L 211.564959 131.527331 
L 214.844298 136.218488 
L 218.123636 139.033181 
L 221.402975 141.053988 
L 224.682314 144.806914 
L 227.961653 149.06504 
L 231.240992 137.373234 
L 234.520331 147.549435 
L 237.799669 145.167771 
L 241.079008 150.724987 
L 244.358347 152.168422 
L 247.637686 152.240591 
L 250.917025 155.199627 
L 254.196364 156.715233 
L 257.475702 159.602097 
L 260.755041 158.808213 
L 264.03438 157.725639 
L 267.313719 158.591697 
L 270.593058 159.674271 
L 273.872397 160.179472 
L 277.151736 163.282853 
L 280.431074 165.664518 
L 283.710413 166.891436 
L 286.989752 167.468807 
L 290.269091 168.334868 
L 293.54843 170.427845 
L 296.827769 178.150213 
L 300.107107 175.696375 
L 303.386446 173.747743 
L 306.665785 179.665814 
L 309.945124 177.572837 
L 313.224463 176.706776 
L 316.503802 185.944749 
L 319.78314 180.098846 
L 323.062479 189.336815 
L 326.341818 183.274396 
L 329.621157 187.532525 
L 332.900496 200.090392 
L 336.179835 192.295853 
L 339.459174 193.883629 
L 342.738512 187.171664 
L 346.017851 197.420041 
L 349.29719 194.894034 
L 352.576529 202.977255 
L 355.855868 203.410286 
L 359.135207 206.658009 
L 362.414545 209.905734 
L 365.693884 212.792598 
L 368.973223 210.050077 
L 372.252562 215.53512 
L 375.531901 216.112493 
L 378.81124 223.329658 
L 382.090579 214.452546 
L 385.369917 230.546823 
L 388.649256 232.6398 
L 391.928595 233.072829 
L 395.207934 237.4753 
L 398.487273 252.198312 
" style="fill:none;stroke:#2ca02c;stroke-linecap:square;stroke-width:1.5;"/>
   </g>
   <g id="line2d_17">
    <path clip-path="url(#pdbae6e9448)" d="M 73.832727 234.94929 
L 77.112066 227.299096 
L 80.391405 231.052021 
L 83.670744 227.659954 
L 86.950083 225.422633 
L 90.229421 228.453842 
L 93.50876 225.927835 
L 96.788099 229.103387 
L 100.067438 222.535768 
L 103.346777 221.814051 
L 106.626116 224.484402 
L 109.905455 226.793894 
L 113.184793 226.505208 
L 116.464132 218.855014 
L 119.743471 218.494156 
L 123.02281 220.947992 
L 126.302149 219.432387 
L 129.581488 223.040969 
L 132.860826 221.525365 
L 136.140165 216.47335 
L 139.419504 219.865417 
L 142.698843 220.731477 
L 145.978182 216.329007 
L 149.257521 221.74188 
L 152.53686 215.895977 
L 155.816198 215.607291 
L 159.095537 222.102738 
L 162.374876 221.164507 
L 165.654215 217.77244 
L 168.933554 216.834208 
L 172.212893 218.566328 
L 175.492231 217.700268 
L 178.77157 215.751634 
L 182.050909 213.947343 
L 185.330248 213.803 
L 188.609587 210.483104 
L 191.888926 221.597537 
L 195.168264 218.061126 
L 198.447603 215.679462 
L 201.726942 218.061126 
L 205.006281 215.535119 
L 208.28562 212.648253 
L 211.564959 217.122895 
L 214.844298 215.823805 
L 218.123636 212.93694 
L 221.402975 219.215872 
L 224.682314 217.33941 
L 227.961653 213.586485 
L 231.240992 209.039672 
L 234.520331 213.586485 
L 237.799669 214.019515 
L 241.079008 217.050723 
L 244.358347 219.215872 
L 247.637686 213.803 
L 250.917025 215.895977 
L 254.196364 213.009112 
L 257.475702 209.689216 
L 260.755041 209.83356 
L 264.03438 218.494156 
L 267.313719 211.132649 
L 270.593058 214.957746 
L 273.872397 215.751634 
L 277.151736 214.669059 
L 280.431074 213.658656 
L 283.710413 214.741231 
L 286.989752 216.47335 
L 290.269091 210.988306 
L 293.54843 211.132649 
L 296.827769 218.710671 
L 300.107107 213.009112 
L 303.386446 216.112492 
L 306.665785 217.267238 
L 309.945124 211.276992 
L 313.224463 220.587134 
L 316.503802 212.50391 
L 319.78314 213.875171 
L 323.062479 216.545522 
L 326.341818 219.071529 
L 329.621157 213.875171 
L 332.900496 221.597537 
L 336.179835 218.421984 
L 339.459174 215.607291 
L 342.738512 220.731477 
L 346.017851 215.751634 
L 349.29719 215.318604 
L 352.576529 220.370619 
L 355.855868 219.865417 
L 359.135207 212.720425 
L 362.414545 211.998709 
L 365.693884 217.844611 
L 368.973223 219.288044 
L 372.252562 219.071529 
L 375.531901 220.87582 
L 378.81124 228.8147 
L 382.090579 218.927186 
L 385.369917 220.659305 
L 388.649256 225.27829 
L 391.928595 224.628745 
L 395.207934 230.11379 
L 398.487273 229.608588 
" style="fill:none;stroke:#d62728;stroke-linecap:square;stroke-width:1.5;"/>
   </g>
   <g id="patch_3">
    <path d="M 57.6 307.584 
L 57.6 41.472 
" style="fill:none;stroke:#000000;stroke-linecap:square;stroke-linejoin:miter;stroke-width:0.8;"/>
   </g>
   <g id="patch_4">
    <path d="M 414.72 307.584 
L 414.72 41.472 
" style="fill:none;stroke:#000000;stroke-linecap:square;stroke-linejoin:miter;stroke-width:0.8;"/>
   </g>
   <g id="patch_5">
    <path d="M 57.6 307.584 
L 414.72 307.584 
" style="fill:none;stroke:#000000;stroke-linecap:square;stroke-linejoin:miter;stroke-width:0.8;"/>
   </g>
   <g id="patch_6">
    <path d="M 57.6 41.472 
L 414.72 41.472 
" style="fill:none;stroke:#000000;stroke-linecap:square;stroke-linejoin:miter;stroke-width:0.8;"/>
   </g>
   <g id="text_16">
    <!-- Toy_non_linear_1000_100 -->
    <g transform="translate(159.3225 35.472)scale(0.12 -0.12)">
     <defs>
      <path d="M -0.296875 72.90625 
L 61.375 72.90625 
L 61.375 64.59375 
L 35.5 64.59375 
L 35.5 0 
L 25.59375 0 
L 25.59375 64.59375 
L -0.296875 64.59375 
z
" id="DejaVuSans-84"/>
      <path d="M 50.984375 -16.609375 
L 50.984375 -23.578125 
L -0.984375 -23.578125 
L -0.984375 -16.609375 
z
" id="DejaVuSans-95"/>
      <path d="M 54.890625 33.015625 
L 54.890625 0 
L 45.90625 0 
L 45.90625 32.71875 
Q 45.90625 40.484375 42.875 44.328125 
Q 39.84375 48.1875 33.796875 48.1875 
Q 26.515625 48.1875 22.3125 43.546875 
Q 18.109375 38.921875 18.109375 30.90625 
L 18.109375 0 
L 9.078125 0 
L 9.078125 54.6875 
L 18.109375 54.6875 
L 18.109375 46.1875 
Q 21.34375 51.125 25.703125 53.5625 
Q 30.078125 56 35.796875 56 
Q 45.21875 56 50.046875 50.171875 
Q 54.890625 44.34375 54.890625 33.015625 
z
" id="DejaVuSans-110"/>
      <path d="M 9.421875 75.984375 
L 18.40625 75.984375 
L 18.40625 0 
L 9.421875 0 
z
" id="DejaVuSans-108"/>
      <path d="M 9.421875 54.6875 
L 18.40625 54.6875 
L 18.40625 0 
L 9.421875 0 
z
M 9.421875 75.984375 
L 18.40625 75.984375 
L 18.40625 64.59375 
L 9.421875 64.59375 
z
" id="DejaVuSans-105"/>
     </defs>
     <use xlink:href="#DejaVuSans-84"/>
     <use x="44.083984" xlink:href="#DejaVuSans-111"/>
     <use x="105.265625" xlink:href="#DejaVuSans-121"/>
     <use x="164.445312" xlink:href="#DejaVuSans-95"/>
     <use x="214.445312" xlink:href="#DejaVuSans-110"/>
     <use x="277.824219" xlink:href="#DejaVuSans-111"/>
     <use x="339.005859" xlink:href="#DejaVuSans-110"/>
     <use x="402.384766" xlink:href="#DejaVuSans-95"/>
     <use x="452.384766" xlink:href="#DejaVuSans-108"/>
     <use x="480.167969" xlink:href="#DejaVuSans-105"/>
     <use x="507.951172" xlink:href="#DejaVuSans-110"/>
     <use x="571.330078" xlink:href="#DejaVuSans-101"/>
     <use x="632.853516" xlink:href="#DejaVuSans-97"/>
     <use x="694.132812" xlink:href="#DejaVuSans-114"/>
     <use x="735.246094" xlink:href="#DejaVuSans-95"/>
     <use x="785.246094" xlink:href="#DejaVuSans-49"/>
     <use x="848.869141" xlink:href="#DejaVuSans-48"/>
     <use x="912.492188" xlink:href="#DejaVuSans-48"/>
     <use x="976.115234" xlink:href="#DejaVuSans-48"/>
     <use x="1039.738281" xlink:href="#DejaVuSans-95"/>
     <use x="1089.738281" xlink:href="#DejaVuSans-49"/>
     <use x="1153.361328" xlink:href="#DejaVuSans-48"/>
     <use x="1216.984375" xlink:href="#DejaVuSans-48"/>
    </g>
   </g>
   <g id="legend_1">
    <g id="patch_7">
     <path d="M 211.399687 108.1845 
L 407.72 108.1845 
Q 409.72 108.1845 409.72 106.1845 
L 409.72 48.472 
Q 409.72 46.472 407.72 46.472 
L 211.399687 46.472 
Q 209.399687 46.472 209.399687 48.472 
L 209.399687 106.1845 
Q 209.399687 108.1845 211.399687 108.1845 
z
" style="fill:#ffffff;opacity:0.8;stroke:#cccccc;stroke-linejoin:miter;"/>
    </g>
    <g id="line2d_18">
     <path d="M 213.399687 54.570438 
L 233.399687 54.570438 
" style="fill:none;stroke:#1f77b4;stroke-linecap:square;stroke-width:1.5;"/>
    </g>
    <g id="line2d_19"/>
    <g id="text_17">
     <!-- Random Forest -->
     <g transform="translate(241.399687 58.070438)scale(0.1 -0.1)">
      <defs>
       <path d="M 44.390625 34.1875 
Q 47.5625 33.109375 50.5625 29.59375 
Q 53.5625 26.078125 56.59375 19.921875 
L 66.609375 0 
L 56 0 
L 46.6875 18.703125 
Q 43.0625 26.03125 39.671875 28.421875 
Q 36.28125 30.8125 30.421875 30.8125 
L 19.671875 30.8125 
L 19.671875 0 
L 9.8125 0 
L 9.8125 72.90625 
L 32.078125 72.90625 
Q 44.578125 72.90625 50.734375 67.671875 
Q 56.890625 62.453125 56.890625 51.90625 
Q 56.890625 45.015625 53.6875 40.46875 
Q 50.484375 35.9375 44.390625 34.1875 
z
M 19.671875 64.796875 
L 19.671875 38.921875 
L 32.078125 38.921875 
Q 39.203125 38.921875 42.84375 42.21875 
Q 46.484375 45.515625 46.484375 51.90625 
Q 46.484375 58.296875 42.84375 61.546875 
Q 39.203125 64.796875 32.078125 64.796875 
z
" id="DejaVuSans-82"/>
       <path d="M 45.40625 46.390625 
L 45.40625 75.984375 
L 54.390625 75.984375 
L 54.390625 0 
L 45.40625 0 
L 45.40625 8.203125 
Q 42.578125 3.328125 38.25 0.953125 
Q 33.9375 -1.421875 27.875 -1.421875 
Q 17.96875 -1.421875 11.734375 6.484375 
Q 5.515625 14.40625 5.515625 27.296875 
Q 5.515625 40.1875 11.734375 48.09375 
Q 17.96875 56 27.875 56 
Q 33.9375 56 38.25 53.625 
Q 42.578125 51.265625 45.40625 46.390625 
z
M 14.796875 27.296875 
Q 14.796875 17.390625 18.875 11.75 
Q 22.953125 6.109375 30.078125 6.109375 
Q 37.203125 6.109375 41.296875 11.75 
Q 45.40625 17.390625 45.40625 27.296875 
Q 45.40625 37.203125 41.296875 42.84375 
Q 37.203125 48.484375 30.078125 48.484375 
Q 22.953125 48.484375 18.875 42.84375 
Q 14.796875 37.203125 14.796875 27.296875 
z
" id="DejaVuSans-100"/>
       <path d="M 9.8125 72.90625 
L 51.703125 72.90625 
L 51.703125 64.59375 
L 19.671875 64.59375 
L 19.671875 43.109375 
L 48.578125 43.109375 
L 48.578125 34.8125 
L 19.671875 34.8125 
L 19.671875 0 
L 9.8125 0 
z
" id="DejaVuSans-70"/>
      </defs>
      <use xlink:href="#DejaVuSans-82"/>
      <use x="67.232422" xlink:href="#DejaVuSans-97"/>
      <use x="128.511719" xlink:href="#DejaVuSans-110"/>
      <use x="191.890625" xlink:href="#DejaVuSans-100"/>
      <use x="255.367188" xlink:href="#DejaVuSans-111"/>
      <use x="316.548828" xlink:href="#DejaVuSans-109"/>
      <use x="413.960938" xlink:href="#DejaVuSans-32"/>
      <use x="445.748047" xlink:href="#DejaVuSans-70"/>
      <use x="499.642578" xlink:href="#DejaVuSans-111"/>
      <use x="560.824219" xlink:href="#DejaVuSans-114"/>
      <use x="599.6875" xlink:href="#DejaVuSans-101"/>
      <use x="661.210938" xlink:href="#DejaVuSans-115"/>
      <use x="713.310547" xlink:href="#DejaVuSans-116"/>
     </g>
    </g>
    <g id="line2d_20">
     <path d="M 213.399687 69.248563 
L 233.399687 69.248563 
" style="fill:none;stroke:#ff7f0e;stroke-linecap:square;stroke-width:1.5;"/>
    </g>
    <g id="line2d_21"/>
    <g id="text_18">
     <!-- XGBoost -->
     <g transform="translate(241.399687 72.748563)scale(0.1 -0.1)">
      <defs>
       <path d="M 6.296875 72.90625 
L 16.890625 72.90625 
L 35.015625 45.796875 
L 53.21875 72.90625 
L 63.8125 72.90625 
L 40.375 37.890625 
L 65.375 0 
L 54.78125 0 
L 34.28125 31 
L 13.625 0 
L 2.984375 0 
L 29 38.921875 
z
" id="DejaVuSans-88"/>
       <path d="M 59.515625 10.40625 
L 59.515625 29.984375 
L 43.40625 29.984375 
L 43.40625 38.09375 
L 69.28125 38.09375 
L 69.28125 6.78125 
Q 63.578125 2.734375 56.6875 0.65625 
Q 49.8125 -1.421875 42 -1.421875 
Q 24.90625 -1.421875 15.25 8.5625 
Q 5.609375 18.5625 5.609375 36.375 
Q 5.609375 54.25 15.25 64.234375 
Q 24.90625 74.21875 42 74.21875 
Q 49.125 74.21875 55.546875 72.453125 
Q 61.96875 70.703125 67.390625 67.28125 
L 67.390625 56.78125 
Q 61.921875 61.421875 55.765625 63.765625 
Q 49.609375 66.109375 42.828125 66.109375 
Q 29.4375 66.109375 22.71875 58.640625 
Q 16.015625 51.171875 16.015625 36.375 
Q 16.015625 21.625 22.71875 14.15625 
Q 29.4375 6.6875 42.828125 6.6875 
Q 48.046875 6.6875 52.140625 7.59375 
Q 56.25 8.5 59.515625 10.40625 
z
" id="DejaVuSans-71"/>
       <path d="M 19.671875 34.8125 
L 19.671875 8.109375 
L 35.5 8.109375 
Q 43.453125 8.109375 47.28125 11.40625 
Q 51.125 14.703125 51.125 21.484375 
Q 51.125 28.328125 47.28125 31.5625 
Q 43.453125 34.8125 35.5 34.8125 
z
M 19.671875 64.796875 
L 19.671875 42.828125 
L 34.28125 42.828125 
Q 41.5 42.828125 45.03125 45.53125 
Q 48.578125 48.25 48.578125 53.8125 
Q 48.578125 59.328125 45.03125 62.0625 
Q 41.5 64.796875 34.28125 64.796875 
z
M 9.8125 72.90625 
L 35.015625 72.90625 
Q 46.296875 72.90625 52.390625 68.21875 
Q 58.5 63.53125 58.5 54.890625 
Q 58.5 48.1875 55.375 44.234375 
Q 52.25 40.28125 46.1875 39.3125 
Q 53.46875 37.75 57.5 32.78125 
Q 61.53125 27.828125 61.53125 20.40625 
Q 61.53125 10.640625 54.890625 5.3125 
Q 48.25 0 35.984375 0 
L 9.8125 0 
z
" id="DejaVuSans-66"/>
      </defs>
      <use xlink:href="#DejaVuSans-88"/>
      <use x="68.505859" xlink:href="#DejaVuSans-71"/>
      <use x="145.996094" xlink:href="#DejaVuSans-66"/>
      <use x="214.599609" xlink:href="#DejaVuSans-111"/>
      <use x="275.78125" xlink:href="#DejaVuSans-111"/>
      <use x="336.962891" xlink:href="#DejaVuSans-115"/>
      <use x="389.0625" xlink:href="#DejaVuSans-116"/>
     </g>
    </g>
    <g id="line2d_22">
     <path d="M 213.399687 83.926688 
L 233.399687 83.926688 
" style="fill:none;stroke:#2ca02c;stroke-linecap:square;stroke-width:1.5;"/>
    </g>
    <g id="line2d_23"/>
    <g id="text_19">
     <!-- Neural Network + Regularization -->
     <g transform="translate(241.399687 87.426688)scale(0.1 -0.1)">
      <defs>
       <path d="M 4.203125 54.6875 
L 13.1875 54.6875 
L 24.421875 12.015625 
L 35.59375 54.6875 
L 46.1875 54.6875 
L 57.421875 12.015625 
L 68.609375 54.6875 
L 77.59375 54.6875 
L 63.28125 0 
L 52.6875 0 
L 40.921875 44.828125 
L 29.109375 0 
L 18.5 0 
z
" id="DejaVuSans-119"/>
       <path d="M 9.078125 75.984375 
L 18.109375 75.984375 
L 18.109375 31.109375 
L 44.921875 54.6875 
L 56.390625 54.6875 
L 27.390625 29.109375 
L 57.625 0 
L 45.90625 0 
L 18.109375 26.703125 
L 18.109375 0 
L 9.078125 0 
z
" id="DejaVuSans-107"/>
       <path d="M 46 62.703125 
L 46 35.5 
L 73.1875 35.5 
L 73.1875 27.203125 
L 46 27.203125 
L 46 0 
L 37.796875 0 
L 37.796875 27.203125 
L 10.59375 27.203125 
L 10.59375 35.5 
L 37.796875 35.5 
L 37.796875 62.703125 
z
" id="DejaVuSans-43"/>
       <path d="M 45.40625 27.984375 
Q 45.40625 37.75 41.375 43.109375 
Q 37.359375 48.484375 30.078125 48.484375 
Q 22.859375 48.484375 18.828125 43.109375 
Q 14.796875 37.75 14.796875 27.984375 
Q 14.796875 18.265625 18.828125 12.890625 
Q 22.859375 7.515625 30.078125 7.515625 
Q 37.359375 7.515625 41.375 12.890625 
Q 45.40625 18.265625 45.40625 27.984375 
z
M 54.390625 6.78125 
Q 54.390625 -7.171875 48.1875 -13.984375 
Q 42 -20.796875 29.203125 -20.796875 
Q 24.46875 -20.796875 20.265625 -20.09375 
Q 16.0625 -19.390625 12.109375 -17.921875 
L 12.109375 -9.1875 
Q 16.0625 -11.328125 19.921875 -12.34375 
Q 23.78125 -13.375 27.78125 -13.375 
Q 36.625 -13.375 41.015625 -8.765625 
Q 45.40625 -4.15625 45.40625 5.171875 
L 45.40625 9.625 
Q 42.625 4.78125 38.28125 2.390625 
Q 33.9375 0 27.875 0 
Q 17.828125 0 11.671875 7.65625 
Q 5.515625 15.328125 5.515625 27.984375 
Q 5.515625 40.671875 11.671875 48.328125 
Q 17.828125 56 27.875 56 
Q 33.9375 56 38.28125 53.609375 
Q 42.625 51.21875 45.40625 46.390625 
L 45.40625 54.6875 
L 54.390625 54.6875 
z
" id="DejaVuSans-103"/>
       <path d="M 5.515625 54.6875 
L 48.1875 54.6875 
L 48.1875 46.484375 
L 14.40625 7.171875 
L 48.1875 7.171875 
L 48.1875 0 
L 4.296875 0 
L 4.296875 8.203125 
L 38.09375 47.515625 
L 5.515625 47.515625 
z
" id="DejaVuSans-122"/>
      </defs>
      <use xlink:href="#DejaVuSans-78"/>
      <use x="74.804688" xlink:href="#DejaVuSans-101"/>
      <use x="136.328125" xlink:href="#DejaVuSans-117"/>
      <use x="199.707031" xlink:href="#DejaVuSans-114"/>
      <use x="240.820312" xlink:href="#DejaVuSans-97"/>
      <use x="302.099609" xlink:href="#DejaVuSans-108"/>
      <use x="329.882812" xlink:href="#DejaVuSans-32"/>
      <use x="361.669922" xlink:href="#DejaVuSans-78"/>
      <use x="436.474609" xlink:href="#DejaVuSans-101"/>
      <use x="497.998047" xlink:href="#DejaVuSans-116"/>
      <use x="537.207031" xlink:href="#DejaVuSans-119"/>
      <use x="618.994141" xlink:href="#DejaVuSans-111"/>
      <use x="680.175781" xlink:href="#DejaVuSans-114"/>
      <use x="721.289062" xlink:href="#DejaVuSans-107"/>
      <use x="779.199219" xlink:href="#DejaVuSans-32"/>
      <use x="810.986328" xlink:href="#DejaVuSans-43"/>
      <use x="894.775391" xlink:href="#DejaVuSans-32"/>
      <use x="926.5625" xlink:href="#DejaVuSans-82"/>
      <use x="991.544922" xlink:href="#DejaVuSans-101"/>
      <use x="1053.068359" xlink:href="#DejaVuSans-103"/>
      <use x="1116.544922" xlink:href="#DejaVuSans-117"/>
      <use x="1179.923828" xlink:href="#DejaVuSans-108"/>
      <use x="1207.707031" xlink:href="#DejaVuSans-97"/>
      <use x="1268.986328" xlink:href="#DejaVuSans-114"/>
      <use x="1310.099609" xlink:href="#DejaVuSans-105"/>
      <use x="1337.882812" xlink:href="#DejaVuSans-122"/>
      <use x="1390.373047" xlink:href="#DejaVuSans-97"/>
      <use x="1451.652344" xlink:href="#DejaVuSans-116"/>
      <use x="1490.861328" xlink:href="#DejaVuSans-105"/>
      <use x="1518.644531" xlink:href="#DejaVuSans-111"/>
      <use x="1579.826172" xlink:href="#DejaVuSans-110"/>
     </g>
    </g>
    <g id="line2d_24">
     <path d="M 213.399687 98.604813 
L 233.399687 98.604813 
" style="fill:none;stroke:#d62728;stroke-linecap:square;stroke-width:1.5;"/>
    </g>
    <g id="line2d_25"/>
    <g id="text_20">
     <!-- KNN -->
     <g transform="translate(241.399687 102.104813)scale(0.1 -0.1)">
      <defs>
       <path d="M 9.8125 72.90625 
L 19.671875 72.90625 
L 19.671875 42.09375 
L 52.390625 72.90625 
L 65.09375 72.90625 
L 28.90625 38.921875 
L 67.671875 0 
L 54.6875 0 
L 19.671875 35.109375 
L 19.671875 0 
L 9.8125 0 
z
" id="DejaVuSans-75"/>
      </defs>
      <use xlink:href="#DejaVuSans-75"/>
      <use x="65.576172" xlink:href="#DejaVuSans-78"/>
      <use x="140.380859" xlink:href="#DejaVuSans-78"/>
     </g>
    </g>
   </g>
  </g>
 </g>
 <defs>
  <clipPath id="pdbae6e9448">
   <rect height="266.112" width="357.12" x="57.6" y="41.472"/>
  </clipPath>
 </defs>
</svg>
