<?xml version="1.0" encoding="utf-8" standalone="no"?>
<!DOCTYPE svg PUBLIC "-//W3C//DTD SVG 1.1//EN"
  "http://www.w3.org/Graphics/SVG/1.1/DTD/svg11.dtd">
<!-- Created with matplotlib (https://matplotlib.org/) -->
<svg height="345.6pt" version="1.1" viewBox="0 0 460.8 345.6" width="460.8pt" xmlns="http://www.w3.org/2000/svg" xmlns:xlink="http://www.w3.org/1999/xlink">
 <metadata>
  <rdf:RDF xmlns:cc="http://creativecommons.org/ns#" xmlns:dc="http://purl.org/dc/elements/1.1/" xmlns:rdf="http://www.w3.org/1999/02/22-rdf-syntax-ns#">
   <cc:Work>
    <dc:type rdf:resource="http://purl.org/dc/dcmitype/StillImage"/>
    <dc:date>2023-09-19T15:46:35.340968</dc:date>
    <dc:format>image/svg+xml</dc:format>
    <dc:creator>
     <cc:Agent>
      <dc:title>Matplotlib v3.3.4, https://matplotlib.org/</dc:title>
     </cc:Agent>
    </dc:creator>
   </cc:Work>
  </rdf:RDF>
 </metadata>
 <defs>
  <style type="text/css">*{stroke-linecap:butt;stroke-linejoin:round;}</style>
 </defs>
 <g id="figure_1">
  <g id="patch_1">
   <path d="M 0 345.6 
L 460.8 345.6 
L 460.8 0 
L 0 0 
z
" style="fill:#ffffff;"/>
  </g>
  <g id="axes_1">
   <g id="patch_2">
    <path d="M 57.6 307.584 
L 414.72 307.584 
L 414.72 41.472 
L 57.6 41.472 
z
" style="fill:#ffffff;"/>
   </g>
   <g id="PolyCollection_1">
    <path clip-path="url(#p1495d8b0f0)" d="M 73.832727 194.18079 
L 73.832727 194.18079 
L 77.112066 201.682561 
L 80.391405 205.974095 
L 83.670744 204.885975 
L 86.950083 208.604201 
L 90.229421 208.023934 
L 93.50876 206.597402 
L 96.788099 202.012359 
L 100.067438 205.250034 
L 103.346777 207.463152 
L 106.626116 207.083717 
L 109.905455 205.224474 
L 113.184793 203.477055 
L 116.464132 208.066169 
L 119.743471 203.9704 
L 123.02281 206.218728 
L 126.302149 204.915774 
L 129.581488 206.217956 
L 132.860826 204.696237 
L 136.140165 204.123118 
L 139.419504 208.329637 
L 142.698843 208.911796 
L 145.978182 208.288965 
L 149.257521 208.860871 
L 152.53686 206.757532 
L 155.816198 206.01885 
L 159.095537 208.268128 
L 162.374876 204.249744 
L 165.654215 211.084658 
L 168.933554 207.752689 
L 172.212893 210.040032 
L 175.492231 213.205866 
L 178.77157 211.335503 
L 182.050909 215.079463 
L 185.330248 209.218191 
L 188.609587 207.148574 
L 191.888926 214.465609 
L 195.168264 214.448821 
L 198.447603 216.590084 
L 201.726942 215.348269 
L 205.006281 216.838341 
L 208.28562 219.144704 
L 211.564959 216.758034 
L 214.844298 219.333064 
L 218.123636 220.79722 
L 221.402975 218.650221 
L 224.682314 218.446243 
L 227.961653 219.9222 
L 231.240992 218.719366 
L 234.520331 221.84428 
L 237.799669 220.504028 
L 241.079008 227.065335 
L 244.358347 219.033737 
L 247.637686 229.00232 
L 250.917025 228.83226 
L 254.196364 226.001954 
L 257.475702 226.513704 
L 260.755041 229.206954 
L 264.03438 230.011327 
L 267.313719 231.754949 
L 270.593058 230.632384 
L 273.872397 229.363711 
L 277.151736 233.692152 
L 280.431074 238.539908 
L 283.710413 233.388358 
L 286.989752 235.101431 
L 290.269091 231.943435 
L 293.54843 233.478766 
L 296.827769 237.811576 
L 300.107107 245.232465 
L 303.386446 242.492722 
L 306.665785 245.307299 
L 309.945124 243.007695 
L 313.224463 246.822267 
L 316.503802 249.496737 
L 319.78314 246.695056 
L 323.062479 238.15058 
L 326.341818 248.986039 
L 329.621157 248.604462 
L 332.900496 257.277015 
L 336.179835 250.770271 
L 339.459174 256.452606 
L 342.738512 258.825734 
L 346.017851 252.363593 
L 349.29719 261.33828 
L 352.576529 265.190775 
L 355.855868 261.640913 
L 359.135207 262.20151 
L 362.414545 261.825043 
L 365.693884 265.495986 
L 368.973223 268.211356 
L 372.252562 268.270186 
L 375.531901 267.820989 
L 378.81124 270.045719 
L 382.090579 270.428902 
L 385.369917 270.920084 
L 388.649256 269.565303 
L 391.928595 272.218859 
L 395.207934 271.24173 
L 398.487273 267.043324 
L 398.487273 254.965711 
L 398.487273 254.965711 
L 395.207934 246.103862 
L 391.928595 245.01299 
L 388.649256 240.841996 
L 385.369917 236.074939 
L 382.090579 229.627827 
L 378.81124 221.36658 
L 375.531901 217.790441 
L 372.252562 215.748848 
L 368.973223 224.45211 
L 365.693884 217.954336 
L 362.414545 218.326746 
L 359.135207 211.808184 
L 355.855868 210.776385 
L 352.576529 209.160146 
L 349.29719 208.91791 
L 346.017851 201.627418 
L 342.738512 199.37375 
L 339.459174 202.31559 
L 336.179835 191.846488 
L 332.900496 193.187978 
L 329.621157 192.192417 
L 326.341818 195.223115 
L 323.062479 185.584922 
L 319.78314 189.43838 
L 316.503802 195.7361 
L 313.224463 187.946258 
L 309.945124 194.718136 
L 306.665785 189.347484 
L 303.386446 190.342181 
L 300.107107 193.403306 
L 296.827769 193.885901 
L 293.54843 182.181017 
L 290.269091 182.237695 
L 286.989752 180.785837 
L 283.710413 181.247742 
L 280.431074 182.579515 
L 277.151736 179.579038 
L 273.872397 181.632629 
L 270.593058 180.136471 
L 267.313719 176.170342 
L 264.03438 174.956659 
L 260.755041 174.73735 
L 257.475702 168.558683 
L 254.196364 174.985044 
L 250.917025 175.339529 
L 247.637686 181.425307 
L 244.358347 172.285148 
L 241.079008 178.130137 
L 237.799669 170.928599 
L 234.520331 172.88688 
L 231.240992 168.618531 
L 227.961653 171.737912 
L 224.682314 171.621474 
L 221.402975 170.962526 
L 218.123636 173.365227 
L 214.844298 169.028515 
L 211.564959 171.603545 
L 208.28562 167.510738 
L 205.006281 167.428508 
L 201.726942 165.278819 
L 198.447603 162.103382 
L 195.168264 165.609554 
L 191.888926 166.730191 
L 188.609587 161.649293 
L 185.330248 163.560664 
L 182.050909 163.272775 
L 178.77157 163.490717 
L 175.492231 160.482928 
L 172.212893 160.122745 
L 168.933554 164.343711 
L 165.654215 162.945364 
L 162.374876 162.955728 
L 159.095537 163.828271 
L 155.816198 162.096562 
L 152.53686 161.35788 
L 149.257521 161.870618 
L 145.978182 164.148662 
L 142.698843 163.412088 
L 139.419504 164.221733 
L 136.140165 161.717443 
L 132.860826 163.532917 
L 129.581488 161.215 
L 126.302149 165.929458 
L 123.02281 162.465396 
L 119.743471 163.917527 
L 116.464132 163.916488 
L 113.184793 174.988925 
L 109.905455 165.165788 
L 106.626116 166.946305 
L 103.346777 171.230313 
L 100.067438 170.031156 
L 96.788099 170.197783 
L 93.50876 174.370914 
L 90.229421 171.693214 
L 86.950083 176.117618 
L 83.670744 179.267131 
L 80.391405 180.795089 
L 77.112066 183.153001 
L 73.832727 194.18079 
z
" style="fill:#1f77b4;fill-opacity:0.2;"/>
   </g>
   <g id="PolyCollection_2">
    <path clip-path="url(#p1495d8b0f0)" d="M 73.832727 142.996658 
L 73.832727 142.996658 
L 77.112066 153.512567 
L 80.391405 158.411404 
L 83.670744 166.464396 
L 86.950083 174.402836 
L 90.229421 185.513984 
L 93.50876 196.815308 
L 96.788099 202.805305 
L 100.067438 217.975895 
L 103.346777 229.13066 
L 106.626116 233.528792 
L 109.905455 242.795975 
L 113.184793 242.862045 
L 116.464132 248.116661 
L 119.743471 250.324538 
L 123.02281 254.139611 
L 126.302149 258.22778 
L 129.581488 260.151449 
L 132.860826 258.704269 
L 136.140165 260.142221 
L 139.419504 259.973215 
L 142.698843 262.404341 
L 145.978182 262.406953 
L 149.257521 263.144212 
L 152.53686 264.021114 
L 155.816198 263.586887 
L 159.095537 263.73068 
L 162.374876 264.418191 
L 165.654215 263.922481 
L 168.933554 264.494826 
L 172.212893 264.285816 
L 175.492231 263.871917 
L 178.77157 263.753479 
L 182.050909 263.313258 
L 185.330248 263.619501 
L 188.609587 263.225836 
L 191.888926 263.108754 
L 195.168264 262.93529 
L 198.447603 262.426299 
L 201.726942 262.93529 
L 205.006281 262.426299 
L 208.28562 262.426299 
L 211.564959 262.426299 
L 214.844298 262.426299 
L 218.123636 262.93529 
L 221.402975 262.93529 
L 224.682314 262.426299 
L 227.961653 262.426299 
L 231.240992 262.426299 
L 234.520331 262.426299 
L 237.799669 262.426299 
L 241.079008 262.426299 
L 244.358347 262.426299 
L 247.637686 262.426299 
L 250.917025 262.426299 
L 254.196364 262.426299 
L 257.475702 262.426299 
L 260.755041 262.426299 
L 264.03438 262.426299 
L 267.313719 262.426299 
L 270.593058 262.426299 
L 273.872397 262.426299 
L 277.151736 262.426299 
L 280.431074 262.426299 
L 283.710413 262.426299 
L 286.989752 262.426299 
L 290.269091 262.426299 
L 293.54843 262.426299 
L 296.827769 262.426299 
L 300.107107 262.426299 
L 303.386446 262.426299 
L 306.665785 262.426299 
L 309.945124 262.426299 
L 313.224463 262.426299 
L 316.503802 262.426299 
L 319.78314 262.426299 
L 323.062479 262.426299 
L 326.341818 262.426299 
L 329.621157 262.426299 
L 332.900496 262.426299 
L 336.179835 262.426299 
L 339.459174 262.426299 
L 342.738512 262.426299 
L 346.017851 262.426299 
L 349.29719 262.426299 
L 352.576529 262.426299 
L 355.855868 262.426299 
L 359.135207 262.426299 
L 362.414545 262.426299 
L 365.693884 262.426299 
L 368.973223 262.426299 
L 372.252562 262.426299 
L 375.531901 262.426299 
L 378.81124 262.426299 
L 382.090579 262.426299 
L 385.369917 262.426299 
L 388.649256 262.426299 
L 391.928595 262.426299 
L 395.207934 262.426299 
L 398.487273 262.426299 
L 398.487273 262.426299 
L 398.487273 262.426299 
L 395.207934 262.426299 
L 391.928595 262.426299 
L 388.649256 262.426299 
L 385.369917 262.426299 
L 382.090579 262.426299 
L 378.81124 262.426299 
L 375.531901 262.426299 
L 372.252562 262.426299 
L 368.973223 262.426299 
L 365.693884 262.426299 
L 362.414545 262.426299 
L 359.135207 262.426299 
L 355.855868 262.426299 
L 352.576529 262.426299 
L 349.29719 262.426299 
L 346.017851 262.426299 
L 342.738512 262.426299 
L 339.459174 262.426299 
L 336.179835 262.426299 
L 332.900496 262.426299 
L 329.621157 262.426299 
L 326.341818 262.426299 
L 323.062479 262.426299 
L 319.78314 262.426299 
L 316.503802 262.426299 
L 313.224463 262.426299 
L 309.945124 262.426299 
L 306.665785 262.426299 
L 303.386446 262.426299 
L 300.107107 262.426299 
L 296.827769 262.426299 
L 293.54843 262.426299 
L 290.269091 262.426299 
L 286.989752 262.426299 
L 283.710413 262.426299 
L 280.431074 262.426299 
L 277.151736 262.426299 
L 273.872397 262.426299 
L 270.593058 262.426299 
L 267.313719 262.426299 
L 264.03438 262.426299 
L 260.755041 262.426299 
L 257.475702 262.426299 
L 254.196364 262.426299 
L 250.917025 262.426299 
L 247.637686 262.426299 
L 244.358347 262.426299 
L 241.079008 262.426299 
L 237.799669 262.426299 
L 234.520331 262.426299 
L 231.240992 262.426299 
L 227.961653 262.426299 
L 224.682314 262.426299 
L 221.402975 261.803566 
L 218.123636 261.803566 
L 214.844298 262.426299 
L 211.564959 262.426299 
L 208.28562 262.426299 
L 205.006281 262.426299 
L 201.726942 261.803566 
L 198.447603 262.426299 
L 195.168264 261.803566 
L 191.888926 261.516359 
L 188.609587 261.285534 
L 185.330248 260.664384 
L 182.050909 261.084369 
L 178.77157 259.847951 
L 175.492231 260.184483 
L 172.212893 258.860644 
L 168.933554 256.831754 
L 165.654215 257.631584 
L 162.374876 257.477101 
L 159.095537 255.776019 
L 155.816198 255.464843 
L 152.53686 253.324478 
L 149.257521 248.514254 
L 145.978182 250.388938 
L 142.698843 245.045653 
L 139.419504 240.879712 
L 136.140165 243.326784 
L 132.860826 238.736383 
L 129.581488 233.99067 
L 126.302149 228.976045 
L 123.02281 223.964813 
L 119.743471 219.931652 
L 116.464132 214.746266 
L 113.184793 207.034236 
L 109.905455 201.299437 
L 106.626116 189.524254 
L 103.346777 185.164212 
L 100.067438 175.61784 
L 96.788099 166.447532 
L 93.50876 154.352468 
L 90.229421 148.819901 
L 86.950083 142.642186 
L 83.670744 134.770416 
L 80.391405 135.088918 
L 77.112066 133.276946 
L 73.832727 142.996658 
z
" style="fill:#ff7f0e;fill-opacity:0.2;"/>
   </g>
   <g id="PolyCollection_3">
    <path clip-path="url(#p1495d8b0f0)" d="M 73.832727 63.376894 
L 73.832727 63.376894 
L 77.112066 72.730823 
L 80.391405 82.735854 
L 83.670744 84.166855 
L 86.950083 88.481002 
L 90.229421 90.957937 
L 93.50876 95.30004 
L 96.788099 97.234275 
L 100.067438 98.26072 
L 103.346777 101.16144 
L 106.626116 108.027123 
L 109.905455 109.686049 
L 113.184793 108.317184 
L 116.464132 110.106935 
L 119.743471 109.841784 
L 123.02281 113.748239 
L 126.302149 118.385664 
L 129.581488 115.829532 
L 132.860826 119.737898 
L 136.140165 119.922469 
L 139.419504 123.640669 
L 142.698843 124.722495 
L 145.978182 128.774308 
L 149.257521 125.338552 
L 152.53686 127.869262 
L 155.816198 133.0584 
L 159.095537 133.41864 
L 162.374876 135.541481 
L 165.654215 136.048199 
L 168.933554 141.553431 
L 172.212893 140.965383 
L 175.492231 142.636246 
L 178.77157 141.670737 
L 182.050909 141.290676 
L 185.330248 147.345582 
L 188.609587 152.492376 
L 191.888926 147.607887 
L 195.168264 152.999864 
L 198.447603 152.747521 
L 201.726942 155.125261 
L 205.006281 154.507122 
L 208.28562 155.716306 
L 211.564959 163.313327 
L 214.844298 159.305428 
L 218.123636 162.247997 
L 221.402975 163.55992 
L 224.682314 164.94971 
L 227.961653 164.723157 
L 231.240992 165.154537 
L 234.520331 170.624525 
L 237.799669 177.019088 
L 241.079008 173.663033 
L 244.358347 174.325079 
L 247.637686 173.580365 
L 250.917025 177.455978 
L 254.196364 176.517612 
L 257.475702 179.202837 
L 260.755041 181.229457 
L 264.03438 180.800433 
L 267.313719 184.099826 
L 270.593058 185.265477 
L 273.872397 187.246443 
L 277.151736 192.133561 
L 280.431074 188.873847 
L 283.710413 195.2274 
L 286.989752 193.125769 
L 290.269091 198.702807 
L 293.54843 195.286818 
L 296.827769 207.271925 
L 300.107107 202.550788 
L 303.386446 208.798581 
L 306.665785 206.348483 
L 309.945124 206.389376 
L 313.224463 212.171459 
L 316.503802 218.811733 
L 319.78314 214.330118 
L 323.062479 208.814231 
L 326.341818 213.761849 
L 329.621157 217.301361 
L 332.900496 221.833284 
L 336.179835 222.858715 
L 339.459174 226.167951 
L 342.738512 231.299192 
L 346.017851 224.771003 
L 349.29719 235.627588 
L 352.576529 236.589255 
L 355.855868 239.308681 
L 359.135207 241.277628 
L 362.414545 237.738498 
L 365.693884 247.088565 
L 368.973223 252.046927 
L 372.252562 244.934655 
L 375.531901 254.970347 
L 378.81124 255.667943 
L 382.090579 256.89952 
L 385.369917 259.2998 
L 388.649256 266.899272 
L 391.928595 271.228416 
L 395.207934 276.548059 
L 398.487273 281.361689 
L 398.487273 228.249416 
L 398.487273 228.249416 
L 395.207934 222.030024 
L 391.928595 214.951729 
L 388.649256 212.683806 
L 385.369917 206.861659 
L 382.090579 204.939725 
L 378.81124 200.484177 
L 375.531901 196.632074 
L 372.252562 190.175101 
L 368.973223 197.735615 
L 365.693884 187.566221 
L 362.414545 188.726825 
L 359.135207 182.116646 
L 355.855868 187.61161 
L 352.576529 183.733972 
L 349.29719 187.197979 
L 346.017851 175.192311 
L 342.738512 173.896281 
L 339.459174 178.231317 
L 336.179835 173.919812 
L 332.900496 169.826827 
L 329.621157 166.51052 
L 326.341818 162.656764 
L 323.062479 162.485968 
L 319.78314 168.003109 
L 316.503802 167.047512 
L 313.224463 158.332547 
L 309.945124 155.128967 
L 306.665785 152.326294 
L 303.386446 155.335844 
L 300.107107 152.029263 
L 296.827769 153.677707 
L 293.54843 150.19383 
L 290.269091 148.256495 
L 286.989752 141.54934 
L 283.710413 147.523427 
L 280.431074 144.663839 
L 277.151736 144.702658 
L 273.872397 138.101777 
L 270.593058 139.400292 
L 267.313719 138.291094 
L 264.03438 134.197219 
L 260.755041 137.294213 
L 257.475702 133.064998 
L 254.196364 127.674504 
L 250.917025 128.897247 
L 247.637686 132.886604 
L 244.358347 131.573173 
L 241.079008 133.372645 
L 237.799669 123.988234 
L 234.520331 128.67666 
L 231.240992 125.615965 
L 227.961653 126.274824 
L 224.682314 121.839801 
L 221.402975 120.158544 
L 218.123636 117.83071 
L 214.844298 118.157198 
L 211.564959 113.23936 
L 208.28562 116.28668 
L 205.006281 110.443826 
L 201.726942 111.418082 
L 198.447603 106.857529 
L 195.168264 106.605188 
L 191.888926 106.651266 
L 188.609587 107.112678 
L 185.330248 105.662405 
L 182.050909 99.546864 
L 178.77157 100.986681 
L 175.492231 102.864736 
L 172.212893 98.734729 
L 168.933554 96.781772 
L 165.654215 93.415086 
L 162.374876 96.424141 
L 159.095537 91.039977 
L 155.816198 93.220097 
L 152.53686 91.470942 
L 149.257521 88.655753 
L 145.978182 91.70332 
L 142.698843 86.087024 
L 139.419504 85.690192 
L 136.140165 85.768635 
L 132.860826 80.948529 
L 129.581488 81.103398 
L 126.302149 83.210708 
L 123.02281 75.563941 
L 119.743471 76.626828 
L 116.464132 73.745605 
L 113.184793 79.175116 
L 109.905455 75.190171 
L 106.626116 73.550563 
L 103.346777 71.771815 
L 100.067438 66.255588 
L 96.788099 66.030864 
L 93.50876 67.282645 
L 90.229421 63.321546 
L 86.950083 62.044977 
L 83.670744 59.534573 
L 80.391405 54.254766 
L 77.112066 53.568 
L 73.832727 63.376894 
z
" style="fill:#2ca02c;fill-opacity:0.2;"/>
   </g>
   <g id="PolyCollection_4">
    <path clip-path="url(#p1495d8b0f0)" d="M 73.832727 216.929293 
L 73.832727 216.929293 
L 77.112066 235.397194 
L 80.391405 229.705902 
L 83.670744 228.184937 
L 86.950083 231.284884 
L 90.229421 222.273282 
L 93.50876 226.745305 
L 96.788099 228.465376 
L 100.067438 223.87646 
L 103.346777 225.830365 
L 106.626116 226.837107 
L 109.905455 234.410069 
L 113.184793 229.677014 
L 116.464132 229.848891 
L 119.743471 233.423881 
L 123.02281 234.682088 
L 126.302149 224.454292 
L 129.581488 229.769901 
L 132.860826 226.806715 
L 136.140165 220.282411 
L 139.419504 236.730303 
L 142.698843 227.617389 
L 145.978182 230.674727 
L 149.257521 231.046531 
L 152.53686 232.074386 
L 155.816198 231.279403 
L 159.095537 233.818093 
L 162.374876 232.878451 
L 165.654215 232.401372 
L 168.933554 232.253158 
L 172.212893 232.651949 
L 175.492231 234.682388 
L 178.77157 234.510892 
L 182.050909 228.780067 
L 185.330248 236.043556 
L 188.609587 237.024712 
L 191.888926 236.556447 
L 195.168264 237.603988 
L 198.447603 238.977949 
L 201.726942 237.850016 
L 205.006281 237.199543 
L 208.28562 236.366896 
L 211.564959 239.123052 
L 214.844298 240.587377 
L 218.123636 239.574468 
L 221.402975 238.371902 
L 224.682314 236.236716 
L 227.961653 238.07092 
L 231.240992 242.486655 
L 234.520331 238.840389 
L 237.799669 241.672306 
L 241.079008 242.105311 
L 244.358347 241.368552 
L 247.637686 249.557754 
L 250.917025 243.87901 
L 254.196364 247.711974 
L 257.475702 242.246249 
L 260.755041 242.355703 
L 264.03438 243.700422 
L 267.313719 248.502475 
L 270.593058 242.385919 
L 273.872397 248.944996 
L 277.151736 257.372008 
L 280.431074 245.926904 
L 283.710413 251.825715 
L 286.989752 252.172895 
L 290.269091 251.81521 
L 293.54843 247.295565 
L 296.827769 252.844988 
L 300.107107 251.422236 
L 303.386446 260.799944 
L 306.665785 251.456313 
L 309.945124 253.910894 
L 313.224463 257.11863 
L 316.503802 256.916506 
L 319.78314 265.191714 
L 323.062479 255.227295 
L 326.341818 257.626555 
L 329.621157 257.75528 
L 332.900496 260.22954 
L 336.179835 259.91952 
L 339.459174 261.820834 
L 342.738512 265.508183 
L 346.017851 268.523127 
L 349.29719 265.78487 
L 352.576529 262.471891 
L 355.855868 268.794464 
L 359.135207 268.688187 
L 362.414545 271.963431 
L 365.693884 274.151103 
L 368.973223 274.527441 
L 372.252562 274.908052 
L 375.531901 280.143412 
L 378.81124 274.375875 
L 382.090579 276.482896 
L 385.369917 274.509143 
L 388.649256 281.182483 
L 391.928595 282.190498 
L 395.207934 287.422212 
L 398.487273 295.488 
L 398.487273 242.55873 
L 398.487273 242.55873 
L 395.207934 232.994428 
L 391.928595 235.496321 
L 388.649256 224.675115 
L 385.369917 227.708694 
L 382.090579 223.118864 
L 378.81124 225.453369 
L 375.531901 218.434664 
L 372.252562 217.869157 
L 368.973223 220.18339 
L 365.693884 217.261195 
L 362.414545 219.448867 
L 359.135207 215.217106 
L 355.855868 213.973403 
L 352.576529 216.314988 
L 349.29719 217.779195 
L 346.017851 209.69504 
L 342.738512 207.591571 
L 339.459174 209.231554 
L 336.179835 201.692239 
L 332.900496 210.367878 
L 329.621157 200.557947 
L 326.341818 206.032569 
L 323.062479 201.721021 
L 319.78314 209.72792 
L 316.503802 211.178577 
L 313.224463 200.057171 
L 309.945124 200.990057 
L 306.665785 201.624758 
L 303.386446 204.451576 
L 300.107107 197.564104 
L 296.827769 197.165035 
L 293.54843 197.36856 
L 290.269091 198.194812 
L 286.989752 197.95087 
L 283.710413 194.999517 
L 280.431074 196.91734 
L 277.151736 200.713734 
L 273.872397 192.648081 
L 270.593058 188.742846 
L 267.313719 193.773056 
L 264.03438 192.546757 
L 260.755041 188.20435 
L 257.475702 190.816139 
L 254.196364 195.58724 
L 250.917025 194.870503 
L 247.637686 193.741461 
L 244.358347 188.395303 
L 241.079008 190.047137 
L 237.799669 190.935112 
L 234.520331 191.947149 
L 231.240992 195.921631 
L 227.961653 188.053174 
L 224.682314 181.470433 
L 221.402975 185.591085 
L 218.123636 193.601662 
L 214.844298 186.5604 
L 211.564959 186.318587 
L 208.28562 189.302228 
L 205.006281 184.261108 
L 201.726942 188.729049 
L 198.447603 181.345277 
L 195.168264 182.832981 
L 191.888926 183.880521 
L 188.609587 186.369562 
L 185.330248 189.170598 
L 182.050909 180.73762 
L 178.77157 182.400059 
L 175.492231 189.280599 
L 172.212893 179.026846 
L 168.933554 184.657793 
L 165.654215 180.187363 
L 162.374876 182.553847 
L 159.095537 186.050163 
L 155.816198 187.678913 
L 152.53686 186.542702 
L 149.257521 187.798043 
L 145.978182 183.506404 
L 142.698843 180.421646 
L 139.419504 188.597594 
L 136.140165 184.913061 
L 132.860826 183.0522 
L 129.581488 190.32584 
L 126.302149 183.812227 
L 123.02281 188.484701 
L 119.743471 186.330633 
L 116.464132 189.33691 
L 113.184793 187.347679 
L 109.905455 187.164325 
L 106.626116 183.931748 
L 103.346777 186.530885 
L 100.067438 184.503802 
L 96.788099 188.331832 
L 93.50876 183.341095 
L 90.229421 188.38183 
L 86.950083 191.426935 
L 83.670744 193.616942 
L 80.391405 194.257084 
L 77.112066 207.219566 
L 73.832727 216.929293 
z
" style="fill:#d62728;fill-opacity:0.2;"/>
   </g>
   <g id="matplotlib.axis_1">
    <g id="xtick_1">
     <g id="line2d_1">
      <defs>
       <path d="M 0 0 
L 0 3.5 
" id="m38a90cb5eb" style="stroke:#000000;stroke-width:0.8;"/>
      </defs>
      <g>
       <use style="stroke:#000000;stroke-width:0.8;" x="401.766612" xlink:href="#m38a90cb5eb" y="307.584"/>
      </g>
     </g>
     <g id="text_1">
      <!-- 0 -->
      <g transform="translate(398.585362 322.182437)scale(0.1 -0.1)">
       <defs>
        <path d="M 31.78125 66.40625 
Q 24.171875 66.40625 20.328125 58.90625 
Q 16.5 51.421875 16.5 36.375 
Q 16.5 21.390625 20.328125 13.890625 
Q 24.171875 6.390625 31.78125 6.390625 
Q 39.453125 6.390625 43.28125 13.890625 
Q 47.125 21.390625 47.125 36.375 
Q 47.125 51.421875 43.28125 58.90625 
Q 39.453125 66.40625 31.78125 66.40625 
z
M 31.78125 74.21875 
Q 44.046875 74.21875 50.515625 64.515625 
Q 56.984375 54.828125 56.984375 36.375 
Q 56.984375 17.96875 50.515625 8.265625 
Q 44.046875 -1.421875 31.78125 -1.421875 
Q 19.53125 -1.421875 13.0625 8.265625 
Q 6.59375 17.96875 6.59375 36.375 
Q 6.59375 54.828125 13.0625 64.515625 
Q 19.53125 74.21875 31.78125 74.21875 
z
" id="DejaVuSans-48"/>
       </defs>
       <use xlink:href="#DejaVuSans-48"/>
      </g>
     </g>
    </g>
    <g id="xtick_2">
     <g id="line2d_2">
      <g>
       <use style="stroke:#000000;stroke-width:0.8;" x="336.179835" xlink:href="#m38a90cb5eb" y="307.584"/>
      </g>
     </g>
     <g id="text_2">
      <!-- 20 -->
      <g transform="translate(329.817335 322.182437)scale(0.1 -0.1)">
       <defs>
        <path d="M 19.1875 8.296875 
L 53.609375 8.296875 
L 53.609375 0 
L 7.328125 0 
L 7.328125 8.296875 
Q 12.9375 14.109375 22.625 23.890625 
Q 32.328125 33.6875 34.8125 36.53125 
Q 39.546875 41.84375 41.421875 45.53125 
Q 43.3125 49.21875 43.3125 52.78125 
Q 43.3125 58.59375 39.234375 62.25 
Q 35.15625 65.921875 28.609375 65.921875 
Q 23.96875 65.921875 18.8125 64.3125 
Q 13.671875 62.703125 7.8125 59.421875 
L 7.8125 69.390625 
Q 13.765625 71.78125 18.9375 73 
Q 24.125 74.21875 28.421875 74.21875 
Q 39.75 74.21875 46.484375 68.546875 
Q 53.21875 62.890625 53.21875 53.421875 
Q 53.21875 48.921875 51.53125 44.890625 
Q 49.859375 40.875 45.40625 35.40625 
Q 44.1875 33.984375 37.640625 27.21875 
Q 31.109375 20.453125 19.1875 8.296875 
z
" id="DejaVuSans-50"/>
       </defs>
       <use xlink:href="#DejaVuSans-50"/>
       <use x="63.623047" xlink:href="#DejaVuSans-48"/>
      </g>
     </g>
    </g>
    <g id="xtick_3">
     <g id="line2d_3">
      <g>
       <use style="stroke:#000000;stroke-width:0.8;" x="270.593058" xlink:href="#m38a90cb5eb" y="307.584"/>
      </g>
     </g>
     <g id="text_3">
      <!-- 40 -->
      <g transform="translate(264.230558 322.182437)scale(0.1 -0.1)">
       <defs>
        <path d="M 37.796875 64.3125 
L 12.890625 25.390625 
L 37.796875 25.390625 
z
M 35.203125 72.90625 
L 47.609375 72.90625 
L 47.609375 25.390625 
L 58.015625 25.390625 
L 58.015625 17.1875 
L 47.609375 17.1875 
L 47.609375 0 
L 37.796875 0 
L 37.796875 17.1875 
L 4.890625 17.1875 
L 4.890625 26.703125 
z
" id="DejaVuSans-52"/>
       </defs>
       <use xlink:href="#DejaVuSans-52"/>
       <use x="63.623047" xlink:href="#DejaVuSans-48"/>
      </g>
     </g>
    </g>
    <g id="xtick_4">
     <g id="line2d_4">
      <g>
       <use style="stroke:#000000;stroke-width:0.8;" x="205.006281" xlink:href="#m38a90cb5eb" y="307.584"/>
      </g>
     </g>
     <g id="text_4">
      <!-- 60 -->
      <g transform="translate(198.643781 322.182437)scale(0.1 -0.1)">
       <defs>
        <path d="M 33.015625 40.375 
Q 26.375 40.375 22.484375 35.828125 
Q 18.609375 31.296875 18.609375 23.390625 
Q 18.609375 15.53125 22.484375 10.953125 
Q 26.375 6.390625 33.015625 6.390625 
Q 39.65625 6.390625 43.53125 10.953125 
Q 47.40625 15.53125 47.40625 23.390625 
Q 47.40625 31.296875 43.53125 35.828125 
Q 39.65625 40.375 33.015625 40.375 
z
M 52.59375 71.296875 
L 52.59375 62.3125 
Q 48.875 64.0625 45.09375 64.984375 
Q 41.3125 65.921875 37.59375 65.921875 
Q 27.828125 65.921875 22.671875 59.328125 
Q 17.53125 52.734375 16.796875 39.40625 
Q 19.671875 43.65625 24.015625 45.921875 
Q 28.375 48.1875 33.59375 48.1875 
Q 44.578125 48.1875 50.953125 41.515625 
Q 57.328125 34.859375 57.328125 23.390625 
Q 57.328125 12.15625 50.6875 5.359375 
Q 44.046875 -1.421875 33.015625 -1.421875 
Q 20.359375 -1.421875 13.671875 8.265625 
Q 6.984375 17.96875 6.984375 36.375 
Q 6.984375 53.65625 15.1875 63.9375 
Q 23.390625 74.21875 37.203125 74.21875 
Q 40.921875 74.21875 44.703125 73.484375 
Q 48.484375 72.75 52.59375 71.296875 
z
" id="DejaVuSans-54"/>
       </defs>
       <use xlink:href="#DejaVuSans-54"/>
       <use x="63.623047" xlink:href="#DejaVuSans-48"/>
      </g>
     </g>
    </g>
    <g id="xtick_5">
     <g id="line2d_5">
      <g>
       <use style="stroke:#000000;stroke-width:0.8;" x="139.419504" xlink:href="#m38a90cb5eb" y="307.584"/>
      </g>
     </g>
     <g id="text_5">
      <!-- 80 -->
      <g transform="translate(133.057004 322.182437)scale(0.1 -0.1)">
       <defs>
        <path d="M 31.78125 34.625 
Q 24.75 34.625 20.71875 30.859375 
Q 16.703125 27.09375 16.703125 20.515625 
Q 16.703125 13.921875 20.71875 10.15625 
Q 24.75 6.390625 31.78125 6.390625 
Q 38.8125 6.390625 42.859375 10.171875 
Q 46.921875 13.96875 46.921875 20.515625 
Q 46.921875 27.09375 42.890625 30.859375 
Q 38.875 34.625 31.78125 34.625 
z
M 21.921875 38.8125 
Q 15.578125 40.375 12.03125 44.71875 
Q 8.5 49.078125 8.5 55.328125 
Q 8.5 64.0625 14.71875 69.140625 
Q 20.953125 74.21875 31.78125 74.21875 
Q 42.671875 74.21875 48.875 69.140625 
Q 55.078125 64.0625 55.078125 55.328125 
Q 55.078125 49.078125 51.53125 44.71875 
Q 48 40.375 41.703125 38.8125 
Q 48.828125 37.15625 52.796875 32.3125 
Q 56.78125 27.484375 56.78125 20.515625 
Q 56.78125 9.90625 50.3125 4.234375 
Q 43.84375 -1.421875 31.78125 -1.421875 
Q 19.734375 -1.421875 13.25 4.234375 
Q 6.78125 9.90625 6.78125 20.515625 
Q 6.78125 27.484375 10.78125 32.3125 
Q 14.796875 37.15625 21.921875 38.8125 
z
M 18.3125 54.390625 
Q 18.3125 48.734375 21.84375 45.5625 
Q 25.390625 42.390625 31.78125 42.390625 
Q 38.140625 42.390625 41.71875 45.5625 
Q 45.3125 48.734375 45.3125 54.390625 
Q 45.3125 60.0625 41.71875 63.234375 
Q 38.140625 66.40625 31.78125 66.40625 
Q 25.390625 66.40625 21.84375 63.234375 
Q 18.3125 60.0625 18.3125 54.390625 
z
" id="DejaVuSans-56"/>
       </defs>
       <use xlink:href="#DejaVuSans-56"/>
       <use x="63.623047" xlink:href="#DejaVuSans-48"/>
      </g>
     </g>
    </g>
    <g id="xtick_6">
     <g id="line2d_6">
      <g>
       <use style="stroke:#000000;stroke-width:0.8;" x="73.832727" xlink:href="#m38a90cb5eb" y="307.584"/>
      </g>
     </g>
     <g id="text_6">
      <!-- 100 -->
      <g transform="translate(64.288977 322.182437)scale(0.1 -0.1)">
       <defs>
        <path d="M 12.40625 8.296875 
L 28.515625 8.296875 
L 28.515625 63.921875 
L 10.984375 60.40625 
L 10.984375 69.390625 
L 28.421875 72.90625 
L 38.28125 72.90625 
L 38.28125 8.296875 
L 54.390625 8.296875 
L 54.390625 0 
L 12.40625 0 
z
" id="DejaVuSans-49"/>
       </defs>
       <use xlink:href="#DejaVuSans-49"/>
       <use x="63.623047" xlink:href="#DejaVuSans-48"/>
       <use x="127.246094" xlink:href="#DejaVuSans-48"/>
      </g>
     </g>
    </g>
    <g id="text_7">
     <!-- Number of features -->
     <g transform="translate(187.4225 335.860562)scale(0.1 -0.1)">
      <defs>
       <path d="M 9.8125 72.90625 
L 23.09375 72.90625 
L 55.421875 11.921875 
L 55.421875 72.90625 
L 64.984375 72.90625 
L 64.984375 0 
L 51.703125 0 
L 19.390625 60.984375 
L 19.390625 0 
L 9.8125 0 
z
" id="DejaVuSans-78"/>
       <path d="M 8.5 21.578125 
L 8.5 54.6875 
L 17.484375 54.6875 
L 17.484375 21.921875 
Q 17.484375 14.15625 20.5 10.265625 
Q 23.53125 6.390625 29.59375 6.390625 
Q 36.859375 6.390625 41.078125 11.03125 
Q 45.3125 15.671875 45.3125 23.6875 
L 45.3125 54.6875 
L 54.296875 54.6875 
L 54.296875 0 
L 45.3125 0 
L 45.3125 8.40625 
Q 42.046875 3.421875 37.71875 1 
Q 33.40625 -1.421875 27.6875 -1.421875 
Q 18.265625 -1.421875 13.375 4.4375 
Q 8.5 10.296875 8.5 21.578125 
z
M 31.109375 56 
z
" id="DejaVuSans-117"/>
       <path d="M 52 44.1875 
Q 55.375 50.25 60.0625 53.125 
Q 64.75 56 71.09375 56 
Q 79.640625 56 84.28125 50.015625 
Q 88.921875 44.046875 88.921875 33.015625 
L 88.921875 0 
L 79.890625 0 
L 79.890625 32.71875 
Q 79.890625 40.578125 77.09375 44.375 
Q 74.3125 48.1875 68.609375 48.1875 
Q 61.625 48.1875 57.5625 43.546875 
Q 53.515625 38.921875 53.515625 30.90625 
L 53.515625 0 
L 44.484375 0 
L 44.484375 32.71875 
Q 44.484375 40.625 41.703125 44.40625 
Q 38.921875 48.1875 33.109375 48.1875 
Q 26.21875 48.1875 22.15625 43.53125 
Q 18.109375 38.875 18.109375 30.90625 
L 18.109375 0 
L 9.078125 0 
L 9.078125 54.6875 
L 18.109375 54.6875 
L 18.109375 46.1875 
Q 21.1875 51.21875 25.484375 53.609375 
Q 29.78125 56 35.6875 56 
Q 41.65625 56 45.828125 52.96875 
Q 50 49.953125 52 44.1875 
z
" id="DejaVuSans-109"/>
       <path d="M 48.6875 27.296875 
Q 48.6875 37.203125 44.609375 42.84375 
Q 40.53125 48.484375 33.40625 48.484375 
Q 26.265625 48.484375 22.1875 42.84375 
Q 18.109375 37.203125 18.109375 27.296875 
Q 18.109375 17.390625 22.1875 11.75 
Q 26.265625 6.109375 33.40625 6.109375 
Q 40.53125 6.109375 44.609375 11.75 
Q 48.6875 17.390625 48.6875 27.296875 
z
M 18.109375 46.390625 
Q 20.953125 51.265625 25.265625 53.625 
Q 29.59375 56 35.59375 56 
Q 45.5625 56 51.78125 48.09375 
Q 58.015625 40.1875 58.015625 27.296875 
Q 58.015625 14.40625 51.78125 6.484375 
Q 45.5625 -1.421875 35.59375 -1.421875 
Q 29.59375 -1.421875 25.265625 0.953125 
Q 20.953125 3.328125 18.109375 8.203125 
L 18.109375 0 
L 9.078125 0 
L 9.078125 75.984375 
L 18.109375 75.984375 
z
" id="DejaVuSans-98"/>
       <path d="M 56.203125 29.59375 
L 56.203125 25.203125 
L 14.890625 25.203125 
Q 15.484375 15.921875 20.484375 11.0625 
Q 25.484375 6.203125 34.421875 6.203125 
Q 39.59375 6.203125 44.453125 7.46875 
Q 49.3125 8.734375 54.109375 11.28125 
L 54.109375 2.78125 
Q 49.265625 0.734375 44.1875 -0.34375 
Q 39.109375 -1.421875 33.890625 -1.421875 
Q 20.796875 -1.421875 13.15625 6.1875 
Q 5.515625 13.8125 5.515625 26.8125 
Q 5.515625 40.234375 12.765625 48.109375 
Q 20.015625 56 32.328125 56 
Q 43.359375 56 49.78125 48.890625 
Q 56.203125 41.796875 56.203125 29.59375 
z
M 47.21875 32.234375 
Q 47.125 39.59375 43.09375 43.984375 
Q 39.0625 48.390625 32.421875 48.390625 
Q 24.90625 48.390625 20.390625 44.140625 
Q 15.875 39.890625 15.1875 32.171875 
z
" id="DejaVuSans-101"/>
       <path d="M 41.109375 46.296875 
Q 39.59375 47.171875 37.8125 47.578125 
Q 36.03125 48 33.890625 48 
Q 26.265625 48 22.1875 43.046875 
Q 18.109375 38.09375 18.109375 28.8125 
L 18.109375 0 
L 9.078125 0 
L 9.078125 54.6875 
L 18.109375 54.6875 
L 18.109375 46.1875 
Q 20.953125 51.171875 25.484375 53.578125 
Q 30.03125 56 36.53125 56 
Q 37.453125 56 38.578125 55.875 
Q 39.703125 55.765625 41.0625 55.515625 
z
" id="DejaVuSans-114"/>
       <path id="DejaVuSans-32"/>
       <path d="M 30.609375 48.390625 
Q 23.390625 48.390625 19.1875 42.75 
Q 14.984375 37.109375 14.984375 27.296875 
Q 14.984375 17.484375 19.15625 11.84375 
Q 23.34375 6.203125 30.609375 6.203125 
Q 37.796875 6.203125 41.984375 11.859375 
Q 46.1875 17.53125 46.1875 27.296875 
Q 46.1875 37.015625 41.984375 42.703125 
Q 37.796875 48.390625 30.609375 48.390625 
z
M 30.609375 56 
Q 42.328125 56 49.015625 48.375 
Q 55.71875 40.765625 55.71875 27.296875 
Q 55.71875 13.875 49.015625 6.21875 
Q 42.328125 -1.421875 30.609375 -1.421875 
Q 18.84375 -1.421875 12.171875 6.21875 
Q 5.515625 13.875 5.515625 27.296875 
Q 5.515625 40.765625 12.171875 48.375 
Q 18.84375 56 30.609375 56 
z
" id="DejaVuSans-111"/>
       <path d="M 37.109375 75.984375 
L 37.109375 68.5 
L 28.515625 68.5 
Q 23.6875 68.5 21.796875 66.546875 
Q 19.921875 64.59375 19.921875 59.515625 
L 19.921875 54.6875 
L 34.71875 54.6875 
L 34.71875 47.703125 
L 19.921875 47.703125 
L 19.921875 0 
L 10.890625 0 
L 10.890625 47.703125 
L 2.296875 47.703125 
L 2.296875 54.6875 
L 10.890625 54.6875 
L 10.890625 58.5 
Q 10.890625 67.625 15.140625 71.796875 
Q 19.390625 75.984375 28.609375 75.984375 
z
" id="DejaVuSans-102"/>
       <path d="M 34.28125 27.484375 
Q 23.390625 27.484375 19.1875 25 
Q 14.984375 22.515625 14.984375 16.5 
Q 14.984375 11.71875 18.140625 8.90625 
Q 21.296875 6.109375 26.703125 6.109375 
Q 34.1875 6.109375 38.703125 11.40625 
Q 43.21875 16.703125 43.21875 25.484375 
L 43.21875 27.484375 
z
M 52.203125 31.203125 
L 52.203125 0 
L 43.21875 0 
L 43.21875 8.296875 
Q 40.140625 3.328125 35.546875 0.953125 
Q 30.953125 -1.421875 24.3125 -1.421875 
Q 15.921875 -1.421875 10.953125 3.296875 
Q 6 8.015625 6 15.921875 
Q 6 25.140625 12.171875 29.828125 
Q 18.359375 34.515625 30.609375 34.515625 
L 43.21875 34.515625 
L 43.21875 35.40625 
Q 43.21875 41.609375 39.140625 45 
Q 35.0625 48.390625 27.6875 48.390625 
Q 23 48.390625 18.546875 47.265625 
Q 14.109375 46.140625 10.015625 43.890625 
L 10.015625 52.203125 
Q 14.9375 54.109375 19.578125 55.046875 
Q 24.21875 56 28.609375 56 
Q 40.484375 56 46.34375 49.84375 
Q 52.203125 43.703125 52.203125 31.203125 
z
" id="DejaVuSans-97"/>
       <path d="M 18.3125 70.21875 
L 18.3125 54.6875 
L 36.8125 54.6875 
L 36.8125 47.703125 
L 18.3125 47.703125 
L 18.3125 18.015625 
Q 18.3125 11.328125 20.140625 9.421875 
Q 21.96875 7.515625 27.59375 7.515625 
L 36.8125 7.515625 
L 36.8125 0 
L 27.59375 0 
Q 17.1875 0 13.234375 3.875 
Q 9.28125 7.765625 9.28125 18.015625 
L 9.28125 47.703125 
L 2.6875 47.703125 
L 2.6875 54.6875 
L 9.28125 54.6875 
L 9.28125 70.21875 
z
" id="DejaVuSans-116"/>
       <path d="M 44.28125 53.078125 
L 44.28125 44.578125 
Q 40.484375 46.53125 36.375 47.5 
Q 32.28125 48.484375 27.875 48.484375 
Q 21.1875 48.484375 17.84375 46.4375 
Q 14.5 44.390625 14.5 40.28125 
Q 14.5 37.15625 16.890625 35.375 
Q 19.28125 33.59375 26.515625 31.984375 
L 29.59375 31.296875 
Q 39.15625 29.25 43.1875 25.515625 
Q 47.21875 21.78125 47.21875 15.09375 
Q 47.21875 7.46875 41.1875 3.015625 
Q 35.15625 -1.421875 24.609375 -1.421875 
Q 20.21875 -1.421875 15.453125 -0.5625 
Q 10.6875 0.296875 5.421875 2 
L 5.421875 11.28125 
Q 10.40625 8.6875 15.234375 7.390625 
Q 20.0625 6.109375 24.8125 6.109375 
Q 31.15625 6.109375 34.5625 8.28125 
Q 37.984375 10.453125 37.984375 14.40625 
Q 37.984375 18.0625 35.515625 20.015625 
Q 33.0625 21.96875 24.703125 23.78125 
L 21.578125 24.515625 
Q 13.234375 26.265625 9.515625 29.90625 
Q 5.8125 33.546875 5.8125 39.890625 
Q 5.8125 47.609375 11.28125 51.796875 
Q 16.75 56 26.8125 56 
Q 31.78125 56 36.171875 55.265625 
Q 40.578125 54.546875 44.28125 53.078125 
z
" id="DejaVuSans-115"/>
      </defs>
      <use xlink:href="#DejaVuSans-78"/>
      <use x="74.804688" xlink:href="#DejaVuSans-117"/>
      <use x="138.183594" xlink:href="#DejaVuSans-109"/>
      <use x="235.595703" xlink:href="#DejaVuSans-98"/>
      <use x="299.072266" xlink:href="#DejaVuSans-101"/>
      <use x="360.595703" xlink:href="#DejaVuSans-114"/>
      <use x="401.708984" xlink:href="#DejaVuSans-32"/>
      <use x="433.496094" xlink:href="#DejaVuSans-111"/>
      <use x="494.677734" xlink:href="#DejaVuSans-102"/>
      <use x="529.882812" xlink:href="#DejaVuSans-32"/>
      <use x="561.669922" xlink:href="#DejaVuSans-102"/>
      <use x="596.875" xlink:href="#DejaVuSans-101"/>
      <use x="658.398438" xlink:href="#DejaVuSans-97"/>
      <use x="719.677734" xlink:href="#DejaVuSans-116"/>
      <use x="758.886719" xlink:href="#DejaVuSans-117"/>
      <use x="822.265625" xlink:href="#DejaVuSans-114"/>
      <use x="861.128906" xlink:href="#DejaVuSans-101"/>
      <use x="922.652344" xlink:href="#DejaVuSans-115"/>
     </g>
    </g>
   </g>
   <g id="matplotlib.axis_2">
    <g id="ytick_1">
     <g id="line2d_7">
      <defs>
       <path d="M 0 0 
L -3.5 0 
" id="m24e9f00864" style="stroke:#000000;stroke-width:0.8;"/>
      </defs>
      <g>
       <use style="stroke:#000000;stroke-width:0.8;" x="57.6" xlink:href="#m24e9f00864" y="273.800551"/>
      </g>
     </g>
     <g id="text_8">
      <!-- 0.5 -->
      <g transform="translate(34.696875 277.599769)scale(0.1 -0.1)">
       <defs>
        <path d="M 10.6875 12.40625 
L 21 12.40625 
L 21 0 
L 10.6875 0 
z
" id="DejaVuSans-46"/>
        <path d="M 10.796875 72.90625 
L 49.515625 72.90625 
L 49.515625 64.59375 
L 19.828125 64.59375 
L 19.828125 46.734375 
Q 21.96875 47.46875 24.109375 47.828125 
Q 26.265625 48.1875 28.421875 48.1875 
Q 40.625 48.1875 47.75 41.5 
Q 54.890625 34.8125 54.890625 23.390625 
Q 54.890625 11.625 47.5625 5.09375 
Q 40.234375 -1.421875 26.90625 -1.421875 
Q 22.3125 -1.421875 17.546875 -0.640625 
Q 12.796875 0.140625 7.71875 1.703125 
L 7.71875 11.625 
Q 12.109375 9.234375 16.796875 8.0625 
Q 21.484375 6.890625 26.703125 6.890625 
Q 35.15625 6.890625 40.078125 11.328125 
Q 45.015625 15.765625 45.015625 23.390625 
Q 45.015625 31 40.078125 35.4375 
Q 35.15625 39.890625 26.703125 39.890625 
Q 22.75 39.890625 18.8125 39.015625 
Q 14.890625 38.140625 10.796875 36.28125 
z
" id="DejaVuSans-53"/>
       </defs>
       <use xlink:href="#DejaVuSans-48"/>
       <use x="63.623047" xlink:href="#DejaVuSans-46"/>
       <use x="95.410156" xlink:href="#DejaVuSans-53"/>
      </g>
     </g>
    </g>
    <g id="ytick_2">
     <g id="line2d_8">
      <g>
       <use style="stroke:#000000;stroke-width:0.8;" x="57.6" xlink:href="#m24e9f00864" y="216.929293"/>
      </g>
     </g>
     <g id="text_9">
      <!-- 0.6 -->
      <g transform="translate(34.696875 220.728511)scale(0.1 -0.1)">
       <use xlink:href="#DejaVuSans-48"/>
       <use x="63.623047" xlink:href="#DejaVuSans-46"/>
       <use x="95.410156" xlink:href="#DejaVuSans-54"/>
      </g>
     </g>
    </g>
    <g id="ytick_3">
     <g id="line2d_9">
      <g>
       <use style="stroke:#000000;stroke-width:0.8;" x="57.6" xlink:href="#m24e9f00864" y="160.058035"/>
      </g>
     </g>
     <g id="text_10">
      <!-- 0.7 -->
      <g transform="translate(34.696875 163.857254)scale(0.1 -0.1)">
       <defs>
        <path d="M 8.203125 72.90625 
L 55.078125 72.90625 
L 55.078125 68.703125 
L 28.609375 0 
L 18.3125 0 
L 43.21875 64.59375 
L 8.203125 64.59375 
z
" id="DejaVuSans-55"/>
       </defs>
       <use xlink:href="#DejaVuSans-48"/>
       <use x="63.623047" xlink:href="#DejaVuSans-46"/>
       <use x="95.410156" xlink:href="#DejaVuSans-55"/>
      </g>
     </g>
    </g>
    <g id="ytick_4">
     <g id="line2d_10">
      <g>
       <use style="stroke:#000000;stroke-width:0.8;" x="57.6" xlink:href="#m24e9f00864" y="103.186777"/>
      </g>
     </g>
     <g id="text_11">
      <!-- 0.8 -->
      <g transform="translate(34.696875 106.985996)scale(0.1 -0.1)">
       <use xlink:href="#DejaVuSans-48"/>
       <use x="63.623047" xlink:href="#DejaVuSans-46"/>
       <use x="95.410156" xlink:href="#DejaVuSans-56"/>
      </g>
     </g>
    </g>
    <g id="ytick_5">
     <g id="line2d_11">
      <g>
       <use style="stroke:#000000;stroke-width:0.8;" x="57.6" xlink:href="#m24e9f00864" y="46.315519"/>
      </g>
     </g>
     <g id="text_12">
      <!-- 0.9 -->
      <g transform="translate(34.696875 50.114738)scale(0.1 -0.1)">
       <defs>
        <path d="M 10.984375 1.515625 
L 10.984375 10.5 
Q 14.703125 8.734375 18.5 7.8125 
Q 22.3125 6.890625 25.984375 6.890625 
Q 35.75 6.890625 40.890625 13.453125 
Q 46.046875 20.015625 46.78125 33.40625 
Q 43.953125 29.203125 39.59375 26.953125 
Q 35.25 24.703125 29.984375 24.703125 
Q 19.046875 24.703125 12.671875 31.3125 
Q 6.296875 37.9375 6.296875 49.421875 
Q 6.296875 60.640625 12.9375 67.421875 
Q 19.578125 74.21875 30.609375 74.21875 
Q 43.265625 74.21875 49.921875 64.515625 
Q 56.59375 54.828125 56.59375 36.375 
Q 56.59375 19.140625 48.40625 8.859375 
Q 40.234375 -1.421875 26.421875 -1.421875 
Q 22.703125 -1.421875 18.890625 -0.6875 
Q 15.09375 0.046875 10.984375 1.515625 
z
M 30.609375 32.421875 
Q 37.25 32.421875 41.125 36.953125 
Q 45.015625 41.5 45.015625 49.421875 
Q 45.015625 57.28125 41.125 61.84375 
Q 37.25 66.40625 30.609375 66.40625 
Q 23.96875 66.40625 20.09375 61.84375 
Q 16.21875 57.28125 16.21875 49.421875 
Q 16.21875 41.5 20.09375 36.953125 
Q 23.96875 32.421875 30.609375 32.421875 
z
" id="DejaVuSans-57"/>
       </defs>
       <use xlink:href="#DejaVuSans-48"/>
       <use x="63.623047" xlink:href="#DejaVuSans-46"/>
       <use x="95.410156" xlink:href="#DejaVuSans-57"/>
      </g>
     </g>
    </g>
    <g id="text_13">
     <!-- Accuracy -->
     <g transform="translate(28.617187 197.356125)rotate(-90)scale(0.1 -0.1)">
      <defs>
       <path d="M 34.1875 63.1875 
L 20.796875 26.90625 
L 47.609375 26.90625 
z
M 28.609375 72.90625 
L 39.796875 72.90625 
L 67.578125 0 
L 57.328125 0 
L 50.6875 18.703125 
L 17.828125 18.703125 
L 11.1875 0 
L 0.78125 0 
z
" id="DejaVuSans-65"/>
       <path d="M 48.78125 52.59375 
L 48.78125 44.1875 
Q 44.96875 46.296875 41.140625 47.34375 
Q 37.3125 48.390625 33.40625 48.390625 
Q 24.65625 48.390625 19.8125 42.84375 
Q 14.984375 37.3125 14.984375 27.296875 
Q 14.984375 17.28125 19.8125 11.734375 
Q 24.65625 6.203125 33.40625 6.203125 
Q 37.3125 6.203125 41.140625 7.25 
Q 44.96875 8.296875 48.78125 10.40625 
L 48.78125 2.09375 
Q 45.015625 0.34375 40.984375 -0.53125 
Q 36.96875 -1.421875 32.421875 -1.421875 
Q 20.0625 -1.421875 12.78125 6.34375 
Q 5.515625 14.109375 5.515625 27.296875 
Q 5.515625 40.671875 12.859375 48.328125 
Q 20.21875 56 33.015625 56 
Q 37.15625 56 41.109375 55.140625 
Q 45.0625 54.296875 48.78125 52.59375 
z
" id="DejaVuSans-99"/>
       <path d="M 32.171875 -5.078125 
Q 28.375 -14.84375 24.75 -17.8125 
Q 21.140625 -20.796875 15.09375 -20.796875 
L 7.90625 -20.796875 
L 7.90625 -13.28125 
L 13.1875 -13.28125 
Q 16.890625 -13.28125 18.9375 -11.515625 
Q 21 -9.765625 23.484375 -3.21875 
L 25.09375 0.875 
L 2.984375 54.6875 
L 12.5 54.6875 
L 29.59375 11.921875 
L 46.6875 54.6875 
L 56.203125 54.6875 
z
" id="DejaVuSans-121"/>
      </defs>
      <use xlink:href="#DejaVuSans-65"/>
      <use x="66.658203" xlink:href="#DejaVuSans-99"/>
      <use x="121.638672" xlink:href="#DejaVuSans-99"/>
      <use x="176.619141" xlink:href="#DejaVuSans-117"/>
      <use x="239.998047" xlink:href="#DejaVuSans-114"/>
      <use x="281.111328" xlink:href="#DejaVuSans-97"/>
      <use x="342.390625" xlink:href="#DejaVuSans-99"/>
      <use x="397.371094" xlink:href="#DejaVuSans-121"/>
     </g>
    </g>
   </g>
   <g id="line2d_12">
    <path clip-path="url(#p1495d8b0f0)" d="M 73.832727 194.18079 
L 77.112066 192.417781 
L 80.391405 193.384592 
L 83.670744 192.076553 
L 86.950083 192.360909 
L 90.229421 189.858574 
L 93.50876 190.484158 
L 96.788099 186.105071 
L 100.067438 187.640595 
L 103.346777 189.346733 
L 106.626116 187.015011 
L 109.905455 185.195131 
L 113.184793 189.23299 
L 116.464132 185.991328 
L 119.743471 183.943963 
L 123.02281 184.342062 
L 126.302149 185.422616 
L 129.581488 183.716478 
L 132.860826 184.114577 
L 136.140165 182.920281 
L 139.419504 186.275685 
L 142.698843 186.161942 
L 145.978182 186.218814 
L 149.257521 185.365745 
L 152.53686 184.057706 
L 155.816198 184.057706 
L 159.095537 186.0482 
L 162.374876 183.602736 
L 165.654215 187.015011 
L 168.933554 186.0482 
L 172.212893 185.081388 
L 175.492231 186.844397 
L 178.77157 187.41311 
L 182.050909 189.176119 
L 185.330248 186.389427 
L 188.609587 184.398933 
L 191.888926 190.5979 
L 195.168264 190.029188 
L 198.447603 189.346733 
L 201.726942 190.313544 
L 205.006281 192.133424 
L 208.28562 193.327721 
L 211.564959 194.18079 
L 214.844298 194.18079 
L 218.123636 197.081224 
L 221.402975 194.806373 
L 224.682314 195.033858 
L 227.961653 195.830056 
L 231.240992 193.668948 
L 234.520331 197.36558 
L 237.799669 195.716314 
L 241.079008 202.597736 
L 244.358347 195.659442 
L 247.637686 205.213814 
L 250.917025 202.085894 
L 254.196364 200.493499 
L 257.475702 197.536194 
L 260.755041 201.972152 
L 264.03438 202.483993 
L 267.313719 203.962646 
L 270.593058 205.384427 
L 273.872397 205.49817 
L 277.151736 206.635595 
L 280.431074 210.559712 
L 283.710413 207.31805 
L 286.989752 207.943634 
L 290.269091 207.090565 
L 293.54843 207.829891 
L 296.827769 215.848739 
L 300.107107 219.317886 
L 303.386446 216.417451 
L 306.665785 217.327392 
L 309.945124 218.862915 
L 313.224463 217.384263 
L 316.503802 222.616419 
L 319.78314 218.066718 
L 323.062479 211.867751 
L 326.341818 222.104577 
L 329.621157 220.398439 
L 332.900496 225.232496 
L 336.179835 221.30838 
L 339.459174 229.384098 
L 342.738512 229.099742 
L 346.017851 226.995505 
L 349.29719 235.128095 
L 352.576529 237.175461 
L 355.855868 236.208649 
L 359.135207 237.004847 
L 362.414545 240.075895 
L 365.693884 241.725161 
L 368.973223 246.331733 
L 372.252562 242.009517 
L 375.531901 242.805715 
L 378.81124 245.706149 
L 382.090579 250.028365 
L 385.369917 253.497511 
L 388.649256 255.203649 
L 391.928595 258.615925 
L 395.207934 258.672796 
L 398.487273 261.004518 
" style="fill:none;stroke:#1f77b4;stroke-linecap:square;stroke-width:1.5;"/>
   </g>
   <g id="line2d_13">
    <path clip-path="url(#p1495d8b0f0)" d="M 73.832727 142.996658 
L 77.112066 143.394756 
L 80.391405 146.750161 
L 83.670744 150.617406 
L 86.950083 158.522511 
L 90.229421 167.166942 
L 93.50876 175.583888 
L 96.788099 184.626418 
L 100.067438 196.796867 
L 103.346777 207.147436 
L 106.626116 211.526523 
L 109.905455 222.047706 
L 113.184793 224.94814 
L 116.464132 231.431463 
L 119.743471 235.128095 
L 123.02281 239.052212 
L 126.302149 243.601913 
L 129.581488 247.071059 
L 132.860826 248.720326 
L 136.140165 251.734502 
L 139.419504 250.426464 
L 142.698843 253.724997 
L 145.978182 256.397946 
L 149.257521 255.829233 
L 152.53686 258.672796 
L 155.816198 259.525865 
L 159.095537 259.75335 
L 162.374876 260.947646 
L 165.654215 260.777032 
L 168.933554 260.66329 
L 172.212893 261.57323 
L 175.492231 262.0282 
L 178.77157 261.800715 
L 182.050909 262.198814 
L 185.330248 262.141943 
L 188.609587 262.255685 
L 191.888926 262.312556 
L 195.168264 262.369428 
L 198.447603 262.426299 
L 201.726942 262.369428 
L 205.006281 262.426299 
L 208.28562 262.426299 
L 211.564959 262.426299 
L 214.844298 262.426299 
L 218.123636 262.369428 
L 221.402975 262.369428 
L 224.682314 262.426299 
L 227.961653 262.426299 
L 231.240992 262.426299 
L 234.520331 262.426299 
L 237.799669 262.426299 
L 241.079008 262.426299 
L 244.358347 262.426299 
L 247.637686 262.426299 
L 250.917025 262.426299 
L 254.196364 262.426299 
L 257.475702 262.426299 
L 260.755041 262.426299 
L 264.03438 262.426299 
L 267.313719 262.426299 
L 270.593058 262.426299 
L 273.872397 262.426299 
L 277.151736 262.426299 
L 280.431074 262.426299 
L 283.710413 262.426299 
L 286.989752 262.426299 
L 290.269091 262.426299 
L 293.54843 262.426299 
L 296.827769 262.426299 
L 300.107107 262.426299 
L 303.386446 262.426299 
L 306.665785 262.426299 
L 309.945124 262.426299 
L 313.224463 262.426299 
L 316.503802 262.426299 
L 319.78314 262.426299 
L 323.062479 262.426299 
L 326.341818 262.426299 
L 329.621157 262.426299 
L 332.900496 262.426299 
L 336.179835 262.426299 
L 339.459174 262.426299 
L 342.738512 262.426299 
L 346.017851 262.426299 
L 349.29719 262.426299 
L 352.576529 262.426299 
L 355.855868 262.426299 
L 359.135207 262.426299 
L 362.414545 262.426299 
L 365.693884 262.426299 
L 368.973223 262.426299 
L 372.252562 262.426299 
L 375.531901 262.426299 
L 378.81124 262.426299 
L 382.090579 262.426299 
L 385.369917 262.426299 
L 388.649256 262.426299 
L 391.928595 262.426299 
L 395.207934 262.426299 
L 398.487273 262.426299 
" style="fill:none;stroke:#ff7f0e;stroke-linecap:square;stroke-width:1.5;"/>
   </g>
   <g id="line2d_14">
    <path clip-path="url(#p1495d8b0f0)" d="M 73.832727 63.376894 
L 77.112066 63.149412 
L 80.391405 68.49531 
L 83.670744 71.850714 
L 86.950083 75.262989 
L 90.229421 77.139742 
L 93.50876 81.291342 
L 96.788099 81.632569 
L 100.067438 82.258154 
L 103.346777 86.466628 
L 106.626116 90.788843 
L 109.905455 92.43811 
L 113.184793 93.74615 
L 116.464132 91.92627 
L 119.743471 93.234306 
L 123.02281 94.65609 
L 126.302149 100.798186 
L 129.581488 98.466465 
L 132.860826 100.343214 
L 136.140165 102.845552 
L 139.419504 104.665431 
L 142.698843 105.404759 
L 145.978182 110.238814 
L 149.257521 106.997153 
L 152.53686 109.670102 
L 155.816198 113.139248 
L 159.095537 112.229309 
L 162.374876 115.982811 
L 165.654215 114.731643 
L 168.933554 119.167602 
L 172.212893 119.850056 
L 175.492231 122.750491 
L 178.77157 121.328709 
L 182.050909 120.41877 
L 185.330248 126.503994 
L 188.609587 129.802527 
L 191.888926 127.129577 
L 195.168264 129.802526 
L 198.447603 129.802525 
L 201.726942 133.271672 
L 205.006281 132.475474 
L 208.28562 136.001493 
L 211.564959 138.276343 
L 214.844298 138.731313 
L 218.123636 140.039353 
L 221.402975 141.859232 
L 224.682314 143.394755 
L 227.961653 145.498991 
L 231.240992 145.385251 
L 234.520331 149.650592 
L 237.799669 150.503661 
L 241.079008 153.517839 
L 244.358347 152.949126 
L 247.637686 153.233485 
L 250.917025 153.176612 
L 254.196364 152.096058 
L 257.475702 156.133917 
L 260.755041 159.261835 
L 264.03438 157.498826 
L 267.313719 161.19546 
L 270.593058 162.332884 
L 273.872397 162.67411 
L 277.151736 168.418109 
L 280.431074 166.768843 
L 283.710413 171.375414 
L 286.989752 167.337554 
L 290.269091 173.479651 
L 293.54843 172.740324 
L 296.827769 180.474816 
L 300.107107 177.290026 
L 303.386446 182.067212 
L 306.665785 179.337389 
L 309.945124 180.759172 
L 313.224463 185.252003 
L 316.503802 192.929622 
L 319.78314 191.166613 
L 323.062479 185.650099 
L 326.341818 188.209306 
L 329.621157 191.90594 
L 332.900496 195.830056 
L 336.179835 198.389263 
L 339.459174 202.199634 
L 342.738512 202.597736 
L 346.017851 199.981657 
L 349.29719 211.412783 
L 352.576529 210.161614 
L 355.855868 213.460145 
L 359.135207 211.697137 
L 362.414545 213.232661 
L 365.693884 217.327393 
L 368.973223 224.891271 
L 372.252562 217.554878 
L 375.531901 225.80121 
L 378.81124 228.07606 
L 382.090579 230.919623 
L 385.369917 233.080729 
L 388.649256 239.791539 
L 391.928595 243.090072 
L 395.207934 249.289041 
L 398.487273 254.805553 
" style="fill:none;stroke:#2ca02c;stroke-linecap:square;stroke-width:1.5;"/>
   </g>
   <g id="line2d_15">
    <path clip-path="url(#p1495d8b0f0)" d="M 73.832727 216.929293 
L 77.112066 221.30838 
L 80.391405 211.981493 
L 83.670744 210.900939 
L 86.950083 211.355909 
L 90.229421 205.327556 
L 93.50876 205.0432 
L 96.788099 208.398604 
L 100.067438 204.190131 
L 103.346777 206.180625 
L 106.626116 205.384427 
L 109.905455 210.787197 
L 113.184793 208.512347 
L 116.464132 209.5929 
L 119.743471 209.877257 
L 123.02281 211.583394 
L 126.302149 204.13326 
L 129.581488 210.047871 
L 132.860826 204.929457 
L 136.140165 202.597736 
L 139.419504 212.663948 
L 142.698843 204.019517 
L 145.978182 207.090565 
L 149.257521 209.422287 
L 152.53686 209.308544 
L 155.816198 209.479158 
L 159.095537 209.934128 
L 162.374876 207.716149 
L 165.654215 206.294368 
L 168.933554 208.455475 
L 172.212893 205.839397 
L 175.492231 211.981493 
L 178.77157 208.455475 
L 182.050909 204.758844 
L 185.330248 212.607077 
L 188.609587 211.697137 
L 191.888926 210.218484 
L 195.168264 210.218484 
L 198.447603 210.161613 
L 201.726942 213.289532 
L 205.006281 210.730326 
L 208.28562 212.834562 
L 211.564959 212.72082 
L 214.844298 213.573889 
L 218.123636 216.588065 
L 221.402975 211.981493 
L 224.682314 208.853574 
L 227.961653 213.062047 
L 231.240992 219.204143 
L 234.520331 215.393769 
L 237.799669 216.303709 
L 241.079008 216.076224 
L 244.358347 214.881927 
L 247.637686 221.649607 
L 250.917025 219.374757 
L 254.196364 221.649607 
L 257.475702 216.531194 
L 260.755041 215.280026 
L 264.03438 218.123589 
L 267.313719 221.137766 
L 270.593058 215.564383 
L 273.872397 220.796538 
L 277.151736 229.042871 
L 280.431074 221.422122 
L 283.710413 223.412616 
L 286.989752 225.061883 
L 290.269091 225.005011 
L 293.54843 222.332062 
L 296.827769 225.005011 
L 300.107107 224.49317 
L 303.386446 232.62576 
L 306.665785 226.540535 
L 309.945124 227.450475 
L 313.224463 228.587901 
L 316.503802 234.047541 
L 319.78314 237.459817 
L 323.062479 228.474158 
L 326.341818 231.829562 
L 329.621157 229.156613 
L 332.900496 235.298709 
L 336.179835 230.80588 
L 339.459174 235.526194 
L 342.738512 236.549877 
L 346.017851 239.109083 
L 349.29719 241.782032 
L 352.576529 239.39344 
L 355.855868 241.383934 
L 359.135207 241.952646 
L 362.414545 245.706149 
L 365.693884 245.706149 
L 368.973223 247.355416 
L 372.252562 246.388604 
L 375.531901 249.289038 
L 378.81124 249.914622 
L 382.090579 249.80088 
L 385.369917 251.108919 
L 388.649256 252.928799 
L 391.928595 258.84341 
L 395.207934 260.20832 
L 398.487273 269.023365 
" style="fill:none;stroke:#d62728;stroke-linecap:square;stroke-width:1.5;"/>
   </g>
   <g id="patch_3">
    <path d="M 57.6 307.584 
L 57.6 41.472 
" style="fill:none;stroke:#000000;stroke-linecap:square;stroke-linejoin:miter;stroke-width:0.8;"/>
   </g>
   <g id="patch_4">
    <path d="M 414.72 307.584 
L 414.72 41.472 
" style="fill:none;stroke:#000000;stroke-linecap:square;stroke-linejoin:miter;stroke-width:0.8;"/>
   </g>
   <g id="patch_5">
    <path d="M 57.6 307.584 
L 414.72 307.584 
" style="fill:none;stroke:#000000;stroke-linecap:square;stroke-linejoin:miter;stroke-width:0.8;"/>
   </g>
   <g id="patch_6">
    <path d="M 57.6 41.472 
L 414.72 41.472 
" style="fill:none;stroke:#000000;stroke-linecap:square;stroke-linejoin:miter;stroke-width:0.8;"/>
   </g>
   <g id="text_14">
    <!-- Toy_linear_1000_100 -->
    <g transform="translate(173.59875 35.472)scale(0.12 -0.12)">
     <defs>
      <path d="M -0.296875 72.90625 
L 61.375 72.90625 
L 61.375 64.59375 
L 35.5 64.59375 
L 35.5 0 
L 25.59375 0 
L 25.59375 64.59375 
L -0.296875 64.59375 
z
" id="DejaVuSans-84"/>
      <path d="M 50.984375 -16.609375 
L 50.984375 -23.578125 
L -0.984375 -23.578125 
L -0.984375 -16.609375 
z
" id="DejaVuSans-95"/>
      <path d="M 9.421875 75.984375 
L 18.40625 75.984375 
L 18.40625 0 
L 9.421875 0 
z
" id="DejaVuSans-108"/>
      <path d="M 9.421875 54.6875 
L 18.40625 54.6875 
L 18.40625 0 
L 9.421875 0 
z
M 9.421875 75.984375 
L 18.40625 75.984375 
L 18.40625 64.59375 
L 9.421875 64.59375 
z
" id="DejaVuSans-105"/>
      <path d="M 54.890625 33.015625 
L 54.890625 0 
L 45.90625 0 
L 45.90625 32.71875 
Q 45.90625 40.484375 42.875 44.328125 
Q 39.84375 48.1875 33.796875 48.1875 
Q 26.515625 48.1875 22.3125 43.546875 
Q 18.109375 38.921875 18.109375 30.90625 
L 18.109375 0 
L 9.078125 0 
L 9.078125 54.6875 
L 18.109375 54.6875 
L 18.109375 46.1875 
Q 21.34375 51.125 25.703125 53.5625 
Q 30.078125 56 35.796875 56 
Q 45.21875 56 50.046875 50.171875 
Q 54.890625 44.34375 54.890625 33.015625 
z
" id="DejaVuSans-110"/>
     </defs>
     <use xlink:href="#DejaVuSans-84"/>
     <use x="44.083984" xlink:href="#DejaVuSans-111"/>
     <use x="105.265625" xlink:href="#DejaVuSans-121"/>
     <use x="164.445312" xlink:href="#DejaVuSans-95"/>
     <use x="214.445312" xlink:href="#DejaVuSans-108"/>
     <use x="242.228516" xlink:href="#DejaVuSans-105"/>
     <use x="270.011719" xlink:href="#DejaVuSans-110"/>
     <use x="333.390625" xlink:href="#DejaVuSans-101"/>
     <use x="394.914062" xlink:href="#DejaVuSans-97"/>
     <use x="456.193359" xlink:href="#DejaVuSans-114"/>
     <use x="497.306641" xlink:href="#DejaVuSans-95"/>
     <use x="547.306641" xlink:href="#DejaVuSans-49"/>
     <use x="610.929688" xlink:href="#DejaVuSans-48"/>
     <use x="674.552734" xlink:href="#DejaVuSans-48"/>
     <use x="738.175781" xlink:href="#DejaVuSans-48"/>
     <use x="801.798828" xlink:href="#DejaVuSans-95"/>
     <use x="851.798828" xlink:href="#DejaVuSans-49"/>
     <use x="915.421875" xlink:href="#DejaVuSans-48"/>
     <use x="979.044922" xlink:href="#DejaVuSans-48"/>
    </g>
   </g>
   <g id="legend_1">
    <g id="patch_7">
     <path d="M 211.399687 108.1845 
L 407.72 108.1845 
Q 409.72 108.1845 409.72 106.1845 
L 409.72 48.472 
Q 409.72 46.472 407.72 46.472 
L 211.399687 46.472 
Q 209.399687 46.472 209.399687 48.472 
L 209.399687 106.1845 
Q 209.399687 108.1845 211.399687 108.1845 
z
" style="fill:#ffffff;opacity:0.8;stroke:#cccccc;stroke-linejoin:miter;"/>
    </g>
    <g id="line2d_16">
     <path d="M 213.399687 54.570438 
L 233.399687 54.570438 
" style="fill:none;stroke:#1f77b4;stroke-linecap:square;stroke-width:1.5;"/>
    </g>
    <g id="line2d_17"/>
    <g id="text_15">
     <!-- Random Forest -->
     <g transform="translate(241.399687 58.070438)scale(0.1 -0.1)">
      <defs>
       <path d="M 44.390625 34.1875 
Q 47.5625 33.109375 50.5625 29.59375 
Q 53.5625 26.078125 56.59375 19.921875 
L 66.609375 0 
L 56 0 
L 46.6875 18.703125 
Q 43.0625 26.03125 39.671875 28.421875 
Q 36.28125 30.8125 30.421875 30.8125 
L 19.671875 30.8125 
L 19.671875 0 
L 9.8125 0 
L 9.8125 72.90625 
L 32.078125 72.90625 
Q 44.578125 72.90625 50.734375 67.671875 
Q 56.890625 62.453125 56.890625 51.90625 
Q 56.890625 45.015625 53.6875 40.46875 
Q 50.484375 35.9375 44.390625 34.1875 
z
M 19.671875 64.796875 
L 19.671875 38.921875 
L 32.078125 38.921875 
Q 39.203125 38.921875 42.84375 42.21875 
Q 46.484375 45.515625 46.484375 51.90625 
Q 46.484375 58.296875 42.84375 61.546875 
Q 39.203125 64.796875 32.078125 64.796875 
z
" id="DejaVuSans-82"/>
       <path d="M 45.40625 46.390625 
L 45.40625 75.984375 
L 54.390625 75.984375 
L 54.390625 0 
L 45.40625 0 
L 45.40625 8.203125 
Q 42.578125 3.328125 38.25 0.953125 
Q 33.9375 -1.421875 27.875 -1.421875 
Q 17.96875 -1.421875 11.734375 6.484375 
Q 5.515625 14.40625 5.515625 27.296875 
Q 5.515625 40.1875 11.734375 48.09375 
Q 17.96875 56 27.875 56 
Q 33.9375 56 38.25 53.625 
Q 42.578125 51.265625 45.40625 46.390625 
z
M 14.796875 27.296875 
Q 14.796875 17.390625 18.875 11.75 
Q 22.953125 6.109375 30.078125 6.109375 
Q 37.203125 6.109375 41.296875 11.75 
Q 45.40625 17.390625 45.40625 27.296875 
Q 45.40625 37.203125 41.296875 42.84375 
Q 37.203125 48.484375 30.078125 48.484375 
Q 22.953125 48.484375 18.875 42.84375 
Q 14.796875 37.203125 14.796875 27.296875 
z
" id="DejaVuSans-100"/>
       <path d="M 9.8125 72.90625 
L 51.703125 72.90625 
L 51.703125 64.59375 
L 19.671875 64.59375 
L 19.671875 43.109375 
L 48.578125 43.109375 
L 48.578125 34.8125 
L 19.671875 34.8125 
L 19.671875 0 
L 9.8125 0 
z
" id="DejaVuSans-70"/>
      </defs>
      <use xlink:href="#DejaVuSans-82"/>
      <use x="67.232422" xlink:href="#DejaVuSans-97"/>
      <use x="128.511719" xlink:href="#DejaVuSans-110"/>
      <use x="191.890625" xlink:href="#DejaVuSans-100"/>
      <use x="255.367188" xlink:href="#DejaVuSans-111"/>
      <use x="316.548828" xlink:href="#DejaVuSans-109"/>
      <use x="413.960938" xlink:href="#DejaVuSans-32"/>
      <use x="445.748047" xlink:href="#DejaVuSans-70"/>
      <use x="499.642578" xlink:href="#DejaVuSans-111"/>
      <use x="560.824219" xlink:href="#DejaVuSans-114"/>
      <use x="599.6875" xlink:href="#DejaVuSans-101"/>
      <use x="661.210938" xlink:href="#DejaVuSans-115"/>
      <use x="713.310547" xlink:href="#DejaVuSans-116"/>
     </g>
    </g>
    <g id="line2d_18">
     <path d="M 213.399687 69.248563 
L 233.399687 69.248563 
" style="fill:none;stroke:#ff7f0e;stroke-linecap:square;stroke-width:1.5;"/>
    </g>
    <g id="line2d_19"/>
    <g id="text_16">
     <!-- XGBoost -->
     <g transform="translate(241.399687 72.748563)scale(0.1 -0.1)">
      <defs>
       <path d="M 6.296875 72.90625 
L 16.890625 72.90625 
L 35.015625 45.796875 
L 53.21875 72.90625 
L 63.8125 72.90625 
L 40.375 37.890625 
L 65.375 0 
L 54.78125 0 
L 34.28125 31 
L 13.625 0 
L 2.984375 0 
L 29 38.921875 
z
" id="DejaVuSans-88"/>
       <path d="M 59.515625 10.40625 
L 59.515625 29.984375 
L 43.40625 29.984375 
L 43.40625 38.09375 
L 69.28125 38.09375 
L 69.28125 6.78125 
Q 63.578125 2.734375 56.6875 0.65625 
Q 49.8125 -1.421875 42 -1.421875 
Q 24.90625 -1.421875 15.25 8.5625 
Q 5.609375 18.5625 5.609375 36.375 
Q 5.609375 54.25 15.25 64.234375 
Q 24.90625 74.21875 42 74.21875 
Q 49.125 74.21875 55.546875 72.453125 
Q 61.96875 70.703125 67.390625 67.28125 
L 67.390625 56.78125 
Q 61.921875 61.421875 55.765625 63.765625 
Q 49.609375 66.109375 42.828125 66.109375 
Q 29.4375 66.109375 22.71875 58.640625 
Q 16.015625 51.171875 16.015625 36.375 
Q 16.015625 21.625 22.71875 14.15625 
Q 29.4375 6.6875 42.828125 6.6875 
Q 48.046875 6.6875 52.140625 7.59375 
Q 56.25 8.5 59.515625 10.40625 
z
" id="DejaVuSans-71"/>
       <path d="M 19.671875 34.8125 
L 19.671875 8.109375 
L 35.5 8.109375 
Q 43.453125 8.109375 47.28125 11.40625 
Q 51.125 14.703125 51.125 21.484375 
Q 51.125 28.328125 47.28125 31.5625 
Q 43.453125 34.8125 35.5 34.8125 
z
M 19.671875 64.796875 
L 19.671875 42.828125 
L 34.28125 42.828125 
Q 41.5 42.828125 45.03125 45.53125 
Q 48.578125 48.25 48.578125 53.8125 
Q 48.578125 59.328125 45.03125 62.0625 
Q 41.5 64.796875 34.28125 64.796875 
z
M 9.8125 72.90625 
L 35.015625 72.90625 
Q 46.296875 72.90625 52.390625 68.21875 
Q 58.5 63.53125 58.5 54.890625 
Q 58.5 48.1875 55.375 44.234375 
Q 52.25 40.28125 46.1875 39.3125 
Q 53.46875 37.75 57.5 32.78125 
Q 61.53125 27.828125 61.53125 20.40625 
Q 61.53125 10.640625 54.890625 5.3125 
Q 48.25 0 35.984375 0 
L 9.8125 0 
z
" id="DejaVuSans-66"/>
      </defs>
      <use xlink:href="#DejaVuSans-88"/>
      <use x="68.505859" xlink:href="#DejaVuSans-71"/>
      <use x="145.996094" xlink:href="#DejaVuSans-66"/>
      <use x="214.599609" xlink:href="#DejaVuSans-111"/>
      <use x="275.78125" xlink:href="#DejaVuSans-111"/>
      <use x="336.962891" xlink:href="#DejaVuSans-115"/>
      <use x="389.0625" xlink:href="#DejaVuSans-116"/>
     </g>
    </g>
    <g id="line2d_20">
     <path d="M 213.399687 83.926688 
L 233.399687 83.926688 
" style="fill:none;stroke:#2ca02c;stroke-linecap:square;stroke-width:1.5;"/>
    </g>
    <g id="line2d_21"/>
    <g id="text_17">
     <!-- Neural Network + Regularization -->
     <g transform="translate(241.399687 87.426688)scale(0.1 -0.1)">
      <defs>
       <path d="M 4.203125 54.6875 
L 13.1875 54.6875 
L 24.421875 12.015625 
L 35.59375 54.6875 
L 46.1875 54.6875 
L 57.421875 12.015625 
L 68.609375 54.6875 
L 77.59375 54.6875 
L 63.28125 0 
L 52.6875 0 
L 40.921875 44.828125 
L 29.109375 0 
L 18.5 0 
z
" id="DejaVuSans-119"/>
       <path d="M 9.078125 75.984375 
L 18.109375 75.984375 
L 18.109375 31.109375 
L 44.921875 54.6875 
L 56.390625 54.6875 
L 27.390625 29.109375 
L 57.625 0 
L 45.90625 0 
L 18.109375 26.703125 
L 18.109375 0 
L 9.078125 0 
z
" id="DejaVuSans-107"/>
       <path d="M 46 62.703125 
L 46 35.5 
L 73.1875 35.5 
L 73.1875 27.203125 
L 46 27.203125 
L 46 0 
L 37.796875 0 
L 37.796875 27.203125 
L 10.59375 27.203125 
L 10.59375 35.5 
L 37.796875 35.5 
L 37.796875 62.703125 
z
" id="DejaVuSans-43"/>
       <path d="M 45.40625 27.984375 
Q 45.40625 37.75 41.375 43.109375 
Q 37.359375 48.484375 30.078125 48.484375 
Q 22.859375 48.484375 18.828125 43.109375 
Q 14.796875 37.75 14.796875 27.984375 
Q 14.796875 18.265625 18.828125 12.890625 
Q 22.859375 7.515625 30.078125 7.515625 
Q 37.359375 7.515625 41.375 12.890625 
Q 45.40625 18.265625 45.40625 27.984375 
z
M 54.390625 6.78125 
Q 54.390625 -7.171875 48.1875 -13.984375 
Q 42 -20.796875 29.203125 -20.796875 
Q 24.46875 -20.796875 20.265625 -20.09375 
Q 16.0625 -19.390625 12.109375 -17.921875 
L 12.109375 -9.1875 
Q 16.0625 -11.328125 19.921875 -12.34375 
Q 23.78125 -13.375 27.78125 -13.375 
Q 36.625 -13.375 41.015625 -8.765625 
Q 45.40625 -4.15625 45.40625 5.171875 
L 45.40625 9.625 
Q 42.625 4.78125 38.28125 2.390625 
Q 33.9375 0 27.875 0 
Q 17.828125 0 11.671875 7.65625 
Q 5.515625 15.328125 5.515625 27.984375 
Q 5.515625 40.671875 11.671875 48.328125 
Q 17.828125 56 27.875 56 
Q 33.9375 56 38.28125 53.609375 
Q 42.625 51.21875 45.40625 46.390625 
L 45.40625 54.6875 
L 54.390625 54.6875 
z
" id="DejaVuSans-103"/>
       <path d="M 5.515625 54.6875 
L 48.1875 54.6875 
L 48.1875 46.484375 
L 14.40625 7.171875 
L 48.1875 7.171875 
L 48.1875 0 
L 4.296875 0 
L 4.296875 8.203125 
L 38.09375 47.515625 
L 5.515625 47.515625 
z
" id="DejaVuSans-122"/>
      </defs>
      <use xlink:href="#DejaVuSans-78"/>
      <use x="74.804688" xlink:href="#DejaVuSans-101"/>
      <use x="136.328125" xlink:href="#DejaVuSans-117"/>
      <use x="199.707031" xlink:href="#DejaVuSans-114"/>
      <use x="240.820312" xlink:href="#DejaVuSans-97"/>
      <use x="302.099609" xlink:href="#DejaVuSans-108"/>
      <use x="329.882812" xlink:href="#DejaVuSans-32"/>
      <use x="361.669922" xlink:href="#DejaVuSans-78"/>
      <use x="436.474609" xlink:href="#DejaVuSans-101"/>
      <use x="497.998047" xlink:href="#DejaVuSans-116"/>
      <use x="537.207031" xlink:href="#DejaVuSans-119"/>
      <use x="618.994141" xlink:href="#DejaVuSans-111"/>
      <use x="680.175781" xlink:href="#DejaVuSans-114"/>
      <use x="721.289062" xlink:href="#DejaVuSans-107"/>
      <use x="779.199219" xlink:href="#DejaVuSans-32"/>
      <use x="810.986328" xlink:href="#DejaVuSans-43"/>
      <use x="894.775391" xlink:href="#DejaVuSans-32"/>
      <use x="926.5625" xlink:href="#DejaVuSans-82"/>
      <use x="991.544922" xlink:href="#DejaVuSans-101"/>
      <use x="1053.068359" xlink:href="#DejaVuSans-103"/>
      <use x="1116.544922" xlink:href="#DejaVuSans-117"/>
      <use x="1179.923828" xlink:href="#DejaVuSans-108"/>
      <use x="1207.707031" xlink:href="#DejaVuSans-97"/>
      <use x="1268.986328" xlink:href="#DejaVuSans-114"/>
      <use x="1310.099609" xlink:href="#DejaVuSans-105"/>
      <use x="1337.882812" xlink:href="#DejaVuSans-122"/>
      <use x="1390.373047" xlink:href="#DejaVuSans-97"/>
      <use x="1451.652344" xlink:href="#DejaVuSans-116"/>
      <use x="1490.861328" xlink:href="#DejaVuSans-105"/>
      <use x="1518.644531" xlink:href="#DejaVuSans-111"/>
      <use x="1579.826172" xlink:href="#DejaVuSans-110"/>
     </g>
    </g>
    <g id="line2d_22">
     <path d="M 213.399687 98.604813 
L 233.399687 98.604813 
" style="fill:none;stroke:#d62728;stroke-linecap:square;stroke-width:1.5;"/>
    </g>
    <g id="line2d_23"/>
    <g id="text_18">
     <!-- KNN -->
     <g transform="translate(241.399687 102.104813)scale(0.1 -0.1)">
      <defs>
       <path d="M 9.8125 72.90625 
L 19.671875 72.90625 
L 19.671875 42.09375 
L 52.390625 72.90625 
L 65.09375 72.90625 
L 28.90625 38.921875 
L 67.671875 0 
L 54.6875 0 
L 19.671875 35.109375 
L 19.671875 0 
L 9.8125 0 
z
" id="DejaVuSans-75"/>
      </defs>
      <use xlink:href="#DejaVuSans-75"/>
      <use x="65.576172" xlink:href="#DejaVuSans-78"/>
      <use x="140.380859" xlink:href="#DejaVuSans-78"/>
     </g>
    </g>
   </g>
  </g>
 </g>
 <defs>
  <clipPath id="p1495d8b0f0">
   <rect height="266.112" width="357.12" x="57.6" y="41.472"/>
  </clipPath>
 </defs>
</svg>
