<?xml version="1.0" encoding="utf-8" standalone="no"?>
<!DOCTYPE svg PUBLIC "-//W3C//DTD SVG 1.1//EN"
  "http://www.w3.org/Graphics/SVG/1.1/DTD/svg11.dtd">
<!-- Created with matplotlib (https://matplotlib.org/) -->
<svg height="345.6pt" version="1.1" viewBox="0 0 460.8 345.6" width="460.8pt" xmlns="http://www.w3.org/2000/svg" xmlns:xlink="http://www.w3.org/1999/xlink">
 <metadata>
  <rdf:RDF xmlns:cc="http://creativecommons.org/ns#" xmlns:dc="http://purl.org/dc/elements/1.1/" xmlns:rdf="http://www.w3.org/1999/02/22-rdf-syntax-ns#">
   <cc:Work>
    <dc:type rdf:resource="http://purl.org/dc/dcmitype/StillImage"/>
    <dc:date>2023-09-19T15:42:18.793747</dc:date>
    <dc:format>image/svg+xml</dc:format>
    <dc:creator>
     <cc:Agent>
      <dc:title>Matplotlib v3.3.4, https://matplotlib.org/</dc:title>
     </cc:Agent>
    </dc:creator>
   </cc:Work>
  </rdf:RDF>
 </metadata>
 <defs>
  <style type="text/css">*{stroke-linecap:butt;stroke-linejoin:round;}</style>
 </defs>
 <g id="figure_1">
  <g id="patch_1">
   <path d="M 0 345.6 
L 460.8 345.6 
L 460.8 0 
L 0 0 
z
" style="fill:#ffffff;"/>
  </g>
  <g id="axes_1">
   <g id="patch_2">
    <path d="M 57.6 307.584 
L 414.72 307.584 
L 414.72 41.472 
L 57.6 41.472 
z
" style="fill:#ffffff;"/>
   </g>
   <g id="PolyCollection_1">
    <path clip-path="url(#p905c68f3be)" d="M 73.832727 217.752827 
L 73.832727 217.752827 
L 77.112066 224.441247 
L 80.391405 219.365022 
L 83.670744 213.907483 
L 86.950083 205.121641 
L 90.229421 209.66268 
L 93.50876 208.025914 
L 96.788099 199.051568 
L 100.067438 200.928838 
L 103.346777 202.972762 
L 106.626116 211.33039 
L 109.905455 205.494337 
L 113.184793 203.056016 
L 116.464132 197.624375 
L 119.743471 198.00968 
L 123.02281 204.511536 
L 126.302149 204.313161 
L 129.581488 205.244247 
L 132.860826 204.254358 
L 136.140165 200.027158 
L 139.419504 203.056016 
L 142.698843 203.551322 
L 145.978182 197.899565 
L 149.257521 203.241514 
L 152.53686 210.30061 
L 155.816198 207.726125 
L 159.095537 205.632846 
L 162.374876 205.421437 
L 165.654215 210.445788 
L 168.933554 208.637492 
L 172.212893 208.538764 
L 175.492231 211.245134 
L 178.77157 212.521506 
L 182.050909 223.744123 
L 185.330248 215.183411 
L 188.609587 216.767618 
L 191.888926 216.267315 
L 195.168264 198.402816 
L 198.447603 216.547043 
L 201.726942 223.628034 
L 205.006281 210.725943 
L 208.28562 223.423455 
L 211.564959 214.515744 
L 214.844298 241.991103 
L 218.123636 222.139267 
L 221.402975 233.929056 
L 224.682314 234.373504 
L 227.961653 227.724155 
L 231.240992 221.401069 
L 234.520331 232.266184 
L 237.799669 238.861424 
L 241.079008 239.793138 
L 244.358347 248.26545 
L 247.637686 238.062303 
L 250.917025 246.820412 
L 254.196364 248.26545 
L 257.475702 248.306281 
L 260.755041 250.239507 
L 264.03438 250.239507 
L 267.313719 252.694577 
L 270.593058 245.082384 
L 273.872397 259.692541 
L 277.151736 253.014274 
L 280.431074 256.552772 
L 283.710413 256.542482 
L 286.989752 258.282109 
L 290.269091 256.029343 
L 293.54843 273.5339 
L 296.827769 275.628054 
L 300.107107 255.132856 
L 303.386446 264.240509 
L 306.665785 262.685279 
L 309.945124 268.920911 
L 313.224463 267.52731 
L 316.503802 259.214077 
L 319.78314 270.161803 
L 323.062479 260.539438 
L 326.341818 284.562769 
L 329.621157 269.997851 
L 332.900496 270.553924 
L 336.179835 266.846108 
L 339.459174 271.57923 
L 342.738512 266.639187 
L 346.017851 280.600214 
L 349.29719 274.51248 
L 352.576529 268.260489 
L 355.855868 274.8974 
L 359.135207 268.885005 
L 362.414545 264.174561 
L 365.693884 276.981567 
L 368.973223 275.374194 
L 372.252562 289.12828 
L 375.531901 270.783421 
L 378.81124 271.697623 
L 382.090579 266.328539 
L 385.369917 259.805434 
L 388.649256 254.237773 
L 391.928595 241.374832 
L 395.207934 245.87912 
L 398.487273 235.818657 
L 398.487273 205.538539 
L 398.487273 205.538539 
L 395.207934 200.354361 
L 391.928595 188.279281 
L 388.649256 186.144166 
L 385.369917 190.329074 
L 382.090579 175.028657 
L 378.81124 176.486372 
L 375.531901 166.672748 
L 372.252562 158.080458 
L 368.973223 169.88403 
L 365.693884 155.598317 
L 362.414545 148.900185 
L 359.135207 154.917566 
L 355.855868 143.053631 
L 352.576529 157.492597 
L 349.29719 147.339578 
L 346.017851 142.227101 
L 342.738512 127.905678 
L 339.459174 144.421287 
L 336.179835 138.426583 
L 332.900496 131.792995 
L 329.621157 148.928436 
L 326.341818 137.289289 
L 323.062479 127.178628 
L 319.78314 136.086145 
L 316.503802 129.479246 
L 313.224463 136.770124 
L 309.945124 146.104349 
L 306.665785 127.958558 
L 303.386446 142.982695 
L 300.107107 134.535724 
L 296.827769 143.298233 
L 293.54843 131.73879 
L 290.269091 127.787695 
L 286.989752 109.930819 
L 283.710413 136.051869 
L 280.431074 123.363239 
L 277.151736 127.876994 
L 273.872397 129.976039 
L 270.593058 138.734654 
L 267.313719 119.419378 
L 264.03438 115.047651 
L 260.755041 115.047651 
L 257.475702 121.857161 
L 254.196364 123.848505 
L 250.917025 119.442003 
L 247.637686 121.373313 
L 244.358347 123.848505 
L 241.079008 124.518762 
L 237.799669 118.623678 
L 234.520331 104.738524 
L 231.240992 108.77684 
L 227.961653 120.983635 
L 224.682314 119.21057 
L 221.402975 112.82822 
L 218.123636 114.86544 
L 214.844298 112.568228 
L 211.564959 118.587936 
L 208.28562 118.457537 
L 205.006281 108.72414 
L 201.726942 123.129242 
L 198.447603 113.630866 
L 195.168264 109.344184 
L 191.888926 121.712649 
L 188.609587 121.212346 
L 185.330248 112.068727 
L 182.050909 111.31007 
L 178.77157 113.755375 
L 175.492231 114.05649 
L 172.212893 119.688631 
L 168.933554 114.713619 
L 165.654215 113.880579 
L 162.374876 115.979159 
L 159.095537 114.792494 
L 155.816198 119.526013 
L 152.53686 112.075244 
L 149.257521 118.159082 
L 145.978182 117.649491 
L 142.698843 120.775045 
L 139.419504 126.146636 
L 136.140165 122.348695 
L 132.860826 115.195725 
L 129.581488 121.032634 
L 126.302149 130.741032 
L 123.02281 125.666373 
L 119.743471 126.316688 
L 116.464132 118.899937 
L 113.184793 126.146636 
L 109.905455 117.856773 
L 106.626116 128.600088 
L 103.346777 121.353605 
L 100.067438 127.298557 
L 96.788099 124.299542 
L 93.50876 133.855078 
L 90.229421 143.921394 
L 86.950083 144.561406 
L 83.670744 145.528133 
L 80.391405 163.47676 
L 77.112066 173.029388 
L 73.832727 217.752827 
z
" style="fill:#1f77b4;fill-opacity:0.2;"/>
   </g>
   <g id="PolyCollection_2">
    <path clip-path="url(#p905c68f3be)" d="M 73.832727 168.989982 
L 73.832727 168.989982 
L 77.112066 184.151323 
L 80.391405 185.318685 
L 83.670744 194.63766 
L 86.950083 189.720607 
L 90.229421 203.903689 
L 93.50876 195.728185 
L 96.788099 209.580782 
L 100.067438 215.246907 
L 103.346777 214.080745 
L 106.626116 220.50912 
L 109.905455 221.20353 
L 113.184793 220.042886 
L 116.464132 216.331015 
L 119.743471 224.185673 
L 123.02281 229.342355 
L 126.302149 234.638984 
L 129.581488 233.688134 
L 132.860826 237.619979 
L 136.140165 245.148589 
L 139.419504 241.426637 
L 142.698843 242.998539 
L 145.978182 241.568396 
L 149.257521 244.640209 
L 152.53686 235.314131 
L 155.816198 244.843374 
L 159.095537 246.102939 
L 162.374876 249.111265 
L 165.654215 234.708769 
L 168.933554 238.214461 
L 172.212893 238.765516 
L 175.492231 240.58996 
L 178.77157 238.536031 
L 182.050909 237.527218 
L 185.330248 237.494772 
L 188.609587 229.049349 
L 191.888926 232.396451 
L 195.168264 234.042411 
L 198.447603 238.48073 
L 201.726942 233.923931 
L 205.006281 231.09862 
L 208.28562 232.836331 
L 211.564959 232.914168 
L 214.844298 224.60826 
L 218.123636 225.697083 
L 221.402975 223.604369 
L 224.682314 224.60826 
L 227.961653 226.481254 
L 231.240992 228.157993 
L 234.520331 224.648935 
L 237.799669 222.117041 
L 241.079008 217.752827 
L 244.358347 225.697083 
L 247.637686 223.092298 
L 250.917025 217.752827 
L 254.196364 217.752827 
L 257.475702 217.752827 
L 260.755041 217.752827 
L 264.03438 217.752827 
L 267.313719 217.752827 
L 270.593058 217.752827 
L 273.872397 217.752827 
L 277.151736 217.752827 
L 280.431074 217.752827 
L 283.710413 217.752827 
L 286.989752 217.752827 
L 290.269091 217.752827 
L 293.54843 217.752827 
L 296.827769 222.117041 
L 300.107107 217.752827 
L 303.386446 217.752827 
L 306.665785 217.752827 
L 309.945124 217.752827 
L 313.224463 217.752827 
L 316.503802 217.752827 
L 319.78314 217.752827 
L 323.062479 217.752827 
L 326.341818 217.752827 
L 329.621157 217.752827 
L 332.900496 217.752827 
L 336.179835 217.752827 
L 339.459174 217.752827 
L 342.738512 217.752827 
L 346.017851 217.752827 
L 349.29719 217.752827 
L 352.576529 217.752827 
L 355.855868 217.752827 
L 359.135207 217.752827 
L 362.414545 217.752827 
L 365.693884 217.752827 
L 368.973223 217.752827 
L 372.252562 217.752827 
L 375.531901 217.752827 
L 378.81124 217.752827 
L 382.090579 217.752827 
L 385.369917 217.752827 
L 388.649256 217.752827 
L 391.928595 217.752827 
L 395.207934 217.752827 
L 398.487273 217.752827 
L 398.487273 217.752827 
L 398.487273 217.752827 
L 395.207934 217.752827 
L 391.928595 217.752827 
L 388.649256 217.752827 
L 385.369917 217.752827 
L 382.090579 217.752827 
L 378.81124 217.752827 
L 375.531901 217.752827 
L 372.252562 217.752827 
L 368.973223 217.752827 
L 365.693884 217.752827 
L 362.414545 217.752827 
L 359.135207 217.752827 
L 355.855868 217.752827 
L 352.576529 217.752827 
L 349.29719 217.752827 
L 346.017851 217.752827 
L 342.738512 217.752827 
L 339.459174 217.752827 
L 336.179835 217.752827 
L 332.900496 217.752827 
L 329.621157 217.752827 
L 326.341818 217.752827 
L 323.062479 217.752827 
L 319.78314 217.752827 
L 316.503802 217.752827 
L 313.224463 217.752827 
L 309.945124 217.752827 
L 306.665785 217.752827 
L 303.386446 217.752827 
L 300.107107 217.752827 
L 296.827769 212.413357 
L 293.54843 217.752827 
L 290.269091 217.752827 
L 286.989752 217.752827 
L 283.710413 217.752827 
L 280.431074 217.752827 
L 277.151736 217.752827 
L 273.872397 217.752827 
L 270.593058 217.752827 
L 267.313719 217.752827 
L 264.03438 217.752827 
L 260.755041 217.752827 
L 257.475702 217.752827 
L 254.196364 217.752827 
L 250.917025 217.752827 
L 247.637686 213.388614 
L 244.358347 208.833315 
L 241.079008 217.752827 
L 237.799669 212.413357 
L 234.520331 210.85672 
L 231.240992 206.372404 
L 227.961653 207.073887 
L 224.682314 207.971624 
L 221.402975 209.950772 
L 218.123636 208.833315 
L 214.844298 207.971624 
L 211.564959 195.764688 
L 208.28562 196.817782 
L 205.006281 200.506007 
L 201.726942 188.903384 
L 198.447603 190.198126 
L 195.168264 196.586959 
L 191.888926 200.183433 
L 188.609587 196.703737 
L 185.330248 195.085112 
L 182.050909 193.102152 
L 178.77157 191.118082 
L 175.492231 191.014667 
L 172.212893 180.160771 
L 168.933554 187.538625 
L 165.654215 181.291748 
L 162.374876 169.815022 
L 159.095537 175.749119 
L 155.816198 168.231372 
L 152.53686 164.107018 
L 149.257521 149.904655 
L 145.978182 165.654809 
L 142.698843 157.397867 
L 139.419504 154.093484 
L 136.140165 159.148845 
L 132.860826 137.419747 
L 129.581488 147.203134 
L 126.302149 133.573944 
L 123.02281 145.697372 
L 119.743471 135.249943 
L 116.464132 129.451004 
L 113.184793 128.664904 
L 109.905455 125.553746 
L 106.626116 125.272899 
L 103.346777 114.14665 
L 100.067438 127.609342 
L 96.788099 122.54764 
L 93.50876 122.746641 
L 90.229421 126.27422 
L 86.950083 124.853191 
L 83.670744 140.416533 
L 80.391405 141.933453 
L 77.112066 147.001843 
L 73.832727 168.989982 
z
" style="fill:#ff7f0e;fill-opacity:0.2;"/>
   </g>
   <g id="PolyCollection_3">
    <path clip-path="url(#p905c68f3be)" d="M 73.832727 120.227142 
L 73.832727 120.227142 
L 77.112066 132.281982 
L 80.391405 136.63571 
L 83.670744 136.956808 
L 86.950083 131.732244 
L 90.229421 134.927852 
L 93.50876 136.377807 
L 96.788099 140.413692 
L 100.067438 137.957977 
L 103.346777 136.426681 
L 106.626116 137.114199 
L 109.905455 133.247144 
L 113.184793 146.366085 
L 116.464132 144.741314 
L 119.743471 147.63174 
L 123.02281 145.708643 
L 126.302149 157.709635 
L 129.581488 144.084481 
L 132.860826 149.612988 
L 136.140165 151.855203 
L 139.419504 144.767158 
L 142.698843 154.489272 
L 145.978182 151.836387 
L 149.257521 161.903065 
L 152.53686 156.973124 
L 155.816198 158.587794 
L 159.095537 163.343113 
L 162.374876 166.567785 
L 165.654215 169.517528 
L 168.933554 176.23618 
L 172.212893 167.643173 
L 175.492231 176.637217 
L 178.77157 171.832879 
L 182.050909 175.335294 
L 185.330248 175.750841 
L 188.609587 186.333064 
L 191.888926 170.344146 
L 195.168264 173.543124 
L 198.447603 189.908018 
L 201.726942 190.304412 
L 205.006281 182.536438 
L 208.28562 179.010946 
L 211.564959 199.424661 
L 214.844298 198.733378 
L 218.123636 193.057388 
L 221.402975 196.546244 
L 224.682314 195.999696 
L 227.961653 189.708252 
L 231.240992 199.332022 
L 234.520331 204.290388 
L 237.799669 213.444255 
L 241.079008 187.405254 
L 244.358347 207.779631 
L 247.637686 221.59965 
L 250.917025 213.102814 
L 254.196364 211.036754 
L 257.475702 216.10078 
L 260.755041 210.562032 
L 264.03438 221.086534 
L 267.313719 217.836847 
L 270.593058 212.837938 
L 273.872397 221.495615 
L 277.151736 217.431993 
L 280.431074 219.007738 
L 283.710413 219.750508 
L 286.989752 228.078385 
L 290.269091 236.957288 
L 293.54843 239.94629 
L 296.827769 238.331995 
L 300.107107 222.658166 
L 303.386446 239.136083 
L 306.665785 228.107162 
L 309.945124 223.757646 
L 313.224463 236.158011 
L 316.503802 230.757858 
L 319.78314 222.919795 
L 323.062479 234.125718 
L 326.341818 236.492313 
L 329.621157 229.268104 
L 332.900496 238.660276 
L 336.179835 245.487879 
L 339.459174 244.81415 
L 342.738512 252.109304 
L 346.017851 260.383235 
L 349.29719 258.444956 
L 352.576529 269.456772 
L 355.855868 250.157625 
L 359.135207 243.587531 
L 362.414545 235.850223 
L 365.693884 265.903733 
L 368.973223 267.952481 
L 372.252562 271.625903 
L 375.531901 265.360255 
L 378.81124 256.18246 
L 382.090579 283.853605 
L 385.369917 269.385154 
L 388.649256 281.536754 
L 391.928595 272.343665 
L 395.207934 295.488 
L 398.487273 278.170297 
L 398.487273 131.003418 
L 398.487273 131.003418 
L 395.207934 122.463024 
L 391.928595 130.978504 
L 388.649256 129.587472 
L 385.369917 117.35765 
L 382.090579 119.468567 
L 378.81124 100.32738 
L 375.531901 101.877409 
L 372.252562 120.968441 
L 368.973223 112.938781 
L 365.693884 111.0865 
L 362.414545 102.129734 
L 359.135207 119.749103 
L 355.855868 99.525418 
L 352.576529 114.360259 
L 349.29719 102.941168 
L 346.017851 104.903918 
L 342.738512 104.400539 
L 339.459174 99.992608 
L 336.179835 98.343621 
L 332.900496 93.468142 
L 329.621157 90.181973 
L 326.341818 88.809307 
L 323.062479 89.225387 
L 319.78314 77.025147 
L 316.503802 99.420045 
L 313.224463 102.797203 
L 309.945124 83.98935 
L 306.665785 88.417146 
L 303.386446 88.116051 
L 300.107107 75.33626 
L 296.827769 93.796425 
L 293.54843 99.984185 
L 290.269091 85.41856 
L 286.989752 74.792326 
L 283.710413 98.724311 
L 280.431074 94.590797 
L 277.151736 93.240772 
L 273.872397 80.39984 
L 270.593058 77.354434 
L 267.313719 76.25655 
L 264.03438 74.95738 
L 260.755041 81.580853 
L 257.475702 69.215308 
L 254.196364 82.081386 
L 250.917025 74.163789 
L 247.637686 81.271063 
L 244.358347 87.289023 
L 241.079008 75.479922 
L 237.799669 73.822346 
L 234.520331 72.248386 
L 231.240992 68.429442 
L 227.961653 59.523332 
L 224.682314 62.009197 
L 221.402975 72.190475 
L 218.123636 73.728821 
L 214.844298 75.854883 
L 211.564959 62.485262 
L 208.28562 65.344351 
L 205.006281 62.794116 
L 201.726942 72.580765 
L 198.447603 71.026646 
L 195.168264 64.960633 
L 191.888926 63.283325 
L 188.609587 62.898519 
L 185.330248 67.629201 
L 182.050909 59.267436 
L 178.77157 68.621394 
L 175.492231 56.990254 
L 172.212893 63.058529 
L 168.933554 61.29232 
L 165.654215 56.307891 
L 162.374876 62.183403 
L 159.095537 58.581281 
L 155.816198 63.336597 
L 152.53686 54.22344 
L 149.257521 70.749151 
L 145.978182 61.310694 
L 142.698843 61.583578 
L 139.419504 57.652096 
L 136.140165 64.217644 
L 132.860826 56.707295 
L 129.581488 59.310029 
L 126.302149 66.16527 
L 123.02281 69.388951 
L 119.743471 64.540084 
L 116.464132 69.381025 
L 113.184793 72.632537 
L 109.905455 53.568 
L 106.626116 67.255571 
L 103.346777 67.943088 
L 100.067438 70.312819 
L 96.788099 72.733392 
L 93.50876 75.794016 
L 90.229421 75.293461 
L 86.950083 86.291125 
L 83.670744 83.017075 
L 80.391405 95.041258 
L 77.112066 88.667159 
L 73.832727 120.227142 
z
" style="fill:#2ca02c;fill-opacity:0.2;"/>
   </g>
   <g id="PolyCollection_4">
    <path clip-path="url(#p905c68f3be)" d="M 73.832727 217.752827 
L 73.832727 217.752827 
L 77.112066 230.090887 
L 80.391405 228.043902 
L 83.670744 226.030674 
L 86.950083 233.266559 
L 90.229421 236.679384 
L 93.50876 229.250212 
L 96.788099 227.033716 
L 100.067438 234.638984 
L 103.346777 220.631689 
L 106.626116 231.828066 
L 109.905455 229.250852 
L 113.184793 228.957772 
L 116.464132 246.817455 
L 119.743471 231.176735 
L 123.02281 232.272279 
L 126.302149 234.709427 
L 129.581488 236.220158 
L 132.860826 220.550126 
L 136.140165 231.176735 
L 139.419504 222.016368 
L 142.698843 215.460344 
L 145.978182 227.924799 
L 149.257521 234.047732 
L 152.53686 246.053887 
L 155.816198 243.552629 
L 159.095537 234.774657 
L 162.374876 237.662921 
L 165.654215 243.589062 
L 168.933554 235.703114 
L 172.212893 243.297886 
L 175.492231 230.285108 
L 178.77157 252.328944 
L 182.050909 234.745221 
L 185.330248 240.146784 
L 188.609587 237.013673 
L 191.888926 250.144005 
L 195.168264 246.657226 
L 198.447603 237.773938 
L 201.726942 237.918219 
L 205.006281 227.564476 
L 208.28562 235.926507 
L 211.564959 243.802982 
L 214.844298 247.369065 
L 218.123636 223.475165 
L 221.402975 251.286702 
L 224.682314 252.862076 
L 227.961653 239.916251 
L 231.240992 240.252206 
L 234.520331 238.921016 
L 237.799669 246.054473 
L 241.079008 246.09377 
L 244.358347 269.338347 
L 247.637686 247.818293 
L 250.917025 269.564004 
L 254.196364 261.403069 
L 257.475702 253.769779 
L 260.755041 249.260691 
L 264.03438 253.368859 
L 267.313719 246.764551 
L 270.593058 241.350155 
L 273.872397 245.68067 
L 277.151736 254.782575 
L 280.431074 254.684155 
L 283.710413 280.181162 
L 286.989752 250.858151 
L 290.269091 277.338431 
L 293.54843 277.305283 
L 296.827769 264.274865 
L 300.107107 238.364664 
L 303.386446 267.326049 
L 306.665785 247.571265 
L 309.945124 260.032437 
L 313.224463 254.886431 
L 316.503802 242.357515 
L 319.78314 263.625228 
L 323.062479 267.197745 
L 326.341818 273.261736 
L 329.621157 268.267729 
L 332.900496 264.611582 
L 336.179835 261.142795 
L 339.459174 269.186214 
L 342.738512 263.387585 
L 346.017851 289.06597 
L 349.29719 286.109698 
L 352.576529 277.013858 
L 355.855868 257.213074 
L 359.135207 281.313778 
L 362.414545 264.295247 
L 365.693884 274.540993 
L 368.973223 265.347336 
L 372.252562 285.524218 
L 375.531901 264.880768 
L 378.81124 271.082884 
L 382.090579 273.158594 
L 385.369917 281.259567 
L 388.649256 270.161803 
L 391.928595 279.919734 
L 395.207934 277.310981 
L 398.487273 292.601848 
L 398.487273 139.978036 
L 398.487273 139.978036 
L 395.207934 150.392619 
L 391.928595 144.858095 
L 388.649256 136.086145 
L 385.369917 140.592491 
L 382.090579 123.336785 
L 378.81124 139.066091 
L 375.531901 119.911527 
L 372.252562 152.907207 
L 368.973223 139.925354 
L 365.693884 144.385294 
L 362.414545 125.373333 
L 359.135207 143.464051 
L 355.855868 124.653451 
L 352.576529 130.209346 
L 349.29719 130.866075 
L 346.017851 141.5634 
L 342.738512 127.256252 
L 339.459174 139.012248 
L 336.179835 128.525785 
L 332.900496 141.636365 
L 329.621157 117.499824 
L 326.341818 137.862496 
L 323.062479 126.371863 
L 319.78314 128.969123 
L 316.503802 112.201817 
L 313.224463 126.004837 
L 309.945124 119.883574 
L 306.665785 120.641663 
L 303.386446 120.392017 
L 300.107107 115.21941 
L 296.827769 135.146284 
L 293.54843 138.695233 
L 290.269091 126.959002 
L 286.989752 117.354777 
L 283.710413 120.215244 
L 280.431074 106.701974 
L 277.151736 128.059207 
L 273.872397 118.631231 
L 270.593058 109.308149 
L 267.313719 109.745294 
L 264.03438 116.794583 
L 260.755041 126.754292 
L 257.475702 127.121489 
L 254.196364 110.710886 
L 250.917025 110.352007 
L 247.637686 114.543094 
L 244.358347 131.058059 
L 241.079008 99.68825 
L 237.799669 122.158455 
L 234.520331 106.861003 
L 231.240992 122.10918 
L 227.961653 106.841025 
L 224.682314 122.17765 
L 221.402975 114.000455 
L 218.123636 91.098633 
L 214.844298 113.041808 
L 211.564959 110.756349 
L 208.28562 100.102943 
L 205.006281 98.712405 
L 201.726942 106.888543 
L 198.447603 111.909109 
L 195.168264 113.753646 
L 191.888926 110.266868 
L 188.609587 112.669374 
L 185.330248 111.486777 
L 182.050909 116.888339 
L 178.77157 121.735526 
L 175.492231 116.472168 
L 172.212893 109.310932 
L 168.933554 109.103648 
L 165.654215 96.341416 
L 162.374876 119.822181 
L 159.095537 103.205307 
L 155.816198 110.031446 
L 152.53686 118.258014 
L 149.257521 103.932232 
L 145.978182 112.980936 
L 142.698843 105.940253 
L 139.419504 106.211027 
L 136.140165 117.531055 
L 132.860826 109.627782 
L 129.581488 122.240201 
L 126.302149 112.047849 
L 123.02281 119.361282 
L 119.743471 117.531055 
L 116.464132 121.395473 
L 113.184793 115.848991 
L 109.905455 101.902314 
L 106.626116 112.978696 
L 103.346777 119.298789 
L 100.067438 133.573944 
L 96.788099 122.649331 
L 93.50876 118.482321 
L 90.229421 129.583031 
L 86.950083 128.119571 
L 83.670744 125.602887 
L 80.391405 139.193769 
L 77.112066 160.55295 
L 73.832727 217.752827 
z
" style="fill:#d62728;fill-opacity:0.2;"/>
   </g>
   <g id="matplotlib.axis_1">
    <g id="xtick_1">
     <g id="line2d_1">
      <defs>
       <path d="M 0 0 
L 0 3.5 
" id="mf8a234ef58" style="stroke:#000000;stroke-width:0.8;"/>
      </defs>
      <g>
       <use style="stroke:#000000;stroke-width:0.8;" x="401.766612" xlink:href="#mf8a234ef58" y="307.584"/>
      </g>
     </g>
     <g id="text_1">
      <!-- 0 -->
      <g transform="translate(398.585362 322.182437)scale(0.1 -0.1)">
       <defs>
        <path d="M 31.78125 66.40625 
Q 24.171875 66.40625 20.328125 58.90625 
Q 16.5 51.421875 16.5 36.375 
Q 16.5 21.390625 20.328125 13.890625 
Q 24.171875 6.390625 31.78125 6.390625 
Q 39.453125 6.390625 43.28125 13.890625 
Q 47.125 21.390625 47.125 36.375 
Q 47.125 51.421875 43.28125 58.90625 
Q 39.453125 66.40625 31.78125 66.40625 
z
M 31.78125 74.21875 
Q 44.046875 74.21875 50.515625 64.515625 
Q 56.984375 54.828125 56.984375 36.375 
Q 56.984375 17.96875 50.515625 8.265625 
Q 44.046875 -1.421875 31.78125 -1.421875 
Q 19.53125 -1.421875 13.0625 8.265625 
Q 6.59375 17.96875 6.59375 36.375 
Q 6.59375 54.828125 13.0625 64.515625 
Q 19.53125 74.21875 31.78125 74.21875 
z
" id="DejaVuSans-48"/>
       </defs>
       <use xlink:href="#DejaVuSans-48"/>
      </g>
     </g>
    </g>
    <g id="xtick_2">
     <g id="line2d_2">
      <g>
       <use style="stroke:#000000;stroke-width:0.8;" x="336.179835" xlink:href="#mf8a234ef58" y="307.584"/>
      </g>
     </g>
     <g id="text_2">
      <!-- 20 -->
      <g transform="translate(329.817335 322.182437)scale(0.1 -0.1)">
       <defs>
        <path d="M 19.1875 8.296875 
L 53.609375 8.296875 
L 53.609375 0 
L 7.328125 0 
L 7.328125 8.296875 
Q 12.9375 14.109375 22.625 23.890625 
Q 32.328125 33.6875 34.8125 36.53125 
Q 39.546875 41.84375 41.421875 45.53125 
Q 43.3125 49.21875 43.3125 52.78125 
Q 43.3125 58.59375 39.234375 62.25 
Q 35.15625 65.921875 28.609375 65.921875 
Q 23.96875 65.921875 18.8125 64.3125 
Q 13.671875 62.703125 7.8125 59.421875 
L 7.8125 69.390625 
Q 13.765625 71.78125 18.9375 73 
Q 24.125 74.21875 28.421875 74.21875 
Q 39.75 74.21875 46.484375 68.546875 
Q 53.21875 62.890625 53.21875 53.421875 
Q 53.21875 48.921875 51.53125 44.890625 
Q 49.859375 40.875 45.40625 35.40625 
Q 44.1875 33.984375 37.640625 27.21875 
Q 31.109375 20.453125 19.1875 8.296875 
z
" id="DejaVuSans-50"/>
       </defs>
       <use xlink:href="#DejaVuSans-50"/>
       <use x="63.623047" xlink:href="#DejaVuSans-48"/>
      </g>
     </g>
    </g>
    <g id="xtick_3">
     <g id="line2d_3">
      <g>
       <use style="stroke:#000000;stroke-width:0.8;" x="270.593058" xlink:href="#mf8a234ef58" y="307.584"/>
      </g>
     </g>
     <g id="text_3">
      <!-- 40 -->
      <g transform="translate(264.230558 322.182437)scale(0.1 -0.1)">
       <defs>
        <path d="M 37.796875 64.3125 
L 12.890625 25.390625 
L 37.796875 25.390625 
z
M 35.203125 72.90625 
L 47.609375 72.90625 
L 47.609375 25.390625 
L 58.015625 25.390625 
L 58.015625 17.1875 
L 47.609375 17.1875 
L 47.609375 0 
L 37.796875 0 
L 37.796875 17.1875 
L 4.890625 17.1875 
L 4.890625 26.703125 
z
" id="DejaVuSans-52"/>
       </defs>
       <use xlink:href="#DejaVuSans-52"/>
       <use x="63.623047" xlink:href="#DejaVuSans-48"/>
      </g>
     </g>
    </g>
    <g id="xtick_4">
     <g id="line2d_4">
      <g>
       <use style="stroke:#000000;stroke-width:0.8;" x="205.006281" xlink:href="#mf8a234ef58" y="307.584"/>
      </g>
     </g>
     <g id="text_4">
      <!-- 60 -->
      <g transform="translate(198.643781 322.182437)scale(0.1 -0.1)">
       <defs>
        <path d="M 33.015625 40.375 
Q 26.375 40.375 22.484375 35.828125 
Q 18.609375 31.296875 18.609375 23.390625 
Q 18.609375 15.53125 22.484375 10.953125 
Q 26.375 6.390625 33.015625 6.390625 
Q 39.65625 6.390625 43.53125 10.953125 
Q 47.40625 15.53125 47.40625 23.390625 
Q 47.40625 31.296875 43.53125 35.828125 
Q 39.65625 40.375 33.015625 40.375 
z
M 52.59375 71.296875 
L 52.59375 62.3125 
Q 48.875 64.0625 45.09375 64.984375 
Q 41.3125 65.921875 37.59375 65.921875 
Q 27.828125 65.921875 22.671875 59.328125 
Q 17.53125 52.734375 16.796875 39.40625 
Q 19.671875 43.65625 24.015625 45.921875 
Q 28.375 48.1875 33.59375 48.1875 
Q 44.578125 48.1875 50.953125 41.515625 
Q 57.328125 34.859375 57.328125 23.390625 
Q 57.328125 12.15625 50.6875 5.359375 
Q 44.046875 -1.421875 33.015625 -1.421875 
Q 20.359375 -1.421875 13.671875 8.265625 
Q 6.984375 17.96875 6.984375 36.375 
Q 6.984375 53.65625 15.1875 63.9375 
Q 23.390625 74.21875 37.203125 74.21875 
Q 40.921875 74.21875 44.703125 73.484375 
Q 48.484375 72.75 52.59375 71.296875 
z
" id="DejaVuSans-54"/>
       </defs>
       <use xlink:href="#DejaVuSans-54"/>
       <use x="63.623047" xlink:href="#DejaVuSans-48"/>
      </g>
     </g>
    </g>
    <g id="xtick_5">
     <g id="line2d_5">
      <g>
       <use style="stroke:#000000;stroke-width:0.8;" x="139.419504" xlink:href="#mf8a234ef58" y="307.584"/>
      </g>
     </g>
     <g id="text_5">
      <!-- 80 -->
      <g transform="translate(133.057004 322.182437)scale(0.1 -0.1)">
       <defs>
        <path d="M 31.78125 34.625 
Q 24.75 34.625 20.71875 30.859375 
Q 16.703125 27.09375 16.703125 20.515625 
Q 16.703125 13.921875 20.71875 10.15625 
Q 24.75 6.390625 31.78125 6.390625 
Q 38.8125 6.390625 42.859375 10.171875 
Q 46.921875 13.96875 46.921875 20.515625 
Q 46.921875 27.09375 42.890625 30.859375 
Q 38.875 34.625 31.78125 34.625 
z
M 21.921875 38.8125 
Q 15.578125 40.375 12.03125 44.71875 
Q 8.5 49.078125 8.5 55.328125 
Q 8.5 64.0625 14.71875 69.140625 
Q 20.953125 74.21875 31.78125 74.21875 
Q 42.671875 74.21875 48.875 69.140625 
Q 55.078125 64.0625 55.078125 55.328125 
Q 55.078125 49.078125 51.53125 44.71875 
Q 48 40.375 41.703125 38.8125 
Q 48.828125 37.15625 52.796875 32.3125 
Q 56.78125 27.484375 56.78125 20.515625 
Q 56.78125 9.90625 50.3125 4.234375 
Q 43.84375 -1.421875 31.78125 -1.421875 
Q 19.734375 -1.421875 13.25 4.234375 
Q 6.78125 9.90625 6.78125 20.515625 
Q 6.78125 27.484375 10.78125 32.3125 
Q 14.796875 37.15625 21.921875 38.8125 
z
M 18.3125 54.390625 
Q 18.3125 48.734375 21.84375 45.5625 
Q 25.390625 42.390625 31.78125 42.390625 
Q 38.140625 42.390625 41.71875 45.5625 
Q 45.3125 48.734375 45.3125 54.390625 
Q 45.3125 60.0625 41.71875 63.234375 
Q 38.140625 66.40625 31.78125 66.40625 
Q 25.390625 66.40625 21.84375 63.234375 
Q 18.3125 60.0625 18.3125 54.390625 
z
" id="DejaVuSans-56"/>
       </defs>
       <use xlink:href="#DejaVuSans-56"/>
       <use x="63.623047" xlink:href="#DejaVuSans-48"/>
      </g>
     </g>
    </g>
    <g id="xtick_6">
     <g id="line2d_6">
      <g>
       <use style="stroke:#000000;stroke-width:0.8;" x="73.832727" xlink:href="#mf8a234ef58" y="307.584"/>
      </g>
     </g>
     <g id="text_6">
      <!-- 100 -->
      <g transform="translate(64.288977 322.182437)scale(0.1 -0.1)">
       <defs>
        <path d="M 12.40625 8.296875 
L 28.515625 8.296875 
L 28.515625 63.921875 
L 10.984375 60.40625 
L 10.984375 69.390625 
L 28.421875 72.90625 
L 38.28125 72.90625 
L 38.28125 8.296875 
L 54.390625 8.296875 
L 54.390625 0 
L 12.40625 0 
z
" id="DejaVuSans-49"/>
       </defs>
       <use xlink:href="#DejaVuSans-49"/>
       <use x="63.623047" xlink:href="#DejaVuSans-48"/>
       <use x="127.246094" xlink:href="#DejaVuSans-48"/>
      </g>
     </g>
    </g>
    <g id="text_7">
     <!-- Number of features -->
     <g transform="translate(187.4225 335.860562)scale(0.1 -0.1)">
      <defs>
       <path d="M 9.8125 72.90625 
L 23.09375 72.90625 
L 55.421875 11.921875 
L 55.421875 72.90625 
L 64.984375 72.90625 
L 64.984375 0 
L 51.703125 0 
L 19.390625 60.984375 
L 19.390625 0 
L 9.8125 0 
z
" id="DejaVuSans-78"/>
       <path d="M 8.5 21.578125 
L 8.5 54.6875 
L 17.484375 54.6875 
L 17.484375 21.921875 
Q 17.484375 14.15625 20.5 10.265625 
Q 23.53125 6.390625 29.59375 6.390625 
Q 36.859375 6.390625 41.078125 11.03125 
Q 45.3125 15.671875 45.3125 23.6875 
L 45.3125 54.6875 
L 54.296875 54.6875 
L 54.296875 0 
L 45.3125 0 
L 45.3125 8.40625 
Q 42.046875 3.421875 37.71875 1 
Q 33.40625 -1.421875 27.6875 -1.421875 
Q 18.265625 -1.421875 13.375 4.4375 
Q 8.5 10.296875 8.5 21.578125 
z
M 31.109375 56 
z
" id="DejaVuSans-117"/>
       <path d="M 52 44.1875 
Q 55.375 50.25 60.0625 53.125 
Q 64.75 56 71.09375 56 
Q 79.640625 56 84.28125 50.015625 
Q 88.921875 44.046875 88.921875 33.015625 
L 88.921875 0 
L 79.890625 0 
L 79.890625 32.71875 
Q 79.890625 40.578125 77.09375 44.375 
Q 74.3125 48.1875 68.609375 48.1875 
Q 61.625 48.1875 57.5625 43.546875 
Q 53.515625 38.921875 53.515625 30.90625 
L 53.515625 0 
L 44.484375 0 
L 44.484375 32.71875 
Q 44.484375 40.625 41.703125 44.40625 
Q 38.921875 48.1875 33.109375 48.1875 
Q 26.21875 48.1875 22.15625 43.53125 
Q 18.109375 38.875 18.109375 30.90625 
L 18.109375 0 
L 9.078125 0 
L 9.078125 54.6875 
L 18.109375 54.6875 
L 18.109375 46.1875 
Q 21.1875 51.21875 25.484375 53.609375 
Q 29.78125 56 35.6875 56 
Q 41.65625 56 45.828125 52.96875 
Q 50 49.953125 52 44.1875 
z
" id="DejaVuSans-109"/>
       <path d="M 48.6875 27.296875 
Q 48.6875 37.203125 44.609375 42.84375 
Q 40.53125 48.484375 33.40625 48.484375 
Q 26.265625 48.484375 22.1875 42.84375 
Q 18.109375 37.203125 18.109375 27.296875 
Q 18.109375 17.390625 22.1875 11.75 
Q 26.265625 6.109375 33.40625 6.109375 
Q 40.53125 6.109375 44.609375 11.75 
Q 48.6875 17.390625 48.6875 27.296875 
z
M 18.109375 46.390625 
Q 20.953125 51.265625 25.265625 53.625 
Q 29.59375 56 35.59375 56 
Q 45.5625 56 51.78125 48.09375 
Q 58.015625 40.1875 58.015625 27.296875 
Q 58.015625 14.40625 51.78125 6.484375 
Q 45.5625 -1.421875 35.59375 -1.421875 
Q 29.59375 -1.421875 25.265625 0.953125 
Q 20.953125 3.328125 18.109375 8.203125 
L 18.109375 0 
L 9.078125 0 
L 9.078125 75.984375 
L 18.109375 75.984375 
z
" id="DejaVuSans-98"/>
       <path d="M 56.203125 29.59375 
L 56.203125 25.203125 
L 14.890625 25.203125 
Q 15.484375 15.921875 20.484375 11.0625 
Q 25.484375 6.203125 34.421875 6.203125 
Q 39.59375 6.203125 44.453125 7.46875 
Q 49.3125 8.734375 54.109375 11.28125 
L 54.109375 2.78125 
Q 49.265625 0.734375 44.1875 -0.34375 
Q 39.109375 -1.421875 33.890625 -1.421875 
Q 20.796875 -1.421875 13.15625 6.1875 
Q 5.515625 13.8125 5.515625 26.8125 
Q 5.515625 40.234375 12.765625 48.109375 
Q 20.015625 56 32.328125 56 
Q 43.359375 56 49.78125 48.890625 
Q 56.203125 41.796875 56.203125 29.59375 
z
M 47.21875 32.234375 
Q 47.125 39.59375 43.09375 43.984375 
Q 39.0625 48.390625 32.421875 48.390625 
Q 24.90625 48.390625 20.390625 44.140625 
Q 15.875 39.890625 15.1875 32.171875 
z
" id="DejaVuSans-101"/>
       <path d="M 41.109375 46.296875 
Q 39.59375 47.171875 37.8125 47.578125 
Q 36.03125 48 33.890625 48 
Q 26.265625 48 22.1875 43.046875 
Q 18.109375 38.09375 18.109375 28.8125 
L 18.109375 0 
L 9.078125 0 
L 9.078125 54.6875 
L 18.109375 54.6875 
L 18.109375 46.1875 
Q 20.953125 51.171875 25.484375 53.578125 
Q 30.03125 56 36.53125 56 
Q 37.453125 56 38.578125 55.875 
Q 39.703125 55.765625 41.0625 55.515625 
z
" id="DejaVuSans-114"/>
       <path id="DejaVuSans-32"/>
       <path d="M 30.609375 48.390625 
Q 23.390625 48.390625 19.1875 42.75 
Q 14.984375 37.109375 14.984375 27.296875 
Q 14.984375 17.484375 19.15625 11.84375 
Q 23.34375 6.203125 30.609375 6.203125 
Q 37.796875 6.203125 41.984375 11.859375 
Q 46.1875 17.53125 46.1875 27.296875 
Q 46.1875 37.015625 41.984375 42.703125 
Q 37.796875 48.390625 30.609375 48.390625 
z
M 30.609375 56 
Q 42.328125 56 49.015625 48.375 
Q 55.71875 40.765625 55.71875 27.296875 
Q 55.71875 13.875 49.015625 6.21875 
Q 42.328125 -1.421875 30.609375 -1.421875 
Q 18.84375 -1.421875 12.171875 6.21875 
Q 5.515625 13.875 5.515625 27.296875 
Q 5.515625 40.765625 12.171875 48.375 
Q 18.84375 56 30.609375 56 
z
" id="DejaVuSans-111"/>
       <path d="M 37.109375 75.984375 
L 37.109375 68.5 
L 28.515625 68.5 
Q 23.6875 68.5 21.796875 66.546875 
Q 19.921875 64.59375 19.921875 59.515625 
L 19.921875 54.6875 
L 34.71875 54.6875 
L 34.71875 47.703125 
L 19.921875 47.703125 
L 19.921875 0 
L 10.890625 0 
L 10.890625 47.703125 
L 2.296875 47.703125 
L 2.296875 54.6875 
L 10.890625 54.6875 
L 10.890625 58.5 
Q 10.890625 67.625 15.140625 71.796875 
Q 19.390625 75.984375 28.609375 75.984375 
z
" id="DejaVuSans-102"/>
       <path d="M 34.28125 27.484375 
Q 23.390625 27.484375 19.1875 25 
Q 14.984375 22.515625 14.984375 16.5 
Q 14.984375 11.71875 18.140625 8.90625 
Q 21.296875 6.109375 26.703125 6.109375 
Q 34.1875 6.109375 38.703125 11.40625 
Q 43.21875 16.703125 43.21875 25.484375 
L 43.21875 27.484375 
z
M 52.203125 31.203125 
L 52.203125 0 
L 43.21875 0 
L 43.21875 8.296875 
Q 40.140625 3.328125 35.546875 0.953125 
Q 30.953125 -1.421875 24.3125 -1.421875 
Q 15.921875 -1.421875 10.953125 3.296875 
Q 6 8.015625 6 15.921875 
Q 6 25.140625 12.171875 29.828125 
Q 18.359375 34.515625 30.609375 34.515625 
L 43.21875 34.515625 
L 43.21875 35.40625 
Q 43.21875 41.609375 39.140625 45 
Q 35.0625 48.390625 27.6875 48.390625 
Q 23 48.390625 18.546875 47.265625 
Q 14.109375 46.140625 10.015625 43.890625 
L 10.015625 52.203125 
Q 14.9375 54.109375 19.578125 55.046875 
Q 24.21875 56 28.609375 56 
Q 40.484375 56 46.34375 49.84375 
Q 52.203125 43.703125 52.203125 31.203125 
z
" id="DejaVuSans-97"/>
       <path d="M 18.3125 70.21875 
L 18.3125 54.6875 
L 36.8125 54.6875 
L 36.8125 47.703125 
L 18.3125 47.703125 
L 18.3125 18.015625 
Q 18.3125 11.328125 20.140625 9.421875 
Q 21.96875 7.515625 27.59375 7.515625 
L 36.8125 7.515625 
L 36.8125 0 
L 27.59375 0 
Q 17.1875 0 13.234375 3.875 
Q 9.28125 7.765625 9.28125 18.015625 
L 9.28125 47.703125 
L 2.6875 47.703125 
L 2.6875 54.6875 
L 9.28125 54.6875 
L 9.28125 70.21875 
z
" id="DejaVuSans-116"/>
       <path d="M 44.28125 53.078125 
L 44.28125 44.578125 
Q 40.484375 46.53125 36.375 47.5 
Q 32.28125 48.484375 27.875 48.484375 
Q 21.1875 48.484375 17.84375 46.4375 
Q 14.5 44.390625 14.5 40.28125 
Q 14.5 37.15625 16.890625 35.375 
Q 19.28125 33.59375 26.515625 31.984375 
L 29.59375 31.296875 
Q 39.15625 29.25 43.1875 25.515625 
Q 47.21875 21.78125 47.21875 15.09375 
Q 47.21875 7.46875 41.1875 3.015625 
Q 35.15625 -1.421875 24.609375 -1.421875 
Q 20.21875 -1.421875 15.453125 -0.5625 
Q 10.6875 0.296875 5.421875 2 
L 5.421875 11.28125 
Q 10.40625 8.6875 15.234375 7.390625 
Q 20.0625 6.109375 24.8125 6.109375 
Q 31.15625 6.109375 34.5625 8.28125 
Q 37.984375 10.453125 37.984375 14.40625 
Q 37.984375 18.0625 35.515625 20.015625 
Q 33.0625 21.96875 24.703125 23.78125 
L 21.578125 24.515625 
Q 13.234375 26.265625 9.515625 29.90625 
Q 5.8125 33.546875 5.8125 39.890625 
Q 5.8125 47.609375 11.28125 51.796875 
Q 16.75 56 26.8125 56 
Q 31.78125 56 36.171875 55.265625 
Q 40.578125 54.546875 44.28125 53.078125 
z
" id="DejaVuSans-115"/>
      </defs>
      <use xlink:href="#DejaVuSans-78"/>
      <use x="74.804688" xlink:href="#DejaVuSans-117"/>
      <use x="138.183594" xlink:href="#DejaVuSans-109"/>
      <use x="235.595703" xlink:href="#DejaVuSans-98"/>
      <use x="299.072266" xlink:href="#DejaVuSans-101"/>
      <use x="360.595703" xlink:href="#DejaVuSans-114"/>
      <use x="401.708984" xlink:href="#DejaVuSans-32"/>
      <use x="433.496094" xlink:href="#DejaVuSans-111"/>
      <use x="494.677734" xlink:href="#DejaVuSans-102"/>
      <use x="529.882812" xlink:href="#DejaVuSans-32"/>
      <use x="561.669922" xlink:href="#DejaVuSans-102"/>
      <use x="596.875" xlink:href="#DejaVuSans-101"/>
      <use x="658.398438" xlink:href="#DejaVuSans-97"/>
      <use x="719.677734" xlink:href="#DejaVuSans-116"/>
      <use x="758.886719" xlink:href="#DejaVuSans-117"/>
      <use x="822.265625" xlink:href="#DejaVuSans-114"/>
      <use x="861.128906" xlink:href="#DejaVuSans-101"/>
      <use x="922.652344" xlink:href="#DejaVuSans-115"/>
     </g>
    </g>
   </g>
   <g id="matplotlib.axis_2">
    <g id="ytick_1">
     <g id="line2d_7">
      <defs>
       <path d="M 0 0 
L -3.5 0 
" id="m97fc80b091" style="stroke:#000000;stroke-width:0.8;"/>
      </defs>
      <g>
       <use style="stroke:#000000;stroke-width:0.8;" x="57.6" xlink:href="#m97fc80b091" y="266.515673"/>
      </g>
     </g>
     <g id="text_8">
      <!-- 0.4 -->
      <g transform="translate(34.696875 270.314891)scale(0.1 -0.1)">
       <defs>
        <path d="M 10.6875 12.40625 
L 21 12.40625 
L 21 0 
L 10.6875 0 
z
" id="DejaVuSans-46"/>
       </defs>
       <use xlink:href="#DejaVuSans-48"/>
       <use x="63.623047" xlink:href="#DejaVuSans-46"/>
       <use x="95.410156" xlink:href="#DejaVuSans-52"/>
      </g>
     </g>
    </g>
    <g id="ytick_2">
     <g id="line2d_8">
      <g>
       <use style="stroke:#000000;stroke-width:0.8;" x="57.6" xlink:href="#m97fc80b091" y="217.752827"/>
      </g>
     </g>
     <g id="text_9">
      <!-- 0.5 -->
      <g transform="translate(34.696875 221.552046)scale(0.1 -0.1)">
       <defs>
        <path d="M 10.796875 72.90625 
L 49.515625 72.90625 
L 49.515625 64.59375 
L 19.828125 64.59375 
L 19.828125 46.734375 
Q 21.96875 47.46875 24.109375 47.828125 
Q 26.265625 48.1875 28.421875 48.1875 
Q 40.625 48.1875 47.75 41.5 
Q 54.890625 34.8125 54.890625 23.390625 
Q 54.890625 11.625 47.5625 5.09375 
Q 40.234375 -1.421875 26.90625 -1.421875 
Q 22.3125 -1.421875 17.546875 -0.640625 
Q 12.796875 0.140625 7.71875 1.703125 
L 7.71875 11.625 
Q 12.109375 9.234375 16.796875 8.0625 
Q 21.484375 6.890625 26.703125 6.890625 
Q 35.15625 6.890625 40.078125 11.328125 
Q 45.015625 15.765625 45.015625 23.390625 
Q 45.015625 31 40.078125 35.4375 
Q 35.15625 39.890625 26.703125 39.890625 
Q 22.75 39.890625 18.8125 39.015625 
Q 14.890625 38.140625 10.796875 36.28125 
z
" id="DejaVuSans-53"/>
       </defs>
       <use xlink:href="#DejaVuSans-48"/>
       <use x="63.623047" xlink:href="#DejaVuSans-46"/>
       <use x="95.410156" xlink:href="#DejaVuSans-53"/>
      </g>
     </g>
    </g>
    <g id="ytick_3">
     <g id="line2d_9">
      <g>
       <use style="stroke:#000000;stroke-width:0.8;" x="57.6" xlink:href="#m97fc80b091" y="168.989982"/>
      </g>
     </g>
     <g id="text_10">
      <!-- 0.6 -->
      <g transform="translate(34.696875 172.789201)scale(0.1 -0.1)">
       <use xlink:href="#DejaVuSans-48"/>
       <use x="63.623047" xlink:href="#DejaVuSans-46"/>
       <use x="95.410156" xlink:href="#DejaVuSans-54"/>
      </g>
     </g>
    </g>
    <g id="ytick_4">
     <g id="line2d_10">
      <g>
       <use style="stroke:#000000;stroke-width:0.8;" x="57.6" xlink:href="#m97fc80b091" y="120.227137"/>
      </g>
     </g>
     <g id="text_11">
      <!-- 0.7 -->
      <g transform="translate(34.696875 124.026355)scale(0.1 -0.1)">
       <defs>
        <path d="M 8.203125 72.90625 
L 55.078125 72.90625 
L 55.078125 68.703125 
L 28.609375 0 
L 18.3125 0 
L 43.21875 64.59375 
L 8.203125 64.59375 
z
" id="DejaVuSans-55"/>
       </defs>
       <use xlink:href="#DejaVuSans-48"/>
       <use x="63.623047" xlink:href="#DejaVuSans-46"/>
       <use x="95.410156" xlink:href="#DejaVuSans-55"/>
      </g>
     </g>
    </g>
    <g id="ytick_5">
     <g id="line2d_11">
      <g>
       <use style="stroke:#000000;stroke-width:0.8;" x="57.6" xlink:href="#m97fc80b091" y="71.464291"/>
      </g>
     </g>
     <g id="text_12">
      <!-- 0.8 -->
      <g transform="translate(34.696875 75.26351)scale(0.1 -0.1)">
       <use xlink:href="#DejaVuSans-48"/>
       <use x="63.623047" xlink:href="#DejaVuSans-46"/>
       <use x="95.410156" xlink:href="#DejaVuSans-56"/>
      </g>
     </g>
    </g>
    <g id="text_13">
     <!-- Accuracy -->
     <g transform="translate(28.617187 197.356125)rotate(-90)scale(0.1 -0.1)">
      <defs>
       <path d="M 34.1875 63.1875 
L 20.796875 26.90625 
L 47.609375 26.90625 
z
M 28.609375 72.90625 
L 39.796875 72.90625 
L 67.578125 0 
L 57.328125 0 
L 50.6875 18.703125 
L 17.828125 18.703125 
L 11.1875 0 
L 0.78125 0 
z
" id="DejaVuSans-65"/>
       <path d="M 48.78125 52.59375 
L 48.78125 44.1875 
Q 44.96875 46.296875 41.140625 47.34375 
Q 37.3125 48.390625 33.40625 48.390625 
Q 24.65625 48.390625 19.8125 42.84375 
Q 14.984375 37.3125 14.984375 27.296875 
Q 14.984375 17.28125 19.8125 11.734375 
Q 24.65625 6.203125 33.40625 6.203125 
Q 37.3125 6.203125 41.140625 7.25 
Q 44.96875 8.296875 48.78125 10.40625 
L 48.78125 2.09375 
Q 45.015625 0.34375 40.984375 -0.53125 
Q 36.96875 -1.421875 32.421875 -1.421875 
Q 20.0625 -1.421875 12.78125 6.34375 
Q 5.515625 14.109375 5.515625 27.296875 
Q 5.515625 40.671875 12.859375 48.328125 
Q 20.21875 56 33.015625 56 
Q 37.15625 56 41.109375 55.140625 
Q 45.0625 54.296875 48.78125 52.59375 
z
" id="DejaVuSans-99"/>
       <path d="M 32.171875 -5.078125 
Q 28.375 -14.84375 24.75 -17.8125 
Q 21.140625 -20.796875 15.09375 -20.796875 
L 7.90625 -20.796875 
L 7.90625 -13.28125 
L 13.1875 -13.28125 
Q 16.890625 -13.28125 18.9375 -11.515625 
Q 21 -9.765625 23.484375 -3.21875 
L 25.09375 0.875 
L 2.984375 54.6875 
L 12.5 54.6875 
L 29.59375 11.921875 
L 46.6875 54.6875 
L 56.203125 54.6875 
z
" id="DejaVuSans-121"/>
      </defs>
      <use xlink:href="#DejaVuSans-65"/>
      <use x="66.658203" xlink:href="#DejaVuSans-99"/>
      <use x="121.638672" xlink:href="#DejaVuSans-99"/>
      <use x="176.619141" xlink:href="#DejaVuSans-117"/>
      <use x="239.998047" xlink:href="#DejaVuSans-114"/>
      <use x="281.111328" xlink:href="#DejaVuSans-97"/>
      <use x="342.390625" xlink:href="#DejaVuSans-99"/>
      <use x="397.371094" xlink:href="#DejaVuSans-121"/>
     </g>
    </g>
   </g>
   <g id="line2d_12">
    <path clip-path="url(#p905c68f3be)" d="M 73.832727 217.752827 
L 77.112066 198.735318 
L 80.391405 191.420891 
L 83.670744 179.717808 
L 86.950083 174.841523 
L 90.229421 176.792037 
L 93.50876 170.940496 
L 96.788099 161.675555 
L 100.067438 164.113697 
L 103.346777 162.163184 
L 106.626116 169.965239 
L 109.905455 161.675555 
L 113.184793 164.601326 
L 116.464132 158.262156 
L 119.743471 162.163184 
L 123.02281 165.088954 
L 126.302149 167.527097 
L 129.581488 163.138441 
L 132.860826 159.725041 
L 136.140165 161.187927 
L 139.419504 164.601326 
L 142.698843 162.163184 
L 145.978182 157.774528 
L 149.257521 160.700298 
L 152.53686 161.187927 
L 155.816198 163.626069 
L 159.095537 160.21267 
L 162.374876 160.700298 
L 165.654215 162.163184 
L 168.933554 161.675555 
L 172.212893 164.113697 
L 175.492231 162.650812 
L 178.77157 163.138441 
L 182.050909 167.527097 
L 185.330248 163.626069 
L 188.609587 168.989982 
L 191.888926 168.989982 
L 195.168264 153.8735 
L 198.447603 165.088954 
L 201.726942 173.378638 
L 205.006281 159.725041 
L 208.28562 170.940496 
L 211.564959 166.55184 
L 214.844298 177.279666 
L 218.123636 168.502354 
L 221.402975 173.378638 
L 224.682314 176.792037 
L 227.961653 174.353895 
L 231.240992 165.088954 
L 234.520331 168.502354 
L 237.799669 178.742551 
L 241.079008 182.15595 
L 244.358347 186.056978 
L 247.637686 179.717808 
L 250.917025 183.131207 
L 254.196364 186.056978 
L 257.475702 185.081721 
L 260.755041 182.643579 
L 264.03438 182.643579 
L 267.313719 186.056978 
L 270.593058 191.908519 
L 273.872397 194.83429 
L 277.151736 190.445634 
L 280.431074 189.958005 
L 283.710413 196.297175 
L 286.989752 184.106464 
L 290.269091 191.908519 
L 293.54843 202.636345 
L 296.827769 209.463144 
L 300.107107 194.83429 
L 303.386446 203.611602 
L 306.665785 195.321918 
L 309.945124 207.51263 
L 313.224463 202.148717 
L 316.503802 194.346662 
L 319.78314 203.123974 
L 323.062479 193.859033 
L 326.341818 210.926029 
L 329.621157 209.463144 
L 332.900496 201.17346 
L 336.179835 202.636345 
L 339.459174 208.000258 
L 342.738512 197.272432 
L 346.017851 211.413657 
L 349.29719 210.926029 
L 352.576529 212.876543 
L 355.855868 208.975515 
L 359.135207 211.901286 
L 362.414545 206.537373 
L 365.693884 216.289942 
L 368.973223 222.629112 
L 372.252562 223.604369 
L 375.531901 218.728084 
L 378.81124 224.091997 
L 382.090579 220.678598 
L 385.369917 225.067254 
L 388.649256 220.19097 
L 391.928595 214.827057 
L 395.207934 223.11674 
L 398.487273 220.678598 
" style="fill:none;stroke:#1f77b4;stroke-linecap:square;stroke-width:1.5;"/>
   </g>
   <g id="line2d_13">
    <path clip-path="url(#p905c68f3be)" d="M 73.832727 168.989982 
L 77.112066 165.576583 
L 80.391405 163.626069 
L 83.670744 167.527097 
L 86.950083 157.286899 
L 90.229421 165.088954 
L 93.50876 159.237413 
L 96.788099 166.064211 
L 100.067438 171.428124 
L 103.346777 164.113697 
L 106.626116 172.89101 
L 109.905455 173.378638 
L 113.184793 174.353895 
L 116.464132 172.89101 
L 119.743471 179.717808 
L 123.02281 187.519863 
L 126.302149 184.106464 
L 129.581488 190.445634 
L 132.860826 187.519863 
L 136.140165 202.148717 
L 139.419504 197.760061 
L 142.698843 200.198203 
L 145.978182 203.611602 
L 149.257521 197.272432 
L 152.53686 199.710575 
L 155.816198 206.537373 
L 159.095537 210.926029 
L 162.374876 209.463144 
L 165.654215 208.000258 
L 168.933554 212.876543 
L 172.212893 209.463144 
L 175.492231 215.802314 
L 178.77157 214.827057 
L 182.050909 215.314685 
L 185.330248 216.289942 
L 188.609587 212.876543 
L 191.888926 216.289942 
L 195.168264 215.314685 
L 198.447603 214.339428 
L 201.726942 211.413657 
L 205.006281 215.802314 
L 208.28562 214.827057 
L 211.564959 214.339428 
L 214.844298 216.289942 
L 218.123636 217.265199 
L 221.402975 216.77757 
L 224.682314 216.289942 
L 227.961653 216.77757 
L 231.240992 217.265199 
L 234.520331 217.752827 
L 237.799669 217.265199 
L 241.079008 217.752827 
L 244.358347 217.265199 
L 247.637686 218.240456 
L 250.917025 217.752827 
L 254.196364 217.752827 
L 257.475702 217.752827 
L 260.755041 217.752827 
L 264.03438 217.752827 
L 267.313719 217.752827 
L 270.593058 217.752827 
L 273.872397 217.752827 
L 277.151736 217.752827 
L 280.431074 217.752827 
L 283.710413 217.752827 
L 286.989752 217.752827 
L 290.269091 217.752827 
L 293.54843 217.752827 
L 296.827769 217.265199 
L 300.107107 217.752827 
L 303.386446 217.752827 
L 306.665785 217.752827 
L 309.945124 217.752827 
L 313.224463 217.752827 
L 316.503802 217.752827 
L 319.78314 217.752827 
L 323.062479 217.752827 
L 326.341818 217.752827 
L 329.621157 217.752827 
L 332.900496 217.752827 
L 336.179835 217.752827 
L 339.459174 217.752827 
L 342.738512 217.752827 
L 346.017851 217.752827 
L 349.29719 217.752827 
L 352.576529 217.752827 
L 355.855868 217.752827 
L 359.135207 217.752827 
L 362.414545 217.752827 
L 365.693884 217.752827 
L 368.973223 217.752827 
L 372.252562 217.752827 
L 375.531901 217.752827 
L 378.81124 217.752827 
L 382.090579 217.752827 
L 385.369917 217.752827 
L 388.649256 217.752827 
L 391.928595 217.752827 
L 395.207934 217.752827 
L 398.487273 217.752827 
" style="fill:none;stroke:#ff7f0e;stroke-linecap:square;stroke-width:1.5;"/>
   </g>
   <g id="line2d_14">
    <path clip-path="url(#p905c68f3be)" d="M 73.832727 120.227142 
L 77.112066 110.47457 
L 80.391405 115.838484 
L 83.670744 109.986942 
L 86.950083 109.011685 
L 90.229421 105.110657 
L 93.50876 106.085912 
L 96.788099 106.573542 
L 100.067438 104.135398 
L 103.346777 102.184884 
L 106.626116 102.184885 
L 109.905455 93.407572 
L 113.184793 109.499311 
L 116.464132 107.061169 
L 119.743471 106.085912 
L 123.02281 107.548797 
L 126.302149 111.937453 
L 129.581488 101.697255 
L 132.860826 103.160141 
L 136.140165 108.036424 
L 139.419504 101.209627 
L 142.698843 108.036425 
L 145.978182 106.57354 
L 149.257521 116.326108 
L 152.53686 105.598282 
L 155.816198 110.962196 
L 159.095537 110.962197 
L 162.374876 114.375594 
L 165.654215 112.912709 
L 168.933554 118.76425 
L 172.212893 115.350851 
L 175.492231 116.813735 
L 178.77157 120.227137 
L 182.050909 117.301365 
L 185.330248 121.690021 
L 188.609587 124.615792 
L 191.888926 116.813735 
L 195.168264 119.251879 
L 198.447603 130.467332 
L 201.726942 131.442589 
L 205.006281 122.665277 
L 208.28562 122.177649 
L 211.564959 130.954962 
L 214.844298 137.29413 
L 218.123636 133.393105 
L 221.402975 134.368359 
L 224.682314 129.004447 
L 227.961653 124.615792 
L 231.240992 133.880732 
L 234.520331 138.269387 
L 237.799669 143.633301 
L 241.079008 131.442588 
L 244.358347 147.534327 
L 247.637686 151.435356 
L 250.917025 143.633301 
L 254.196364 146.55907 
L 257.475702 142.658044 
L 260.755041 146.071442 
L 264.03438 148.021957 
L 267.313719 147.046699 
L 270.593058 145.096186 
L 273.872397 150.947727 
L 277.151736 155.336383 
L 280.431074 156.799267 
L 283.710413 159.23741 
L 286.989752 151.435355 
L 290.269091 161.187924 
L 293.54843 169.965237 
L 296.827769 166.06421 
L 300.107107 148.997213 
L 303.386446 163.626067 
L 306.665785 158.262154 
L 309.945124 153.873498 
L 313.224463 169.477607 
L 316.503802 165.088952 
L 319.78314 149.972471 
L 323.062479 161.675552 
L 326.341818 162.65081 
L 329.621157 159.725039 
L 332.900496 166.064209 
L 336.179835 171.91575 
L 339.459174 172.403379 
L 342.738512 178.254921 
L 346.017851 182.643577 
L 349.29719 180.693062 
L 352.576529 191.908516 
L 355.855868 174.841521 
L 359.135207 181.668317 
L 362.414545 168.989979 
L 365.693884 188.495116 
L 368.973223 190.445631 
L 372.252562 196.297172 
L 375.531901 183.618832 
L 378.81124 178.25492 
L 382.090579 201.661086 
L 385.369917 193.371402 
L 388.649256 205.562113 
L 391.928595 201.661085 
L 395.207934 208.975512 
L 398.487273 204.586857 
" style="fill:none;stroke:#2ca02c;stroke-linecap:square;stroke-width:1.5;"/>
   </g>
   <g id="line2d_15">
    <path clip-path="url(#p905c68f3be)" d="M 73.832727 217.752827 
L 77.112066 195.321918 
L 80.391405 183.618836 
L 83.670744 175.81678 
L 86.950083 180.693065 
L 90.229421 183.131207 
L 93.50876 173.866267 
L 96.788099 174.841523 
L 100.067438 184.106464 
L 103.346777 169.965239 
L 106.626116 172.403381 
L 109.905455 165.576583 
L 113.184793 172.403381 
L 116.464132 184.106464 
L 119.743471 174.353895 
L 123.02281 175.81678 
L 126.302149 173.378638 
L 129.581488 179.23018 
L 132.860826 165.088954 
L 136.140165 174.353895 
L 139.419504 164.113697 
L 142.698843 160.700298 
L 145.978182 170.452867 
L 149.257521 168.989982 
L 152.53686 182.15595 
L 155.816198 176.792037 
L 159.095537 168.989982 
L 162.374876 178.742551 
L 165.654215 169.965239 
L 168.933554 172.403381 
L 172.212893 176.304409 
L 175.492231 173.378638 
L 178.77157 187.032235 
L 182.050909 175.81678 
L 185.330248 175.81678 
L 188.609587 174.841523 
L 191.888926 180.205436 
L 195.168264 180.205436 
L 198.447603 174.841523 
L 201.726942 172.403381 
L 205.006281 163.138441 
L 208.28562 168.014725 
L 211.564959 177.279666 
L 214.844298 180.205436 
L 218.123636 157.286899 
L 221.402975 182.643579 
L 224.682314 187.519863 
L 227.961653 173.378638 
L 231.240992 181.180693 
L 234.520331 172.89101 
L 237.799669 184.106464 
L 241.079008 172.89101 
L 244.358347 200.198203 
L 247.637686 181.180693 
L 250.917025 189.958005 
L 254.196364 186.056978 
L 257.475702 190.445634 
L 260.755041 188.007492 
L 264.03438 185.081721 
L 267.313719 178.254923 
L 270.593058 175.329152 
L 273.872397 182.15595 
L 277.151736 191.420891 
L 280.431074 180.693065 
L 283.710413 200.198203 
L 286.989752 184.106464 
L 290.269091 202.148717 
L 293.54843 208.000258 
L 296.827769 199.710575 
L 300.107107 176.792037 
L 303.386446 193.859033 
L 306.665785 184.106464 
L 309.945124 189.958005 
L 313.224463 190.445634 
L 316.503802 177.279666 
L 319.78314 196.297175 
L 323.062479 196.784804 
L 326.341818 205.562116 
L 329.621157 192.883776 
L 332.900496 203.123974 
L 336.179835 194.83429 
L 339.459174 204.099231 
L 342.738512 195.321918 
L 346.017851 215.314685 
L 349.29719 208.487887 
L 352.576529 203.611602 
L 355.855868 190.933262 
L 359.135207 212.388914 
L 362.414545 194.83429 
L 365.693884 209.463144 
L 368.973223 202.636345 
L 372.252562 219.215713 
L 375.531901 192.396148 
L 378.81124 205.074488 
L 382.090579 198.247689 
L 385.369917 210.926029 
L 388.649256 203.123974 
L 391.928595 212.388914 
L 395.207934 213.8518 
L 398.487273 216.289942 
" style="fill:none;stroke:#d62728;stroke-linecap:square;stroke-width:1.5;"/>
   </g>
   <g id="patch_3">
    <path d="M 57.6 307.584 
L 57.6 41.472 
" style="fill:none;stroke:#000000;stroke-linecap:square;stroke-linejoin:miter;stroke-width:0.8;"/>
   </g>
   <g id="patch_4">
    <path d="M 414.72 307.584 
L 414.72 41.472 
" style="fill:none;stroke:#000000;stroke-linecap:square;stroke-linejoin:miter;stroke-width:0.8;"/>
   </g>
   <g id="patch_5">
    <path d="M 57.6 307.584 
L 414.72 307.584 
" style="fill:none;stroke:#000000;stroke-linecap:square;stroke-linejoin:miter;stroke-width:0.8;"/>
   </g>
   <g id="patch_6">
    <path d="M 57.6 41.472 
L 414.72 41.472 
" style="fill:none;stroke:#000000;stroke-linecap:square;stroke-linejoin:miter;stroke-width:0.8;"/>
   </g>
   <g id="text_14">
    <!-- Toy_linear_100_100 -->
    <g transform="translate(177.41625 35.472)scale(0.12 -0.12)">
     <defs>
      <path d="M -0.296875 72.90625 
L 61.375 72.90625 
L 61.375 64.59375 
L 35.5 64.59375 
L 35.5 0 
L 25.59375 0 
L 25.59375 64.59375 
L -0.296875 64.59375 
z
" id="DejaVuSans-84"/>
      <path d="M 50.984375 -16.609375 
L 50.984375 -23.578125 
L -0.984375 -23.578125 
L -0.984375 -16.609375 
z
" id="DejaVuSans-95"/>
      <path d="M 9.421875 75.984375 
L 18.40625 75.984375 
L 18.40625 0 
L 9.421875 0 
z
" id="DejaVuSans-108"/>
      <path d="M 9.421875 54.6875 
L 18.40625 54.6875 
L 18.40625 0 
L 9.421875 0 
z
M 9.421875 75.984375 
L 18.40625 75.984375 
L 18.40625 64.59375 
L 9.421875 64.59375 
z
" id="DejaVuSans-105"/>
      <path d="M 54.890625 33.015625 
L 54.890625 0 
L 45.90625 0 
L 45.90625 32.71875 
Q 45.90625 40.484375 42.875 44.328125 
Q 39.84375 48.1875 33.796875 48.1875 
Q 26.515625 48.1875 22.3125 43.546875 
Q 18.109375 38.921875 18.109375 30.90625 
L 18.109375 0 
L 9.078125 0 
L 9.078125 54.6875 
L 18.109375 54.6875 
L 18.109375 46.1875 
Q 21.34375 51.125 25.703125 53.5625 
Q 30.078125 56 35.796875 56 
Q 45.21875 56 50.046875 50.171875 
Q 54.890625 44.34375 54.890625 33.015625 
z
" id="DejaVuSans-110"/>
     </defs>
     <use xlink:href="#DejaVuSans-84"/>
     <use x="44.083984" xlink:href="#DejaVuSans-111"/>
     <use x="105.265625" xlink:href="#DejaVuSans-121"/>
     <use x="164.445312" xlink:href="#DejaVuSans-95"/>
     <use x="214.445312" xlink:href="#DejaVuSans-108"/>
     <use x="242.228516" xlink:href="#DejaVuSans-105"/>
     <use x="270.011719" xlink:href="#DejaVuSans-110"/>
     <use x="333.390625" xlink:href="#DejaVuSans-101"/>
     <use x="394.914062" xlink:href="#DejaVuSans-97"/>
     <use x="456.193359" xlink:href="#DejaVuSans-114"/>
     <use x="497.306641" xlink:href="#DejaVuSans-95"/>
     <use x="547.306641" xlink:href="#DejaVuSans-49"/>
     <use x="610.929688" xlink:href="#DejaVuSans-48"/>
     <use x="674.552734" xlink:href="#DejaVuSans-48"/>
     <use x="738.175781" xlink:href="#DejaVuSans-95"/>
     <use x="788.175781" xlink:href="#DejaVuSans-49"/>
     <use x="851.798828" xlink:href="#DejaVuSans-48"/>
     <use x="915.421875" xlink:href="#DejaVuSans-48"/>
    </g>
   </g>
   <g id="legend_1">
    <g id="patch_7">
     <path d="M 211.399687 108.1845 
L 407.72 108.1845 
Q 409.72 108.1845 409.72 106.1845 
L 409.72 48.472 
Q 409.72 46.472 407.72 46.472 
L 211.399687 46.472 
Q 209.399687 46.472 209.399687 48.472 
L 209.399687 106.1845 
Q 209.399687 108.1845 211.399687 108.1845 
z
" style="fill:#ffffff;opacity:0.8;stroke:#cccccc;stroke-linejoin:miter;"/>
    </g>
    <g id="line2d_16">
     <path d="M 213.399687 54.570438 
L 233.399687 54.570438 
" style="fill:none;stroke:#1f77b4;stroke-linecap:square;stroke-width:1.5;"/>
    </g>
    <g id="line2d_17"/>
    <g id="text_15">
     <!-- Random Forest -->
     <g transform="translate(241.399687 58.070438)scale(0.1 -0.1)">
      <defs>
       <path d="M 44.390625 34.1875 
Q 47.5625 33.109375 50.5625 29.59375 
Q 53.5625 26.078125 56.59375 19.921875 
L 66.609375 0 
L 56 0 
L 46.6875 18.703125 
Q 43.0625 26.03125 39.671875 28.421875 
Q 36.28125 30.8125 30.421875 30.8125 
L 19.671875 30.8125 
L 19.671875 0 
L 9.8125 0 
L 9.8125 72.90625 
L 32.078125 72.90625 
Q 44.578125 72.90625 50.734375 67.671875 
Q 56.890625 62.453125 56.890625 51.90625 
Q 56.890625 45.015625 53.6875 40.46875 
Q 50.484375 35.9375 44.390625 34.1875 
z
M 19.671875 64.796875 
L 19.671875 38.921875 
L 32.078125 38.921875 
Q 39.203125 38.921875 42.84375 42.21875 
Q 46.484375 45.515625 46.484375 51.90625 
Q 46.484375 58.296875 42.84375 61.546875 
Q 39.203125 64.796875 32.078125 64.796875 
z
" id="DejaVuSans-82"/>
       <path d="M 45.40625 46.390625 
L 45.40625 75.984375 
L 54.390625 75.984375 
L 54.390625 0 
L 45.40625 0 
L 45.40625 8.203125 
Q 42.578125 3.328125 38.25 0.953125 
Q 33.9375 -1.421875 27.875 -1.421875 
Q 17.96875 -1.421875 11.734375 6.484375 
Q 5.515625 14.40625 5.515625 27.296875 
Q 5.515625 40.1875 11.734375 48.09375 
Q 17.96875 56 27.875 56 
Q 33.9375 56 38.25 53.625 
Q 42.578125 51.265625 45.40625 46.390625 
z
M 14.796875 27.296875 
Q 14.796875 17.390625 18.875 11.75 
Q 22.953125 6.109375 30.078125 6.109375 
Q 37.203125 6.109375 41.296875 11.75 
Q 45.40625 17.390625 45.40625 27.296875 
Q 45.40625 37.203125 41.296875 42.84375 
Q 37.203125 48.484375 30.078125 48.484375 
Q 22.953125 48.484375 18.875 42.84375 
Q 14.796875 37.203125 14.796875 27.296875 
z
" id="DejaVuSans-100"/>
       <path d="M 9.8125 72.90625 
L 51.703125 72.90625 
L 51.703125 64.59375 
L 19.671875 64.59375 
L 19.671875 43.109375 
L 48.578125 43.109375 
L 48.578125 34.8125 
L 19.671875 34.8125 
L 19.671875 0 
L 9.8125 0 
z
" id="DejaVuSans-70"/>
      </defs>
      <use xlink:href="#DejaVuSans-82"/>
      <use x="67.232422" xlink:href="#DejaVuSans-97"/>
      <use x="128.511719" xlink:href="#DejaVuSans-110"/>
      <use x="191.890625" xlink:href="#DejaVuSans-100"/>
      <use x="255.367188" xlink:href="#DejaVuSans-111"/>
      <use x="316.548828" xlink:href="#DejaVuSans-109"/>
      <use x="413.960938" xlink:href="#DejaVuSans-32"/>
      <use x="445.748047" xlink:href="#DejaVuSans-70"/>
      <use x="499.642578" xlink:href="#DejaVuSans-111"/>
      <use x="560.824219" xlink:href="#DejaVuSans-114"/>
      <use x="599.6875" xlink:href="#DejaVuSans-101"/>
      <use x="661.210938" xlink:href="#DejaVuSans-115"/>
      <use x="713.310547" xlink:href="#DejaVuSans-116"/>
     </g>
    </g>
    <g id="line2d_18">
     <path d="M 213.399687 69.248563 
L 233.399687 69.248563 
" style="fill:none;stroke:#ff7f0e;stroke-linecap:square;stroke-width:1.5;"/>
    </g>
    <g id="line2d_19"/>
    <g id="text_16">
     <!-- XGBoost -->
     <g transform="translate(241.399687 72.748563)scale(0.1 -0.1)">
      <defs>
       <path d="M 6.296875 72.90625 
L 16.890625 72.90625 
L 35.015625 45.796875 
L 53.21875 72.90625 
L 63.8125 72.90625 
L 40.375 37.890625 
L 65.375 0 
L 54.78125 0 
L 34.28125 31 
L 13.625 0 
L 2.984375 0 
L 29 38.921875 
z
" id="DejaVuSans-88"/>
       <path d="M 59.515625 10.40625 
L 59.515625 29.984375 
L 43.40625 29.984375 
L 43.40625 38.09375 
L 69.28125 38.09375 
L 69.28125 6.78125 
Q 63.578125 2.734375 56.6875 0.65625 
Q 49.8125 -1.421875 42 -1.421875 
Q 24.90625 -1.421875 15.25 8.5625 
Q 5.609375 18.5625 5.609375 36.375 
Q 5.609375 54.25 15.25 64.234375 
Q 24.90625 74.21875 42 74.21875 
Q 49.125 74.21875 55.546875 72.453125 
Q 61.96875 70.703125 67.390625 67.28125 
L 67.390625 56.78125 
Q 61.921875 61.421875 55.765625 63.765625 
Q 49.609375 66.109375 42.828125 66.109375 
Q 29.4375 66.109375 22.71875 58.640625 
Q 16.015625 51.171875 16.015625 36.375 
Q 16.015625 21.625 22.71875 14.15625 
Q 29.4375 6.6875 42.828125 6.6875 
Q 48.046875 6.6875 52.140625 7.59375 
Q 56.25 8.5 59.515625 10.40625 
z
" id="DejaVuSans-71"/>
       <path d="M 19.671875 34.8125 
L 19.671875 8.109375 
L 35.5 8.109375 
Q 43.453125 8.109375 47.28125 11.40625 
Q 51.125 14.703125 51.125 21.484375 
Q 51.125 28.328125 47.28125 31.5625 
Q 43.453125 34.8125 35.5 34.8125 
z
M 19.671875 64.796875 
L 19.671875 42.828125 
L 34.28125 42.828125 
Q 41.5 42.828125 45.03125 45.53125 
Q 48.578125 48.25 48.578125 53.8125 
Q 48.578125 59.328125 45.03125 62.0625 
Q 41.5 64.796875 34.28125 64.796875 
z
M 9.8125 72.90625 
L 35.015625 72.90625 
Q 46.296875 72.90625 52.390625 68.21875 
Q 58.5 63.53125 58.5 54.890625 
Q 58.5 48.1875 55.375 44.234375 
Q 52.25 40.28125 46.1875 39.3125 
Q 53.46875 37.75 57.5 32.78125 
Q 61.53125 27.828125 61.53125 20.40625 
Q 61.53125 10.640625 54.890625 5.3125 
Q 48.25 0 35.984375 0 
L 9.8125 0 
z
" id="DejaVuSans-66"/>
      </defs>
      <use xlink:href="#DejaVuSans-88"/>
      <use x="68.505859" xlink:href="#DejaVuSans-71"/>
      <use x="145.996094" xlink:href="#DejaVuSans-66"/>
      <use x="214.599609" xlink:href="#DejaVuSans-111"/>
      <use x="275.78125" xlink:href="#DejaVuSans-111"/>
      <use x="336.962891" xlink:href="#DejaVuSans-115"/>
      <use x="389.0625" xlink:href="#DejaVuSans-116"/>
     </g>
    </g>
    <g id="line2d_20">
     <path d="M 213.399687 83.926688 
L 233.399687 83.926688 
" style="fill:none;stroke:#2ca02c;stroke-linecap:square;stroke-width:1.5;"/>
    </g>
    <g id="line2d_21"/>
    <g id="text_17">
     <!-- Neural Network + Regularization -->
     <g transform="translate(241.399687 87.426688)scale(0.1 -0.1)">
      <defs>
       <path d="M 4.203125 54.6875 
L 13.1875 54.6875 
L 24.421875 12.015625 
L 35.59375 54.6875 
L 46.1875 54.6875 
L 57.421875 12.015625 
L 68.609375 54.6875 
L 77.59375 54.6875 
L 63.28125 0 
L 52.6875 0 
L 40.921875 44.828125 
L 29.109375 0 
L 18.5 0 
z
" id="DejaVuSans-119"/>
       <path d="M 9.078125 75.984375 
L 18.109375 75.984375 
L 18.109375 31.109375 
L 44.921875 54.6875 
L 56.390625 54.6875 
L 27.390625 29.109375 
L 57.625 0 
L 45.90625 0 
L 18.109375 26.703125 
L 18.109375 0 
L 9.078125 0 
z
" id="DejaVuSans-107"/>
       <path d="M 46 62.703125 
L 46 35.5 
L 73.1875 35.5 
L 73.1875 27.203125 
L 46 27.203125 
L 46 0 
L 37.796875 0 
L 37.796875 27.203125 
L 10.59375 27.203125 
L 10.59375 35.5 
L 37.796875 35.5 
L 37.796875 62.703125 
z
" id="DejaVuSans-43"/>
       <path d="M 45.40625 27.984375 
Q 45.40625 37.75 41.375 43.109375 
Q 37.359375 48.484375 30.078125 48.484375 
Q 22.859375 48.484375 18.828125 43.109375 
Q 14.796875 37.75 14.796875 27.984375 
Q 14.796875 18.265625 18.828125 12.890625 
Q 22.859375 7.515625 30.078125 7.515625 
Q 37.359375 7.515625 41.375 12.890625 
Q 45.40625 18.265625 45.40625 27.984375 
z
M 54.390625 6.78125 
Q 54.390625 -7.171875 48.1875 -13.984375 
Q 42 -20.796875 29.203125 -20.796875 
Q 24.46875 -20.796875 20.265625 -20.09375 
Q 16.0625 -19.390625 12.109375 -17.921875 
L 12.109375 -9.1875 
Q 16.0625 -11.328125 19.921875 -12.34375 
Q 23.78125 -13.375 27.78125 -13.375 
Q 36.625 -13.375 41.015625 -8.765625 
Q 45.40625 -4.15625 45.40625 5.171875 
L 45.40625 9.625 
Q 42.625 4.78125 38.28125 2.390625 
Q 33.9375 0 27.875 0 
Q 17.828125 0 11.671875 7.65625 
Q 5.515625 15.328125 5.515625 27.984375 
Q 5.515625 40.671875 11.671875 48.328125 
Q 17.828125 56 27.875 56 
Q 33.9375 56 38.28125 53.609375 
Q 42.625 51.21875 45.40625 46.390625 
L 45.40625 54.6875 
L 54.390625 54.6875 
z
" id="DejaVuSans-103"/>
       <path d="M 5.515625 54.6875 
L 48.1875 54.6875 
L 48.1875 46.484375 
L 14.40625 7.171875 
L 48.1875 7.171875 
L 48.1875 0 
L 4.296875 0 
L 4.296875 8.203125 
L 38.09375 47.515625 
L 5.515625 47.515625 
z
" id="DejaVuSans-122"/>
      </defs>
      <use xlink:href="#DejaVuSans-78"/>
      <use x="74.804688" xlink:href="#DejaVuSans-101"/>
      <use x="136.328125" xlink:href="#DejaVuSans-117"/>
      <use x="199.707031" xlink:href="#DejaVuSans-114"/>
      <use x="240.820312" xlink:href="#DejaVuSans-97"/>
      <use x="302.099609" xlink:href="#DejaVuSans-108"/>
      <use x="329.882812" xlink:href="#DejaVuSans-32"/>
      <use x="361.669922" xlink:href="#DejaVuSans-78"/>
      <use x="436.474609" xlink:href="#DejaVuSans-101"/>
      <use x="497.998047" xlink:href="#DejaVuSans-116"/>
      <use x="537.207031" xlink:href="#DejaVuSans-119"/>
      <use x="618.994141" xlink:href="#DejaVuSans-111"/>
      <use x="680.175781" xlink:href="#DejaVuSans-114"/>
      <use x="721.289062" xlink:href="#DejaVuSans-107"/>
      <use x="779.199219" xlink:href="#DejaVuSans-32"/>
      <use x="810.986328" xlink:href="#DejaVuSans-43"/>
      <use x="894.775391" xlink:href="#DejaVuSans-32"/>
      <use x="926.5625" xlink:href="#DejaVuSans-82"/>
      <use x="991.544922" xlink:href="#DejaVuSans-101"/>
      <use x="1053.068359" xlink:href="#DejaVuSans-103"/>
      <use x="1116.544922" xlink:href="#DejaVuSans-117"/>
      <use x="1179.923828" xlink:href="#DejaVuSans-108"/>
      <use x="1207.707031" xlink:href="#DejaVuSans-97"/>
      <use x="1268.986328" xlink:href="#DejaVuSans-114"/>
      <use x="1310.099609" xlink:href="#DejaVuSans-105"/>
      <use x="1337.882812" xlink:href="#DejaVuSans-122"/>
      <use x="1390.373047" xlink:href="#DejaVuSans-97"/>
      <use x="1451.652344" xlink:href="#DejaVuSans-116"/>
      <use x="1490.861328" xlink:href="#DejaVuSans-105"/>
      <use x="1518.644531" xlink:href="#DejaVuSans-111"/>
      <use x="1579.826172" xlink:href="#DejaVuSans-110"/>
     </g>
    </g>
    <g id="line2d_22">
     <path d="M 213.399687 98.604813 
L 233.399687 98.604813 
" style="fill:none;stroke:#d62728;stroke-linecap:square;stroke-width:1.5;"/>
    </g>
    <g id="line2d_23"/>
    <g id="text_18">
     <!-- KNN -->
     <g transform="translate(241.399687 102.104813)scale(0.1 -0.1)">
      <defs>
       <path d="M 9.8125 72.90625 
L 19.671875 72.90625 
L 19.671875 42.09375 
L 52.390625 72.90625 
L 65.09375 72.90625 
L 28.90625 38.921875 
L 67.671875 0 
L 54.6875 0 
L 19.671875 35.109375 
L 19.671875 0 
L 9.8125 0 
z
" id="DejaVuSans-75"/>
      </defs>
      <use xlink:href="#DejaVuSans-75"/>
      <use x="65.576172" xlink:href="#DejaVuSans-78"/>
      <use x="140.380859" xlink:href="#DejaVuSans-78"/>
     </g>
    </g>
   </g>
  </g>
 </g>
 <defs>
  <clipPath id="p905c68f3be">
   <rect height="266.112" width="357.12" x="57.6" y="41.472"/>
  </clipPath>
 </defs>
</svg>
