<?xml version="1.0" encoding="utf-8" standalone="no"?>
<!DOCTYPE svg PUBLIC "-//W3C//DTD SVG 1.1//EN"
  "http://www.w3.org/Graphics/SVG/1.1/DTD/svg11.dtd">
<!-- Created with matplotlib (https://matplotlib.org/) -->
<svg height="345.6pt" version="1.1" viewBox="0 0 460.8 345.6" width="460.8pt" xmlns="http://www.w3.org/2000/svg" xmlns:xlink="http://www.w3.org/1999/xlink">
 <metadata>
  <rdf:RDF xmlns:cc="http://creativecommons.org/ns#" xmlns:dc="http://purl.org/dc/elements/1.1/" xmlns:rdf="http://www.w3.org/1999/02/22-rdf-syntax-ns#">
   <cc:Work>
    <dc:type rdf:resource="http://purl.org/dc/dcmitype/StillImage"/>
    <dc:date>2023-09-19T15:49:32.203236</dc:date>
    <dc:format>image/svg+xml</dc:format>
    <dc:creator>
     <cc:Agent>
      <dc:title>Matplotlib v3.3.4, https://matplotlib.org/</dc:title>
     </cc:Agent>
    </dc:creator>
   </cc:Work>
  </rdf:RDF>
 </metadata>
 <defs>
  <style type="text/css">*{stroke-linecap:butt;stroke-linejoin:round;}</style>
 </defs>
 <g id="figure_1">
  <g id="patch_1">
   <path d="M 0 345.6 
L 460.8 345.6 
L 460.8 0 
L 0 0 
z
" style="fill:#ffffff;"/>
  </g>
  <g id="axes_1">
   <g id="patch_2">
    <path d="M 57.6 307.584 
L 414.72 307.584 
L 414.72 41.472 
L 57.6 41.472 
z
" style="fill:#ffffff;"/>
   </g>
   <g id="PolyCollection_1">
    <path clip-path="url(#p262342d215)" d="M 73.832727 170.302719 
L 73.832727 170.302719 
L 77.112066 181.580157 
L 80.391405 194.728219 
L 83.670744 204.414921 
L 86.950083 206.149279 
L 90.229421 213.67767 
L 93.50876 219.852903 
L 96.788099 223.823165 
L 100.067438 224.792019 
L 103.346777 223.829675 
L 106.626116 230.897411 
L 109.905455 224.280763 
L 113.184793 238.692774 
L 116.464132 233.831587 
L 119.743471 222.349133 
L 123.02281 231.470703 
L 126.302149 238.567946 
L 129.581488 238.531498 
L 132.860826 238.417161 
L 136.140165 237.115397 
L 139.419504 234.115612 
L 142.698843 245.764911 
L 145.978182 238.545903 
L 149.257521 242.500749 
L 152.53686 255.185899 
L 155.816198 256.337854 
L 159.095537 245.076989 
L 162.374876 250.53079 
L 165.654215 250.293917 
L 168.933554 247.261134 
L 172.212893 237.736775 
L 175.492231 257.280624 
L 178.77157 249.778948 
L 182.050909 257.887963 
L 185.330248 252.166155 
L 188.609587 260.85717 
L 191.888926 252.173177 
L 195.168264 252.144935 
L 198.447603 253.776499 
L 201.726942 251.45756 
L 205.006281 250.318497 
L 208.28562 255.488361 
L 211.564959 256.423388 
L 214.844298 268.545923 
L 218.123636 264.203818 
L 221.402975 252.840037 
L 224.682314 254.537725 
L 227.961653 262.496867 
L 231.240992 271.167364 
L 234.520331 267.496165 
L 237.799669 260.291549 
L 241.079008 259.873914 
L 244.358347 262.628847 
L 247.637686 260.387862 
L 250.917025 264.310412 
L 254.196364 267.715703 
L 257.475702 270.884308 
L 260.755041 274.786181 
L 264.03438 261.031791 
L 267.313719 259.815841 
L 270.593058 271.221284 
L 273.872397 269.54288 
L 277.151736 266.375873 
L 280.431074 263.5921 
L 283.710413 281.012279 
L 286.989752 263.840607 
L 290.269091 273.913867 
L 293.54843 275.52619 
L 296.827769 270.598606 
L 300.107107 277.381 
L 303.386446 280.646812 
L 306.665785 281.254143 
L 309.945124 276.034375 
L 313.224463 273.538053 
L 316.503802 280.607953 
L 319.78314 280.038998 
L 323.062479 275.52619 
L 326.341818 283.301774 
L 329.621157 275.051155 
L 332.900496 277.735676 
L 336.179835 280.049515 
L 339.459174 287.716758 
L 342.738512 275.861535 
L 346.017851 286.062307 
L 349.29719 274.231152 
L 352.576529 278.973357 
L 355.855868 284.368086 
L 359.135207 276.848285 
L 362.414545 282.861955 
L 365.693884 279.422548 
L 368.973223 280.41424 
L 372.252562 281.168568 
L 375.531901 281.842725 
L 378.81124 278.587703 
L 382.090579 276.373072 
L 385.369917 277.178236 
L 388.649256 273.554452 
L 391.928595 272.769889 
L 395.207934 262.06232 
L 398.487273 262.06232 
L 398.487273 262.06232 
L 398.487273 262.06232 
L 395.207934 262.06232 
L 391.928595 252.272347 
L 388.649256 245.064611 
L 385.369917 234.100059 
L 382.090579 240.4108 
L 378.81124 229.937804 
L 375.531901 221.177206 
L 372.252562 224.604151 
L 368.973223 216.182519 
L 365.693884 222.679787 
L 362.414545 223.82836 
L 359.135207 224.336454 
L 355.855868 211.311077 
L 352.576529 197.43629 
L 349.29719 200.343303 
L 346.017851 203.193684 
L 342.738512 204.218496 
L 339.459174 199.704041 
L 336.179835 192.689748 
L 332.900496 181.239646 
L 329.621157 192.182532 
L 326.341818 189.437488 
L 323.062479 170.602788 
L 319.78314 191.782669 
L 316.503802 184.790541 
L 313.224463 164.332562 
L 309.945124 174.682583 
L 306.665785 162.122048 
L 303.386446 164.56457 
L 300.107107 165.077594 
L 296.827769 171.859988 
L 293.54843 170.602788 
L 290.269091 170.379919 
L 286.989752 152.925299 
L 283.710413 161.446315 
L 280.431074 160.514574 
L 277.151736 157.730801 
L 273.872397 160.986967 
L 270.593058 172.154906 
L 267.313719 157.867662 
L 264.03438 149.310944 
L 260.755041 164.919625 
L 257.475702 152.30477 
L 254.196364 153.638183 
L 250.917025 149.702707 
L 247.637686 155.460448 
L 244.358347 155.054655 
L 241.079008 166.067952 
L 237.799669 149.133589 
L 234.520331 150.187337 
L 231.240992 158.444886 
L 227.961653 149.681059 
L 224.682314 144.793856 
L 221.402975 152.914717 
L 218.123636 158.067664 
L 214.844298 150.055176 
L 211.564959 142.908194 
L 208.28562 135.584857 
L 205.006281 154.518661 
L 201.726942 135.027678 
L 198.447603 146.472679 
L 195.168264 144.433859 
L 191.888926 148.993596 
L 188.609587 158.661524 
L 185.330248 145.330235 
L 182.050909 141.443619 
L 178.77157 138.541482 
L 175.492231 146.638938 
L 172.212893 123.973371 
L 168.933554 138.306508 
L 165.654215 139.861705 
L 162.374876 137.78964 
L 159.095537 137.737865 
L 155.816198 141.158536 
L 152.53686 141.392895 
L 149.257521 147.654873 
L 145.978182 129.587414 
L 142.698843 136.132346 
L 139.419504 134.017705 
L 136.140165 131.935517 
L 132.860826 148.985673 
L 129.581488 135.107396 
L 126.302149 139.658928 
L 123.02281 130.239442 
L 119.743471 127.432264 
L 116.464132 129.713751 
L 113.184793 130.358139 
L 109.905455 142.934958 
L 106.626116 129.895138 
L 103.346777 134.210087 
L 100.067438 136.918127 
L 96.788099 137.88698 
L 93.50876 144.61003 
L 90.229421 137.021324 
L 86.950083 136.29135 
L 83.670744 138.943304 
L 80.391405 134.866067 
L 77.112066 154.437301 
L 73.832727 170.302719 
z
" style="fill:#1f77b4;fill-opacity:0.2;"/>
   </g>
   <g id="PolyCollection_2">
    <path clip-path="url(#p262342d215)" d="M 73.832727 170.302719 
L 73.832727 170.302719 
L 77.112066 186.419981 
L 80.391405 197.626822 
L 83.670744 206.177031 
L 86.950083 213.17701 
L 90.229421 213.406392 
L 93.50876 225.38327 
L 96.788099 233.765491 
L 100.067438 237.907417 
L 103.346777 231.69232 
L 106.626116 237.98035 
L 109.905455 236.105574 
L 113.184793 239.458129 
L 116.464132 249.447297 
L 119.743471 248.242884 
L 123.02281 256.499999 
L 126.302149 253.771933 
L 129.581488 259.016625 
L 132.860826 260.674338 
L 136.140165 258.764918 
L 139.419504 258.232051 
L 142.698843 272.025285 
L 145.978182 265.432419 
L 149.257521 277.762277 
L 152.53686 273.634902 
L 155.816198 257.442317 
L 159.095537 279.643409 
L 162.374876 276.14491 
L 165.654215 282.075991 
L 168.933554 280.038998 
L 172.212893 274.609274 
L 175.492231 295.488 
L 178.77157 283.748162 
L 182.050909 293.012896 
L 185.330248 280.513457 
L 188.609587 291.329705 
L 191.888926 286.963266 
L 195.168264 285.289258 
L 198.447603 294.671722 
L 201.726942 286.534054 
L 205.006281 282.847976 
L 208.28562 287.382123 
L 211.564959 290.786322 
L 214.844298 295.124802 
L 218.123636 287.675826 
L 221.402975 286.0644 
L 224.682314 281.365065 
L 227.961653 280.007533 
L 231.240992 288.732391 
L 234.520331 290.459824 
L 237.799669 286.980879 
L 241.079008 286.086194 
L 244.358347 282.577388 
L 247.637686 282.181368 
L 250.917025 283.319558 
L 254.196364 284.486003 
L 257.475702 284.256172 
L 260.755041 286.30629 
L 264.03438 274.380873 
L 267.313719 280.566645 
L 270.593058 274.811028 
L 273.872397 277.507907 
L 277.151736 274.052955 
L 280.431074 277.730808 
L 283.710413 278.179582 
L 286.989752 273.554452 
L 290.269091 272.769889 
L 293.54843 271.23828 
L 296.827769 274.619059 
L 300.107107 270.454477 
L 303.386446 274.089008 
L 306.665785 271.23828 
L 309.945124 267.0861 
L 313.224463 270.454477 
L 316.503802 271.265221 
L 319.78314 270.454477 
L 323.062479 267.0861 
L 326.341818 270.454477 
L 329.621157 262.06232 
L 332.900496 262.06232 
L 336.179835 262.06232 
L 339.459174 267.0861 
L 342.738512 262.06232 
L 346.017851 262.06232 
L 349.29719 262.06232 
L 352.576529 262.06232 
L 355.855868 267.0861 
L 359.135207 262.06232 
L 362.414545 262.06232 
L 365.693884 262.06232 
L 368.973223 262.06232 
L 372.252562 262.06232 
L 375.531901 262.06232 
L 378.81124 262.06232 
L 382.090579 262.06232 
L 385.369917 262.06232 
L 388.649256 262.06232 
L 391.928595 262.06232 
L 395.207934 262.06232 
L 398.487273 262.06232 
L 398.487273 262.06232 
L 398.487273 262.06232 
L 395.207934 262.06232 
L 391.928595 262.06232 
L 388.649256 262.06232 
L 385.369917 262.06232 
L 382.090579 262.06232 
L 378.81124 262.06232 
L 375.531901 262.06232 
L 372.252562 262.06232 
L 368.973223 262.06232 
L 365.693884 262.06232 
L 362.414545 262.06232 
L 359.135207 262.06232 
L 355.855868 257.956135 
L 352.576529 262.06232 
L 349.29719 262.06232 
L 346.017851 262.06232 
L 342.738512 262.06232 
L 339.459174 257.956135 
L 336.179835 262.06232 
L 332.900496 262.06232 
L 329.621157 262.06232 
L 326.341818 254.587759 
L 323.062479 257.956135 
L 319.78314 254.587759 
L 316.503802 255.612206 
L 313.224463 254.587759 
L 309.945124 257.956135 
L 306.665785 252.88636 
L 303.386446 248.200439 
L 300.107107 254.587759 
L 296.827769 245.835197 
L 293.54843 252.88636 
L 290.269091 252.272347 
L 286.989752 245.064611 
L 283.710413 253.285826 
L 280.431074 247.311428 
L 277.151736 239.978128 
L 273.872397 239.275964 
L 270.593058 244.725631 
L 267.313719 236.217226 
L 264.03438 246.990978 
L 260.755041 236.900753 
L 257.475702 225.186931 
L 254.196364 236.885848 
L 250.917025 225.205949 
L 247.637686 232.767311 
L 244.358347 229.618503 
L 241.079008 225.192101 
L 237.799669 225.215012 
L 234.520331 229.076835 
L 231.240992 225.298692 
L 227.961653 219.342014 
L 224.682314 217.984482 
L 221.402975 216.037935 
L 218.123636 208.003337 
L 214.844298 222.576665 
L 211.564959 210.398417 
L 208.28562 221.143384 
L 205.006281 211.913591 
L 201.726942 211.897897 
L 198.447603 203.760229 
L 195.168264 205.801925 
L 191.888926 203.210321 
L 188.609587 203.431862 
L 185.330248 191.30821 
L 182.050909 198.078287 
L 178.77157 188.991101 
L 175.492231 203.861547 
L 172.212893 180.695665 
L 168.933554 191.782669 
L 165.654215 185.157695 
L 162.374876 184.665604 
L 159.095537 184.837489 
L 155.816198 178.593105 
L 152.53686 185.340421 
L 149.257521 185.801026 
L 145.978182 181.614155 
L 142.698843 185.114846 
L 139.419504 174.132987 
L 136.140165 168.094545 
L 132.860826 169.855508 
L 129.581488 168.760433 
L 126.302149 174.922721 
L 123.02281 174.947444 
L 119.743471 164.852639 
L 116.464132 167.318609 
L 113.184793 162.626241 
L 109.905455 167.813988 
L 106.626116 163.186424 
L 103.346777 165.80407 
L 100.067438 166.012145 
L 96.788099 162.813303 
L 93.50876 157.431584 
L 90.229421 159.314905 
L 86.950083 156.7915 
L 83.670744 158.285903 
L 80.391405 158.577748 
L 77.112066 161.526225 
L 73.832727 170.302719 
z
" style="fill:#ff7f0e;fill-opacity:0.2;"/>
   </g>
   <g id="PolyCollection_3">
    <path clip-path="url(#p262342d215)" d="M 73.832727 124.422918 
L 73.832727 124.422918 
L 77.112066 133.567218 
L 80.391405 131.037842 
L 83.670744 133.607534 
L 86.950083 128.47673 
L 90.229421 131.590158 
L 93.50876 137.934136 
L 96.788099 132.017595 
L 100.067438 136.262174 
L 103.346777 140.31155 
L 106.626116 145.130129 
L 109.905455 138.629027 
L 113.184793 139.82327 
L 116.464132 143.637774 
L 119.743471 150.805621 
L 123.02281 144.304782 
L 126.302149 146.995153 
L 129.581488 146.445219 
L 132.860826 148.331352 
L 136.140165 143.008875 
L 139.419504 150.856364 
L 142.698843 161.871336 
L 145.978182 144.788352 
L 149.257521 155.009971 
L 152.53686 162.926642 
L 155.816198 159.730695 
L 159.095537 148.480434 
L 162.374876 162.15558 
L 165.654215 153.690301 
L 168.933554 157.902564 
L 172.212893 163.134772 
L 175.492231 166.905182 
L 178.77157 171.240609 
L 182.050909 159.206855 
L 185.330248 171.007448 
L 188.609587 169.709407 
L 191.888926 152.457463 
L 195.168264 151.99166 
L 198.447603 166.998045 
L 201.726942 173.764162 
L 205.006281 173.624859 
L 208.28562 162.285686 
L 211.564959 171.782432 
L 214.844298 185.550779 
L 218.123636 183.14906 
L 221.402975 170.845842 
L 224.682314 186.823173 
L 227.961653 182.419181 
L 231.240992 185.69291 
L 234.520331 170.869242 
L 237.799669 178.460278 
L 241.079008 174.775858 
L 244.358347 182.146756 
L 247.637686 177.532624 
L 250.917025 173.096452 
L 254.196364 172.960349 
L 257.475702 188.84012 
L 260.755041 195.837359 
L 264.03438 181.630037 
L 267.313719 197.930241 
L 270.593058 175.766567 
L 273.872397 185.014329 
L 277.151736 189.216756 
L 280.431074 190.418097 
L 283.710413 185.748697 
L 286.989752 187.369603 
L 290.269091 200.437076 
L 293.54843 203.555509 
L 296.827769 189.537983 
L 300.107107 182.537728 
L 303.386446 191.928429 
L 306.665785 186.837223 
L 309.945124 186.256777 
L 313.224463 194.968467 
L 316.503802 191.485016 
L 319.78314 186.917388 
L 323.062479 195.095317 
L 326.341818 201.130748 
L 329.621157 182.295886 
L 332.900496 188.639082 
L 336.179835 192.987202 
L 339.459174 201.067111 
L 342.738512 202.145446 
L 346.017851 205.942237 
L 349.29719 187.307395 
L 352.576529 200.10199 
L 355.855868 201.886823 
L 359.135207 206.485027 
L 362.414545 209.568989 
L 365.693884 187.446938 
L 368.973223 209.256414 
L 372.252562 201.599716 
L 375.531901 199.919437 
L 378.81124 196.039082 
L 382.090579 201.951021 
L 385.369917 209.202888 
L 388.649256 202.277514 
L 391.928595 209.984662 
L 395.207934 208.957959 
L 398.487273 232.040751 
L 398.487273 92.047951 
L 398.487273 92.047951 
L 395.207934 78.426903 
L 391.928595 93.916929 
L 388.649256 86.024944 
L 385.369917 86.440337 
L 382.090579 81.763456 
L 378.81124 80.334628 
L 375.531901 71.866292 
L 372.252562 82.114761 
L 368.973223 90.057196 
L 365.693884 68.73966 
L 362.414545 81.486257 
L 359.135207 68.971088 
L 355.855868 83.662847 
L 352.576529 79.02451 
L 349.29719 78.97276 
L 346.017851 74.101858 
L 342.738512 80.651436 
L 339.459174 74.389002 
L 336.179835 69.622568 
L 332.900496 80.393859 
L 329.621157 71.137925 
L 326.341818 79.830943 
L 323.062479 74.85522 
L 319.78314 79.362767 
L 316.503802 72.04235 
L 313.224463 79.570051 
L 309.945124 70.847417 
L 306.665785 68.43178 
L 303.386446 73.43413 
L 300.107107 65.390507 
L 296.827769 66.648615 
L 293.54843 72.818201 
L 290.269091 76.854231 
L 286.989752 60.55863 
L 283.710413 78.696263 
L 280.431074 73.109268 
L 277.151736 77.063397 
L 273.872397 73.00746 
L 270.593058 64.820899 
L 267.313719 92.207409 
L 264.03438 68.133388 
L 260.755041 81.453946 
L 257.475702 77.440033 
L 254.196364 71.297499 
L 250.917025 70.243803 
L 247.637686 71.313206 
L 244.358347 87.803781 
L 241.079008 79.575546 
L 237.799669 65.797572 
L 234.520331 63.29505 
L 231.240992 75.081667 
L 227.961653 70.097033 
L 224.682314 73.951402 
L 221.402975 73.412007 
L 218.123636 76.707922 
L 214.844298 77.976586 
L 211.564959 59.629075 
L 208.28562 60.867455 
L 205.006281 68.797799 
L 201.726942 63.152919 
L 198.447603 65.331056 
L 195.168264 59.232733 
L 191.888926 68.860486 
L 188.609587 68.125269 
L 185.330248 72.332805 
L 182.050909 64.863882 
L 178.77157 67.511667 
L 175.492231 66.341515 
L 172.212893 65.523946 
L 168.933554 74.426538 
L 165.654215 65.792456 
L 162.374876 67.420734 
L 159.095537 53.568 
L 155.816198 63.422446 
L 152.53686 67.567268 
L 149.257521 65.390383 
L 145.978182 57.26008 
L 142.698843 76.880939 
L 139.419504 67.708797 
L 136.140165 63.627537 
L 132.860826 82.162557 
L 129.581488 62.026385 
L 126.302149 66.06443 
L 123.02281 68.754802 
L 119.743471 64.089154 
L 116.464132 66.669021 
L 113.184793 65.895545 
L 109.905455 75.348152 
L 106.626116 66.094266 
L 103.346777 74.583226 
L 100.067438 65.786258 
L 96.788099 65.442854 
L 93.50876 81.54862 
L 90.229421 75.96385 
L 86.950083 69.901318 
L 83.670744 84.957628 
L 80.391405 73.763379 
L 77.112066 80.409964 
L 73.832727 124.422918 
z
" style="fill:#2ca02c;fill-opacity:0.2;"/>
   </g>
   <g id="PolyCollection_4">
    <path clip-path="url(#p262342d215)" d="M 73.832727 170.302719 
L 73.832727 170.302719 
L 77.112066 197.830599 
L 80.391405 198.911705 
L 83.670744 197.317637 
L 86.950083 190.733287 
L 90.229421 209.596855 
L 93.50876 207.513226 
L 96.788099 208.250682 
L 100.067438 204.941313 
L 103.346777 221.710362 
L 106.626116 209.95855 
L 109.905455 218.437881 
L 113.184793 216.582154 
L 116.464132 225.362933 
L 119.743471 234.484444 
L 123.02281 233.679581 
L 126.302149 235.900591 
L 129.581488 231.18198 
L 132.860826 230.52879 
L 136.140165 227.074933 
L 139.419504 229.624708 
L 142.698843 248.865352 
L 145.978182 245.447183 
L 149.257521 247.250129 
L 152.53686 251.350583 
L 155.816198 246.403678 
L 159.095537 237.90362 
L 162.374876 239.486422 
L 165.654215 245.839923 
L 168.933554 249.967535 
L 172.212893 246.018112 
L 175.492231 247.003448 
L 178.77157 252.643369 
L 182.050909 244.465503 
L 185.330248 241.588137 
L 188.609587 252.144935 
L 191.888926 252.981199 
L 195.168264 258.001393 
L 198.447603 243.635842 
L 201.726942 257.931317 
L 205.006281 240.403471 
L 208.28562 251.357474 
L 211.564959 248.08325 
L 214.844298 254.242705 
L 218.123636 247.790958 
L 221.402975 258.755391 
L 224.682314 258.03906 
L 227.961653 255.134451 
L 231.240992 244.696772 
L 234.520331 253.931236 
L 237.799669 253.335518 
L 241.079008 259.905804 
L 244.358347 260.148913 
L 247.637686 255.128186 
L 250.917025 262.443333 
L 254.196364 262.956122 
L 257.475702 254.58049 
L 260.755041 249.625734 
L 264.03438 249.778948 
L 267.313719 256.749318 
L 270.593058 247.380783 
L 273.872397 253.914847 
L 277.151736 266.317881 
L 280.431074 256.285167 
L 283.710413 254.314264 
L 286.989752 257.408762 
L 290.269091 255.676741 
L 293.54843 255.986569 
L 296.827769 251.798309 
L 300.107107 250.893243 
L 303.386446 259.546069 
L 306.665785 251.094846 
L 309.945124 258.803706 
L 313.224463 261.66253 
L 316.503802 257.78179 
L 319.78314 252.089759 
L 323.062479 250.019585 
L 326.341818 261.295437 
L 329.621157 250.549874 
L 332.900496 244.313995 
L 336.179835 252.351611 
L 339.459174 267.257186 
L 342.738512 255.764765 
L 346.017851 259.252157 
L 349.29719 263.771695 
L 352.576529 248.320939 
L 355.855868 263.082833 
L 359.135207 251.547374 
L 362.414545 247.608127 
L 365.693884 269.91955 
L 368.973223 261.525856 
L 372.252562 262.47409 
L 375.531901 246.907939 
L 378.81124 246.914488 
L 382.090579 255.012122 
L 385.369917 259.496215 
L 388.649256 254.953483 
L 391.928595 254.975201 
L 395.207934 261.392691 
L 398.487273 268.746237 
L 398.487273 136.090921 
L 398.487273 136.090921 
L 395.207934 116.834183 
L 391.928595 126.922056 
L 388.649256 109.50945 
L 385.369917 110.472295 
L 382.090579 138.813884 
L 378.81124 106.537293 
L 375.531901 112.049418 
L 372.252562 150.621432 
L 368.973223 139.640918 
L 365.693884 112.895304 
L 362.414545 119.607595 
L 359.135207 122.091519 
L 355.855868 127.990385 
L 352.576529 136.329107 
L 349.29719 130.05431 
L 346.017851 127.233081 
L 342.738512 131.638069 
L 339.459174 132.074396 
L 336.179835 127.710455 
L 332.900496 129.324899 
L 329.621157 126.759404 
L 326.341818 124.272204 
L 323.062479 120.866521 
L 319.78314 137.148267 
L 316.503802 139.7146 
L 313.224463 136.751456 
L 309.945124 146.951048 
L 306.665785 135.390392 
L 303.386446 148.961473 
L 300.107107 133.756802 
L 296.827769 138.357313 
L 293.54843 133.251457 
L 290.269091 143.654841 
L 286.989752 135.499648 
L 283.710413 127.582994 
L 280.431074 140.293627 
L 277.151736 141.272066 
L 273.872397 139.911159 
L 270.593058 135.43407 
L 267.313719 158.181396 
L 264.03438 138.541482 
L 260.755041 142.36508 
L 257.475702 138.32792 
L 254.196364 139.128248 
L 250.917025 151.569785 
L 247.637686 154.296952 
L 244.358347 136.429881 
L 241.079008 144.931354 
L 237.799669 144.160872 
L 234.520331 154.576306 
L 231.240992 134.447698 
L 227.961653 140.526747 
L 224.682314 148.63329 
L 221.402975 150.669747 
L 218.123636 139.611876 
L 214.844298 159.770413 
L 211.564959 148.495544 
L 208.28562 145.22132 
L 205.006281 132.317827 
L 201.726942 142.317861 
L 198.447603 136.426224 
L 195.168264 137.659805 
L 191.888926 146.350383 
L 188.609587 144.433859 
L 185.330248 149.485081 
L 182.050909 153.948482 
L 178.77157 155.864173 
L 175.492231 135.811406 
L 172.212893 138.631933 
L 168.933554 141.105683 
L 165.654215 152.574063 
L 162.374876 139.658048 
L 159.095537 137.570465 
L 155.816198 147.422328 
L 152.53686 149.81619 
L 149.257521 147.493473 
L 145.978182 142.873246 
L 142.698843 133.949502 
L 139.419504 126.579861 
L 136.140165 145.646365 
L 132.860826 136.686932 
L 129.581488 134.19855 
L 126.302149 133.150322 
L 123.02281 146.382485 
L 119.743471 141.907237 
L 116.464132 130.841636 
L 113.184793 127.693667 
L 109.905455 125.83794 
L 106.626116 131.564483 
L 103.346777 127.15344 
L 100.067438 124.652973 
L 96.788099 117.673219 
L 93.50876 123.916251 
L 90.229421 119.079834 
L 86.950083 119.591482 
L 83.670744 115.75992 
L 80.391405 121.506621 
L 77.112066 133.598878 
L 73.832727 170.302719 
z
" style="fill:#d62728;fill-opacity:0.2;"/>
   </g>
   <g id="matplotlib.axis_1">
    <g id="xtick_1">
     <g id="line2d_1">
      <defs>
       <path d="M 0 0 
L 0 3.5 
" id="mf88ee4a960" style="stroke:#000000;stroke-width:0.8;"/>
      </defs>
      <g>
       <use style="stroke:#000000;stroke-width:0.8;" x="401.766612" xlink:href="#mf88ee4a960" y="307.584"/>
      </g>
     </g>
     <g id="text_1">
      <!-- 0 -->
      <g transform="translate(398.585362 322.182437)scale(0.1 -0.1)">
       <defs>
        <path d="M 31.78125 66.40625 
Q 24.171875 66.40625 20.328125 58.90625 
Q 16.5 51.421875 16.5 36.375 
Q 16.5 21.390625 20.328125 13.890625 
Q 24.171875 6.390625 31.78125 6.390625 
Q 39.453125 6.390625 43.28125 13.890625 
Q 47.125 21.390625 47.125 36.375 
Q 47.125 51.421875 43.28125 58.90625 
Q 39.453125 66.40625 31.78125 66.40625 
z
M 31.78125 74.21875 
Q 44.046875 74.21875 50.515625 64.515625 
Q 56.984375 54.828125 56.984375 36.375 
Q 56.984375 17.96875 50.515625 8.265625 
Q 44.046875 -1.421875 31.78125 -1.421875 
Q 19.53125 -1.421875 13.0625 8.265625 
Q 6.59375 17.96875 6.59375 36.375 
Q 6.59375 54.828125 13.0625 64.515625 
Q 19.53125 74.21875 31.78125 74.21875 
z
" id="DejaVuSans-48"/>
       </defs>
       <use xlink:href="#DejaVuSans-48"/>
      </g>
     </g>
    </g>
    <g id="xtick_2">
     <g id="line2d_2">
      <g>
       <use style="stroke:#000000;stroke-width:0.8;" x="336.179835" xlink:href="#mf88ee4a960" y="307.584"/>
      </g>
     </g>
     <g id="text_2">
      <!-- 20 -->
      <g transform="translate(329.817335 322.182437)scale(0.1 -0.1)">
       <defs>
        <path d="M 19.1875 8.296875 
L 53.609375 8.296875 
L 53.609375 0 
L 7.328125 0 
L 7.328125 8.296875 
Q 12.9375 14.109375 22.625 23.890625 
Q 32.328125 33.6875 34.8125 36.53125 
Q 39.546875 41.84375 41.421875 45.53125 
Q 43.3125 49.21875 43.3125 52.78125 
Q 43.3125 58.59375 39.234375 62.25 
Q 35.15625 65.921875 28.609375 65.921875 
Q 23.96875 65.921875 18.8125 64.3125 
Q 13.671875 62.703125 7.8125 59.421875 
L 7.8125 69.390625 
Q 13.765625 71.78125 18.9375 73 
Q 24.125 74.21875 28.421875 74.21875 
Q 39.75 74.21875 46.484375 68.546875 
Q 53.21875 62.890625 53.21875 53.421875 
Q 53.21875 48.921875 51.53125 44.890625 
Q 49.859375 40.875 45.40625 35.40625 
Q 44.1875 33.984375 37.640625 27.21875 
Q 31.109375 20.453125 19.1875 8.296875 
z
" id="DejaVuSans-50"/>
       </defs>
       <use xlink:href="#DejaVuSans-50"/>
       <use x="63.623047" xlink:href="#DejaVuSans-48"/>
      </g>
     </g>
    </g>
    <g id="xtick_3">
     <g id="line2d_3">
      <g>
       <use style="stroke:#000000;stroke-width:0.8;" x="270.593058" xlink:href="#mf88ee4a960" y="307.584"/>
      </g>
     </g>
     <g id="text_3">
      <!-- 40 -->
      <g transform="translate(264.230558 322.182437)scale(0.1 -0.1)">
       <defs>
        <path d="M 37.796875 64.3125 
L 12.890625 25.390625 
L 37.796875 25.390625 
z
M 35.203125 72.90625 
L 47.609375 72.90625 
L 47.609375 25.390625 
L 58.015625 25.390625 
L 58.015625 17.1875 
L 47.609375 17.1875 
L 47.609375 0 
L 37.796875 0 
L 37.796875 17.1875 
L 4.890625 17.1875 
L 4.890625 26.703125 
z
" id="DejaVuSans-52"/>
       </defs>
       <use xlink:href="#DejaVuSans-52"/>
       <use x="63.623047" xlink:href="#DejaVuSans-48"/>
      </g>
     </g>
    </g>
    <g id="xtick_4">
     <g id="line2d_4">
      <g>
       <use style="stroke:#000000;stroke-width:0.8;" x="205.006281" xlink:href="#mf88ee4a960" y="307.584"/>
      </g>
     </g>
     <g id="text_4">
      <!-- 60 -->
      <g transform="translate(198.643781 322.182437)scale(0.1 -0.1)">
       <defs>
        <path d="M 33.015625 40.375 
Q 26.375 40.375 22.484375 35.828125 
Q 18.609375 31.296875 18.609375 23.390625 
Q 18.609375 15.53125 22.484375 10.953125 
Q 26.375 6.390625 33.015625 6.390625 
Q 39.65625 6.390625 43.53125 10.953125 
Q 47.40625 15.53125 47.40625 23.390625 
Q 47.40625 31.296875 43.53125 35.828125 
Q 39.65625 40.375 33.015625 40.375 
z
M 52.59375 71.296875 
L 52.59375 62.3125 
Q 48.875 64.0625 45.09375 64.984375 
Q 41.3125 65.921875 37.59375 65.921875 
Q 27.828125 65.921875 22.671875 59.328125 
Q 17.53125 52.734375 16.796875 39.40625 
Q 19.671875 43.65625 24.015625 45.921875 
Q 28.375 48.1875 33.59375 48.1875 
Q 44.578125 48.1875 50.953125 41.515625 
Q 57.328125 34.859375 57.328125 23.390625 
Q 57.328125 12.15625 50.6875 5.359375 
Q 44.046875 -1.421875 33.015625 -1.421875 
Q 20.359375 -1.421875 13.671875 8.265625 
Q 6.984375 17.96875 6.984375 36.375 
Q 6.984375 53.65625 15.1875 63.9375 
Q 23.390625 74.21875 37.203125 74.21875 
Q 40.921875 74.21875 44.703125 73.484375 
Q 48.484375 72.75 52.59375 71.296875 
z
" id="DejaVuSans-54"/>
       </defs>
       <use xlink:href="#DejaVuSans-54"/>
       <use x="63.623047" xlink:href="#DejaVuSans-48"/>
      </g>
     </g>
    </g>
    <g id="xtick_5">
     <g id="line2d_5">
      <g>
       <use style="stroke:#000000;stroke-width:0.8;" x="139.419504" xlink:href="#mf88ee4a960" y="307.584"/>
      </g>
     </g>
     <g id="text_5">
      <!-- 80 -->
      <g transform="translate(133.057004 322.182437)scale(0.1 -0.1)">
       <defs>
        <path d="M 31.78125 34.625 
Q 24.75 34.625 20.71875 30.859375 
Q 16.703125 27.09375 16.703125 20.515625 
Q 16.703125 13.921875 20.71875 10.15625 
Q 24.75 6.390625 31.78125 6.390625 
Q 38.8125 6.390625 42.859375 10.171875 
Q 46.921875 13.96875 46.921875 20.515625 
Q 46.921875 27.09375 42.890625 30.859375 
Q 38.875 34.625 31.78125 34.625 
z
M 21.921875 38.8125 
Q 15.578125 40.375 12.03125 44.71875 
Q 8.5 49.078125 8.5 55.328125 
Q 8.5 64.0625 14.71875 69.140625 
Q 20.953125 74.21875 31.78125 74.21875 
Q 42.671875 74.21875 48.875 69.140625 
Q 55.078125 64.0625 55.078125 55.328125 
Q 55.078125 49.078125 51.53125 44.71875 
Q 48 40.375 41.703125 38.8125 
Q 48.828125 37.15625 52.796875 32.3125 
Q 56.78125 27.484375 56.78125 20.515625 
Q 56.78125 9.90625 50.3125 4.234375 
Q 43.84375 -1.421875 31.78125 -1.421875 
Q 19.734375 -1.421875 13.25 4.234375 
Q 6.78125 9.90625 6.78125 20.515625 
Q 6.78125 27.484375 10.78125 32.3125 
Q 14.796875 37.15625 21.921875 38.8125 
z
M 18.3125 54.390625 
Q 18.3125 48.734375 21.84375 45.5625 
Q 25.390625 42.390625 31.78125 42.390625 
Q 38.140625 42.390625 41.71875 45.5625 
Q 45.3125 48.734375 45.3125 54.390625 
Q 45.3125 60.0625 41.71875 63.234375 
Q 38.140625 66.40625 31.78125 66.40625 
Q 25.390625 66.40625 21.84375 63.234375 
Q 18.3125 60.0625 18.3125 54.390625 
z
" id="DejaVuSans-56"/>
       </defs>
       <use xlink:href="#DejaVuSans-56"/>
       <use x="63.623047" xlink:href="#DejaVuSans-48"/>
      </g>
     </g>
    </g>
    <g id="xtick_6">
     <g id="line2d_6">
      <g>
       <use style="stroke:#000000;stroke-width:0.8;" x="73.832727" xlink:href="#mf88ee4a960" y="307.584"/>
      </g>
     </g>
     <g id="text_6">
      <!-- 100 -->
      <g transform="translate(64.288977 322.182437)scale(0.1 -0.1)">
       <defs>
        <path d="M 12.40625 8.296875 
L 28.515625 8.296875 
L 28.515625 63.921875 
L 10.984375 60.40625 
L 10.984375 69.390625 
L 28.421875 72.90625 
L 38.28125 72.90625 
L 38.28125 8.296875 
L 54.390625 8.296875 
L 54.390625 0 
L 12.40625 0 
z
" id="DejaVuSans-49"/>
       </defs>
       <use xlink:href="#DejaVuSans-49"/>
       <use x="63.623047" xlink:href="#DejaVuSans-48"/>
       <use x="127.246094" xlink:href="#DejaVuSans-48"/>
      </g>
     </g>
    </g>
    <g id="text_7">
     <!-- Number of features -->
     <g transform="translate(187.4225 335.860562)scale(0.1 -0.1)">
      <defs>
       <path d="M 9.8125 72.90625 
L 23.09375 72.90625 
L 55.421875 11.921875 
L 55.421875 72.90625 
L 64.984375 72.90625 
L 64.984375 0 
L 51.703125 0 
L 19.390625 60.984375 
L 19.390625 0 
L 9.8125 0 
z
" id="DejaVuSans-78"/>
       <path d="M 8.5 21.578125 
L 8.5 54.6875 
L 17.484375 54.6875 
L 17.484375 21.921875 
Q 17.484375 14.15625 20.5 10.265625 
Q 23.53125 6.390625 29.59375 6.390625 
Q 36.859375 6.390625 41.078125 11.03125 
Q 45.3125 15.671875 45.3125 23.6875 
L 45.3125 54.6875 
L 54.296875 54.6875 
L 54.296875 0 
L 45.3125 0 
L 45.3125 8.40625 
Q 42.046875 3.421875 37.71875 1 
Q 33.40625 -1.421875 27.6875 -1.421875 
Q 18.265625 -1.421875 13.375 4.4375 
Q 8.5 10.296875 8.5 21.578125 
z
M 31.109375 56 
z
" id="DejaVuSans-117"/>
       <path d="M 52 44.1875 
Q 55.375 50.25 60.0625 53.125 
Q 64.75 56 71.09375 56 
Q 79.640625 56 84.28125 50.015625 
Q 88.921875 44.046875 88.921875 33.015625 
L 88.921875 0 
L 79.890625 0 
L 79.890625 32.71875 
Q 79.890625 40.578125 77.09375 44.375 
Q 74.3125 48.1875 68.609375 48.1875 
Q 61.625 48.1875 57.5625 43.546875 
Q 53.515625 38.921875 53.515625 30.90625 
L 53.515625 0 
L 44.484375 0 
L 44.484375 32.71875 
Q 44.484375 40.625 41.703125 44.40625 
Q 38.921875 48.1875 33.109375 48.1875 
Q 26.21875 48.1875 22.15625 43.53125 
Q 18.109375 38.875 18.109375 30.90625 
L 18.109375 0 
L 9.078125 0 
L 9.078125 54.6875 
L 18.109375 54.6875 
L 18.109375 46.1875 
Q 21.1875 51.21875 25.484375 53.609375 
Q 29.78125 56 35.6875 56 
Q 41.65625 56 45.828125 52.96875 
Q 50 49.953125 52 44.1875 
z
" id="DejaVuSans-109"/>
       <path d="M 48.6875 27.296875 
Q 48.6875 37.203125 44.609375 42.84375 
Q 40.53125 48.484375 33.40625 48.484375 
Q 26.265625 48.484375 22.1875 42.84375 
Q 18.109375 37.203125 18.109375 27.296875 
Q 18.109375 17.390625 22.1875 11.75 
Q 26.265625 6.109375 33.40625 6.109375 
Q 40.53125 6.109375 44.609375 11.75 
Q 48.6875 17.390625 48.6875 27.296875 
z
M 18.109375 46.390625 
Q 20.953125 51.265625 25.265625 53.625 
Q 29.59375 56 35.59375 56 
Q 45.5625 56 51.78125 48.09375 
Q 58.015625 40.1875 58.015625 27.296875 
Q 58.015625 14.40625 51.78125 6.484375 
Q 45.5625 -1.421875 35.59375 -1.421875 
Q 29.59375 -1.421875 25.265625 0.953125 
Q 20.953125 3.328125 18.109375 8.203125 
L 18.109375 0 
L 9.078125 0 
L 9.078125 75.984375 
L 18.109375 75.984375 
z
" id="DejaVuSans-98"/>
       <path d="M 56.203125 29.59375 
L 56.203125 25.203125 
L 14.890625 25.203125 
Q 15.484375 15.921875 20.484375 11.0625 
Q 25.484375 6.203125 34.421875 6.203125 
Q 39.59375 6.203125 44.453125 7.46875 
Q 49.3125 8.734375 54.109375 11.28125 
L 54.109375 2.78125 
Q 49.265625 0.734375 44.1875 -0.34375 
Q 39.109375 -1.421875 33.890625 -1.421875 
Q 20.796875 -1.421875 13.15625 6.1875 
Q 5.515625 13.8125 5.515625 26.8125 
Q 5.515625 40.234375 12.765625 48.109375 
Q 20.015625 56 32.328125 56 
Q 43.359375 56 49.78125 48.890625 
Q 56.203125 41.796875 56.203125 29.59375 
z
M 47.21875 32.234375 
Q 47.125 39.59375 43.09375 43.984375 
Q 39.0625 48.390625 32.421875 48.390625 
Q 24.90625 48.390625 20.390625 44.140625 
Q 15.875 39.890625 15.1875 32.171875 
z
" id="DejaVuSans-101"/>
       <path d="M 41.109375 46.296875 
Q 39.59375 47.171875 37.8125 47.578125 
Q 36.03125 48 33.890625 48 
Q 26.265625 48 22.1875 43.046875 
Q 18.109375 38.09375 18.109375 28.8125 
L 18.109375 0 
L 9.078125 0 
L 9.078125 54.6875 
L 18.109375 54.6875 
L 18.109375 46.1875 
Q 20.953125 51.171875 25.484375 53.578125 
Q 30.03125 56 36.53125 56 
Q 37.453125 56 38.578125 55.875 
Q 39.703125 55.765625 41.0625 55.515625 
z
" id="DejaVuSans-114"/>
       <path id="DejaVuSans-32"/>
       <path d="M 30.609375 48.390625 
Q 23.390625 48.390625 19.1875 42.75 
Q 14.984375 37.109375 14.984375 27.296875 
Q 14.984375 17.484375 19.15625 11.84375 
Q 23.34375 6.203125 30.609375 6.203125 
Q 37.796875 6.203125 41.984375 11.859375 
Q 46.1875 17.53125 46.1875 27.296875 
Q 46.1875 37.015625 41.984375 42.703125 
Q 37.796875 48.390625 30.609375 48.390625 
z
M 30.609375 56 
Q 42.328125 56 49.015625 48.375 
Q 55.71875 40.765625 55.71875 27.296875 
Q 55.71875 13.875 49.015625 6.21875 
Q 42.328125 -1.421875 30.609375 -1.421875 
Q 18.84375 -1.421875 12.171875 6.21875 
Q 5.515625 13.875 5.515625 27.296875 
Q 5.515625 40.765625 12.171875 48.375 
Q 18.84375 56 30.609375 56 
z
" id="DejaVuSans-111"/>
       <path d="M 37.109375 75.984375 
L 37.109375 68.5 
L 28.515625 68.5 
Q 23.6875 68.5 21.796875 66.546875 
Q 19.921875 64.59375 19.921875 59.515625 
L 19.921875 54.6875 
L 34.71875 54.6875 
L 34.71875 47.703125 
L 19.921875 47.703125 
L 19.921875 0 
L 10.890625 0 
L 10.890625 47.703125 
L 2.296875 47.703125 
L 2.296875 54.6875 
L 10.890625 54.6875 
L 10.890625 58.5 
Q 10.890625 67.625 15.140625 71.796875 
Q 19.390625 75.984375 28.609375 75.984375 
z
" id="DejaVuSans-102"/>
       <path d="M 34.28125 27.484375 
Q 23.390625 27.484375 19.1875 25 
Q 14.984375 22.515625 14.984375 16.5 
Q 14.984375 11.71875 18.140625 8.90625 
Q 21.296875 6.109375 26.703125 6.109375 
Q 34.1875 6.109375 38.703125 11.40625 
Q 43.21875 16.703125 43.21875 25.484375 
L 43.21875 27.484375 
z
M 52.203125 31.203125 
L 52.203125 0 
L 43.21875 0 
L 43.21875 8.296875 
Q 40.140625 3.328125 35.546875 0.953125 
Q 30.953125 -1.421875 24.3125 -1.421875 
Q 15.921875 -1.421875 10.953125 3.296875 
Q 6 8.015625 6 15.921875 
Q 6 25.140625 12.171875 29.828125 
Q 18.359375 34.515625 30.609375 34.515625 
L 43.21875 34.515625 
L 43.21875 35.40625 
Q 43.21875 41.609375 39.140625 45 
Q 35.0625 48.390625 27.6875 48.390625 
Q 23 48.390625 18.546875 47.265625 
Q 14.109375 46.140625 10.015625 43.890625 
L 10.015625 52.203125 
Q 14.9375 54.109375 19.578125 55.046875 
Q 24.21875 56 28.609375 56 
Q 40.484375 56 46.34375 49.84375 
Q 52.203125 43.703125 52.203125 31.203125 
z
" id="DejaVuSans-97"/>
       <path d="M 18.3125 70.21875 
L 18.3125 54.6875 
L 36.8125 54.6875 
L 36.8125 47.703125 
L 18.3125 47.703125 
L 18.3125 18.015625 
Q 18.3125 11.328125 20.140625 9.421875 
Q 21.96875 7.515625 27.59375 7.515625 
L 36.8125 7.515625 
L 36.8125 0 
L 27.59375 0 
Q 17.1875 0 13.234375 3.875 
Q 9.28125 7.765625 9.28125 18.015625 
L 9.28125 47.703125 
L 2.6875 47.703125 
L 2.6875 54.6875 
L 9.28125 54.6875 
L 9.28125 70.21875 
z
" id="DejaVuSans-116"/>
       <path d="M 44.28125 53.078125 
L 44.28125 44.578125 
Q 40.484375 46.53125 36.375 47.5 
Q 32.28125 48.484375 27.875 48.484375 
Q 21.1875 48.484375 17.84375 46.4375 
Q 14.5 44.390625 14.5 40.28125 
Q 14.5 37.15625 16.890625 35.375 
Q 19.28125 33.59375 26.515625 31.984375 
L 29.59375 31.296875 
Q 39.15625 29.25 43.1875 25.515625 
Q 47.21875 21.78125 47.21875 15.09375 
Q 47.21875 7.46875 41.1875 3.015625 
Q 35.15625 -1.421875 24.609375 -1.421875 
Q 20.21875 -1.421875 15.453125 -0.5625 
Q 10.6875 0.296875 5.421875 2 
L 5.421875 11.28125 
Q 10.40625 8.6875 15.234375 7.390625 
Q 20.0625 6.109375 24.8125 6.109375 
Q 31.15625 6.109375 34.5625 8.28125 
Q 37.984375 10.453125 37.984375 14.40625 
Q 37.984375 18.0625 35.515625 20.015625 
Q 33.0625 21.96875 24.703125 23.78125 
L 21.578125 24.515625 
Q 13.234375 26.265625 9.515625 29.90625 
Q 5.8125 33.546875 5.8125 39.890625 
Q 5.8125 47.609375 11.28125 51.796875 
Q 16.75 56 26.8125 56 
Q 31.78125 56 36.171875 55.265625 
Q 40.578125 54.546875 44.28125 53.078125 
z
" id="DejaVuSans-115"/>
      </defs>
      <use xlink:href="#DejaVuSans-78"/>
      <use x="74.804688" xlink:href="#DejaVuSans-117"/>
      <use x="138.183594" xlink:href="#DejaVuSans-109"/>
      <use x="235.595703" xlink:href="#DejaVuSans-98"/>
      <use x="299.072266" xlink:href="#DejaVuSans-101"/>
      <use x="360.595703" xlink:href="#DejaVuSans-114"/>
      <use x="401.708984" xlink:href="#DejaVuSans-32"/>
      <use x="433.496094" xlink:href="#DejaVuSans-111"/>
      <use x="494.677734" xlink:href="#DejaVuSans-102"/>
      <use x="529.882812" xlink:href="#DejaVuSans-32"/>
      <use x="561.669922" xlink:href="#DejaVuSans-102"/>
      <use x="596.875" xlink:href="#DejaVuSans-101"/>
      <use x="658.398438" xlink:href="#DejaVuSans-97"/>
      <use x="719.677734" xlink:href="#DejaVuSans-116"/>
      <use x="758.886719" xlink:href="#DejaVuSans-117"/>
      <use x="822.265625" xlink:href="#DejaVuSans-114"/>
      <use x="861.128906" xlink:href="#DejaVuSans-101"/>
      <use x="922.652344" xlink:href="#DejaVuSans-115"/>
     </g>
    </g>
   </g>
   <g id="matplotlib.axis_2">
    <g id="ytick_1">
     <g id="line2d_7">
      <defs>
       <path d="M 0 0 
L -3.5 0 
" id="m72bf4d536f" style="stroke:#000000;stroke-width:0.8;"/>
      </defs>
      <g>
       <use style="stroke:#000000;stroke-width:0.8;" x="57.6" xlink:href="#m72bf4d536f" y="262.06232"/>
      </g>
     </g>
     <g id="text_8">
      <!-- 0.2 -->
      <g transform="translate(34.696875 265.861538)scale(0.1 -0.1)">
       <defs>
        <path d="M 10.6875 12.40625 
L 21 12.40625 
L 21 0 
L 10.6875 0 
z
" id="DejaVuSans-46"/>
       </defs>
       <use xlink:href="#DejaVuSans-48"/>
       <use x="63.623047" xlink:href="#DejaVuSans-46"/>
       <use x="95.410156" xlink:href="#DejaVuSans-50"/>
      </g>
     </g>
    </g>
    <g id="ytick_2">
     <g id="line2d_8">
      <g>
       <use style="stroke:#000000;stroke-width:0.8;" x="57.6" xlink:href="#m72bf4d536f" y="216.182519"/>
      </g>
     </g>
     <g id="text_9">
      <!-- 0.3 -->
      <g transform="translate(34.696875 219.981738)scale(0.1 -0.1)">
       <defs>
        <path d="M 40.578125 39.3125 
Q 47.65625 37.796875 51.625 33 
Q 55.609375 28.21875 55.609375 21.1875 
Q 55.609375 10.40625 48.1875 4.484375 
Q 40.765625 -1.421875 27.09375 -1.421875 
Q 22.515625 -1.421875 17.65625 -0.515625 
Q 12.796875 0.390625 7.625 2.203125 
L 7.625 11.71875 
Q 11.71875 9.328125 16.59375 8.109375 
Q 21.484375 6.890625 26.8125 6.890625 
Q 36.078125 6.890625 40.9375 10.546875 
Q 45.796875 14.203125 45.796875 21.1875 
Q 45.796875 27.640625 41.28125 31.265625 
Q 36.765625 34.90625 28.71875 34.90625 
L 20.21875 34.90625 
L 20.21875 43.015625 
L 29.109375 43.015625 
Q 36.375 43.015625 40.234375 45.921875 
Q 44.09375 48.828125 44.09375 54.296875 
Q 44.09375 59.90625 40.109375 62.90625 
Q 36.140625 65.921875 28.71875 65.921875 
Q 24.65625 65.921875 20.015625 65.03125 
Q 15.375 64.15625 9.8125 62.3125 
L 9.8125 71.09375 
Q 15.4375 72.65625 20.34375 73.4375 
Q 25.25 74.21875 29.59375 74.21875 
Q 40.828125 74.21875 47.359375 69.109375 
Q 53.90625 64.015625 53.90625 55.328125 
Q 53.90625 49.265625 50.4375 45.09375 
Q 46.96875 40.921875 40.578125 39.3125 
z
" id="DejaVuSans-51"/>
       </defs>
       <use xlink:href="#DejaVuSans-48"/>
       <use x="63.623047" xlink:href="#DejaVuSans-46"/>
       <use x="95.410156" xlink:href="#DejaVuSans-51"/>
      </g>
     </g>
    </g>
    <g id="ytick_3">
     <g id="line2d_9">
      <g>
       <use style="stroke:#000000;stroke-width:0.8;" x="57.6" xlink:href="#m72bf4d536f" y="170.302719"/>
      </g>
     </g>
     <g id="text_10">
      <!-- 0.4 -->
      <g transform="translate(34.696875 174.101937)scale(0.1 -0.1)">
       <use xlink:href="#DejaVuSans-48"/>
       <use x="63.623047" xlink:href="#DejaVuSans-46"/>
       <use x="95.410156" xlink:href="#DejaVuSans-52"/>
      </g>
     </g>
    </g>
    <g id="ytick_4">
     <g id="line2d_10">
      <g>
       <use style="stroke:#000000;stroke-width:0.8;" x="57.6" xlink:href="#m72bf4d536f" y="124.422918"/>
      </g>
     </g>
     <g id="text_11">
      <!-- 0.5 -->
      <g transform="translate(34.696875 128.222137)scale(0.1 -0.1)">
       <defs>
        <path d="M 10.796875 72.90625 
L 49.515625 72.90625 
L 49.515625 64.59375 
L 19.828125 64.59375 
L 19.828125 46.734375 
Q 21.96875 47.46875 24.109375 47.828125 
Q 26.265625 48.1875 28.421875 48.1875 
Q 40.625 48.1875 47.75 41.5 
Q 54.890625 34.8125 54.890625 23.390625 
Q 54.890625 11.625 47.5625 5.09375 
Q 40.234375 -1.421875 26.90625 -1.421875 
Q 22.3125 -1.421875 17.546875 -0.640625 
Q 12.796875 0.140625 7.71875 1.703125 
L 7.71875 11.625 
Q 12.109375 9.234375 16.796875 8.0625 
Q 21.484375 6.890625 26.703125 6.890625 
Q 35.15625 6.890625 40.078125 11.328125 
Q 45.015625 15.765625 45.015625 23.390625 
Q 45.015625 31 40.078125 35.4375 
Q 35.15625 39.890625 26.703125 39.890625 
Q 22.75 39.890625 18.8125 39.015625 
Q 14.890625 38.140625 10.796875 36.28125 
z
" id="DejaVuSans-53"/>
       </defs>
       <use xlink:href="#DejaVuSans-48"/>
       <use x="63.623047" xlink:href="#DejaVuSans-46"/>
       <use x="95.410156" xlink:href="#DejaVuSans-53"/>
      </g>
     </g>
    </g>
    <g id="ytick_5">
     <g id="line2d_11">
      <g>
       <use style="stroke:#000000;stroke-width:0.8;" x="57.6" xlink:href="#m72bf4d536f" y="78.543118"/>
      </g>
     </g>
     <g id="text_12">
      <!-- 0.6 -->
      <g transform="translate(34.696875 82.342336)scale(0.1 -0.1)">
       <use xlink:href="#DejaVuSans-48"/>
       <use x="63.623047" xlink:href="#DejaVuSans-46"/>
       <use x="95.410156" xlink:href="#DejaVuSans-54"/>
      </g>
     </g>
    </g>
    <g id="text_13">
     <!-- Accuracy -->
     <g transform="translate(28.617187 197.356125)rotate(-90)scale(0.1 -0.1)">
      <defs>
       <path d="M 34.1875 63.1875 
L 20.796875 26.90625 
L 47.609375 26.90625 
z
M 28.609375 72.90625 
L 39.796875 72.90625 
L 67.578125 0 
L 57.328125 0 
L 50.6875 18.703125 
L 17.828125 18.703125 
L 11.1875 0 
L 0.78125 0 
z
" id="DejaVuSans-65"/>
       <path d="M 48.78125 52.59375 
L 48.78125 44.1875 
Q 44.96875 46.296875 41.140625 47.34375 
Q 37.3125 48.390625 33.40625 48.390625 
Q 24.65625 48.390625 19.8125 42.84375 
Q 14.984375 37.3125 14.984375 27.296875 
Q 14.984375 17.28125 19.8125 11.734375 
Q 24.65625 6.203125 33.40625 6.203125 
Q 37.3125 6.203125 41.140625 7.25 
Q 44.96875 8.296875 48.78125 10.40625 
L 48.78125 2.09375 
Q 45.015625 0.34375 40.984375 -0.53125 
Q 36.96875 -1.421875 32.421875 -1.421875 
Q 20.0625 -1.421875 12.78125 6.34375 
Q 5.515625 14.109375 5.515625 27.296875 
Q 5.515625 40.671875 12.859375 48.328125 
Q 20.21875 56 33.015625 56 
Q 37.15625 56 41.109375 55.140625 
Q 45.0625 54.296875 48.78125 52.59375 
z
" id="DejaVuSans-99"/>
       <path d="M 32.171875 -5.078125 
Q 28.375 -14.84375 24.75 -17.8125 
Q 21.140625 -20.796875 15.09375 -20.796875 
L 7.90625 -20.796875 
L 7.90625 -13.28125 
L 13.1875 -13.28125 
Q 16.890625 -13.28125 18.9375 -11.515625 
Q 21 -9.765625 23.484375 -3.21875 
L 25.09375 0.875 
L 2.984375 54.6875 
L 12.5 54.6875 
L 29.59375 11.921875 
L 46.6875 54.6875 
L 56.203125 54.6875 
z
" id="DejaVuSans-121"/>
      </defs>
      <use xlink:href="#DejaVuSans-65"/>
      <use x="66.658203" xlink:href="#DejaVuSans-99"/>
      <use x="121.638672" xlink:href="#DejaVuSans-99"/>
      <use x="176.619141" xlink:href="#DejaVuSans-117"/>
      <use x="239.998047" xlink:href="#DejaVuSans-114"/>
      <use x="281.111328" xlink:href="#DejaVuSans-97"/>
      <use x="342.390625" xlink:href="#DejaVuSans-99"/>
      <use x="397.371094" xlink:href="#DejaVuSans-121"/>
     </g>
    </g>
   </g>
   <g id="line2d_12">
    <path clip-path="url(#p262342d215)" d="M 73.832727 170.302719 
L 77.112066 168.008729 
L 80.391405 164.797143 
L 83.670744 171.679113 
L 86.950083 171.220315 
L 90.229421 175.349497 
L 93.50876 182.231467 
L 96.788099 180.855073 
L 100.067438 180.855073 
L 103.346777 179.019881 
L 106.626116 180.396275 
L 109.905455 183.607861 
L 113.184793 184.525457 
L 116.464132 181.772669 
L 119.743471 174.890699 
L 123.02281 180.855073 
L 126.302149 189.113437 
L 129.581488 186.819447 
L 132.860826 193.701417 
L 136.140165 184.525457 
L 139.419504 184.066659 
L 142.698843 190.948629 
L 145.978182 184.066659 
L 149.257521 195.077811 
L 152.53686 198.289397 
L 155.816198 198.748195 
L 159.095537 191.407427 
L 162.374876 194.160215 
L 165.654215 195.077811 
L 168.933554 192.783821 
L 172.212893 180.855073 
L 175.492231 201.959781 
L 178.77157 194.160215 
L 182.050909 199.665791 
L 185.330248 198.748195 
L 188.609587 209.759347 
L 191.888926 200.583387 
L 195.168264 198.289397 
L 198.447603 200.124589 
L 201.726942 193.242619 
L 205.006281 202.418579 
L 208.28562 195.536609 
L 211.564959 199.665791 
L 214.844298 209.300549 
L 218.123636 211.135741 
L 221.402975 202.877377 
L 224.682314 199.665791 
L 227.961653 206.088963 
L 231.240992 214.806125 
L 234.520331 208.841751 
L 237.799669 204.712569 
L 241.079008 212.970933 
L 244.358347 208.841751 
L 247.637686 207.924155 
L 250.917025 207.006559 
L 254.196364 210.676943 
L 257.475702 211.594539 
L 260.755041 219.852903 
L 264.03438 205.171367 
L 267.313719 208.841751 
L 270.593058 221.688095 
L 273.872397 215.264923 
L 277.151736 212.053337 
L 280.431074 212.053337 
L 283.710413 221.229297 
L 286.989752 208.382953 
L 290.269091 222.146893 
L 293.54843 223.064489 
L 296.827769 221.229297 
L 300.107107 221.229297 
L 303.386446 222.605691 
L 306.665785 221.688095 
L 309.945124 225.358479 
L 313.224463 218.935307 
L 316.503802 232.699247 
L 319.78314 235.910833 
L 323.062479 223.064489 
L 326.341818 236.369631 
L 329.621157 233.616843 
L 332.900496 229.487661 
L 336.179835 236.369631 
L 339.459174 243.710399 
L 342.738512 240.040015 
L 346.017851 244.627995 
L 349.29719 237.287227 
L 352.576529 238.204823 
L 355.855868 247.839582 
L 359.135207 250.59237 
L 362.414545 253.345158 
L 365.693884 251.051168 
L 368.973223 248.29838 
L 372.252562 252.88636 
L 375.531901 251.509966 
L 378.81124 254.262754 
L 382.090579 258.391936 
L 385.369917 255.639148 
L 388.649256 259.309532 
L 391.928595 262.521118 
L 395.207934 262.06232 
L 398.487273 262.06232 
" style="fill:none;stroke:#1f77b4;stroke-linecap:square;stroke-width:1.5;"/>
   </g>
   <g id="line2d_13">
    <path clip-path="url(#p262342d215)" d="M 73.832727 170.302719 
L 77.112066 173.973103 
L 80.391405 178.102285 
L 83.670744 182.231467 
L 86.950083 184.984255 
L 90.229421 186.360649 
L 93.50876 191.407427 
L 96.788099 198.289397 
L 100.067438 201.959781 
L 103.346777 198.748195 
L 106.626116 200.583387 
L 109.905455 201.959781 
L 113.184793 201.042185 
L 116.464132 208.382953 
L 119.743471 206.547761 
L 123.02281 215.723721 
L 126.302149 214.347327 
L 129.581488 213.888529 
L 132.860826 215.264923 
L 136.140165 213.429731 
L 139.419504 216.182519 
L 142.698843 228.570065 
L 145.978182 223.523287 
L 149.257521 231.781651 
L 152.53686 229.487661 
L 155.816198 218.017711 
L 159.095537 232.240449 
L 162.374876 230.405257 
L 165.654215 233.616843 
L 168.933554 235.910833 
L 172.212893 227.652469 
L 175.492231 249.674774 
L 178.77157 236.369631 
L 182.050909 245.545591 
L 185.330248 235.910833 
L 188.609587 247.380783 
L 191.888926 245.086793 
L 195.168264 245.545591 
L 198.447603 249.215976 
L 201.726942 249.215976 
L 205.006281 247.380783 
L 208.28562 254.262754 
L 211.564959 250.59237 
L 214.844298 258.850734 
L 218.123636 247.839582 
L 221.402975 251.051168 
L 224.682314 249.674774 
L 227.961653 249.674774 
L 231.240992 257.015542 
L 234.520331 259.76833 
L 237.799669 256.097946 
L 241.079008 255.639148 
L 244.358347 256.097946 
L 247.637686 257.47434 
L 250.917025 254.262754 
L 254.196364 260.685926 
L 257.475702 254.721552 
L 260.755041 261.603522 
L 264.03438 260.685926 
L 267.313719 258.391936 
L 270.593058 259.76833 
L 273.872397 258.391936 
L 277.151736 257.015542 
L 280.431074 262.521118 
L 283.710413 265.732704 
L 286.989752 259.309532 
L 290.269091 262.521118 
L 293.54843 262.06232 
L 296.827769 260.227128 
L 300.107107 262.521118 
L 303.386446 261.144724 
L 306.665785 262.06232 
L 309.945124 262.521118 
L 313.224463 262.521118 
L 316.503802 263.438714 
L 319.78314 262.521118 
L 323.062479 262.521118 
L 326.341818 262.521118 
L 329.621157 262.06232 
L 332.900496 262.06232 
L 336.179835 262.06232 
L 339.459174 262.521118 
L 342.738512 262.06232 
L 346.017851 262.06232 
L 349.29719 262.06232 
L 352.576529 262.06232 
L 355.855868 262.521118 
L 359.135207 262.06232 
L 362.414545 262.06232 
L 365.693884 262.06232 
L 368.973223 262.06232 
L 372.252562 262.06232 
L 375.531901 262.06232 
L 378.81124 262.06232 
L 382.090579 262.06232 
L 385.369917 262.06232 
L 388.649256 262.06232 
L 391.928595 262.06232 
L 395.207934 262.06232 
L 398.487273 262.06232 
" style="fill:none;stroke:#ff7f0e;stroke-linecap:square;stroke-width:1.5;"/>
   </g>
   <g id="line2d_14">
    <path clip-path="url(#p262342d215)" d="M 73.832727 124.422918 
L 77.112066 106.988591 
L 80.391405 102.400611 
L 83.670744 109.282581 
L 86.950083 99.189024 
L 90.229421 103.777004 
L 93.50876 109.741378 
L 96.788099 98.730225 
L 100.067438 101.024216 
L 103.346777 107.447388 
L 106.626116 105.612197 
L 109.905455 106.98859 
L 113.184793 102.859407 
L 116.464132 105.153398 
L 119.743471 107.447388 
L 123.02281 106.529792 
L 126.302149 106.529792 
L 129.581488 104.235802 
L 132.860826 115.246954 
L 136.140165 103.318206 
L 139.419504 109.282581 
L 142.698843 119.376137 
L 145.978182 101.024216 
L 149.257521 110.200177 
L 152.53686 115.246955 
L 155.816198 111.57657 
L 159.095537 101.024217 
L 162.374876 114.788157 
L 165.654215 109.741378 
L 168.933554 116.164551 
L 172.212893 114.329359 
L 175.492231 116.623349 
L 178.77157 119.376138 
L 182.050909 112.035369 
L 185.330248 121.670127 
L 188.609587 118.917338 
L 191.888926 110.658974 
L 195.168264 105.612196 
L 198.447603 116.16455 
L 201.726942 118.45854 
L 205.006281 121.211329 
L 208.28562 111.57657 
L 211.564959 115.705753 
L 214.844298 131.763682 
L 218.123636 129.928491 
L 221.402975 122.128924 
L 224.682314 130.387288 
L 227.961653 126.258107 
L 231.240992 130.387288 
L 234.520331 117.082146 
L 237.799669 122.128925 
L 241.079008 127.175702 
L 244.358347 134.975268 
L 247.637686 124.422915 
L 250.917025 121.670127 
L 254.196364 122.128924 
L 257.475702 133.140076 
L 260.755041 138.645653 
L 264.03438 124.881713 
L 267.313719 145.068825 
L 270.593058 120.293733 
L 273.872397 129.010894 
L 277.151736 133.140076 
L 280.431074 131.763683 
L 283.710413 132.22248 
L 286.989752 123.964117 
L 290.269091 138.645653 
L 293.54843 138.186855 
L 296.827769 128.093299 
L 300.107107 123.964117 
L 303.386446 132.681279 
L 306.665785 127.634501 
L 309.945124 128.552097 
L 313.224463 137.269259 
L 316.503802 131.763683 
L 319.78314 133.140078 
L 323.062479 134.975269 
L 326.341818 140.480845 
L 329.621157 126.716905 
L 332.900496 134.51647 
L 336.179835 131.304885 
L 339.459174 137.728056 
L 342.738512 141.398441 
L 346.017851 140.022047 
L 349.29719 133.140077 
L 352.576529 139.56325 
L 355.855868 142.774835 
L 359.135207 137.728058 
L 362.414545 145.527623 
L 365.693884 128.093299 
L 368.973223 149.656805 
L 372.252562 141.857238 
L 375.531901 135.892865 
L 378.81124 138.186855 
L 382.090579 141.857239 
L 385.369917 147.821613 
L 388.649256 144.151229 
L 391.928595 151.950795 
L 395.207934 143.692431 
L 398.487273 162.044351 
" style="fill:none;stroke:#2ca02c;stroke-linecap:square;stroke-width:1.5;"/>
   </g>
   <g id="line2d_15">
    <path clip-path="url(#p262342d215)" d="M 73.832727 170.302719 
L 77.112066 165.714739 
L 80.391405 160.209163 
L 83.670744 156.538779 
L 86.950083 155.162385 
L 90.229421 164.338345 
L 93.50876 165.714739 
L 96.788099 162.961951 
L 100.067438 164.797143 
L 103.346777 174.431901 
L 106.626116 170.761517 
L 109.905455 172.137911 
L 113.184793 172.137911 
L 116.464132 178.102285 
L 119.743471 188.195841 
L 123.02281 190.031033 
L 126.302149 184.525457 
L 129.581488 182.690265 
L 132.860826 183.607861 
L 136.140165 186.360649 
L 139.419504 178.102285 
L 142.698843 191.407427 
L 145.978182 194.160215 
L 149.257521 197.371801 
L 152.53686 200.583387 
L 155.816198 196.913003 
L 159.095537 187.737043 
L 162.374876 189.572235 
L 165.654215 199.206993 
L 168.933554 195.536609 
L 172.212893 192.325023 
L 175.492231 191.407427 
L 178.77157 204.253771 
L 182.050909 199.206993 
L 185.330248 195.536609 
L 188.609587 198.289397 
L 191.888926 199.665791 
L 195.168264 197.830599 
L 198.447603 190.031033 
L 201.726942 200.124589 
L 205.006281 186.360649 
L 208.28562 198.289397 
L 211.564959 198.289397 
L 214.844298 207.006559 
L 218.123636 193.701417 
L 221.402975 204.712569 
L 224.682314 203.336175 
L 227.961653 197.830599 
L 231.240992 189.572235 
L 234.520331 204.253771 
L 237.799669 198.748195 
L 241.079008 202.418579 
L 244.358347 198.289397 
L 247.637686 204.712569 
L 250.917025 207.006559 
L 254.196364 201.042185 
L 257.475702 196.454205 
L 260.755041 195.995407 
L 264.03438 194.160215 
L 267.313719 207.465357 
L 270.593058 191.407427 
L 273.872397 196.913003 
L 277.151736 203.794973 
L 280.431074 198.289397 
L 283.710413 190.948629 
L 286.989752 196.454205 
L 290.269091 199.665791 
L 293.54843 194.619013 
L 296.827769 195.077811 
L 300.107107 192.325023 
L 303.386446 204.253771 
L 306.665785 193.242619 
L 309.945124 202.877377 
L 313.224463 199.206993 
L 316.503802 198.748195 
L 319.78314 194.619013 
L 323.062479 185.443053 
L 326.341818 192.783821 
L 329.621157 188.654639 
L 332.900496 186.819447 
L 336.179835 190.031033 
L 339.459174 199.665791 
L 342.738512 193.701417 
L 346.017851 193.242619 
L 349.29719 196.913003 
L 352.576529 192.325023 
L 355.855868 195.536609 
L 359.135207 186.819447 
L 362.414545 183.607861 
L 365.693884 191.407427 
L 368.973223 200.583387 
L 372.252562 206.547761 
L 375.531901 179.478679 
L 378.81124 176.725891 
L 382.090579 196.913003 
L 385.369917 184.984255 
L 388.649256 182.231467 
L 391.928595 190.948629 
L 395.207934 189.113437 
L 398.487273 202.418579 
" style="fill:none;stroke:#d62728;stroke-linecap:square;stroke-width:1.5;"/>
   </g>
   <g id="patch_3">
    <path d="M 57.6 307.584 
L 57.6 41.472 
" style="fill:none;stroke:#000000;stroke-linecap:square;stroke-linejoin:miter;stroke-width:0.8;"/>
   </g>
   <g id="patch_4">
    <path d="M 414.72 307.584 
L 414.72 41.472 
" style="fill:none;stroke:#000000;stroke-linecap:square;stroke-linejoin:miter;stroke-width:0.8;"/>
   </g>
   <g id="patch_5">
    <path d="M 57.6 307.584 
L 414.72 307.584 
" style="fill:none;stroke:#000000;stroke-linecap:square;stroke-linejoin:miter;stroke-width:0.8;"/>
   </g>
   <g id="patch_6">
    <path d="M 57.6 41.472 
L 414.72 41.472 
" style="fill:none;stroke:#000000;stroke-linecap:square;stroke-linejoin:miter;stroke-width:0.8;"/>
   </g>
   <g id="text_14">
    <!-- Toy_non_linear_100_100 -->
    <g transform="translate(163.14 35.472)scale(0.12 -0.12)">
     <defs>
      <path d="M -0.296875 72.90625 
L 61.375 72.90625 
L 61.375 64.59375 
L 35.5 64.59375 
L 35.5 0 
L 25.59375 0 
L 25.59375 64.59375 
L -0.296875 64.59375 
z
" id="DejaVuSans-84"/>
      <path d="M 50.984375 -16.609375 
L 50.984375 -23.578125 
L -0.984375 -23.578125 
L -0.984375 -16.609375 
z
" id="DejaVuSans-95"/>
      <path d="M 54.890625 33.015625 
L 54.890625 0 
L 45.90625 0 
L 45.90625 32.71875 
Q 45.90625 40.484375 42.875 44.328125 
Q 39.84375 48.1875 33.796875 48.1875 
Q 26.515625 48.1875 22.3125 43.546875 
Q 18.109375 38.921875 18.109375 30.90625 
L 18.109375 0 
L 9.078125 0 
L 9.078125 54.6875 
L 18.109375 54.6875 
L 18.109375 46.1875 
Q 21.34375 51.125 25.703125 53.5625 
Q 30.078125 56 35.796875 56 
Q 45.21875 56 50.046875 50.171875 
Q 54.890625 44.34375 54.890625 33.015625 
z
" id="DejaVuSans-110"/>
      <path d="M 9.421875 75.984375 
L 18.40625 75.984375 
L 18.40625 0 
L 9.421875 0 
z
" id="DejaVuSans-108"/>
      <path d="M 9.421875 54.6875 
L 18.40625 54.6875 
L 18.40625 0 
L 9.421875 0 
z
M 9.421875 75.984375 
L 18.40625 75.984375 
L 18.40625 64.59375 
L 9.421875 64.59375 
z
" id="DejaVuSans-105"/>
     </defs>
     <use xlink:href="#DejaVuSans-84"/>
     <use x="44.083984" xlink:href="#DejaVuSans-111"/>
     <use x="105.265625" xlink:href="#DejaVuSans-121"/>
     <use x="164.445312" xlink:href="#DejaVuSans-95"/>
     <use x="214.445312" xlink:href="#DejaVuSans-110"/>
     <use x="277.824219" xlink:href="#DejaVuSans-111"/>
     <use x="339.005859" xlink:href="#DejaVuSans-110"/>
     <use x="402.384766" xlink:href="#DejaVuSans-95"/>
     <use x="452.384766" xlink:href="#DejaVuSans-108"/>
     <use x="480.167969" xlink:href="#DejaVuSans-105"/>
     <use x="507.951172" xlink:href="#DejaVuSans-110"/>
     <use x="571.330078" xlink:href="#DejaVuSans-101"/>
     <use x="632.853516" xlink:href="#DejaVuSans-97"/>
     <use x="694.132812" xlink:href="#DejaVuSans-114"/>
     <use x="735.246094" xlink:href="#DejaVuSans-95"/>
     <use x="785.246094" xlink:href="#DejaVuSans-49"/>
     <use x="848.869141" xlink:href="#DejaVuSans-48"/>
     <use x="912.492188" xlink:href="#DejaVuSans-48"/>
     <use x="976.115234" xlink:href="#DejaVuSans-95"/>
     <use x="1026.115234" xlink:href="#DejaVuSans-49"/>
     <use x="1089.738281" xlink:href="#DejaVuSans-48"/>
     <use x="1153.361328" xlink:href="#DejaVuSans-48"/>
    </g>
   </g>
   <g id="legend_1">
    <g id="patch_7">
     <path d="M 211.399687 108.1845 
L 407.72 108.1845 
Q 409.72 108.1845 409.72 106.1845 
L 409.72 48.472 
Q 409.72 46.472 407.72 46.472 
L 211.399687 46.472 
Q 209.399687 46.472 209.399687 48.472 
L 209.399687 106.1845 
Q 209.399687 108.1845 211.399687 108.1845 
z
" style="fill:#ffffff;opacity:0.8;stroke:#cccccc;stroke-linejoin:miter;"/>
    </g>
    <g id="line2d_16">
     <path d="M 213.399687 54.570438 
L 233.399687 54.570438 
" style="fill:none;stroke:#1f77b4;stroke-linecap:square;stroke-width:1.5;"/>
    </g>
    <g id="line2d_17"/>
    <g id="text_15">
     <!-- Random Forest -->
     <g transform="translate(241.399687 58.070438)scale(0.1 -0.1)">
      <defs>
       <path d="M 44.390625 34.1875 
Q 47.5625 33.109375 50.5625 29.59375 
Q 53.5625 26.078125 56.59375 19.921875 
L 66.609375 0 
L 56 0 
L 46.6875 18.703125 
Q 43.0625 26.03125 39.671875 28.421875 
Q 36.28125 30.8125 30.421875 30.8125 
L 19.671875 30.8125 
L 19.671875 0 
L 9.8125 0 
L 9.8125 72.90625 
L 32.078125 72.90625 
Q 44.578125 72.90625 50.734375 67.671875 
Q 56.890625 62.453125 56.890625 51.90625 
Q 56.890625 45.015625 53.6875 40.46875 
Q 50.484375 35.9375 44.390625 34.1875 
z
M 19.671875 64.796875 
L 19.671875 38.921875 
L 32.078125 38.921875 
Q 39.203125 38.921875 42.84375 42.21875 
Q 46.484375 45.515625 46.484375 51.90625 
Q 46.484375 58.296875 42.84375 61.546875 
Q 39.203125 64.796875 32.078125 64.796875 
z
" id="DejaVuSans-82"/>
       <path d="M 45.40625 46.390625 
L 45.40625 75.984375 
L 54.390625 75.984375 
L 54.390625 0 
L 45.40625 0 
L 45.40625 8.203125 
Q 42.578125 3.328125 38.25 0.953125 
Q 33.9375 -1.421875 27.875 -1.421875 
Q 17.96875 -1.421875 11.734375 6.484375 
Q 5.515625 14.40625 5.515625 27.296875 
Q 5.515625 40.1875 11.734375 48.09375 
Q 17.96875 56 27.875 56 
Q 33.9375 56 38.25 53.625 
Q 42.578125 51.265625 45.40625 46.390625 
z
M 14.796875 27.296875 
Q 14.796875 17.390625 18.875 11.75 
Q 22.953125 6.109375 30.078125 6.109375 
Q 37.203125 6.109375 41.296875 11.75 
Q 45.40625 17.390625 45.40625 27.296875 
Q 45.40625 37.203125 41.296875 42.84375 
Q 37.203125 48.484375 30.078125 48.484375 
Q 22.953125 48.484375 18.875 42.84375 
Q 14.796875 37.203125 14.796875 27.296875 
z
" id="DejaVuSans-100"/>
       <path d="M 9.8125 72.90625 
L 51.703125 72.90625 
L 51.703125 64.59375 
L 19.671875 64.59375 
L 19.671875 43.109375 
L 48.578125 43.109375 
L 48.578125 34.8125 
L 19.671875 34.8125 
L 19.671875 0 
L 9.8125 0 
z
" id="DejaVuSans-70"/>
      </defs>
      <use xlink:href="#DejaVuSans-82"/>
      <use x="67.232422" xlink:href="#DejaVuSans-97"/>
      <use x="128.511719" xlink:href="#DejaVuSans-110"/>
      <use x="191.890625" xlink:href="#DejaVuSans-100"/>
      <use x="255.367188" xlink:href="#DejaVuSans-111"/>
      <use x="316.548828" xlink:href="#DejaVuSans-109"/>
      <use x="413.960938" xlink:href="#DejaVuSans-32"/>
      <use x="445.748047" xlink:href="#DejaVuSans-70"/>
      <use x="499.642578" xlink:href="#DejaVuSans-111"/>
      <use x="560.824219" xlink:href="#DejaVuSans-114"/>
      <use x="599.6875" xlink:href="#DejaVuSans-101"/>
      <use x="661.210938" xlink:href="#DejaVuSans-115"/>
      <use x="713.310547" xlink:href="#DejaVuSans-116"/>
     </g>
    </g>
    <g id="line2d_18">
     <path d="M 213.399687 69.248563 
L 233.399687 69.248563 
" style="fill:none;stroke:#ff7f0e;stroke-linecap:square;stroke-width:1.5;"/>
    </g>
    <g id="line2d_19"/>
    <g id="text_16">
     <!-- XGBoost -->
     <g transform="translate(241.399687 72.748563)scale(0.1 -0.1)">
      <defs>
       <path d="M 6.296875 72.90625 
L 16.890625 72.90625 
L 35.015625 45.796875 
L 53.21875 72.90625 
L 63.8125 72.90625 
L 40.375 37.890625 
L 65.375 0 
L 54.78125 0 
L 34.28125 31 
L 13.625 0 
L 2.984375 0 
L 29 38.921875 
z
" id="DejaVuSans-88"/>
       <path d="M 59.515625 10.40625 
L 59.515625 29.984375 
L 43.40625 29.984375 
L 43.40625 38.09375 
L 69.28125 38.09375 
L 69.28125 6.78125 
Q 63.578125 2.734375 56.6875 0.65625 
Q 49.8125 -1.421875 42 -1.421875 
Q 24.90625 -1.421875 15.25 8.5625 
Q 5.609375 18.5625 5.609375 36.375 
Q 5.609375 54.25 15.25 64.234375 
Q 24.90625 74.21875 42 74.21875 
Q 49.125 74.21875 55.546875 72.453125 
Q 61.96875 70.703125 67.390625 67.28125 
L 67.390625 56.78125 
Q 61.921875 61.421875 55.765625 63.765625 
Q 49.609375 66.109375 42.828125 66.109375 
Q 29.4375 66.109375 22.71875 58.640625 
Q 16.015625 51.171875 16.015625 36.375 
Q 16.015625 21.625 22.71875 14.15625 
Q 29.4375 6.6875 42.828125 6.6875 
Q 48.046875 6.6875 52.140625 7.59375 
Q 56.25 8.5 59.515625 10.40625 
z
" id="DejaVuSans-71"/>
       <path d="M 19.671875 34.8125 
L 19.671875 8.109375 
L 35.5 8.109375 
Q 43.453125 8.109375 47.28125 11.40625 
Q 51.125 14.703125 51.125 21.484375 
Q 51.125 28.328125 47.28125 31.5625 
Q 43.453125 34.8125 35.5 34.8125 
z
M 19.671875 64.796875 
L 19.671875 42.828125 
L 34.28125 42.828125 
Q 41.5 42.828125 45.03125 45.53125 
Q 48.578125 48.25 48.578125 53.8125 
Q 48.578125 59.328125 45.03125 62.0625 
Q 41.5 64.796875 34.28125 64.796875 
z
M 9.8125 72.90625 
L 35.015625 72.90625 
Q 46.296875 72.90625 52.390625 68.21875 
Q 58.5 63.53125 58.5 54.890625 
Q 58.5 48.1875 55.375 44.234375 
Q 52.25 40.28125 46.1875 39.3125 
Q 53.46875 37.75 57.5 32.78125 
Q 61.53125 27.828125 61.53125 20.40625 
Q 61.53125 10.640625 54.890625 5.3125 
Q 48.25 0 35.984375 0 
L 9.8125 0 
z
" id="DejaVuSans-66"/>
      </defs>
      <use xlink:href="#DejaVuSans-88"/>
      <use x="68.505859" xlink:href="#DejaVuSans-71"/>
      <use x="145.996094" xlink:href="#DejaVuSans-66"/>
      <use x="214.599609" xlink:href="#DejaVuSans-111"/>
      <use x="275.78125" xlink:href="#DejaVuSans-111"/>
      <use x="336.962891" xlink:href="#DejaVuSans-115"/>
      <use x="389.0625" xlink:href="#DejaVuSans-116"/>
     </g>
    </g>
    <g id="line2d_20">
     <path d="M 213.399687 83.926688 
L 233.399687 83.926688 
" style="fill:none;stroke:#2ca02c;stroke-linecap:square;stroke-width:1.5;"/>
    </g>
    <g id="line2d_21"/>
    <g id="text_17">
     <!-- Neural Network + Regularization -->
     <g transform="translate(241.399687 87.426688)scale(0.1 -0.1)">
      <defs>
       <path d="M 4.203125 54.6875 
L 13.1875 54.6875 
L 24.421875 12.015625 
L 35.59375 54.6875 
L 46.1875 54.6875 
L 57.421875 12.015625 
L 68.609375 54.6875 
L 77.59375 54.6875 
L 63.28125 0 
L 52.6875 0 
L 40.921875 44.828125 
L 29.109375 0 
L 18.5 0 
z
" id="DejaVuSans-119"/>
       <path d="M 9.078125 75.984375 
L 18.109375 75.984375 
L 18.109375 31.109375 
L 44.921875 54.6875 
L 56.390625 54.6875 
L 27.390625 29.109375 
L 57.625 0 
L 45.90625 0 
L 18.109375 26.703125 
L 18.109375 0 
L 9.078125 0 
z
" id="DejaVuSans-107"/>
       <path d="M 46 62.703125 
L 46 35.5 
L 73.1875 35.5 
L 73.1875 27.203125 
L 46 27.203125 
L 46 0 
L 37.796875 0 
L 37.796875 27.203125 
L 10.59375 27.203125 
L 10.59375 35.5 
L 37.796875 35.5 
L 37.796875 62.703125 
z
" id="DejaVuSans-43"/>
       <path d="M 45.40625 27.984375 
Q 45.40625 37.75 41.375 43.109375 
Q 37.359375 48.484375 30.078125 48.484375 
Q 22.859375 48.484375 18.828125 43.109375 
Q 14.796875 37.75 14.796875 27.984375 
Q 14.796875 18.265625 18.828125 12.890625 
Q 22.859375 7.515625 30.078125 7.515625 
Q 37.359375 7.515625 41.375 12.890625 
Q 45.40625 18.265625 45.40625 27.984375 
z
M 54.390625 6.78125 
Q 54.390625 -7.171875 48.1875 -13.984375 
Q 42 -20.796875 29.203125 -20.796875 
Q 24.46875 -20.796875 20.265625 -20.09375 
Q 16.0625 -19.390625 12.109375 -17.921875 
L 12.109375 -9.1875 
Q 16.0625 -11.328125 19.921875 -12.34375 
Q 23.78125 -13.375 27.78125 -13.375 
Q 36.625 -13.375 41.015625 -8.765625 
Q 45.40625 -4.15625 45.40625 5.171875 
L 45.40625 9.625 
Q 42.625 4.78125 38.28125 2.390625 
Q 33.9375 0 27.875 0 
Q 17.828125 0 11.671875 7.65625 
Q 5.515625 15.328125 5.515625 27.984375 
Q 5.515625 40.671875 11.671875 48.328125 
Q 17.828125 56 27.875 56 
Q 33.9375 56 38.28125 53.609375 
Q 42.625 51.21875 45.40625 46.390625 
L 45.40625 54.6875 
L 54.390625 54.6875 
z
" id="DejaVuSans-103"/>
       <path d="M 5.515625 54.6875 
L 48.1875 54.6875 
L 48.1875 46.484375 
L 14.40625 7.171875 
L 48.1875 7.171875 
L 48.1875 0 
L 4.296875 0 
L 4.296875 8.203125 
L 38.09375 47.515625 
L 5.515625 47.515625 
z
" id="DejaVuSans-122"/>
      </defs>
      <use xlink:href="#DejaVuSans-78"/>
      <use x="74.804688" xlink:href="#DejaVuSans-101"/>
      <use x="136.328125" xlink:href="#DejaVuSans-117"/>
      <use x="199.707031" xlink:href="#DejaVuSans-114"/>
      <use x="240.820312" xlink:href="#DejaVuSans-97"/>
      <use x="302.099609" xlink:href="#DejaVuSans-108"/>
      <use x="329.882812" xlink:href="#DejaVuSans-32"/>
      <use x="361.669922" xlink:href="#DejaVuSans-78"/>
      <use x="436.474609" xlink:href="#DejaVuSans-101"/>
      <use x="497.998047" xlink:href="#DejaVuSans-116"/>
      <use x="537.207031" xlink:href="#DejaVuSans-119"/>
      <use x="618.994141" xlink:href="#DejaVuSans-111"/>
      <use x="680.175781" xlink:href="#DejaVuSans-114"/>
      <use x="721.289062" xlink:href="#DejaVuSans-107"/>
      <use x="779.199219" xlink:href="#DejaVuSans-32"/>
      <use x="810.986328" xlink:href="#DejaVuSans-43"/>
      <use x="894.775391" xlink:href="#DejaVuSans-32"/>
      <use x="926.5625" xlink:href="#DejaVuSans-82"/>
      <use x="991.544922" xlink:href="#DejaVuSans-101"/>
      <use x="1053.068359" xlink:href="#DejaVuSans-103"/>
      <use x="1116.544922" xlink:href="#DejaVuSans-117"/>
      <use x="1179.923828" xlink:href="#DejaVuSans-108"/>
      <use x="1207.707031" xlink:href="#DejaVuSans-97"/>
      <use x="1268.986328" xlink:href="#DejaVuSans-114"/>
      <use x="1310.099609" xlink:href="#DejaVuSans-105"/>
      <use x="1337.882812" xlink:href="#DejaVuSans-122"/>
      <use x="1390.373047" xlink:href="#DejaVuSans-97"/>
      <use x="1451.652344" xlink:href="#DejaVuSans-116"/>
      <use x="1490.861328" xlink:href="#DejaVuSans-105"/>
      <use x="1518.644531" xlink:href="#DejaVuSans-111"/>
      <use x="1579.826172" xlink:href="#DejaVuSans-110"/>
     </g>
    </g>
    <g id="line2d_22">
     <path d="M 213.399687 98.604813 
L 233.399687 98.604813 
" style="fill:none;stroke:#d62728;stroke-linecap:square;stroke-width:1.5;"/>
    </g>
    <g id="line2d_23"/>
    <g id="text_18">
     <!-- KNN -->
     <g transform="translate(241.399687 102.104813)scale(0.1 -0.1)">
      <defs>
       <path d="M 9.8125 72.90625 
L 19.671875 72.90625 
L 19.671875 42.09375 
L 52.390625 72.90625 
L 65.09375 72.90625 
L 28.90625 38.921875 
L 67.671875 0 
L 54.6875 0 
L 19.671875 35.109375 
L 19.671875 0 
L 9.8125 0 
z
" id="DejaVuSans-75"/>
      </defs>
      <use xlink:href="#DejaVuSans-75"/>
      <use x="65.576172" xlink:href="#DejaVuSans-78"/>
      <use x="140.380859" xlink:href="#DejaVuSans-78"/>
     </g>
    </g>
   </g>
  </g>
 </g>
 <defs>
  <clipPath id="p262342d215">
   <rect height="266.112" width="357.12" x="57.6" y="41.472"/>
  </clipPath>
 </defs>
</svg>
