<?xml version="1.0" encoding="utf-8" standalone="no"?>
<!DOCTYPE svg PUBLIC "-//W3C//DTD SVG 1.1//EN"
  "http://www.w3.org/Graphics/SVG/1.1/DTD/svg11.dtd">
<!-- Created with matplotlib (https://matplotlib.org/) -->
<svg height="345.6pt" version="1.1" viewBox="0 0 460.8 345.6" width="460.8pt" xmlns="http://www.w3.org/2000/svg" xmlns:xlink="http://www.w3.org/1999/xlink">
 <metadata>
  <rdf:RDF xmlns:cc="http://creativecommons.org/ns#" xmlns:dc="http://purl.org/dc/elements/1.1/" xmlns:rdf="http://www.w3.org/1999/02/22-rdf-syntax-ns#">
   <cc:Work>
    <dc:type rdf:resource="http://purl.org/dc/dcmitype/StillImage"/>
    <dc:date>2023-09-23T23:01:19.535570</dc:date>
    <dc:format>image/svg+xml</dc:format>
    <dc:creator>
     <cc:Agent>
      <dc:title>Matplotlib v3.3.4, https://matplotlib.org/</dc:title>
     </cc:Agent>
    </dc:creator>
   </cc:Work>
  </rdf:RDF>
 </metadata>
 <defs>
  <style type="text/css">*{stroke-linecap:butt;stroke-linejoin:round;}</style>
 </defs>
 <g id="figure_1">
  <g id="patch_1">
   <path d="M 0 345.6 
L 460.8 345.6 
L 460.8 0 
L 0 0 
z
" style="fill:#ffffff;"/>
  </g>
  <g id="axes_1">
   <g id="patch_2">
    <path d="M 57.6 307.584 
L 414.72 307.584 
L 414.72 41.472 
L 57.6 41.472 
z
" style="fill:#ffffff;"/>
   </g>
   <g id="PolyCollection_1">
    <path clip-path="url(#p1603f5a9e2)" d="M 73.832727 68.183252 
L 73.832727 68.183252 
L 79.243636 79.222737 
L 84.654545 89.535623 
L 90.065455 86.930769 
L 95.476364 94.605591 
L 100.887273 94.103393 
L 106.298182 104.269656 
L 111.709091 105.225123 
L 117.12 105.960223 
L 122.530909 108.762888 
L 127.941818 118.010963 
L 133.352727 119.136017 
L 138.763636 126.144214 
L 144.174545 126.958364 
L 149.585455 123.833081 
L 154.996364 128.970061 
L 160.407273 135.458427 
L 165.818182 132.494556 
L 171.229091 135.11027 
L 176.64 133.024144 
L 182.050909 140.035383 
L 187.461818 139.314422 
L 192.872727 145.186268 
L 198.283636 143.100107 
L 203.694545 148.330569 
L 209.105455 143.633551 
L 214.516364 152.66359 
L 219.927273 147.450514 
L 225.338182 148.931269 
L 230.749091 148.130564 
L 236.16 149.934577 
L 241.570909 147.589874 
L 246.981818 151.479848 
L 252.392727 155.531342 
L 257.803636 155.940836 
L 263.214545 156.303539 
L 268.625455 156.91048 
L 274.036364 156.754518 
L 279.447273 156.258497 
L 284.858182 161.946842 
L 290.269091 157.595043 
L 295.68 156.483474 
L 301.090909 158.858597 
L 306.501818 157.704305 
L 311.912727 156.171778 
L 317.323636 155.161608 
L 322.734545 158.611121 
L 328.145455 159.029873 
L 333.556364 157.385744 
L 338.967273 156.622919 
L 344.378182 152.894702 
L 349.789091 154.824743 
L 355.2 152.440225 
L 360.610909 152.209997 
L 366.021818 151.395799 
L 371.432727 150.105422 
L 376.843636 152.196132 
L 382.254545 150.105422 
L 387.665455 151.912455 
L 393.076364 150.105422 
L 398.487273 150.105422 
L 398.487273 150.105422 
L 398.487273 150.105422 
L 393.076364 150.105422 
L 387.665455 148.711616 
L 382.254545 150.105422 
L 376.843636 147.394873 
L 371.432727 150.105422 
L 366.021818 148.608433 
L 360.610909 147.174394 
L 355.2 146.53094 
L 349.789091 144.766262 
L 344.378182 144.63017 
L 338.967273 138.009367 
L 333.556364 141.172195 
L 328.145455 142.214038 
L 322.734545 138.500525 
L 317.323636 131.41276 
L 311.912727 135.774535 
L 306.501818 132.589102 
L 301.090909 127.509157 
L 295.68 132.36364 
L 290.269091 133.731431 
L 284.858182 122.148166 
L 279.447273 129.69603 
L 274.036364 121.968545 
L 268.625455 116.440637 
L 263.214545 118.493871 
L 257.803636 123.815293 
L 252.392727 119.885908 
L 246.981818 115.466256 
L 241.570909 106.339593 
L 236.16 102.755211 
L 230.749091 102.906317 
L 225.338182 106.031264 
L 219.927273 101.726847 
L 214.516364 96.926998 
L 209.105455 92.9404 
L 203.694545 103.119539 
L 198.283636 97.192883 
L 192.872727 92.007522 
L 187.461818 92.92065 
L 182.050909 95.918728 
L 176.64 86.400903 
L 171.229091 84.108164 
L 165.818182 82.178386 
L 160.407273 84.793073 
L 154.996364 79.711095 
L 149.585455 70.591758 
L 144.174545 81.722791 
L 138.763636 77.578223 
L 133.352727 66.197837 
L 127.941818 68.56257 
L 122.530909 65.827075 
L 117.12 58.505688 
L 111.709091 65.852413 
L 106.298182 62.055774 
L 100.887273 60.44508 
L 95.476364 59.736269 
L 90.065455 53.568 
L 84.654545 57.987999 
L 79.243636 62.102485 
L 73.832727 68.183252 
z
" style="fill:#1f77b4;fill-opacity:0.2;"/>
   </g>
   <g id="PolyCollection_2">
    <path clip-path="url(#p1603f5a9e2)" d="M 73.832727 93.390073 
L 73.832727 93.390073 
L 79.243636 109.83795 
L 84.654545 115.672387 
L 90.065455 118.597428 
L 95.476364 118.434728 
L 100.887273 127.42912 
L 106.298182 126.957972 
L 111.709091 131.578674 
L 117.12 137.301044 
L 122.530909 137.63858 
L 127.941818 132.769298 
L 133.352727 140.976178 
L 138.763636 135.211484 
L 144.174545 145.561829 
L 149.585455 142.567807 
L 154.996364 153.497557 
L 160.407273 156.395516 
L 165.818182 150.727635 
L 171.229091 152.949795 
L 176.64 151.297604 
L 182.050909 146.342431 
L 187.461818 150.139158 
L 192.872727 151.73118 
L 198.283636 147.467338 
L 203.694545 157.120189 
L 209.105455 162.927862 
L 214.516364 167.563327 
L 219.927273 165.407716 
L 225.338182 168.743106 
L 230.749091 161.400476 
L 236.16 167.146779 
L 241.570909 158.919745 
L 246.981818 164.883413 
L 252.392727 165.795796 
L 257.803636 167.957444 
L 263.214545 171.927882 
L 268.625455 178.479762 
L 274.036364 167.739731 
L 279.447273 170.733359 
L 284.858182 170.57292 
L 290.269091 168.777837 
L 295.68 163.550548 
L 301.090909 178.216994 
L 306.501818 181.048268 
L 311.912727 164.479388 
L 317.323636 162.107665 
L 322.734545 158.594954 
L 328.145455 158.079104 
L 333.556364 161.548266 
L 338.967273 160.142009 
L 344.378182 158.144422 
L 349.789091 162.97982 
L 355.2 155.910432 
L 360.610909 153.817834 
L 366.021818 166.561018 
L 371.432727 152.081795 
L 376.843636 151.572857 
L 382.254545 152.209997 
L 387.665455 150.105422 
L 393.076364 150.105422 
L 398.487273 150.105422 
L 398.487273 150.105422 
L 398.487273 150.105422 
L 393.076364 150.105422 
L 387.665455 150.105422 
L 382.254545 147.174394 
L 376.843636 148.018148 
L 371.432727 148.12905 
L 366.021818 136.129187 
L 360.610909 145.773171 
L 355.2 142.440893 
L 349.789091 141.36329 
L 344.378182 141.23997 
L 338.967273 139.242383 
L 333.556364 139.075805 
L 328.145455 139.032541 
L 322.734545 140.582825 
L 317.323636 132.937848 
L 311.912727 134.698391 
L 306.501818 122.468389 
L 301.090909 131.704675 
L 295.68 130.668511 
L 290.269091 125.441222 
L 284.858182 128.811472 
L 279.447273 124.10554 
L 274.036364 129.371915 
L 268.625455 124.830282 
L 263.214545 131.382162 
L 257.803636 124.815322 
L 252.392727 118.712439 
L 246.981818 121.277728 
L 241.570909 121.662837 
L 236.16 111.782897 
L 230.749091 112.363867 
L 225.338182 107.913823 
L 219.927273 115.794706 
L 214.516364 109.506829 
L 209.105455 103.605016 
L 203.694545 105.280423 
L 198.283636 107.081969 
L 192.872727 110.876046 
L 187.461818 97.59191 
L 182.050909 105.107677 
L 176.64 100.56573 
L 171.229091 97.880472 
L 165.818182 92.251328 
L 160.407273 92.988458 
L 154.996364 93.820284 
L 149.585455 85.948225 
L 144.174545 89.359215 
L 138.763636 84.213564 
L 133.352727 88.572921 
L 127.941818 90.374788 
L 122.530909 76.001295 
L 117.12 86.256269 
L 111.709091 78.342162 
L 106.298182 87.508357 
L 100.887273 78.772676 
L 95.476364 76.609951 
L 90.065455 78.513384 
L 84.654545 77.925999 
L 79.243636 82.314143 
L 73.832727 93.390073 
z
" style="fill:#ff7f0e;fill-opacity:0.2;"/>
   </g>
   <g id="PolyCollection_3">
    <path clip-path="url(#p1603f5a9e2)" d="M 73.832727 99.691806 
L 73.832727 99.691806 
L 79.243636 109.568854 
L 84.654545 112.103487 
L 90.065455 113.081524 
L 95.476364 118.217236 
L 100.887273 121.004187 
L 106.298182 129.570581 
L 111.709091 131.790684 
L 117.12 131.892086 
L 122.530909 134.504412 
L 127.941818 145.232915 
L 133.352727 147.706122 
L 138.763636 149.148071 
L 144.174545 150.993615 
L 149.585455 146.478438 
L 154.996364 165.120302 
L 160.407273 173.251749 
L 165.818182 161.393843 
L 171.229091 162.739403 
L 176.64 158.653619 
L 182.050909 160.552953 
L 187.461818 174.356711 
L 192.872727 154.021221 
L 198.283636 163.074417 
L 203.694545 173.788386 
L 209.105455 188.301058 
L 214.516364 208.063193 
L 219.927273 178.523291 
L 225.338182 191.041629 
L 230.749091 192.986985 
L 236.16 188.212139 
L 241.570909 195.084932 
L 246.981818 194.429841 
L 252.392727 228.505692 
L 257.803636 208.090122 
L 263.214545 211.370485 
L 268.625455 217.057673 
L 274.036364 207.537757 
L 279.447273 217.16816 
L 284.858182 230.773368 
L 290.269091 243.805193 
L 295.68 247.657848 
L 301.090909 241.851549 
L 306.501818 252.015364 
L 311.912727 233.521434 
L 317.323636 224.119544 
L 322.734545 259.979703 
L 328.145455 258.509749 
L 333.556364 242.668567 
L 338.967273 261.091128 
L 344.378182 267.530707 
L 349.789091 244.489055 
L 355.2 257.347568 
L 360.610909 250.969466 
L 366.021818 295.488 
L 371.432727 255.268291 
L 376.843636 275.424263 
L 382.254545 262.719145 
L 387.665455 254.932838 
L 393.076364 246.434797 
L 398.487273 195.642531 
L 398.487273 124.403164 
L 398.487273 124.403164 
L 393.076364 119.892278 
L 387.665455 123.171201 
L 382.254545 121.996525 
L 376.843636 134.498241 
L 371.432727 132.133355 
L 366.021818 131.790011 
L 360.610909 128.9941 
L 355.2 133.773125 
L 349.789091 128.243045 
L 344.378182 126.895791 
L 338.967273 122.591472 
L 333.556364 133.989192 
L 328.145455 124.966257 
L 322.734545 132.174058 
L 317.323636 127.12478 
L 311.912727 118.549347 
L 306.501818 116.171248 
L 301.090909 122.409407 
L 295.68 125.90071 
L 290.269091 110.744953 
L 284.858182 111.173362 
L 279.447273 115.687589 
L 274.036364 112.301354 
L 268.625455 114.145169 
L 263.214545 117.766223 
L 257.803636 116.707708 
L 252.392727 108.069092 
L 246.981818 107.227288 
L 241.570909 113.80367 
L 236.16 105.59369 
L 230.749091 97.71965 
L 225.338182 106.896477 
L 219.927273 102.26591 
L 214.516364 102.891543 
L 209.105455 102.405582 
L 203.694545 97.083364 
L 198.283636 89.202142 
L 192.872727 91.230491 
L 187.461818 93.622449 
L 182.050909 90.48393 
L 176.64 94.862626 
L 171.229091 90.776845 
L 165.818182 95.428205 
L 160.407273 101.33905 
L 154.996364 93.974507 
L 149.585455 90.508743 
L 144.174545 91.985355 
L 138.763636 100.442531 
L 133.352727 81.636366 
L 127.941818 87.828617 
L 122.530909 90.912433 
L 117.12 95.177668 
L 111.709091 87.634371 
L 106.298182 89.028019 
L 100.887273 88.503442 
L 95.476364 88.604425 
L 90.065455 91.054167 
L 84.654545 90.585912 
L 79.243636 90.847814 
L 73.832727 99.691806 
z
" style="fill:#2ca02c;fill-opacity:0.2;"/>
   </g>
   <g id="PolyCollection_4">
    <path clip-path="url(#p1603f5a9e2)" d="M 73.832727 118.596895 
L 73.832727 118.596895 
L 79.243636 127.783028 
L 84.654545 136.247304 
L 90.065455 133.757862 
L 95.476364 135.1739 
L 100.887273 136.662884 
L 106.298182 138.434265 
L 111.709091 134.531419 
L 117.12 137.956003 
L 122.530909 139.475494 
L 127.941818 144.456641 
L 133.352727 141.890319 
L 138.763636 146.250676 
L 144.174545 146.351531 
L 149.585455 143.35299 
L 154.996364 146.970903 
L 160.407273 147.979994 
L 165.818182 146.227215 
L 171.229091 150.405105 
L 176.64 142.583085 
L 182.050909 150.783999 
L 187.461818 147.966956 
L 192.872727 157.176915 
L 198.283636 151.266847 
L 203.694545 154.885687 
L 209.105455 153.490111 
L 214.516364 153.706281 
L 219.927273 157.400074 
L 225.338182 154.668398 
L 230.749091 150.823667 
L 236.16 153.675436 
L 241.570909 161.752077 
L 246.981818 160.989027 
L 252.392727 156.401288 
L 257.803636 156.660353 
L 263.214545 163.804395 
L 268.625455 159.93731 
L 274.036364 159.593909 
L 279.447273 156.286598 
L 284.858182 164.907263 
L 290.269091 160.014217 
L 295.68 161.524003 
L 301.090909 169.472185 
L 306.501818 167.935847 
L 311.912727 170.166442 
L 317.323636 161.886159 
L 322.734545 166.184698 
L 328.145455 182.486188 
L 333.556364 169.668514 
L 338.967273 180.719613 
L 344.378182 174.002369 
L 349.789091 181.202321 
L 355.2 182.477272 
L 360.610909 179.498987 
L 366.021818 192.137286 
L 371.432727 208.196993 
L 376.843636 191.758882 
L 382.254545 165.607735 
L 387.665455 237.280014 
L 393.076364 168.364666 
L 398.487273 213.207122 
L 398.487273 104.565853 
L 398.487273 104.565853 
L 393.076364 139.284258 
L 387.665455 102.393969 
L 382.254545 136.875856 
L 376.843636 125.807479 
L 371.432727 115.361154 
L 366.021818 127.081981 
L 360.610909 127.530096 
L 355.2 130.336984 
L 349.789091 121.074657 
L 344.378182 122.07621 
L 338.967273 113.499446 
L 333.556364 114.219881 
L 328.145455 120.204017 
L 322.734545 115.430951 
L 317.323636 111.051731 
L 311.912727 105.664035 
L 306.501818 112.853348 
L 301.090909 109.250878 
L 295.68 108.934527 
L 290.269091 106.931888 
L 284.858182 111.129827 
L 279.447273 104.254495 
L 274.036364 107.352196 
L 268.625455 107.628634 
L 263.214545 112.852535 
L 257.803636 105.327032 
L 252.392727 108.89191 
L 246.981818 102.031425 
L 241.570909 106.433707 
L 236.16 103.766457 
L 230.749091 94.221428 
L 225.338182 102.153655 
L 219.927273 100.248432 
L 214.516364 99.19012 
L 209.105455 108.084048 
L 203.694545 104.828953 
L 198.283636 102.249394 
L 192.872727 101.298045 
L 187.461818 96.251686 
L 182.050909 102.938855 
L 176.64 99.982651 
L 171.229091 105.590496 
L 165.818182 105.016279 
L 160.407273 105.74286 
L 154.996364 101.380005 
L 149.585455 105.824371 
L 144.174545 100.759697 
L 138.763636 103.133299 
L 133.352727 102.328324 
L 127.941818 104.100881 
L 122.530909 100.40427 
L 117.12 100.477468 
L 111.709091 102.868985 
L 106.298182 108.47035 
L 100.887273 103.836719 
L 95.476364 99.953757 
L 90.065455 104.882222 
L 84.654545 107.144885 
L 79.243636 104.24543 
L 73.832727 118.596895 
z
" style="fill:#d62728;fill-opacity:0.2;"/>
   </g>
   <g id="matplotlib.axis_1">
    <g id="xtick_1">
     <g id="line2d_1">
      <defs>
       <path d="M 0 0 
L 0 3.5 
" id="md47c501e07" style="stroke:#000000;stroke-width:0.8;"/>
      </defs>
      <g>
       <use style="stroke:#000000;stroke-width:0.8;" x="403.898182" xlink:href="#md47c501e07" y="307.584"/>
      </g>
     </g>
     <g id="text_1">
      <!-- 0 -->
      <g transform="translate(400.716932 322.182437)scale(0.1 -0.1)">
       <defs>
        <path d="M 31.78125 66.40625 
Q 24.171875 66.40625 20.328125 58.90625 
Q 16.5 51.421875 16.5 36.375 
Q 16.5 21.390625 20.328125 13.890625 
Q 24.171875 6.390625 31.78125 6.390625 
Q 39.453125 6.390625 43.28125 13.890625 
Q 47.125 21.390625 47.125 36.375 
Q 47.125 51.421875 43.28125 58.90625 
Q 39.453125 66.40625 31.78125 66.40625 
z
M 31.78125 74.21875 
Q 44.046875 74.21875 50.515625 64.515625 
Q 56.984375 54.828125 56.984375 36.375 
Q 56.984375 17.96875 50.515625 8.265625 
Q 44.046875 -1.421875 31.78125 -1.421875 
Q 19.53125 -1.421875 13.0625 8.265625 
Q 6.59375 17.96875 6.59375 36.375 
Q 6.59375 54.828125 13.0625 64.515625 
Q 19.53125 74.21875 31.78125 74.21875 
z
" id="DejaVuSans-48"/>
       </defs>
       <use xlink:href="#DejaVuSans-48"/>
      </g>
     </g>
    </g>
    <g id="xtick_2">
     <g id="line2d_2">
      <g>
       <use style="stroke:#000000;stroke-width:0.8;" x="349.789091" xlink:href="#md47c501e07" y="307.584"/>
      </g>
     </g>
     <g id="text_2">
      <!-- 10 -->
      <g transform="translate(343.426591 322.182437)scale(0.1 -0.1)">
       <defs>
        <path d="M 12.40625 8.296875 
L 28.515625 8.296875 
L 28.515625 63.921875 
L 10.984375 60.40625 
L 10.984375 69.390625 
L 28.421875 72.90625 
L 38.28125 72.90625 
L 38.28125 8.296875 
L 54.390625 8.296875 
L 54.390625 0 
L 12.40625 0 
z
" id="DejaVuSans-49"/>
       </defs>
       <use xlink:href="#DejaVuSans-49"/>
       <use x="63.623047" xlink:href="#DejaVuSans-48"/>
      </g>
     </g>
    </g>
    <g id="xtick_3">
     <g id="line2d_3">
      <g>
       <use style="stroke:#000000;stroke-width:0.8;" x="295.68" xlink:href="#md47c501e07" y="307.584"/>
      </g>
     </g>
     <g id="text_3">
      <!-- 20 -->
      <g transform="translate(289.3175 322.182437)scale(0.1 -0.1)">
       <defs>
        <path d="M 19.1875 8.296875 
L 53.609375 8.296875 
L 53.609375 0 
L 7.328125 0 
L 7.328125 8.296875 
Q 12.9375 14.109375 22.625 23.890625 
Q 32.328125 33.6875 34.8125 36.53125 
Q 39.546875 41.84375 41.421875 45.53125 
Q 43.3125 49.21875 43.3125 52.78125 
Q 43.3125 58.59375 39.234375 62.25 
Q 35.15625 65.921875 28.609375 65.921875 
Q 23.96875 65.921875 18.8125 64.3125 
Q 13.671875 62.703125 7.8125 59.421875 
L 7.8125 69.390625 
Q 13.765625 71.78125 18.9375 73 
Q 24.125 74.21875 28.421875 74.21875 
Q 39.75 74.21875 46.484375 68.546875 
Q 53.21875 62.890625 53.21875 53.421875 
Q 53.21875 48.921875 51.53125 44.890625 
Q 49.859375 40.875 45.40625 35.40625 
Q 44.1875 33.984375 37.640625 27.21875 
Q 31.109375 20.453125 19.1875 8.296875 
z
" id="DejaVuSans-50"/>
       </defs>
       <use xlink:href="#DejaVuSans-50"/>
       <use x="63.623047" xlink:href="#DejaVuSans-48"/>
      </g>
     </g>
    </g>
    <g id="xtick_4">
     <g id="line2d_4">
      <g>
       <use style="stroke:#000000;stroke-width:0.8;" x="241.570909" xlink:href="#md47c501e07" y="307.584"/>
      </g>
     </g>
     <g id="text_4">
      <!-- 30 -->
      <g transform="translate(235.208409 322.182437)scale(0.1 -0.1)">
       <defs>
        <path d="M 40.578125 39.3125 
Q 47.65625 37.796875 51.625 33 
Q 55.609375 28.21875 55.609375 21.1875 
Q 55.609375 10.40625 48.1875 4.484375 
Q 40.765625 -1.421875 27.09375 -1.421875 
Q 22.515625 -1.421875 17.65625 -0.515625 
Q 12.796875 0.390625 7.625 2.203125 
L 7.625 11.71875 
Q 11.71875 9.328125 16.59375 8.109375 
Q 21.484375 6.890625 26.8125 6.890625 
Q 36.078125 6.890625 40.9375 10.546875 
Q 45.796875 14.203125 45.796875 21.1875 
Q 45.796875 27.640625 41.28125 31.265625 
Q 36.765625 34.90625 28.71875 34.90625 
L 20.21875 34.90625 
L 20.21875 43.015625 
L 29.109375 43.015625 
Q 36.375 43.015625 40.234375 45.921875 
Q 44.09375 48.828125 44.09375 54.296875 
Q 44.09375 59.90625 40.109375 62.90625 
Q 36.140625 65.921875 28.71875 65.921875 
Q 24.65625 65.921875 20.015625 65.03125 
Q 15.375 64.15625 9.8125 62.3125 
L 9.8125 71.09375 
Q 15.4375 72.65625 20.34375 73.4375 
Q 25.25 74.21875 29.59375 74.21875 
Q 40.828125 74.21875 47.359375 69.109375 
Q 53.90625 64.015625 53.90625 55.328125 
Q 53.90625 49.265625 50.4375 45.09375 
Q 46.96875 40.921875 40.578125 39.3125 
z
" id="DejaVuSans-51"/>
       </defs>
       <use xlink:href="#DejaVuSans-51"/>
       <use x="63.623047" xlink:href="#DejaVuSans-48"/>
      </g>
     </g>
    </g>
    <g id="xtick_5">
     <g id="line2d_5">
      <g>
       <use style="stroke:#000000;stroke-width:0.8;" x="187.461818" xlink:href="#md47c501e07" y="307.584"/>
      </g>
     </g>
     <g id="text_5">
      <!-- 40 -->
      <g transform="translate(181.099318 322.182437)scale(0.1 -0.1)">
       <defs>
        <path d="M 37.796875 64.3125 
L 12.890625 25.390625 
L 37.796875 25.390625 
z
M 35.203125 72.90625 
L 47.609375 72.90625 
L 47.609375 25.390625 
L 58.015625 25.390625 
L 58.015625 17.1875 
L 47.609375 17.1875 
L 47.609375 0 
L 37.796875 0 
L 37.796875 17.1875 
L 4.890625 17.1875 
L 4.890625 26.703125 
z
" id="DejaVuSans-52"/>
       </defs>
       <use xlink:href="#DejaVuSans-52"/>
       <use x="63.623047" xlink:href="#DejaVuSans-48"/>
      </g>
     </g>
    </g>
    <g id="xtick_6">
     <g id="line2d_6">
      <g>
       <use style="stroke:#000000;stroke-width:0.8;" x="133.352727" xlink:href="#md47c501e07" y="307.584"/>
      </g>
     </g>
     <g id="text_6">
      <!-- 50 -->
      <g transform="translate(126.990227 322.182437)scale(0.1 -0.1)">
       <defs>
        <path d="M 10.796875 72.90625 
L 49.515625 72.90625 
L 49.515625 64.59375 
L 19.828125 64.59375 
L 19.828125 46.734375 
Q 21.96875 47.46875 24.109375 47.828125 
Q 26.265625 48.1875 28.421875 48.1875 
Q 40.625 48.1875 47.75 41.5 
Q 54.890625 34.8125 54.890625 23.390625 
Q 54.890625 11.625 47.5625 5.09375 
Q 40.234375 -1.421875 26.90625 -1.421875 
Q 22.3125 -1.421875 17.546875 -0.640625 
Q 12.796875 0.140625 7.71875 1.703125 
L 7.71875 11.625 
Q 12.109375 9.234375 16.796875 8.0625 
Q 21.484375 6.890625 26.703125 6.890625 
Q 35.15625 6.890625 40.078125 11.328125 
Q 45.015625 15.765625 45.015625 23.390625 
Q 45.015625 31 40.078125 35.4375 
Q 35.15625 39.890625 26.703125 39.890625 
Q 22.75 39.890625 18.8125 39.015625 
Q 14.890625 38.140625 10.796875 36.28125 
z
" id="DejaVuSans-53"/>
       </defs>
       <use xlink:href="#DejaVuSans-53"/>
       <use x="63.623047" xlink:href="#DejaVuSans-48"/>
      </g>
     </g>
    </g>
    <g id="xtick_7">
     <g id="line2d_7">
      <g>
       <use style="stroke:#000000;stroke-width:0.8;" x="79.243636" xlink:href="#md47c501e07" y="307.584"/>
      </g>
     </g>
     <g id="text_7">
      <!-- 60 -->
      <g transform="translate(72.881136 322.182437)scale(0.1 -0.1)">
       <defs>
        <path d="M 33.015625 40.375 
Q 26.375 40.375 22.484375 35.828125 
Q 18.609375 31.296875 18.609375 23.390625 
Q 18.609375 15.53125 22.484375 10.953125 
Q 26.375 6.390625 33.015625 6.390625 
Q 39.65625 6.390625 43.53125 10.953125 
Q 47.40625 15.53125 47.40625 23.390625 
Q 47.40625 31.296875 43.53125 35.828125 
Q 39.65625 40.375 33.015625 40.375 
z
M 52.59375 71.296875 
L 52.59375 62.3125 
Q 48.875 64.0625 45.09375 64.984375 
Q 41.3125 65.921875 37.59375 65.921875 
Q 27.828125 65.921875 22.671875 59.328125 
Q 17.53125 52.734375 16.796875 39.40625 
Q 19.671875 43.65625 24.015625 45.921875 
Q 28.375 48.1875 33.59375 48.1875 
Q 44.578125 48.1875 50.953125 41.515625 
Q 57.328125 34.859375 57.328125 23.390625 
Q 57.328125 12.15625 50.6875 5.359375 
Q 44.046875 -1.421875 33.015625 -1.421875 
Q 20.359375 -1.421875 13.671875 8.265625 
Q 6.984375 17.96875 6.984375 36.375 
Q 6.984375 53.65625 15.1875 63.9375 
Q 23.390625 74.21875 37.203125 74.21875 
Q 40.921875 74.21875 44.703125 73.484375 
Q 48.484375 72.75 52.59375 71.296875 
z
" id="DejaVuSans-54"/>
       </defs>
       <use xlink:href="#DejaVuSans-54"/>
       <use x="63.623047" xlink:href="#DejaVuSans-48"/>
      </g>
     </g>
    </g>
    <g id="text_8">
     <!-- Number of features -->
     <g transform="translate(187.4225 335.860562)scale(0.1 -0.1)">
      <defs>
       <path d="M 9.8125 72.90625 
L 23.09375 72.90625 
L 55.421875 11.921875 
L 55.421875 72.90625 
L 64.984375 72.90625 
L 64.984375 0 
L 51.703125 0 
L 19.390625 60.984375 
L 19.390625 0 
L 9.8125 0 
z
" id="DejaVuSans-78"/>
       <path d="M 8.5 21.578125 
L 8.5 54.6875 
L 17.484375 54.6875 
L 17.484375 21.921875 
Q 17.484375 14.15625 20.5 10.265625 
Q 23.53125 6.390625 29.59375 6.390625 
Q 36.859375 6.390625 41.078125 11.03125 
Q 45.3125 15.671875 45.3125 23.6875 
L 45.3125 54.6875 
L 54.296875 54.6875 
L 54.296875 0 
L 45.3125 0 
L 45.3125 8.40625 
Q 42.046875 3.421875 37.71875 1 
Q 33.40625 -1.421875 27.6875 -1.421875 
Q 18.265625 -1.421875 13.375 4.4375 
Q 8.5 10.296875 8.5 21.578125 
z
M 31.109375 56 
z
" id="DejaVuSans-117"/>
       <path d="M 52 44.1875 
Q 55.375 50.25 60.0625 53.125 
Q 64.75 56 71.09375 56 
Q 79.640625 56 84.28125 50.015625 
Q 88.921875 44.046875 88.921875 33.015625 
L 88.921875 0 
L 79.890625 0 
L 79.890625 32.71875 
Q 79.890625 40.578125 77.09375 44.375 
Q 74.3125 48.1875 68.609375 48.1875 
Q 61.625 48.1875 57.5625 43.546875 
Q 53.515625 38.921875 53.515625 30.90625 
L 53.515625 0 
L 44.484375 0 
L 44.484375 32.71875 
Q 44.484375 40.625 41.703125 44.40625 
Q 38.921875 48.1875 33.109375 48.1875 
Q 26.21875 48.1875 22.15625 43.53125 
Q 18.109375 38.875 18.109375 30.90625 
L 18.109375 0 
L 9.078125 0 
L 9.078125 54.6875 
L 18.109375 54.6875 
L 18.109375 46.1875 
Q 21.1875 51.21875 25.484375 53.609375 
Q 29.78125 56 35.6875 56 
Q 41.65625 56 45.828125 52.96875 
Q 50 49.953125 52 44.1875 
z
" id="DejaVuSans-109"/>
       <path d="M 48.6875 27.296875 
Q 48.6875 37.203125 44.609375 42.84375 
Q 40.53125 48.484375 33.40625 48.484375 
Q 26.265625 48.484375 22.1875 42.84375 
Q 18.109375 37.203125 18.109375 27.296875 
Q 18.109375 17.390625 22.1875 11.75 
Q 26.265625 6.109375 33.40625 6.109375 
Q 40.53125 6.109375 44.609375 11.75 
Q 48.6875 17.390625 48.6875 27.296875 
z
M 18.109375 46.390625 
Q 20.953125 51.265625 25.265625 53.625 
Q 29.59375 56 35.59375 56 
Q 45.5625 56 51.78125 48.09375 
Q 58.015625 40.1875 58.015625 27.296875 
Q 58.015625 14.40625 51.78125 6.484375 
Q 45.5625 -1.421875 35.59375 -1.421875 
Q 29.59375 -1.421875 25.265625 0.953125 
Q 20.953125 3.328125 18.109375 8.203125 
L 18.109375 0 
L 9.078125 0 
L 9.078125 75.984375 
L 18.109375 75.984375 
z
" id="DejaVuSans-98"/>
       <path d="M 56.203125 29.59375 
L 56.203125 25.203125 
L 14.890625 25.203125 
Q 15.484375 15.921875 20.484375 11.0625 
Q 25.484375 6.203125 34.421875 6.203125 
Q 39.59375 6.203125 44.453125 7.46875 
Q 49.3125 8.734375 54.109375 11.28125 
L 54.109375 2.78125 
Q 49.265625 0.734375 44.1875 -0.34375 
Q 39.109375 -1.421875 33.890625 -1.421875 
Q 20.796875 -1.421875 13.15625 6.1875 
Q 5.515625 13.8125 5.515625 26.8125 
Q 5.515625 40.234375 12.765625 48.109375 
Q 20.015625 56 32.328125 56 
Q 43.359375 56 49.78125 48.890625 
Q 56.203125 41.796875 56.203125 29.59375 
z
M 47.21875 32.234375 
Q 47.125 39.59375 43.09375 43.984375 
Q 39.0625 48.390625 32.421875 48.390625 
Q 24.90625 48.390625 20.390625 44.140625 
Q 15.875 39.890625 15.1875 32.171875 
z
" id="DejaVuSans-101"/>
       <path d="M 41.109375 46.296875 
Q 39.59375 47.171875 37.8125 47.578125 
Q 36.03125 48 33.890625 48 
Q 26.265625 48 22.1875 43.046875 
Q 18.109375 38.09375 18.109375 28.8125 
L 18.109375 0 
L 9.078125 0 
L 9.078125 54.6875 
L 18.109375 54.6875 
L 18.109375 46.1875 
Q 20.953125 51.171875 25.484375 53.578125 
Q 30.03125 56 36.53125 56 
Q 37.453125 56 38.578125 55.875 
Q 39.703125 55.765625 41.0625 55.515625 
z
" id="DejaVuSans-114"/>
       <path id="DejaVuSans-32"/>
       <path d="M 30.609375 48.390625 
Q 23.390625 48.390625 19.1875 42.75 
Q 14.984375 37.109375 14.984375 27.296875 
Q 14.984375 17.484375 19.15625 11.84375 
Q 23.34375 6.203125 30.609375 6.203125 
Q 37.796875 6.203125 41.984375 11.859375 
Q 46.1875 17.53125 46.1875 27.296875 
Q 46.1875 37.015625 41.984375 42.703125 
Q 37.796875 48.390625 30.609375 48.390625 
z
M 30.609375 56 
Q 42.328125 56 49.015625 48.375 
Q 55.71875 40.765625 55.71875 27.296875 
Q 55.71875 13.875 49.015625 6.21875 
Q 42.328125 -1.421875 30.609375 -1.421875 
Q 18.84375 -1.421875 12.171875 6.21875 
Q 5.515625 13.875 5.515625 27.296875 
Q 5.515625 40.765625 12.171875 48.375 
Q 18.84375 56 30.609375 56 
z
" id="DejaVuSans-111"/>
       <path d="M 37.109375 75.984375 
L 37.109375 68.5 
L 28.515625 68.5 
Q 23.6875 68.5 21.796875 66.546875 
Q 19.921875 64.59375 19.921875 59.515625 
L 19.921875 54.6875 
L 34.71875 54.6875 
L 34.71875 47.703125 
L 19.921875 47.703125 
L 19.921875 0 
L 10.890625 0 
L 10.890625 47.703125 
L 2.296875 47.703125 
L 2.296875 54.6875 
L 10.890625 54.6875 
L 10.890625 58.5 
Q 10.890625 67.625 15.140625 71.796875 
Q 19.390625 75.984375 28.609375 75.984375 
z
" id="DejaVuSans-102"/>
       <path d="M 34.28125 27.484375 
Q 23.390625 27.484375 19.1875 25 
Q 14.984375 22.515625 14.984375 16.5 
Q 14.984375 11.71875 18.140625 8.90625 
Q 21.296875 6.109375 26.703125 6.109375 
Q 34.1875 6.109375 38.703125 11.40625 
Q 43.21875 16.703125 43.21875 25.484375 
L 43.21875 27.484375 
z
M 52.203125 31.203125 
L 52.203125 0 
L 43.21875 0 
L 43.21875 8.296875 
Q 40.140625 3.328125 35.546875 0.953125 
Q 30.953125 -1.421875 24.3125 -1.421875 
Q 15.921875 -1.421875 10.953125 3.296875 
Q 6 8.015625 6 15.921875 
Q 6 25.140625 12.171875 29.828125 
Q 18.359375 34.515625 30.609375 34.515625 
L 43.21875 34.515625 
L 43.21875 35.40625 
Q 43.21875 41.609375 39.140625 45 
Q 35.0625 48.390625 27.6875 48.390625 
Q 23 48.390625 18.546875 47.265625 
Q 14.109375 46.140625 10.015625 43.890625 
L 10.015625 52.203125 
Q 14.9375 54.109375 19.578125 55.046875 
Q 24.21875 56 28.609375 56 
Q 40.484375 56 46.34375 49.84375 
Q 52.203125 43.703125 52.203125 31.203125 
z
" id="DejaVuSans-97"/>
       <path d="M 18.3125 70.21875 
L 18.3125 54.6875 
L 36.8125 54.6875 
L 36.8125 47.703125 
L 18.3125 47.703125 
L 18.3125 18.015625 
Q 18.3125 11.328125 20.140625 9.421875 
Q 21.96875 7.515625 27.59375 7.515625 
L 36.8125 7.515625 
L 36.8125 0 
L 27.59375 0 
Q 17.1875 0 13.234375 3.875 
Q 9.28125 7.765625 9.28125 18.015625 
L 9.28125 47.703125 
L 2.6875 47.703125 
L 2.6875 54.6875 
L 9.28125 54.6875 
L 9.28125 70.21875 
z
" id="DejaVuSans-116"/>
       <path d="M 44.28125 53.078125 
L 44.28125 44.578125 
Q 40.484375 46.53125 36.375 47.5 
Q 32.28125 48.484375 27.875 48.484375 
Q 21.1875 48.484375 17.84375 46.4375 
Q 14.5 44.390625 14.5 40.28125 
Q 14.5 37.15625 16.890625 35.375 
Q 19.28125 33.59375 26.515625 31.984375 
L 29.59375 31.296875 
Q 39.15625 29.25 43.1875 25.515625 
Q 47.21875 21.78125 47.21875 15.09375 
Q 47.21875 7.46875 41.1875 3.015625 
Q 35.15625 -1.421875 24.609375 -1.421875 
Q 20.21875 -1.421875 15.453125 -0.5625 
Q 10.6875 0.296875 5.421875 2 
L 5.421875 11.28125 
Q 10.40625 8.6875 15.234375 7.390625 
Q 20.0625 6.109375 24.8125 6.109375 
Q 31.15625 6.109375 34.5625 8.28125 
Q 37.984375 10.453125 37.984375 14.40625 
Q 37.984375 18.0625 35.515625 20.015625 
Q 33.0625 21.96875 24.703125 23.78125 
L 21.578125 24.515625 
Q 13.234375 26.265625 9.515625 29.90625 
Q 5.8125 33.546875 5.8125 39.890625 
Q 5.8125 47.609375 11.28125 51.796875 
Q 16.75 56 26.8125 56 
Q 31.78125 56 36.171875 55.265625 
Q 40.578125 54.546875 44.28125 53.078125 
z
" id="DejaVuSans-115"/>
      </defs>
      <use xlink:href="#DejaVuSans-78"/>
      <use x="74.804688" xlink:href="#DejaVuSans-117"/>
      <use x="138.183594" xlink:href="#DejaVuSans-109"/>
      <use x="235.595703" xlink:href="#DejaVuSans-98"/>
      <use x="299.072266" xlink:href="#DejaVuSans-101"/>
      <use x="360.595703" xlink:href="#DejaVuSans-114"/>
      <use x="401.708984" xlink:href="#DejaVuSans-32"/>
      <use x="433.496094" xlink:href="#DejaVuSans-111"/>
      <use x="494.677734" xlink:href="#DejaVuSans-102"/>
      <use x="529.882812" xlink:href="#DejaVuSans-32"/>
      <use x="561.669922" xlink:href="#DejaVuSans-102"/>
      <use x="596.875" xlink:href="#DejaVuSans-101"/>
      <use x="658.398438" xlink:href="#DejaVuSans-97"/>
      <use x="719.677734" xlink:href="#DejaVuSans-116"/>
      <use x="758.886719" xlink:href="#DejaVuSans-117"/>
      <use x="822.265625" xlink:href="#DejaVuSans-114"/>
      <use x="861.128906" xlink:href="#DejaVuSans-101"/>
      <use x="922.652344" xlink:href="#DejaVuSans-115"/>
     </g>
    </g>
   </g>
   <g id="matplotlib.axis_2">
    <g id="ytick_1">
     <g id="line2d_8">
      <defs>
       <path d="M 0 0 
L -3.5 0 
" id="ma39ffdb3ac" style="stroke:#000000;stroke-width:0.8;"/>
      </defs>
      <g>
       <use style="stroke:#000000;stroke-width:0.8;" x="57.6" xlink:href="#ma39ffdb3ac" y="301.346353"/>
      </g>
     </g>
     <g id="text_9">
      <!-- 0.550 -->
      <g transform="translate(21.971875 305.145572)scale(0.1 -0.1)">
       <defs>
        <path d="M 10.6875 12.40625 
L 21 12.40625 
L 21 0 
L 10.6875 0 
z
" id="DejaVuSans-46"/>
       </defs>
       <use xlink:href="#DejaVuSans-48"/>
       <use x="63.623047" xlink:href="#DejaVuSans-46"/>
       <use x="95.410156" xlink:href="#DejaVuSans-53"/>
       <use x="159.033203" xlink:href="#DejaVuSans-53"/>
       <use x="222.65625" xlink:href="#DejaVuSans-48"/>
      </g>
     </g>
    </g>
    <g id="ytick_2">
     <g id="line2d_9">
      <g>
       <use style="stroke:#000000;stroke-width:0.8;" x="57.6" xlink:href="#ma39ffdb3ac" y="269.837826"/>
      </g>
     </g>
     <g id="text_10">
      <!-- 0.575 -->
      <g transform="translate(21.971875 273.637045)scale(0.1 -0.1)">
       <defs>
        <path d="M 8.203125 72.90625 
L 55.078125 72.90625 
L 55.078125 68.703125 
L 28.609375 0 
L 18.3125 0 
L 43.21875 64.59375 
L 8.203125 64.59375 
z
" id="DejaVuSans-55"/>
       </defs>
       <use xlink:href="#DejaVuSans-48"/>
       <use x="63.623047" xlink:href="#DejaVuSans-46"/>
       <use x="95.410156" xlink:href="#DejaVuSans-53"/>
       <use x="159.033203" xlink:href="#DejaVuSans-55"/>
       <use x="222.65625" xlink:href="#DejaVuSans-53"/>
      </g>
     </g>
    </g>
    <g id="ytick_3">
     <g id="line2d_10">
      <g>
       <use style="stroke:#000000;stroke-width:0.8;" x="57.6" xlink:href="#ma39ffdb3ac" y="238.329299"/>
      </g>
     </g>
     <g id="text_11">
      <!-- 0.600 -->
      <g transform="translate(21.971875 242.128517)scale(0.1 -0.1)">
       <use xlink:href="#DejaVuSans-48"/>
       <use x="63.623047" xlink:href="#DejaVuSans-46"/>
       <use x="95.410156" xlink:href="#DejaVuSans-54"/>
       <use x="159.033203" xlink:href="#DejaVuSans-48"/>
       <use x="222.65625" xlink:href="#DejaVuSans-48"/>
      </g>
     </g>
    </g>
    <g id="ytick_4">
     <g id="line2d_11">
      <g>
       <use style="stroke:#000000;stroke-width:0.8;" x="57.6" xlink:href="#ma39ffdb3ac" y="206.820771"/>
      </g>
     </g>
     <g id="text_12">
      <!-- 0.625 -->
      <g transform="translate(21.971875 210.61999)scale(0.1 -0.1)">
       <use xlink:href="#DejaVuSans-48"/>
       <use x="63.623047" xlink:href="#DejaVuSans-46"/>
       <use x="95.410156" xlink:href="#DejaVuSans-54"/>
       <use x="159.033203" xlink:href="#DejaVuSans-50"/>
       <use x="222.65625" xlink:href="#DejaVuSans-53"/>
      </g>
     </g>
    </g>
    <g id="ytick_5">
     <g id="line2d_12">
      <g>
       <use style="stroke:#000000;stroke-width:0.8;" x="57.6" xlink:href="#ma39ffdb3ac" y="175.312244"/>
      </g>
     </g>
     <g id="text_13">
      <!-- 0.650 -->
      <g transform="translate(21.971875 179.111463)scale(0.1 -0.1)">
       <use xlink:href="#DejaVuSans-48"/>
       <use x="63.623047" xlink:href="#DejaVuSans-46"/>
       <use x="95.410156" xlink:href="#DejaVuSans-54"/>
       <use x="159.033203" xlink:href="#DejaVuSans-53"/>
       <use x="222.65625" xlink:href="#DejaVuSans-48"/>
      </g>
     </g>
    </g>
    <g id="ytick_6">
     <g id="line2d_13">
      <g>
       <use style="stroke:#000000;stroke-width:0.8;" x="57.6" xlink:href="#ma39ffdb3ac" y="143.803717"/>
      </g>
     </g>
     <g id="text_14">
      <!-- 0.675 -->
      <g transform="translate(21.971875 147.602936)scale(0.1 -0.1)">
       <use xlink:href="#DejaVuSans-48"/>
       <use x="63.623047" xlink:href="#DejaVuSans-46"/>
       <use x="95.410156" xlink:href="#DejaVuSans-54"/>
       <use x="159.033203" xlink:href="#DejaVuSans-55"/>
       <use x="222.65625" xlink:href="#DejaVuSans-53"/>
      </g>
     </g>
    </g>
    <g id="ytick_7">
     <g id="line2d_14">
      <g>
       <use style="stroke:#000000;stroke-width:0.8;" x="57.6" xlink:href="#ma39ffdb3ac" y="112.29519"/>
      </g>
     </g>
     <g id="text_15">
      <!-- 0.700 -->
      <g transform="translate(21.971875 116.094409)scale(0.1 -0.1)">
       <use xlink:href="#DejaVuSans-48"/>
       <use x="63.623047" xlink:href="#DejaVuSans-46"/>
       <use x="95.410156" xlink:href="#DejaVuSans-55"/>
       <use x="159.033203" xlink:href="#DejaVuSans-48"/>
       <use x="222.65625" xlink:href="#DejaVuSans-48"/>
      </g>
     </g>
    </g>
    <g id="ytick_8">
     <g id="line2d_15">
      <g>
       <use style="stroke:#000000;stroke-width:0.8;" x="57.6" xlink:href="#ma39ffdb3ac" y="80.786663"/>
      </g>
     </g>
     <g id="text_16">
      <!-- 0.725 -->
      <g transform="translate(21.971875 84.585881)scale(0.1 -0.1)">
       <use xlink:href="#DejaVuSans-48"/>
       <use x="63.623047" xlink:href="#DejaVuSans-46"/>
       <use x="95.410156" xlink:href="#DejaVuSans-55"/>
       <use x="159.033203" xlink:href="#DejaVuSans-50"/>
       <use x="222.65625" xlink:href="#DejaVuSans-53"/>
      </g>
     </g>
    </g>
    <g id="ytick_9">
     <g id="line2d_16">
      <g>
       <use style="stroke:#000000;stroke-width:0.8;" x="57.6" xlink:href="#ma39ffdb3ac" y="49.278135"/>
      </g>
     </g>
     <g id="text_17">
      <!-- 0.750 -->
      <g transform="translate(21.971875 53.077354)scale(0.1 -0.1)">
       <use xlink:href="#DejaVuSans-48"/>
       <use x="63.623047" xlink:href="#DejaVuSans-46"/>
       <use x="95.410156" xlink:href="#DejaVuSans-55"/>
       <use x="159.033203" xlink:href="#DejaVuSans-53"/>
       <use x="222.65625" xlink:href="#DejaVuSans-48"/>
      </g>
     </g>
    </g>
    <g id="text_18">
     <!-- Accuracy -->
     <g transform="translate(15.892187 197.356125)rotate(-90)scale(0.1 -0.1)">
      <defs>
       <path d="M 34.1875 63.1875 
L 20.796875 26.90625 
L 47.609375 26.90625 
z
M 28.609375 72.90625 
L 39.796875 72.90625 
L 67.578125 0 
L 57.328125 0 
L 50.6875 18.703125 
L 17.828125 18.703125 
L 11.1875 0 
L 0.78125 0 
z
" id="DejaVuSans-65"/>
       <path d="M 48.78125 52.59375 
L 48.78125 44.1875 
Q 44.96875 46.296875 41.140625 47.34375 
Q 37.3125 48.390625 33.40625 48.390625 
Q 24.65625 48.390625 19.8125 42.84375 
Q 14.984375 37.3125 14.984375 27.296875 
Q 14.984375 17.28125 19.8125 11.734375 
Q 24.65625 6.203125 33.40625 6.203125 
Q 37.3125 6.203125 41.140625 7.25 
Q 44.96875 8.296875 48.78125 10.40625 
L 48.78125 2.09375 
Q 45.015625 0.34375 40.984375 -0.53125 
Q 36.96875 -1.421875 32.421875 -1.421875 
Q 20.0625 -1.421875 12.78125 6.34375 
Q 5.515625 14.109375 5.515625 27.296875 
Q 5.515625 40.671875 12.859375 48.328125 
Q 20.21875 56 33.015625 56 
Q 37.15625 56 41.109375 55.140625 
Q 45.0625 54.296875 48.78125 52.59375 
z
" id="DejaVuSans-99"/>
       <path d="M 32.171875 -5.078125 
Q 28.375 -14.84375 24.75 -17.8125 
Q 21.140625 -20.796875 15.09375 -20.796875 
L 7.90625 -20.796875 
L 7.90625 -13.28125 
L 13.1875 -13.28125 
Q 16.890625 -13.28125 18.9375 -11.515625 
Q 21 -9.765625 23.484375 -3.21875 
L 25.09375 0.875 
L 2.984375 54.6875 
L 12.5 54.6875 
L 29.59375 11.921875 
L 46.6875 54.6875 
L 56.203125 54.6875 
z
" id="DejaVuSans-121"/>
      </defs>
      <use xlink:href="#DejaVuSans-65"/>
      <use x="66.658203" xlink:href="#DejaVuSans-99"/>
      <use x="121.638672" xlink:href="#DejaVuSans-99"/>
      <use x="176.619141" xlink:href="#DejaVuSans-117"/>
      <use x="239.998047" xlink:href="#DejaVuSans-114"/>
      <use x="281.111328" xlink:href="#DejaVuSans-97"/>
      <use x="342.390625" xlink:href="#DejaVuSans-99"/>
      <use x="397.371094" xlink:href="#DejaVuSans-121"/>
     </g>
    </g>
   </g>
   <g id="line2d_17">
    <path clip-path="url(#p1603f5a9e2)" d="M 73.832727 68.183252 
L 79.243636 70.662611 
L 84.654545 73.761811 
L 90.065455 70.249385 
L 95.476364 77.17093 
L 100.887273 77.274237 
L 106.298182 83.162715 
L 111.709091 85.538768 
L 117.12 82.232956 
L 122.530909 87.294981 
L 127.941818 93.286767 
L 133.352727 92.666927 
L 138.763636 101.861218 
L 144.174545 104.340578 
L 149.585455 97.212419 
L 154.996364 104.340578 
L 160.407273 110.12575 
L 165.818182 107.336471 
L 171.229091 109.609217 
L 176.64 109.712524 
L 182.050909 117.977055 
L 187.461818 116.117536 
L 192.872727 118.596895 
L 198.283636 120.146495 
L 203.694545 125.725054 
L 209.105455 118.286975 
L 214.516364 124.795294 
L 219.927273 124.588681 
L 225.338182 127.481267 
L 230.749091 125.518441 
L 236.16 126.344894 
L 241.570909 126.964734 
L 246.981818 133.473052 
L 252.392727 137.708625 
L 257.803636 139.878064 
L 263.214545 137.398705 
L 268.625455 136.675558 
L 274.036364 139.361531 
L 279.447273 142.977264 
L 284.858182 142.047504 
L 290.269091 145.663237 
L 295.68 144.423557 
L 301.090909 143.183877 
L 306.501818 145.146703 
L 311.912727 145.973157 
L 317.323636 143.287184 
L 322.734545 148.555823 
L 328.145455 150.621956 
L 333.556364 149.278969 
L 338.967273 147.316143 
L 344.378182 148.762436 
L 349.789091 149.795503 
L 355.2 149.485583 
L 360.610909 149.692196 
L 366.021818 150.002116 
L 371.432727 150.105422 
L 376.843636 149.795503 
L 382.254545 150.105422 
L 387.665455 150.312036 
L 393.076364 150.105422 
L 398.487273 150.105422 
" style="fill:none;stroke:#1f77b4;stroke-linecap:square;stroke-width:1.5;"/>
   </g>
   <g id="line2d_18">
    <path clip-path="url(#p1603f5a9e2)" d="M 73.832727 93.390073 
L 79.243636 96.076046 
L 84.654545 96.799193 
L 90.065455 98.555406 
L 95.476364 97.522339 
L 100.887273 103.100898 
L 106.298182 107.233164 
L 111.709091 104.960418 
L 117.12 111.778657 
L 122.530909 106.819938 
L 127.941818 111.572043 
L 133.352727 114.774549 
L 138.763636 109.712524 
L 144.174545 117.460522 
L 149.585455 114.258016 
L 154.996364 123.658921 
L 160.407273 124.691987 
L 165.818182 121.489481 
L 171.229091 125.415134 
L 176.64 125.931667 
L 182.050909 125.725054 
L 187.461818 123.865534 
L 192.872727 131.303613 
L 198.283636 127.274654 
L 203.694545 131.200306 
L 209.105455 133.266439 
L 214.516364 138.535078 
L 219.927273 140.601211 
L 225.338182 138.328465 
L 230.749091 136.882172 
L 236.16 139.464838 
L 241.570909 140.291291 
L 246.981818 143.08057 
L 252.392727 142.254117 
L 257.803636 146.386383 
L 263.214545 151.655022 
L 268.625455 151.655022 
L 274.036364 148.555823 
L 279.447273 147.41945 
L 284.858182 149.692196 
L 290.269091 147.10953 
L 295.68 147.10953 
L 301.090909 154.960835 
L 306.501818 151.758329 
L 311.912727 149.588889 
L 317.323636 147.522756 
L 322.734545 149.588889 
L 328.145455 148.555823 
L 333.556364 150.312036 
L 338.967273 149.692196 
L 344.378182 149.692196 
L 349.789091 152.171555 
L 355.2 149.175663 
L 360.610909 149.795503 
L 366.021818 151.345102 
L 371.432727 150.105422 
L 376.843636 149.795503 
L 382.254545 149.692196 
L 387.665455 150.105422 
L 393.076364 150.105422 
L 398.487273 150.105422 
" style="fill:none;stroke:#ff7f0e;stroke-linecap:square;stroke-width:1.5;"/>
   </g>
   <g id="line2d_19">
    <path clip-path="url(#p1603f5a9e2)" d="M 73.832727 99.691806 
L 79.243636 100.208334 
L 84.654545 101.3447 
L 90.065455 102.067845 
L 95.476364 103.410831 
L 100.887273 104.753814 
L 106.298182 109.2993 
L 111.709091 109.712528 
L 117.12 113.534877 
L 122.530909 112.708422 
L 127.941818 116.530766 
L 133.352727 114.671244 
L 138.763636 124.795301 
L 144.174545 121.489485 
L 149.585455 118.49359 
L 154.996364 129.547404 
L 160.407273 137.295399 
L 165.818182 128.411024 
L 171.229091 126.758124 
L 176.64 126.758123 
L 182.050909 125.518442 
L 187.461818 133.98958 
L 192.872727 122.625856 
L 198.283636 126.13828 
L 203.694545 135.435875 
L 209.105455 145.35332 
L 214.516364 155.477368 
L 219.927273 140.394601 
L 225.338182 148.969053 
L 230.749091 145.353317 
L 236.16 146.902914 
L 241.570909 154.444301 
L 246.981818 150.828564 
L 252.392727 168.287392 
L 257.803636 162.398915 
L 263.214545 164.568354 
L 268.625455 165.601421 
L 274.036364 159.919556 
L 279.447273 166.427874 
L 284.858182 170.973365 
L 290.269091 177.275073 
L 295.68 186.779279 
L 301.090909 182.130478 
L 306.501818 184.093306 
L 311.912727 176.035391 
L 317.323636 175.622162 
L 322.734545 196.076881 
L 328.145455 191.738003 
L 333.556364 188.32888 
L 338.967273 191.8413 
L 344.378182 197.213249 
L 349.789091 186.36605 
L 355.2 195.560346 
L 360.610909 189.981783 
L 366.021818 213.639005 
L 371.432727 193.700823 
L 376.843636 204.961252 
L 382.254545 192.357835 
L 387.665455 189.052019 
L 393.076364 183.163537 
L 398.487273 160.022847 
" style="fill:none;stroke:#2ca02c;stroke-linecap:square;stroke-width:1.5;"/>
   </g>
   <g id="line2d_20">
    <path clip-path="url(#p1603f5a9e2)" d="M 73.832727 118.596895 
L 79.243636 116.014229 
L 84.654545 121.696095 
L 90.065455 119.320042 
L 95.476364 117.563829 
L 100.887273 120.249802 
L 106.298182 123.452308 
L 111.709091 118.700202 
L 117.12 119.216735 
L 122.530909 119.939882 
L 127.941818 124.278761 
L 133.352727 122.109321 
L 138.763636 124.691987 
L 144.174545 123.555614 
L 149.585455 124.588681 
L 154.996364 124.175454 
L 160.407273 126.861427 
L 165.818182 125.621747 
L 171.229091 127.9978 
L 176.64 121.282868 
L 182.050909 126.861427 
L 187.461818 122.109321 
L 192.872727 129.23748 
L 198.283636 126.75812 
L 203.694545 129.85732 
L 209.105455 130.78708 
L 214.516364 126.4482 
L 219.927273 128.824253 
L 225.338182 128.411027 
L 230.749091 122.522548 
L 236.16 128.720947 
L 241.570909 134.092892 
L 246.981818 131.510226 
L 252.392727 132.646599 
L 257.803636 130.993693 
L 263.214545 138.328465 
L 268.625455 133.782972 
L 274.036364 133.473052 
L 279.447273 130.270546 
L 284.858182 138.018545 
L 290.269091 133.473052 
L 295.68 135.229265 
L 301.090909 139.361531 
L 306.501818 140.394598 
L 311.912727 137.915238 
L 317.323636 136.468945 
L 322.734545 140.807824 
L 328.145455 151.345102 
L 333.556364 141.944197 
L 338.967273 147.10953 
L 344.378182 148.03929 
L 349.789091 151.138489 
L 355.2 156.407128 
L 360.610909 153.514542 
L 366.021818 159.609634 
L 371.432727 161.779074 
L 376.843636 158.783181 
L 382.254545 151.241796 
L 387.665455 169.836992 
L 393.076364 153.824462 
L 398.487273 158.886487 
" style="fill:none;stroke:#d62728;stroke-linecap:square;stroke-width:1.5;"/>
   </g>
   <g id="patch_3">
    <path d="M 57.6 307.584 
L 57.6 41.472 
" style="fill:none;stroke:#000000;stroke-linecap:square;stroke-linejoin:miter;stroke-width:0.8;"/>
   </g>
   <g id="patch_4">
    <path d="M 414.72 307.584 
L 414.72 41.472 
" style="fill:none;stroke:#000000;stroke-linecap:square;stroke-linejoin:miter;stroke-width:0.8;"/>
   </g>
   <g id="patch_5">
    <path d="M 57.6 307.584 
L 414.72 307.584 
" style="fill:none;stroke:#000000;stroke-linecap:square;stroke-linejoin:miter;stroke-width:0.8;"/>
   </g>
   <g id="patch_6">
    <path d="M 57.6 41.472 
L 414.72 41.472 
" style="fill:none;stroke:#000000;stroke-linecap:square;stroke-linejoin:miter;stroke-width:0.8;"/>
   </g>
   <g id="text_19">
    <!-- Credit_g -->
    <g transform="translate(211.309687 35.472)scale(0.12 -0.12)">
     <defs>
      <path d="M 64.40625 67.28125 
L 64.40625 56.890625 
Q 59.421875 61.53125 53.78125 63.8125 
Q 48.140625 66.109375 41.796875 66.109375 
Q 29.296875 66.109375 22.65625 58.46875 
Q 16.015625 50.828125 16.015625 36.375 
Q 16.015625 21.96875 22.65625 14.328125 
Q 29.296875 6.6875 41.796875 6.6875 
Q 48.140625 6.6875 53.78125 8.984375 
Q 59.421875 11.28125 64.40625 15.921875 
L 64.40625 5.609375 
Q 59.234375 2.09375 53.4375 0.328125 
Q 47.65625 -1.421875 41.21875 -1.421875 
Q 24.65625 -1.421875 15.125 8.703125 
Q 5.609375 18.84375 5.609375 36.375 
Q 5.609375 53.953125 15.125 64.078125 
Q 24.65625 74.21875 41.21875 74.21875 
Q 47.75 74.21875 53.53125 72.484375 
Q 59.328125 70.75 64.40625 67.28125 
z
" id="DejaVuSans-67"/>
      <path d="M 45.40625 46.390625 
L 45.40625 75.984375 
L 54.390625 75.984375 
L 54.390625 0 
L 45.40625 0 
L 45.40625 8.203125 
Q 42.578125 3.328125 38.25 0.953125 
Q 33.9375 -1.421875 27.875 -1.421875 
Q 17.96875 -1.421875 11.734375 6.484375 
Q 5.515625 14.40625 5.515625 27.296875 
Q 5.515625 40.1875 11.734375 48.09375 
Q 17.96875 56 27.875 56 
Q 33.9375 56 38.25 53.625 
Q 42.578125 51.265625 45.40625 46.390625 
z
M 14.796875 27.296875 
Q 14.796875 17.390625 18.875 11.75 
Q 22.953125 6.109375 30.078125 6.109375 
Q 37.203125 6.109375 41.296875 11.75 
Q 45.40625 17.390625 45.40625 27.296875 
Q 45.40625 37.203125 41.296875 42.84375 
Q 37.203125 48.484375 30.078125 48.484375 
Q 22.953125 48.484375 18.875 42.84375 
Q 14.796875 37.203125 14.796875 27.296875 
z
" id="DejaVuSans-100"/>
      <path d="M 9.421875 54.6875 
L 18.40625 54.6875 
L 18.40625 0 
L 9.421875 0 
z
M 9.421875 75.984375 
L 18.40625 75.984375 
L 18.40625 64.59375 
L 9.421875 64.59375 
z
" id="DejaVuSans-105"/>
      <path d="M 50.984375 -16.609375 
L 50.984375 -23.578125 
L -0.984375 -23.578125 
L -0.984375 -16.609375 
z
" id="DejaVuSans-95"/>
      <path d="M 45.40625 27.984375 
Q 45.40625 37.75 41.375 43.109375 
Q 37.359375 48.484375 30.078125 48.484375 
Q 22.859375 48.484375 18.828125 43.109375 
Q 14.796875 37.75 14.796875 27.984375 
Q 14.796875 18.265625 18.828125 12.890625 
Q 22.859375 7.515625 30.078125 7.515625 
Q 37.359375 7.515625 41.375 12.890625 
Q 45.40625 18.265625 45.40625 27.984375 
z
M 54.390625 6.78125 
Q 54.390625 -7.171875 48.1875 -13.984375 
Q 42 -20.796875 29.203125 -20.796875 
Q 24.46875 -20.796875 20.265625 -20.09375 
Q 16.0625 -19.390625 12.109375 -17.921875 
L 12.109375 -9.1875 
Q 16.0625 -11.328125 19.921875 -12.34375 
Q 23.78125 -13.375 27.78125 -13.375 
Q 36.625 -13.375 41.015625 -8.765625 
Q 45.40625 -4.15625 45.40625 5.171875 
L 45.40625 9.625 
Q 42.625 4.78125 38.28125 2.390625 
Q 33.9375 0 27.875 0 
Q 17.828125 0 11.671875 7.65625 
Q 5.515625 15.328125 5.515625 27.984375 
Q 5.515625 40.671875 11.671875 48.328125 
Q 17.828125 56 27.875 56 
Q 33.9375 56 38.28125 53.609375 
Q 42.625 51.21875 45.40625 46.390625 
L 45.40625 54.6875 
L 54.390625 54.6875 
z
" id="DejaVuSans-103"/>
     </defs>
     <use xlink:href="#DejaVuSans-67"/>
     <use x="69.824219" xlink:href="#DejaVuSans-114"/>
     <use x="108.6875" xlink:href="#DejaVuSans-101"/>
     <use x="170.210938" xlink:href="#DejaVuSans-100"/>
     <use x="233.6875" xlink:href="#DejaVuSans-105"/>
     <use x="261.470703" xlink:href="#DejaVuSans-116"/>
     <use x="300.679688" xlink:href="#DejaVuSans-95"/>
     <use x="350.679688" xlink:href="#DejaVuSans-103"/>
    </g>
   </g>
   <g id="legend_1">
    <g id="patch_7">
     <path d="M 211.399687 108.1845 
L 407.72 108.1845 
Q 409.72 108.1845 409.72 106.1845 
L 409.72 48.472 
Q 409.72 46.472 407.72 46.472 
L 211.399687 46.472 
Q 209.399687 46.472 209.399687 48.472 
L 209.399687 106.1845 
Q 209.399687 108.1845 211.399687 108.1845 
z
" style="fill:#ffffff;opacity:0.8;stroke:#cccccc;stroke-linejoin:miter;"/>
    </g>
    <g id="line2d_21">
     <path d="M 213.399687 54.570438 
L 233.399687 54.570438 
" style="fill:none;stroke:#1f77b4;stroke-linecap:square;stroke-width:1.5;"/>
    </g>
    <g id="line2d_22"/>
    <g id="text_20">
     <!-- Random Forest -->
     <g transform="translate(241.399687 58.070438)scale(0.1 -0.1)">
      <defs>
       <path d="M 44.390625 34.1875 
Q 47.5625 33.109375 50.5625 29.59375 
Q 53.5625 26.078125 56.59375 19.921875 
L 66.609375 0 
L 56 0 
L 46.6875 18.703125 
Q 43.0625 26.03125 39.671875 28.421875 
Q 36.28125 30.8125 30.421875 30.8125 
L 19.671875 30.8125 
L 19.671875 0 
L 9.8125 0 
L 9.8125 72.90625 
L 32.078125 72.90625 
Q 44.578125 72.90625 50.734375 67.671875 
Q 56.890625 62.453125 56.890625 51.90625 
Q 56.890625 45.015625 53.6875 40.46875 
Q 50.484375 35.9375 44.390625 34.1875 
z
M 19.671875 64.796875 
L 19.671875 38.921875 
L 32.078125 38.921875 
Q 39.203125 38.921875 42.84375 42.21875 
Q 46.484375 45.515625 46.484375 51.90625 
Q 46.484375 58.296875 42.84375 61.546875 
Q 39.203125 64.796875 32.078125 64.796875 
z
" id="DejaVuSans-82"/>
       <path d="M 54.890625 33.015625 
L 54.890625 0 
L 45.90625 0 
L 45.90625 32.71875 
Q 45.90625 40.484375 42.875 44.328125 
Q 39.84375 48.1875 33.796875 48.1875 
Q 26.515625 48.1875 22.3125 43.546875 
Q 18.109375 38.921875 18.109375 30.90625 
L 18.109375 0 
L 9.078125 0 
L 9.078125 54.6875 
L 18.109375 54.6875 
L 18.109375 46.1875 
Q 21.34375 51.125 25.703125 53.5625 
Q 30.078125 56 35.796875 56 
Q 45.21875 56 50.046875 50.171875 
Q 54.890625 44.34375 54.890625 33.015625 
z
" id="DejaVuSans-110"/>
       <path d="M 9.8125 72.90625 
L 51.703125 72.90625 
L 51.703125 64.59375 
L 19.671875 64.59375 
L 19.671875 43.109375 
L 48.578125 43.109375 
L 48.578125 34.8125 
L 19.671875 34.8125 
L 19.671875 0 
L 9.8125 0 
z
" id="DejaVuSans-70"/>
      </defs>
      <use xlink:href="#DejaVuSans-82"/>
      <use x="67.232422" xlink:href="#DejaVuSans-97"/>
      <use x="128.511719" xlink:href="#DejaVuSans-110"/>
      <use x="191.890625" xlink:href="#DejaVuSans-100"/>
      <use x="255.367188" xlink:href="#DejaVuSans-111"/>
      <use x="316.548828" xlink:href="#DejaVuSans-109"/>
      <use x="413.960938" xlink:href="#DejaVuSans-32"/>
      <use x="445.748047" xlink:href="#DejaVuSans-70"/>
      <use x="499.642578" xlink:href="#DejaVuSans-111"/>
      <use x="560.824219" xlink:href="#DejaVuSans-114"/>
      <use x="599.6875" xlink:href="#DejaVuSans-101"/>
      <use x="661.210938" xlink:href="#DejaVuSans-115"/>
      <use x="713.310547" xlink:href="#DejaVuSans-116"/>
     </g>
    </g>
    <g id="line2d_23">
     <path d="M 213.399687 69.248563 
L 233.399687 69.248563 
" style="fill:none;stroke:#ff7f0e;stroke-linecap:square;stroke-width:1.5;"/>
    </g>
    <g id="line2d_24"/>
    <g id="text_21">
     <!-- XGBoost -->
     <g transform="translate(241.399687 72.748563)scale(0.1 -0.1)">
      <defs>
       <path d="M 6.296875 72.90625 
L 16.890625 72.90625 
L 35.015625 45.796875 
L 53.21875 72.90625 
L 63.8125 72.90625 
L 40.375 37.890625 
L 65.375 0 
L 54.78125 0 
L 34.28125 31 
L 13.625 0 
L 2.984375 0 
L 29 38.921875 
z
" id="DejaVuSans-88"/>
       <path d="M 59.515625 10.40625 
L 59.515625 29.984375 
L 43.40625 29.984375 
L 43.40625 38.09375 
L 69.28125 38.09375 
L 69.28125 6.78125 
Q 63.578125 2.734375 56.6875 0.65625 
Q 49.8125 -1.421875 42 -1.421875 
Q 24.90625 -1.421875 15.25 8.5625 
Q 5.609375 18.5625 5.609375 36.375 
Q 5.609375 54.25 15.25 64.234375 
Q 24.90625 74.21875 42 74.21875 
Q 49.125 74.21875 55.546875 72.453125 
Q 61.96875 70.703125 67.390625 67.28125 
L 67.390625 56.78125 
Q 61.921875 61.421875 55.765625 63.765625 
Q 49.609375 66.109375 42.828125 66.109375 
Q 29.4375 66.109375 22.71875 58.640625 
Q 16.015625 51.171875 16.015625 36.375 
Q 16.015625 21.625 22.71875 14.15625 
Q 29.4375 6.6875 42.828125 6.6875 
Q 48.046875 6.6875 52.140625 7.59375 
Q 56.25 8.5 59.515625 10.40625 
z
" id="DejaVuSans-71"/>
       <path d="M 19.671875 34.8125 
L 19.671875 8.109375 
L 35.5 8.109375 
Q 43.453125 8.109375 47.28125 11.40625 
Q 51.125 14.703125 51.125 21.484375 
Q 51.125 28.328125 47.28125 31.5625 
Q 43.453125 34.8125 35.5 34.8125 
z
M 19.671875 64.796875 
L 19.671875 42.828125 
L 34.28125 42.828125 
Q 41.5 42.828125 45.03125 45.53125 
Q 48.578125 48.25 48.578125 53.8125 
Q 48.578125 59.328125 45.03125 62.0625 
Q 41.5 64.796875 34.28125 64.796875 
z
M 9.8125 72.90625 
L 35.015625 72.90625 
Q 46.296875 72.90625 52.390625 68.21875 
Q 58.5 63.53125 58.5 54.890625 
Q 58.5 48.1875 55.375 44.234375 
Q 52.25 40.28125 46.1875 39.3125 
Q 53.46875 37.75 57.5 32.78125 
Q 61.53125 27.828125 61.53125 20.40625 
Q 61.53125 10.640625 54.890625 5.3125 
Q 48.25 0 35.984375 0 
L 9.8125 0 
z
" id="DejaVuSans-66"/>
      </defs>
      <use xlink:href="#DejaVuSans-88"/>
      <use x="68.505859" xlink:href="#DejaVuSans-71"/>
      <use x="145.996094" xlink:href="#DejaVuSans-66"/>
      <use x="214.599609" xlink:href="#DejaVuSans-111"/>
      <use x="275.78125" xlink:href="#DejaVuSans-111"/>
      <use x="336.962891" xlink:href="#DejaVuSans-115"/>
      <use x="389.0625" xlink:href="#DejaVuSans-116"/>
     </g>
    </g>
    <g id="line2d_25">
     <path d="M 213.399687 83.926688 
L 233.399687 83.926688 
" style="fill:none;stroke:#2ca02c;stroke-linecap:square;stroke-width:1.5;"/>
    </g>
    <g id="line2d_26"/>
    <g id="text_22">
     <!-- Neural Network + Regularization -->
     <g transform="translate(241.399687 87.426688)scale(0.1 -0.1)">
      <defs>
       <path d="M 9.421875 75.984375 
L 18.40625 75.984375 
L 18.40625 0 
L 9.421875 0 
z
" id="DejaVuSans-108"/>
       <path d="M 4.203125 54.6875 
L 13.1875 54.6875 
L 24.421875 12.015625 
L 35.59375 54.6875 
L 46.1875 54.6875 
L 57.421875 12.015625 
L 68.609375 54.6875 
L 77.59375 54.6875 
L 63.28125 0 
L 52.6875 0 
L 40.921875 44.828125 
L 29.109375 0 
L 18.5 0 
z
" id="DejaVuSans-119"/>
       <path d="M 9.078125 75.984375 
L 18.109375 75.984375 
L 18.109375 31.109375 
L 44.921875 54.6875 
L 56.390625 54.6875 
L 27.390625 29.109375 
L 57.625 0 
L 45.90625 0 
L 18.109375 26.703125 
L 18.109375 0 
L 9.078125 0 
z
" id="DejaVuSans-107"/>
       <path d="M 46 62.703125 
L 46 35.5 
L 73.1875 35.5 
L 73.1875 27.203125 
L 46 27.203125 
L 46 0 
L 37.796875 0 
L 37.796875 27.203125 
L 10.59375 27.203125 
L 10.59375 35.5 
L 37.796875 35.5 
L 37.796875 62.703125 
z
" id="DejaVuSans-43"/>
       <path d="M 5.515625 54.6875 
L 48.1875 54.6875 
L 48.1875 46.484375 
L 14.40625 7.171875 
L 48.1875 7.171875 
L 48.1875 0 
L 4.296875 0 
L 4.296875 8.203125 
L 38.09375 47.515625 
L 5.515625 47.515625 
z
" id="DejaVuSans-122"/>
      </defs>
      <use xlink:href="#DejaVuSans-78"/>
      <use x="74.804688" xlink:href="#DejaVuSans-101"/>
      <use x="136.328125" xlink:href="#DejaVuSans-117"/>
      <use x="199.707031" xlink:href="#DejaVuSans-114"/>
      <use x="240.820312" xlink:href="#DejaVuSans-97"/>
      <use x="302.099609" xlink:href="#DejaVuSans-108"/>
      <use x="329.882812" xlink:href="#DejaVuSans-32"/>
      <use x="361.669922" xlink:href="#DejaVuSans-78"/>
      <use x="436.474609" xlink:href="#DejaVuSans-101"/>
      <use x="497.998047" xlink:href="#DejaVuSans-116"/>
      <use x="537.207031" xlink:href="#DejaVuSans-119"/>
      <use x="618.994141" xlink:href="#DejaVuSans-111"/>
      <use x="680.175781" xlink:href="#DejaVuSans-114"/>
      <use x="721.289062" xlink:href="#DejaVuSans-107"/>
      <use x="779.199219" xlink:href="#DejaVuSans-32"/>
      <use x="810.986328" xlink:href="#DejaVuSans-43"/>
      <use x="894.775391" xlink:href="#DejaVuSans-32"/>
      <use x="926.5625" xlink:href="#DejaVuSans-82"/>
      <use x="991.544922" xlink:href="#DejaVuSans-101"/>
      <use x="1053.068359" xlink:href="#DejaVuSans-103"/>
      <use x="1116.544922" xlink:href="#DejaVuSans-117"/>
      <use x="1179.923828" xlink:href="#DejaVuSans-108"/>
      <use x="1207.707031" xlink:href="#DejaVuSans-97"/>
      <use x="1268.986328" xlink:href="#DejaVuSans-114"/>
      <use x="1310.099609" xlink:href="#DejaVuSans-105"/>
      <use x="1337.882812" xlink:href="#DejaVuSans-122"/>
      <use x="1390.373047" xlink:href="#DejaVuSans-97"/>
      <use x="1451.652344" xlink:href="#DejaVuSans-116"/>
      <use x="1490.861328" xlink:href="#DejaVuSans-105"/>
      <use x="1518.644531" xlink:href="#DejaVuSans-111"/>
      <use x="1579.826172" xlink:href="#DejaVuSans-110"/>
     </g>
    </g>
    <g id="line2d_27">
     <path d="M 213.399687 98.604813 
L 233.399687 98.604813 
" style="fill:none;stroke:#d62728;stroke-linecap:square;stroke-width:1.5;"/>
    </g>
    <g id="line2d_28"/>
    <g id="text_23">
     <!-- KNN -->
     <g transform="translate(241.399687 102.104813)scale(0.1 -0.1)">
      <defs>
       <path d="M 9.8125 72.90625 
L 19.671875 72.90625 
L 19.671875 42.09375 
L 52.390625 72.90625 
L 65.09375 72.90625 
L 28.90625 38.921875 
L 67.671875 0 
L 54.6875 0 
L 19.671875 35.109375 
L 19.671875 0 
L 9.8125 0 
z
" id="DejaVuSans-75"/>
      </defs>
      <use xlink:href="#DejaVuSans-75"/>
      <use x="65.576172" xlink:href="#DejaVuSans-78"/>
      <use x="140.380859" xlink:href="#DejaVuSans-78"/>
     </g>
    </g>
   </g>
  </g>
 </g>
 <defs>
  <clipPath id="p1603f5a9e2">
   <rect height="266.112" width="357.12" x="57.6" y="41.472"/>
  </clipPath>
 </defs>
</svg>
