<?xml version="1.0" encoding="utf-8" standalone="no"?>
<!DOCTYPE svg PUBLIC "-//W3C//DTD SVG 1.1//EN"
  "http://www.w3.org/Graphics/SVG/1.1/DTD/svg11.dtd">
<!-- Created with matplotlib (https://matplotlib.org/) -->
<svg height="345.6pt" version="1.1" viewBox="0 0 460.8 345.6" width="460.8pt" xmlns="http://www.w3.org/2000/svg" xmlns:xlink="http://www.w3.org/1999/xlink">
 <metadata>
  <rdf:RDF xmlns:cc="http://creativecommons.org/ns#" xmlns:dc="http://purl.org/dc/elements/1.1/" xmlns:rdf="http://www.w3.org/1999/02/22-rdf-syntax-ns#">
   <cc:Work>
    <dc:type rdf:resource="http://purl.org/dc/dcmitype/StillImage"/>
    <dc:date>2023-09-13T12:39:25.935024</dc:date>
    <dc:format>image/svg+xml</dc:format>
    <dc:creator>
     <cc:Agent>
      <dc:title>Matplotlib v3.3.4, https://matplotlib.org/</dc:title>
     </cc:Agent>
    </dc:creator>
   </cc:Work>
  </rdf:RDF>
 </metadata>
 <defs>
  <style type="text/css">*{stroke-linecap:butt;stroke-linejoin:round;}</style>
 </defs>
 <g id="figure_1">
  <g id="patch_1">
   <path d="M 0 345.6 
L 460.8 345.6 
L 460.8 0 
L 0 0 
z
" style="fill:#ffffff;"/>
  </g>
  <g id="axes_1">
   <g id="patch_2">
    <path d="M 57.6 307.584 
L 414.72 307.584 
L 414.72 41.472 
L 57.6 41.472 
z
" style="fill:#ffffff;"/>
   </g>
   <g id="PolyCollection_1">
    <path clip-path="url(#pd3b155f781)" d="M 73.832727 92.423081 
L 73.832727 92.423081 
L 79.335347 102.28409 
L 84.837966 104.083564 
L 90.340586 104.518892 
L 95.843205 107.6782 
L 101.345824 111.88706 
L 106.848444 112.29437 
L 112.351063 110.85924 
L 117.853683 117.095632 
L 123.356302 112.677259 
L 128.858921 121.045154 
L 134.361541 125.836247 
L 139.86416 128.150043 
L 145.36678 134.577396 
L 150.869399 138.512282 
L 156.372018 153.382604 
L 161.874638 149.114899 
L 167.377257 145.885682 
L 172.879877 162.833455 
L 178.382496 166.091586 
L 183.885116 162.511513 
L 189.387735 163.965701 
L 194.890354 166.674058 
L 200.392974 185.621619 
L 205.895593 194.371711 
L 211.398213 197.455576 
L 216.900832 194.270655 
L 222.403451 207.516259 
L 227.906071 211.85358 
L 233.40869 206.371827 
L 238.91131 221.80064 
L 244.413929 222.063901 
L 249.916549 238.374838 
L 255.419168 238.27037 
L 260.921787 253.649473 
L 266.424407 247.320029 
L 271.927026 252.981803 
L 277.429646 258.14998 
L 282.932265 263.464548 
L 288.434884 278.5475 
L 293.937504 280.452979 
L 299.440123 284.647146 
L 304.942743 286.900852 
L 310.445362 289.164203 
L 315.947982 293.413542 
L 321.450601 288.923411 
L 326.95322 289.784739 
L 332.45584 295.301472 
L 337.958459 295.488 
L 343.461079 292.957211 
L 348.963698 294.343015 
L 354.466317 293.944679 
L 359.968937 291.020698 
L 365.471556 287.706547 
L 370.974176 286.525982 
L 376.476795 285.402977 
L 381.979414 283.540573 
L 387.482034 283.540573 
L 392.984653 283.540573 
L 398.487273 283.540573 
L 398.487273 283.540573 
L 398.487273 283.540573 
L 392.984653 283.540573 
L 387.482034 283.540573 
L 381.979414 283.540573 
L 376.476795 280.828758 
L 370.974176 279.281048 
L 365.471556 275.552249 
L 359.968937 269.265159 
L 354.466317 255.72354 
L 348.963698 259.996965 
L 343.461079 243.545136 
L 337.958459 235.493175 
L 332.45584 238.227937 
L 326.95322 233.551737 
L 321.450601 211.478965 
L 315.947982 222.70294 
L 310.445362 213.361701 
L 304.942743 202.45918 
L 299.440123 188.998782 
L 293.937504 194.04236 
L 288.434884 177.260795 
L 282.932265 158.367304 
L 277.429646 163.681873 
L 271.927026 162.904172 
L 266.424407 149.454197 
L 260.921787 151.194158 
L 255.419168 135.569756 
L 249.916549 145.233515 
L 244.413929 118.649193 
L 238.91131 126.98186 
L 233.40869 127.121273 
L 227.906071 115.693643 
L 222.403451 118.332142 
L 216.900832 111.616585 
L 211.398213 113.528131 
L 205.895593 100.897891 
L 200.392974 109.647983 
L 194.890354 93.344985 
L 189.387735 99.450986 
L 183.885116 94.959297 
L 178.382496 93.078046 
L 172.879877 96.336177 
L 167.377257 90.349851 
L 161.874638 85.421811 
L 156.372018 80.729401 
L 150.869399 81.159734 
L 145.36678 80.42286 
L 139.86416 77.506691 
L 134.361541 82.36872 
L 128.858921 76.542174 
L 123.356302 75.141842 
L 117.853683 78.368169 
L 112.351063 76.959862 
L 106.848444 74.250615 
L 101.345824 73.383808 
L 95.843205 68.249146 
L 90.340586 77.354332 
L 84.837966 73.117899 
L 79.335347 77.890311 
L 73.832727 92.423081 
z
" style="fill:#1f77b4;fill-opacity:0.2;"/>
   </g>
   <g id="PolyCollection_2">
    <path clip-path="url(#pd3b155f781)" d="M 73.832727 66.940749 
L 73.832727 66.940749 
L 79.335347 78.85415 
L 84.837966 89.090854 
L 90.340586 89.247968 
L 95.843205 98.287111 
L 101.345824 96.737691 
L 106.848444 97.276304 
L 112.351063 103.483882 
L 117.853683 104.642427 
L 123.356302 114.726213 
L 128.858921 113.510072 
L 134.361541 110.363199 
L 139.86416 125.358274 
L 145.36678 113.522135 
L 150.869399 129.284511 
L 156.372018 129.662297 
L 161.874638 139.405193 
L 167.377257 139.146935 
L 172.879877 157.997194 
L 178.382496 157.787263 
L 183.885116 153.105372 
L 189.387735 163.852171 
L 194.890354 167.003866 
L 200.392974 163.872747 
L 205.895593 183.176214 
L 211.398213 180.630133 
L 216.900832 178.905351 
L 222.403451 193.603704 
L 227.906071 204.150619 
L 233.40869 199.689057 
L 238.91131 197.158654 
L 244.413929 207.244949 
L 249.916549 209.203441 
L 255.419168 213.925967 
L 260.921787 216.09788 
L 266.424407 218.94623 
L 271.927026 211.42792 
L 277.429646 217.520086 
L 282.932265 217.371309 
L 288.434884 216.085636 
L 293.937504 217.054311 
L 299.440123 218.59859 
L 304.942743 212.867838 
L 310.445362 220.241952 
L 315.947982 208.95598 
L 321.450601 214.436208 
L 326.95322 214.109381 
L 332.45584 210.078985 
L 337.958459 207.093576 
L 343.461079 207.093576 
L 348.963698 207.093576 
L 354.466317 207.093576 
L 359.968937 207.093576 
L 365.471556 207.093576 
L 370.974176 207.093576 
L 376.476795 207.093576 
L 381.979414 207.093576 
L 387.482034 207.093576 
L 392.984653 207.093576 
L 398.487273 207.093576 
L 398.487273 207.093576 
L 398.487273 207.093576 
L 392.984653 207.093576 
L 387.482034 207.093576 
L 381.979414 207.093576 
L 376.476795 207.093576 
L 370.974176 207.093576 
L 365.471556 207.093576 
L 359.968937 207.093576 
L 354.466317 207.093576 
L 348.963698 207.093576 
L 343.461079 207.093576 
L 337.958459 207.093576 
L 332.45584 202.834051 
L 326.95322 197.529538 
L 321.450601 195.928595 
L 315.947982 204.381761 
L 310.445362 184.176974 
L 304.942743 196.222848 
L 299.440123 178.175636 
L 293.937504 178.445798 
L 288.434884 169.22154 
L 282.932265 166.237045 
L 277.429646 177.130612 
L 271.927026 160.713384 
L 266.424407 165.936241 
L 260.921787 163.263419 
L 255.419168 153.118871 
L 249.916549 136.60612 
L 244.413929 132.618735 
L 238.91131 126.990924 
L 233.40869 129.981694 
L 227.906071 128.917776 
L 222.403451 117.380003 
L 216.900832 110.418373 
L 211.398213 109.543002 
L 205.895593 107.846333 
L 200.392974 104.640407 
L 194.890354 91.74106 
L 189.387735 94.892755 
L 183.885116 90.77486 
L 178.382496 86.517675 
L 172.879877 89.705388 
L 167.377257 81.374492 
L 161.874638 88.336229 
L 156.372018 74.295614 
L 150.869399 72.974579 
L 145.36678 66.652266 
L 139.86416 74.777288 
L 134.361541 70.660614 
L 128.858921 74.733735 
L 123.356302 62.899955 
L 117.853683 61.091986 
L 112.351063 64.374059 
L 106.848444 60.81341 
L 101.345824 57.954378 
L 95.843205 59.802602 
L 90.340586 58.224108 
L 84.837966 54.558872 
L 79.335347 58.000287 
L 73.832727 66.940749 
z
" style="fill:#ff7f0e;fill-opacity:0.2;"/>
   </g>
   <g id="PolyCollection_3">
    <path clip-path="url(#pd3b155f781)" d="M 73.832727 66.94076 
L 73.832727 66.94076 
L 79.335347 73.931785 
L 84.837966 74.614097 
L 90.340586 78.41629 
L 95.843205 82.43302 
L 101.345824 83.147883 
L 106.848444 86.553945 
L 112.351063 82.93836 
L 117.853683 83.207732 
L 123.356302 91.007685 
L 128.858921 87.424336 
L 134.361541 88.806187 
L 139.86416 91.109594 
L 145.36678 94.75349 
L 150.869399 93.614973 
L 156.372018 96.947992 
L 161.874638 99.766121 
L 167.377257 102.081889 
L 172.879877 102.827439 
L 178.382496 112.110767 
L 183.885116 101.723222 
L 189.387735 110.615852 
L 194.890354 111.298976 
L 200.392974 113.170049 
L 205.895593 116.042062 
L 211.398213 117.709327 
L 216.900832 120.139136 
L 222.403451 115.044858 
L 227.906071 123.650476 
L 233.40869 121.879018 
L 238.91131 118.934141 
L 244.413929 130.468157 
L 249.916549 127.307059 
L 255.419168 145.151945 
L 260.921787 156.604633 
L 266.424407 139.801558 
L 271.927026 146.097218 
L 277.429646 148.075096 
L 282.932265 135.472669 
L 288.434884 164.82267 
L 293.937504 171.546808 
L 299.440123 157.157941 
L 304.942743 161.409999 
L 310.445362 166.798283 
L 315.947982 191.605146 
L 321.450601 162.605017 
L 326.95322 176.212064 
L 332.45584 187.218689 
L 337.958459 194.97625 
L 343.461079 203.582547 
L 348.963698 201.768974 
L 354.466317 195.576203 
L 359.968937 201.429858 
L 365.471556 215.761726 
L 370.974176 252.248927 
L 376.476795 248.606245 
L 381.979414 261.961347 
L 387.482034 269.697509 
L 392.984653 285.197382 
L 398.487273 281.774805 
L 398.487273 157.894673 
L 398.487273 157.894673 
L 392.984653 132.812115 
L 387.482034 120.28142 
L 381.979414 117.824652 
L 376.476795 125.658583 
L 370.974176 127.961774 
L 365.471556 96.920801 
L 359.968937 88.318568 
L 354.466317 98.843982 
L 348.963698 96.048857 
L 343.461079 101.879985 
L 337.958459 96.046296 
L 332.45584 98.28268 
L 326.95322 79.984627 
L 321.450601 76.178748 
L 315.947982 86.676235 
L 310.445362 81.329002 
L 304.942743 75.250237 
L 299.440123 84.174058 
L 293.937504 87.198114 
L 288.434884 76.084623 
L 282.932265 66.361716 
L 277.429646 72.871037 
L 271.927026 67.628924 
L 266.424407 73.499874 
L 260.921787 68.163852 
L 255.419168 77.493008 
L 249.916549 65.183803 
L 244.413929 67.968586 
L 238.91131 68.460254 
L 233.40869 68.063615 
L 227.906071 65.018038 
L 222.403451 58.758961 
L 216.900832 66.830558 
L 211.398213 65.013313 
L 205.895593 64.132344 
L 200.392974 63.606712 
L 194.890354 63.354256 
L 189.387735 65.311502 
L 183.885116 60.188847 
L 178.382496 61.268351 
L 172.879877 54.412868 
L 167.377257 56.857235 
L 161.874638 62.995355 
L 156.372018 59.0182 
L 150.869399 56.405341 
L 145.36678 53.568 
L 139.86416 56.787191 
L 134.361541 56.117657 
L 128.858921 54.101867 
L 123.356302 56.03969 
L 117.853683 57.044354 
L 112.351063 55.614905 
L 106.848444 57.09579 
L 101.345824 56.679495 
L 95.843205 58.668478 
L 90.340586 57.164036 
L 84.837966 58.842705 
L 79.335347 60.37443 
L 73.832727 66.94076 
z
" style="fill:#2ca02c;fill-opacity:0.2;"/>
   </g>
   <g id="PolyCollection_4">
    <path clip-path="url(#pd3b155f781)" d="M 73.832727 117.905414 
L 73.832727 117.905414 
L 79.335347 128.766406 
L 84.837966 128.600824 
L 90.340586 131.831958 
L 95.843205 128.052365 
L 101.345824 138.059081 
L 106.848444 133.379782 
L 112.351063 133.044488 
L 117.853683 128.647816 
L 123.356302 134.61074 
L 128.858921 129.593768 
L 134.361541 131.789008 
L 139.86416 141.222581 
L 145.36678 133.155263 
L 150.869399 137.028957 
L 156.372018 138.824982 
L 161.874638 135.610628 
L 167.377257 140.03788 
L 172.879877 141.603473 
L 178.382496 143.058306 
L 183.885116 141.384958 
L 189.387735 138.418374 
L 194.890354 134.542173 
L 200.392974 148.380308 
L 205.895593 141.135092 
L 211.398213 137.807326 
L 216.900832 146.530695 
L 222.403451 142.522886 
L 227.906071 140.512035 
L 233.40869 142.47055 
L 238.91131 141.448069 
L 244.413929 142.545972 
L 249.916549 136.197569 
L 255.419168 148.512895 
L 260.921787 139.553689 
L 266.424407 138.523006 
L 271.927026 132.857164 
L 277.429646 143.820433 
L 282.932265 143.180627 
L 288.434884 142.912439 
L 293.937504 146.454633 
L 299.440123 135.9114 
L 304.942743 144.200955 
L 310.445362 138.008304 
L 315.947982 156.240569 
L 321.450601 142.241964 
L 326.95322 143.93737 
L 332.45584 154.356064 
L 337.958459 150.075341 
L 343.461079 165.157109 
L 348.963698 151.378696 
L 354.466317 156.947591 
L 359.968937 155.915891 
L 365.471556 158.909365 
L 370.974176 186.783894 
L 376.476795 190.153489 
L 381.979414 203.631424 
L 387.482034 208.036035 
L 392.984653 230.583501 
L 398.487273 247.921549 
L 398.487273 177.307947 
L 398.487273 177.307947 
L 392.984653 127.967226 
L 387.482034 111.017077 
L 381.979414 108.6264 
L 376.476795 107.664346 
L 370.974176 109.759825 
L 365.471556 79.449695 
L 359.968937 88.389046 
L 354.466317 89.480874 
L 348.963698 80.185075 
L 343.461079 84.244295 
L 337.958459 83.187253 
L 332.45584 97.168868 
L 326.95322 79.556997 
L 321.450601 81.677108 
L 315.947982 84.242019 
L 310.445362 76.14254 
L 304.942743 86.938111 
L 299.440123 81.637089 
L 293.937504 79.163261 
L 288.434884 80.581927 
L 282.932265 82.861973 
L 277.429646 87.318633 
L 271.927026 85.11603 
L 266.424407 84.97136 
L 260.921787 85.6395 
L 255.419168 85.599109 
L 249.916549 84.748564 
L 244.413929 83.496627 
L 238.91131 89.266292 
L 233.40869 83.996756 
L 227.906071 83.831743 
L 222.403451 95.836175 
L 216.900832 90.129543 
L 211.398213 86.111746 
L 205.895593 89.579268 
L 200.392974 93.801102 
L 194.890354 87.678077 
L 189.387735 87.19952 
L 183.885116 95.699985 
L 178.382496 96.574871 
L 172.879877 92.083827 
L 167.377257 92.800008 
L 161.874638 81.937861 
L 156.372018 94.862317 
L 150.869399 91.13717 
L 145.36678 96.709687 
L 139.86416 100.109418 
L 134.361541 94.253591 
L 128.858921 94.325304 
L 123.356302 93.130682 
L 117.853683 95.271256 
L 112.351063 92.998112 
L 106.848444 92.238112 
L 101.345824 99.450568 
L 95.843205 96.716118 
L 90.340586 101.430635 
L 84.837966 94.893543 
L 79.335347 101.098543 
L 73.832727 117.905414 
z
" style="fill:#d62728;fill-opacity:0.2;"/>
   </g>
   <g id="matplotlib.axis_1">
    <g id="xtick_1">
     <g id="line2d_1">
      <defs>
       <path d="M 0 0 
L 0 3.5 
" id="md7dbebf2d3" style="stroke:#000000;stroke-width:0.8;"/>
      </defs>
      <g>
       <use style="stroke:#000000;stroke-width:0.8;" x="403.989892" xlink:href="#md7dbebf2d3" y="307.584"/>
      </g>
     </g>
     <g id="text_1">
      <!-- 0 -->
      <g transform="translate(400.808642 322.182437)scale(0.1 -0.1)">
       <defs>
        <path d="M 31.78125 66.40625 
Q 24.171875 66.40625 20.328125 58.90625 
Q 16.5 51.421875 16.5 36.375 
Q 16.5 21.390625 20.328125 13.890625 
Q 24.171875 6.390625 31.78125 6.390625 
Q 39.453125 6.390625 43.28125 13.890625 
Q 47.125 21.390625 47.125 36.375 
Q 47.125 51.421875 43.28125 58.90625 
Q 39.453125 66.40625 31.78125 66.40625 
z
M 31.78125 74.21875 
Q 44.046875 74.21875 50.515625 64.515625 
Q 56.984375 54.828125 56.984375 36.375 
Q 56.984375 17.96875 50.515625 8.265625 
Q 44.046875 -1.421875 31.78125 -1.421875 
Q 19.53125 -1.421875 13.0625 8.265625 
Q 6.59375 17.96875 6.59375 36.375 
Q 6.59375 54.828125 13.0625 64.515625 
Q 19.53125 74.21875 31.78125 74.21875 
z
" id="DejaVuSans-48"/>
       </defs>
       <use xlink:href="#DejaVuSans-48"/>
      </g>
     </g>
    </g>
    <g id="xtick_2">
     <g id="line2d_2">
      <g>
       <use style="stroke:#000000;stroke-width:0.8;" x="348.963698" xlink:href="#md7dbebf2d3" y="307.584"/>
      </g>
     </g>
     <g id="text_2">
      <!-- 10 -->
      <g transform="translate(342.601198 322.182437)scale(0.1 -0.1)">
       <defs>
        <path d="M 12.40625 8.296875 
L 28.515625 8.296875 
L 28.515625 63.921875 
L 10.984375 60.40625 
L 10.984375 69.390625 
L 28.421875 72.90625 
L 38.28125 72.90625 
L 38.28125 8.296875 
L 54.390625 8.296875 
L 54.390625 0 
L 12.40625 0 
z
" id="DejaVuSans-49"/>
       </defs>
       <use xlink:href="#DejaVuSans-49"/>
       <use x="63.623047" xlink:href="#DejaVuSans-48"/>
      </g>
     </g>
    </g>
    <g id="xtick_3">
     <g id="line2d_3">
      <g>
       <use style="stroke:#000000;stroke-width:0.8;" x="293.937504" xlink:href="#md7dbebf2d3" y="307.584"/>
      </g>
     </g>
     <g id="text_3">
      <!-- 20 -->
      <g transform="translate(287.575004 322.182437)scale(0.1 -0.1)">
       <defs>
        <path d="M 19.1875 8.296875 
L 53.609375 8.296875 
L 53.609375 0 
L 7.328125 0 
L 7.328125 8.296875 
Q 12.9375 14.109375 22.625 23.890625 
Q 32.328125 33.6875 34.8125 36.53125 
Q 39.546875 41.84375 41.421875 45.53125 
Q 43.3125 49.21875 43.3125 52.78125 
Q 43.3125 58.59375 39.234375 62.25 
Q 35.15625 65.921875 28.609375 65.921875 
Q 23.96875 65.921875 18.8125 64.3125 
Q 13.671875 62.703125 7.8125 59.421875 
L 7.8125 69.390625 
Q 13.765625 71.78125 18.9375 73 
Q 24.125 74.21875 28.421875 74.21875 
Q 39.75 74.21875 46.484375 68.546875 
Q 53.21875 62.890625 53.21875 53.421875 
Q 53.21875 48.921875 51.53125 44.890625 
Q 49.859375 40.875 45.40625 35.40625 
Q 44.1875 33.984375 37.640625 27.21875 
Q 31.109375 20.453125 19.1875 8.296875 
z
" id="DejaVuSans-50"/>
       </defs>
       <use xlink:href="#DejaVuSans-50"/>
       <use x="63.623047" xlink:href="#DejaVuSans-48"/>
      </g>
     </g>
    </g>
    <g id="xtick_4">
     <g id="line2d_4">
      <g>
       <use style="stroke:#000000;stroke-width:0.8;" x="238.91131" xlink:href="#md7dbebf2d3" y="307.584"/>
      </g>
     </g>
     <g id="text_4">
      <!-- 30 -->
      <g transform="translate(232.54881 322.182437)scale(0.1 -0.1)">
       <defs>
        <path d="M 40.578125 39.3125 
Q 47.65625 37.796875 51.625 33 
Q 55.609375 28.21875 55.609375 21.1875 
Q 55.609375 10.40625 48.1875 4.484375 
Q 40.765625 -1.421875 27.09375 -1.421875 
Q 22.515625 -1.421875 17.65625 -0.515625 
Q 12.796875 0.390625 7.625 2.203125 
L 7.625 11.71875 
Q 11.71875 9.328125 16.59375 8.109375 
Q 21.484375 6.890625 26.8125 6.890625 
Q 36.078125 6.890625 40.9375 10.546875 
Q 45.796875 14.203125 45.796875 21.1875 
Q 45.796875 27.640625 41.28125 31.265625 
Q 36.765625 34.90625 28.71875 34.90625 
L 20.21875 34.90625 
L 20.21875 43.015625 
L 29.109375 43.015625 
Q 36.375 43.015625 40.234375 45.921875 
Q 44.09375 48.828125 44.09375 54.296875 
Q 44.09375 59.90625 40.109375 62.90625 
Q 36.140625 65.921875 28.71875 65.921875 
Q 24.65625 65.921875 20.015625 65.03125 
Q 15.375 64.15625 9.8125 62.3125 
L 9.8125 71.09375 
Q 15.4375 72.65625 20.34375 73.4375 
Q 25.25 74.21875 29.59375 74.21875 
Q 40.828125 74.21875 47.359375 69.109375 
Q 53.90625 64.015625 53.90625 55.328125 
Q 53.90625 49.265625 50.4375 45.09375 
Q 46.96875 40.921875 40.578125 39.3125 
z
" id="DejaVuSans-51"/>
       </defs>
       <use xlink:href="#DejaVuSans-51"/>
       <use x="63.623047" xlink:href="#DejaVuSans-48"/>
      </g>
     </g>
    </g>
    <g id="xtick_5">
     <g id="line2d_5">
      <g>
       <use style="stroke:#000000;stroke-width:0.8;" x="183.885116" xlink:href="#md7dbebf2d3" y="307.584"/>
      </g>
     </g>
     <g id="text_5">
      <!-- 40 -->
      <g transform="translate(177.522616 322.182437)scale(0.1 -0.1)">
       <defs>
        <path d="M 37.796875 64.3125 
L 12.890625 25.390625 
L 37.796875 25.390625 
z
M 35.203125 72.90625 
L 47.609375 72.90625 
L 47.609375 25.390625 
L 58.015625 25.390625 
L 58.015625 17.1875 
L 47.609375 17.1875 
L 47.609375 0 
L 37.796875 0 
L 37.796875 17.1875 
L 4.890625 17.1875 
L 4.890625 26.703125 
z
" id="DejaVuSans-52"/>
       </defs>
       <use xlink:href="#DejaVuSans-52"/>
       <use x="63.623047" xlink:href="#DejaVuSans-48"/>
      </g>
     </g>
    </g>
    <g id="xtick_6">
     <g id="line2d_6">
      <g>
       <use style="stroke:#000000;stroke-width:0.8;" x="128.858921" xlink:href="#md7dbebf2d3" y="307.584"/>
      </g>
     </g>
     <g id="text_6">
      <!-- 50 -->
      <g transform="translate(122.496421 322.182437)scale(0.1 -0.1)">
       <defs>
        <path d="M 10.796875 72.90625 
L 49.515625 72.90625 
L 49.515625 64.59375 
L 19.828125 64.59375 
L 19.828125 46.734375 
Q 21.96875 47.46875 24.109375 47.828125 
Q 26.265625 48.1875 28.421875 48.1875 
Q 40.625 48.1875 47.75 41.5 
Q 54.890625 34.8125 54.890625 23.390625 
Q 54.890625 11.625 47.5625 5.09375 
Q 40.234375 -1.421875 26.90625 -1.421875 
Q 22.3125 -1.421875 17.546875 -0.640625 
Q 12.796875 0.140625 7.71875 1.703125 
L 7.71875 11.625 
Q 12.109375 9.234375 16.796875 8.0625 
Q 21.484375 6.890625 26.703125 6.890625 
Q 35.15625 6.890625 40.078125 11.328125 
Q 45.015625 15.765625 45.015625 23.390625 
Q 45.015625 31 40.078125 35.4375 
Q 35.15625 39.890625 26.703125 39.890625 
Q 22.75 39.890625 18.8125 39.015625 
Q 14.890625 38.140625 10.796875 36.28125 
z
" id="DejaVuSans-53"/>
       </defs>
       <use xlink:href="#DejaVuSans-53"/>
       <use x="63.623047" xlink:href="#DejaVuSans-48"/>
      </g>
     </g>
    </g>
    <g id="xtick_7">
     <g id="line2d_7">
      <g>
       <use style="stroke:#000000;stroke-width:0.8;" x="73.832727" xlink:href="#md7dbebf2d3" y="307.584"/>
      </g>
     </g>
     <g id="text_7">
      <!-- 60 -->
      <g transform="translate(67.470227 322.182437)scale(0.1 -0.1)">
       <defs>
        <path d="M 33.015625 40.375 
Q 26.375 40.375 22.484375 35.828125 
Q 18.609375 31.296875 18.609375 23.390625 
Q 18.609375 15.53125 22.484375 10.953125 
Q 26.375 6.390625 33.015625 6.390625 
Q 39.65625 6.390625 43.53125 10.953125 
Q 47.40625 15.53125 47.40625 23.390625 
Q 47.40625 31.296875 43.53125 35.828125 
Q 39.65625 40.375 33.015625 40.375 
z
M 52.59375 71.296875 
L 52.59375 62.3125 
Q 48.875 64.0625 45.09375 64.984375 
Q 41.3125 65.921875 37.59375 65.921875 
Q 27.828125 65.921875 22.671875 59.328125 
Q 17.53125 52.734375 16.796875 39.40625 
Q 19.671875 43.65625 24.015625 45.921875 
Q 28.375 48.1875 33.59375 48.1875 
Q 44.578125 48.1875 50.953125 41.515625 
Q 57.328125 34.859375 57.328125 23.390625 
Q 57.328125 12.15625 50.6875 5.359375 
Q 44.046875 -1.421875 33.015625 -1.421875 
Q 20.359375 -1.421875 13.671875 8.265625 
Q 6.984375 17.96875 6.984375 36.375 
Q 6.984375 53.65625 15.1875 63.9375 
Q 23.390625 74.21875 37.203125 74.21875 
Q 40.921875 74.21875 44.703125 73.484375 
Q 48.484375 72.75 52.59375 71.296875 
z
" id="DejaVuSans-54"/>
       </defs>
       <use xlink:href="#DejaVuSans-54"/>
       <use x="63.623047" xlink:href="#DejaVuSans-48"/>
      </g>
     </g>
    </g>
    <g id="text_8">
     <!-- Number of features -->
     <g transform="translate(187.4225 335.860562)scale(0.1 -0.1)">
      <defs>
       <path d="M 9.8125 72.90625 
L 23.09375 72.90625 
L 55.421875 11.921875 
L 55.421875 72.90625 
L 64.984375 72.90625 
L 64.984375 0 
L 51.703125 0 
L 19.390625 60.984375 
L 19.390625 0 
L 9.8125 0 
z
" id="DejaVuSans-78"/>
       <path d="M 8.5 21.578125 
L 8.5 54.6875 
L 17.484375 54.6875 
L 17.484375 21.921875 
Q 17.484375 14.15625 20.5 10.265625 
Q 23.53125 6.390625 29.59375 6.390625 
Q 36.859375 6.390625 41.078125 11.03125 
Q 45.3125 15.671875 45.3125 23.6875 
L 45.3125 54.6875 
L 54.296875 54.6875 
L 54.296875 0 
L 45.3125 0 
L 45.3125 8.40625 
Q 42.046875 3.421875 37.71875 1 
Q 33.40625 -1.421875 27.6875 -1.421875 
Q 18.265625 -1.421875 13.375 4.4375 
Q 8.5 10.296875 8.5 21.578125 
z
M 31.109375 56 
z
" id="DejaVuSans-117"/>
       <path d="M 52 44.1875 
Q 55.375 50.25 60.0625 53.125 
Q 64.75 56 71.09375 56 
Q 79.640625 56 84.28125 50.015625 
Q 88.921875 44.046875 88.921875 33.015625 
L 88.921875 0 
L 79.890625 0 
L 79.890625 32.71875 
Q 79.890625 40.578125 77.09375 44.375 
Q 74.3125 48.1875 68.609375 48.1875 
Q 61.625 48.1875 57.5625 43.546875 
Q 53.515625 38.921875 53.515625 30.90625 
L 53.515625 0 
L 44.484375 0 
L 44.484375 32.71875 
Q 44.484375 40.625 41.703125 44.40625 
Q 38.921875 48.1875 33.109375 48.1875 
Q 26.21875 48.1875 22.15625 43.53125 
Q 18.109375 38.875 18.109375 30.90625 
L 18.109375 0 
L 9.078125 0 
L 9.078125 54.6875 
L 18.109375 54.6875 
L 18.109375 46.1875 
Q 21.1875 51.21875 25.484375 53.609375 
Q 29.78125 56 35.6875 56 
Q 41.65625 56 45.828125 52.96875 
Q 50 49.953125 52 44.1875 
z
" id="DejaVuSans-109"/>
       <path d="M 48.6875 27.296875 
Q 48.6875 37.203125 44.609375 42.84375 
Q 40.53125 48.484375 33.40625 48.484375 
Q 26.265625 48.484375 22.1875 42.84375 
Q 18.109375 37.203125 18.109375 27.296875 
Q 18.109375 17.390625 22.1875 11.75 
Q 26.265625 6.109375 33.40625 6.109375 
Q 40.53125 6.109375 44.609375 11.75 
Q 48.6875 17.390625 48.6875 27.296875 
z
M 18.109375 46.390625 
Q 20.953125 51.265625 25.265625 53.625 
Q 29.59375 56 35.59375 56 
Q 45.5625 56 51.78125 48.09375 
Q 58.015625 40.1875 58.015625 27.296875 
Q 58.015625 14.40625 51.78125 6.484375 
Q 45.5625 -1.421875 35.59375 -1.421875 
Q 29.59375 -1.421875 25.265625 0.953125 
Q 20.953125 3.328125 18.109375 8.203125 
L 18.109375 0 
L 9.078125 0 
L 9.078125 75.984375 
L 18.109375 75.984375 
z
" id="DejaVuSans-98"/>
       <path d="M 56.203125 29.59375 
L 56.203125 25.203125 
L 14.890625 25.203125 
Q 15.484375 15.921875 20.484375 11.0625 
Q 25.484375 6.203125 34.421875 6.203125 
Q 39.59375 6.203125 44.453125 7.46875 
Q 49.3125 8.734375 54.109375 11.28125 
L 54.109375 2.78125 
Q 49.265625 0.734375 44.1875 -0.34375 
Q 39.109375 -1.421875 33.890625 -1.421875 
Q 20.796875 -1.421875 13.15625 6.1875 
Q 5.515625 13.8125 5.515625 26.8125 
Q 5.515625 40.234375 12.765625 48.109375 
Q 20.015625 56 32.328125 56 
Q 43.359375 56 49.78125 48.890625 
Q 56.203125 41.796875 56.203125 29.59375 
z
M 47.21875 32.234375 
Q 47.125 39.59375 43.09375 43.984375 
Q 39.0625 48.390625 32.421875 48.390625 
Q 24.90625 48.390625 20.390625 44.140625 
Q 15.875 39.890625 15.1875 32.171875 
z
" id="DejaVuSans-101"/>
       <path d="M 41.109375 46.296875 
Q 39.59375 47.171875 37.8125 47.578125 
Q 36.03125 48 33.890625 48 
Q 26.265625 48 22.1875 43.046875 
Q 18.109375 38.09375 18.109375 28.8125 
L 18.109375 0 
L 9.078125 0 
L 9.078125 54.6875 
L 18.109375 54.6875 
L 18.109375 46.1875 
Q 20.953125 51.171875 25.484375 53.578125 
Q 30.03125 56 36.53125 56 
Q 37.453125 56 38.578125 55.875 
Q 39.703125 55.765625 41.0625 55.515625 
z
" id="DejaVuSans-114"/>
       <path id="DejaVuSans-32"/>
       <path d="M 30.609375 48.390625 
Q 23.390625 48.390625 19.1875 42.75 
Q 14.984375 37.109375 14.984375 27.296875 
Q 14.984375 17.484375 19.15625 11.84375 
Q 23.34375 6.203125 30.609375 6.203125 
Q 37.796875 6.203125 41.984375 11.859375 
Q 46.1875 17.53125 46.1875 27.296875 
Q 46.1875 37.015625 41.984375 42.703125 
Q 37.796875 48.390625 30.609375 48.390625 
z
M 30.609375 56 
Q 42.328125 56 49.015625 48.375 
Q 55.71875 40.765625 55.71875 27.296875 
Q 55.71875 13.875 49.015625 6.21875 
Q 42.328125 -1.421875 30.609375 -1.421875 
Q 18.84375 -1.421875 12.171875 6.21875 
Q 5.515625 13.875 5.515625 27.296875 
Q 5.515625 40.765625 12.171875 48.375 
Q 18.84375 56 30.609375 56 
z
" id="DejaVuSans-111"/>
       <path d="M 37.109375 75.984375 
L 37.109375 68.5 
L 28.515625 68.5 
Q 23.6875 68.5 21.796875 66.546875 
Q 19.921875 64.59375 19.921875 59.515625 
L 19.921875 54.6875 
L 34.71875 54.6875 
L 34.71875 47.703125 
L 19.921875 47.703125 
L 19.921875 0 
L 10.890625 0 
L 10.890625 47.703125 
L 2.296875 47.703125 
L 2.296875 54.6875 
L 10.890625 54.6875 
L 10.890625 58.5 
Q 10.890625 67.625 15.140625 71.796875 
Q 19.390625 75.984375 28.609375 75.984375 
z
" id="DejaVuSans-102"/>
       <path d="M 34.28125 27.484375 
Q 23.390625 27.484375 19.1875 25 
Q 14.984375 22.515625 14.984375 16.5 
Q 14.984375 11.71875 18.140625 8.90625 
Q 21.296875 6.109375 26.703125 6.109375 
Q 34.1875 6.109375 38.703125 11.40625 
Q 43.21875 16.703125 43.21875 25.484375 
L 43.21875 27.484375 
z
M 52.203125 31.203125 
L 52.203125 0 
L 43.21875 0 
L 43.21875 8.296875 
Q 40.140625 3.328125 35.546875 0.953125 
Q 30.953125 -1.421875 24.3125 -1.421875 
Q 15.921875 -1.421875 10.953125 3.296875 
Q 6 8.015625 6 15.921875 
Q 6 25.140625 12.171875 29.828125 
Q 18.359375 34.515625 30.609375 34.515625 
L 43.21875 34.515625 
L 43.21875 35.40625 
Q 43.21875 41.609375 39.140625 45 
Q 35.0625 48.390625 27.6875 48.390625 
Q 23 48.390625 18.546875 47.265625 
Q 14.109375 46.140625 10.015625 43.890625 
L 10.015625 52.203125 
Q 14.9375 54.109375 19.578125 55.046875 
Q 24.21875 56 28.609375 56 
Q 40.484375 56 46.34375 49.84375 
Q 52.203125 43.703125 52.203125 31.203125 
z
" id="DejaVuSans-97"/>
       <path d="M 18.3125 70.21875 
L 18.3125 54.6875 
L 36.8125 54.6875 
L 36.8125 47.703125 
L 18.3125 47.703125 
L 18.3125 18.015625 
Q 18.3125 11.328125 20.140625 9.421875 
Q 21.96875 7.515625 27.59375 7.515625 
L 36.8125 7.515625 
L 36.8125 0 
L 27.59375 0 
Q 17.1875 0 13.234375 3.875 
Q 9.28125 7.765625 9.28125 18.015625 
L 9.28125 47.703125 
L 2.6875 47.703125 
L 2.6875 54.6875 
L 9.28125 54.6875 
L 9.28125 70.21875 
z
" id="DejaVuSans-116"/>
       <path d="M 44.28125 53.078125 
L 44.28125 44.578125 
Q 40.484375 46.53125 36.375 47.5 
Q 32.28125 48.484375 27.875 48.484375 
Q 21.1875 48.484375 17.84375 46.4375 
Q 14.5 44.390625 14.5 40.28125 
Q 14.5 37.15625 16.890625 35.375 
Q 19.28125 33.59375 26.515625 31.984375 
L 29.59375 31.296875 
Q 39.15625 29.25 43.1875 25.515625 
Q 47.21875 21.78125 47.21875 15.09375 
Q 47.21875 7.46875 41.1875 3.015625 
Q 35.15625 -1.421875 24.609375 -1.421875 
Q 20.21875 -1.421875 15.453125 -0.5625 
Q 10.6875 0.296875 5.421875 2 
L 5.421875 11.28125 
Q 10.40625 8.6875 15.234375 7.390625 
Q 20.0625 6.109375 24.8125 6.109375 
Q 31.15625 6.109375 34.5625 8.28125 
Q 37.984375 10.453125 37.984375 14.40625 
Q 37.984375 18.0625 35.515625 20.015625 
Q 33.0625 21.96875 24.703125 23.78125 
L 21.578125 24.515625 
Q 13.234375 26.265625 9.515625 29.90625 
Q 5.8125 33.546875 5.8125 39.890625 
Q 5.8125 47.609375 11.28125 51.796875 
Q 16.75 56 26.8125 56 
Q 31.78125 56 36.171875 55.265625 
Q 40.578125 54.546875 44.28125 53.078125 
z
" id="DejaVuSans-115"/>
      </defs>
      <use xlink:href="#DejaVuSans-78"/>
      <use x="74.804688" xlink:href="#DejaVuSans-117"/>
      <use x="138.183594" xlink:href="#DejaVuSans-109"/>
      <use x="235.595703" xlink:href="#DejaVuSans-98"/>
      <use x="299.072266" xlink:href="#DejaVuSans-101"/>
      <use x="360.595703" xlink:href="#DejaVuSans-114"/>
      <use x="401.708984" xlink:href="#DejaVuSans-32"/>
      <use x="433.496094" xlink:href="#DejaVuSans-111"/>
      <use x="494.677734" xlink:href="#DejaVuSans-102"/>
      <use x="529.882812" xlink:href="#DejaVuSans-32"/>
      <use x="561.669922" xlink:href="#DejaVuSans-102"/>
      <use x="596.875" xlink:href="#DejaVuSans-101"/>
      <use x="658.398438" xlink:href="#DejaVuSans-97"/>
      <use x="719.677734" xlink:href="#DejaVuSans-116"/>
      <use x="758.886719" xlink:href="#DejaVuSans-117"/>
      <use x="822.265625" xlink:href="#DejaVuSans-114"/>
      <use x="861.128906" xlink:href="#DejaVuSans-101"/>
      <use x="922.652344" xlink:href="#DejaVuSans-115"/>
     </g>
    </g>
   </g>
   <g id="matplotlib.axis_2">
    <g id="ytick_1">
     <g id="line2d_8">
      <defs>
       <path d="M 0 0 
L -3.5 0 
" id="m1cda45170b" style="stroke:#000000;stroke-width:0.8;"/>
      </defs>
      <g>
       <use style="stroke:#000000;stroke-width:0.8;" x="57.6" xlink:href="#m1cda45170b" y="298.829972"/>
      </g>
     </g>
     <g id="text_9">
      <!-- 0.4 -->
      <g transform="translate(34.696875 302.629191)scale(0.1 -0.1)">
       <defs>
        <path d="M 10.6875 12.40625 
L 21 12.40625 
L 21 0 
L 10.6875 0 
z
" id="DejaVuSans-46"/>
       </defs>
       <use xlink:href="#DejaVuSans-48"/>
       <use x="63.623047" xlink:href="#DejaVuSans-46"/>
       <use x="95.410156" xlink:href="#DejaVuSans-52"/>
      </g>
     </g>
    </g>
    <g id="ytick_2">
     <g id="line2d_9">
      <g>
       <use style="stroke:#000000;stroke-width:0.8;" x="57.6" xlink:href="#m1cda45170b" y="245.317075"/>
      </g>
     </g>
     <g id="text_10">
      <!-- 0.5 -->
      <g transform="translate(34.696875 249.116293)scale(0.1 -0.1)">
       <use xlink:href="#DejaVuSans-48"/>
       <use x="63.623047" xlink:href="#DejaVuSans-46"/>
       <use x="95.410156" xlink:href="#DejaVuSans-53"/>
      </g>
     </g>
    </g>
    <g id="ytick_3">
     <g id="line2d_10">
      <g>
       <use style="stroke:#000000;stroke-width:0.8;" x="57.6" xlink:href="#m1cda45170b" y="191.804177"/>
      </g>
     </g>
     <g id="text_11">
      <!-- 0.6 -->
      <g transform="translate(34.696875 195.603396)scale(0.1 -0.1)">
       <use xlink:href="#DejaVuSans-48"/>
       <use x="63.623047" xlink:href="#DejaVuSans-46"/>
       <use x="95.410156" xlink:href="#DejaVuSans-54"/>
      </g>
     </g>
    </g>
    <g id="ytick_4">
     <g id="line2d_11">
      <g>
       <use style="stroke:#000000;stroke-width:0.8;" x="57.6" xlink:href="#m1cda45170b" y="138.291279"/>
      </g>
     </g>
     <g id="text_12">
      <!-- 0.7 -->
      <g transform="translate(34.696875 142.090498)scale(0.1 -0.1)">
       <defs>
        <path d="M 8.203125 72.90625 
L 55.078125 72.90625 
L 55.078125 68.703125 
L 28.609375 0 
L 18.3125 0 
L 43.21875 64.59375 
L 8.203125 64.59375 
z
" id="DejaVuSans-55"/>
       </defs>
       <use xlink:href="#DejaVuSans-48"/>
       <use x="63.623047" xlink:href="#DejaVuSans-46"/>
       <use x="95.410156" xlink:href="#DejaVuSans-55"/>
      </g>
     </g>
    </g>
    <g id="ytick_5">
     <g id="line2d_12">
      <g>
       <use style="stroke:#000000;stroke-width:0.8;" x="57.6" xlink:href="#m1cda45170b" y="84.778382"/>
      </g>
     </g>
     <g id="text_13">
      <!-- 0.8 -->
      <g transform="translate(34.696875 88.5776)scale(0.1 -0.1)">
       <defs>
        <path d="M 31.78125 34.625 
Q 24.75 34.625 20.71875 30.859375 
Q 16.703125 27.09375 16.703125 20.515625 
Q 16.703125 13.921875 20.71875 10.15625 
Q 24.75 6.390625 31.78125 6.390625 
Q 38.8125 6.390625 42.859375 10.171875 
Q 46.921875 13.96875 46.921875 20.515625 
Q 46.921875 27.09375 42.890625 30.859375 
Q 38.875 34.625 31.78125 34.625 
z
M 21.921875 38.8125 
Q 15.578125 40.375 12.03125 44.71875 
Q 8.5 49.078125 8.5 55.328125 
Q 8.5 64.0625 14.71875 69.140625 
Q 20.953125 74.21875 31.78125 74.21875 
Q 42.671875 74.21875 48.875 69.140625 
Q 55.078125 64.0625 55.078125 55.328125 
Q 55.078125 49.078125 51.53125 44.71875 
Q 48 40.375 41.703125 38.8125 
Q 48.828125 37.15625 52.796875 32.3125 
Q 56.78125 27.484375 56.78125 20.515625 
Q 56.78125 9.90625 50.3125 4.234375 
Q 43.84375 -1.421875 31.78125 -1.421875 
Q 19.734375 -1.421875 13.25 4.234375 
Q 6.78125 9.90625 6.78125 20.515625 
Q 6.78125 27.484375 10.78125 32.3125 
Q 14.796875 37.15625 21.921875 38.8125 
z
M 18.3125 54.390625 
Q 18.3125 48.734375 21.84375 45.5625 
Q 25.390625 42.390625 31.78125 42.390625 
Q 38.140625 42.390625 41.71875 45.5625 
Q 45.3125 48.734375 45.3125 54.390625 
Q 45.3125 60.0625 41.71875 63.234375 
Q 38.140625 66.40625 31.78125 66.40625 
Q 25.390625 66.40625 21.84375 63.234375 
Q 18.3125 60.0625 18.3125 54.390625 
z
" id="DejaVuSans-56"/>
       </defs>
       <use xlink:href="#DejaVuSans-48"/>
       <use x="63.623047" xlink:href="#DejaVuSans-46"/>
       <use x="95.410156" xlink:href="#DejaVuSans-56"/>
      </g>
     </g>
    </g>
    <g id="text_14">
     <!-- Accuracy -->
     <g transform="translate(28.617187 197.356125)rotate(-90)scale(0.1 -0.1)">
      <defs>
       <path d="M 34.1875 63.1875 
L 20.796875 26.90625 
L 47.609375 26.90625 
z
M 28.609375 72.90625 
L 39.796875 72.90625 
L 67.578125 0 
L 57.328125 0 
L 50.6875 18.703125 
L 17.828125 18.703125 
L 11.1875 0 
L 0.78125 0 
z
" id="DejaVuSans-65"/>
       <path d="M 48.78125 52.59375 
L 48.78125 44.1875 
Q 44.96875 46.296875 41.140625 47.34375 
Q 37.3125 48.390625 33.40625 48.390625 
Q 24.65625 48.390625 19.8125 42.84375 
Q 14.984375 37.3125 14.984375 27.296875 
Q 14.984375 17.28125 19.8125 11.734375 
Q 24.65625 6.203125 33.40625 6.203125 
Q 37.3125 6.203125 41.140625 7.25 
Q 44.96875 8.296875 48.78125 10.40625 
L 48.78125 2.09375 
Q 45.015625 0.34375 40.984375 -0.53125 
Q 36.96875 -1.421875 32.421875 -1.421875 
Q 20.0625 -1.421875 12.78125 6.34375 
Q 5.515625 14.109375 5.515625 27.296875 
Q 5.515625 40.671875 12.859375 48.328125 
Q 20.21875 56 33.015625 56 
Q 37.15625 56 41.109375 55.140625 
Q 45.0625 54.296875 48.78125 52.59375 
z
" id="DejaVuSans-99"/>
       <path d="M 32.171875 -5.078125 
Q 28.375 -14.84375 24.75 -17.8125 
Q 21.140625 -20.796875 15.09375 -20.796875 
L 7.90625 -20.796875 
L 7.90625 -13.28125 
L 13.1875 -13.28125 
Q 16.890625 -13.28125 18.9375 -11.515625 
Q 21 -9.765625 23.484375 -3.21875 
L 25.09375 0.875 
L 2.984375 54.6875 
L 12.5 54.6875 
L 29.59375 11.921875 
L 46.6875 54.6875 
L 56.203125 54.6875 
z
" id="DejaVuSans-121"/>
      </defs>
      <use xlink:href="#DejaVuSans-65"/>
      <use x="66.658203" xlink:href="#DejaVuSans-99"/>
      <use x="121.638672" xlink:href="#DejaVuSans-99"/>
      <use x="176.619141" xlink:href="#DejaVuSans-117"/>
      <use x="239.998047" xlink:href="#DejaVuSans-114"/>
      <use x="281.111328" xlink:href="#DejaVuSans-97"/>
      <use x="342.390625" xlink:href="#DejaVuSans-99"/>
      <use x="397.371094" xlink:href="#DejaVuSans-121"/>
     </g>
    </g>
   </g>
   <g id="line2d_13">
    <path clip-path="url(#pd3b155f781)" d="M 73.832727 92.423081 
L 79.335347 90.087201 
L 84.837966 88.600731 
L 90.340586 90.936612 
L 95.843205 87.963673 
L 101.345824 92.635434 
L 106.848444 93.272492 
L 112.351063 93.909551 
L 117.853683 97.731901 
L 123.356302 93.909551 
L 128.858921 98.793664 
L 134.361541 104.102484 
L 139.86416 102.828367 
L 145.36678 107.500128 
L 150.869399 109.836008 
L 156.372018 117.056002 
L 161.874638 117.268355 
L 167.377257 118.117766 
L 172.879877 129.584816 
L 178.382496 129.584816 
L 183.885116 128.735405 
L 189.387735 131.708343 
L 194.890354 130.009521 
L 200.392974 147.634801 
L 205.895593 147.634801 
L 211.398213 155.491854 
L 216.900832 152.94362 
L 222.403451 162.9242 
L 227.906071 163.773612 
L 233.40869 166.74655 
L 238.91131 174.39125 
L 244.413929 170.356547 
L 249.916549 191.804177 
L 255.419168 186.920063 
L 260.921787 202.421815 
L 266.424407 198.387113 
L 271.927026 207.942987 
L 277.429646 210.915926 
L 282.932265 210.915926 
L 288.434884 227.904148 
L 293.937504 237.247669 
L 299.440123 236.822964 
L 304.942743 244.680016 
L 310.445362 251.262952 
L 315.947982 258.058241 
L 321.450601 250.201188 
L 326.95322 261.668238 
L 332.45584 266.764704 
L 337.958459 265.490588 
L 343.461079 268.251174 
L 348.963698 277.16999 
L 354.466317 274.834109 
L 359.968937 280.142929 
L 365.471556 281.629398 
L 370.974176 282.903515 
L 376.476795 283.115867 
L 381.979414 283.540573 
L 387.482034 283.540573 
L 392.984653 283.540573 
L 398.487273 283.540573 
" style="fill:none;stroke:#1f77b4;stroke-linecap:square;stroke-width:1.5;"/>
   </g>
   <g id="line2d_14">
    <path clip-path="url(#pd3b155f781)" d="M 73.832727 66.940749 
L 79.335347 68.427218 
L 84.837966 71.824863 
L 90.340586 73.736038 
L 95.843205 79.044857 
L 101.345824 77.346035 
L 106.848444 79.044857 
L 112.351063 83.928971 
L 117.853683 82.867207 
L 123.356302 88.813084 
L 128.858921 94.121903 
L 134.361541 90.511906 
L 139.86416 100.067781 
L 145.36678 90.087201 
L 150.869399 101.129545 
L 156.372018 101.978956 
L 161.874638 113.870711 
L 167.377257 110.260714 
L 172.879877 123.851291 
L 178.382496 122.152469 
L 183.885116 121.940116 
L 189.387735 129.372463 
L 194.890354 129.372463 
L 200.392974 134.256577 
L 205.895593 145.511273 
L 211.398213 145.086568 
L 216.900832 144.661862 
L 222.403451 155.491854 
L 227.906071 166.534198 
L 233.40869 164.835375 
L 238.91131 162.074789 
L 244.413929 169.931842 
L 249.916549 172.904781 
L 255.419168 183.522419 
L 260.921787 189.680649 
L 266.424407 192.441235 
L 271.927026 186.070652 
L 277.429646 197.325349 
L 282.932265 191.804177 
L 288.434884 192.653588 
L 293.937504 197.750054 
L 299.440123 198.387113 
L 304.942743 204.545343 
L 310.445362 202.209463 
L 315.947982 206.668871 
L 321.450601 205.182401 
L 326.95322 205.81946 
L 332.45584 206.456518 
L 337.958459 207.093576 
L 343.461079 207.093576 
L 348.963698 207.093576 
L 354.466317 207.093576 
L 359.968937 207.093576 
L 365.471556 207.093576 
L 370.974176 207.093576 
L 376.476795 207.093576 
L 381.979414 207.093576 
L 387.482034 207.093576 
L 392.984653 207.093576 
L 398.487273 207.093576 
" style="fill:none;stroke:#ff7f0e;stroke-linecap:square;stroke-width:1.5;"/>
   </g>
   <g id="line2d_15">
    <path clip-path="url(#pd3b155f781)" d="M 73.832727 66.94076 
L 79.335347 67.153108 
L 84.837966 66.728401 
L 90.340586 67.790163 
L 95.843205 70.550749 
L 101.345824 69.913689 
L 106.848444 71.824868 
L 112.351063 69.276633 
L 117.853683 70.126043 
L 123.356302 73.523687 
L 128.858921 70.763102 
L 134.361541 72.461922 
L 139.86416 73.948392 
L 145.36678 74.160745 
L 150.869399 75.010157 
L 156.372018 77.983096 
L 161.874638 81.380738 
L 167.377257 79.469562 
L 172.879877 78.620153 
L 178.382496 86.689559 
L 183.885116 80.956034 
L 189.387735 87.963677 
L 194.890354 87.326616 
L 200.392974 88.38838 
L 205.895593 90.087203 
L 211.398213 91.36132 
L 216.900832 93.484847 
L 222.403451 86.901909 
L 227.906071 94.334257 
L 233.40869 94.971317 
L 238.91131 93.697197 
L 244.413929 99.218372 
L 249.916549 96.245431 
L 255.419168 111.322476 
L 260.921787 112.384243 
L 266.424407 106.650716 
L 271.927026 106.863071 
L 277.429646 110.473066 
L 282.932265 100.917192 
L 288.434884 120.453646 
L 293.937504 129.372461 
L 299.440123 120.666 
L 304.942743 118.330118 
L 310.445362 124.063642 
L 315.947982 139.140691 
L 321.450601 119.391882 
L 326.95322 128.098345 
L 332.45584 142.750684 
L 337.958459 145.511273 
L 343.461079 152.731266 
L 348.963698 148.908915 
L 354.466317 147.210092 
L 359.968937 144.874213 
L 365.471556 156.341264 
L 370.974176 190.105351 
L 376.476795 187.132414 
L 381.979414 189.892999 
L 387.482034 194.989464 
L 392.984653 209.004749 
L 398.487273 219.834739 
" style="fill:none;stroke:#2ca02c;stroke-linecap:square;stroke-width:1.5;"/>
   </g>
   <g id="line2d_16">
    <path clip-path="url(#pd3b155f781)" d="M 73.832727 117.905414 
L 79.335347 114.932475 
L 84.837966 111.747183 
L 90.340586 116.631297 
L 95.843205 112.384242 
L 101.345824 118.754825 
L 106.848444 112.808947 
L 112.351063 113.0213 
L 117.853683 111.959536 
L 123.356302 113.870711 
L 128.858921 111.959536 
L 134.361541 113.0213 
L 139.86416 120.666 
L 145.36678 114.932475 
L 150.869399 114.083064 
L 156.372018 116.84365 
L 161.874638 108.774244 
L 167.377257 116.418944 
L 172.879877 116.84365 
L 178.382496 119.816588 
L 183.885116 118.542472 
L 189.387735 112.808947 
L 194.890354 111.110125 
L 200.392974 121.090705 
L 205.895593 115.35718 
L 211.398213 111.959536 
L 216.900832 118.330119 
L 222.403451 119.17953 
L 227.906071 112.171889 
L 233.40869 113.233653 
L 238.91131 115.35718 
L 244.413929 113.0213 
L 249.916549 110.473067 
L 255.419168 117.056002 
L 260.921787 112.596594 
L 266.424407 111.747183 
L 271.927026 108.986597 
L 277.429646 115.569533 
L 282.932265 113.0213 
L 288.434884 111.747183 
L 293.937504 112.808947 
L 299.440123 108.774244 
L 304.942743 115.569533 
L 310.445362 107.075422 
L 315.947982 120.241294 
L 321.450601 111.959536 
L 326.95322 111.747183 
L 332.45584 125.762466 
L 337.958459 116.631297 
L 343.461079 124.700702 
L 348.963698 115.781886 
L 354.466317 123.214233 
L 359.968937 122.152469 
L 365.471556 119.17953 
L 370.974176 148.271859 
L 376.476795 148.908918 
L 381.979414 156.128912 
L 387.482034 159.526556 
L 392.984653 179.275364 
L 398.487273 212.614748 
" style="fill:none;stroke:#d62728;stroke-linecap:square;stroke-width:1.5;"/>
   </g>
   <g id="patch_3">
    <path d="M 57.6 307.584 
L 57.6 41.472 
" style="fill:none;stroke:#000000;stroke-linecap:square;stroke-linejoin:miter;stroke-width:0.8;"/>
   </g>
   <g id="patch_4">
    <path d="M 414.72 307.584 
L 414.72 41.472 
" style="fill:none;stroke:#000000;stroke-linecap:square;stroke-linejoin:miter;stroke-width:0.8;"/>
   </g>
   <g id="patch_5">
    <path d="M 57.6 307.584 
L 414.72 307.584 
" style="fill:none;stroke:#000000;stroke-linecap:square;stroke-linejoin:miter;stroke-width:0.8;"/>
   </g>
   <g id="patch_6">
    <path d="M 57.6 41.472 
L 414.72 41.472 
" style="fill:none;stroke:#000000;stroke-linecap:square;stroke-linejoin:miter;stroke-width:0.8;"/>
   </g>
   <g id="text_15">
    <!-- Sonar -->
    <g transform="translate(218.73375 35.472)scale(0.12 -0.12)">
     <defs>
      <path d="M 53.515625 70.515625 
L 53.515625 60.890625 
Q 47.90625 63.578125 42.921875 64.890625 
Q 37.9375 66.21875 33.296875 66.21875 
Q 25.25 66.21875 20.875 63.09375 
Q 16.5 59.96875 16.5 54.203125 
Q 16.5 49.359375 19.40625 46.890625 
Q 22.3125 44.4375 30.421875 42.921875 
L 36.375 41.703125 
Q 47.40625 39.59375 52.65625 34.296875 
Q 57.90625 29 57.90625 20.125 
Q 57.90625 9.515625 50.796875 4.046875 
Q 43.703125 -1.421875 29.984375 -1.421875 
Q 24.8125 -1.421875 18.96875 -0.25 
Q 13.140625 0.921875 6.890625 3.21875 
L 6.890625 13.375 
Q 12.890625 10.015625 18.65625 8.296875 
Q 24.421875 6.59375 29.984375 6.59375 
Q 38.421875 6.59375 43.015625 9.90625 
Q 47.609375 13.234375 47.609375 19.390625 
Q 47.609375 24.75 44.3125 27.78125 
Q 41.015625 30.8125 33.5 32.328125 
L 27.484375 33.5 
Q 16.453125 35.6875 11.515625 40.375 
Q 6.59375 45.0625 6.59375 53.421875 
Q 6.59375 63.09375 13.40625 68.65625 
Q 20.21875 74.21875 32.171875 74.21875 
Q 37.3125 74.21875 42.625 73.28125 
Q 47.953125 72.359375 53.515625 70.515625 
z
" id="DejaVuSans-83"/>
      <path d="M 54.890625 33.015625 
L 54.890625 0 
L 45.90625 0 
L 45.90625 32.71875 
Q 45.90625 40.484375 42.875 44.328125 
Q 39.84375 48.1875 33.796875 48.1875 
Q 26.515625 48.1875 22.3125 43.546875 
Q 18.109375 38.921875 18.109375 30.90625 
L 18.109375 0 
L 9.078125 0 
L 9.078125 54.6875 
L 18.109375 54.6875 
L 18.109375 46.1875 
Q 21.34375 51.125 25.703125 53.5625 
Q 30.078125 56 35.796875 56 
Q 45.21875 56 50.046875 50.171875 
Q 54.890625 44.34375 54.890625 33.015625 
z
" id="DejaVuSans-110"/>
     </defs>
     <use xlink:href="#DejaVuSans-83"/>
     <use x="63.476562" xlink:href="#DejaVuSans-111"/>
     <use x="124.658203" xlink:href="#DejaVuSans-110"/>
     <use x="188.037109" xlink:href="#DejaVuSans-97"/>
     <use x="249.316406" xlink:href="#DejaVuSans-114"/>
    </g>
   </g>
   <g id="legend_1">
    <g id="patch_7">
     <path d="M 64.6 302.584 
L 260.920313 302.584 
Q 262.920313 302.584 262.920313 300.584 
L 262.920313 242.8715 
Q 262.920313 240.8715 260.920313 240.8715 
L 64.6 240.8715 
Q 62.6 240.8715 62.6 242.8715 
L 62.6 300.584 
Q 62.6 302.584 64.6 302.584 
z
" style="fill:#ffffff;opacity:0.8;stroke:#cccccc;stroke-linejoin:miter;"/>
    </g>
    <g id="line2d_17">
     <path d="M 66.6 248.969937 
L 86.6 248.969937 
" style="fill:none;stroke:#1f77b4;stroke-linecap:square;stroke-width:1.5;"/>
    </g>
    <g id="line2d_18"/>
    <g id="text_16">
     <!-- Random Forest -->
     <g transform="translate(94.6 252.469937)scale(0.1 -0.1)">
      <defs>
       <path d="M 44.390625 34.1875 
Q 47.5625 33.109375 50.5625 29.59375 
Q 53.5625 26.078125 56.59375 19.921875 
L 66.609375 0 
L 56 0 
L 46.6875 18.703125 
Q 43.0625 26.03125 39.671875 28.421875 
Q 36.28125 30.8125 30.421875 30.8125 
L 19.671875 30.8125 
L 19.671875 0 
L 9.8125 0 
L 9.8125 72.90625 
L 32.078125 72.90625 
Q 44.578125 72.90625 50.734375 67.671875 
Q 56.890625 62.453125 56.890625 51.90625 
Q 56.890625 45.015625 53.6875 40.46875 
Q 50.484375 35.9375 44.390625 34.1875 
z
M 19.671875 64.796875 
L 19.671875 38.921875 
L 32.078125 38.921875 
Q 39.203125 38.921875 42.84375 42.21875 
Q 46.484375 45.515625 46.484375 51.90625 
Q 46.484375 58.296875 42.84375 61.546875 
Q 39.203125 64.796875 32.078125 64.796875 
z
" id="DejaVuSans-82"/>
       <path d="M 45.40625 46.390625 
L 45.40625 75.984375 
L 54.390625 75.984375 
L 54.390625 0 
L 45.40625 0 
L 45.40625 8.203125 
Q 42.578125 3.328125 38.25 0.953125 
Q 33.9375 -1.421875 27.875 -1.421875 
Q 17.96875 -1.421875 11.734375 6.484375 
Q 5.515625 14.40625 5.515625 27.296875 
Q 5.515625 40.1875 11.734375 48.09375 
Q 17.96875 56 27.875 56 
Q 33.9375 56 38.25 53.625 
Q 42.578125 51.265625 45.40625 46.390625 
z
M 14.796875 27.296875 
Q 14.796875 17.390625 18.875 11.75 
Q 22.953125 6.109375 30.078125 6.109375 
Q 37.203125 6.109375 41.296875 11.75 
Q 45.40625 17.390625 45.40625 27.296875 
Q 45.40625 37.203125 41.296875 42.84375 
Q 37.203125 48.484375 30.078125 48.484375 
Q 22.953125 48.484375 18.875 42.84375 
Q 14.796875 37.203125 14.796875 27.296875 
z
" id="DejaVuSans-100"/>
       <path d="M 9.8125 72.90625 
L 51.703125 72.90625 
L 51.703125 64.59375 
L 19.671875 64.59375 
L 19.671875 43.109375 
L 48.578125 43.109375 
L 48.578125 34.8125 
L 19.671875 34.8125 
L 19.671875 0 
L 9.8125 0 
z
" id="DejaVuSans-70"/>
      </defs>
      <use xlink:href="#DejaVuSans-82"/>
      <use x="67.232422" xlink:href="#DejaVuSans-97"/>
      <use x="128.511719" xlink:href="#DejaVuSans-110"/>
      <use x="191.890625" xlink:href="#DejaVuSans-100"/>
      <use x="255.367188" xlink:href="#DejaVuSans-111"/>
      <use x="316.548828" xlink:href="#DejaVuSans-109"/>
      <use x="413.960938" xlink:href="#DejaVuSans-32"/>
      <use x="445.748047" xlink:href="#DejaVuSans-70"/>
      <use x="499.642578" xlink:href="#DejaVuSans-111"/>
      <use x="560.824219" xlink:href="#DejaVuSans-114"/>
      <use x="599.6875" xlink:href="#DejaVuSans-101"/>
      <use x="661.210938" xlink:href="#DejaVuSans-115"/>
      <use x="713.310547" xlink:href="#DejaVuSans-116"/>
     </g>
    </g>
    <g id="line2d_19">
     <path d="M 66.6 263.648062 
L 86.6 263.648062 
" style="fill:none;stroke:#ff7f0e;stroke-linecap:square;stroke-width:1.5;"/>
    </g>
    <g id="line2d_20"/>
    <g id="text_17">
     <!-- XGBoost -->
     <g transform="translate(94.6 267.148062)scale(0.1 -0.1)">
      <defs>
       <path d="M 6.296875 72.90625 
L 16.890625 72.90625 
L 35.015625 45.796875 
L 53.21875 72.90625 
L 63.8125 72.90625 
L 40.375 37.890625 
L 65.375 0 
L 54.78125 0 
L 34.28125 31 
L 13.625 0 
L 2.984375 0 
L 29 38.921875 
z
" id="DejaVuSans-88"/>
       <path d="M 59.515625 10.40625 
L 59.515625 29.984375 
L 43.40625 29.984375 
L 43.40625 38.09375 
L 69.28125 38.09375 
L 69.28125 6.78125 
Q 63.578125 2.734375 56.6875 0.65625 
Q 49.8125 -1.421875 42 -1.421875 
Q 24.90625 -1.421875 15.25 8.5625 
Q 5.609375 18.5625 5.609375 36.375 
Q 5.609375 54.25 15.25 64.234375 
Q 24.90625 74.21875 42 74.21875 
Q 49.125 74.21875 55.546875 72.453125 
Q 61.96875 70.703125 67.390625 67.28125 
L 67.390625 56.78125 
Q 61.921875 61.421875 55.765625 63.765625 
Q 49.609375 66.109375 42.828125 66.109375 
Q 29.4375 66.109375 22.71875 58.640625 
Q 16.015625 51.171875 16.015625 36.375 
Q 16.015625 21.625 22.71875 14.15625 
Q 29.4375 6.6875 42.828125 6.6875 
Q 48.046875 6.6875 52.140625 7.59375 
Q 56.25 8.5 59.515625 10.40625 
z
" id="DejaVuSans-71"/>
       <path d="M 19.671875 34.8125 
L 19.671875 8.109375 
L 35.5 8.109375 
Q 43.453125 8.109375 47.28125 11.40625 
Q 51.125 14.703125 51.125 21.484375 
Q 51.125 28.328125 47.28125 31.5625 
Q 43.453125 34.8125 35.5 34.8125 
z
M 19.671875 64.796875 
L 19.671875 42.828125 
L 34.28125 42.828125 
Q 41.5 42.828125 45.03125 45.53125 
Q 48.578125 48.25 48.578125 53.8125 
Q 48.578125 59.328125 45.03125 62.0625 
Q 41.5 64.796875 34.28125 64.796875 
z
M 9.8125 72.90625 
L 35.015625 72.90625 
Q 46.296875 72.90625 52.390625 68.21875 
Q 58.5 63.53125 58.5 54.890625 
Q 58.5 48.1875 55.375 44.234375 
Q 52.25 40.28125 46.1875 39.3125 
Q 53.46875 37.75 57.5 32.78125 
Q 61.53125 27.828125 61.53125 20.40625 
Q 61.53125 10.640625 54.890625 5.3125 
Q 48.25 0 35.984375 0 
L 9.8125 0 
z
" id="DejaVuSans-66"/>
      </defs>
      <use xlink:href="#DejaVuSans-88"/>
      <use x="68.505859" xlink:href="#DejaVuSans-71"/>
      <use x="145.996094" xlink:href="#DejaVuSans-66"/>
      <use x="214.599609" xlink:href="#DejaVuSans-111"/>
      <use x="275.78125" xlink:href="#DejaVuSans-111"/>
      <use x="336.962891" xlink:href="#DejaVuSans-115"/>
      <use x="389.0625" xlink:href="#DejaVuSans-116"/>
     </g>
    </g>
    <g id="line2d_21">
     <path d="M 66.6 278.326187 
L 86.6 278.326187 
" style="fill:none;stroke:#2ca02c;stroke-linecap:square;stroke-width:1.5;"/>
    </g>
    <g id="line2d_22"/>
    <g id="text_18">
     <!-- Neural Network + Regularization -->
     <g transform="translate(94.6 281.826187)scale(0.1 -0.1)">
      <defs>
       <path d="M 9.421875 75.984375 
L 18.40625 75.984375 
L 18.40625 0 
L 9.421875 0 
z
" id="DejaVuSans-108"/>
       <path d="M 4.203125 54.6875 
L 13.1875 54.6875 
L 24.421875 12.015625 
L 35.59375 54.6875 
L 46.1875 54.6875 
L 57.421875 12.015625 
L 68.609375 54.6875 
L 77.59375 54.6875 
L 63.28125 0 
L 52.6875 0 
L 40.921875 44.828125 
L 29.109375 0 
L 18.5 0 
z
" id="DejaVuSans-119"/>
       <path d="M 9.078125 75.984375 
L 18.109375 75.984375 
L 18.109375 31.109375 
L 44.921875 54.6875 
L 56.390625 54.6875 
L 27.390625 29.109375 
L 57.625 0 
L 45.90625 0 
L 18.109375 26.703125 
L 18.109375 0 
L 9.078125 0 
z
" id="DejaVuSans-107"/>
       <path d="M 46 62.703125 
L 46 35.5 
L 73.1875 35.5 
L 73.1875 27.203125 
L 46 27.203125 
L 46 0 
L 37.796875 0 
L 37.796875 27.203125 
L 10.59375 27.203125 
L 10.59375 35.5 
L 37.796875 35.5 
L 37.796875 62.703125 
z
" id="DejaVuSans-43"/>
       <path d="M 45.40625 27.984375 
Q 45.40625 37.75 41.375 43.109375 
Q 37.359375 48.484375 30.078125 48.484375 
Q 22.859375 48.484375 18.828125 43.109375 
Q 14.796875 37.75 14.796875 27.984375 
Q 14.796875 18.265625 18.828125 12.890625 
Q 22.859375 7.515625 30.078125 7.515625 
Q 37.359375 7.515625 41.375 12.890625 
Q 45.40625 18.265625 45.40625 27.984375 
z
M 54.390625 6.78125 
Q 54.390625 -7.171875 48.1875 -13.984375 
Q 42 -20.796875 29.203125 -20.796875 
Q 24.46875 -20.796875 20.265625 -20.09375 
Q 16.0625 -19.390625 12.109375 -17.921875 
L 12.109375 -9.1875 
Q 16.0625 -11.328125 19.921875 -12.34375 
Q 23.78125 -13.375 27.78125 -13.375 
Q 36.625 -13.375 41.015625 -8.765625 
Q 45.40625 -4.15625 45.40625 5.171875 
L 45.40625 9.625 
Q 42.625 4.78125 38.28125 2.390625 
Q 33.9375 0 27.875 0 
Q 17.828125 0 11.671875 7.65625 
Q 5.515625 15.328125 5.515625 27.984375 
Q 5.515625 40.671875 11.671875 48.328125 
Q 17.828125 56 27.875 56 
Q 33.9375 56 38.28125 53.609375 
Q 42.625 51.21875 45.40625 46.390625 
L 45.40625 54.6875 
L 54.390625 54.6875 
z
" id="DejaVuSans-103"/>
       <path d="M 9.421875 54.6875 
L 18.40625 54.6875 
L 18.40625 0 
L 9.421875 0 
z
M 9.421875 75.984375 
L 18.40625 75.984375 
L 18.40625 64.59375 
L 9.421875 64.59375 
z
" id="DejaVuSans-105"/>
       <path d="M 5.515625 54.6875 
L 48.1875 54.6875 
L 48.1875 46.484375 
L 14.40625 7.171875 
L 48.1875 7.171875 
L 48.1875 0 
L 4.296875 0 
L 4.296875 8.203125 
L 38.09375 47.515625 
L 5.515625 47.515625 
z
" id="DejaVuSans-122"/>
      </defs>
      <use xlink:href="#DejaVuSans-78"/>
      <use x="74.804688" xlink:href="#DejaVuSans-101"/>
      <use x="136.328125" xlink:href="#DejaVuSans-117"/>
      <use x="199.707031" xlink:href="#DejaVuSans-114"/>
      <use x="240.820312" xlink:href="#DejaVuSans-97"/>
      <use x="302.099609" xlink:href="#DejaVuSans-108"/>
      <use x="329.882812" xlink:href="#DejaVuSans-32"/>
      <use x="361.669922" xlink:href="#DejaVuSans-78"/>
      <use x="436.474609" xlink:href="#DejaVuSans-101"/>
      <use x="497.998047" xlink:href="#DejaVuSans-116"/>
      <use x="537.207031" xlink:href="#DejaVuSans-119"/>
      <use x="618.994141" xlink:href="#DejaVuSans-111"/>
      <use x="680.175781" xlink:href="#DejaVuSans-114"/>
      <use x="721.289062" xlink:href="#DejaVuSans-107"/>
      <use x="779.199219" xlink:href="#DejaVuSans-32"/>
      <use x="810.986328" xlink:href="#DejaVuSans-43"/>
      <use x="894.775391" xlink:href="#DejaVuSans-32"/>
      <use x="926.5625" xlink:href="#DejaVuSans-82"/>
      <use x="991.544922" xlink:href="#DejaVuSans-101"/>
      <use x="1053.068359" xlink:href="#DejaVuSans-103"/>
      <use x="1116.544922" xlink:href="#DejaVuSans-117"/>
      <use x="1179.923828" xlink:href="#DejaVuSans-108"/>
      <use x="1207.707031" xlink:href="#DejaVuSans-97"/>
      <use x="1268.986328" xlink:href="#DejaVuSans-114"/>
      <use x="1310.099609" xlink:href="#DejaVuSans-105"/>
      <use x="1337.882812" xlink:href="#DejaVuSans-122"/>
      <use x="1390.373047" xlink:href="#DejaVuSans-97"/>
      <use x="1451.652344" xlink:href="#DejaVuSans-116"/>
      <use x="1490.861328" xlink:href="#DejaVuSans-105"/>
      <use x="1518.644531" xlink:href="#DejaVuSans-111"/>
      <use x="1579.826172" xlink:href="#DejaVuSans-110"/>
     </g>
    </g>
    <g id="line2d_23">
     <path d="M 66.6 293.004312 
L 86.6 293.004312 
" style="fill:none;stroke:#d62728;stroke-linecap:square;stroke-width:1.5;"/>
    </g>
    <g id="line2d_24"/>
    <g id="text_19">
     <!-- KNN -->
     <g transform="translate(94.6 296.504312)scale(0.1 -0.1)">
      <defs>
       <path d="M 9.8125 72.90625 
L 19.671875 72.90625 
L 19.671875 42.09375 
L 52.390625 72.90625 
L 65.09375 72.90625 
L 28.90625 38.921875 
L 67.671875 0 
L 54.6875 0 
L 19.671875 35.109375 
L 19.671875 0 
L 9.8125 0 
z
" id="DejaVuSans-75"/>
      </defs>
      <use xlink:href="#DejaVuSans-75"/>
      <use x="65.576172" xlink:href="#DejaVuSans-78"/>
      <use x="140.380859" xlink:href="#DejaVuSans-78"/>
     </g>
    </g>
   </g>
  </g>
 </g>
 <defs>
  <clipPath id="pd3b155f781">
   <rect height="266.112" width="357.12" x="57.6" y="41.472"/>
  </clipPath>
 </defs>
</svg>
