<?xml version="1.0" encoding="utf-8" standalone="no"?>
<!DOCTYPE svg PUBLIC "-//W3C//DTD SVG 1.1//EN"
  "http://www.w3.org/Graphics/SVG/1.1/DTD/svg11.dtd">
<!-- Created with matplotlib (https://matplotlib.org/) -->
<svg height="345.6pt" version="1.1" viewBox="0 0 460.8 345.6" width="460.8pt" xmlns="http://www.w3.org/2000/svg" xmlns:xlink="http://www.w3.org/1999/xlink">
 <metadata>
  <rdf:RDF xmlns:cc="http://creativecommons.org/ns#" xmlns:dc="http://purl.org/dc/elements/1.1/" xmlns:rdf="http://www.w3.org/1999/02/22-rdf-syntax-ns#">
   <cc:Work>
    <dc:type rdf:resource="http://purl.org/dc/dcmitype/StillImage"/>
    <dc:date>2023-09-19T16:49:46.123998</dc:date>
    <dc:format>image/svg+xml</dc:format>
    <dc:creator>
     <cc:Agent>
      <dc:title>Matplotlib v3.3.4, https://matplotlib.org/</dc:title>
     </cc:Agent>
    </dc:creator>
   </cc:Work>
  </rdf:RDF>
 </metadata>
 <defs>
  <style type="text/css">*{stroke-linecap:butt;stroke-linejoin:round;}</style>
 </defs>
 <g id="figure_1">
  <g id="patch_1">
   <path d="M 0 345.6 
L 460.8 345.6 
L 460.8 0 
L 0 0 
z
" style="fill:#ffffff;"/>
  </g>
  <g id="axes_1">
   <g id="patch_2">
    <path d="M 57.6 307.584 
L 414.72 307.584 
L 414.72 41.472 
L 57.6 41.472 
z
" style="fill:#ffffff;"/>
   </g>
   <g id="PolyCollection_1">
    <path clip-path="url(#p40da059e61)" d="M 73.832727 150.48547 
L 73.832727 150.48547 
L 77.112066 157.590413 
L 80.391405 162.636059 
L 83.670744 161.683226 
L 86.950083 164.522935 
L 90.229421 165.420586 
L 93.50876 166.405155 
L 96.788099 168.769088 
L 100.067438 171.911175 
L 103.346777 175.694799 
L 106.626116 173.817286 
L 109.905455 173.283208 
L 113.184793 176.087855 
L 116.464132 177.639783 
L 119.743471 178.32581 
L 123.02281 180.380683 
L 126.302149 180.75623 
L 129.581488 184.110238 
L 132.860826 187.234512 
L 136.140165 185.034631 
L 139.419504 184.402119 
L 142.698843 183.793881 
L 145.978182 186.665782 
L 149.257521 190.992588 
L 152.53686 195.168051 
L 155.816198 192.064151 
L 159.095537 197.834218 
L 162.374876 191.25308 
L 165.654215 198.626296 
L 168.933554 198.3992 
L 172.212893 194.871379 
L 175.492231 202.898548 
L 178.77157 195.244555 
L 182.050909 200.627243 
L 185.330248 207.339736 
L 188.609587 203.780623 
L 191.888926 206.305582 
L 195.168264 204.669093 
L 198.447603 208.502949 
L 201.726942 213.809167 
L 205.006281 212.73238 
L 208.28562 211.398089 
L 211.564959 216.006994 
L 214.844298 214.690351 
L 218.123636 211.894162 
L 221.402975 220.692454 
L 224.682314 222.19726 
L 227.961653 220.064149 
L 231.240992 220.629893 
L 234.520331 220.902725 
L 237.799669 228.386397 
L 241.079008 226.312614 
L 244.358347 228.028369 
L 247.637686 226.290966 
L 250.917025 230.593397 
L 254.196364 225.595784 
L 257.475702 227.530329 
L 260.755041 231.667064 
L 264.03438 236.853638 
L 267.313719 232.802782 
L 270.593058 242.129322 
L 273.872397 242.010005 
L 277.151736 237.116876 
L 280.431074 245.045243 
L 283.710413 244.629413 
L 286.989752 241.329932 
L 290.269091 244.499482 
L 293.54843 250.295434 
L 296.827769 250.851133 
L 300.107107 255.694426 
L 303.386446 255.333364 
L 306.665785 255.122504 
L 309.945124 253.770185 
L 313.224463 260.120853 
L 316.503802 259.285952 
L 319.78314 260.968377 
L 323.062479 263.278383 
L 326.341818 263.471853 
L 329.621157 264.81637 
L 332.900496 261.219713 
L 336.179835 267.002132 
L 339.459174 265.810699 
L 342.738512 270.571886 
L 346.017851 270.685803 
L 349.29719 268.67366 
L 352.576529 271.193799 
L 355.855868 274.205767 
L 359.135207 277.251317 
L 362.414545 275.977072 
L 365.693884 279.125895 
L 368.973223 277.617167 
L 372.252562 278.730937 
L 375.531901 280.4092 
L 378.81124 277.982439 
L 382.090579 280.734987 
L 385.369917 281.426538 
L 388.649256 281.479767 
L 391.928595 278.676202 
L 395.207934 278.909516 
L 398.487273 279.057507 
L 398.487273 269.034383 
L 398.487273 269.034383 
L 395.207934 269.773856 
L 391.928595 269.652281 
L 388.649256 267.203605 
L 385.369917 260.868834 
L 382.090579 263.571422 
L 378.81124 251.536934 
L 375.531901 250.884617 
L 372.252562 248.540806 
L 368.973223 240.782354 
L 365.693884 241.521255 
L 362.414545 239.938228 
L 359.135207 235.706575 
L 355.855868 236.504496 
L 352.576529 233.365057 
L 349.29719 224.055567 
L 346.017851 227.958238 
L 342.738512 221.920748 
L 339.459174 227.391713 
L 336.179835 221.113539 
L 332.900496 214.119959 
L 329.621157 223.65419 
L 326.341818 214.470337 
L 323.062479 213.480844 
L 319.78314 212.951739 
L 316.503802 213.332905 
L 313.224463 213.089485 
L 309.945124 204.416524 
L 306.665785 203.064205 
L 303.386446 205.692457 
L 300.107107 203.438654 
L 296.827769 204.023281 
L 293.54843 204.342387 
L 290.269091 188.845006 
L 286.989752 187.046112 
L 283.710413 192.973742 
L 280.431074 190.783468 
L 277.151736 186.76391 
L 273.872397 189.560039 
L 270.593058 188.376055 
L 267.313719 184.808299 
L 264.03438 180.284258 
L 260.755041 182.513425 
L 257.475702 171.271643 
L 254.196364 177.346557 
L 250.917025 179.091833 
L 247.637686 177.952635 
L 244.358347 173.139528 
L 241.079008 172.371062 
L 237.799669 175.02913 
L 234.520331 173.640581 
L 231.240992 170.246227 
L 227.961653 170.457082 
L 224.682314 167.614193 
L 221.402975 166.279889 
L 218.123636 163.130255 
L 214.844298 163.882955 
L 211.564959 164.813941 
L 208.28562 158.776181 
L 205.006281 162.646926 
L 201.726942 164.054361 
L 198.447603 165.101912 
L 195.168264 160.063547 
L 191.888926 161.85765 
L 188.609587 157.99461 
L 185.330248 154.435497 
L 182.050909 151.211101 
L 178.77157 149.732604 
L 175.492231 151.897204 
L 172.212893 153.654669 
L 168.933554 149.653663 
L 165.654215 152.50227 
L 162.374876 148.164154 
L 159.095537 151.283312 
L 155.816198 150.901971 
L 152.53686 148.507849 
L 149.257521 144.284275 
L 145.978182 145.890267 
L 142.698843 151.009797 
L 139.419504 139.873189 
L 136.140165 142.907862 
L 132.860826 148.633833 
L 129.581488 142.767589 
L 126.302149 140.679968 
L 123.02281 144.131218 
L 119.743471 139.443203 
L 116.464132 141.430489 
L 113.184793 142.154342 
L 109.905455 136.914842 
L 106.626116 138.864986 
L 103.346777 140.181473 
L 100.067438 137.103912 
L 96.788099 138.589851 
L 93.50876 136.695117 
L 90.229421 136.260131 
L 86.950083 140.824967 
L 83.670744 135.738824 
L 80.391405 138.33488 
L 77.112066 141.96097 
L 73.832727 150.48547 
z
" style="fill:#1f77b4;fill-opacity:0.2;"/>
   </g>
   <g id="PolyCollection_2">
    <path clip-path="url(#p40da059e61)" d="M 73.832727 150.48547 
L 73.832727 150.48547 
L 77.112066 152.08766 
L 80.391405 156.169436 
L 83.670744 157.040942 
L 86.950083 165.920192 
L 90.229421 173.959433 
L 93.50876 184.962472 
L 96.788099 202.544076 
L 100.067438 208.785624 
L 103.346777 224.70109 
L 106.626116 224.985044 
L 109.905455 234.84955 
L 113.184793 240.568795 
L 116.464132 244.033178 
L 119.743471 262.86366 
L 123.02281 259.446389 
L 126.302149 264.043893 
L 129.581488 268.263536 
L 132.860826 272.998369 
L 136.140165 275.21723 
L 139.419504 276.868468 
L 142.698843 275.823078 
L 145.978182 277.542561 
L 149.257521 278.507481 
L 152.53686 277.930064 
L 155.816198 277.030658 
L 159.095537 277.784505 
L 162.374876 277.140648 
L 165.654215 276.827024 
L 168.933554 276.032975 
L 172.212893 276.472277 
L 175.492231 275.791685 
L 178.77157 275.619044 
L 182.050909 275.528122 
L 185.330248 275.689938 
L 188.609587 275.755312 
L 191.888926 275.528122 
L 195.168264 274.696575 
L 198.447603 274.696575 
L 201.726942 274.696575 
L 205.006281 274.696575 
L 208.28562 274.696575 
L 211.564959 274.696575 
L 214.844298 274.696575 
L 218.123636 274.696575 
L 221.402975 274.696575 
L 224.682314 274.696575 
L 227.961653 274.696575 
L 231.240992 274.696575 
L 234.520331 274.696575 
L 237.799669 274.696575 
L 241.079008 274.696575 
L 244.358347 274.696575 
L 247.637686 274.696575 
L 250.917025 274.696575 
L 254.196364 274.696575 
L 257.475702 274.696575 
L 260.755041 274.696575 
L 264.03438 274.696575 
L 267.313719 274.696575 
L 270.593058 274.696575 
L 273.872397 274.696575 
L 277.151736 274.696575 
L 280.431074 274.696575 
L 283.710413 274.696575 
L 286.989752 274.696575 
L 290.269091 274.696575 
L 293.54843 274.696575 
L 296.827769 274.696575 
L 300.107107 274.696575 
L 303.386446 274.696575 
L 306.665785 274.696575 
L 309.945124 274.696575 
L 313.224463 274.696575 
L 316.503802 274.696575 
L 319.78314 274.696575 
L 323.062479 274.696575 
L 326.341818 274.696575 
L 329.621157 274.696575 
L 332.900496 274.696575 
L 336.179835 274.696575 
L 339.459174 274.696575 
L 342.738512 274.696575 
L 346.017851 274.696575 
L 349.29719 274.696575 
L 352.576529 274.696575 
L 355.855868 274.696575 
L 359.135207 274.696575 
L 362.414545 274.696575 
L 365.693884 274.696575 
L 368.973223 274.696575 
L 372.252562 274.696575 
L 375.531901 274.696575 
L 378.81124 274.696575 
L 382.090579 274.696575 
L 385.369917 274.696575 
L 388.649256 274.696575 
L 391.928595 274.696575 
L 395.207934 274.696575 
L 398.487273 274.696575 
L 398.487273 274.696575 
L 398.487273 274.696575 
L 395.207934 274.696575 
L 391.928595 274.696575 
L 388.649256 274.696575 
L 385.369917 274.696575 
L 382.090579 274.696575 
L 378.81124 274.696575 
L 375.531901 274.696575 
L 372.252562 274.696575 
L 368.973223 274.696575 
L 365.693884 274.696575 
L 362.414545 274.696575 
L 359.135207 274.696575 
L 355.855868 274.696575 
L 352.576529 274.696575 
L 349.29719 274.696575 
L 346.017851 274.696575 
L 342.738512 274.696575 
L 339.459174 274.696575 
L 336.179835 274.696575 
L 332.900496 274.696575 
L 329.621157 274.696575 
L 326.341818 274.696575 
L 323.062479 274.696575 
L 319.78314 274.696575 
L 316.503802 274.696575 
L 313.224463 274.696575 
L 309.945124 274.696575 
L 306.665785 274.696575 
L 303.386446 274.696575 
L 300.107107 274.696575 
L 296.827769 274.696575 
L 293.54843 274.696575 
L 290.269091 274.696575 
L 286.989752 274.696575 
L 283.710413 274.696575 
L 280.431074 274.696575 
L 277.151736 274.696575 
L 273.872397 274.696575 
L 270.593058 274.696575 
L 267.313719 274.696575 
L 264.03438 274.696575 
L 260.755041 274.696575 
L 257.475702 274.696575 
L 254.196364 274.696575 
L 250.917025 274.696575 
L 247.637686 274.696575 
L 244.358347 274.696575 
L 241.079008 274.696575 
L 237.799669 274.696575 
L 234.520331 274.696575 
L 231.240992 274.696575 
L 227.961653 274.696575 
L 224.682314 274.696575 
L 221.402975 274.696575 
L 218.123636 274.696575 
L 214.844298 274.696575 
L 211.564959 274.696575 
L 208.28562 274.696575 
L 205.006281 274.696575 
L 201.726942 274.696575 
L 198.447603 274.696575 
L 195.168264 274.696575 
L 191.888926 273.510139 
L 188.609587 273.401245 
L 185.330248 273.11173 
L 182.050909 273.510139 
L 178.77157 273.30092 
L 175.492231 272.77339 
L 172.212893 270.909835 
L 168.933554 272.413804 
L 165.654215 270.555089 
L 162.374876 268.46702 
L 159.095537 264.037682 
L 155.816198 267.394047 
L 152.53686 264.247012 
L 149.257521 260.593891 
L 145.978182 257.181848 
L 142.698843 251.093777 
L 139.419504 250.521571 
L 136.140165 243.773773 
L 132.860826 240.432708 
L 129.581488 231.80006 
L 126.302149 222.179038 
L 123.02281 214.118838 
L 119.743471 211.766234 
L 116.464132 195.817607 
L 113.184793 185.55962 
L 109.905455 182.051754 
L 106.626116 177.484112 
L 103.346777 173.272807 
L 100.067438 160.323978 
L 96.788099 154.972491 
L 93.50876 149.249725 
L 90.229421 143.218098 
L 86.950083 140.965562 
L 83.670744 135.649257 
L 80.391405 135.456096 
L 77.112066 136.580465 
L 73.832727 150.48547 
z
" style="fill:#ff7f0e;fill-opacity:0.2;"/>
   </g>
   <g id="PolyCollection_3">
    <path clip-path="url(#p40da059e61)" d="M 73.832727 61.763243 
L 73.832727 61.763243 
L 77.112066 69.157508 
L 80.391405 71.740557 
L 83.670744 72.797608 
L 86.950083 74.337454 
L 90.229421 76.853663 
L 93.50876 81.218041 
L 96.788099 79.17527 
L 100.067438 80.893203 
L 103.346777 86.837053 
L 106.626116 85.086024 
L 109.905455 86.57647 
L 113.184793 90.852407 
L 116.464132 93.342669 
L 119.743471 95.940942 
L 123.02281 97.289984 
L 126.302149 96.959901 
L 129.581488 103.150079 
L 132.860826 101.40173 
L 136.140165 102.234263 
L 139.419504 107.104349 
L 142.698843 108.762728 
L 145.978182 108.595234 
L 149.257521 113.886784 
L 152.53686 117.392869 
L 155.816198 117.744535 
L 159.095537 117.231353 
L 162.374876 123.811443 
L 165.654215 119.086844 
L 168.933554 125.423777 
L 172.212893 123.628732 
L 175.492231 125.892528 
L 178.77157 128.886649 
L 182.050909 129.480035 
L 185.330248 133.69802 
L 188.609587 132.671657 
L 191.888926 131.750035 
L 195.168264 135.569878 
L 198.447603 141.656537 
L 201.726942 144.35196 
L 205.006281 142.224236 
L 208.28562 145.029516 
L 211.564959 142.823282 
L 214.844298 144.522645 
L 218.123636 149.928352 
L 221.402975 149.957188 
L 224.682314 157.707689 
L 227.961653 156.434598 
L 231.240992 166.449368 
L 234.520331 158.66743 
L 237.799669 159.583294 
L 241.079008 163.222643 
L 244.358347 168.343383 
L 247.637686 167.85605 
L 250.917025 164.691789 
L 254.196364 169.125774 
L 257.475702 162.974605 
L 260.755041 173.390149 
L 264.03438 177.234923 
L 267.313719 178.410151 
L 270.593058 179.720778 
L 273.872397 174.166805 
L 277.151736 177.603438 
L 280.431074 184.802862 
L 283.710413 194.942522 
L 286.989752 188.994659 
L 290.269091 192.539497 
L 293.54843 193.311271 
L 296.827769 196.394665 
L 300.107107 198.821028 
L 303.386446 202.566268 
L 306.665785 202.750645 
L 309.945124 199.572435 
L 313.224463 204.208374 
L 316.503802 207.922425 
L 319.78314 214.25953 
L 323.062479 212.872188 
L 326.341818 214.42503 
L 329.621157 224.658306 
L 332.900496 209.104605 
L 336.179835 216.786441 
L 339.459174 218.081263 
L 342.738512 221.441974 
L 346.017851 226.919659 
L 349.29719 232.374863 
L 352.576529 234.901061 
L 355.855868 228.133337 
L 359.135207 236.041311 
L 362.414545 242.553064 
L 365.693884 241.27685 
L 368.973223 248.321815 
L 372.252562 253.526573 
L 375.531901 247.491357 
L 378.81124 251.96444 
L 382.090579 257.086215 
L 385.369917 258.500332 
L 388.649256 272.044972 
L 391.928595 270.000595 
L 395.207934 288.009714 
L 398.487273 292.29543 
L 398.487273 228.233425 
L 398.487273 228.233425 
L 395.207934 227.550701 
L 391.928595 206.758638 
L 388.649256 220.920849 
L 385.369917 203.708455 
L 382.090579 204.767681 
L 378.81124 192.736496 
L 375.531901 187.745869 
L 372.252562 190.937768 
L 368.973223 189.044749 
L 365.693884 183.195418 
L 362.414545 183.93024 
L 359.135207 180.031922 
L 355.855868 174.57241 
L 352.576529 181.408763 
L 349.29719 174.116367 
L 346.017851 166.322387 
L 342.738512 170.143921 
L 339.459174 169.955745 
L 336.179835 164.744269 
L 332.900496 159.650107 
L 329.621157 158.646854 
L 326.341818 155.512644 
L 323.062479 156.000822 
L 319.78314 161.592961 
L 316.503802 157.638288 
L 313.224463 150.823969 
L 309.945124 145.877906 
L 306.665785 152.991477 
L 303.386446 146.432962 
L 300.107107 145.682945 
L 296.827769 147.162935 
L 293.54843 146.579147 
L 290.269091 134.693214 
L 286.989752 137.646574 
L 283.710413 136.430561 
L 280.431074 130.481929 
L 277.151736 126.561502 
L 273.872397 126.92243 
L 270.593058 128.93942 
L 267.313719 128.712191 
L 264.03438 128.94105 
L 260.755041 120.956195 
L 257.475702 112.917519 
L 254.196364 119.305759 
L 250.917025 119.835961 
L 247.637686 118.09126 
L 244.358347 117.603931 
L 241.079008 115.863482 
L 237.799669 109.920829 
L 234.520331 109.180547 
L 231.240992 113.701425 
L 227.961653 112.359747 
L 224.682314 106.473107 
L 221.402975 109.373459 
L 218.123636 98.992219 
L 214.844298 100.849042 
L 211.564959 99.117811 
L 208.28562 100.105577 
L 205.006281 95.931376 
L 201.726942 100.546539 
L 198.447603 97.327146 
L 195.168264 94.659884 
L 191.888926 90.553874 
L 188.609587 94.009213 
L 185.330248 94.165814 
L 182.050909 86.199278 
L 178.77157 88.330517 
L 175.492231 90.023384 
L 172.212893 87.437028 
L 168.933554 85.760282 
L 165.654215 80.740776 
L 162.374876 86.544542 
L 159.095537 79.165669 
L 155.816198 80.072041 
L 152.53686 78.412668 
L 149.257521 75.175867 
L 145.978182 73.487934 
L 142.698843 73.202147 
L 139.419504 73.559266 
L 136.140165 68.96565 
L 132.860826 70.271369 
L 129.581488 70.415761 
L 126.302149 69.981343 
L 123.02281 66.930445 
L 119.743471 66.386747 
L 116.464132 65.081241 
L 113.184793 62.839654 
L 109.905455 63.448406 
L 106.626116 59.970404 
L 103.346777 58.929155 
L 100.067438 56.473966 
L 96.788099 58.901678 
L 93.50876 57.923575 
L 90.229421 55.308465 
L 86.950083 56.405118 
L 83.670744 53.568 
L 80.391405 54.388459 
L 77.112066 55.078762 
L 73.832727 61.763243 
z
" style="fill:#2ca02c;fill-opacity:0.2;"/>
   </g>
   <g id="PolyCollection_4">
    <path clip-path="url(#p40da059e61)" d="M 73.832727 185.974357 
L 73.832727 185.974357 
L 77.112066 197.393825 
L 80.391405 195.565438 
L 83.670744 193.222611 
L 86.950083 193.726533 
L 90.229421 196.019168 
L 93.50876 195.937372 
L 96.788099 201.939131 
L 100.067438 195.290265 
L 103.346777 198.316176 
L 106.626116 203.242957 
L 109.905455 204.446947 
L 113.184793 207.705527 
L 116.464132 202.575681 
L 119.743471 201.087472 
L 123.02281 201.645728 
L 126.302149 208.310039 
L 129.581488 204.935415 
L 132.860826 211.002502 
L 136.140165 209.529805 
L 139.419504 214.835848 
L 142.698843 211.660627 
L 145.978182 216.146242 
L 149.257521 218.428058 
L 152.53686 216.55205 
L 155.816198 219.747878 
L 159.095537 213.326059 
L 162.374876 225.42032 
L 165.654215 216.405346 
L 168.933554 217.877778 
L 172.212893 222.68302 
L 175.492231 219.865881 
L 178.77157 223.79535 
L 182.050909 221.14012 
L 185.330248 221.497912 
L 188.609587 227.732603 
L 191.888926 225.554696 
L 195.168264 225.091883 
L 198.447603 227.778437 
L 201.726942 226.479414 
L 205.006281 229.880019 
L 208.28562 232.644578 
L 211.564959 226.561063 
L 214.844298 227.123853 
L 218.123636 225.973708 
L 221.402975 229.83601 
L 224.682314 232.186661 
L 227.961653 235.355264 
L 231.240992 233.748702 
L 234.520331 231.602066 
L 237.799669 233.618105 
L 241.079008 239.010855 
L 244.358347 239.964054 
L 247.637686 237.260084 
L 250.917025 243.957556 
L 254.196364 243.915694 
L 257.475702 239.578057 
L 260.755041 237.136344 
L 264.03438 235.96761 
L 267.313719 246.539884 
L 270.593058 241.891254 
L 273.872397 246.006168 
L 277.151736 242.227923 
L 280.431074 241.627621 
L 283.710413 253.127354 
L 286.989752 249.85027 
L 290.269091 251.050998 
L 293.54843 255.30947 
L 296.827769 252.648555 
L 300.107107 258.087185 
L 303.386446 252.989879 
L 306.665785 262.092995 
L 309.945124 249.415547 
L 313.224463 253.013695 
L 316.503802 259.014614 
L 319.78314 259.536094 
L 323.062479 261.15623 
L 326.341818 258.573521 
L 329.621157 266.852088 
L 332.900496 261.140851 
L 336.179835 267.982883 
L 339.459174 266.294484 
L 342.738512 263.202737 
L 346.017851 267.394586 
L 349.29719 266.835573 
L 352.576529 277.703234 
L 355.855868 272.524183 
L 359.135207 273.427617 
L 362.414545 277.668335 
L 365.693884 276.3995 
L 368.973223 280.705977 
L 372.252562 279.974138 
L 375.531901 279.552474 
L 378.81124 281.857018 
L 382.090579 283.035098 
L 385.369917 286.590791 
L 388.649256 286.135294 
L 391.928595 285.669838 
L 395.207934 295.488 
L 398.487273 295.315255 
L 398.487273 245.678858 
L 398.487273 245.678858 
L 395.207934 243.140187 
L 391.928595 231.783313 
L 388.649256 231.199561 
L 385.369917 230.625767 
L 382.090579 229.213016 
L 378.81124 223.175023 
L 375.531901 215.069493 
L 372.252562 222.691977 
L 368.973223 212.851324 
L 365.693884 212.780837 
L 362.414545 216.717039 
L 359.135207 218.591831 
L 355.855868 213.580452 
L 352.576529 213.724733 
L 349.29719 210.988321 
L 346.017851 206.643826 
L 342.738512 203.501305 
L 339.459174 204.431632 
L 336.179835 209.959307 
L 332.900496 207.692524 
L 329.621157 207.777806 
L 326.341818 199.021707 
L 323.062479 200.815961 
L 319.78314 199.596985 
L 316.503802 202.247799 
L 313.224463 203.990051 
L 309.945124 197.887904 
L 306.665785 194.555862 
L 303.386446 195.851424 
L 300.107107 197.378709 
L 296.827769 194.891489 
L 293.54843 201.339388 
L 290.269091 189.154675 
L 286.989752 196.743403 
L 283.710413 196.187133 
L 280.431074 186.511831 
L 277.151736 189.933603 
L 273.872397 189.940839 
L 270.593058 190.270271 
L 267.313719 185.385049 
L 264.03438 185.902138 
L 260.755041 185.798071 
L 257.475702 184.421024 
L 254.196364 180.556572 
L 250.917025 186.074636 
L 247.637686 179.286331 
L 244.358347 185.099694 
L 241.079008 179.664894 
L 237.799669 181.03557 
L 234.520331 179.147831 
L 231.240992 180.550083 
L 227.961653 182.847299 
L 224.682314 180.692569 
L 221.402975 179.257739 
L 218.123636 172.118486 
L 214.844298 176.291674 
L 211.564959 177.91913 
L 208.28562 174.201541 
L 205.006281 175.428248 
L 201.726942 173.505521 
L 198.447603 175.282201 
L 195.168264 171.580755 
L 191.888926 172.537498 
L 188.609587 166.810702 
L 185.330248 172.217319 
L 182.050909 170.445777 
L 178.77157 169.210103 
L 175.492231 171.720017 
L 172.212893 168.666286 
L 168.933554 165.309084 
L 165.654215 167.372996 
L 162.374876 172.198689 
L 159.095537 162.053247 
L 155.816198 169.353797 
L 152.53686 163.085922 
L 149.257521 159.672063 
L 145.978182 170.826101 
L 142.698843 169.160308 
L 139.419504 164.92042 
L 136.140165 162.182315 
L 132.860826 163.54873 
L 129.581488 163.109521 
L 126.302149 159.734897 
L 123.02281 156.817208 
L 119.743471 156.429094 
L 116.464132 155.295774 
L 113.184793 157.263706 
L 109.905455 155.672137 
L 106.626116 161.134794 
L 103.346777 156.479576 
L 100.067438 160.451857 
L 96.788099 160.427583 
L 93.50876 153.061861 
L 90.229421 159.604657 
L 86.950083 157.52033 
L 83.670744 157.314474 
L 80.391405 160.886461 
L 77.112066 165.800963 
L 73.832727 185.974357 
z
" style="fill:#d62728;fill-opacity:0.2;"/>
   </g>
   <g id="matplotlib.axis_1">
    <g id="xtick_1">
     <g id="line2d_1">
      <defs>
       <path d="M 0 0 
L 0 3.5 
" id="m03d061f154" style="stroke:#000000;stroke-width:0.8;"/>
      </defs>
      <g>
       <use style="stroke:#000000;stroke-width:0.8;" x="401.766612" xlink:href="#m03d061f154" y="307.584"/>
      </g>
     </g>
     <g id="text_1">
      <!-- 0 -->
      <g transform="translate(398.585362 322.182437)scale(0.1 -0.1)">
       <defs>
        <path d="M 31.78125 66.40625 
Q 24.171875 66.40625 20.328125 58.90625 
Q 16.5 51.421875 16.5 36.375 
Q 16.5 21.390625 20.328125 13.890625 
Q 24.171875 6.390625 31.78125 6.390625 
Q 39.453125 6.390625 43.28125 13.890625 
Q 47.125 21.390625 47.125 36.375 
Q 47.125 51.421875 43.28125 58.90625 
Q 39.453125 66.40625 31.78125 66.40625 
z
M 31.78125 74.21875 
Q 44.046875 74.21875 50.515625 64.515625 
Q 56.984375 54.828125 56.984375 36.375 
Q 56.984375 17.96875 50.515625 8.265625 
Q 44.046875 -1.421875 31.78125 -1.421875 
Q 19.53125 -1.421875 13.0625 8.265625 
Q 6.59375 17.96875 6.59375 36.375 
Q 6.59375 54.828125 13.0625 64.515625 
Q 19.53125 74.21875 31.78125 74.21875 
z
" id="DejaVuSans-48"/>
       </defs>
       <use xlink:href="#DejaVuSans-48"/>
      </g>
     </g>
    </g>
    <g id="xtick_2">
     <g id="line2d_2">
      <g>
       <use style="stroke:#000000;stroke-width:0.8;" x="336.179835" xlink:href="#m03d061f154" y="307.584"/>
      </g>
     </g>
     <g id="text_2">
      <!-- 20 -->
      <g transform="translate(329.817335 322.182437)scale(0.1 -0.1)">
       <defs>
        <path d="M 19.1875 8.296875 
L 53.609375 8.296875 
L 53.609375 0 
L 7.328125 0 
L 7.328125 8.296875 
Q 12.9375 14.109375 22.625 23.890625 
Q 32.328125 33.6875 34.8125 36.53125 
Q 39.546875 41.84375 41.421875 45.53125 
Q 43.3125 49.21875 43.3125 52.78125 
Q 43.3125 58.59375 39.234375 62.25 
Q 35.15625 65.921875 28.609375 65.921875 
Q 23.96875 65.921875 18.8125 64.3125 
Q 13.671875 62.703125 7.8125 59.421875 
L 7.8125 69.390625 
Q 13.765625 71.78125 18.9375 73 
Q 24.125 74.21875 28.421875 74.21875 
Q 39.75 74.21875 46.484375 68.546875 
Q 53.21875 62.890625 53.21875 53.421875 
Q 53.21875 48.921875 51.53125 44.890625 
Q 49.859375 40.875 45.40625 35.40625 
Q 44.1875 33.984375 37.640625 27.21875 
Q 31.109375 20.453125 19.1875 8.296875 
z
" id="DejaVuSans-50"/>
       </defs>
       <use xlink:href="#DejaVuSans-50"/>
       <use x="63.623047" xlink:href="#DejaVuSans-48"/>
      </g>
     </g>
    </g>
    <g id="xtick_3">
     <g id="line2d_3">
      <g>
       <use style="stroke:#000000;stroke-width:0.8;" x="270.593058" xlink:href="#m03d061f154" y="307.584"/>
      </g>
     </g>
     <g id="text_3">
      <!-- 40 -->
      <g transform="translate(264.230558 322.182437)scale(0.1 -0.1)">
       <defs>
        <path d="M 37.796875 64.3125 
L 12.890625 25.390625 
L 37.796875 25.390625 
z
M 35.203125 72.90625 
L 47.609375 72.90625 
L 47.609375 25.390625 
L 58.015625 25.390625 
L 58.015625 17.1875 
L 47.609375 17.1875 
L 47.609375 0 
L 37.796875 0 
L 37.796875 17.1875 
L 4.890625 17.1875 
L 4.890625 26.703125 
z
" id="DejaVuSans-52"/>
       </defs>
       <use xlink:href="#DejaVuSans-52"/>
       <use x="63.623047" xlink:href="#DejaVuSans-48"/>
      </g>
     </g>
    </g>
    <g id="xtick_4">
     <g id="line2d_4">
      <g>
       <use style="stroke:#000000;stroke-width:0.8;" x="205.006281" xlink:href="#m03d061f154" y="307.584"/>
      </g>
     </g>
     <g id="text_4">
      <!-- 60 -->
      <g transform="translate(198.643781 322.182437)scale(0.1 -0.1)">
       <defs>
        <path d="M 33.015625 40.375 
Q 26.375 40.375 22.484375 35.828125 
Q 18.609375 31.296875 18.609375 23.390625 
Q 18.609375 15.53125 22.484375 10.953125 
Q 26.375 6.390625 33.015625 6.390625 
Q 39.65625 6.390625 43.53125 10.953125 
Q 47.40625 15.53125 47.40625 23.390625 
Q 47.40625 31.296875 43.53125 35.828125 
Q 39.65625 40.375 33.015625 40.375 
z
M 52.59375 71.296875 
L 52.59375 62.3125 
Q 48.875 64.0625 45.09375 64.984375 
Q 41.3125 65.921875 37.59375 65.921875 
Q 27.828125 65.921875 22.671875 59.328125 
Q 17.53125 52.734375 16.796875 39.40625 
Q 19.671875 43.65625 24.015625 45.921875 
Q 28.375 48.1875 33.59375 48.1875 
Q 44.578125 48.1875 50.953125 41.515625 
Q 57.328125 34.859375 57.328125 23.390625 
Q 57.328125 12.15625 50.6875 5.359375 
Q 44.046875 -1.421875 33.015625 -1.421875 
Q 20.359375 -1.421875 13.671875 8.265625 
Q 6.984375 17.96875 6.984375 36.375 
Q 6.984375 53.65625 15.1875 63.9375 
Q 23.390625 74.21875 37.203125 74.21875 
Q 40.921875 74.21875 44.703125 73.484375 
Q 48.484375 72.75 52.59375 71.296875 
z
" id="DejaVuSans-54"/>
       </defs>
       <use xlink:href="#DejaVuSans-54"/>
       <use x="63.623047" xlink:href="#DejaVuSans-48"/>
      </g>
     </g>
    </g>
    <g id="xtick_5">
     <g id="line2d_5">
      <g>
       <use style="stroke:#000000;stroke-width:0.8;" x="139.419504" xlink:href="#m03d061f154" y="307.584"/>
      </g>
     </g>
     <g id="text_5">
      <!-- 80 -->
      <g transform="translate(133.057004 322.182437)scale(0.1 -0.1)">
       <defs>
        <path d="M 31.78125 34.625 
Q 24.75 34.625 20.71875 30.859375 
Q 16.703125 27.09375 16.703125 20.515625 
Q 16.703125 13.921875 20.71875 10.15625 
Q 24.75 6.390625 31.78125 6.390625 
Q 38.8125 6.390625 42.859375 10.171875 
Q 46.921875 13.96875 46.921875 20.515625 
Q 46.921875 27.09375 42.890625 30.859375 
Q 38.875 34.625 31.78125 34.625 
z
M 21.921875 38.8125 
Q 15.578125 40.375 12.03125 44.71875 
Q 8.5 49.078125 8.5 55.328125 
Q 8.5 64.0625 14.71875 69.140625 
Q 20.953125 74.21875 31.78125 74.21875 
Q 42.671875 74.21875 48.875 69.140625 
Q 55.078125 64.0625 55.078125 55.328125 
Q 55.078125 49.078125 51.53125 44.71875 
Q 48 40.375 41.703125 38.8125 
Q 48.828125 37.15625 52.796875 32.3125 
Q 56.78125 27.484375 56.78125 20.515625 
Q 56.78125 9.90625 50.3125 4.234375 
Q 43.84375 -1.421875 31.78125 -1.421875 
Q 19.734375 -1.421875 13.25 4.234375 
Q 6.78125 9.90625 6.78125 20.515625 
Q 6.78125 27.484375 10.78125 32.3125 
Q 14.796875 37.15625 21.921875 38.8125 
z
M 18.3125 54.390625 
Q 18.3125 48.734375 21.84375 45.5625 
Q 25.390625 42.390625 31.78125 42.390625 
Q 38.140625 42.390625 41.71875 45.5625 
Q 45.3125 48.734375 45.3125 54.390625 
Q 45.3125 60.0625 41.71875 63.234375 
Q 38.140625 66.40625 31.78125 66.40625 
Q 25.390625 66.40625 21.84375 63.234375 
Q 18.3125 60.0625 18.3125 54.390625 
z
" id="DejaVuSans-56"/>
       </defs>
       <use xlink:href="#DejaVuSans-56"/>
       <use x="63.623047" xlink:href="#DejaVuSans-48"/>
      </g>
     </g>
    </g>
    <g id="xtick_6">
     <g id="line2d_6">
      <g>
       <use style="stroke:#000000;stroke-width:0.8;" x="73.832727" xlink:href="#m03d061f154" y="307.584"/>
      </g>
     </g>
     <g id="text_6">
      <!-- 100 -->
      <g transform="translate(64.288977 322.182437)scale(0.1 -0.1)">
       <defs>
        <path d="M 12.40625 8.296875 
L 28.515625 8.296875 
L 28.515625 63.921875 
L 10.984375 60.40625 
L 10.984375 69.390625 
L 28.421875 72.90625 
L 38.28125 72.90625 
L 38.28125 8.296875 
L 54.390625 8.296875 
L 54.390625 0 
L 12.40625 0 
z
" id="DejaVuSans-49"/>
       </defs>
       <use xlink:href="#DejaVuSans-49"/>
       <use x="63.623047" xlink:href="#DejaVuSans-48"/>
       <use x="127.246094" xlink:href="#DejaVuSans-48"/>
      </g>
     </g>
    </g>
    <g id="text_7">
     <!-- Number of features -->
     <g transform="translate(187.4225 335.860562)scale(0.1 -0.1)">
      <defs>
       <path d="M 9.8125 72.90625 
L 23.09375 72.90625 
L 55.421875 11.921875 
L 55.421875 72.90625 
L 64.984375 72.90625 
L 64.984375 0 
L 51.703125 0 
L 19.390625 60.984375 
L 19.390625 0 
L 9.8125 0 
z
" id="DejaVuSans-78"/>
       <path d="M 8.5 21.578125 
L 8.5 54.6875 
L 17.484375 54.6875 
L 17.484375 21.921875 
Q 17.484375 14.15625 20.5 10.265625 
Q 23.53125 6.390625 29.59375 6.390625 
Q 36.859375 6.390625 41.078125 11.03125 
Q 45.3125 15.671875 45.3125 23.6875 
L 45.3125 54.6875 
L 54.296875 54.6875 
L 54.296875 0 
L 45.3125 0 
L 45.3125 8.40625 
Q 42.046875 3.421875 37.71875 1 
Q 33.40625 -1.421875 27.6875 -1.421875 
Q 18.265625 -1.421875 13.375 4.4375 
Q 8.5 10.296875 8.5 21.578125 
z
M 31.109375 56 
z
" id="DejaVuSans-117"/>
       <path d="M 52 44.1875 
Q 55.375 50.25 60.0625 53.125 
Q 64.75 56 71.09375 56 
Q 79.640625 56 84.28125 50.015625 
Q 88.921875 44.046875 88.921875 33.015625 
L 88.921875 0 
L 79.890625 0 
L 79.890625 32.71875 
Q 79.890625 40.578125 77.09375 44.375 
Q 74.3125 48.1875 68.609375 48.1875 
Q 61.625 48.1875 57.5625 43.546875 
Q 53.515625 38.921875 53.515625 30.90625 
L 53.515625 0 
L 44.484375 0 
L 44.484375 32.71875 
Q 44.484375 40.625 41.703125 44.40625 
Q 38.921875 48.1875 33.109375 48.1875 
Q 26.21875 48.1875 22.15625 43.53125 
Q 18.109375 38.875 18.109375 30.90625 
L 18.109375 0 
L 9.078125 0 
L 9.078125 54.6875 
L 18.109375 54.6875 
L 18.109375 46.1875 
Q 21.1875 51.21875 25.484375 53.609375 
Q 29.78125 56 35.6875 56 
Q 41.65625 56 45.828125 52.96875 
Q 50 49.953125 52 44.1875 
z
" id="DejaVuSans-109"/>
       <path d="M 48.6875 27.296875 
Q 48.6875 37.203125 44.609375 42.84375 
Q 40.53125 48.484375 33.40625 48.484375 
Q 26.265625 48.484375 22.1875 42.84375 
Q 18.109375 37.203125 18.109375 27.296875 
Q 18.109375 17.390625 22.1875 11.75 
Q 26.265625 6.109375 33.40625 6.109375 
Q 40.53125 6.109375 44.609375 11.75 
Q 48.6875 17.390625 48.6875 27.296875 
z
M 18.109375 46.390625 
Q 20.953125 51.265625 25.265625 53.625 
Q 29.59375 56 35.59375 56 
Q 45.5625 56 51.78125 48.09375 
Q 58.015625 40.1875 58.015625 27.296875 
Q 58.015625 14.40625 51.78125 6.484375 
Q 45.5625 -1.421875 35.59375 -1.421875 
Q 29.59375 -1.421875 25.265625 0.953125 
Q 20.953125 3.328125 18.109375 8.203125 
L 18.109375 0 
L 9.078125 0 
L 9.078125 75.984375 
L 18.109375 75.984375 
z
" id="DejaVuSans-98"/>
       <path d="M 56.203125 29.59375 
L 56.203125 25.203125 
L 14.890625 25.203125 
Q 15.484375 15.921875 20.484375 11.0625 
Q 25.484375 6.203125 34.421875 6.203125 
Q 39.59375 6.203125 44.453125 7.46875 
Q 49.3125 8.734375 54.109375 11.28125 
L 54.109375 2.78125 
Q 49.265625 0.734375 44.1875 -0.34375 
Q 39.109375 -1.421875 33.890625 -1.421875 
Q 20.796875 -1.421875 13.15625 6.1875 
Q 5.515625 13.8125 5.515625 26.8125 
Q 5.515625 40.234375 12.765625 48.109375 
Q 20.015625 56 32.328125 56 
Q 43.359375 56 49.78125 48.890625 
Q 56.203125 41.796875 56.203125 29.59375 
z
M 47.21875 32.234375 
Q 47.125 39.59375 43.09375 43.984375 
Q 39.0625 48.390625 32.421875 48.390625 
Q 24.90625 48.390625 20.390625 44.140625 
Q 15.875 39.890625 15.1875 32.171875 
z
" id="DejaVuSans-101"/>
       <path d="M 41.109375 46.296875 
Q 39.59375 47.171875 37.8125 47.578125 
Q 36.03125 48 33.890625 48 
Q 26.265625 48 22.1875 43.046875 
Q 18.109375 38.09375 18.109375 28.8125 
L 18.109375 0 
L 9.078125 0 
L 9.078125 54.6875 
L 18.109375 54.6875 
L 18.109375 46.1875 
Q 20.953125 51.171875 25.484375 53.578125 
Q 30.03125 56 36.53125 56 
Q 37.453125 56 38.578125 55.875 
Q 39.703125 55.765625 41.0625 55.515625 
z
" id="DejaVuSans-114"/>
       <path id="DejaVuSans-32"/>
       <path d="M 30.609375 48.390625 
Q 23.390625 48.390625 19.1875 42.75 
Q 14.984375 37.109375 14.984375 27.296875 
Q 14.984375 17.484375 19.15625 11.84375 
Q 23.34375 6.203125 30.609375 6.203125 
Q 37.796875 6.203125 41.984375 11.859375 
Q 46.1875 17.53125 46.1875 27.296875 
Q 46.1875 37.015625 41.984375 42.703125 
Q 37.796875 48.390625 30.609375 48.390625 
z
M 30.609375 56 
Q 42.328125 56 49.015625 48.375 
Q 55.71875 40.765625 55.71875 27.296875 
Q 55.71875 13.875 49.015625 6.21875 
Q 42.328125 -1.421875 30.609375 -1.421875 
Q 18.84375 -1.421875 12.171875 6.21875 
Q 5.515625 13.875 5.515625 27.296875 
Q 5.515625 40.765625 12.171875 48.375 
Q 18.84375 56 30.609375 56 
z
" id="DejaVuSans-111"/>
       <path d="M 37.109375 75.984375 
L 37.109375 68.5 
L 28.515625 68.5 
Q 23.6875 68.5 21.796875 66.546875 
Q 19.921875 64.59375 19.921875 59.515625 
L 19.921875 54.6875 
L 34.71875 54.6875 
L 34.71875 47.703125 
L 19.921875 47.703125 
L 19.921875 0 
L 10.890625 0 
L 10.890625 47.703125 
L 2.296875 47.703125 
L 2.296875 54.6875 
L 10.890625 54.6875 
L 10.890625 58.5 
Q 10.890625 67.625 15.140625 71.796875 
Q 19.390625 75.984375 28.609375 75.984375 
z
" id="DejaVuSans-102"/>
       <path d="M 34.28125 27.484375 
Q 23.390625 27.484375 19.1875 25 
Q 14.984375 22.515625 14.984375 16.5 
Q 14.984375 11.71875 18.140625 8.90625 
Q 21.296875 6.109375 26.703125 6.109375 
Q 34.1875 6.109375 38.703125 11.40625 
Q 43.21875 16.703125 43.21875 25.484375 
L 43.21875 27.484375 
z
M 52.203125 31.203125 
L 52.203125 0 
L 43.21875 0 
L 43.21875 8.296875 
Q 40.140625 3.328125 35.546875 0.953125 
Q 30.953125 -1.421875 24.3125 -1.421875 
Q 15.921875 -1.421875 10.953125 3.296875 
Q 6 8.015625 6 15.921875 
Q 6 25.140625 12.171875 29.828125 
Q 18.359375 34.515625 30.609375 34.515625 
L 43.21875 34.515625 
L 43.21875 35.40625 
Q 43.21875 41.609375 39.140625 45 
Q 35.0625 48.390625 27.6875 48.390625 
Q 23 48.390625 18.546875 47.265625 
Q 14.109375 46.140625 10.015625 43.890625 
L 10.015625 52.203125 
Q 14.9375 54.109375 19.578125 55.046875 
Q 24.21875 56 28.609375 56 
Q 40.484375 56 46.34375 49.84375 
Q 52.203125 43.703125 52.203125 31.203125 
z
" id="DejaVuSans-97"/>
       <path d="M 18.3125 70.21875 
L 18.3125 54.6875 
L 36.8125 54.6875 
L 36.8125 47.703125 
L 18.3125 47.703125 
L 18.3125 18.015625 
Q 18.3125 11.328125 20.140625 9.421875 
Q 21.96875 7.515625 27.59375 7.515625 
L 36.8125 7.515625 
L 36.8125 0 
L 27.59375 0 
Q 17.1875 0 13.234375 3.875 
Q 9.28125 7.765625 9.28125 18.015625 
L 9.28125 47.703125 
L 2.6875 47.703125 
L 2.6875 54.6875 
L 9.28125 54.6875 
L 9.28125 70.21875 
z
" id="DejaVuSans-116"/>
       <path d="M 44.28125 53.078125 
L 44.28125 44.578125 
Q 40.484375 46.53125 36.375 47.5 
Q 32.28125 48.484375 27.875 48.484375 
Q 21.1875 48.484375 17.84375 46.4375 
Q 14.5 44.390625 14.5 40.28125 
Q 14.5 37.15625 16.890625 35.375 
Q 19.28125 33.59375 26.515625 31.984375 
L 29.59375 31.296875 
Q 39.15625 29.25 43.1875 25.515625 
Q 47.21875 21.78125 47.21875 15.09375 
Q 47.21875 7.46875 41.1875 3.015625 
Q 35.15625 -1.421875 24.609375 -1.421875 
Q 20.21875 -1.421875 15.453125 -0.5625 
Q 10.6875 0.296875 5.421875 2 
L 5.421875 11.28125 
Q 10.40625 8.6875 15.234375 7.390625 
Q 20.0625 6.109375 24.8125 6.109375 
Q 31.15625 6.109375 34.5625 8.28125 
Q 37.984375 10.453125 37.984375 14.40625 
Q 37.984375 18.0625 35.515625 20.015625 
Q 33.0625 21.96875 24.703125 23.78125 
L 21.578125 24.515625 
Q 13.234375 26.265625 9.515625 29.90625 
Q 5.8125 33.546875 5.8125 39.890625 
Q 5.8125 47.609375 11.28125 51.796875 
Q 16.75 56 26.8125 56 
Q 31.78125 56 36.171875 55.265625 
Q 40.578125 54.546875 44.28125 53.078125 
z
" id="DejaVuSans-115"/>
      </defs>
      <use xlink:href="#DejaVuSans-78"/>
      <use x="74.804688" xlink:href="#DejaVuSans-117"/>
      <use x="138.183594" xlink:href="#DejaVuSans-109"/>
      <use x="235.595703" xlink:href="#DejaVuSans-98"/>
      <use x="299.072266" xlink:href="#DejaVuSans-101"/>
      <use x="360.595703" xlink:href="#DejaVuSans-114"/>
      <use x="401.708984" xlink:href="#DejaVuSans-32"/>
      <use x="433.496094" xlink:href="#DejaVuSans-111"/>
      <use x="494.677734" xlink:href="#DejaVuSans-102"/>
      <use x="529.882812" xlink:href="#DejaVuSans-32"/>
      <use x="561.669922" xlink:href="#DejaVuSans-102"/>
      <use x="596.875" xlink:href="#DejaVuSans-101"/>
      <use x="658.398438" xlink:href="#DejaVuSans-97"/>
      <use x="719.677734" xlink:href="#DejaVuSans-116"/>
      <use x="758.886719" xlink:href="#DejaVuSans-117"/>
      <use x="822.265625" xlink:href="#DejaVuSans-114"/>
      <use x="861.128906" xlink:href="#DejaVuSans-101"/>
      <use x="922.652344" xlink:href="#DejaVuSans-115"/>
     </g>
    </g>
   </g>
   <g id="matplotlib.axis_2">
    <g id="ytick_1">
     <g id="line2d_7">
      <defs>
       <path d="M 0 0 
L -3.5 0 
" id="mad69eea2fa" style="stroke:#000000;stroke-width:0.8;"/>
      </defs>
      <g>
       <use style="stroke:#000000;stroke-width:0.8;" x="57.6" xlink:href="#mad69eea2fa" y="304.270647"/>
      </g>
     </g>
     <g id="text_8">
      <!-- 0.45 -->
      <g transform="translate(28.334375 308.069866)scale(0.1 -0.1)">
       <defs>
        <path d="M 10.6875 12.40625 
L 21 12.40625 
L 21 0 
L 10.6875 0 
z
" id="DejaVuSans-46"/>
        <path d="M 10.796875 72.90625 
L 49.515625 72.90625 
L 49.515625 64.59375 
L 19.828125 64.59375 
L 19.828125 46.734375 
Q 21.96875 47.46875 24.109375 47.828125 
Q 26.265625 48.1875 28.421875 48.1875 
Q 40.625 48.1875 47.75 41.5 
Q 54.890625 34.8125 54.890625 23.390625 
Q 54.890625 11.625 47.5625 5.09375 
Q 40.234375 -1.421875 26.90625 -1.421875 
Q 22.3125 -1.421875 17.546875 -0.640625 
Q 12.796875 0.140625 7.71875 1.703125 
L 7.71875 11.625 
Q 12.109375 9.234375 16.796875 8.0625 
Q 21.484375 6.890625 26.703125 6.890625 
Q 35.15625 6.890625 40.078125 11.328125 
Q 45.015625 15.765625 45.015625 23.390625 
Q 45.015625 31 40.078125 35.4375 
Q 35.15625 39.890625 26.703125 39.890625 
Q 22.75 39.890625 18.8125 39.015625 
Q 14.890625 38.140625 10.796875 36.28125 
z
" id="DejaVuSans-53"/>
       </defs>
       <use xlink:href="#DejaVuSans-48"/>
       <use x="63.623047" xlink:href="#DejaVuSans-46"/>
       <use x="95.410156" xlink:href="#DejaVuSans-52"/>
       <use x="159.033203" xlink:href="#DejaVuSans-53"/>
      </g>
     </g>
    </g>
    <g id="ytick_2">
     <g id="line2d_8">
      <g>
       <use style="stroke:#000000;stroke-width:0.8;" x="57.6" xlink:href="#mad69eea2fa" y="274.696575"/>
      </g>
     </g>
     <g id="text_9">
      <!-- 0.50 -->
      <g transform="translate(28.334375 278.495794)scale(0.1 -0.1)">
       <use xlink:href="#DejaVuSans-48"/>
       <use x="63.623047" xlink:href="#DejaVuSans-46"/>
       <use x="95.410156" xlink:href="#DejaVuSans-53"/>
       <use x="159.033203" xlink:href="#DejaVuSans-48"/>
      </g>
     </g>
    </g>
    <g id="ytick_3">
     <g id="line2d_9">
      <g>
       <use style="stroke:#000000;stroke-width:0.8;" x="57.6" xlink:href="#mad69eea2fa" y="245.122502"/>
      </g>
     </g>
     <g id="text_10">
      <!-- 0.55 -->
      <g transform="translate(28.334375 248.921721)scale(0.1 -0.1)">
       <use xlink:href="#DejaVuSans-48"/>
       <use x="63.623047" xlink:href="#DejaVuSans-46"/>
       <use x="95.410156" xlink:href="#DejaVuSans-53"/>
       <use x="159.033203" xlink:href="#DejaVuSans-53"/>
      </g>
     </g>
    </g>
    <g id="ytick_4">
     <g id="line2d_10">
      <g>
       <use style="stroke:#000000;stroke-width:0.8;" x="57.6" xlink:href="#mad69eea2fa" y="215.548429"/>
      </g>
     </g>
     <g id="text_11">
      <!-- 0.60 -->
      <g transform="translate(28.334375 219.347648)scale(0.1 -0.1)">
       <use xlink:href="#DejaVuSans-48"/>
       <use x="63.623047" xlink:href="#DejaVuSans-46"/>
       <use x="95.410156" xlink:href="#DejaVuSans-54"/>
       <use x="159.033203" xlink:href="#DejaVuSans-48"/>
      </g>
     </g>
    </g>
    <g id="ytick_5">
     <g id="line2d_11">
      <g>
       <use style="stroke:#000000;stroke-width:0.8;" x="57.6" xlink:href="#mad69eea2fa" y="185.974357"/>
      </g>
     </g>
     <g id="text_12">
      <!-- 0.65 -->
      <g transform="translate(28.334375 189.773576)scale(0.1 -0.1)">
       <use xlink:href="#DejaVuSans-48"/>
       <use x="63.623047" xlink:href="#DejaVuSans-46"/>
       <use x="95.410156" xlink:href="#DejaVuSans-54"/>
       <use x="159.033203" xlink:href="#DejaVuSans-53"/>
      </g>
     </g>
    </g>
    <g id="ytick_6">
     <g id="line2d_12">
      <g>
       <use style="stroke:#000000;stroke-width:0.8;" x="57.6" xlink:href="#mad69eea2fa" y="156.400284"/>
      </g>
     </g>
     <g id="text_13">
      <!-- 0.70 -->
      <g transform="translate(28.334375 160.199503)scale(0.1 -0.1)">
       <defs>
        <path d="M 8.203125 72.90625 
L 55.078125 72.90625 
L 55.078125 68.703125 
L 28.609375 0 
L 18.3125 0 
L 43.21875 64.59375 
L 8.203125 64.59375 
z
" id="DejaVuSans-55"/>
       </defs>
       <use xlink:href="#DejaVuSans-48"/>
       <use x="63.623047" xlink:href="#DejaVuSans-46"/>
       <use x="95.410156" xlink:href="#DejaVuSans-55"/>
       <use x="159.033203" xlink:href="#DejaVuSans-48"/>
      </g>
     </g>
    </g>
    <g id="ytick_7">
     <g id="line2d_13">
      <g>
       <use style="stroke:#000000;stroke-width:0.8;" x="57.6" xlink:href="#mad69eea2fa" y="126.826211"/>
      </g>
     </g>
     <g id="text_14">
      <!-- 0.75 -->
      <g transform="translate(28.334375 130.62543)scale(0.1 -0.1)">
       <use xlink:href="#DejaVuSans-48"/>
       <use x="63.623047" xlink:href="#DejaVuSans-46"/>
       <use x="95.410156" xlink:href="#DejaVuSans-55"/>
       <use x="159.033203" xlink:href="#DejaVuSans-53"/>
      </g>
     </g>
    </g>
    <g id="ytick_8">
     <g id="line2d_14">
      <g>
       <use style="stroke:#000000;stroke-width:0.8;" x="57.6" xlink:href="#mad69eea2fa" y="97.252139"/>
      </g>
     </g>
     <g id="text_15">
      <!-- 0.80 -->
      <g transform="translate(28.334375 101.051358)scale(0.1 -0.1)">
       <use xlink:href="#DejaVuSans-48"/>
       <use x="63.623047" xlink:href="#DejaVuSans-46"/>
       <use x="95.410156" xlink:href="#DejaVuSans-56"/>
       <use x="159.033203" xlink:href="#DejaVuSans-48"/>
      </g>
     </g>
    </g>
    <g id="ytick_9">
     <g id="line2d_15">
      <g>
       <use style="stroke:#000000;stroke-width:0.8;" x="57.6" xlink:href="#mad69eea2fa" y="67.678066"/>
      </g>
     </g>
     <g id="text_16">
      <!-- 0.85 -->
      <g transform="translate(28.334375 71.477285)scale(0.1 -0.1)">
       <use xlink:href="#DejaVuSans-48"/>
       <use x="63.623047" xlink:href="#DejaVuSans-46"/>
       <use x="95.410156" xlink:href="#DejaVuSans-56"/>
       <use x="159.033203" xlink:href="#DejaVuSans-53"/>
      </g>
     </g>
    </g>
    <g id="text_17">
     <!-- Accuracy -->
     <g transform="translate(22.254687 197.356125)rotate(-90)scale(0.1 -0.1)">
      <defs>
       <path d="M 34.1875 63.1875 
L 20.796875 26.90625 
L 47.609375 26.90625 
z
M 28.609375 72.90625 
L 39.796875 72.90625 
L 67.578125 0 
L 57.328125 0 
L 50.6875 18.703125 
L 17.828125 18.703125 
L 11.1875 0 
L 0.78125 0 
z
" id="DejaVuSans-65"/>
       <path d="M 48.78125 52.59375 
L 48.78125 44.1875 
Q 44.96875 46.296875 41.140625 47.34375 
Q 37.3125 48.390625 33.40625 48.390625 
Q 24.65625 48.390625 19.8125 42.84375 
Q 14.984375 37.3125 14.984375 27.296875 
Q 14.984375 17.28125 19.8125 11.734375 
Q 24.65625 6.203125 33.40625 6.203125 
Q 37.3125 6.203125 41.140625 7.25 
Q 44.96875 8.296875 48.78125 10.40625 
L 48.78125 2.09375 
Q 45.015625 0.34375 40.984375 -0.53125 
Q 36.96875 -1.421875 32.421875 -1.421875 
Q 20.0625 -1.421875 12.78125 6.34375 
Q 5.515625 14.109375 5.515625 27.296875 
Q 5.515625 40.671875 12.859375 48.328125 
Q 20.21875 56 33.015625 56 
Q 37.15625 56 41.109375 55.140625 
Q 45.0625 54.296875 48.78125 52.59375 
z
" id="DejaVuSans-99"/>
       <path d="M 32.171875 -5.078125 
Q 28.375 -14.84375 24.75 -17.8125 
Q 21.140625 -20.796875 15.09375 -20.796875 
L 7.90625 -20.796875 
L 7.90625 -13.28125 
L 13.1875 -13.28125 
Q 16.890625 -13.28125 18.9375 -11.515625 
Q 21 -9.765625 23.484375 -3.21875 
L 25.09375 0.875 
L 2.984375 54.6875 
L 12.5 54.6875 
L 29.59375 11.921875 
L 46.6875 54.6875 
L 56.203125 54.6875 
z
" id="DejaVuSans-121"/>
      </defs>
      <use xlink:href="#DejaVuSans-65"/>
      <use x="66.658203" xlink:href="#DejaVuSans-99"/>
      <use x="121.638672" xlink:href="#DejaVuSans-99"/>
      <use x="176.619141" xlink:href="#DejaVuSans-117"/>
      <use x="239.998047" xlink:href="#DejaVuSans-114"/>
      <use x="281.111328" xlink:href="#DejaVuSans-97"/>
      <use x="342.390625" xlink:href="#DejaVuSans-99"/>
      <use x="397.371094" xlink:href="#DejaVuSans-121"/>
     </g>
    </g>
   </g>
   <g id="line2d_16">
    <path clip-path="url(#p40da059e61)" d="M 73.832727 150.48547 
L 77.112066 149.775692 
L 80.391405 150.48547 
L 83.670744 148.711025 
L 86.950083 152.673951 
L 90.229421 150.840358 
L 93.50876 151.550136 
L 96.788099 153.679469 
L 100.067438 154.507543 
L 103.346777 157.938136 
L 106.626116 156.341136 
L 109.905455 155.099025 
L 113.184793 159.121099 
L 116.464132 159.535136 
L 119.743471 158.884506 
L 123.02281 162.255951 
L 126.302149 160.718099 
L 129.581488 163.438913 
L 132.860826 167.934172 
L 136.140165 163.971247 
L 139.419504 162.137654 
L 142.698843 167.401839 
L 145.978182 166.278024 
L 149.257521 167.638432 
L 152.53686 171.83795 
L 155.816198 171.483061 
L 159.095537 174.558765 
L 162.374876 169.708617 
L 165.654215 175.564283 
L 168.933554 174.026431 
L 172.212893 174.263024 
L 175.492231 177.397876 
L 178.77157 172.48858 
L 182.050909 175.919172 
L 185.330248 180.887616 
L 188.609587 180.887616 
L 191.888926 184.081616 
L 195.168264 182.36632 
L 198.447603 186.802431 
L 201.726942 188.931764 
L 205.006281 187.689653 
L 208.28562 185.087135 
L 211.564959 190.410468 
L 214.844298 189.286653 
L 218.123636 187.512209 
L 221.402975 193.486171 
L 224.682314 194.905727 
L 227.961653 195.260616 
L 231.240992 195.43806 
L 234.520331 197.271653 
L 237.799669 201.707763 
L 241.079008 199.341838 
L 244.358347 200.583949 
L 247.637686 202.1218 
L 250.917025 204.842615 
L 254.196364 201.471171 
L 257.475702 199.400986 
L 260.755041 207.090245 
L 264.03438 208.568948 
L 267.313719 208.805541 
L 270.593058 215.252689 
L 273.872397 215.785022 
L 277.151736 211.940393 
L 280.431074 217.914355 
L 283.710413 218.801577 
L 286.989752 214.188022 
L 290.269091 216.672244 
L 293.54843 227.31891 
L 296.827769 227.437207 
L 300.107107 229.56654 
L 303.386446 230.51291 
L 306.665785 229.093355 
L 309.945124 229.093355 
L 313.224463 236.605169 
L 316.503802 236.309428 
L 319.78314 236.960058 
L 323.062479 238.379614 
L 326.341818 238.971095 
L 329.621157 244.23528 
L 332.900496 237.669836 
L 336.179835 244.057836 
L 339.459174 246.601206 
L 342.738512 246.246317 
L 346.017851 249.32202 
L 349.29719 246.364613 
L 352.576529 252.279428 
L 355.855868 255.355131 
L 359.135207 256.478946 
L 362.414545 257.95765 
L 365.693884 260.323575 
L 368.973223 259.199761 
L 372.252562 263.635872 
L 375.531901 265.646909 
L 378.81124 264.759686 
L 382.090579 272.153205 
L 385.369917 271.147686 
L 388.649256 274.341686 
L 391.928595 274.164241 
L 395.207934 274.341686 
L 398.487273 274.045945 
" style="fill:none;stroke:#1f77b4;stroke-linecap:square;stroke-width:1.5;"/>
   </g>
   <g id="line2d_17">
    <path clip-path="url(#p40da059e61)" d="M 73.832727 150.48547 
L 77.112066 144.334062 
L 80.391405 145.812766 
L 83.670744 146.345099 
L 86.950083 153.442877 
L 90.229421 158.588765 
L 93.50876 167.106098 
L 96.788099 178.758283 
L 100.067438 184.554801 
L 103.346777 198.986949 
L 106.626116 201.234578 
L 109.905455 208.450652 
L 113.184793 213.064207 
L 116.464132 219.925392 
L 119.743471 237.314947 
L 123.02281 236.782614 
L 126.302149 243.111465 
L 129.581488 250.031798 
L 132.860826 256.715539 
L 136.140165 259.495501 
L 139.419504 263.69502 
L 142.698843 263.458427 
L 145.978182 267.362205 
L 149.257521 269.550686 
L 152.53686 271.088538 
L 155.816198 272.212353 
L 159.095537 270.911093 
L 162.374876 272.803834 
L 165.654215 273.691056 
L 168.933554 274.22339 
L 172.212893 273.691056 
L 175.492231 274.282538 
L 178.77157 274.459982 
L 182.050909 274.51913 
L 185.330248 274.400834 
L 188.609587 274.578279 
L 191.888926 274.51913 
L 195.168264 274.696575 
L 198.447603 274.696575 
L 201.726942 274.696575 
L 205.006281 274.696575 
L 208.28562 274.696575 
L 211.564959 274.696575 
L 214.844298 274.696575 
L 218.123636 274.696575 
L 221.402975 274.696575 
L 224.682314 274.696575 
L 227.961653 274.696575 
L 231.240992 274.696575 
L 234.520331 274.696575 
L 237.799669 274.696575 
L 241.079008 274.696575 
L 244.358347 274.696575 
L 247.637686 274.696575 
L 250.917025 274.696575 
L 254.196364 274.696575 
L 257.475702 274.696575 
L 260.755041 274.696575 
L 264.03438 274.696575 
L 267.313719 274.696575 
L 270.593058 274.696575 
L 273.872397 274.696575 
L 277.151736 274.696575 
L 280.431074 274.696575 
L 283.710413 274.696575 
L 286.989752 274.696575 
L 290.269091 274.696575 
L 293.54843 274.696575 
L 296.827769 274.696575 
L 300.107107 274.696575 
L 303.386446 274.696575 
L 306.665785 274.696575 
L 309.945124 274.696575 
L 313.224463 274.696575 
L 316.503802 274.696575 
L 319.78314 274.696575 
L 323.062479 274.696575 
L 326.341818 274.696575 
L 329.621157 274.696575 
L 332.900496 274.696575 
L 336.179835 274.696575 
L 339.459174 274.696575 
L 342.738512 274.696575 
L 346.017851 274.696575 
L 349.29719 274.696575 
L 352.576529 274.696575 
L 355.855868 274.696575 
L 359.135207 274.696575 
L 362.414545 274.696575 
L 365.693884 274.696575 
L 368.973223 274.696575 
L 372.252562 274.696575 
L 375.531901 274.696575 
L 378.81124 274.696575 
L 382.090579 274.696575 
L 385.369917 274.696575 
L 388.649256 274.696575 
L 391.928595 274.696575 
L 395.207934 274.696575 
L 398.487273 274.696575 
" style="fill:none;stroke:#ff7f0e;stroke-linecap:square;stroke-width:1.5;"/>
   </g>
   <g id="line2d_18">
    <path clip-path="url(#p40da059e61)" d="M 73.832727 61.763243 
L 77.112066 62.118135 
L 80.391405 63.064508 
L 83.670744 63.182804 
L 86.950083 65.371286 
L 90.229421 66.081064 
L 93.50876 69.570808 
L 96.788099 69.038474 
L 100.067438 68.683585 
L 103.346777 72.883104 
L 106.626116 72.528214 
L 109.905455 75.012438 
L 113.184793 76.84603 
L 116.464132 79.211955 
L 119.743471 81.163845 
L 123.02281 82.110214 
L 126.302149 83.470622 
L 129.581488 86.78292 
L 132.860826 85.83655 
L 136.140165 85.599956 
L 139.419504 90.331807 
L 142.698843 90.982438 
L 145.978182 91.041584 
L 149.257521 94.531326 
L 152.53686 97.902769 
L 155.816198 98.908288 
L 159.095537 98.198511 
L 162.374876 105.177992 
L 165.654215 99.91381 
L 168.933554 105.59203 
L 172.212893 105.53288 
L 175.492231 107.957956 
L 178.77157 108.608583 
L 182.050909 107.839657 
L 185.330248 113.931917 
L 188.609587 113.340435 
L 191.888926 111.151954 
L 195.168264 115.114881 
L 198.447603 119.491842 
L 201.726942 122.44925 
L 205.006281 119.077806 
L 208.28562 122.567546 
L 211.564959 120.970547 
L 214.844298 122.685843 
L 218.123636 124.460285 
L 221.402975 129.665323 
L 224.682314 132.090398 
L 227.961653 134.397172 
L 231.240992 140.075396 
L 234.520331 133.923988 
L 237.799669 134.752061 
L 241.079008 139.543063 
L 244.358347 142.973657 
L 247.637686 142.973655 
L 250.917025 142.263875 
L 254.196364 144.215767 
L 257.475702 137.946062 
L 260.755041 147.173172 
L 264.03438 153.087987 
L 267.313719 153.561171 
L 270.593058 154.330099 
L 273.872397 150.544618 
L 277.151736 152.08247 
L 280.431074 157.642396 
L 283.710413 165.686541 
L 286.989752 163.320616 
L 290.269091 163.616356 
L 293.54843 169.945209 
L 296.827769 171.7788 
L 300.107107 172.251987 
L 303.386446 174.499615 
L 306.665785 177.871061 
L 309.945124 172.725171 
L 313.224463 177.516171 
L 316.503802 182.780356 
L 319.78314 187.926245 
L 323.062479 184.436505 
L 326.341818 184.968837 
L 329.621157 191.65258 
L 332.900496 184.377356 
L 336.179835 190.765355 
L 339.459174 194.018504 
L 342.738512 195.792947 
L 346.017851 196.621023 
L 349.29719 203.245615 
L 352.576529 208.154912 
L 355.855868 201.352874 
L 359.135207 208.036616 
L 362.414545 213.241652 
L 365.693884 212.236134 
L 368.973223 218.683282 
L 372.252562 222.232171 
L 375.531901 217.618613 
L 378.81124 222.350468 
L 382.090579 230.926948 
L 385.369917 231.104393 
L 388.649256 246.482911 
L 391.928595 238.379616 
L 395.207934 257.780207 
L 398.487273 260.264427 
" style="fill:none;stroke:#2ca02c;stroke-linecap:square;stroke-width:1.5;"/>
   </g>
   <g id="line2d_19">
    <path clip-path="url(#p40da059e61)" d="M 73.832727 185.974357 
L 77.112066 181.597394 
L 80.391405 178.22595 
L 83.670744 175.268542 
L 86.950083 175.623431 
L 90.229421 177.811913 
L 93.50876 174.499617 
L 96.788099 181.183357 
L 100.067438 177.871061 
L 103.346777 177.397876 
L 106.626116 182.188875 
L 109.905455 180.059542 
L 113.184793 182.484616 
L 116.464132 178.935727 
L 119.743471 178.758283 
L 123.02281 179.231468 
L 126.302149 184.022468 
L 129.581488 184.022468 
L 132.860826 187.275616 
L 136.140165 185.85606 
L 139.419504 189.878134 
L 142.698843 190.410468 
L 145.978182 193.486171 
L 149.257521 189.05006 
L 152.53686 189.818986 
L 155.816198 194.550838 
L 159.095537 187.689653 
L 162.374876 198.809504 
L 165.654215 191.889171 
L 168.933554 191.593431 
L 172.212893 195.674653 
L 175.492231 195.792949 
L 178.77157 196.502727 
L 182.050909 195.792949 
L 185.330248 196.857616 
L 188.609587 197.271653 
L 191.888926 199.046097 
L 195.168264 198.336319 
L 198.447603 201.530319 
L 201.726942 199.992467 
L 205.006281 202.654134 
L 208.28562 203.42306 
L 211.564959 202.240097 
L 214.844298 201.707763 
L 218.123636 199.046097 
L 221.402975 204.546874 
L 224.682314 206.439615 
L 227.961653 209.101282 
L 231.240992 207.149393 
L 234.520331 205.374948 
L 237.799669 207.326837 
L 241.079008 209.337874 
L 244.358347 212.531874 
L 247.637686 208.273208 
L 250.917025 215.016096 
L 254.196364 212.236133 
L 257.475702 211.999541 
L 260.755041 211.467207 
L 264.03438 210.934874 
L 267.313719 215.962466 
L 270.593058 216.080763 
L 273.872397 217.973503 
L 277.151736 216.080763 
L 280.431074 214.069726 
L 283.710413 224.657244 
L 286.989752 223.296836 
L 290.269091 220.102837 
L 293.54843 228.324429 
L 296.827769 223.770022 
L 300.107107 227.732947 
L 303.386446 224.420651 
L 306.665785 228.324429 
L 309.945124 223.651725 
L 313.224463 228.501873 
L 316.503802 230.631207 
L 319.78314 229.56654 
L 323.062479 230.986095 
L 326.341818 228.797614 
L 329.621157 237.314947 
L 332.900496 234.416688 
L 336.179835 238.971095 
L 339.459174 235.363058 
L 342.738512 233.352021 
L 346.017851 237.019206 
L 349.29719 238.911947 
L 352.576529 245.713984 
L 355.855868 243.052317 
L 359.135207 246.009724 
L 362.414545 247.192687 
L 365.693884 244.590169 
L 368.973223 246.77865 
L 372.252562 251.333057 
L 375.531901 247.310984 
L 378.81124 252.51602 
L 382.090579 256.124057 
L 385.369917 258.608279 
L 388.649256 258.667427 
L 391.928595 258.726576 
L 395.207934 269.314094 
L 398.487273 270.497056 
" style="fill:none;stroke:#d62728;stroke-linecap:square;stroke-width:1.5;"/>
   </g>
   <g id="patch_3">
    <path d="M 57.6 307.584 
L 57.6 41.472 
" style="fill:none;stroke:#000000;stroke-linecap:square;stroke-linejoin:miter;stroke-width:0.8;"/>
   </g>
   <g id="patch_4">
    <path d="M 414.72 307.584 
L 414.72 41.472 
" style="fill:none;stroke:#000000;stroke-linecap:square;stroke-linejoin:miter;stroke-width:0.8;"/>
   </g>
   <g id="patch_5">
    <path d="M 57.6 307.584 
L 414.72 307.584 
" style="fill:none;stroke:#000000;stroke-linecap:square;stroke-linejoin:miter;stroke-width:0.8;"/>
   </g>
   <g id="patch_6">
    <path d="M 57.6 41.472 
L 414.72 41.472 
" style="fill:none;stroke:#000000;stroke-linecap:square;stroke-linejoin:miter;stroke-width:0.8;"/>
   </g>
   <g id="text_18">
    <!-- Toy_linear_1000_100 -->
    <g transform="translate(173.59875 35.472)scale(0.12 -0.12)">
     <defs>
      <path d="M -0.296875 72.90625 
L 61.375 72.90625 
L 61.375 64.59375 
L 35.5 64.59375 
L 35.5 0 
L 25.59375 0 
L 25.59375 64.59375 
L -0.296875 64.59375 
z
" id="DejaVuSans-84"/>
      <path d="M 50.984375 -16.609375 
L 50.984375 -23.578125 
L -0.984375 -23.578125 
L -0.984375 -16.609375 
z
" id="DejaVuSans-95"/>
      <path d="M 9.421875 75.984375 
L 18.40625 75.984375 
L 18.40625 0 
L 9.421875 0 
z
" id="DejaVuSans-108"/>
      <path d="M 9.421875 54.6875 
L 18.40625 54.6875 
L 18.40625 0 
L 9.421875 0 
z
M 9.421875 75.984375 
L 18.40625 75.984375 
L 18.40625 64.59375 
L 9.421875 64.59375 
z
" id="DejaVuSans-105"/>
      <path d="M 54.890625 33.015625 
L 54.890625 0 
L 45.90625 0 
L 45.90625 32.71875 
Q 45.90625 40.484375 42.875 44.328125 
Q 39.84375 48.1875 33.796875 48.1875 
Q 26.515625 48.1875 22.3125 43.546875 
Q 18.109375 38.921875 18.109375 30.90625 
L 18.109375 0 
L 9.078125 0 
L 9.078125 54.6875 
L 18.109375 54.6875 
L 18.109375 46.1875 
Q 21.34375 51.125 25.703125 53.5625 
Q 30.078125 56 35.796875 56 
Q 45.21875 56 50.046875 50.171875 
Q 54.890625 44.34375 54.890625 33.015625 
z
" id="DejaVuSans-110"/>
     </defs>
     <use xlink:href="#DejaVuSans-84"/>
     <use x="44.083984" xlink:href="#DejaVuSans-111"/>
     <use x="105.265625" xlink:href="#DejaVuSans-121"/>
     <use x="164.445312" xlink:href="#DejaVuSans-95"/>
     <use x="214.445312" xlink:href="#DejaVuSans-108"/>
     <use x="242.228516" xlink:href="#DejaVuSans-105"/>
     <use x="270.011719" xlink:href="#DejaVuSans-110"/>
     <use x="333.390625" xlink:href="#DejaVuSans-101"/>
     <use x="394.914062" xlink:href="#DejaVuSans-97"/>
     <use x="456.193359" xlink:href="#DejaVuSans-114"/>
     <use x="497.306641" xlink:href="#DejaVuSans-95"/>
     <use x="547.306641" xlink:href="#DejaVuSans-49"/>
     <use x="610.929688" xlink:href="#DejaVuSans-48"/>
     <use x="674.552734" xlink:href="#DejaVuSans-48"/>
     <use x="738.175781" xlink:href="#DejaVuSans-48"/>
     <use x="801.798828" xlink:href="#DejaVuSans-95"/>
     <use x="851.798828" xlink:href="#DejaVuSans-49"/>
     <use x="915.421875" xlink:href="#DejaVuSans-48"/>
     <use x="979.044922" xlink:href="#DejaVuSans-48"/>
    </g>
   </g>
   <g id="legend_1">
    <g id="patch_7">
     <path d="M 211.399687 108.1845 
L 407.72 108.1845 
Q 409.72 108.1845 409.72 106.1845 
L 409.72 48.472 
Q 409.72 46.472 407.72 46.472 
L 211.399687 46.472 
Q 209.399687 46.472 209.399687 48.472 
L 209.399687 106.1845 
Q 209.399687 108.1845 211.399687 108.1845 
z
" style="fill:#ffffff;opacity:0.8;stroke:#cccccc;stroke-linejoin:miter;"/>
    </g>
    <g id="line2d_20">
     <path d="M 213.399687 54.570438 
L 233.399687 54.570438 
" style="fill:none;stroke:#1f77b4;stroke-linecap:square;stroke-width:1.5;"/>
    </g>
    <g id="line2d_21"/>
    <g id="text_19">
     <!-- Random Forest -->
     <g transform="translate(241.399687 58.070438)scale(0.1 -0.1)">
      <defs>
       <path d="M 44.390625 34.1875 
Q 47.5625 33.109375 50.5625 29.59375 
Q 53.5625 26.078125 56.59375 19.921875 
L 66.609375 0 
L 56 0 
L 46.6875 18.703125 
Q 43.0625 26.03125 39.671875 28.421875 
Q 36.28125 30.8125 30.421875 30.8125 
L 19.671875 30.8125 
L 19.671875 0 
L 9.8125 0 
L 9.8125 72.90625 
L 32.078125 72.90625 
Q 44.578125 72.90625 50.734375 67.671875 
Q 56.890625 62.453125 56.890625 51.90625 
Q 56.890625 45.015625 53.6875 40.46875 
Q 50.484375 35.9375 44.390625 34.1875 
z
M 19.671875 64.796875 
L 19.671875 38.921875 
L 32.078125 38.921875 
Q 39.203125 38.921875 42.84375 42.21875 
Q 46.484375 45.515625 46.484375 51.90625 
Q 46.484375 58.296875 42.84375 61.546875 
Q 39.203125 64.796875 32.078125 64.796875 
z
" id="DejaVuSans-82"/>
       <path d="M 45.40625 46.390625 
L 45.40625 75.984375 
L 54.390625 75.984375 
L 54.390625 0 
L 45.40625 0 
L 45.40625 8.203125 
Q 42.578125 3.328125 38.25 0.953125 
Q 33.9375 -1.421875 27.875 -1.421875 
Q 17.96875 -1.421875 11.734375 6.484375 
Q 5.515625 14.40625 5.515625 27.296875 
Q 5.515625 40.1875 11.734375 48.09375 
Q 17.96875 56 27.875 56 
Q 33.9375 56 38.25 53.625 
Q 42.578125 51.265625 45.40625 46.390625 
z
M 14.796875 27.296875 
Q 14.796875 17.390625 18.875 11.75 
Q 22.953125 6.109375 30.078125 6.109375 
Q 37.203125 6.109375 41.296875 11.75 
Q 45.40625 17.390625 45.40625 27.296875 
Q 45.40625 37.203125 41.296875 42.84375 
Q 37.203125 48.484375 30.078125 48.484375 
Q 22.953125 48.484375 18.875 42.84375 
Q 14.796875 37.203125 14.796875 27.296875 
z
" id="DejaVuSans-100"/>
       <path d="M 9.8125 72.90625 
L 51.703125 72.90625 
L 51.703125 64.59375 
L 19.671875 64.59375 
L 19.671875 43.109375 
L 48.578125 43.109375 
L 48.578125 34.8125 
L 19.671875 34.8125 
L 19.671875 0 
L 9.8125 0 
z
" id="DejaVuSans-70"/>
      </defs>
      <use xlink:href="#DejaVuSans-82"/>
      <use x="67.232422" xlink:href="#DejaVuSans-97"/>
      <use x="128.511719" xlink:href="#DejaVuSans-110"/>
      <use x="191.890625" xlink:href="#DejaVuSans-100"/>
      <use x="255.367188" xlink:href="#DejaVuSans-111"/>
      <use x="316.548828" xlink:href="#DejaVuSans-109"/>
      <use x="413.960938" xlink:href="#DejaVuSans-32"/>
      <use x="445.748047" xlink:href="#DejaVuSans-70"/>
      <use x="499.642578" xlink:href="#DejaVuSans-111"/>
      <use x="560.824219" xlink:href="#DejaVuSans-114"/>
      <use x="599.6875" xlink:href="#DejaVuSans-101"/>
      <use x="661.210938" xlink:href="#DejaVuSans-115"/>
      <use x="713.310547" xlink:href="#DejaVuSans-116"/>
     </g>
    </g>
    <g id="line2d_22">
     <path d="M 213.399687 69.248563 
L 233.399687 69.248563 
" style="fill:none;stroke:#ff7f0e;stroke-linecap:square;stroke-width:1.5;"/>
    </g>
    <g id="line2d_23"/>
    <g id="text_20">
     <!-- XGBoost -->
     <g transform="translate(241.399687 72.748563)scale(0.1 -0.1)">
      <defs>
       <path d="M 6.296875 72.90625 
L 16.890625 72.90625 
L 35.015625 45.796875 
L 53.21875 72.90625 
L 63.8125 72.90625 
L 40.375 37.890625 
L 65.375 0 
L 54.78125 0 
L 34.28125 31 
L 13.625 0 
L 2.984375 0 
L 29 38.921875 
z
" id="DejaVuSans-88"/>
       <path d="M 59.515625 10.40625 
L 59.515625 29.984375 
L 43.40625 29.984375 
L 43.40625 38.09375 
L 69.28125 38.09375 
L 69.28125 6.78125 
Q 63.578125 2.734375 56.6875 0.65625 
Q 49.8125 -1.421875 42 -1.421875 
Q 24.90625 -1.421875 15.25 8.5625 
Q 5.609375 18.5625 5.609375 36.375 
Q 5.609375 54.25 15.25 64.234375 
Q 24.90625 74.21875 42 74.21875 
Q 49.125 74.21875 55.546875 72.453125 
Q 61.96875 70.703125 67.390625 67.28125 
L 67.390625 56.78125 
Q 61.921875 61.421875 55.765625 63.765625 
Q 49.609375 66.109375 42.828125 66.109375 
Q 29.4375 66.109375 22.71875 58.640625 
Q 16.015625 51.171875 16.015625 36.375 
Q 16.015625 21.625 22.71875 14.15625 
Q 29.4375 6.6875 42.828125 6.6875 
Q 48.046875 6.6875 52.140625 7.59375 
Q 56.25 8.5 59.515625 10.40625 
z
" id="DejaVuSans-71"/>
       <path d="M 19.671875 34.8125 
L 19.671875 8.109375 
L 35.5 8.109375 
Q 43.453125 8.109375 47.28125 11.40625 
Q 51.125 14.703125 51.125 21.484375 
Q 51.125 28.328125 47.28125 31.5625 
Q 43.453125 34.8125 35.5 34.8125 
z
M 19.671875 64.796875 
L 19.671875 42.828125 
L 34.28125 42.828125 
Q 41.5 42.828125 45.03125 45.53125 
Q 48.578125 48.25 48.578125 53.8125 
Q 48.578125 59.328125 45.03125 62.0625 
Q 41.5 64.796875 34.28125 64.796875 
z
M 9.8125 72.90625 
L 35.015625 72.90625 
Q 46.296875 72.90625 52.390625 68.21875 
Q 58.5 63.53125 58.5 54.890625 
Q 58.5 48.1875 55.375 44.234375 
Q 52.25 40.28125 46.1875 39.3125 
Q 53.46875 37.75 57.5 32.78125 
Q 61.53125 27.828125 61.53125 20.40625 
Q 61.53125 10.640625 54.890625 5.3125 
Q 48.25 0 35.984375 0 
L 9.8125 0 
z
" id="DejaVuSans-66"/>
      </defs>
      <use xlink:href="#DejaVuSans-88"/>
      <use x="68.505859" xlink:href="#DejaVuSans-71"/>
      <use x="145.996094" xlink:href="#DejaVuSans-66"/>
      <use x="214.599609" xlink:href="#DejaVuSans-111"/>
      <use x="275.78125" xlink:href="#DejaVuSans-111"/>
      <use x="336.962891" xlink:href="#DejaVuSans-115"/>
      <use x="389.0625" xlink:href="#DejaVuSans-116"/>
     </g>
    </g>
    <g id="line2d_24">
     <path d="M 213.399687 83.926688 
L 233.399687 83.926688 
" style="fill:none;stroke:#2ca02c;stroke-linecap:square;stroke-width:1.5;"/>
    </g>
    <g id="line2d_25"/>
    <g id="text_21">
     <!-- Neural Network + Regularization -->
     <g transform="translate(241.399687 87.426688)scale(0.1 -0.1)">
      <defs>
       <path d="M 4.203125 54.6875 
L 13.1875 54.6875 
L 24.421875 12.015625 
L 35.59375 54.6875 
L 46.1875 54.6875 
L 57.421875 12.015625 
L 68.609375 54.6875 
L 77.59375 54.6875 
L 63.28125 0 
L 52.6875 0 
L 40.921875 44.828125 
L 29.109375 0 
L 18.5 0 
z
" id="DejaVuSans-119"/>
       <path d="M 9.078125 75.984375 
L 18.109375 75.984375 
L 18.109375 31.109375 
L 44.921875 54.6875 
L 56.390625 54.6875 
L 27.390625 29.109375 
L 57.625 0 
L 45.90625 0 
L 18.109375 26.703125 
L 18.109375 0 
L 9.078125 0 
z
" id="DejaVuSans-107"/>
       <path d="M 46 62.703125 
L 46 35.5 
L 73.1875 35.5 
L 73.1875 27.203125 
L 46 27.203125 
L 46 0 
L 37.796875 0 
L 37.796875 27.203125 
L 10.59375 27.203125 
L 10.59375 35.5 
L 37.796875 35.5 
L 37.796875 62.703125 
z
" id="DejaVuSans-43"/>
       <path d="M 45.40625 27.984375 
Q 45.40625 37.75 41.375 43.109375 
Q 37.359375 48.484375 30.078125 48.484375 
Q 22.859375 48.484375 18.828125 43.109375 
Q 14.796875 37.75 14.796875 27.984375 
Q 14.796875 18.265625 18.828125 12.890625 
Q 22.859375 7.515625 30.078125 7.515625 
Q 37.359375 7.515625 41.375 12.890625 
Q 45.40625 18.265625 45.40625 27.984375 
z
M 54.390625 6.78125 
Q 54.390625 -7.171875 48.1875 -13.984375 
Q 42 -20.796875 29.203125 -20.796875 
Q 24.46875 -20.796875 20.265625 -20.09375 
Q 16.0625 -19.390625 12.109375 -17.921875 
L 12.109375 -9.1875 
Q 16.0625 -11.328125 19.921875 -12.34375 
Q 23.78125 -13.375 27.78125 -13.375 
Q 36.625 -13.375 41.015625 -8.765625 
Q 45.40625 -4.15625 45.40625 5.171875 
L 45.40625 9.625 
Q 42.625 4.78125 38.28125 2.390625 
Q 33.9375 0 27.875 0 
Q 17.828125 0 11.671875 7.65625 
Q 5.515625 15.328125 5.515625 27.984375 
Q 5.515625 40.671875 11.671875 48.328125 
Q 17.828125 56 27.875 56 
Q 33.9375 56 38.28125 53.609375 
Q 42.625 51.21875 45.40625 46.390625 
L 45.40625 54.6875 
L 54.390625 54.6875 
z
" id="DejaVuSans-103"/>
       <path d="M 5.515625 54.6875 
L 48.1875 54.6875 
L 48.1875 46.484375 
L 14.40625 7.171875 
L 48.1875 7.171875 
L 48.1875 0 
L 4.296875 0 
L 4.296875 8.203125 
L 38.09375 47.515625 
L 5.515625 47.515625 
z
" id="DejaVuSans-122"/>
      </defs>
      <use xlink:href="#DejaVuSans-78"/>
      <use x="74.804688" xlink:href="#DejaVuSans-101"/>
      <use x="136.328125" xlink:href="#DejaVuSans-117"/>
      <use x="199.707031" xlink:href="#DejaVuSans-114"/>
      <use x="240.820312" xlink:href="#DejaVuSans-97"/>
      <use x="302.099609" xlink:href="#DejaVuSans-108"/>
      <use x="329.882812" xlink:href="#DejaVuSans-32"/>
      <use x="361.669922" xlink:href="#DejaVuSans-78"/>
      <use x="436.474609" xlink:href="#DejaVuSans-101"/>
      <use x="497.998047" xlink:href="#DejaVuSans-116"/>
      <use x="537.207031" xlink:href="#DejaVuSans-119"/>
      <use x="618.994141" xlink:href="#DejaVuSans-111"/>
      <use x="680.175781" xlink:href="#DejaVuSans-114"/>
      <use x="721.289062" xlink:href="#DejaVuSans-107"/>
      <use x="779.199219" xlink:href="#DejaVuSans-32"/>
      <use x="810.986328" xlink:href="#DejaVuSans-43"/>
      <use x="894.775391" xlink:href="#DejaVuSans-32"/>
      <use x="926.5625" xlink:href="#DejaVuSans-82"/>
      <use x="991.544922" xlink:href="#DejaVuSans-101"/>
      <use x="1053.068359" xlink:href="#DejaVuSans-103"/>
      <use x="1116.544922" xlink:href="#DejaVuSans-117"/>
      <use x="1179.923828" xlink:href="#DejaVuSans-108"/>
      <use x="1207.707031" xlink:href="#DejaVuSans-97"/>
      <use x="1268.986328" xlink:href="#DejaVuSans-114"/>
      <use x="1310.099609" xlink:href="#DejaVuSans-105"/>
      <use x="1337.882812" xlink:href="#DejaVuSans-122"/>
      <use x="1390.373047" xlink:href="#DejaVuSans-97"/>
      <use x="1451.652344" xlink:href="#DejaVuSans-116"/>
      <use x="1490.861328" xlink:href="#DejaVuSans-105"/>
      <use x="1518.644531" xlink:href="#DejaVuSans-111"/>
      <use x="1579.826172" xlink:href="#DejaVuSans-110"/>
     </g>
    </g>
    <g id="line2d_26">
     <path d="M 213.399687 98.604813 
L 233.399687 98.604813 
" style="fill:none;stroke:#d62728;stroke-linecap:square;stroke-width:1.5;"/>
    </g>
    <g id="line2d_27"/>
    <g id="text_22">
     <!-- KNN -->
     <g transform="translate(241.399687 102.104813)scale(0.1 -0.1)">
      <defs>
       <path d="M 9.8125 72.90625 
L 19.671875 72.90625 
L 19.671875 42.09375 
L 52.390625 72.90625 
L 65.09375 72.90625 
L 28.90625 38.921875 
L 67.671875 0 
L 54.6875 0 
L 19.671875 35.109375 
L 19.671875 0 
L 9.8125 0 
z
" id="DejaVuSans-75"/>
      </defs>
      <use xlink:href="#DejaVuSans-75"/>
      <use x="65.576172" xlink:href="#DejaVuSans-78"/>
      <use x="140.380859" xlink:href="#DejaVuSans-78"/>
     </g>
    </g>
   </g>
  </g>
 </g>
 <defs>
  <clipPath id="p40da059e61">
   <rect height="266.112" width="357.12" x="57.6" y="41.472"/>
  </clipPath>
 </defs>
</svg>
