<?xml version="1.0" encoding="utf-8" standalone="no"?>
<!DOCTYPE svg PUBLIC "-//W3C//DTD SVG 1.1//EN"
  "http://www.w3.org/Graphics/SVG/1.1/DTD/svg11.dtd">
<!-- Created with matplotlib (https://matplotlib.org/) -->
<svg height="345.6pt" version="1.1" viewBox="0 0 460.8 345.6" width="460.8pt" xmlns="http://www.w3.org/2000/svg" xmlns:xlink="http://www.w3.org/1999/xlink">
 <metadata>
  <rdf:RDF xmlns:cc="http://creativecommons.org/ns#" xmlns:dc="http://purl.org/dc/elements/1.1/" xmlns:rdf="http://www.w3.org/1999/02/22-rdf-syntax-ns#">
   <cc:Work>
    <dc:type rdf:resource="http://purl.org/dc/dcmitype/StillImage"/>
    <dc:date>2023-09-19T16:58:38.611226</dc:date>
    <dc:format>image/svg+xml</dc:format>
    <dc:creator>
     <cc:Agent>
      <dc:title>Matplotlib v3.3.4, https://matplotlib.org/</dc:title>
     </cc:Agent>
    </dc:creator>
   </cc:Work>
  </rdf:RDF>
 </metadata>
 <defs>
  <style type="text/css">*{stroke-linecap:butt;stroke-linejoin:round;}</style>
 </defs>
 <g id="figure_1">
  <g id="patch_1">
   <path d="M 0 345.6 
L 460.8 345.6 
L 460.8 0 
L 0 0 
z
" style="fill:#ffffff;"/>
  </g>
  <g id="axes_1">
   <g id="patch_2">
    <path d="M 57.6 307.584 
L 414.72 307.584 
L 414.72 41.472 
L 57.6 41.472 
z
" style="fill:#ffffff;"/>
   </g>
   <g id="PolyCollection_1">
    <path clip-path="url(#pf0b9162e53)" d="M 73.832727 135.579012 
L 73.832727 135.579012 
L 77.112066 142.329134 
L 80.391405 145.183584 
L 83.670744 146.528923 
L 86.950083 148.029719 
L 90.229421 145.931843 
L 93.50876 145.015396 
L 96.788099 143.78216 
L 100.067438 146.988275 
L 103.346777 148.400587 
L 106.626116 149.533663 
L 109.905455 152.360078 
L 113.184793 146.022984 
L 116.464132 157.31738 
L 119.743471 155.668239 
L 123.02281 154.003576 
L 126.302149 152.925473 
L 129.581488 156.275627 
L 132.860826 151.013564 
L 136.140165 155.494636 
L 139.419504 157.451635 
L 142.698843 158.188013 
L 145.978182 164.200611 
L 149.257521 153.692144 
L 152.53686 163.692605 
L 155.816198 163.050096 
L 159.095537 161.822047 
L 162.374876 164.705816 
L 165.654215 168.908264 
L 168.933554 161.624628 
L 172.212893 170.34136 
L 175.492231 166.755245 
L 178.77157 173.550644 
L 182.050909 174.846662 
L 185.330248 173.789142 
L 188.609587 180.906516 
L 191.888926 165.836991 
L 195.168264 179.232322 
L 198.447603 183.759122 
L 201.726942 184.161906 
L 205.006281 177.312867 
L 208.28562 182.479955 
L 211.564959 188.64744 
L 214.844298 185.875442 
L 218.123636 184.925315 
L 221.402975 187.283511 
L 224.682314 187.400777 
L 227.961653 191.814579 
L 231.240992 189.303091 
L 234.520331 194.253934 
L 237.799669 198.266443 
L 241.079008 198.589899 
L 244.358347 194.823431 
L 247.637686 201.460635 
L 250.917025 205.226514 
L 254.196364 193.039739 
L 257.475702 200.44891 
L 260.755041 205.227574 
L 264.03438 209.137972 
L 267.313719 210.622845 
L 270.593058 205.441874 
L 273.872397 212.412902 
L 277.151736 211.49084 
L 280.431074 215.285722 
L 283.710413 208.6262 
L 286.989752 218.057393 
L 290.269091 218.937277 
L 293.54843 212.892338 
L 296.827769 217.260853 
L 300.107107 226.759062 
L 303.386446 225.500094 
L 306.665785 221.831077 
L 309.945124 233.745593 
L 313.224463 235.299932 
L 316.503802 234.085069 
L 319.78314 234.837772 
L 323.062479 239.556301 
L 326.341818 243.527651 
L 329.621157 244.303477 
L 332.900496 248.643226 
L 336.179835 250.181375 
L 339.459174 253.035299 
L 342.738512 247.194078 
L 346.017851 251.795086 
L 349.29719 259.370831 
L 352.576529 261.642664 
L 355.855868 265.748692 
L 359.135207 267.939048 
L 362.414545 268.441175 
L 365.693884 266.66355 
L 368.973223 277.128987 
L 372.252562 273.725006 
L 375.531901 284.302636 
L 378.81124 280.729369 
L 382.090579 290.569506 
L 385.369917 290.782637 
L 388.649256 291.255283 
L 391.928595 295.06348 
L 395.207934 294.167609 
L 398.487273 290.908857 
L 398.487273 268.534973 
L 398.487273 268.534973 
L 395.207934 258.053374 
L 391.928595 257.785576 
L 388.649256 244.321747 
L 385.369917 230.3487 
L 382.090579 230.404812 
L 378.81124 227.840495 
L 375.531901 220.341768 
L 372.252562 202.342046 
L 368.973223 204.590729 
L 365.693884 194.643772 
L 362.414545 205.741657 
L 359.135207 195.72355 
L 355.855868 187.393672 
L 352.576529 186.475111 
L 349.29719 185.920612 
L 346.017851 180.934885 
L 342.738512 183.180616 
L 339.459174 177.339395 
L 336.179835 177.681025 
L 332.900496 180.004266 
L 329.621157 172.881671 
L 326.341818 174.599608 
L 323.062479 171.34811 
L 319.78314 161.777964 
L 316.503802 166.299109 
L 313.224463 158.175436 
L 309.945124 164.440327 
L 306.665785 159.082818 
L 303.386446 163.264722 
L 300.107107 159.022404 
L 296.827769 152.661753 
L 293.54843 153.104807 
L 290.269091 155.695882 
L 286.989752 153.435397 
L 283.710413 153.602504 
L 280.431074 152.281608 
L 277.151736 146.812404 
L 273.872397 152.01406 
L 270.593058 145.795541 
L 267.313719 139.829478 
L 264.03438 142.570498 
L 260.755041 146.951951 
L 257.475702 139.640198 
L 254.196364 139.198448 
L 250.917025 140.672275 
L 247.637686 138.314436 
L 244.358347 128.15067 
L 241.079008 137.573748 
L 237.799669 135.070873 
L 234.520331 126.207872 
L 231.240992 127.076237 
L 227.961653 124.721767 
L 224.682314 133.218048 
L 221.402975 123.757191 
L 218.123636 123.132036 
L 214.844298 131.917052 
L 211.564959 126.946796 
L 208.28562 123.693176 
L 205.006281 115.042643 
L 201.726942 121.697188 
L 198.447603 118.488549 
L 195.168264 111.710023 
L 191.888926 114.271083 
L 188.609587 115.217436 
L 185.330248 114.640908 
L 182.050909 117.194812 
L 178.77157 109.697798 
L 175.492231 112.567738 
L 172.212893 111.336899 
L 168.933554 114.086931 
L 165.654215 113.712105 
L 162.374876 109.592577 
L 159.095537 111.220199 
L 155.816198 109.521094 
L 152.53686 107.936475 
L 149.257521 104.119316 
L 145.978182 115.122372 
L 142.698843 105.904183 
L 139.419504 105.541433 
L 136.140165 102.787879 
L 132.860826 103.500509 
L 129.581488 108.75868 
L 126.302149 103.001766 
L 123.02281 106.634215 
L 119.743471 101.672166 
L 116.464132 108.345001 
L 113.184793 104.879666 
L 109.905455 106.550511 
L 106.626116 105.765502 
L 103.346777 105.485413 
L 100.067438 104.542449 
L 96.788099 107.591545 
L 93.50876 109.498678 
L 90.229421 107.954156 
L 86.950083 116.533532 
L 83.670744 116.778181 
L 80.391405 118.123521 
L 77.112066 120.192879 
L 73.832727 135.579012 
z
" style="fill:#1f77b4;fill-opacity:0.2;"/>
   </g>
   <g id="PolyCollection_2">
    <path clip-path="url(#pf0b9162e53)" d="M 73.832727 135.579012 
L 73.832727 135.579012 
L 77.112066 153.070564 
L 80.391405 170.607105 
L 83.670744 181.953703 
L 86.950083 194.799887 
L 90.229421 220.079183 
L 93.50876 228.624883 
L 96.788099 251.590339 
L 100.067438 267.963568 
L 103.346777 269.464694 
L 106.626116 282.537144 
L 109.905455 288.837326 
L 113.184793 286.885316 
L 116.464132 293.072637 
L 119.743471 291.119978 
L 123.02281 292.295579 
L 126.302149 295.488 
L 129.581488 292.710861 
L 132.860826 291.15423 
L 136.140165 290.310952 
L 139.419504 290.475519 
L 142.698843 288.257029 
L 145.978182 289.280693 
L 149.257521 288.59267 
L 152.53686 287.325502 
L 155.816198 286.574738 
L 159.095537 286.669579 
L 162.374876 286.465836 
L 165.654215 285.856792 
L 168.933554 286.721679 
L 172.212893 285.850243 
L 175.492231 285.856792 
L 178.77157 284.746504 
L 182.050909 284.746504 
L 185.330248 285.60617 
L 188.609587 285.60617 
L 191.888926 284.746504 
L 195.168264 285.60617 
L 198.447603 284.746504 
L 201.726942 284.746504 
L 205.006281 284.746504 
L 208.28562 284.746504 
L 211.564959 284.746504 
L 214.844298 284.746504 
L 218.123636 284.746504 
L 221.402975 284.746504 
L 224.682314 284.746504 
L 227.961653 284.746504 
L 231.240992 284.746504 
L 234.520331 284.746504 
L 237.799669 284.746504 
L 241.079008 284.746504 
L 244.358347 284.746504 
L 247.637686 284.746504 
L 250.917025 284.746504 
L 254.196364 284.746504 
L 257.475702 284.746504 
L 260.755041 284.746504 
L 264.03438 284.746504 
L 267.313719 284.746504 
L 270.593058 284.746504 
L 273.872397 284.746504 
L 277.151736 284.746504 
L 280.431074 284.746504 
L 283.710413 284.746504 
L 286.989752 284.746504 
L 290.269091 284.746504 
L 293.54843 284.746504 
L 296.827769 284.746504 
L 300.107107 284.746504 
L 303.386446 284.746504 
L 306.665785 284.746504 
L 309.945124 284.746504 
L 313.224463 284.746504 
L 316.503802 284.746504 
L 319.78314 284.746504 
L 323.062479 284.746504 
L 326.341818 284.746504 
L 329.621157 284.746504 
L 332.900496 284.746504 
L 336.179835 284.746504 
L 339.459174 284.746504 
L 342.738512 284.746504 
L 346.017851 284.746504 
L 349.29719 284.746504 
L 352.576529 284.746504 
L 355.855868 284.746504 
L 359.135207 284.746504 
L 362.414545 284.746504 
L 365.693884 284.746504 
L 368.973223 284.746504 
L 372.252562 284.746504 
L 375.531901 284.746504 
L 378.81124 284.746504 
L 382.090579 284.746504 
L 385.369917 284.746504 
L 388.649256 284.746504 
L 391.928595 284.746504 
L 395.207934 284.746504 
L 398.487273 284.746504 
L 398.487273 284.746504 
L 398.487273 284.746504 
L 395.207934 284.746504 
L 391.928595 284.746504 
L 388.649256 284.746504 
L 385.369917 284.746504 
L 382.090579 284.746504 
L 378.81124 284.746504 
L 375.531901 284.746504 
L 372.252562 284.746504 
L 368.973223 284.746504 
L 365.693884 284.746504 
L 362.414545 284.746504 
L 359.135207 284.746504 
L 355.855868 284.746504 
L 352.576529 284.746504 
L 349.29719 284.746504 
L 346.017851 284.746504 
L 342.738512 284.746504 
L 339.459174 284.746504 
L 336.179835 284.746504 
L 332.900496 284.746504 
L 329.621157 284.746504 
L 326.341818 284.746504 
L 323.062479 284.746504 
L 319.78314 284.746504 
L 316.503802 284.746504 
L 313.224463 284.746504 
L 309.945124 284.746504 
L 306.665785 284.746504 
L 303.386446 284.746504 
L 300.107107 284.746504 
L 296.827769 284.746504 
L 293.54843 284.746504 
L 290.269091 284.746504 
L 286.989752 284.746504 
L 283.710413 284.746504 
L 280.431074 284.746504 
L 277.151736 284.746504 
L 273.872397 284.746504 
L 270.593058 284.746504 
L 267.313719 284.746504 
L 264.03438 284.746504 
L 260.755041 284.746504 
L 257.475702 284.746504 
L 254.196364 284.746504 
L 250.917025 284.746504 
L 247.637686 284.746504 
L 244.358347 284.746504 
L 241.079008 284.746504 
L 237.799669 284.746504 
L 234.520331 284.746504 
L 231.240992 284.746504 
L 227.961653 284.746504 
L 224.682314 284.746504 
L 221.402975 284.746504 
L 218.123636 284.746504 
L 214.844298 284.746504 
L 211.564959 284.746504 
L 208.28562 284.746504 
L 205.006281 284.746504 
L 201.726942 284.746504 
L 198.447603 284.746504 
L 195.168264 284.043856 
L 191.888926 284.746504 
L 188.609587 284.043856 
L 185.330248 284.043856 
L 182.050909 284.746504 
L 178.77157 284.746504 
L 175.492231 283.636216 
L 172.212893 283.17171 
L 168.933554 283.242384 
L 165.654215 283.636216 
L 162.374876 283.341209 
L 159.095537 282.823429 
L 155.816198 282.447214 
L 152.53686 282.638561 
L 149.257521 280.74332 
L 145.978182 279.741259 
L 142.698843 279.19474 
L 139.419504 276.191158 
L 136.140165 276.983798 
L 132.860826 273.942262 
L 129.581488 268.146134 
L 126.302149 257.047019 
L 123.02281 259.925404 
L 119.743471 249.952697 
L 116.464132 242.661412 
L 113.184793 231.576708 
L 109.905455 216.435151 
L 106.626116 221.479186 
L 103.346777 205.974285 
L 100.067438 196.170086 
L 96.788099 178.470319 
L 93.50876 155.900436 
L 90.229421 146.389018 
L 86.950083 134.454951 
L 83.670744 129.87209 
L 80.391405 126.930013 
L 77.112066 123.426087 
L 73.832727 135.579012 
z
" style="fill:#ff7f0e;fill-opacity:0.2;"/>
   </g>
   <g id="PolyCollection_3">
    <path clip-path="url(#pf0b9162e53)" d="M 73.832727 64.92072 
L 73.832727 64.92072 
L 77.112066 77.727455 
L 80.391405 82.674757 
L 83.670744 86.276827 
L 86.950083 90.021277 
L 90.229421 96.807032 
L 93.50876 96.926688 
L 96.788099 95.850157 
L 100.067438 96.52882 
L 103.346777 106.906532 
L 106.626116 100.947413 
L 109.905455 109.362938 
L 113.184793 105.441127 
L 116.464132 108.34977 
L 119.743471 109.857553 
L 123.02281 117.221214 
L 126.302149 116.19568 
L 129.581488 123.679105 
L 132.860826 121.245869 
L 136.140165 117.926653 
L 139.419504 120.507458 
L 142.698843 123.436284 
L 145.978182 127.415284 
L 149.257521 122.664738 
L 152.53686 129.800969 
L 155.816198 133.943367 
L 159.095537 131.989581 
L 162.374876 129.573883 
L 165.654215 135.016254 
L 168.933554 134.734706 
L 172.212893 134.525879 
L 175.492231 134.030858 
L 178.77157 148.411813 
L 182.050909 136.168573 
L 185.330248 145.5528 
L 188.609587 149.857126 
L 191.888926 140.390123 
L 195.168264 146.767118 
L 198.447603 145.265533 
L 201.726942 150.716712 
L 205.006281 148.756223 
L 208.28562 152.23106 
L 211.564959 149.235436 
L 214.844298 157.128816 
L 218.123636 159.697287 
L 221.402975 158.110696 
L 224.682314 153.923852 
L 227.961653 165.018447 
L 231.240992 167.008733 
L 234.520331 163.240769 
L 237.799669 173.17039 
L 241.079008 172.753498 
L 244.358347 168.892847 
L 247.637686 166.260542 
L 250.917025 177.179301 
L 254.196364 166.212268 
L 257.475702 176.645196 
L 260.755041 177.649386 
L 264.03438 182.994031 
L 267.313719 169.6351 
L 270.593058 183.224011 
L 273.872397 173.077815 
L 277.151736 180.4806 
L 280.431074 183.998759 
L 283.710413 186.229404 
L 286.989752 187.120108 
L 290.269091 188.558727 
L 293.54843 195.512916 
L 296.827769 194.22819 
L 300.107107 205.073822 
L 303.386446 201.57826 
L 306.665785 196.048078 
L 309.945124 202.435779 
L 313.224463 209.890513 
L 316.503802 200.643344 
L 319.78314 206.237299 
L 323.062479 208.492432 
L 326.341818 210.954516 
L 329.621157 212.74908 
L 332.900496 213.252209 
L 336.179835 213.384876 
L 339.459174 219.765599 
L 342.738512 209.248898 
L 346.017851 217.417405 
L 349.29719 224.509516 
L 352.576529 227.401897 
L 355.855868 220.767701 
L 359.135207 236.239777 
L 362.414545 237.329952 
L 365.693884 238.665453 
L 368.973223 241.288559 
L 372.252562 238.507311 
L 375.531901 247.287933 
L 378.81124 250.961783 
L 382.090579 256.702998 
L 385.369917 258.049697 
L 388.649256 258.685953 
L 391.928595 268.204885 
L 395.207934 276.48842 
L 398.487273 285.215492 
L 398.487273 195.876158 
L 398.487273 195.876158 
L 395.207934 193.454918 
L 391.928595 191.846297 
L 388.649256 182.051959 
L 385.369917 177.663632 
L 382.090579 176.341014 
L 378.81124 171.561991 
L 375.531901 165.186669 
L 372.252562 159.364577 
L 368.973223 167.260578 
L 365.693884 157.008178 
L 362.414545 155.360324 
L 359.135207 155.82243 
L 355.855868 146.171558 
L 352.576529 145.347042 
L 349.29719 146.983273 
L 346.017851 150.306948 
L 342.738512 142.45957 
L 339.459174 145.917514 
L 336.179835 146.802585 
L 332.900496 142.852779 
L 329.621157 134.405856 
L 326.341818 135.101292 
L 323.062479 133.009838 
L 319.78314 130.868458 
L 316.503802 128.140441 
L 313.224463 139.93374 
L 309.945124 129.802411 
L 306.665785 122.686526 
L 303.386446 123.751116 
L 300.107107 128.891568 
L 296.827769 125.919584 
L 293.54843 116.312882 
L 290.269091 130.018858 
L 286.989752 117.639857 
L 283.710413 120.728818 
L 280.431074 114.951527 
L 277.151736 111.089826 
L 273.872397 108.443422 
L 270.593058 104.420946 
L 267.313719 104.035219 
L 264.03438 107.006202 
L 260.755041 113.449975 
L 257.475702 102.049714 
L 254.196364 104.003642 
L 250.917025 107.796342 
L 247.637686 102.542207 
L 244.358347 96.612509 
L 241.079008 111.280033 
L 237.799669 104.896443 
L 234.520331 93.942617 
L 231.240992 98.810667 
L 227.961653 96.090398 
L 224.682314 93.053336 
L 221.402975 90.750709 
L 218.123636 96.701004 
L 214.844298 92.046627 
L 211.564959 93.188218 
L 208.28562 91.291725 
L 205.006281 88.799855 
L 201.726942 92.806073 
L 198.447603 78.629943 
L 195.168264 81.6819 
L 191.888926 85.860633 
L 188.609587 85.657716 
L 185.330248 84.30938 
L 182.050909 80.190016 
L 178.77157 83.805649 
L 175.492231 80.286504 
L 172.212893 83.559918 
L 168.933554 77.541409 
L 165.654215 76.631788 
L 162.374876 71.867961 
L 159.095537 74.790895 
L 155.816198 70.167793 
L 152.53686 71.326839 
L 149.257521 75.63674 
L 145.978182 77.323948 
L 142.698843 80.360835 
L 139.419504 70.414153 
L 136.140165 65.929133 
L 132.860826 64.1801 
L 129.581488 68.812688 
L 126.302149 64.362715 
L 123.02281 64.593335 
L 119.743471 66.461346 
L 116.464132 64.828754 
L 113.184793 58.159284 
L 109.905455 58.005916 
L 106.626116 59.35561 
L 103.346777 65.015849 
L 100.067438 53.568 
L 96.788099 57.230014 
L 93.50876 55.368394 
L 90.229421 57.372271 
L 86.950083 57.563251 
L 83.670744 55.498018 
L 80.391405 54.546548 
L 77.112066 55.56839 
L 73.832727 64.92072 
z
" style="fill:#2ca02c;fill-opacity:0.2;"/>
   </g>
   <g id="PolyCollection_4">
    <path clip-path="url(#pf0b9162e53)" d="M 73.832727 214.088218 
L 73.832727 214.088218 
L 77.112066 223.448297 
L 80.391405 216.618034 
L 83.670744 213.364333 
L 86.950083 215.039618 
L 90.229421 216.186091 
L 93.50876 204.41565 
L 96.788099 208.82169 
L 100.067438 214.842179 
L 103.346777 221.08707 
L 106.626116 214.088218 
L 109.905455 211.965199 
L 113.184793 210.128963 
L 116.464132 222.437957 
L 119.743471 211.765252 
L 123.02281 216.339354 
L 126.302149 218.193481 
L 129.581488 220.718694 
L 132.860826 216.43652 
L 136.140165 220.803959 
L 139.419504 228.224286 
L 142.698843 219.754497 
L 145.978182 220.469152 
L 149.257521 224.751418 
L 152.53686 219.837786 
L 155.816198 235.095404 
L 159.095537 230.297102 
L 162.374876 229.973006 
L 165.654215 218.89785 
L 168.933554 225.442692 
L 172.212893 233.258232 
L 175.492231 226.545481 
L 178.77157 237.164091 
L 182.050909 230.905776 
L 185.330248 232.85346 
L 188.609587 225.539062 
L 191.888926 227.334215 
L 195.168264 233.863884 
L 198.447603 241.353028 
L 201.726942 232.35805 
L 205.006281 228.01245 
L 208.28562 237.774793 
L 211.564959 239.074166 
L 214.844298 242.118639 
L 218.123636 237.61194 
L 221.402975 240.847719 
L 224.682314 237.437996 
L 227.961653 239.770058 
L 231.240992 244.446075 
L 234.520331 238.512126 
L 237.799669 239.912541 
L 241.079008 245.866752 
L 244.358347 235.407019 
L 247.637686 254.398214 
L 250.917025 250.118286 
L 254.196364 240.743468 
L 257.475702 241.609392 
L 260.755041 243.570451 
L 264.03438 250.611736 
L 267.313719 254.222952 
L 270.593058 242.966458 
L 273.872397 254.14761 
L 277.151736 252.96025 
L 280.431074 257.212347 
L 283.710413 253.83074 
L 286.989752 251.339261 
L 290.269091 256.232478 
L 293.54843 251.294383 
L 296.827769 258.026687 
L 300.107107 264.958497 
L 303.386446 256.080525 
L 306.665785 250.036266 
L 309.945124 259.759839 
L 313.224463 256.279308 
L 316.503802 258.713092 
L 319.78314 264.811033 
L 323.062479 262.446698 
L 326.341818 252.313663 
L 329.621157 261.358595 
L 332.900496 266.100059 
L 336.179835 269.373135 
L 339.459174 268.628702 
L 342.738512 261.742888 
L 346.017851 272.762899 
L 349.29719 272.242091 
L 352.576529 273.655659 
L 355.855868 271.43711 
L 359.135207 275.357164 
L 362.414545 273.067316 
L 365.693884 276.766058 
L 368.973223 278.978383 
L 372.252562 280.824645 
L 375.531901 274.765326 
L 378.81124 275.320522 
L 382.090579 273.820583 
L 385.369917 280.558422 
L 388.649256 285.009304 
L 391.928595 285.039153 
L 395.207934 282.822776 
L 398.487273 282.784456 
L 398.487273 219.504672 
L 398.487273 219.504672 
L 395.207934 203.293455 
L 391.928595 211.283275 
L 388.649256 209.271884 
L 385.369917 197.54987 
L 382.090579 198.32101 
L 378.81124 196.978089 
L 375.531901 201.458745 
L 372.252562 195.242408 
L 368.973223 204.782572 
L 365.693884 202.7554 
L 362.414545 200.801479 
L 359.135207 196.156355 
L 355.855868 193.795673 
L 352.576529 199.585062 
L 349.29719 185.767844 
L 346.017851 189.329515 
L 342.738512 188.10209 
L 339.459174 183.100497 
L 336.179835 187.380653 
L 332.900496 190.339692 
L 329.621157 184.246886 
L 326.341818 182.300529 
L 323.062479 185.200022 
L 319.78314 187.075184 
L 316.503802 180.768671 
L 313.224463 183.987547 
L 309.945124 187.258808 
L 306.665785 176.098932 
L 303.386446 179.946832 
L 300.107107 174.680284 
L 296.827769 177.215578 
L 293.54843 177.667146 
L 290.269091 187.6458 
L 286.989752 172.126624 
L 283.710413 173.403586 
L 280.431074 181.013268 
L 277.151736 176.94339 
L 273.872397 170.260385 
L 270.593058 175.474837 
L 267.313719 172.54032 
L 264.03438 175.837498 
L 260.755041 177.383139 
L 257.475702 168.666946 
L 254.196364 165.60741 
L 250.917025 179.314298 
L 247.637686 170.1668 
L 244.358347 161.208717 
L 241.079008 164.723623 
L 237.799669 167.694484 
L 234.520331 173.96247 
L 231.240992 174.780313 
L 227.961653 166.423801 
L 224.682314 170.169029 
L 221.402975 167.230361 
L 218.123636 162.929256 
L 214.844298 169.570865 
L 211.564959 169.474969 
L 208.28562 157.584796 
L 205.006281 157.140942 
L 201.726942 159.704153 
L 198.447603 164.683813 
L 195.168264 155.529005 
L 191.888926 160.017435 
L 188.609587 163.382772 
L 185.330248 156.853466 
L 182.050909 158.80115 
L 178.77157 163.220087 
L 175.492231 153.426304 
L 172.212893 164.299614 
L 168.933554 158.925608 
L 165.654215 160.445861 
L 162.374876 159.105846 
L 159.095537 160.037898 
L 155.816198 161.049277 
L 152.53686 154.481336 
L 149.257521 165.112526 
L 145.978182 159.345614 
L 142.698843 158.176048 
L 139.419504 158.342272 
L 136.140165 155.870438 
L 132.860826 161.651043 
L 129.581488 159.567128 
L 126.302149 159.737064 
L 123.02281 160.335044 
L 119.743471 152.975747 
L 116.464132 155.806625 
L 113.184793 155.083091 
L 109.905455 157.329334 
L 106.626116 155.991406 
L 103.346777 157.471549 
L 100.067438 155.080427 
L 96.788099 154.035088 
L 93.50876 156.085852 
L 90.229421 158.447067 
L 86.950083 161.948816 
L 83.670744 163.153046 
L 80.391405 165.237972 
L 77.112066 175.836752 
L 73.832727 214.088218 
z
" style="fill:#d62728;fill-opacity:0.2;"/>
   </g>
   <g id="matplotlib.axis_1">
    <g id="xtick_1">
     <g id="line2d_1">
      <defs>
       <path d="M 0 0 
L 0 3.5 
" id="m55f8acf124" style="stroke:#000000;stroke-width:0.8;"/>
      </defs>
      <g>
       <use style="stroke:#000000;stroke-width:0.8;" x="401.766612" xlink:href="#m55f8acf124" y="307.584"/>
      </g>
     </g>
     <g id="text_1">
      <!-- 0 -->
      <g transform="translate(398.585362 322.182437)scale(0.1 -0.1)">
       <defs>
        <path d="M 31.78125 66.40625 
Q 24.171875 66.40625 20.328125 58.90625 
Q 16.5 51.421875 16.5 36.375 
Q 16.5 21.390625 20.328125 13.890625 
Q 24.171875 6.390625 31.78125 6.390625 
Q 39.453125 6.390625 43.28125 13.890625 
Q 47.125 21.390625 47.125 36.375 
Q 47.125 51.421875 43.28125 58.90625 
Q 39.453125 66.40625 31.78125 66.40625 
z
M 31.78125 74.21875 
Q 44.046875 74.21875 50.515625 64.515625 
Q 56.984375 54.828125 56.984375 36.375 
Q 56.984375 17.96875 50.515625 8.265625 
Q 44.046875 -1.421875 31.78125 -1.421875 
Q 19.53125 -1.421875 13.0625 8.265625 
Q 6.59375 17.96875 6.59375 36.375 
Q 6.59375 54.828125 13.0625 64.515625 
Q 19.53125 74.21875 31.78125 74.21875 
z
" id="DejaVuSans-48"/>
       </defs>
       <use xlink:href="#DejaVuSans-48"/>
      </g>
     </g>
    </g>
    <g id="xtick_2">
     <g id="line2d_2">
      <g>
       <use style="stroke:#000000;stroke-width:0.8;" x="336.179835" xlink:href="#m55f8acf124" y="307.584"/>
      </g>
     </g>
     <g id="text_2">
      <!-- 20 -->
      <g transform="translate(329.817335 322.182437)scale(0.1 -0.1)">
       <defs>
        <path d="M 19.1875 8.296875 
L 53.609375 8.296875 
L 53.609375 0 
L 7.328125 0 
L 7.328125 8.296875 
Q 12.9375 14.109375 22.625 23.890625 
Q 32.328125 33.6875 34.8125 36.53125 
Q 39.546875 41.84375 41.421875 45.53125 
Q 43.3125 49.21875 43.3125 52.78125 
Q 43.3125 58.59375 39.234375 62.25 
Q 35.15625 65.921875 28.609375 65.921875 
Q 23.96875 65.921875 18.8125 64.3125 
Q 13.671875 62.703125 7.8125 59.421875 
L 7.8125 69.390625 
Q 13.765625 71.78125 18.9375 73 
Q 24.125 74.21875 28.421875 74.21875 
Q 39.75 74.21875 46.484375 68.546875 
Q 53.21875 62.890625 53.21875 53.421875 
Q 53.21875 48.921875 51.53125 44.890625 
Q 49.859375 40.875 45.40625 35.40625 
Q 44.1875 33.984375 37.640625 27.21875 
Q 31.109375 20.453125 19.1875 8.296875 
z
" id="DejaVuSans-50"/>
       </defs>
       <use xlink:href="#DejaVuSans-50"/>
       <use x="63.623047" xlink:href="#DejaVuSans-48"/>
      </g>
     </g>
    </g>
    <g id="xtick_3">
     <g id="line2d_3">
      <g>
       <use style="stroke:#000000;stroke-width:0.8;" x="270.593058" xlink:href="#m55f8acf124" y="307.584"/>
      </g>
     </g>
     <g id="text_3">
      <!-- 40 -->
      <g transform="translate(264.230558 322.182437)scale(0.1 -0.1)">
       <defs>
        <path d="M 37.796875 64.3125 
L 12.890625 25.390625 
L 37.796875 25.390625 
z
M 35.203125 72.90625 
L 47.609375 72.90625 
L 47.609375 25.390625 
L 58.015625 25.390625 
L 58.015625 17.1875 
L 47.609375 17.1875 
L 47.609375 0 
L 37.796875 0 
L 37.796875 17.1875 
L 4.890625 17.1875 
L 4.890625 26.703125 
z
" id="DejaVuSans-52"/>
       </defs>
       <use xlink:href="#DejaVuSans-52"/>
       <use x="63.623047" xlink:href="#DejaVuSans-48"/>
      </g>
     </g>
    </g>
    <g id="xtick_4">
     <g id="line2d_4">
      <g>
       <use style="stroke:#000000;stroke-width:0.8;" x="205.006281" xlink:href="#m55f8acf124" y="307.584"/>
      </g>
     </g>
     <g id="text_4">
      <!-- 60 -->
      <g transform="translate(198.643781 322.182437)scale(0.1 -0.1)">
       <defs>
        <path d="M 33.015625 40.375 
Q 26.375 40.375 22.484375 35.828125 
Q 18.609375 31.296875 18.609375 23.390625 
Q 18.609375 15.53125 22.484375 10.953125 
Q 26.375 6.390625 33.015625 6.390625 
Q 39.65625 6.390625 43.53125 10.953125 
Q 47.40625 15.53125 47.40625 23.390625 
Q 47.40625 31.296875 43.53125 35.828125 
Q 39.65625 40.375 33.015625 40.375 
z
M 52.59375 71.296875 
L 52.59375 62.3125 
Q 48.875 64.0625 45.09375 64.984375 
Q 41.3125 65.921875 37.59375 65.921875 
Q 27.828125 65.921875 22.671875 59.328125 
Q 17.53125 52.734375 16.796875 39.40625 
Q 19.671875 43.65625 24.015625 45.921875 
Q 28.375 48.1875 33.59375 48.1875 
Q 44.578125 48.1875 50.953125 41.515625 
Q 57.328125 34.859375 57.328125 23.390625 
Q 57.328125 12.15625 50.6875 5.359375 
Q 44.046875 -1.421875 33.015625 -1.421875 
Q 20.359375 -1.421875 13.671875 8.265625 
Q 6.984375 17.96875 6.984375 36.375 
Q 6.984375 53.65625 15.1875 63.9375 
Q 23.390625 74.21875 37.203125 74.21875 
Q 40.921875 74.21875 44.703125 73.484375 
Q 48.484375 72.75 52.59375 71.296875 
z
" id="DejaVuSans-54"/>
       </defs>
       <use xlink:href="#DejaVuSans-54"/>
       <use x="63.623047" xlink:href="#DejaVuSans-48"/>
      </g>
     </g>
    </g>
    <g id="xtick_5">
     <g id="line2d_5">
      <g>
       <use style="stroke:#000000;stroke-width:0.8;" x="139.419504" xlink:href="#m55f8acf124" y="307.584"/>
      </g>
     </g>
     <g id="text_5">
      <!-- 80 -->
      <g transform="translate(133.057004 322.182437)scale(0.1 -0.1)">
       <defs>
        <path d="M 31.78125 34.625 
Q 24.75 34.625 20.71875 30.859375 
Q 16.703125 27.09375 16.703125 20.515625 
Q 16.703125 13.921875 20.71875 10.15625 
Q 24.75 6.390625 31.78125 6.390625 
Q 38.8125 6.390625 42.859375 10.171875 
Q 46.921875 13.96875 46.921875 20.515625 
Q 46.921875 27.09375 42.890625 30.859375 
Q 38.875 34.625 31.78125 34.625 
z
M 21.921875 38.8125 
Q 15.578125 40.375 12.03125 44.71875 
Q 8.5 49.078125 8.5 55.328125 
Q 8.5 64.0625 14.71875 69.140625 
Q 20.953125 74.21875 31.78125 74.21875 
Q 42.671875 74.21875 48.875 69.140625 
Q 55.078125 64.0625 55.078125 55.328125 
Q 55.078125 49.078125 51.53125 44.71875 
Q 48 40.375 41.703125 38.8125 
Q 48.828125 37.15625 52.796875 32.3125 
Q 56.78125 27.484375 56.78125 20.515625 
Q 56.78125 9.90625 50.3125 4.234375 
Q 43.84375 -1.421875 31.78125 -1.421875 
Q 19.734375 -1.421875 13.25 4.234375 
Q 6.78125 9.90625 6.78125 20.515625 
Q 6.78125 27.484375 10.78125 32.3125 
Q 14.796875 37.15625 21.921875 38.8125 
z
M 18.3125 54.390625 
Q 18.3125 48.734375 21.84375 45.5625 
Q 25.390625 42.390625 31.78125 42.390625 
Q 38.140625 42.390625 41.71875 45.5625 
Q 45.3125 48.734375 45.3125 54.390625 
Q 45.3125 60.0625 41.71875 63.234375 
Q 38.140625 66.40625 31.78125 66.40625 
Q 25.390625 66.40625 21.84375 63.234375 
Q 18.3125 60.0625 18.3125 54.390625 
z
" id="DejaVuSans-56"/>
       </defs>
       <use xlink:href="#DejaVuSans-56"/>
       <use x="63.623047" xlink:href="#DejaVuSans-48"/>
      </g>
     </g>
    </g>
    <g id="xtick_6">
     <g id="line2d_6">
      <g>
       <use style="stroke:#000000;stroke-width:0.8;" x="73.832727" xlink:href="#m55f8acf124" y="307.584"/>
      </g>
     </g>
     <g id="text_6">
      <!-- 100 -->
      <g transform="translate(64.288977 322.182437)scale(0.1 -0.1)">
       <defs>
        <path d="M 12.40625 8.296875 
L 28.515625 8.296875 
L 28.515625 63.921875 
L 10.984375 60.40625 
L 10.984375 69.390625 
L 28.421875 72.90625 
L 38.28125 72.90625 
L 38.28125 8.296875 
L 54.390625 8.296875 
L 54.390625 0 
L 12.40625 0 
z
" id="DejaVuSans-49"/>
       </defs>
       <use xlink:href="#DejaVuSans-49"/>
       <use x="63.623047" xlink:href="#DejaVuSans-48"/>
       <use x="127.246094" xlink:href="#DejaVuSans-48"/>
      </g>
     </g>
    </g>
    <g id="text_7">
     <!-- Number of features -->
     <g transform="translate(187.4225 335.860562)scale(0.1 -0.1)">
      <defs>
       <path d="M 9.8125 72.90625 
L 23.09375 72.90625 
L 55.421875 11.921875 
L 55.421875 72.90625 
L 64.984375 72.90625 
L 64.984375 0 
L 51.703125 0 
L 19.390625 60.984375 
L 19.390625 0 
L 9.8125 0 
z
" id="DejaVuSans-78"/>
       <path d="M 8.5 21.578125 
L 8.5 54.6875 
L 17.484375 54.6875 
L 17.484375 21.921875 
Q 17.484375 14.15625 20.5 10.265625 
Q 23.53125 6.390625 29.59375 6.390625 
Q 36.859375 6.390625 41.078125 11.03125 
Q 45.3125 15.671875 45.3125 23.6875 
L 45.3125 54.6875 
L 54.296875 54.6875 
L 54.296875 0 
L 45.3125 0 
L 45.3125 8.40625 
Q 42.046875 3.421875 37.71875 1 
Q 33.40625 -1.421875 27.6875 -1.421875 
Q 18.265625 -1.421875 13.375 4.4375 
Q 8.5 10.296875 8.5 21.578125 
z
M 31.109375 56 
z
" id="DejaVuSans-117"/>
       <path d="M 52 44.1875 
Q 55.375 50.25 60.0625 53.125 
Q 64.75 56 71.09375 56 
Q 79.640625 56 84.28125 50.015625 
Q 88.921875 44.046875 88.921875 33.015625 
L 88.921875 0 
L 79.890625 0 
L 79.890625 32.71875 
Q 79.890625 40.578125 77.09375 44.375 
Q 74.3125 48.1875 68.609375 48.1875 
Q 61.625 48.1875 57.5625 43.546875 
Q 53.515625 38.921875 53.515625 30.90625 
L 53.515625 0 
L 44.484375 0 
L 44.484375 32.71875 
Q 44.484375 40.625 41.703125 44.40625 
Q 38.921875 48.1875 33.109375 48.1875 
Q 26.21875 48.1875 22.15625 43.53125 
Q 18.109375 38.875 18.109375 30.90625 
L 18.109375 0 
L 9.078125 0 
L 9.078125 54.6875 
L 18.109375 54.6875 
L 18.109375 46.1875 
Q 21.1875 51.21875 25.484375 53.609375 
Q 29.78125 56 35.6875 56 
Q 41.65625 56 45.828125 52.96875 
Q 50 49.953125 52 44.1875 
z
" id="DejaVuSans-109"/>
       <path d="M 48.6875 27.296875 
Q 48.6875 37.203125 44.609375 42.84375 
Q 40.53125 48.484375 33.40625 48.484375 
Q 26.265625 48.484375 22.1875 42.84375 
Q 18.109375 37.203125 18.109375 27.296875 
Q 18.109375 17.390625 22.1875 11.75 
Q 26.265625 6.109375 33.40625 6.109375 
Q 40.53125 6.109375 44.609375 11.75 
Q 48.6875 17.390625 48.6875 27.296875 
z
M 18.109375 46.390625 
Q 20.953125 51.265625 25.265625 53.625 
Q 29.59375 56 35.59375 56 
Q 45.5625 56 51.78125 48.09375 
Q 58.015625 40.1875 58.015625 27.296875 
Q 58.015625 14.40625 51.78125 6.484375 
Q 45.5625 -1.421875 35.59375 -1.421875 
Q 29.59375 -1.421875 25.265625 0.953125 
Q 20.953125 3.328125 18.109375 8.203125 
L 18.109375 0 
L 9.078125 0 
L 9.078125 75.984375 
L 18.109375 75.984375 
z
" id="DejaVuSans-98"/>
       <path d="M 56.203125 29.59375 
L 56.203125 25.203125 
L 14.890625 25.203125 
Q 15.484375 15.921875 20.484375 11.0625 
Q 25.484375 6.203125 34.421875 6.203125 
Q 39.59375 6.203125 44.453125 7.46875 
Q 49.3125 8.734375 54.109375 11.28125 
L 54.109375 2.78125 
Q 49.265625 0.734375 44.1875 -0.34375 
Q 39.109375 -1.421875 33.890625 -1.421875 
Q 20.796875 -1.421875 13.15625 6.1875 
Q 5.515625 13.8125 5.515625 26.8125 
Q 5.515625 40.234375 12.765625 48.109375 
Q 20.015625 56 32.328125 56 
Q 43.359375 56 49.78125 48.890625 
Q 56.203125 41.796875 56.203125 29.59375 
z
M 47.21875 32.234375 
Q 47.125 39.59375 43.09375 43.984375 
Q 39.0625 48.390625 32.421875 48.390625 
Q 24.90625 48.390625 20.390625 44.140625 
Q 15.875 39.890625 15.1875 32.171875 
z
" id="DejaVuSans-101"/>
       <path d="M 41.109375 46.296875 
Q 39.59375 47.171875 37.8125 47.578125 
Q 36.03125 48 33.890625 48 
Q 26.265625 48 22.1875 43.046875 
Q 18.109375 38.09375 18.109375 28.8125 
L 18.109375 0 
L 9.078125 0 
L 9.078125 54.6875 
L 18.109375 54.6875 
L 18.109375 46.1875 
Q 20.953125 51.171875 25.484375 53.578125 
Q 30.03125 56 36.53125 56 
Q 37.453125 56 38.578125 55.875 
Q 39.703125 55.765625 41.0625 55.515625 
z
" id="DejaVuSans-114"/>
       <path id="DejaVuSans-32"/>
       <path d="M 30.609375 48.390625 
Q 23.390625 48.390625 19.1875 42.75 
Q 14.984375 37.109375 14.984375 27.296875 
Q 14.984375 17.484375 19.15625 11.84375 
Q 23.34375 6.203125 30.609375 6.203125 
Q 37.796875 6.203125 41.984375 11.859375 
Q 46.1875 17.53125 46.1875 27.296875 
Q 46.1875 37.015625 41.984375 42.703125 
Q 37.796875 48.390625 30.609375 48.390625 
z
M 30.609375 56 
Q 42.328125 56 49.015625 48.375 
Q 55.71875 40.765625 55.71875 27.296875 
Q 55.71875 13.875 49.015625 6.21875 
Q 42.328125 -1.421875 30.609375 -1.421875 
Q 18.84375 -1.421875 12.171875 6.21875 
Q 5.515625 13.875 5.515625 27.296875 
Q 5.515625 40.765625 12.171875 48.375 
Q 18.84375 56 30.609375 56 
z
" id="DejaVuSans-111"/>
       <path d="M 37.109375 75.984375 
L 37.109375 68.5 
L 28.515625 68.5 
Q 23.6875 68.5 21.796875 66.546875 
Q 19.921875 64.59375 19.921875 59.515625 
L 19.921875 54.6875 
L 34.71875 54.6875 
L 34.71875 47.703125 
L 19.921875 47.703125 
L 19.921875 0 
L 10.890625 0 
L 10.890625 47.703125 
L 2.296875 47.703125 
L 2.296875 54.6875 
L 10.890625 54.6875 
L 10.890625 58.5 
Q 10.890625 67.625 15.140625 71.796875 
Q 19.390625 75.984375 28.609375 75.984375 
z
" id="DejaVuSans-102"/>
       <path d="M 34.28125 27.484375 
Q 23.390625 27.484375 19.1875 25 
Q 14.984375 22.515625 14.984375 16.5 
Q 14.984375 11.71875 18.140625 8.90625 
Q 21.296875 6.109375 26.703125 6.109375 
Q 34.1875 6.109375 38.703125 11.40625 
Q 43.21875 16.703125 43.21875 25.484375 
L 43.21875 27.484375 
z
M 52.203125 31.203125 
L 52.203125 0 
L 43.21875 0 
L 43.21875 8.296875 
Q 40.140625 3.328125 35.546875 0.953125 
Q 30.953125 -1.421875 24.3125 -1.421875 
Q 15.921875 -1.421875 10.953125 3.296875 
Q 6 8.015625 6 15.921875 
Q 6 25.140625 12.171875 29.828125 
Q 18.359375 34.515625 30.609375 34.515625 
L 43.21875 34.515625 
L 43.21875 35.40625 
Q 43.21875 41.609375 39.140625 45 
Q 35.0625 48.390625 27.6875 48.390625 
Q 23 48.390625 18.546875 47.265625 
Q 14.109375 46.140625 10.015625 43.890625 
L 10.015625 52.203125 
Q 14.9375 54.109375 19.578125 55.046875 
Q 24.21875 56 28.609375 56 
Q 40.484375 56 46.34375 49.84375 
Q 52.203125 43.703125 52.203125 31.203125 
z
" id="DejaVuSans-97"/>
       <path d="M 18.3125 70.21875 
L 18.3125 54.6875 
L 36.8125 54.6875 
L 36.8125 47.703125 
L 18.3125 47.703125 
L 18.3125 18.015625 
Q 18.3125 11.328125 20.140625 9.421875 
Q 21.96875 7.515625 27.59375 7.515625 
L 36.8125 7.515625 
L 36.8125 0 
L 27.59375 0 
Q 17.1875 0 13.234375 3.875 
Q 9.28125 7.765625 9.28125 18.015625 
L 9.28125 47.703125 
L 2.6875 47.703125 
L 2.6875 54.6875 
L 9.28125 54.6875 
L 9.28125 70.21875 
z
" id="DejaVuSans-116"/>
       <path d="M 44.28125 53.078125 
L 44.28125 44.578125 
Q 40.484375 46.53125 36.375 47.5 
Q 32.28125 48.484375 27.875 48.484375 
Q 21.1875 48.484375 17.84375 46.4375 
Q 14.5 44.390625 14.5 40.28125 
Q 14.5 37.15625 16.890625 35.375 
Q 19.28125 33.59375 26.515625 31.984375 
L 29.59375 31.296875 
Q 39.15625 29.25 43.1875 25.515625 
Q 47.21875 21.78125 47.21875 15.09375 
Q 47.21875 7.46875 41.1875 3.015625 
Q 35.15625 -1.421875 24.609375 -1.421875 
Q 20.21875 -1.421875 15.453125 -0.5625 
Q 10.6875 0.296875 5.421875 2 
L 5.421875 11.28125 
Q 10.40625 8.6875 15.234375 7.390625 
Q 20.0625 6.109375 24.8125 6.109375 
Q 31.15625 6.109375 34.5625 8.28125 
Q 37.984375 10.453125 37.984375 14.40625 
Q 37.984375 18.0625 35.515625 20.015625 
Q 33.0625 21.96875 24.703125 23.78125 
L 21.578125 24.515625 
Q 13.234375 26.265625 9.515625 29.90625 
Q 5.8125 33.546875 5.8125 39.890625 
Q 5.8125 47.609375 11.28125 51.796875 
Q 16.75 56 26.8125 56 
Q 31.78125 56 36.171875 55.265625 
Q 40.578125 54.546875 44.28125 53.078125 
z
" id="DejaVuSans-115"/>
      </defs>
      <use xlink:href="#DejaVuSans-78"/>
      <use x="74.804688" xlink:href="#DejaVuSans-117"/>
      <use x="138.183594" xlink:href="#DejaVuSans-109"/>
      <use x="235.595703" xlink:href="#DejaVuSans-98"/>
      <use x="299.072266" xlink:href="#DejaVuSans-101"/>
      <use x="360.595703" xlink:href="#DejaVuSans-114"/>
      <use x="401.708984" xlink:href="#DejaVuSans-32"/>
      <use x="433.496094" xlink:href="#DejaVuSans-111"/>
      <use x="494.677734" xlink:href="#DejaVuSans-102"/>
      <use x="529.882812" xlink:href="#DejaVuSans-32"/>
      <use x="561.669922" xlink:href="#DejaVuSans-102"/>
      <use x="596.875" xlink:href="#DejaVuSans-101"/>
      <use x="658.398438" xlink:href="#DejaVuSans-97"/>
      <use x="719.677734" xlink:href="#DejaVuSans-116"/>
      <use x="758.886719" xlink:href="#DejaVuSans-117"/>
      <use x="822.265625" xlink:href="#DejaVuSans-114"/>
      <use x="861.128906" xlink:href="#DejaVuSans-101"/>
      <use x="922.652344" xlink:href="#DejaVuSans-115"/>
     </g>
    </g>
   </g>
   <g id="matplotlib.axis_2">
    <g id="ytick_1">
     <g id="line2d_7">
      <defs>
       <path d="M 0 0 
L -3.5 0 
" id="m913b8f56b0" style="stroke:#000000;stroke-width:0.8;"/>
      </defs>
      <g>
       <use style="stroke:#000000;stroke-width:0.8;" x="57.6" xlink:href="#m913b8f56b0" y="292.597425"/>
      </g>
     </g>
     <g id="text_8">
      <!-- 0.45 -->
      <g transform="translate(28.334375 296.396643)scale(0.1 -0.1)">
       <defs>
        <path d="M 10.6875 12.40625 
L 21 12.40625 
L 21 0 
L 10.6875 0 
z
" id="DejaVuSans-46"/>
        <path d="M 10.796875 72.90625 
L 49.515625 72.90625 
L 49.515625 64.59375 
L 19.828125 64.59375 
L 19.828125 46.734375 
Q 21.96875 47.46875 24.109375 47.828125 
Q 26.265625 48.1875 28.421875 48.1875 
Q 40.625 48.1875 47.75 41.5 
Q 54.890625 34.8125 54.890625 23.390625 
Q 54.890625 11.625 47.5625 5.09375 
Q 40.234375 -1.421875 26.90625 -1.421875 
Q 22.3125 -1.421875 17.546875 -0.640625 
Q 12.796875 0.140625 7.71875 1.703125 
L 7.71875 11.625 
Q 12.109375 9.234375 16.796875 8.0625 
Q 21.484375 6.890625 26.703125 6.890625 
Q 35.15625 6.890625 40.078125 11.328125 
Q 45.015625 15.765625 45.015625 23.390625 
Q 45.015625 31 40.078125 35.4375 
Q 35.15625 39.890625 26.703125 39.890625 
Q 22.75 39.890625 18.8125 39.015625 
Q 14.890625 38.140625 10.796875 36.28125 
z
" id="DejaVuSans-53"/>
       </defs>
       <use xlink:href="#DejaVuSans-48"/>
       <use x="63.623047" xlink:href="#DejaVuSans-46"/>
       <use x="95.410156" xlink:href="#DejaVuSans-52"/>
       <use x="159.033203" xlink:href="#DejaVuSans-53"/>
      </g>
     </g>
    </g>
    <g id="ytick_2">
     <g id="line2d_8">
      <g>
       <use style="stroke:#000000;stroke-width:0.8;" x="57.6" xlink:href="#m913b8f56b0" y="253.342821"/>
      </g>
     </g>
     <g id="text_9">
      <!-- 0.50 -->
      <g transform="translate(28.334375 257.14204)scale(0.1 -0.1)">
       <use xlink:href="#DejaVuSans-48"/>
       <use x="63.623047" xlink:href="#DejaVuSans-46"/>
       <use x="95.410156" xlink:href="#DejaVuSans-53"/>
       <use x="159.033203" xlink:href="#DejaVuSans-48"/>
      </g>
     </g>
    </g>
    <g id="ytick_3">
     <g id="line2d_9">
      <g>
       <use style="stroke:#000000;stroke-width:0.8;" x="57.6" xlink:href="#m913b8f56b0" y="214.088218"/>
      </g>
     </g>
     <g id="text_10">
      <!-- 0.55 -->
      <g transform="translate(28.334375 217.887437)scale(0.1 -0.1)">
       <use xlink:href="#DejaVuSans-48"/>
       <use x="63.623047" xlink:href="#DejaVuSans-46"/>
       <use x="95.410156" xlink:href="#DejaVuSans-53"/>
       <use x="159.033203" xlink:href="#DejaVuSans-53"/>
      </g>
     </g>
    </g>
    <g id="ytick_4">
     <g id="line2d_10">
      <g>
       <use style="stroke:#000000;stroke-width:0.8;" x="57.6" xlink:href="#m913b8f56b0" y="174.833615"/>
      </g>
     </g>
     <g id="text_11">
      <!-- 0.60 -->
      <g transform="translate(28.334375 178.632834)scale(0.1 -0.1)">
       <use xlink:href="#DejaVuSans-48"/>
       <use x="63.623047" xlink:href="#DejaVuSans-46"/>
       <use x="95.410156" xlink:href="#DejaVuSans-54"/>
       <use x="159.033203" xlink:href="#DejaVuSans-48"/>
      </g>
     </g>
    </g>
    <g id="ytick_5">
     <g id="line2d_11">
      <g>
       <use style="stroke:#000000;stroke-width:0.8;" x="57.6" xlink:href="#m913b8f56b0" y="135.579012"/>
      </g>
     </g>
     <g id="text_12">
      <!-- 0.65 -->
      <g transform="translate(28.334375 139.378231)scale(0.1 -0.1)">
       <use xlink:href="#DejaVuSans-48"/>
       <use x="63.623047" xlink:href="#DejaVuSans-46"/>
       <use x="95.410156" xlink:href="#DejaVuSans-54"/>
       <use x="159.033203" xlink:href="#DejaVuSans-53"/>
      </g>
     </g>
    </g>
    <g id="ytick_6">
     <g id="line2d_12">
      <g>
       <use style="stroke:#000000;stroke-width:0.8;" x="57.6" xlink:href="#m913b8f56b0" y="96.324409"/>
      </g>
     </g>
     <g id="text_13">
      <!-- 0.70 -->
      <g transform="translate(28.334375 100.123628)scale(0.1 -0.1)">
       <defs>
        <path d="M 8.203125 72.90625 
L 55.078125 72.90625 
L 55.078125 68.703125 
L 28.609375 0 
L 18.3125 0 
L 43.21875 64.59375 
L 8.203125 64.59375 
z
" id="DejaVuSans-55"/>
       </defs>
       <use xlink:href="#DejaVuSans-48"/>
       <use x="63.623047" xlink:href="#DejaVuSans-46"/>
       <use x="95.410156" xlink:href="#DejaVuSans-55"/>
       <use x="159.033203" xlink:href="#DejaVuSans-48"/>
      </g>
     </g>
    </g>
    <g id="ytick_7">
     <g id="line2d_13">
      <g>
       <use style="stroke:#000000;stroke-width:0.8;" x="57.6" xlink:href="#m913b8f56b0" y="57.069806"/>
      </g>
     </g>
     <g id="text_14">
      <!-- 0.75 -->
      <g transform="translate(28.334375 60.869025)scale(0.1 -0.1)">
       <use xlink:href="#DejaVuSans-48"/>
       <use x="63.623047" xlink:href="#DejaVuSans-46"/>
       <use x="95.410156" xlink:href="#DejaVuSans-55"/>
       <use x="159.033203" xlink:href="#DejaVuSans-53"/>
      </g>
     </g>
    </g>
    <g id="text_15">
     <!-- Accuracy -->
     <g transform="translate(22.254687 197.356125)rotate(-90)scale(0.1 -0.1)">
      <defs>
       <path d="M 34.1875 63.1875 
L 20.796875 26.90625 
L 47.609375 26.90625 
z
M 28.609375 72.90625 
L 39.796875 72.90625 
L 67.578125 0 
L 57.328125 0 
L 50.6875 18.703125 
L 17.828125 18.703125 
L 11.1875 0 
L 0.78125 0 
z
" id="DejaVuSans-65"/>
       <path d="M 48.78125 52.59375 
L 48.78125 44.1875 
Q 44.96875 46.296875 41.140625 47.34375 
Q 37.3125 48.390625 33.40625 48.390625 
Q 24.65625 48.390625 19.8125 42.84375 
Q 14.984375 37.3125 14.984375 27.296875 
Q 14.984375 17.28125 19.8125 11.734375 
Q 24.65625 6.203125 33.40625 6.203125 
Q 37.3125 6.203125 41.140625 7.25 
Q 44.96875 8.296875 48.78125 10.40625 
L 48.78125 2.09375 
Q 45.015625 0.34375 40.984375 -0.53125 
Q 36.96875 -1.421875 32.421875 -1.421875 
Q 20.0625 -1.421875 12.78125 6.34375 
Q 5.515625 14.109375 5.515625 27.296875 
Q 5.515625 40.671875 12.859375 48.328125 
Q 20.21875 56 33.015625 56 
Q 37.15625 56 41.109375 55.140625 
Q 45.0625 54.296875 48.78125 52.59375 
z
" id="DejaVuSans-99"/>
       <path d="M 32.171875 -5.078125 
Q 28.375 -14.84375 24.75 -17.8125 
Q 21.140625 -20.796875 15.09375 -20.796875 
L 7.90625 -20.796875 
L 7.90625 -13.28125 
L 13.1875 -13.28125 
Q 16.890625 -13.28125 18.9375 -11.515625 
Q 21 -9.765625 23.484375 -3.21875 
L 25.09375 0.875 
L 2.984375 54.6875 
L 12.5 54.6875 
L 29.59375 11.921875 
L 46.6875 54.6875 
L 56.203125 54.6875 
z
" id="DejaVuSans-121"/>
      </defs>
      <use xlink:href="#DejaVuSans-65"/>
      <use x="66.658203" xlink:href="#DejaVuSans-99"/>
      <use x="121.638672" xlink:href="#DejaVuSans-99"/>
      <use x="176.619141" xlink:href="#DejaVuSans-117"/>
      <use x="239.998047" xlink:href="#DejaVuSans-114"/>
      <use x="281.111328" xlink:href="#DejaVuSans-97"/>
      <use x="342.390625" xlink:href="#DejaVuSans-99"/>
      <use x="397.371094" xlink:href="#DejaVuSans-121"/>
     </g>
    </g>
   </g>
   <g id="line2d_14">
    <path clip-path="url(#pf0b9162e53)" d="M 73.832727 135.579012 
L 77.112066 131.261006 
L 80.391405 131.653552 
L 83.670744 131.653552 
L 86.950083 132.281626 
L 90.229421 126.943 
L 93.50876 127.257037 
L 96.788099 125.686853 
L 100.067438 125.765362 
L 103.346777 126.943 
L 106.626116 127.649583 
L 109.905455 129.455294 
L 113.184793 125.451325 
L 116.464132 132.83119 
L 119.743471 128.670202 
L 123.02281 130.318896 
L 126.302149 127.96362 
L 129.581488 132.517153 
L 132.860826 127.257037 
L 136.140165 129.141258 
L 139.419504 131.496534 
L 142.698843 132.046098 
L 145.978182 139.661491 
L 149.257521 128.90573 
L 152.53686 135.81454 
L 155.816198 136.285595 
L 159.095537 136.521123 
L 162.374876 137.149197 
L 165.654215 141.310185 
L 168.933554 137.855779 
L 172.212893 140.839129 
L 175.492231 139.661491 
L 178.77157 141.624221 
L 182.050909 146.020737 
L 185.330248 144.215025 
L 188.609587 148.061976 
L 191.888926 140.054037 
L 195.168264 145.471172 
L 198.447603 151.123835 
L 201.726942 152.929547 
L 205.006281 146.177755 
L 208.28562 153.086565 
L 211.564959 157.797118 
L 214.844298 158.896247 
L 218.123636 154.028676 
L 221.402975 155.520351 
L 224.682314 160.309412 
L 227.961653 158.268173 
L 231.240992 158.189664 
L 234.520331 160.230903 
L 237.799669 166.668658 
L 241.079008 168.081824 
L 244.358347 161.48705 
L 247.637686 169.887536 
L 250.917025 172.949395 
L 254.196364 166.119094 
L 257.475702 170.044554 
L 260.755041 176.089763 
L 264.03438 175.854235 
L 267.313719 175.226162 
L 270.593058 175.618708 
L 273.872397 182.213481 
L 277.151736 179.151622 
L 280.431074 183.783665 
L 283.710413 181.114352 
L 286.989752 185.746395 
L 290.269091 187.316579 
L 293.54843 182.998573 
L 296.827769 184.961303 
L 300.107107 192.890733 
L 303.386446 194.382408 
L 306.665785 190.456947 
L 309.945124 199.09296 
L 313.224463 196.737684 
L 316.503802 200.192089 
L 319.78314 198.307868 
L 323.062479 205.452206 
L 326.341818 209.063629 
L 329.621157 208.592574 
L 332.900496 214.323746 
L 336.179835 213.9312 
L 339.459174 215.187347 
L 342.738512 215.187347 
L 346.017851 216.364985 
L 349.29719 222.645722 
L 352.576529 224.058888 
L 355.855868 226.571182 
L 359.135207 231.831299 
L 362.414545 237.091416 
L 365.693884 230.653661 
L 368.973223 240.859858 
L 372.252562 238.033526 
L 375.531901 252.322202 
L 378.81124 254.284932 
L 382.090579 260.487159 
L 385.369917 260.565668 
L 388.649256 267.788515 
L 391.928595 276.424528 
L 395.207934 276.110491 
L 398.487273 279.721915 
" style="fill:none;stroke:#1f77b4;stroke-linecap:square;stroke-width:1.5;"/>
   </g>
   <g id="line2d_15">
    <path clip-path="url(#pf0b9162e53)" d="M 73.832727 135.579012 
L 77.112066 138.248325 
L 80.391405 148.768559 
L 83.670744 155.912897 
L 86.950083 164.627419 
L 90.229421 183.234101 
L 93.50876 192.262659 
L 96.788099 215.030329 
L 100.067438 232.066827 
L 103.346777 237.71949 
L 106.626116 252.008165 
L 109.905455 252.636239 
L 113.184793 259.231012 
L 116.464132 267.867025 
L 119.743471 270.536338 
L 123.02281 276.110491 
L 126.302149 276.26751 
L 129.581488 280.428498 
L 132.860826 282.548246 
L 136.140165 283.647375 
L 139.419504 283.333338 
L 142.698843 283.725884 
L 145.978182 284.510976 
L 149.257521 284.667995 
L 152.53686 284.982032 
L 155.816198 284.510976 
L 159.095537 284.746504 
L 162.374876 284.903522 
L 165.654215 284.746504 
L 168.933554 284.982032 
L 172.212893 284.510976 
L 175.492231 284.746504 
L 178.77157 284.746504 
L 182.050909 284.746504 
L 185.330248 284.825013 
L 188.609587 284.825013 
L 191.888926 284.746504 
L 195.168264 284.825013 
L 198.447603 284.746504 
L 201.726942 284.746504 
L 205.006281 284.746504 
L 208.28562 284.746504 
L 211.564959 284.746504 
L 214.844298 284.746504 
L 218.123636 284.746504 
L 221.402975 284.746504 
L 224.682314 284.746504 
L 227.961653 284.746504 
L 231.240992 284.746504 
L 234.520331 284.746504 
L 237.799669 284.746504 
L 241.079008 284.746504 
L 244.358347 284.746504 
L 247.637686 284.746504 
L 250.917025 284.746504 
L 254.196364 284.746504 
L 257.475702 284.746504 
L 260.755041 284.746504 
L 264.03438 284.746504 
L 267.313719 284.746504 
L 270.593058 284.746504 
L 273.872397 284.746504 
L 277.151736 284.746504 
L 280.431074 284.746504 
L 283.710413 284.746504 
L 286.989752 284.746504 
L 290.269091 284.746504 
L 293.54843 284.746504 
L 296.827769 284.746504 
L 300.107107 284.746504 
L 303.386446 284.746504 
L 306.665785 284.746504 
L 309.945124 284.746504 
L 313.224463 284.746504 
L 316.503802 284.746504 
L 319.78314 284.746504 
L 323.062479 284.746504 
L 326.341818 284.746504 
L 329.621157 284.746504 
L 332.900496 284.746504 
L 336.179835 284.746504 
L 339.459174 284.746504 
L 342.738512 284.746504 
L 346.017851 284.746504 
L 349.29719 284.746504 
L 352.576529 284.746504 
L 355.855868 284.746504 
L 359.135207 284.746504 
L 362.414545 284.746504 
L 365.693884 284.746504 
L 368.973223 284.746504 
L 372.252562 284.746504 
L 375.531901 284.746504 
L 378.81124 284.746504 
L 382.090579 284.746504 
L 385.369917 284.746504 
L 388.649256 284.746504 
L 391.928595 284.746504 
L 395.207934 284.746504 
L 398.487273 284.746504 
" style="fill:none;stroke:#ff7f0e;stroke-linecap:square;stroke-width:1.5;"/>
   </g>
   <g id="line2d_16">
    <path clip-path="url(#pf0b9162e53)" d="M 73.832727 64.92072 
L 77.112066 66.647923 
L 80.391405 68.610653 
L 83.670744 70.887422 
L 86.950083 73.792264 
L 90.229421 77.089651 
L 93.50876 76.147541 
L 96.788099 76.540086 
L 100.067438 75.04841 
L 103.346777 85.961191 
L 106.626116 80.151511 
L 109.905455 83.684427 
L 113.184793 81.800206 
L 116.464132 86.589262 
L 119.743471 88.15945 
L 123.02281 90.907274 
L 126.302149 90.279197 
L 129.581488 96.245896 
L 132.860826 92.712985 
L 136.140165 91.927893 
L 139.419504 95.460806 
L 142.698843 101.898559 
L 145.978182 102.369616 
L 149.257521 99.150739 
L 152.53686 100.563904 
L 155.816198 102.05558 
L 159.095537 103.390238 
L 162.374876 100.720922 
L 165.654215 105.824021 
L 168.933554 106.138057 
L 172.212893 109.042899 
L 175.492231 107.158681 
L 178.77157 116.108731 
L 182.050909 108.179294 
L 185.330248 114.93109 
L 188.609587 117.757421 
L 191.888926 113.125378 
L 195.168264 114.224509 
L 198.447603 111.947738 
L 201.726942 121.761393 
L 205.006281 118.778039 
L 208.28562 121.761393 
L 211.564959 121.211827 
L 214.844298 124.587721 
L 218.123636 128.199146 
L 221.402975 124.430702 
L 224.682314 123.488594 
L 227.961653 130.554422 
L 231.240992 132.9097 
L 234.520331 128.591693 
L 237.799669 139.033417 
L 241.079008 142.016765 
L 244.358347 132.752678 
L 247.637686 134.401374 
L 250.917025 142.487821 
L 254.196364 135.107955 
L 257.475702 139.347455 
L 260.755041 145.549681 
L 264.03438 145.000117 
L 267.313719 136.835159 
L 270.593058 143.822478 
L 273.872397 140.760619 
L 277.151736 145.785213 
L 280.431074 149.475143 
L 283.710413 153.479111 
L 286.989752 152.379982 
L 290.269091 159.288793 
L 293.54843 155.912899 
L 296.827769 160.073887 
L 300.107107 166.982695 
L 303.386446 162.664688 
L 306.665785 159.367302 
L 309.945124 166.119095 
L 313.224463 174.912126 
L 316.503802 164.391893 
L 319.78314 168.552879 
L 323.062479 170.751135 
L 326.341818 173.027904 
L 329.621157 173.577468 
L 332.900496 178.052494 
L 336.179835 180.093731 
L 339.459174 182.841557 
L 342.738512 175.854234 
L 346.017851 183.862176 
L 349.29719 185.746395 
L 352.576529 186.374469 
L 355.855868 183.46963 
L 359.135207 196.031103 
L 362.414545 196.345138 
L 365.693884 197.836815 
L 368.973223 204.274569 
L 372.252562 198.935944 
L 375.531901 206.237301 
L 378.81124 211.261887 
L 382.090579 216.522006 
L 385.369917 217.856665 
L 388.649256 220.368956 
L 391.928595 230.025591 
L 395.207934 234.971669 
L 398.487273 240.545825 
" style="fill:none;stroke:#2ca02c;stroke-linecap:square;stroke-width:1.5;"/>
   </g>
   <g id="line2d_17">
    <path clip-path="url(#pf0b9162e53)" d="M 73.832727 214.088218 
L 77.112066 199.642525 
L 80.391405 190.928003 
L 83.670744 188.25869 
L 86.950083 188.494217 
L 90.229421 187.316579 
L 93.50876 180.250751 
L 96.788099 181.428389 
L 100.067438 184.961303 
L 103.346777 189.279309 
L 106.626116 185.039812 
L 109.905455 184.647266 
L 113.184793 182.606027 
L 116.464132 189.122291 
L 119.743471 182.370499 
L 123.02281 188.337199 
L 126.302149 188.965273 
L 129.581488 190.142911 
L 132.860826 189.043782 
L 136.140165 188.337199 
L 139.419504 193.283279 
L 142.698843 188.965273 
L 145.978182 189.907383 
L 149.257521 194.931972 
L 152.53686 187.159561 
L 155.816198 198.07234 
L 159.095537 195.1675 
L 162.374876 194.539426 
L 165.654215 189.671855 
L 168.933554 192.18415 
L 172.212893 198.778923 
L 175.492231 189.985892 
L 178.77157 200.192089 
L 182.050909 194.853463 
L 185.330248 194.853463 
L 188.609587 194.460917 
L 191.888926 193.675825 
L 195.168264 194.696445 
L 198.447603 203.01842 
L 201.726942 196.031101 
L 205.006281 192.576696 
L 208.28562 197.679794 
L 211.564959 204.274568 
L 214.844298 205.844752 
L 218.123636 200.270598 
L 221.402975 204.03904 
L 224.682314 203.803513 
L 227.961653 203.09693 
L 231.240992 209.613194 
L 234.520331 206.237298 
L 237.799669 203.803513 
L 241.079008 205.295187 
L 244.358347 198.307868 
L 247.637686 212.282507 
L 250.917025 214.716292 
L 254.196364 203.175439 
L 257.475702 205.138169 
L 260.755041 210.476795 
L 264.03438 213.224617 
L 267.313719 213.381636 
L 270.593058 209.220648 
L 273.872397 212.203998 
L 277.151736 214.95182 
L 280.431074 219.112808 
L 283.710413 213.617163 
L 286.989752 211.732942 
L 290.269091 221.939139 
L 293.54843 214.480765 
L 296.827769 217.621133 
L 300.107107 219.819391 
L 303.386446 218.013679 
L 306.665785 213.067599 
L 309.945124 223.509323 
L 313.224463 220.133427 
L 316.503802 219.740881 
L 319.78314 225.943109 
L 323.062479 223.82336 
L 326.341818 217.307096 
L 329.621157 222.80274 
L 332.900496 228.219876 
L 336.179835 228.376894 
L 339.459174 225.864599 
L 342.738512 224.922489 
L 346.017851 231.046207 
L 349.29719 229.004968 
L 352.576529 236.620361 
L 355.855868 232.616391 
L 359.135207 235.756759 
L 362.414545 236.934397 
L 365.693884 239.760729 
L 368.973223 241.880477 
L 372.252562 238.033526 
L 375.531901 238.112036 
L 378.81124 236.149305 
L 382.090579 236.070796 
L 385.369917 239.054146 
L 388.649256 247.140594 
L 391.928595 248.161214 
L 395.207934 243.058116 
L 398.487273 251.144564 
" style="fill:none;stroke:#d62728;stroke-linecap:square;stroke-width:1.5;"/>
   </g>
   <g id="patch_3">
    <path d="M 57.6 307.584 
L 57.6 41.472 
" style="fill:none;stroke:#000000;stroke-linecap:square;stroke-linejoin:miter;stroke-width:0.8;"/>
   </g>
   <g id="patch_4">
    <path d="M 414.72 307.584 
L 414.72 41.472 
" style="fill:none;stroke:#000000;stroke-linecap:square;stroke-linejoin:miter;stroke-width:0.8;"/>
   </g>
   <g id="patch_5">
    <path d="M 57.6 307.584 
L 414.72 307.584 
" style="fill:none;stroke:#000000;stroke-linecap:square;stroke-linejoin:miter;stroke-width:0.8;"/>
   </g>
   <g id="patch_6">
    <path d="M 57.6 41.472 
L 414.72 41.472 
" style="fill:none;stroke:#000000;stroke-linecap:square;stroke-linejoin:miter;stroke-width:0.8;"/>
   </g>
   <g id="text_16">
    <!-- Toy_non_linear_1000_100 -->
    <g transform="translate(159.3225 35.472)scale(0.12 -0.12)">
     <defs>
      <path d="M -0.296875 72.90625 
L 61.375 72.90625 
L 61.375 64.59375 
L 35.5 64.59375 
L 35.5 0 
L 25.59375 0 
L 25.59375 64.59375 
L -0.296875 64.59375 
z
" id="DejaVuSans-84"/>
      <path d="M 50.984375 -16.609375 
L 50.984375 -23.578125 
L -0.984375 -23.578125 
L -0.984375 -16.609375 
z
" id="DejaVuSans-95"/>
      <path d="M 54.890625 33.015625 
L 54.890625 0 
L 45.90625 0 
L 45.90625 32.71875 
Q 45.90625 40.484375 42.875 44.328125 
Q 39.84375 48.1875 33.796875 48.1875 
Q 26.515625 48.1875 22.3125 43.546875 
Q 18.109375 38.921875 18.109375 30.90625 
L 18.109375 0 
L 9.078125 0 
L 9.078125 54.6875 
L 18.109375 54.6875 
L 18.109375 46.1875 
Q 21.34375 51.125 25.703125 53.5625 
Q 30.078125 56 35.796875 56 
Q 45.21875 56 50.046875 50.171875 
Q 54.890625 44.34375 54.890625 33.015625 
z
" id="DejaVuSans-110"/>
      <path d="M 9.421875 75.984375 
L 18.40625 75.984375 
L 18.40625 0 
L 9.421875 0 
z
" id="DejaVuSans-108"/>
      <path d="M 9.421875 54.6875 
L 18.40625 54.6875 
L 18.40625 0 
L 9.421875 0 
z
M 9.421875 75.984375 
L 18.40625 75.984375 
L 18.40625 64.59375 
L 9.421875 64.59375 
z
" id="DejaVuSans-105"/>
     </defs>
     <use xlink:href="#DejaVuSans-84"/>
     <use x="44.083984" xlink:href="#DejaVuSans-111"/>
     <use x="105.265625" xlink:href="#DejaVuSans-121"/>
     <use x="164.445312" xlink:href="#DejaVuSans-95"/>
     <use x="214.445312" xlink:href="#DejaVuSans-110"/>
     <use x="277.824219" xlink:href="#DejaVuSans-111"/>
     <use x="339.005859" xlink:href="#DejaVuSans-110"/>
     <use x="402.384766" xlink:href="#DejaVuSans-95"/>
     <use x="452.384766" xlink:href="#DejaVuSans-108"/>
     <use x="480.167969" xlink:href="#DejaVuSans-105"/>
     <use x="507.951172" xlink:href="#DejaVuSans-110"/>
     <use x="571.330078" xlink:href="#DejaVuSans-101"/>
     <use x="632.853516" xlink:href="#DejaVuSans-97"/>
     <use x="694.132812" xlink:href="#DejaVuSans-114"/>
     <use x="735.246094" xlink:href="#DejaVuSans-95"/>
     <use x="785.246094" xlink:href="#DejaVuSans-49"/>
     <use x="848.869141" xlink:href="#DejaVuSans-48"/>
     <use x="912.492188" xlink:href="#DejaVuSans-48"/>
     <use x="976.115234" xlink:href="#DejaVuSans-48"/>
     <use x="1039.738281" xlink:href="#DejaVuSans-95"/>
     <use x="1089.738281" xlink:href="#DejaVuSans-49"/>
     <use x="1153.361328" xlink:href="#DejaVuSans-48"/>
     <use x="1216.984375" xlink:href="#DejaVuSans-48"/>
    </g>
   </g>
   <g id="legend_1">
    <g id="patch_7">
     <path d="M 211.399687 108.1845 
L 407.72 108.1845 
Q 409.72 108.1845 409.72 106.1845 
L 409.72 48.472 
Q 409.72 46.472 407.72 46.472 
L 211.399687 46.472 
Q 209.399687 46.472 209.399687 48.472 
L 209.399687 106.1845 
Q 209.399687 108.1845 211.399687 108.1845 
z
" style="fill:#ffffff;opacity:0.8;stroke:#cccccc;stroke-linejoin:miter;"/>
    </g>
    <g id="line2d_18">
     <path d="M 213.399687 54.570438 
L 233.399687 54.570438 
" style="fill:none;stroke:#1f77b4;stroke-linecap:square;stroke-width:1.5;"/>
    </g>
    <g id="line2d_19"/>
    <g id="text_17">
     <!-- Random Forest -->
     <g transform="translate(241.399687 58.070438)scale(0.1 -0.1)">
      <defs>
       <path d="M 44.390625 34.1875 
Q 47.5625 33.109375 50.5625 29.59375 
Q 53.5625 26.078125 56.59375 19.921875 
L 66.609375 0 
L 56 0 
L 46.6875 18.703125 
Q 43.0625 26.03125 39.671875 28.421875 
Q 36.28125 30.8125 30.421875 30.8125 
L 19.671875 30.8125 
L 19.671875 0 
L 9.8125 0 
L 9.8125 72.90625 
L 32.078125 72.90625 
Q 44.578125 72.90625 50.734375 67.671875 
Q 56.890625 62.453125 56.890625 51.90625 
Q 56.890625 45.015625 53.6875 40.46875 
Q 50.484375 35.9375 44.390625 34.1875 
z
M 19.671875 64.796875 
L 19.671875 38.921875 
L 32.078125 38.921875 
Q 39.203125 38.921875 42.84375 42.21875 
Q 46.484375 45.515625 46.484375 51.90625 
Q 46.484375 58.296875 42.84375 61.546875 
Q 39.203125 64.796875 32.078125 64.796875 
z
" id="DejaVuSans-82"/>
       <path d="M 45.40625 46.390625 
L 45.40625 75.984375 
L 54.390625 75.984375 
L 54.390625 0 
L 45.40625 0 
L 45.40625 8.203125 
Q 42.578125 3.328125 38.25 0.953125 
Q 33.9375 -1.421875 27.875 -1.421875 
Q 17.96875 -1.421875 11.734375 6.484375 
Q 5.515625 14.40625 5.515625 27.296875 
Q 5.515625 40.1875 11.734375 48.09375 
Q 17.96875 56 27.875 56 
Q 33.9375 56 38.25 53.625 
Q 42.578125 51.265625 45.40625 46.390625 
z
M 14.796875 27.296875 
Q 14.796875 17.390625 18.875 11.75 
Q 22.953125 6.109375 30.078125 6.109375 
Q 37.203125 6.109375 41.296875 11.75 
Q 45.40625 17.390625 45.40625 27.296875 
Q 45.40625 37.203125 41.296875 42.84375 
Q 37.203125 48.484375 30.078125 48.484375 
Q 22.953125 48.484375 18.875 42.84375 
Q 14.796875 37.203125 14.796875 27.296875 
z
" id="DejaVuSans-100"/>
       <path d="M 9.8125 72.90625 
L 51.703125 72.90625 
L 51.703125 64.59375 
L 19.671875 64.59375 
L 19.671875 43.109375 
L 48.578125 43.109375 
L 48.578125 34.8125 
L 19.671875 34.8125 
L 19.671875 0 
L 9.8125 0 
z
" id="DejaVuSans-70"/>
      </defs>
      <use xlink:href="#DejaVuSans-82"/>
      <use x="67.232422" xlink:href="#DejaVuSans-97"/>
      <use x="128.511719" xlink:href="#DejaVuSans-110"/>
      <use x="191.890625" xlink:href="#DejaVuSans-100"/>
      <use x="255.367188" xlink:href="#DejaVuSans-111"/>
      <use x="316.548828" xlink:href="#DejaVuSans-109"/>
      <use x="413.960938" xlink:href="#DejaVuSans-32"/>
      <use x="445.748047" xlink:href="#DejaVuSans-70"/>
      <use x="499.642578" xlink:href="#DejaVuSans-111"/>
      <use x="560.824219" xlink:href="#DejaVuSans-114"/>
      <use x="599.6875" xlink:href="#DejaVuSans-101"/>
      <use x="661.210938" xlink:href="#DejaVuSans-115"/>
      <use x="713.310547" xlink:href="#DejaVuSans-116"/>
     </g>
    </g>
    <g id="line2d_20">
     <path d="M 213.399687 69.248563 
L 233.399687 69.248563 
" style="fill:none;stroke:#ff7f0e;stroke-linecap:square;stroke-width:1.5;"/>
    </g>
    <g id="line2d_21"/>
    <g id="text_18">
     <!-- XGBoost -->
     <g transform="translate(241.399687 72.748563)scale(0.1 -0.1)">
      <defs>
       <path d="M 6.296875 72.90625 
L 16.890625 72.90625 
L 35.015625 45.796875 
L 53.21875 72.90625 
L 63.8125 72.90625 
L 40.375 37.890625 
L 65.375 0 
L 54.78125 0 
L 34.28125 31 
L 13.625 0 
L 2.984375 0 
L 29 38.921875 
z
" id="DejaVuSans-88"/>
       <path d="M 59.515625 10.40625 
L 59.515625 29.984375 
L 43.40625 29.984375 
L 43.40625 38.09375 
L 69.28125 38.09375 
L 69.28125 6.78125 
Q 63.578125 2.734375 56.6875 0.65625 
Q 49.8125 -1.421875 42 -1.421875 
Q 24.90625 -1.421875 15.25 8.5625 
Q 5.609375 18.5625 5.609375 36.375 
Q 5.609375 54.25 15.25 64.234375 
Q 24.90625 74.21875 42 74.21875 
Q 49.125 74.21875 55.546875 72.453125 
Q 61.96875 70.703125 67.390625 67.28125 
L 67.390625 56.78125 
Q 61.921875 61.421875 55.765625 63.765625 
Q 49.609375 66.109375 42.828125 66.109375 
Q 29.4375 66.109375 22.71875 58.640625 
Q 16.015625 51.171875 16.015625 36.375 
Q 16.015625 21.625 22.71875 14.15625 
Q 29.4375 6.6875 42.828125 6.6875 
Q 48.046875 6.6875 52.140625 7.59375 
Q 56.25 8.5 59.515625 10.40625 
z
" id="DejaVuSans-71"/>
       <path d="M 19.671875 34.8125 
L 19.671875 8.109375 
L 35.5 8.109375 
Q 43.453125 8.109375 47.28125 11.40625 
Q 51.125 14.703125 51.125 21.484375 
Q 51.125 28.328125 47.28125 31.5625 
Q 43.453125 34.8125 35.5 34.8125 
z
M 19.671875 64.796875 
L 19.671875 42.828125 
L 34.28125 42.828125 
Q 41.5 42.828125 45.03125 45.53125 
Q 48.578125 48.25 48.578125 53.8125 
Q 48.578125 59.328125 45.03125 62.0625 
Q 41.5 64.796875 34.28125 64.796875 
z
M 9.8125 72.90625 
L 35.015625 72.90625 
Q 46.296875 72.90625 52.390625 68.21875 
Q 58.5 63.53125 58.5 54.890625 
Q 58.5 48.1875 55.375 44.234375 
Q 52.25 40.28125 46.1875 39.3125 
Q 53.46875 37.75 57.5 32.78125 
Q 61.53125 27.828125 61.53125 20.40625 
Q 61.53125 10.640625 54.890625 5.3125 
Q 48.25 0 35.984375 0 
L 9.8125 0 
z
" id="DejaVuSans-66"/>
      </defs>
      <use xlink:href="#DejaVuSans-88"/>
      <use x="68.505859" xlink:href="#DejaVuSans-71"/>
      <use x="145.996094" xlink:href="#DejaVuSans-66"/>
      <use x="214.599609" xlink:href="#DejaVuSans-111"/>
      <use x="275.78125" xlink:href="#DejaVuSans-111"/>
      <use x="336.962891" xlink:href="#DejaVuSans-115"/>
      <use x="389.0625" xlink:href="#DejaVuSans-116"/>
     </g>
    </g>
    <g id="line2d_22">
     <path d="M 213.399687 83.926688 
L 233.399687 83.926688 
" style="fill:none;stroke:#2ca02c;stroke-linecap:square;stroke-width:1.5;"/>
    </g>
    <g id="line2d_23"/>
    <g id="text_19">
     <!-- Neural Network + Regularization -->
     <g transform="translate(241.399687 87.426688)scale(0.1 -0.1)">
      <defs>
       <path d="M 4.203125 54.6875 
L 13.1875 54.6875 
L 24.421875 12.015625 
L 35.59375 54.6875 
L 46.1875 54.6875 
L 57.421875 12.015625 
L 68.609375 54.6875 
L 77.59375 54.6875 
L 63.28125 0 
L 52.6875 0 
L 40.921875 44.828125 
L 29.109375 0 
L 18.5 0 
z
" id="DejaVuSans-119"/>
       <path d="M 9.078125 75.984375 
L 18.109375 75.984375 
L 18.109375 31.109375 
L 44.921875 54.6875 
L 56.390625 54.6875 
L 27.390625 29.109375 
L 57.625 0 
L 45.90625 0 
L 18.109375 26.703125 
L 18.109375 0 
L 9.078125 0 
z
" id="DejaVuSans-107"/>
       <path d="M 46 62.703125 
L 46 35.5 
L 73.1875 35.5 
L 73.1875 27.203125 
L 46 27.203125 
L 46 0 
L 37.796875 0 
L 37.796875 27.203125 
L 10.59375 27.203125 
L 10.59375 35.5 
L 37.796875 35.5 
L 37.796875 62.703125 
z
" id="DejaVuSans-43"/>
       <path d="M 45.40625 27.984375 
Q 45.40625 37.75 41.375 43.109375 
Q 37.359375 48.484375 30.078125 48.484375 
Q 22.859375 48.484375 18.828125 43.109375 
Q 14.796875 37.75 14.796875 27.984375 
Q 14.796875 18.265625 18.828125 12.890625 
Q 22.859375 7.515625 30.078125 7.515625 
Q 37.359375 7.515625 41.375 12.890625 
Q 45.40625 18.265625 45.40625 27.984375 
z
M 54.390625 6.78125 
Q 54.390625 -7.171875 48.1875 -13.984375 
Q 42 -20.796875 29.203125 -20.796875 
Q 24.46875 -20.796875 20.265625 -20.09375 
Q 16.0625 -19.390625 12.109375 -17.921875 
L 12.109375 -9.1875 
Q 16.0625 -11.328125 19.921875 -12.34375 
Q 23.78125 -13.375 27.78125 -13.375 
Q 36.625 -13.375 41.015625 -8.765625 
Q 45.40625 -4.15625 45.40625 5.171875 
L 45.40625 9.625 
Q 42.625 4.78125 38.28125 2.390625 
Q 33.9375 0 27.875 0 
Q 17.828125 0 11.671875 7.65625 
Q 5.515625 15.328125 5.515625 27.984375 
Q 5.515625 40.671875 11.671875 48.328125 
Q 17.828125 56 27.875 56 
Q 33.9375 56 38.28125 53.609375 
Q 42.625 51.21875 45.40625 46.390625 
L 45.40625 54.6875 
L 54.390625 54.6875 
z
" id="DejaVuSans-103"/>
       <path d="M 5.515625 54.6875 
L 48.1875 54.6875 
L 48.1875 46.484375 
L 14.40625 7.171875 
L 48.1875 7.171875 
L 48.1875 0 
L 4.296875 0 
L 4.296875 8.203125 
L 38.09375 47.515625 
L 5.515625 47.515625 
z
" id="DejaVuSans-122"/>
      </defs>
      <use xlink:href="#DejaVuSans-78"/>
      <use x="74.804688" xlink:href="#DejaVuSans-101"/>
      <use x="136.328125" xlink:href="#DejaVuSans-117"/>
      <use x="199.707031" xlink:href="#DejaVuSans-114"/>
      <use x="240.820312" xlink:href="#DejaVuSans-97"/>
      <use x="302.099609" xlink:href="#DejaVuSans-108"/>
      <use x="329.882812" xlink:href="#DejaVuSans-32"/>
      <use x="361.669922" xlink:href="#DejaVuSans-78"/>
      <use x="436.474609" xlink:href="#DejaVuSans-101"/>
      <use x="497.998047" xlink:href="#DejaVuSans-116"/>
      <use x="537.207031" xlink:href="#DejaVuSans-119"/>
      <use x="618.994141" xlink:href="#DejaVuSans-111"/>
      <use x="680.175781" xlink:href="#DejaVuSans-114"/>
      <use x="721.289062" xlink:href="#DejaVuSans-107"/>
      <use x="779.199219" xlink:href="#DejaVuSans-32"/>
      <use x="810.986328" xlink:href="#DejaVuSans-43"/>
      <use x="894.775391" xlink:href="#DejaVuSans-32"/>
      <use x="926.5625" xlink:href="#DejaVuSans-82"/>
      <use x="991.544922" xlink:href="#DejaVuSans-101"/>
      <use x="1053.068359" xlink:href="#DejaVuSans-103"/>
      <use x="1116.544922" xlink:href="#DejaVuSans-117"/>
      <use x="1179.923828" xlink:href="#DejaVuSans-108"/>
      <use x="1207.707031" xlink:href="#DejaVuSans-97"/>
      <use x="1268.986328" xlink:href="#DejaVuSans-114"/>
      <use x="1310.099609" xlink:href="#DejaVuSans-105"/>
      <use x="1337.882812" xlink:href="#DejaVuSans-122"/>
      <use x="1390.373047" xlink:href="#DejaVuSans-97"/>
      <use x="1451.652344" xlink:href="#DejaVuSans-116"/>
      <use x="1490.861328" xlink:href="#DejaVuSans-105"/>
      <use x="1518.644531" xlink:href="#DejaVuSans-111"/>
      <use x="1579.826172" xlink:href="#DejaVuSans-110"/>
     </g>
    </g>
    <g id="line2d_24">
     <path d="M 213.399687 98.604813 
L 233.399687 98.604813 
" style="fill:none;stroke:#d62728;stroke-linecap:square;stroke-width:1.5;"/>
    </g>
    <g id="line2d_25"/>
    <g id="text_20">
     <!-- KNN -->
     <g transform="translate(241.399687 102.104813)scale(0.1 -0.1)">
      <defs>
       <path d="M 9.8125 72.90625 
L 19.671875 72.90625 
L 19.671875 42.09375 
L 52.390625 72.90625 
L 65.09375 72.90625 
L 28.90625 38.921875 
L 67.671875 0 
L 54.6875 0 
L 19.671875 35.109375 
L 19.671875 0 
L 9.8125 0 
z
" id="DejaVuSans-75"/>
      </defs>
      <use xlink:href="#DejaVuSans-75"/>
      <use x="65.576172" xlink:href="#DejaVuSans-78"/>
      <use x="140.380859" xlink:href="#DejaVuSans-78"/>
     </g>
    </g>
   </g>
  </g>
 </g>
 <defs>
  <clipPath id="pf0b9162e53">
   <rect height="266.112" width="357.12" x="57.6" y="41.472"/>
  </clipPath>
 </defs>
</svg>
