<?xml version="1.0" encoding="utf-8" standalone="no"?>
<!DOCTYPE svg PUBLIC "-//W3C//DTD SVG 1.1//EN"
  "http://www.w3.org/Graphics/SVG/1.1/DTD/svg11.dtd">
<!-- Created with matplotlib (https://matplotlib.org/) -->
<svg height="345.6pt" version="1.1" viewBox="0 0 460.8 345.6" width="460.8pt" xmlns="http://www.w3.org/2000/svg" xmlns:xlink="http://www.w3.org/1999/xlink">
 <metadata>
  <rdf:RDF xmlns:cc="http://creativecommons.org/ns#" xmlns:dc="http://purl.org/dc/elements/1.1/" xmlns:rdf="http://www.w3.org/1999/02/22-rdf-syntax-ns#">
   <cc:Work>
    <dc:type rdf:resource="http://purl.org/dc/dcmitype/StillImage"/>
    <dc:date>2023-09-19T16:53:08.048898</dc:date>
    <dc:format>image/svg+xml</dc:format>
    <dc:creator>
     <cc:Agent>
      <dc:title>Matplotlib v3.3.4, https://matplotlib.org/</dc:title>
     </cc:Agent>
    </dc:creator>
   </cc:Work>
  </rdf:RDF>
 </metadata>
 <defs>
  <style type="text/css">*{stroke-linecap:butt;stroke-linejoin:round;}</style>
 </defs>
 <g id="figure_1">
  <g id="patch_1">
   <path d="M 0 345.6 
L 460.8 345.6 
L 460.8 0 
L 0 0 
z
" style="fill:#ffffff;"/>
  </g>
  <g id="axes_1">
   <g id="patch_2">
    <path d="M 57.6 307.584 
L 414.72 307.584 
L 414.72 41.472 
L 57.6 41.472 
z
" style="fill:#ffffff;"/>
   </g>
   <g id="PolyCollection_1">
    <path clip-path="url(#p83eafe6d78)" d="M 73.832727 191.582742 
L 73.832727 191.582742 
L 77.112066 214.476205 
L 80.391405 219.610233 
L 83.670744 222.499199 
L 86.950083 237.263067 
L 90.229421 229.86318 
L 93.50876 236.005731 
L 96.788099 238.568403 
L 100.067438 246.759078 
L 103.346777 256.008223 
L 106.626116 255.054508 
L 109.905455 250.729723 
L 113.184793 257.495034 
L 116.464132 253.360599 
L 119.743471 260.313671 
L 123.02281 254.552946 
L 126.302149 256.691071 
L 129.581488 262.888941 
L 132.860826 275.538266 
L 136.140165 277.704403 
L 139.419504 273.973931 
L 142.698843 258.843658 
L 145.978182 272.306618 
L 149.257521 252.189279 
L 152.53686 263.50824 
L 155.816198 256.514924 
L 159.095537 255.177845 
L 162.374876 258.573841 
L 165.654215 269.669423 
L 168.933554 261.288807 
L 172.212893 255.826961 
L 175.492231 278.148648 
L 178.77157 251.487228 
L 182.050909 266.288638 
L 185.330248 275.32667 
L 188.609587 270.897349 
L 191.888926 260.185964 
L 195.168264 263.49022 
L 198.447603 266.897743 
L 201.726942 253.884008 
L 205.006281 268.701333 
L 208.28562 265.951447 
L 211.564959 258.194552 
L 214.844298 265.233006 
L 218.123636 260.805998 
L 221.402975 254.552946 
L 224.682314 267.579384 
L 227.961653 262.311371 
L 231.240992 252.206455 
L 234.520331 267.382525 
L 237.799669 265.046025 
L 241.079008 267.221918 
L 244.358347 264.630573 
L 247.637686 247.536521 
L 250.917025 268.082483 
L 254.196364 269.563914 
L 257.475702 250.254628 
L 260.755041 256.535119 
L 264.03438 242.724647 
L 267.313719 242.646859 
L 270.593058 259.423778 
L 273.872397 249.809586 
L 277.151736 258.434805 
L 280.431074 260.383914 
L 283.710413 266.637085 
L 286.989752 251.563515 
L 290.269091 246.226635 
L 293.54843 254.571864 
L 296.827769 241.07112 
L 300.107107 245.313767 
L 303.386446 236.691231 
L 306.665785 245.772712 
L 309.945124 249.091255 
L 313.224463 254.414673 
L 316.503802 244.613691 
L 319.78314 230.001764 
L 323.062479 247.338591 
L 326.341818 243.003369 
L 329.621157 243.919597 
L 332.900496 237.024377 
L 336.179835 235.53142 
L 339.459174 231.214732 
L 342.738512 236.835036 
L 346.017851 235.082736 
L 349.29719 223.501936 
L 352.576529 227.431226 
L 355.855868 225.302377 
L 359.135207 218.358479 
L 362.414545 225.421294 
L 365.693884 223.067844 
L 368.973223 213.873953 
L 372.252562 212.711291 
L 375.531901 223.219601 
L 378.81124 208.184887 
L 382.090579 206.781667 
L 385.369917 203.532236 
L 388.649256 204.974009 
L 391.928595 200.03231 
L 395.207934 198.752439 
L 398.487273 191.582742 
L 398.487273 191.582742 
L 398.487273 191.582742 
L 395.207934 182.023146 
L 391.928595 183.133173 
L 388.649256 175.801575 
L 385.369917 179.633247 
L 382.090579 175.188867 
L 378.81124 169.005849 
L 375.531901 162.335782 
L 372.252562 168.064294 
L 368.973223 153.757187 
L 365.693884 166.072387 
L 362.414545 164.913886 
L 359.135207 163.612055 
L 355.855868 156.668157 
L 352.576529 143.784763 
L 349.29719 151.298901 
L 346.017851 145.692848 
L 342.738512 149.915296 
L 339.459174 151.950751 
L 336.179835 154.803761 
L 332.900496 130.606763 
L 329.621157 140.440836 
L 326.341818 148.526761 
L 323.062479 144.191539 
L 319.78314 150.773821 
L 316.503802 143.33159 
L 313.224463 155.039698 
L 309.945124 149.608572 
L 306.665785 140.97762 
L 303.386446 132.134859 
L 300.107107 142.631515 
L 296.827769 139.704465 
L 293.54843 132.178468 
L 290.269091 142.913596 
L 286.989752 141.161565 
L 283.710413 147.597085 
L 280.431074 155.045205 
L 277.151736 137.875122 
L 273.872397 140.525594 
L 270.593058 146.445745 
L 267.313719 130.959029 
L 264.03438 139.245887 
L 260.755041 146.944506 
L 257.475702 142.470451 
L 254.196364 144.670256 
L 250.917025 143.761787 
L 247.637686 145.188558 
L 244.358347 131.679355 
L 241.079008 152.986999 
L 237.799669 142.018448 
L 234.520331 155.216291 
L 231.240992 140.518625 
L 227.961653 142.363203 
L 224.682314 160.994179 
L 221.402975 140.562032 
L 218.123636 133.114031 
L 214.844298 143.026417 
L 211.564959 136.920426 
L 208.28562 133.943329 
L 205.006281 147.922736 
L 201.726942 144.815818 
L 198.447603 137.776831 
L 195.168264 141.184354 
L 191.888926 136.123964 
L 188.609587 134.972175 
L 185.330248 158.026691 
L 182.050909 150.335431 
L 178.77157 137.653003 
L 175.492231 146.840067 
L 172.212893 124.948624 
L 168.933554 144.580716 
L 165.654215 150.539494 
L 162.374876 132.956288 
L 159.095537 143.521982 
L 155.816198 136.210155 
L 152.53686 135.191586 
L 149.257521 144.120649 
L 145.978182 145.5124 
L 142.698843 133.881421 
L 139.419504 143.845087 
L 136.140165 143.699464 
L 132.860826 145.8656 
L 129.581488 126.25129 
L 126.302149 147.983503 
L 123.02281 140.562032 
L 119.743471 143.165954 
L 116.464132 128.609935 
L 113.184793 148.374489 
L 109.905455 132.435761 
L 106.626116 126.916026 
L 103.346777 143.886553 
L 100.067438 150.745799 
L 96.788099 137.427383 
L 93.50876 150.744601 
L 90.229421 144.937658 
L 86.950083 153.072114 
L 83.670744 152.301638 
L 80.391405 159.970402 
L 77.112066 161.519582 
L 73.832727 191.582742 
z
" style="fill:#1f77b4;fill-opacity:0.2;"/>
   </g>
   <g id="PolyCollection_2">
    <path clip-path="url(#p83eafe6d78)" d="M 73.832727 131.835268 
L 73.832727 131.835268 
L 77.112066 141.869555 
L 80.391405 158.63888 
L 83.670744 160.948691 
L 86.950083 168.749561 
L 90.229421 167.938841 
L 93.50876 174.099166 
L 96.788099 174.151263 
L 100.067438 177.953288 
L 103.346777 182.320853 
L 106.626116 189.295142 
L 109.905455 190.756934 
L 113.184793 190.177368 
L 116.464132 190.610113 
L 119.743471 200.763241 
L 123.02281 210.61442 
L 126.302149 198.376444 
L 129.581488 209.931596 
L 132.860826 204.989308 
L 136.140165 204.517203 
L 139.419504 214.619304 
L 142.698843 208.7813 
L 145.978182 210.259534 
L 149.257521 207.771974 
L 152.53686 215.176821 
L 155.816198 219.989143 
L 159.095537 208.604495 
L 162.374876 217.497594 
L 165.654215 218.400423 
L 168.933554 213.866081 
L 172.212893 224.226419 
L 175.492231 219.587032 
L 178.77157 216.151411 
L 182.050909 226.216355 
L 185.330248 216.812675 
L 188.609587 223.322289 
L 191.888926 218.823693 
L 195.168264 218.309757 
L 198.447603 217.037488 
L 201.726942 220.717775 
L 205.006281 219.741228 
L 208.28562 224.164937 
L 211.564959 220.261529 
L 214.844298 209.929483 
L 218.123636 221.739425 
L 221.402975 216.50713 
L 224.682314 223.145075 
L 227.961653 218.054928 
L 231.240992 209.751531 
L 234.520331 215.481731 
L 237.799669 215.805631 
L 241.079008 223.806516 
L 244.358347 211.987202 
L 247.637686 215.481731 
L 250.917025 215.551901 
L 254.196364 217.093097 
L 257.475702 207.624713 
L 260.755041 214.531329 
L 264.03438 207.934893 
L 267.313719 210.064052 
L 270.593058 209.243777 
L 273.872397 213.938199 
L 277.151736 207.624713 
L 280.431074 204.331842 
L 283.710413 209.080912 
L 286.989752 200.03231 
L 290.269091 206.268909 
L 293.54843 208.481879 
L 296.827769 201.316571 
L 300.107107 202.277389 
L 303.386446 201.316571 
L 306.665785 203.532236 
L 309.945124 196.930066 
L 313.224463 206.614322 
L 316.503802 207.363908 
L 319.78314 203.567321 
L 323.062479 201.142337 
L 326.341818 196.930066 
L 329.621157 196.930066 
L 332.900496 191.582742 
L 336.179835 198.125015 
L 339.459174 191.582742 
L 342.738512 191.582742 
L 346.017851 191.582742 
L 349.29719 191.582742 
L 352.576529 191.582742 
L 355.855868 191.582742 
L 359.135207 191.582742 
L 362.414545 191.582742 
L 365.693884 191.582742 
L 368.973223 198.125015 
L 372.252562 191.582742 
L 375.531901 191.582742 
L 378.81124 191.582742 
L 382.090579 191.582742 
L 385.369917 191.582742 
L 388.649256 191.582742 
L 391.928595 191.582742 
L 395.207934 191.582742 
L 398.487273 191.582742 
L 398.487273 191.582742 
L 398.487273 191.582742 
L 395.207934 191.582742 
L 391.928595 191.582742 
L 388.649256 191.582742 
L 385.369917 191.582742 
L 382.090579 191.582742 
L 378.81124 191.582742 
L 375.531901 191.582742 
L 372.252562 191.582742 
L 368.973223 186.235418 
L 365.693884 191.582742 
L 362.414545 191.582742 
L 359.135207 191.582742 
L 355.855868 191.582742 
L 352.576529 191.582742 
L 349.29719 191.582742 
L 346.017851 191.582742 
L 342.738512 191.582742 
L 339.459174 191.582742 
L 336.179835 186.235418 
L 332.900496 191.582742 
L 329.621157 185.040468 
L 326.341818 185.040468 
L 323.062479 184.413045 
L 319.78314 183.18301 
L 316.503802 178.191474 
L 313.224463 180.13601 
L 309.945124 185.040468 
L 306.665785 179.633247 
L 303.386446 180.653963 
L 300.107107 178.498195 
L 296.827769 180.653963 
L 293.54843 174.683604 
L 290.269091 170.921827 
L 286.989752 183.133173 
L 283.710413 177.66942 
L 280.431074 177.638692 
L 277.151736 171.955922 
L 273.872397 169.227284 
L 270.593058 171.531808 
L 267.313719 165.931735 
L 264.03438 170.450793 
L 260.755041 173.413953 
L 257.475702 171.955922 
L 254.196364 160.09764 
L 250.917025 174.783279 
L 247.637686 167.683752 
L 244.358347 172.373231 
L 241.079008 170.113513 
L 237.799669 162.580055 
L 234.520331 167.683752 
L 231.240992 168.634155 
L 227.961653 155.55096 
L 224.682314 164.800206 
L 221.402975 153.513909 
L 218.123636 148.281614 
L 214.844298 167.261253 
L 211.564959 153.344359 
L 208.28562 156.610648 
L 205.006281 150.279811 
L 201.726942 157.667911 
L 198.447603 149.398703 
L 195.168264 144.541586 
L 191.888926 130.883206 
L 188.609587 150.283599 
L 185.330248 148.428566 
L 182.050909 154.55923 
L 178.77157 141.920134 
L 175.492231 140.874412 
L 172.212893 137.429974 
L 168.933554 143.010514 
L 165.654215 130.111526 
L 162.374876 135.794153 
L 159.095537 137.517555 
L 155.816198 128.522806 
L 152.53686 142.894724 
L 149.257521 114.451087 
L 145.978182 120.328173 
L 142.698843 117.026609 
L 139.419504 132.697696 
L 136.140165 112.92606 
L 132.860826 114.843854 
L 129.581488 125.435909 
L 126.302149 109.507223 
L 123.02281 112.80359 
L 119.743471 97.56083 
L 116.464132 110.103857 
L 113.184793 102.171956 
L 109.905455 95.617642 
L 106.626116 105.444081 
L 103.346777 95.689077 
L 100.067438 104.83644 
L 96.788099 102.663717 
L 93.50876 99.130966 
L 90.229421 100.511494 
L 86.950083 108.06542 
L 83.670744 106.306694 
L 80.391405 102.641758 
L 77.112066 115.826235 
L 73.832727 131.835268 
z
" style="fill:#ff7f0e;fill-opacity:0.2;"/>
   </g>
   <g id="PolyCollection_3">
    <path clip-path="url(#p83eafe6d78)" d="M 73.832727 131.835268 
L 73.832727 131.835268 
L 77.112066 152.771765 
L 80.391405 159.554964 
L 83.670744 166.040397 
L 86.950083 176.067065 
L 90.229421 165.952668 
L 93.50876 169.489163 
L 96.788099 165.69315 
L 100.067438 176.989053 
L 103.346777 178.355234 
L 106.626116 175.925455 
L 109.905455 172.306046 
L 113.184793 188.030709 
L 116.464132 165.383388 
L 119.743471 181.924569 
L 123.02281 190.856189 
L 126.302149 182.284751 
L 129.581488 185.339465 
L 132.860826 181.104295 
L 136.140165 199.664927 
L 139.419504 193.591197 
L 142.698843 185.662282 
L 145.978182 187.776639 
L 149.257521 190.238208 
L 152.53686 196.486876 
L 155.816198 197.932007 
L 159.095537 198.13956 
L 162.374876 187.309149 
L 165.654215 203.104004 
L 168.933554 185.566291 
L 172.212893 200.602575 
L 175.492231 204.609718 
L 178.77157 203.971063 
L 182.050909 209.234837 
L 185.330248 214.421207 
L 188.609587 209.993013 
L 191.888926 208.854931 
L 195.168264 212.272778 
L 198.447603 203.872658 
L 201.726942 187.32337 
L 205.006281 213.475599 
L 208.28562 226.567419 
L 211.564959 212.707776 
L 214.844298 215.314655 
L 218.123636 213.621056 
L 221.402975 211.43176 
L 224.682314 221.704992 
L 227.961653 212.134393 
L 231.240992 210.034619 
L 234.520331 225.041323 
L 237.799669 211.564213 
L 241.079008 232.745174 
L 244.358347 222.999537 
L 247.637686 230.436467 
L 250.917025 224.354655 
L 254.196364 233.665704 
L 257.475702 225.539144 
L 260.755041 232.07975 
L 264.03438 222.546523 
L 267.313719 225.270698 
L 270.593058 225.781029 
L 273.872397 225.466817 
L 277.151736 239.270404 
L 280.431074 217.949941 
L 283.710413 233.313618 
L 286.989752 217.48624 
L 290.269091 232.655195 
L 293.54843 230.013083 
L 296.827769 230.945148 
L 300.107107 243.101238 
L 303.386446 233.957301 
L 306.665785 228.026326 
L 309.945124 233.22227 
L 313.224463 249.199852 
L 316.503802 248.440967 
L 319.78314 238.602457 
L 323.062479 229.099485 
L 326.341818 247.788646 
L 329.621157 245.674384 
L 332.900496 214.920675 
L 336.179835 220.230072 
L 339.459174 231.512404 
L 342.738512 218.989935 
L 346.017851 233.527235 
L 349.29719 220.206354 
L 352.576529 238.713788 
L 355.855868 226.959071 
L 359.135207 252.319931 
L 362.414545 236.794454 
L 365.693884 249.076766 
L 368.973223 242.533885 
L 372.252562 233.12081 
L 375.531901 238.233171 
L 378.81124 249.722525 
L 382.090579 238.781314 
L 385.369917 238.85386 
L 388.649256 251.706783 
L 391.928595 259.636263 
L 395.207934 236.642663 
L 398.487273 237.871138 
L 398.487273 97.496361 
L 398.487273 97.496361 
L 395.207934 83.19049 
L 391.928595 76.926183 
L 388.649256 69.32132 
L 385.369917 61.860103 
L 382.090579 53.568 
L 378.81124 73.695476 
L 375.531901 87.57473 
L 372.252562 55.643657 
L 368.973223 80.884116 
L 365.693884 81.510932 
L 362.414545 80.648801 
L 359.135207 89.022312 
L 355.855868 70.170042 
L 352.576529 69.169872 
L 349.29719 64.973264 
L 346.017851 80.331172 
L 342.738512 79.334128 
L 339.459174 72.786405 
L 336.179835 61.364696 
L 332.900496 67.869045 
L 329.621157 90.888062 
L 326.341818 82.799053 
L 323.062479 88.343771 
L 319.78314 78.840797 
L 316.503802 77.366932 
L 313.224463 92.142394 
L 309.945124 81.831087 
L 306.665785 77.467434 
L 303.386446 71.53646 
L 300.107107 85.09656 
L 296.827769 90.082954 
L 293.54843 92.209968 
L 290.269091 90.762809 
L 286.989752 64.108531 
L 283.710413 86.519535 
L 280.431074 72.009477 
L 277.151736 116.411233 
L 273.872397 82.416842 
L 270.593058 97.636971 
L 267.313719 100.537202 
L 264.03438 86.532084 
L 260.755041 85.363505 
L 257.475702 93.09906 
L 254.196364 84.972498 
L 250.917025 76.359307 
L 247.637686 90.591637 
L 244.358347 72.934627 
L 241.079008 91.86778 
L 237.799669 61.665914 
L 234.520331 76.867588 
L 231.240992 82.314696 
L 227.961653 76.630073 
L 224.682314 77.814023 
L 221.402975 73.747862 
L 218.123636 61.998969 
L 214.844298 83.009407 
L 211.564959 73.666791 
L 208.28562 86.096037 
L 205.006281 71.70402 
L 201.726942 71.567363 
L 198.447603 86.086758 
L 195.168264 88.441187 
L 191.888926 71.544888 
L 188.609587 78.771453 
L 185.330248 81.512956 
L 182.050909 78.334681 
L 178.77157 66.86916 
L 175.492231 71.010304 
L 172.212893 58.288157 
L 168.933554 82.884035 
L 165.654215 78.490767 
L 162.374876 73.971482 
L 159.095537 82.260262 
L 155.816198 81.272865 
L 152.53686 81.523046 
L 149.257521 85.381816 
L 145.978182 78.283789 
L 142.698843 67.253698 
L 139.419504 76.054079 
L 136.140165 73.565195 
L 132.860826 82.566232 
L 129.581488 81.915911 
L 126.302149 83.775676 
L 123.02281 77.594138 
L 119.743471 73.38131 
L 116.464132 69.608348 
L 113.184793 79.224666 
L 109.905455 81.804886 
L 106.626116 88.940024 
L 103.346777 92.484993 
L 100.067438 98.630972 
L 96.788099 84.832934 
L 93.50876 87.011668 
L 90.229421 78.598666 
L 86.950083 99.55296 
L 83.670744 91.655385 
L 80.391405 95.750921 
L 77.112066 109.703819 
L 73.832727 131.835268 
z
" style="fill:#2ca02c;fill-opacity:0.2;"/>
   </g>
   <g id="PolyCollection_4">
    <path clip-path="url(#p83eafe6d78)" d="M 73.832727 191.582742 
L 73.832727 191.582742 
L 77.112066 253.088157 
L 80.391405 277.735546 
L 83.670744 290.094905 
L 86.950083 288.329607 
L 90.229421 275.386218 
L 93.50876 277.135162 
L 96.788099 295.488 
L 100.067438 271.176494 
L 103.346777 277.722914 
L 106.626116 280.730285 
L 109.905455 285.108114 
L 113.184793 285.214295 
L 116.464132 262.6117 
L 119.743471 285.108114 
L 123.02281 284.20066 
L 126.302149 264.214845 
L 129.581488 276.100372 
L 132.860826 266.898114 
L 136.140165 283.879463 
L 139.419504 273.153043 
L 142.698843 272.14963 
L 145.978182 273.474745 
L 149.257521 276.47258 
L 152.53686 268.982314 
L 155.816198 261.069925 
L 159.095537 269.260616 
L 162.374876 267.115341 
L 165.654215 265.629766 
L 168.933554 265.875329 
L 172.212893 268.849863 
L 175.492231 280.577051 
L 178.77157 255.375587 
L 182.050909 276.935897 
L 185.330248 259.478638 
L 188.609587 262.053307 
L 191.888926 259.846598 
L 195.168264 277.110938 
L 198.447603 258.601106 
L 201.726942 257.273509 
L 205.006281 254.709249 
L 208.28562 252.205293 
L 211.564959 252.122865 
L 214.844298 256.485111 
L 218.123636 250.699539 
L 221.402975 253.294879 
L 224.682314 268.736757 
L 227.961653 247.998081 
L 231.240992 244.086413 
L 234.520331 260.683287 
L 237.799669 264.617714 
L 241.079008 266.684151 
L 244.358347 256.155186 
L 247.637686 246.591454 
L 250.917025 237.389712 
L 254.196364 264.123221 
L 257.475702 261.597936 
L 260.755041 265.999927 
L 264.03438 254.752787 
L 267.313719 250.327411 
L 270.593058 254.210544 
L 273.872397 263.233085 
L 277.151736 267.514465 
L 280.431074 263.096011 
L 283.710413 268.488662 
L 286.989752 240.808703 
L 290.269091 255.222518 
L 293.54843 249.792449 
L 296.827769 260.649596 
L 300.107107 249.605361 
L 303.386446 231.133596 
L 306.665785 268.996745 
L 309.945124 246.993623 
L 313.224463 251.788459 
L 316.503802 246.88171 
L 319.78314 248.440972 
L 323.062479 242.26032 
L 326.341818 266.022101 
L 329.621157 262.053774 
L 332.900496 253.652701 
L 336.179835 227.927405 
L 339.459174 243.509296 
L 342.738512 241.045738 
L 346.017851 255.086196 
L 349.29719 240.434155 
L 352.576529 241.423527 
L 355.855868 251.595351 
L 359.135207 259.792894 
L 362.414545 251.090084 
L 365.693884 249.85875 
L 368.973223 259.461481 
L 372.252562 233.359349 
L 375.531901 266.455203 
L 378.81124 246.345187 
L 382.090579 258.534046 
L 385.369917 255.200319 
L 388.649256 248.220247 
L 391.928595 261.973435 
L 395.207934 264.193289 
L 398.487273 269.686423 
L 398.487273 69.26593 
L 398.487273 69.26593 
L 395.207934 84.31866 
L 391.928595 88.928413 
L 388.649256 82.36746 
L 385.369917 89.726782 
L 382.090579 91.172852 
L 378.81124 83.047571 
L 375.531901 101.175937 
L 372.252562 64.964723 
L 368.973223 91.440367 
L 365.693884 77.144109 
L 362.414545 75.912774 
L 359.135207 99.4736 
L 355.855868 78.992356 
L 352.576529 77.214686 
L 349.29719 84.178805 
L 346.017851 83.866157 
L 342.738512 103.881362 
L 339.459174 77.518815 
L 336.179835 83.541111 
L 332.900496 94.859248 
L 329.621157 100.797568 
L 326.341818 101.609039 
L 323.062479 66.818296 
L 319.78314 77.366937 
L 316.503802 74.146401 
L 313.224463 95.52854 
L 309.945124 96.738528 
L 306.665785 105.804092 
L 303.386446 79.13997 
L 300.107107 85.762144 
L 296.827769 97.421948 
L 293.54843 93.939702 
L 290.269091 101.654077 
L 286.989752 87.389104 
L 283.710413 88.387933 
L 280.431074 111.704826 
L 277.151736 110.87122 
L 273.872397 94.838459 
L 270.593058 77.572113 
L 267.313719 108.939083 
L 264.03438 100.928859 
L 260.755041 99.241314 
L 257.475702 122.762497 
L 254.196364 120.237212 
L 250.917025 99.172742 
L 247.637686 89.971 
L 244.358347 113.865854 
L 241.079008 116.481332 
L 237.799669 119.742719 
L 234.520331 126.067045 
L 231.240992 99.645738 
L 227.961653 106.488615 
L 224.682314 112.038827 
L 221.402975 105.971615 
L 218.123636 110.956854 
L 214.844298 126.680373 
L 211.564959 92.804236 
L 208.28562 129.765241 
L 205.006281 105.752195 
L 201.726942 121.112176 
L 198.447603 117.39468 
L 195.168264 137.123232 
L 191.888926 118.539087 
L 188.609587 125.891974 
L 185.330248 117.712098 
L 182.050909 122.958879 
L 178.77157 127.789897 
L 175.492231 122.902574 
L 172.212893 129.849963 
L 168.933554 126.84975 
L 165.654215 122.315515 
L 162.374876 138.754183 
L 159.095537 153.3382 
L 155.816198 134.045054 
L 152.53686 138.082159 
L 149.257521 143.736337 
L 145.978182 132.394778 
L 142.698843 144.474438 
L 139.419504 136.301328 
L 136.140165 141.109252 
L 132.860826 160.4805 
L 129.581488 172.787332 
L 126.302149 138.06983 
L 123.02281 169.466842 
L 119.743471 150.635146 
L 116.464132 156.402268 
L 113.184793 142.164319 
L 109.905455 150.635146 
L 106.626116 168.157419 
L 103.346777 167.579942 
L 100.067438 152.617271 
L 96.788099 166.544148 
L 93.50876 166.972745 
L 90.229421 161.551992 
L 86.950083 174.897491 
L 83.670744 164.767547 
L 80.391405 179.516805 
L 77.112066 159.951063 
L 73.832727 191.582742 
z
" style="fill:#d62728;fill-opacity:0.2;"/>
   </g>
   <g id="matplotlib.axis_1">
    <g id="xtick_1">
     <g id="line2d_1">
      <defs>
       <path d="M 0 0 
L 0 3.5 
" id="m80e5f72854" style="stroke:#000000;stroke-width:0.8;"/>
      </defs>
      <g>
       <use style="stroke:#000000;stroke-width:0.8;" x="401.766612" xlink:href="#m80e5f72854" y="307.584"/>
      </g>
     </g>
     <g id="text_1">
      <!-- 0 -->
      <g transform="translate(398.585362 322.182437)scale(0.1 -0.1)">
       <defs>
        <path d="M 31.78125 66.40625 
Q 24.171875 66.40625 20.328125 58.90625 
Q 16.5 51.421875 16.5 36.375 
Q 16.5 21.390625 20.328125 13.890625 
Q 24.171875 6.390625 31.78125 6.390625 
Q 39.453125 6.390625 43.28125 13.890625 
Q 47.125 21.390625 47.125 36.375 
Q 47.125 51.421875 43.28125 58.90625 
Q 39.453125 66.40625 31.78125 66.40625 
z
M 31.78125 74.21875 
Q 44.046875 74.21875 50.515625 64.515625 
Q 56.984375 54.828125 56.984375 36.375 
Q 56.984375 17.96875 50.515625 8.265625 
Q 44.046875 -1.421875 31.78125 -1.421875 
Q 19.53125 -1.421875 13.0625 8.265625 
Q 6.59375 17.96875 6.59375 36.375 
Q 6.59375 54.828125 13.0625 64.515625 
Q 19.53125 74.21875 31.78125 74.21875 
z
" id="DejaVuSans-48"/>
       </defs>
       <use xlink:href="#DejaVuSans-48"/>
      </g>
     </g>
    </g>
    <g id="xtick_2">
     <g id="line2d_2">
      <g>
       <use style="stroke:#000000;stroke-width:0.8;" x="336.179835" xlink:href="#m80e5f72854" y="307.584"/>
      </g>
     </g>
     <g id="text_2">
      <!-- 20 -->
      <g transform="translate(329.817335 322.182437)scale(0.1 -0.1)">
       <defs>
        <path d="M 19.1875 8.296875 
L 53.609375 8.296875 
L 53.609375 0 
L 7.328125 0 
L 7.328125 8.296875 
Q 12.9375 14.109375 22.625 23.890625 
Q 32.328125 33.6875 34.8125 36.53125 
Q 39.546875 41.84375 41.421875 45.53125 
Q 43.3125 49.21875 43.3125 52.78125 
Q 43.3125 58.59375 39.234375 62.25 
Q 35.15625 65.921875 28.609375 65.921875 
Q 23.96875 65.921875 18.8125 64.3125 
Q 13.671875 62.703125 7.8125 59.421875 
L 7.8125 69.390625 
Q 13.765625 71.78125 18.9375 73 
Q 24.125 74.21875 28.421875 74.21875 
Q 39.75 74.21875 46.484375 68.546875 
Q 53.21875 62.890625 53.21875 53.421875 
Q 53.21875 48.921875 51.53125 44.890625 
Q 49.859375 40.875 45.40625 35.40625 
Q 44.1875 33.984375 37.640625 27.21875 
Q 31.109375 20.453125 19.1875 8.296875 
z
" id="DejaVuSans-50"/>
       </defs>
       <use xlink:href="#DejaVuSans-50"/>
       <use x="63.623047" xlink:href="#DejaVuSans-48"/>
      </g>
     </g>
    </g>
    <g id="xtick_3">
     <g id="line2d_3">
      <g>
       <use style="stroke:#000000;stroke-width:0.8;" x="270.593058" xlink:href="#m80e5f72854" y="307.584"/>
      </g>
     </g>
     <g id="text_3">
      <!-- 40 -->
      <g transform="translate(264.230558 322.182437)scale(0.1 -0.1)">
       <defs>
        <path d="M 37.796875 64.3125 
L 12.890625 25.390625 
L 37.796875 25.390625 
z
M 35.203125 72.90625 
L 47.609375 72.90625 
L 47.609375 25.390625 
L 58.015625 25.390625 
L 58.015625 17.1875 
L 47.609375 17.1875 
L 47.609375 0 
L 37.796875 0 
L 37.796875 17.1875 
L 4.890625 17.1875 
L 4.890625 26.703125 
z
" id="DejaVuSans-52"/>
       </defs>
       <use xlink:href="#DejaVuSans-52"/>
       <use x="63.623047" xlink:href="#DejaVuSans-48"/>
      </g>
     </g>
    </g>
    <g id="xtick_4">
     <g id="line2d_4">
      <g>
       <use style="stroke:#000000;stroke-width:0.8;" x="205.006281" xlink:href="#m80e5f72854" y="307.584"/>
      </g>
     </g>
     <g id="text_4">
      <!-- 60 -->
      <g transform="translate(198.643781 322.182437)scale(0.1 -0.1)">
       <defs>
        <path d="M 33.015625 40.375 
Q 26.375 40.375 22.484375 35.828125 
Q 18.609375 31.296875 18.609375 23.390625 
Q 18.609375 15.53125 22.484375 10.953125 
Q 26.375 6.390625 33.015625 6.390625 
Q 39.65625 6.390625 43.53125 10.953125 
Q 47.40625 15.53125 47.40625 23.390625 
Q 47.40625 31.296875 43.53125 35.828125 
Q 39.65625 40.375 33.015625 40.375 
z
M 52.59375 71.296875 
L 52.59375 62.3125 
Q 48.875 64.0625 45.09375 64.984375 
Q 41.3125 65.921875 37.59375 65.921875 
Q 27.828125 65.921875 22.671875 59.328125 
Q 17.53125 52.734375 16.796875 39.40625 
Q 19.671875 43.65625 24.015625 45.921875 
Q 28.375 48.1875 33.59375 48.1875 
Q 44.578125 48.1875 50.953125 41.515625 
Q 57.328125 34.859375 57.328125 23.390625 
Q 57.328125 12.15625 50.6875 5.359375 
Q 44.046875 -1.421875 33.015625 -1.421875 
Q 20.359375 -1.421875 13.671875 8.265625 
Q 6.984375 17.96875 6.984375 36.375 
Q 6.984375 53.65625 15.1875 63.9375 
Q 23.390625 74.21875 37.203125 74.21875 
Q 40.921875 74.21875 44.703125 73.484375 
Q 48.484375 72.75 52.59375 71.296875 
z
" id="DejaVuSans-54"/>
       </defs>
       <use xlink:href="#DejaVuSans-54"/>
       <use x="63.623047" xlink:href="#DejaVuSans-48"/>
      </g>
     </g>
    </g>
    <g id="xtick_5">
     <g id="line2d_5">
      <g>
       <use style="stroke:#000000;stroke-width:0.8;" x="139.419504" xlink:href="#m80e5f72854" y="307.584"/>
      </g>
     </g>
     <g id="text_5">
      <!-- 80 -->
      <g transform="translate(133.057004 322.182437)scale(0.1 -0.1)">
       <defs>
        <path d="M 31.78125 34.625 
Q 24.75 34.625 20.71875 30.859375 
Q 16.703125 27.09375 16.703125 20.515625 
Q 16.703125 13.921875 20.71875 10.15625 
Q 24.75 6.390625 31.78125 6.390625 
Q 38.8125 6.390625 42.859375 10.171875 
Q 46.921875 13.96875 46.921875 20.515625 
Q 46.921875 27.09375 42.890625 30.859375 
Q 38.875 34.625 31.78125 34.625 
z
M 21.921875 38.8125 
Q 15.578125 40.375 12.03125 44.71875 
Q 8.5 49.078125 8.5 55.328125 
Q 8.5 64.0625 14.71875 69.140625 
Q 20.953125 74.21875 31.78125 74.21875 
Q 42.671875 74.21875 48.875 69.140625 
Q 55.078125 64.0625 55.078125 55.328125 
Q 55.078125 49.078125 51.53125 44.71875 
Q 48 40.375 41.703125 38.8125 
Q 48.828125 37.15625 52.796875 32.3125 
Q 56.78125 27.484375 56.78125 20.515625 
Q 56.78125 9.90625 50.3125 4.234375 
Q 43.84375 -1.421875 31.78125 -1.421875 
Q 19.734375 -1.421875 13.25 4.234375 
Q 6.78125 9.90625 6.78125 20.515625 
Q 6.78125 27.484375 10.78125 32.3125 
Q 14.796875 37.15625 21.921875 38.8125 
z
M 18.3125 54.390625 
Q 18.3125 48.734375 21.84375 45.5625 
Q 25.390625 42.390625 31.78125 42.390625 
Q 38.140625 42.390625 41.71875 45.5625 
Q 45.3125 48.734375 45.3125 54.390625 
Q 45.3125 60.0625 41.71875 63.234375 
Q 38.140625 66.40625 31.78125 66.40625 
Q 25.390625 66.40625 21.84375 63.234375 
Q 18.3125 60.0625 18.3125 54.390625 
z
" id="DejaVuSans-56"/>
       </defs>
       <use xlink:href="#DejaVuSans-56"/>
       <use x="63.623047" xlink:href="#DejaVuSans-48"/>
      </g>
     </g>
    </g>
    <g id="xtick_6">
     <g id="line2d_6">
      <g>
       <use style="stroke:#000000;stroke-width:0.8;" x="73.832727" xlink:href="#m80e5f72854" y="307.584"/>
      </g>
     </g>
     <g id="text_6">
      <!-- 100 -->
      <g transform="translate(64.288977 322.182437)scale(0.1 -0.1)">
       <defs>
        <path d="M 12.40625 8.296875 
L 28.515625 8.296875 
L 28.515625 63.921875 
L 10.984375 60.40625 
L 10.984375 69.390625 
L 28.421875 72.90625 
L 38.28125 72.90625 
L 38.28125 8.296875 
L 54.390625 8.296875 
L 54.390625 0 
L 12.40625 0 
z
" id="DejaVuSans-49"/>
       </defs>
       <use xlink:href="#DejaVuSans-49"/>
       <use x="63.623047" xlink:href="#DejaVuSans-48"/>
       <use x="127.246094" xlink:href="#DejaVuSans-48"/>
      </g>
     </g>
    </g>
    <g id="text_7">
     <!-- Number of features -->
     <g transform="translate(187.4225 335.860562)scale(0.1 -0.1)">
      <defs>
       <path d="M 9.8125 72.90625 
L 23.09375 72.90625 
L 55.421875 11.921875 
L 55.421875 72.90625 
L 64.984375 72.90625 
L 64.984375 0 
L 51.703125 0 
L 19.390625 60.984375 
L 19.390625 0 
L 9.8125 0 
z
" id="DejaVuSans-78"/>
       <path d="M 8.5 21.578125 
L 8.5 54.6875 
L 17.484375 54.6875 
L 17.484375 21.921875 
Q 17.484375 14.15625 20.5 10.265625 
Q 23.53125 6.390625 29.59375 6.390625 
Q 36.859375 6.390625 41.078125 11.03125 
Q 45.3125 15.671875 45.3125 23.6875 
L 45.3125 54.6875 
L 54.296875 54.6875 
L 54.296875 0 
L 45.3125 0 
L 45.3125 8.40625 
Q 42.046875 3.421875 37.71875 1 
Q 33.40625 -1.421875 27.6875 -1.421875 
Q 18.265625 -1.421875 13.375 4.4375 
Q 8.5 10.296875 8.5 21.578125 
z
M 31.109375 56 
z
" id="DejaVuSans-117"/>
       <path d="M 52 44.1875 
Q 55.375 50.25 60.0625 53.125 
Q 64.75 56 71.09375 56 
Q 79.640625 56 84.28125 50.015625 
Q 88.921875 44.046875 88.921875 33.015625 
L 88.921875 0 
L 79.890625 0 
L 79.890625 32.71875 
Q 79.890625 40.578125 77.09375 44.375 
Q 74.3125 48.1875 68.609375 48.1875 
Q 61.625 48.1875 57.5625 43.546875 
Q 53.515625 38.921875 53.515625 30.90625 
L 53.515625 0 
L 44.484375 0 
L 44.484375 32.71875 
Q 44.484375 40.625 41.703125 44.40625 
Q 38.921875 48.1875 33.109375 48.1875 
Q 26.21875 48.1875 22.15625 43.53125 
Q 18.109375 38.875 18.109375 30.90625 
L 18.109375 0 
L 9.078125 0 
L 9.078125 54.6875 
L 18.109375 54.6875 
L 18.109375 46.1875 
Q 21.1875 51.21875 25.484375 53.609375 
Q 29.78125 56 35.6875 56 
Q 41.65625 56 45.828125 52.96875 
Q 50 49.953125 52 44.1875 
z
" id="DejaVuSans-109"/>
       <path d="M 48.6875 27.296875 
Q 48.6875 37.203125 44.609375 42.84375 
Q 40.53125 48.484375 33.40625 48.484375 
Q 26.265625 48.484375 22.1875 42.84375 
Q 18.109375 37.203125 18.109375 27.296875 
Q 18.109375 17.390625 22.1875 11.75 
Q 26.265625 6.109375 33.40625 6.109375 
Q 40.53125 6.109375 44.609375 11.75 
Q 48.6875 17.390625 48.6875 27.296875 
z
M 18.109375 46.390625 
Q 20.953125 51.265625 25.265625 53.625 
Q 29.59375 56 35.59375 56 
Q 45.5625 56 51.78125 48.09375 
Q 58.015625 40.1875 58.015625 27.296875 
Q 58.015625 14.40625 51.78125 6.484375 
Q 45.5625 -1.421875 35.59375 -1.421875 
Q 29.59375 -1.421875 25.265625 0.953125 
Q 20.953125 3.328125 18.109375 8.203125 
L 18.109375 0 
L 9.078125 0 
L 9.078125 75.984375 
L 18.109375 75.984375 
z
" id="DejaVuSans-98"/>
       <path d="M 56.203125 29.59375 
L 56.203125 25.203125 
L 14.890625 25.203125 
Q 15.484375 15.921875 20.484375 11.0625 
Q 25.484375 6.203125 34.421875 6.203125 
Q 39.59375 6.203125 44.453125 7.46875 
Q 49.3125 8.734375 54.109375 11.28125 
L 54.109375 2.78125 
Q 49.265625 0.734375 44.1875 -0.34375 
Q 39.109375 -1.421875 33.890625 -1.421875 
Q 20.796875 -1.421875 13.15625 6.1875 
Q 5.515625 13.8125 5.515625 26.8125 
Q 5.515625 40.234375 12.765625 48.109375 
Q 20.015625 56 32.328125 56 
Q 43.359375 56 49.78125 48.890625 
Q 56.203125 41.796875 56.203125 29.59375 
z
M 47.21875 32.234375 
Q 47.125 39.59375 43.09375 43.984375 
Q 39.0625 48.390625 32.421875 48.390625 
Q 24.90625 48.390625 20.390625 44.140625 
Q 15.875 39.890625 15.1875 32.171875 
z
" id="DejaVuSans-101"/>
       <path d="M 41.109375 46.296875 
Q 39.59375 47.171875 37.8125 47.578125 
Q 36.03125 48 33.890625 48 
Q 26.265625 48 22.1875 43.046875 
Q 18.109375 38.09375 18.109375 28.8125 
L 18.109375 0 
L 9.078125 0 
L 9.078125 54.6875 
L 18.109375 54.6875 
L 18.109375 46.1875 
Q 20.953125 51.171875 25.484375 53.578125 
Q 30.03125 56 36.53125 56 
Q 37.453125 56 38.578125 55.875 
Q 39.703125 55.765625 41.0625 55.515625 
z
" id="DejaVuSans-114"/>
       <path id="DejaVuSans-32"/>
       <path d="M 30.609375 48.390625 
Q 23.390625 48.390625 19.1875 42.75 
Q 14.984375 37.109375 14.984375 27.296875 
Q 14.984375 17.484375 19.15625 11.84375 
Q 23.34375 6.203125 30.609375 6.203125 
Q 37.796875 6.203125 41.984375 11.859375 
Q 46.1875 17.53125 46.1875 27.296875 
Q 46.1875 37.015625 41.984375 42.703125 
Q 37.796875 48.390625 30.609375 48.390625 
z
M 30.609375 56 
Q 42.328125 56 49.015625 48.375 
Q 55.71875 40.765625 55.71875 27.296875 
Q 55.71875 13.875 49.015625 6.21875 
Q 42.328125 -1.421875 30.609375 -1.421875 
Q 18.84375 -1.421875 12.171875 6.21875 
Q 5.515625 13.875 5.515625 27.296875 
Q 5.515625 40.765625 12.171875 48.375 
Q 18.84375 56 30.609375 56 
z
" id="DejaVuSans-111"/>
       <path d="M 37.109375 75.984375 
L 37.109375 68.5 
L 28.515625 68.5 
Q 23.6875 68.5 21.796875 66.546875 
Q 19.921875 64.59375 19.921875 59.515625 
L 19.921875 54.6875 
L 34.71875 54.6875 
L 34.71875 47.703125 
L 19.921875 47.703125 
L 19.921875 0 
L 10.890625 0 
L 10.890625 47.703125 
L 2.296875 47.703125 
L 2.296875 54.6875 
L 10.890625 54.6875 
L 10.890625 58.5 
Q 10.890625 67.625 15.140625 71.796875 
Q 19.390625 75.984375 28.609375 75.984375 
z
" id="DejaVuSans-102"/>
       <path d="M 34.28125 27.484375 
Q 23.390625 27.484375 19.1875 25 
Q 14.984375 22.515625 14.984375 16.5 
Q 14.984375 11.71875 18.140625 8.90625 
Q 21.296875 6.109375 26.703125 6.109375 
Q 34.1875 6.109375 38.703125 11.40625 
Q 43.21875 16.703125 43.21875 25.484375 
L 43.21875 27.484375 
z
M 52.203125 31.203125 
L 52.203125 0 
L 43.21875 0 
L 43.21875 8.296875 
Q 40.140625 3.328125 35.546875 0.953125 
Q 30.953125 -1.421875 24.3125 -1.421875 
Q 15.921875 -1.421875 10.953125 3.296875 
Q 6 8.015625 6 15.921875 
Q 6 25.140625 12.171875 29.828125 
Q 18.359375 34.515625 30.609375 34.515625 
L 43.21875 34.515625 
L 43.21875 35.40625 
Q 43.21875 41.609375 39.140625 45 
Q 35.0625 48.390625 27.6875 48.390625 
Q 23 48.390625 18.546875 47.265625 
Q 14.109375 46.140625 10.015625 43.890625 
L 10.015625 52.203125 
Q 14.9375 54.109375 19.578125 55.046875 
Q 24.21875 56 28.609375 56 
Q 40.484375 56 46.34375 49.84375 
Q 52.203125 43.703125 52.203125 31.203125 
z
" id="DejaVuSans-97"/>
       <path d="M 18.3125 70.21875 
L 18.3125 54.6875 
L 36.8125 54.6875 
L 36.8125 47.703125 
L 18.3125 47.703125 
L 18.3125 18.015625 
Q 18.3125 11.328125 20.140625 9.421875 
Q 21.96875 7.515625 27.59375 7.515625 
L 36.8125 7.515625 
L 36.8125 0 
L 27.59375 0 
Q 17.1875 0 13.234375 3.875 
Q 9.28125 7.765625 9.28125 18.015625 
L 9.28125 47.703125 
L 2.6875 47.703125 
L 2.6875 54.6875 
L 9.28125 54.6875 
L 9.28125 70.21875 
z
" id="DejaVuSans-116"/>
       <path d="M 44.28125 53.078125 
L 44.28125 44.578125 
Q 40.484375 46.53125 36.375 47.5 
Q 32.28125 48.484375 27.875 48.484375 
Q 21.1875 48.484375 17.84375 46.4375 
Q 14.5 44.390625 14.5 40.28125 
Q 14.5 37.15625 16.890625 35.375 
Q 19.28125 33.59375 26.515625 31.984375 
L 29.59375 31.296875 
Q 39.15625 29.25 43.1875 25.515625 
Q 47.21875 21.78125 47.21875 15.09375 
Q 47.21875 7.46875 41.1875 3.015625 
Q 35.15625 -1.421875 24.609375 -1.421875 
Q 20.21875 -1.421875 15.453125 -0.5625 
Q 10.6875 0.296875 5.421875 2 
L 5.421875 11.28125 
Q 10.40625 8.6875 15.234375 7.390625 
Q 20.0625 6.109375 24.8125 6.109375 
Q 31.15625 6.109375 34.5625 8.28125 
Q 37.984375 10.453125 37.984375 14.40625 
Q 37.984375 18.0625 35.515625 20.015625 
Q 33.0625 21.96875 24.703125 23.78125 
L 21.578125 24.515625 
Q 13.234375 26.265625 9.515625 29.90625 
Q 5.8125 33.546875 5.8125 39.890625 
Q 5.8125 47.609375 11.28125 51.796875 
Q 16.75 56 26.8125 56 
Q 31.78125 56 36.171875 55.265625 
Q 40.578125 54.546875 44.28125 53.078125 
z
" id="DejaVuSans-115"/>
      </defs>
      <use xlink:href="#DejaVuSans-78"/>
      <use x="74.804688" xlink:href="#DejaVuSans-117"/>
      <use x="138.183594" xlink:href="#DejaVuSans-109"/>
      <use x="235.595703" xlink:href="#DejaVuSans-98"/>
      <use x="299.072266" xlink:href="#DejaVuSans-101"/>
      <use x="360.595703" xlink:href="#DejaVuSans-114"/>
      <use x="401.708984" xlink:href="#DejaVuSans-32"/>
      <use x="433.496094" xlink:href="#DejaVuSans-111"/>
      <use x="494.677734" xlink:href="#DejaVuSans-102"/>
      <use x="529.882812" xlink:href="#DejaVuSans-32"/>
      <use x="561.669922" xlink:href="#DejaVuSans-102"/>
      <use x="596.875" xlink:href="#DejaVuSans-101"/>
      <use x="658.398438" xlink:href="#DejaVuSans-97"/>
      <use x="719.677734" xlink:href="#DejaVuSans-116"/>
      <use x="758.886719" xlink:href="#DejaVuSans-117"/>
      <use x="822.265625" xlink:href="#DejaVuSans-114"/>
      <use x="861.128906" xlink:href="#DejaVuSans-101"/>
      <use x="922.652344" xlink:href="#DejaVuSans-115"/>
     </g>
    </g>
   </g>
   <g id="matplotlib.axis_2">
    <g id="ytick_1">
     <g id="line2d_7">
      <defs>
       <path d="M 0 0 
L -3.5 0 
" id="m055cd93408" style="stroke:#000000;stroke-width:0.8;"/>
      </defs>
      <g>
       <use style="stroke:#000000;stroke-width:0.8;" x="57.6" xlink:href="#m055cd93408" y="281.203952"/>
      </g>
     </g>
     <g id="text_8">
      <!-- 0.25 -->
      <g transform="translate(28.334375 285.003171)scale(0.1 -0.1)">
       <defs>
        <path d="M 10.6875 12.40625 
L 21 12.40625 
L 21 0 
L 10.6875 0 
z
" id="DejaVuSans-46"/>
        <path d="M 10.796875 72.90625 
L 49.515625 72.90625 
L 49.515625 64.59375 
L 19.828125 64.59375 
L 19.828125 46.734375 
Q 21.96875 47.46875 24.109375 47.828125 
Q 26.265625 48.1875 28.421875 48.1875 
Q 40.625 48.1875 47.75 41.5 
Q 54.890625 34.8125 54.890625 23.390625 
Q 54.890625 11.625 47.5625 5.09375 
Q 40.234375 -1.421875 26.90625 -1.421875 
Q 22.3125 -1.421875 17.546875 -0.640625 
Q 12.796875 0.140625 7.71875 1.703125 
L 7.71875 11.625 
Q 12.109375 9.234375 16.796875 8.0625 
Q 21.484375 6.890625 26.703125 6.890625 
Q 35.15625 6.890625 40.078125 11.328125 
Q 45.015625 15.765625 45.015625 23.390625 
Q 45.015625 31 40.078125 35.4375 
Q 35.15625 39.890625 26.703125 39.890625 
Q 22.75 39.890625 18.8125 39.015625 
Q 14.890625 38.140625 10.796875 36.28125 
z
" id="DejaVuSans-53"/>
       </defs>
       <use xlink:href="#DejaVuSans-48"/>
       <use x="63.623047" xlink:href="#DejaVuSans-46"/>
       <use x="95.410156" xlink:href="#DejaVuSans-50"/>
       <use x="159.033203" xlink:href="#DejaVuSans-53"/>
      </g>
     </g>
    </g>
    <g id="ytick_2">
     <g id="line2d_8">
      <g>
       <use style="stroke:#000000;stroke-width:0.8;" x="57.6" xlink:href="#m055cd93408" y="251.330215"/>
      </g>
     </g>
     <g id="text_9">
      <!-- 0.30 -->
      <g transform="translate(28.334375 255.129434)scale(0.1 -0.1)">
       <defs>
        <path d="M 40.578125 39.3125 
Q 47.65625 37.796875 51.625 33 
Q 55.609375 28.21875 55.609375 21.1875 
Q 55.609375 10.40625 48.1875 4.484375 
Q 40.765625 -1.421875 27.09375 -1.421875 
Q 22.515625 -1.421875 17.65625 -0.515625 
Q 12.796875 0.390625 7.625 2.203125 
L 7.625 11.71875 
Q 11.71875 9.328125 16.59375 8.109375 
Q 21.484375 6.890625 26.8125 6.890625 
Q 36.078125 6.890625 40.9375 10.546875 
Q 45.796875 14.203125 45.796875 21.1875 
Q 45.796875 27.640625 41.28125 31.265625 
Q 36.765625 34.90625 28.71875 34.90625 
L 20.21875 34.90625 
L 20.21875 43.015625 
L 29.109375 43.015625 
Q 36.375 43.015625 40.234375 45.921875 
Q 44.09375 48.828125 44.09375 54.296875 
Q 44.09375 59.90625 40.109375 62.90625 
Q 36.140625 65.921875 28.71875 65.921875 
Q 24.65625 65.921875 20.015625 65.03125 
Q 15.375 64.15625 9.8125 62.3125 
L 9.8125 71.09375 
Q 15.4375 72.65625 20.34375 73.4375 
Q 25.25 74.21875 29.59375 74.21875 
Q 40.828125 74.21875 47.359375 69.109375 
Q 53.90625 64.015625 53.90625 55.328125 
Q 53.90625 49.265625 50.4375 45.09375 
Q 46.96875 40.921875 40.578125 39.3125 
z
" id="DejaVuSans-51"/>
       </defs>
       <use xlink:href="#DejaVuSans-48"/>
       <use x="63.623047" xlink:href="#DejaVuSans-46"/>
       <use x="95.410156" xlink:href="#DejaVuSans-51"/>
       <use x="159.033203" xlink:href="#DejaVuSans-48"/>
      </g>
     </g>
    </g>
    <g id="ytick_3">
     <g id="line2d_9">
      <g>
       <use style="stroke:#000000;stroke-width:0.8;" x="57.6" xlink:href="#m055cd93408" y="221.456478"/>
      </g>
     </g>
     <g id="text_10">
      <!-- 0.35 -->
      <g transform="translate(28.334375 225.255697)scale(0.1 -0.1)">
       <use xlink:href="#DejaVuSans-48"/>
       <use x="63.623047" xlink:href="#DejaVuSans-46"/>
       <use x="95.410156" xlink:href="#DejaVuSans-51"/>
       <use x="159.033203" xlink:href="#DejaVuSans-53"/>
      </g>
     </g>
    </g>
    <g id="ytick_4">
     <g id="line2d_10">
      <g>
       <use style="stroke:#000000;stroke-width:0.8;" x="57.6" xlink:href="#m055cd93408" y="191.582742"/>
      </g>
     </g>
     <g id="text_11">
      <!-- 0.40 -->
      <g transform="translate(28.334375 195.38196)scale(0.1 -0.1)">
       <use xlink:href="#DejaVuSans-48"/>
       <use x="63.623047" xlink:href="#DejaVuSans-46"/>
       <use x="95.410156" xlink:href="#DejaVuSans-52"/>
       <use x="159.033203" xlink:href="#DejaVuSans-48"/>
      </g>
     </g>
    </g>
    <g id="ytick_5">
     <g id="line2d_11">
      <g>
       <use style="stroke:#000000;stroke-width:0.8;" x="57.6" xlink:href="#m055cd93408" y="161.709005"/>
      </g>
     </g>
     <g id="text_12">
      <!-- 0.45 -->
      <g transform="translate(28.334375 165.508224)scale(0.1 -0.1)">
       <use xlink:href="#DejaVuSans-48"/>
       <use x="63.623047" xlink:href="#DejaVuSans-46"/>
       <use x="95.410156" xlink:href="#DejaVuSans-52"/>
       <use x="159.033203" xlink:href="#DejaVuSans-53"/>
      </g>
     </g>
    </g>
    <g id="ytick_6">
     <g id="line2d_12">
      <g>
       <use style="stroke:#000000;stroke-width:0.8;" x="57.6" xlink:href="#m055cd93408" y="131.835268"/>
      </g>
     </g>
     <g id="text_13">
      <!-- 0.50 -->
      <g transform="translate(28.334375 135.634487)scale(0.1 -0.1)">
       <use xlink:href="#DejaVuSans-48"/>
       <use x="63.623047" xlink:href="#DejaVuSans-46"/>
       <use x="95.410156" xlink:href="#DejaVuSans-53"/>
       <use x="159.033203" xlink:href="#DejaVuSans-48"/>
      </g>
     </g>
    </g>
    <g id="ytick_7">
     <g id="line2d_13">
      <g>
       <use style="stroke:#000000;stroke-width:0.8;" x="57.6" xlink:href="#m055cd93408" y="101.961532"/>
      </g>
     </g>
     <g id="text_14">
      <!-- 0.55 -->
      <g transform="translate(28.334375 105.76075)scale(0.1 -0.1)">
       <use xlink:href="#DejaVuSans-48"/>
       <use x="63.623047" xlink:href="#DejaVuSans-46"/>
       <use x="95.410156" xlink:href="#DejaVuSans-53"/>
       <use x="159.033203" xlink:href="#DejaVuSans-53"/>
      </g>
     </g>
    </g>
    <g id="ytick_8">
     <g id="line2d_14">
      <g>
       <use style="stroke:#000000;stroke-width:0.8;" x="57.6" xlink:href="#m055cd93408" y="72.087795"/>
      </g>
     </g>
     <g id="text_15">
      <!-- 0.60 -->
      <g transform="translate(28.334375 75.887014)scale(0.1 -0.1)">
       <use xlink:href="#DejaVuSans-48"/>
       <use x="63.623047" xlink:href="#DejaVuSans-46"/>
       <use x="95.410156" xlink:href="#DejaVuSans-54"/>
       <use x="159.033203" xlink:href="#DejaVuSans-48"/>
      </g>
     </g>
    </g>
    <g id="ytick_9">
     <g id="line2d_15">
      <g>
       <use style="stroke:#000000;stroke-width:0.8;" x="57.6" xlink:href="#m055cd93408" y="42.214058"/>
      </g>
     </g>
     <g id="text_16">
      <!-- 0.65 -->
      <g transform="translate(28.334375 46.013277)scale(0.1 -0.1)">
       <use xlink:href="#DejaVuSans-48"/>
       <use x="63.623047" xlink:href="#DejaVuSans-46"/>
       <use x="95.410156" xlink:href="#DejaVuSans-54"/>
       <use x="159.033203" xlink:href="#DejaVuSans-53"/>
      </g>
     </g>
    </g>
    <g id="text_17">
     <!-- Accuracy -->
     <g transform="translate(22.254687 197.356125)rotate(-90)scale(0.1 -0.1)">
      <defs>
       <path d="M 34.1875 63.1875 
L 20.796875 26.90625 
L 47.609375 26.90625 
z
M 28.609375 72.90625 
L 39.796875 72.90625 
L 67.578125 0 
L 57.328125 0 
L 50.6875 18.703125 
L 17.828125 18.703125 
L 11.1875 0 
L 0.78125 0 
z
" id="DejaVuSans-65"/>
       <path d="M 48.78125 52.59375 
L 48.78125 44.1875 
Q 44.96875 46.296875 41.140625 47.34375 
Q 37.3125 48.390625 33.40625 48.390625 
Q 24.65625 48.390625 19.8125 42.84375 
Q 14.984375 37.3125 14.984375 27.296875 
Q 14.984375 17.28125 19.8125 11.734375 
Q 24.65625 6.203125 33.40625 6.203125 
Q 37.3125 6.203125 41.140625 7.25 
Q 44.96875 8.296875 48.78125 10.40625 
L 48.78125 2.09375 
Q 45.015625 0.34375 40.984375 -0.53125 
Q 36.96875 -1.421875 32.421875 -1.421875 
Q 20.0625 -1.421875 12.78125 6.34375 
Q 5.515625 14.109375 5.515625 27.296875 
Q 5.515625 40.671875 12.859375 48.328125 
Q 20.21875 56 33.015625 56 
Q 37.15625 56 41.109375 55.140625 
Q 45.0625 54.296875 48.78125 52.59375 
z
" id="DejaVuSans-99"/>
       <path d="M 32.171875 -5.078125 
Q 28.375 -14.84375 24.75 -17.8125 
Q 21.140625 -20.796875 15.09375 -20.796875 
L 7.90625 -20.796875 
L 7.90625 -13.28125 
L 13.1875 -13.28125 
Q 16.890625 -13.28125 18.9375 -11.515625 
Q 21 -9.765625 23.484375 -3.21875 
L 25.09375 0.875 
L 2.984375 54.6875 
L 12.5 54.6875 
L 29.59375 11.921875 
L 46.6875 54.6875 
L 56.203125 54.6875 
z
" id="DejaVuSans-121"/>
      </defs>
      <use xlink:href="#DejaVuSans-65"/>
      <use x="66.658203" xlink:href="#DejaVuSans-99"/>
      <use x="121.638672" xlink:href="#DejaVuSans-99"/>
      <use x="176.619141" xlink:href="#DejaVuSans-117"/>
      <use x="239.998047" xlink:href="#DejaVuSans-114"/>
      <use x="281.111328" xlink:href="#DejaVuSans-97"/>
      <use x="342.390625" xlink:href="#DejaVuSans-99"/>
      <use x="397.371094" xlink:href="#DejaVuSans-121"/>
     </g>
    </g>
   </g>
   <g id="line2d_16">
    <path clip-path="url(#p83eafe6d78)" d="M 73.832727 191.582742 
L 77.112066 187.997893 
L 80.391405 189.790318 
L 83.670744 187.400419 
L 86.950083 195.16759 
L 90.229421 187.400419 
L 93.50876 193.375166 
L 96.788099 187.997893 
L 100.067438 198.752439 
L 103.346777 199.947388 
L 106.626116 190.985267 
L 109.905455 191.582742 
L 113.184793 202.934762 
L 116.464132 190.985267 
L 119.743471 201.739812 
L 123.02281 197.557489 
L 126.302149 202.337287 
L 129.581488 194.570115 
L 132.860826 210.701933 
L 136.140165 210.701933 
L 139.419504 208.909509 
L 142.698843 196.36254 
L 145.978182 208.909509 
L 149.257521 198.154964 
L 152.53686 199.349913 
L 155.816198 196.36254 
L 159.095537 199.349913 
L 162.374876 195.765065 
L 165.654215 210.104459 
L 168.933554 202.934762 
L 172.212893 190.387792 
L 175.492231 212.494357 
L 178.77157 194.570115 
L 182.050909 208.312034 
L 185.330248 216.676681 
L 188.609587 202.934762 
L 191.888926 198.154964 
L 195.168264 202.337287 
L 198.447603 202.337287 
L 201.726942 199.349913 
L 205.006281 208.312034 
L 208.28562 199.947388 
L 211.564959 197.557489 
L 214.844298 204.129711 
L 218.123636 196.960014 
L 221.402975 197.557489 
L 224.682314 214.286782 
L 227.961653 202.337287 
L 231.240992 196.36254 
L 234.520331 211.299408 
L 237.799669 203.532236 
L 241.079008 210.104459 
L 244.358347 198.154964 
L 247.637686 196.36254 
L 250.917025 205.922135 
L 254.196364 207.117085 
L 257.475702 196.36254 
L 260.755041 201.739812 
L 264.03438 190.985267 
L 267.313719 186.802944 
L 270.593058 202.934762 
L 273.872397 195.16759 
L 277.151736 198.154964 
L 280.431074 207.71456 
L 283.710413 207.117085 
L 286.989752 196.36254 
L 290.269091 194.570115 
L 293.54843 193.375166 
L 296.827769 190.387792 
L 300.107107 193.972641 
L 303.386446 184.413045 
L 306.665785 193.375166 
L 309.945124 199.349913 
L 313.224463 204.727186 
L 316.503802 193.972641 
L 319.78314 190.387792 
L 323.062479 195.765065 
L 326.341818 195.765065 
L 329.621157 192.180216 
L 332.900496 183.81557 
L 336.179835 195.16759 
L 339.459174 191.582742 
L 342.738512 193.375166 
L 346.017851 190.387792 
L 349.29719 187.400419 
L 352.576529 185.607994 
L 355.855868 190.985267 
L 359.135207 190.985267 
L 362.414545 195.16759 
L 365.693884 194.570115 
L 368.973223 183.81557 
L 372.252562 190.387792 
L 375.531901 192.777691 
L 378.81124 188.595368 
L 382.090579 190.985267 
L 385.369917 191.582742 
L 388.649256 190.387792 
L 391.928595 191.582742 
L 395.207934 190.387792 
L 398.487273 191.582742 
" style="fill:none;stroke:#1f77b4;stroke-linecap:square;stroke-width:1.5;"/>
   </g>
   <g id="line2d_17">
    <path clip-path="url(#p83eafe6d78)" d="M 73.832727 131.835268 
L 77.112066 128.847895 
L 80.391405 130.640319 
L 83.670744 133.627693 
L 86.950083 138.40749 
L 90.229421 134.225167 
L 93.50876 136.615066 
L 96.788099 138.40749 
L 100.067438 141.394864 
L 103.346777 139.004965 
L 106.626116 147.369611 
L 109.905455 143.187288 
L 113.184793 146.174662 
L 116.464132 150.356985 
L 119.743471 149.162036 
L 123.02281 161.709005 
L 126.302149 153.941834 
L 129.581488 167.683752 
L 132.860826 159.916581 
L 136.140165 158.721631 
L 139.419504 173.6585 
L 142.698843 162.903955 
L 145.978182 165.293853 
L 149.257521 161.11153 
L 152.53686 179.035772 
L 155.816198 174.255974 
L 159.095537 173.061025 
L 162.374876 176.645873 
L 165.654215 174.255974 
L 168.933554 178.438298 
L 172.212893 180.828197 
L 175.492231 180.230722 
L 178.77157 179.035772 
L 182.050909 190.387792 
L 185.330248 182.620621 
L 188.609587 186.802944 
L 191.888926 174.853449 
L 195.168264 181.425671 
L 198.447603 183.218095 
L 201.726942 189.192843 
L 205.006281 185.01052 
L 208.28562 190.387792 
L 211.564959 186.802944 
L 214.844298 188.595368 
L 218.123636 185.01052 
L 221.402975 185.01052 
L 224.682314 193.972641 
L 227.961653 186.802944 
L 231.240992 189.192843 
L 234.520331 191.582742 
L 237.799669 189.192843 
L 241.079008 196.960014 
L 244.358347 192.180216 
L 247.637686 191.582742 
L 250.917025 195.16759 
L 254.196364 188.595368 
L 257.475702 189.790318 
L 260.755041 193.972641 
L 264.03438 189.192843 
L 267.313719 187.997893 
L 270.593058 190.387792 
L 273.872397 191.582742 
L 277.151736 189.790318 
L 280.431074 190.985267 
L 283.710413 193.375166 
L 286.989752 191.582742 
L 290.269091 188.595368 
L 293.54843 191.582742 
L 296.827769 190.985267 
L 300.107107 190.387792 
L 303.386446 190.985267 
L 306.665785 191.582742 
L 309.945124 190.985267 
L 313.224463 193.375166 
L 316.503802 192.777691 
L 319.78314 193.375166 
L 323.062479 192.777691 
L 326.341818 190.985267 
L 329.621157 190.985267 
L 332.900496 191.582742 
L 336.179835 192.180216 
L 339.459174 191.582742 
L 342.738512 191.582742 
L 346.017851 191.582742 
L 349.29719 191.582742 
L 352.576529 191.582742 
L 355.855868 191.582742 
L 359.135207 191.582742 
L 362.414545 191.582742 
L 365.693884 191.582742 
L 368.973223 192.180216 
L 372.252562 191.582742 
L 375.531901 191.582742 
L 378.81124 191.582742 
L 382.090579 191.582742 
L 385.369917 191.582742 
L 388.649256 191.582742 
L 391.928595 191.582742 
L 395.207934 191.582742 
L 398.487273 191.582742 
" style="fill:none;stroke:#ff7f0e;stroke-linecap:square;stroke-width:1.5;"/>
   </g>
   <g id="line2d_18">
    <path clip-path="url(#p83eafe6d78)" d="M 73.832727 131.835268 
L 77.112066 131.237792 
L 80.391405 127.652942 
L 83.670744 128.847891 
L 86.950083 137.810012 
L 90.229421 122.275667 
L 93.50876 128.250415 
L 96.788099 125.263042 
L 100.067438 137.810012 
L 103.346777 135.420113 
L 106.626116 132.432739 
L 109.905455 127.055466 
L 113.184793 133.627687 
L 116.464132 117.495868 
L 119.743471 127.65294 
L 123.02281 134.225163 
L 126.302149 133.030214 
L 129.581488 133.627688 
L 132.860826 131.835263 
L 136.140165 136.615061 
L 139.419504 134.822638 
L 142.698843 126.45799 
L 145.978182 133.030214 
L 149.257521 137.810012 
L 152.53686 139.004961 
L 155.816198 139.602436 
L 159.095537 140.199911 
L 162.374876 130.640315 
L 165.654215 140.797385 
L 168.933554 134.225163 
L 172.212893 129.445366 
L 175.492231 137.810011 
L 178.77157 135.420112 
L 182.050909 143.784759 
L 185.330248 147.967081 
L 188.609587 144.382233 
L 191.888926 140.19991 
L 195.168264 150.356982 
L 198.447603 144.979708 
L 201.726942 129.445367 
L 205.006281 142.589809 
L 208.28562 156.331728 
L 211.564959 143.187284 
L 214.844298 149.162031 
L 218.123636 137.810012 
L 221.402975 142.589811 
L 224.682314 149.759507 
L 227.961653 144.382233 
L 231.240992 146.174657 
L 234.520331 150.954455 
L 237.799669 136.615063 
L 241.079008 162.306477 
L 244.358347 147.967082 
L 247.637686 160.514052 
L 250.917025 150.356981 
L 254.196364 159.319101 
L 257.475702 159.319102 
L 260.755041 158.721627 
L 264.03438 154.539303 
L 267.313719 162.90395 
L 270.593058 161.709 
L 273.872397 153.941829 
L 277.151736 177.840819 
L 280.431074 144.979709 
L 283.710413 159.916577 
L 286.989752 140.797385 
L 290.269091 161.709002 
L 293.54843 161.111526 
L 296.827769 160.514051 
L 300.107107 164.098899 
L 303.386446 152.746881 
L 306.665785 152.74688 
L 309.945124 157.526679 
L 313.224463 170.671123 
L 316.503802 162.903949 
L 319.78314 158.721627 
L 323.062479 158.721628 
L 326.341818 165.293849 
L 329.621157 168.281223 
L 332.900496 141.39486 
L 336.179835 140.797384 
L 339.459174 152.149405 
L 342.738512 149.162031 
L 346.017851 156.929203 
L 349.29719 142.589809 
L 352.576529 153.94183 
L 355.855868 148.564556 
L 359.135207 170.671121 
L 362.414545 158.721628 
L 365.693884 165.293849 
L 368.973223 161.709001 
L 372.252562 144.382233 
L 375.531901 162.90395 
L 378.81124 161.709001 
L 382.090579 146.174657 
L 385.369917 150.356982 
L 388.649256 160.514051 
L 391.928595 168.281223 
L 395.207934 159.916576 
L 398.487273 167.683749 
" style="fill:none;stroke:#2ca02c;stroke-linecap:square;stroke-width:1.5;"/>
   </g>
   <g id="line2d_19">
    <path clip-path="url(#p83eafe6d78)" d="M 73.832727 191.582742 
L 77.112066 206.51961 
L 80.391405 228.626175 
L 83.670744 227.431226 
L 86.950083 231.613549 
L 90.229421 218.469105 
L 93.50876 222.053953 
L 96.788099 231.016074 
L 100.067438 211.896883 
L 103.346777 222.651428 
L 106.626116 224.443852 
L 109.905455 217.87163 
L 113.184793 213.689307 
L 116.464132 209.506984 
L 119.743471 217.87163 
L 123.02281 226.833751 
L 126.302149 201.142337 
L 129.581488 224.443852 
L 132.860826 213.689307 
L 136.140165 212.494357 
L 139.419504 204.727186 
L 142.698843 208.312034 
L 145.978182 202.934762 
L 149.257521 210.104459 
L 152.53686 203.532236 
L 155.816198 197.557489 
L 159.095537 211.299408 
L 162.374876 202.934762 
L 165.654215 193.972641 
L 168.933554 196.36254 
L 172.212893 199.349913 
L 175.492231 201.739812 
L 178.77157 191.582742 
L 182.050909 199.947388 
L 185.330248 188.595368 
L 188.609587 193.972641 
L 191.888926 189.192843 
L 195.168264 207.117085 
L 198.447603 187.997893 
L 201.726942 189.192843 
L 205.006281 180.230722 
L 208.28562 190.985267 
L 211.564959 172.46355 
L 214.844298 191.582742 
L 218.123636 180.828197 
L 221.402975 179.633247 
L 224.682314 190.387792 
L 227.961653 177.243348 
L 231.240992 171.866076 
L 234.520331 193.375166 
L 237.799669 192.180216 
L 241.079008 191.582742 
L 244.358347 185.01052 
L 247.637686 168.281227 
L 250.917025 168.281227 
L 254.196364 192.180216 
L 257.475702 192.180216 
L 260.755041 182.620621 
L 264.03438 177.840823 
L 267.313719 179.633247 
L 270.593058 165.891328 
L 273.872397 179.035772 
L 277.151736 189.192843 
L 280.431074 187.400419 
L 283.710413 178.438298 
L 286.989752 164.098904 
L 290.269091 178.438298 
L 293.54843 171.866076 
L 296.827769 179.035772 
L 300.107107 167.683752 
L 303.386446 155.136783 
L 306.665785 187.400419 
L 309.945124 171.866076 
L 313.224463 173.6585 
L 316.503802 160.514056 
L 319.78314 162.903955 
L 323.062479 154.539308 
L 326.341818 183.81557 
L 329.621157 181.425671 
L 332.900496 174.255974 
L 336.179835 155.734258 
L 339.459174 160.514056 
L 342.738512 172.46355 
L 346.017851 169.476177 
L 349.29719 162.30648 
L 352.576529 159.319106 
L 355.855868 165.293853 
L 359.135207 179.633247 
L 362.414545 163.501429 
L 365.693884 163.501429 
L 368.973223 175.450924 
L 372.252562 149.162036 
L 375.531901 183.81557 
L 378.81124 164.696379 
L 382.090579 174.853449 
L 385.369917 172.46355 
L 388.649256 165.293853 
L 391.928595 175.450924 
L 395.207934 174.255974 
L 398.487273 169.476177 
" style="fill:none;stroke:#d62728;stroke-linecap:square;stroke-width:1.5;"/>
   </g>
   <g id="patch_3">
    <path d="M 57.6 307.584 
L 57.6 41.472 
" style="fill:none;stroke:#000000;stroke-linecap:square;stroke-linejoin:miter;stroke-width:0.8;"/>
   </g>
   <g id="patch_4">
    <path d="M 414.72 307.584 
L 414.72 41.472 
" style="fill:none;stroke:#000000;stroke-linecap:square;stroke-linejoin:miter;stroke-width:0.8;"/>
   </g>
   <g id="patch_5">
    <path d="M 57.6 307.584 
L 414.72 307.584 
" style="fill:none;stroke:#000000;stroke-linecap:square;stroke-linejoin:miter;stroke-width:0.8;"/>
   </g>
   <g id="patch_6">
    <path d="M 57.6 41.472 
L 414.72 41.472 
" style="fill:none;stroke:#000000;stroke-linecap:square;stroke-linejoin:miter;stroke-width:0.8;"/>
   </g>
   <g id="text_18">
    <!-- Toy_non_linear_100_100 -->
    <g transform="translate(163.14 35.472)scale(0.12 -0.12)">
     <defs>
      <path d="M -0.296875 72.90625 
L 61.375 72.90625 
L 61.375 64.59375 
L 35.5 64.59375 
L 35.5 0 
L 25.59375 0 
L 25.59375 64.59375 
L -0.296875 64.59375 
z
" id="DejaVuSans-84"/>
      <path d="M 50.984375 -16.609375 
L 50.984375 -23.578125 
L -0.984375 -23.578125 
L -0.984375 -16.609375 
z
" id="DejaVuSans-95"/>
      <path d="M 54.890625 33.015625 
L 54.890625 0 
L 45.90625 0 
L 45.90625 32.71875 
Q 45.90625 40.484375 42.875 44.328125 
Q 39.84375 48.1875 33.796875 48.1875 
Q 26.515625 48.1875 22.3125 43.546875 
Q 18.109375 38.921875 18.109375 30.90625 
L 18.109375 0 
L 9.078125 0 
L 9.078125 54.6875 
L 18.109375 54.6875 
L 18.109375 46.1875 
Q 21.34375 51.125 25.703125 53.5625 
Q 30.078125 56 35.796875 56 
Q 45.21875 56 50.046875 50.171875 
Q 54.890625 44.34375 54.890625 33.015625 
z
" id="DejaVuSans-110"/>
      <path d="M 9.421875 75.984375 
L 18.40625 75.984375 
L 18.40625 0 
L 9.421875 0 
z
" id="DejaVuSans-108"/>
      <path d="M 9.421875 54.6875 
L 18.40625 54.6875 
L 18.40625 0 
L 9.421875 0 
z
M 9.421875 75.984375 
L 18.40625 75.984375 
L 18.40625 64.59375 
L 9.421875 64.59375 
z
" id="DejaVuSans-105"/>
     </defs>
     <use xlink:href="#DejaVuSans-84"/>
     <use x="44.083984" xlink:href="#DejaVuSans-111"/>
     <use x="105.265625" xlink:href="#DejaVuSans-121"/>
     <use x="164.445312" xlink:href="#DejaVuSans-95"/>
     <use x="214.445312" xlink:href="#DejaVuSans-110"/>
     <use x="277.824219" xlink:href="#DejaVuSans-111"/>
     <use x="339.005859" xlink:href="#DejaVuSans-110"/>
     <use x="402.384766" xlink:href="#DejaVuSans-95"/>
     <use x="452.384766" xlink:href="#DejaVuSans-108"/>
     <use x="480.167969" xlink:href="#DejaVuSans-105"/>
     <use x="507.951172" xlink:href="#DejaVuSans-110"/>
     <use x="571.330078" xlink:href="#DejaVuSans-101"/>
     <use x="632.853516" xlink:href="#DejaVuSans-97"/>
     <use x="694.132812" xlink:href="#DejaVuSans-114"/>
     <use x="735.246094" xlink:href="#DejaVuSans-95"/>
     <use x="785.246094" xlink:href="#DejaVuSans-49"/>
     <use x="848.869141" xlink:href="#DejaVuSans-48"/>
     <use x="912.492188" xlink:href="#DejaVuSans-48"/>
     <use x="976.115234" xlink:href="#DejaVuSans-95"/>
     <use x="1026.115234" xlink:href="#DejaVuSans-49"/>
     <use x="1089.738281" xlink:href="#DejaVuSans-48"/>
     <use x="1153.361328" xlink:href="#DejaVuSans-48"/>
    </g>
   </g>
   <g id="legend_1">
    <g id="patch_7">
     <path d="M 211.399687 108.1845 
L 407.72 108.1845 
Q 409.72 108.1845 409.72 106.1845 
L 409.72 48.472 
Q 409.72 46.472 407.72 46.472 
L 211.399687 46.472 
Q 209.399687 46.472 209.399687 48.472 
L 209.399687 106.1845 
Q 209.399687 108.1845 211.399687 108.1845 
z
" style="fill:#ffffff;opacity:0.8;stroke:#cccccc;stroke-linejoin:miter;"/>
    </g>
    <g id="line2d_20">
     <path d="M 213.399687 54.570438 
L 233.399687 54.570438 
" style="fill:none;stroke:#1f77b4;stroke-linecap:square;stroke-width:1.5;"/>
    </g>
    <g id="line2d_21"/>
    <g id="text_19">
     <!-- Random Forest -->
     <g transform="translate(241.399687 58.070438)scale(0.1 -0.1)">
      <defs>
       <path d="M 44.390625 34.1875 
Q 47.5625 33.109375 50.5625 29.59375 
Q 53.5625 26.078125 56.59375 19.921875 
L 66.609375 0 
L 56 0 
L 46.6875 18.703125 
Q 43.0625 26.03125 39.671875 28.421875 
Q 36.28125 30.8125 30.421875 30.8125 
L 19.671875 30.8125 
L 19.671875 0 
L 9.8125 0 
L 9.8125 72.90625 
L 32.078125 72.90625 
Q 44.578125 72.90625 50.734375 67.671875 
Q 56.890625 62.453125 56.890625 51.90625 
Q 56.890625 45.015625 53.6875 40.46875 
Q 50.484375 35.9375 44.390625 34.1875 
z
M 19.671875 64.796875 
L 19.671875 38.921875 
L 32.078125 38.921875 
Q 39.203125 38.921875 42.84375 42.21875 
Q 46.484375 45.515625 46.484375 51.90625 
Q 46.484375 58.296875 42.84375 61.546875 
Q 39.203125 64.796875 32.078125 64.796875 
z
" id="DejaVuSans-82"/>
       <path d="M 45.40625 46.390625 
L 45.40625 75.984375 
L 54.390625 75.984375 
L 54.390625 0 
L 45.40625 0 
L 45.40625 8.203125 
Q 42.578125 3.328125 38.25 0.953125 
Q 33.9375 -1.421875 27.875 -1.421875 
Q 17.96875 -1.421875 11.734375 6.484375 
Q 5.515625 14.40625 5.515625 27.296875 
Q 5.515625 40.1875 11.734375 48.09375 
Q 17.96875 56 27.875 56 
Q 33.9375 56 38.25 53.625 
Q 42.578125 51.265625 45.40625 46.390625 
z
M 14.796875 27.296875 
Q 14.796875 17.390625 18.875 11.75 
Q 22.953125 6.109375 30.078125 6.109375 
Q 37.203125 6.109375 41.296875 11.75 
Q 45.40625 17.390625 45.40625 27.296875 
Q 45.40625 37.203125 41.296875 42.84375 
Q 37.203125 48.484375 30.078125 48.484375 
Q 22.953125 48.484375 18.875 42.84375 
Q 14.796875 37.203125 14.796875 27.296875 
z
" id="DejaVuSans-100"/>
       <path d="M 9.8125 72.90625 
L 51.703125 72.90625 
L 51.703125 64.59375 
L 19.671875 64.59375 
L 19.671875 43.109375 
L 48.578125 43.109375 
L 48.578125 34.8125 
L 19.671875 34.8125 
L 19.671875 0 
L 9.8125 0 
z
" id="DejaVuSans-70"/>
      </defs>
      <use xlink:href="#DejaVuSans-82"/>
      <use x="67.232422" xlink:href="#DejaVuSans-97"/>
      <use x="128.511719" xlink:href="#DejaVuSans-110"/>
      <use x="191.890625" xlink:href="#DejaVuSans-100"/>
      <use x="255.367188" xlink:href="#DejaVuSans-111"/>
      <use x="316.548828" xlink:href="#DejaVuSans-109"/>
      <use x="413.960938" xlink:href="#DejaVuSans-32"/>
      <use x="445.748047" xlink:href="#DejaVuSans-70"/>
      <use x="499.642578" xlink:href="#DejaVuSans-111"/>
      <use x="560.824219" xlink:href="#DejaVuSans-114"/>
      <use x="599.6875" xlink:href="#DejaVuSans-101"/>
      <use x="661.210938" xlink:href="#DejaVuSans-115"/>
      <use x="713.310547" xlink:href="#DejaVuSans-116"/>
     </g>
    </g>
    <g id="line2d_22">
     <path d="M 213.399687 69.248563 
L 233.399687 69.248563 
" style="fill:none;stroke:#ff7f0e;stroke-linecap:square;stroke-width:1.5;"/>
    </g>
    <g id="line2d_23"/>
    <g id="text_20">
     <!-- XGBoost -->
     <g transform="translate(241.399687 72.748563)scale(0.1 -0.1)">
      <defs>
       <path d="M 6.296875 72.90625 
L 16.890625 72.90625 
L 35.015625 45.796875 
L 53.21875 72.90625 
L 63.8125 72.90625 
L 40.375 37.890625 
L 65.375 0 
L 54.78125 0 
L 34.28125 31 
L 13.625 0 
L 2.984375 0 
L 29 38.921875 
z
" id="DejaVuSans-88"/>
       <path d="M 59.515625 10.40625 
L 59.515625 29.984375 
L 43.40625 29.984375 
L 43.40625 38.09375 
L 69.28125 38.09375 
L 69.28125 6.78125 
Q 63.578125 2.734375 56.6875 0.65625 
Q 49.8125 -1.421875 42 -1.421875 
Q 24.90625 -1.421875 15.25 8.5625 
Q 5.609375 18.5625 5.609375 36.375 
Q 5.609375 54.25 15.25 64.234375 
Q 24.90625 74.21875 42 74.21875 
Q 49.125 74.21875 55.546875 72.453125 
Q 61.96875 70.703125 67.390625 67.28125 
L 67.390625 56.78125 
Q 61.921875 61.421875 55.765625 63.765625 
Q 49.609375 66.109375 42.828125 66.109375 
Q 29.4375 66.109375 22.71875 58.640625 
Q 16.015625 51.171875 16.015625 36.375 
Q 16.015625 21.625 22.71875 14.15625 
Q 29.4375 6.6875 42.828125 6.6875 
Q 48.046875 6.6875 52.140625 7.59375 
Q 56.25 8.5 59.515625 10.40625 
z
" id="DejaVuSans-71"/>
       <path d="M 19.671875 34.8125 
L 19.671875 8.109375 
L 35.5 8.109375 
Q 43.453125 8.109375 47.28125 11.40625 
Q 51.125 14.703125 51.125 21.484375 
Q 51.125 28.328125 47.28125 31.5625 
Q 43.453125 34.8125 35.5 34.8125 
z
M 19.671875 64.796875 
L 19.671875 42.828125 
L 34.28125 42.828125 
Q 41.5 42.828125 45.03125 45.53125 
Q 48.578125 48.25 48.578125 53.8125 
Q 48.578125 59.328125 45.03125 62.0625 
Q 41.5 64.796875 34.28125 64.796875 
z
M 9.8125 72.90625 
L 35.015625 72.90625 
Q 46.296875 72.90625 52.390625 68.21875 
Q 58.5 63.53125 58.5 54.890625 
Q 58.5 48.1875 55.375 44.234375 
Q 52.25 40.28125 46.1875 39.3125 
Q 53.46875 37.75 57.5 32.78125 
Q 61.53125 27.828125 61.53125 20.40625 
Q 61.53125 10.640625 54.890625 5.3125 
Q 48.25 0 35.984375 0 
L 9.8125 0 
z
" id="DejaVuSans-66"/>
      </defs>
      <use xlink:href="#DejaVuSans-88"/>
      <use x="68.505859" xlink:href="#DejaVuSans-71"/>
      <use x="145.996094" xlink:href="#DejaVuSans-66"/>
      <use x="214.599609" xlink:href="#DejaVuSans-111"/>
      <use x="275.78125" xlink:href="#DejaVuSans-111"/>
      <use x="336.962891" xlink:href="#DejaVuSans-115"/>
      <use x="389.0625" xlink:href="#DejaVuSans-116"/>
     </g>
    </g>
    <g id="line2d_24">
     <path d="M 213.399687 83.926688 
L 233.399687 83.926688 
" style="fill:none;stroke:#2ca02c;stroke-linecap:square;stroke-width:1.5;"/>
    </g>
    <g id="line2d_25"/>
    <g id="text_21">
     <!-- Neural Network + Regularization -->
     <g transform="translate(241.399687 87.426688)scale(0.1 -0.1)">
      <defs>
       <path d="M 4.203125 54.6875 
L 13.1875 54.6875 
L 24.421875 12.015625 
L 35.59375 54.6875 
L 46.1875 54.6875 
L 57.421875 12.015625 
L 68.609375 54.6875 
L 77.59375 54.6875 
L 63.28125 0 
L 52.6875 0 
L 40.921875 44.828125 
L 29.109375 0 
L 18.5 0 
z
" id="DejaVuSans-119"/>
       <path d="M 9.078125 75.984375 
L 18.109375 75.984375 
L 18.109375 31.109375 
L 44.921875 54.6875 
L 56.390625 54.6875 
L 27.390625 29.109375 
L 57.625 0 
L 45.90625 0 
L 18.109375 26.703125 
L 18.109375 0 
L 9.078125 0 
z
" id="DejaVuSans-107"/>
       <path d="M 46 62.703125 
L 46 35.5 
L 73.1875 35.5 
L 73.1875 27.203125 
L 46 27.203125 
L 46 0 
L 37.796875 0 
L 37.796875 27.203125 
L 10.59375 27.203125 
L 10.59375 35.5 
L 37.796875 35.5 
L 37.796875 62.703125 
z
" id="DejaVuSans-43"/>
       <path d="M 45.40625 27.984375 
Q 45.40625 37.75 41.375 43.109375 
Q 37.359375 48.484375 30.078125 48.484375 
Q 22.859375 48.484375 18.828125 43.109375 
Q 14.796875 37.75 14.796875 27.984375 
Q 14.796875 18.265625 18.828125 12.890625 
Q 22.859375 7.515625 30.078125 7.515625 
Q 37.359375 7.515625 41.375 12.890625 
Q 45.40625 18.265625 45.40625 27.984375 
z
M 54.390625 6.78125 
Q 54.390625 -7.171875 48.1875 -13.984375 
Q 42 -20.796875 29.203125 -20.796875 
Q 24.46875 -20.796875 20.265625 -20.09375 
Q 16.0625 -19.390625 12.109375 -17.921875 
L 12.109375 -9.1875 
Q 16.0625 -11.328125 19.921875 -12.34375 
Q 23.78125 -13.375 27.78125 -13.375 
Q 36.625 -13.375 41.015625 -8.765625 
Q 45.40625 -4.15625 45.40625 5.171875 
L 45.40625 9.625 
Q 42.625 4.78125 38.28125 2.390625 
Q 33.9375 0 27.875 0 
Q 17.828125 0 11.671875 7.65625 
Q 5.515625 15.328125 5.515625 27.984375 
Q 5.515625 40.671875 11.671875 48.328125 
Q 17.828125 56 27.875 56 
Q 33.9375 56 38.28125 53.609375 
Q 42.625 51.21875 45.40625 46.390625 
L 45.40625 54.6875 
L 54.390625 54.6875 
z
" id="DejaVuSans-103"/>
       <path d="M 5.515625 54.6875 
L 48.1875 54.6875 
L 48.1875 46.484375 
L 14.40625 7.171875 
L 48.1875 7.171875 
L 48.1875 0 
L 4.296875 0 
L 4.296875 8.203125 
L 38.09375 47.515625 
L 5.515625 47.515625 
z
" id="DejaVuSans-122"/>
      </defs>
      <use xlink:href="#DejaVuSans-78"/>
      <use x="74.804688" xlink:href="#DejaVuSans-101"/>
      <use x="136.328125" xlink:href="#DejaVuSans-117"/>
      <use x="199.707031" xlink:href="#DejaVuSans-114"/>
      <use x="240.820312" xlink:href="#DejaVuSans-97"/>
      <use x="302.099609" xlink:href="#DejaVuSans-108"/>
      <use x="329.882812" xlink:href="#DejaVuSans-32"/>
      <use x="361.669922" xlink:href="#DejaVuSans-78"/>
      <use x="436.474609" xlink:href="#DejaVuSans-101"/>
      <use x="497.998047" xlink:href="#DejaVuSans-116"/>
      <use x="537.207031" xlink:href="#DejaVuSans-119"/>
      <use x="618.994141" xlink:href="#DejaVuSans-111"/>
      <use x="680.175781" xlink:href="#DejaVuSans-114"/>
      <use x="721.289062" xlink:href="#DejaVuSans-107"/>
      <use x="779.199219" xlink:href="#DejaVuSans-32"/>
      <use x="810.986328" xlink:href="#DejaVuSans-43"/>
      <use x="894.775391" xlink:href="#DejaVuSans-32"/>
      <use x="926.5625" xlink:href="#DejaVuSans-82"/>
      <use x="991.544922" xlink:href="#DejaVuSans-101"/>
      <use x="1053.068359" xlink:href="#DejaVuSans-103"/>
      <use x="1116.544922" xlink:href="#DejaVuSans-117"/>
      <use x="1179.923828" xlink:href="#DejaVuSans-108"/>
      <use x="1207.707031" xlink:href="#DejaVuSans-97"/>
      <use x="1268.986328" xlink:href="#DejaVuSans-114"/>
      <use x="1310.099609" xlink:href="#DejaVuSans-105"/>
      <use x="1337.882812" xlink:href="#DejaVuSans-122"/>
      <use x="1390.373047" xlink:href="#DejaVuSans-97"/>
      <use x="1451.652344" xlink:href="#DejaVuSans-116"/>
      <use x="1490.861328" xlink:href="#DejaVuSans-105"/>
      <use x="1518.644531" xlink:href="#DejaVuSans-111"/>
      <use x="1579.826172" xlink:href="#DejaVuSans-110"/>
     </g>
    </g>
    <g id="line2d_26">
     <path d="M 213.399687 98.604813 
L 233.399687 98.604813 
" style="fill:none;stroke:#d62728;stroke-linecap:square;stroke-width:1.5;"/>
    </g>
    <g id="line2d_27"/>
    <g id="text_22">
     <!-- KNN -->
     <g transform="translate(241.399687 102.104813)scale(0.1 -0.1)">
      <defs>
       <path d="M 9.8125 72.90625 
L 19.671875 72.90625 
L 19.671875 42.09375 
L 52.390625 72.90625 
L 65.09375 72.90625 
L 28.90625 38.921875 
L 67.671875 0 
L 54.6875 0 
L 19.671875 35.109375 
L 19.671875 0 
L 9.8125 0 
z
" id="DejaVuSans-75"/>
      </defs>
      <use xlink:href="#DejaVuSans-75"/>
      <use x="65.576172" xlink:href="#DejaVuSans-78"/>
      <use x="140.380859" xlink:href="#DejaVuSans-78"/>
     </g>
    </g>
   </g>
  </g>
 </g>
 <defs>
  <clipPath id="p83eafe6d78">
   <rect height="266.112" width="357.12" x="57.6" y="41.472"/>
  </clipPath>
 </defs>
</svg>
