<?xml version="1.0" encoding="utf-8" standalone="no"?>
<!DOCTYPE svg PUBLIC "-//W3C//DTD SVG 1.1//EN"
  "http://www.w3.org/Graphics/SVG/1.1/DTD/svg11.dtd">
<!-- Created with matplotlib (https://matplotlib.org/) -->
<svg height="345.6pt" version="1.1" viewBox="0 0 460.8 345.6" width="460.8pt" xmlns="http://www.w3.org/2000/svg" xmlns:xlink="http://www.w3.org/1999/xlink">
 <metadata>
  <rdf:RDF xmlns:cc="http://creativecommons.org/ns#" xmlns:dc="http://purl.org/dc/elements/1.1/" xmlns:rdf="http://www.w3.org/1999/02/22-rdf-syntax-ns#">
   <cc:Work>
    <dc:type rdf:resource="http://purl.org/dc/dcmitype/StillImage"/>
    <dc:date>2023-09-19T16:44:13.524509</dc:date>
    <dc:format>image/svg+xml</dc:format>
    <dc:creator>
     <cc:Agent>
      <dc:title>Matplotlib v3.3.4, https://matplotlib.org/</dc:title>
     </cc:Agent>
    </dc:creator>
   </cc:Work>
  </rdf:RDF>
 </metadata>
 <defs>
  <style type="text/css">*{stroke-linecap:butt;stroke-linejoin:round;}</style>
 </defs>
 <g id="figure_1">
  <g id="patch_1">
   <path d="M 0 345.6 
L 460.8 345.6 
L 460.8 0 
L 0 0 
z
" style="fill:#ffffff;"/>
  </g>
  <g id="axes_1">
   <g id="patch_2">
    <path d="M 57.6 307.584 
L 414.72 307.584 
L 414.72 41.472 
L 57.6 41.472 
z
" style="fill:#ffffff;"/>
   </g>
   <g id="PolyCollection_1">
    <path clip-path="url(#p5626e0a66a)" d="M 73.832727 149.796058 
L 73.832727 149.796058 
L 77.112066 169.132333 
L 80.391405 166.094788 
L 83.670744 180.633493 
L 86.950083 179.436565 
L 90.229421 186.005275 
L 93.50876 197.112292 
L 96.788099 204.556171 
L 100.067438 198.215633 
L 103.346777 201.09232 
L 106.626116 211.794594 
L 109.905455 223.001925 
L 113.184793 228.005445 
L 116.464132 215.692167 
L 119.743471 226.586376 
L 123.02281 243.375844 
L 126.302149 233.957453 
L 129.581488 238.305292 
L 132.860826 238.902622 
L 136.140165 242.516563 
L 139.419504 254.028741 
L 142.698843 251.18314 
L 145.978182 256.891789 
L 149.257521 249.110694 
L 152.53686 264.618329 
L 155.816198 259.471939 
L 159.095537 256.579665 
L 162.374876 259.00844 
L 165.654215 271.284647 
L 168.933554 261.880428 
L 172.212893 278.910769 
L 175.492231 278.43374 
L 178.77157 270.847828 
L 182.050909 268.826652 
L 185.330248 256.354374 
L 188.609587 272.254081 
L 191.888926 256.145489 
L 195.168264 265.449676 
L 198.447603 270.215858 
L 201.726942 274.272804 
L 205.006281 276.386938 
L 208.28562 269.362178 
L 211.564959 270.913825 
L 214.844298 266.758177 
L 218.123636 268.410629 
L 221.402975 271.004642 
L 224.682314 264.006951 
L 227.961653 269.300404 
L 231.240992 258.035977 
L 234.520331 258.643132 
L 237.799669 275.965936 
L 241.079008 254.765607 
L 244.358347 271.48737 
L 247.637686 262.604872 
L 250.917025 250.213543 
L 254.196364 256.488542 
L 257.475702 257.625031 
L 260.755041 257.066889 
L 264.03438 250.157324 
L 267.313719 245.377139 
L 270.593058 246.94475 
L 273.872397 248.210093 
L 277.151736 246.874439 
L 280.431074 245.729454 
L 283.710413 251.874364 
L 286.989752 245.377139 
L 290.269091 238.508328 
L 293.54843 245.729585 
L 296.827769 239.530887 
L 300.107107 244.386528 
L 303.386446 242.888422 
L 306.665785 233.957393 
L 309.945124 237.740963 
L 313.224463 234.887191 
L 316.503802 236.748345 
L 319.78314 230.012429 
L 323.062479 232.645445 
L 326.341818 229.638715 
L 329.621157 227.170091 
L 332.900496 227.063145 
L 336.179835 226.521323 
L 339.459174 227.924872 
L 342.738512 225.710809 
L 346.017851 227.063145 
L 349.29719 230.384677 
L 352.576529 224.675345 
L 355.855868 224.487576 
L 359.135207 219.948053 
L 362.414545 221.912006 
L 365.693884 214.185297 
L 368.973223 219.948053 
L 372.252562 214.185297 
L 375.531901 214.185297 
L 378.81124 214.185297 
L 382.090579 214.185297 
L 385.369917 214.185297 
L 388.649256 214.185297 
L 391.928595 214.185297 
L 395.207934 214.185297 
L 398.487273 214.185297 
L 398.487273 214.185297 
L 398.487273 214.185297 
L 395.207934 214.185297 
L 391.928595 214.185297 
L 388.649256 214.185297 
L 385.369917 214.185297 
L 382.090579 214.185297 
L 378.81124 214.185297 
L 375.531901 214.185297 
L 372.252562 214.185297 
L 368.973223 207.134757 
L 365.693884 214.185297 
L 362.414545 203.883019 
L 359.135207 207.134757 
L 355.855868 206.458589 
L 352.576529 202.407465 
L 349.29719 201.849272 
L 346.017851 201.30745 
L 342.738512 200.084216 
L 339.459174 199.157938 
L 336.179835 197.985918 
L 332.900496 201.30745 
L 329.621157 196.049365 
L 326.341818 193.580741 
L 323.062479 184.135086 
L 319.78314 191.919242 
L 316.503802 190.334466 
L 313.224463 192.19562 
L 309.945124 193.205202 
L 306.665785 187.974278 
L 303.386446 186.769958 
L 300.107107 183.984067 
L 296.827769 191.415277 
L 293.54843 181.353225 
L 290.269091 175.696634 
L 286.989752 175.266747 
L 283.710413 179.0718 
L 280.431074 182.641141 
L 277.151736 177.632801 
L 273.872397 178.872717 
L 270.593058 178.850275 
L 267.313719 175.266747 
L 264.03438 173.062132 
L 260.755041 166.152567 
L 257.475702 181.047842 
L 254.196364 179.608761 
L 250.917025 166.566989 
L 247.637686 174.780216 
L 244.358347 176.199997 
L 241.079008 172.317203 
L 237.799669 175.584785 
L 234.520331 159.425185 
L 231.240992 157.45677 
L 227.961653 157.782406 
L 224.682314 169.514783 
L 221.402975 165.092661 
L 218.123636 166.398889 
L 214.844298 168.051342 
L 211.564959 170.334618 
L 208.28562 173.17405 
L 205.006281 164.861504 
L 201.726942 163.112284 
L 198.447603 165.881445 
L 195.168264 161.633134 
L 191.888926 167.073967 
L 188.609587 174.145501 
L 185.330248 168.152867 
L 182.050909 153.105019 
L 178.77157 160.098336 
L 175.492231 166.678057 
L 172.212893 170.064383 
L 168.933554 156.187889 
L 165.654215 149.35924 
L 162.374876 146.182029 
L 159.095537 143.459664 
L 155.816198 158.596377 
L 152.53686 149.586633 
L 149.257521 136.763003 
L 145.978182 137.996401 
L 142.698843 151.431759 
L 139.419504 136.996095 
L 136.140165 154.947197 
L 132.860826 128.942088 
L 129.581488 138.553911 
L 126.302149 135.175042 
L 123.02281 121.893296 
L 119.743471 129.668271 
L 116.464132 101.928936 
L 113.184793 117.946924 
L 109.905455 126.813798 
L 106.626116 117.416573 
L 103.346777 108.802075 
L 100.067438 110.390977 
L 96.788099 105.338224 
L 93.50876 102.479824 
L 90.229421 98.133424 
L 86.950083 102.126564 
L 83.670744 97.066282 
L 80.391405 110.317202 
L 77.112066 126.596429 
L 73.832727 149.796058 
z
" style="fill:#1f77b4;fill-opacity:0.2;"/>
   </g>
   <g id="PolyCollection_2">
    <path clip-path="url(#p5626e0a66a)" d="M 73.832727 214.185297 
L 73.832727 214.185297 
L 77.112066 219.948053 
L 80.391405 226.817292 
L 83.670744 228.733478 
L 86.950083 235.812992 
L 90.229421 235.746648 
L 93.50876 239.051795 
L 96.788099 233.270454 
L 100.067438 242.682384 
L 103.346777 243.045327 
L 106.626116 251.937352 
L 109.905455 247.002899 
L 113.184793 246.625423 
L 116.464132 243.703616 
L 119.743471 255.168553 
L 123.02281 244.978356 
L 126.302149 244.773611 
L 129.581488 261.089981 
L 132.860826 261.418873 
L 136.140165 254.794767 
L 139.419504 264.821263 
L 142.698843 266.635537 
L 145.978182 271.052334 
L 149.257521 266.495363 
L 152.53686 266.185069 
L 155.816198 257.507904 
L 159.095537 255.592766 
L 162.374876 263.277933 
L 165.654215 267.187831 
L 168.933554 271.568126 
L 172.212893 264.392804 
L 175.492231 268.376559 
L 178.77157 274.486111 
L 182.050909 269.097967 
L 185.330248 273.363264 
L 188.609587 281.2466 
L 191.888926 270.734052 
L 195.168264 270.74506 
L 198.447603 257.047128 
L 201.726942 272.569042 
L 205.006281 267.500295 
L 208.28562 261.854792 
L 211.564959 256.369409 
L 214.844298 261.886077 
L 218.123636 267.70618 
L 221.402975 272.276224 
L 224.682314 259.549244 
L 227.961653 251.649101 
L 231.240992 254.081852 
L 234.520331 264.465342 
L 237.799669 251.324856 
L 241.079008 260.34782 
L 244.358347 251.649101 
L 247.637686 249.651739 
L 250.917025 246.164428 
L 254.196364 252.877316 
L 257.475702 254.381186 
L 260.755041 255.408107 
L 264.03438 249.788532 
L 267.313719 243.37717 
L 270.593058 244.571762 
L 273.872397 243.840092 
L 277.151736 242.461304 
L 280.431074 241.466682 
L 283.710413 240.53452 
L 286.989752 243.37717 
L 290.269091 240.53452 
L 293.54843 233.340249 
L 296.827769 231.192499 
L 300.107107 233.340249 
L 303.386446 235.846192 
L 306.665785 232.32123 
L 309.945124 227.100956 
L 313.224463 231.438069 
L 316.503802 227.100956 
L 319.78314 224.487576 
L 323.062479 224.487576 
L 326.341818 214.185297 
L 329.621157 221.235838 
L 332.900496 221.235838 
L 336.179835 224.487576 
L 339.459174 223.291311 
L 342.738512 221.235838 
L 346.017851 214.185297 
L 349.29719 214.185297 
L 352.576529 214.185297 
L 355.855868 214.185297 
L 359.135207 214.185297 
L 362.414545 214.185297 
L 365.693884 221.235838 
L 368.973223 214.185297 
L 372.252562 214.185297 
L 375.531901 214.185297 
L 378.81124 214.185297 
L 382.090579 214.185297 
L 385.369917 214.185297 
L 388.649256 214.185297 
L 391.928595 214.185297 
L 395.207934 214.185297 
L 398.487273 214.185297 
L 398.487273 214.185297 
L 398.487273 214.185297 
L 395.207934 214.185297 
L 391.928595 214.185297 
L 388.649256 214.185297 
L 385.369917 214.185297 
L 382.090579 214.185297 
L 378.81124 214.185297 
L 375.531901 214.185297 
L 372.252562 214.185297 
L 368.973223 214.185297 
L 365.693884 208.422541 
L 362.414545 214.185297 
L 359.135207 214.185297 
L 355.855868 214.185297 
L 352.576529 214.185297 
L 349.29719 214.185297 
L 346.017851 214.185297 
L 342.738512 208.422541 
L 339.459174 205.079284 
L 336.179835 206.458589 
L 332.900496 208.422541 
L 329.621157 208.422541 
L 326.341818 214.185297 
L 323.062479 206.458589 
L 319.78314 206.458589 
L 316.503802 205.132993 
L 313.224463 203.37145 
L 309.945124 205.132993 
L 306.665785 201.200504 
L 303.386446 200.251112 
L 300.107107 202.757055 
L 296.827769 199.753666 
L 293.54843 202.757055 
L 290.269091 199.426138 
L 286.989752 199.159058 
L 283.710413 199.426138 
L 280.431074 195.918406 
L 277.151736 197.499354 
L 273.872397 197.408351 
L 270.593058 194.101112 
L 267.313719 199.159058 
L 264.03438 199.186619 
L 260.755041 194.854829 
L 257.475702 199.745105 
L 254.196364 196.097835 
L 250.917025 192.508445 
L 247.637686 194.172273 
L 244.358347 188.311557 
L 241.079008 197.641825 
L 237.799669 191.211371 
L 234.520331 190.948733 
L 231.240992 187.166591 
L 227.961653 188.311557 
L 224.682314 188.138123 
L 221.402975 189.576775 
L 218.123636 187.707895 
L 214.844298 183.22572 
L 211.564959 177.152325 
L 208.28562 184.54479 
L 205.006281 173.748148 
L 201.726942 184.132818 
L 198.447603 172.611252 
L 195.168264 182.093446 
L 191.888926 183.392238 
L 188.609587 178.03083 
L 185.330248 176.899673 
L 182.050909 170.862691 
L 178.77157 164.186762 
L 175.492231 172.871883 
L 172.212893 161.402221 
L 168.933554 168.392532 
L 165.654215 165.046119 
L 162.374876 157.365953 
L 159.095537 150.885488 
L 155.816198 159.272628 
L 152.53686 157.034387 
L 149.257521 161.875232 
L 145.978182 157.318261 
L 142.698843 155.296134 
L 139.419504 155.822623 
L 136.140165 151.683487 
L 132.860826 161.800583 
L 129.581488 156.978335 
L 126.302149 153.977934 
L 123.02281 157.636543 
L 119.743471 152.597485 
L 116.464132 161.486852 
L 113.184793 158.565046 
L 109.905455 147.885291 
L 106.626116 159.692041 
L 103.346777 153.130648 
L 100.067438 162.508085 
L 96.788099 165.481091 
L 93.50876 170.002028 
L 90.229421 178.458314 
L 86.950083 179.679755 
L 83.670744 189.334839 
L 80.391405 189.96324 
L 77.112066 207.134757 
L 73.832727 214.185297 
z
" style="fill:#ff7f0e;fill-opacity:0.2;"/>
   </g>
   <g id="PolyCollection_3">
    <path clip-path="url(#p5626e0a66a)" d="M 73.832727 214.185294 
L 73.832727 214.185294 
L 77.112066 231.473563 
L 80.391405 241.555598 
L 83.670744 239.940988 
L 86.950083 253.103842 
L 90.229421 260.984929 
L 93.50876 255.144373 
L 96.788099 261.735657 
L 100.067438 258.081454 
L 103.346777 261.418868 
L 106.626116 274.272798 
L 109.905455 255.205611 
L 113.184793 273.314768 
L 116.464132 275.232818 
L 119.743471 277.273605 
L 123.02281 264.643946 
L 126.302149 280.983459 
L 129.581488 273.303468 
L 132.860826 273.925288 
L 136.140165 274.282674 
L 139.419504 275.013803 
L 142.698843 260.945568 
L 145.978182 280.356672 
L 149.257521 280.881228 
L 152.53686 271.284642 
L 155.816198 284.788737 
L 159.095537 279.950364 
L 162.374876 277.854624 
L 165.654215 281.124846 
L 168.933554 271.91182 
L 172.212893 259.412968 
L 175.492231 277.635661 
L 178.77157 295.488 
L 182.050909 267.113104 
L 185.330248 274.318295 
L 188.609587 287.974148 
L 191.888926 264.964278 
L 195.168264 271.846218 
L 198.447603 273.48704 
L 201.726942 281.673557 
L 205.006281 269.460388 
L 208.28562 272.977047 
L 211.564959 270.881005 
L 214.844298 286.977916 
L 218.123636 276.290972 
L 221.402975 280.08099 
L 224.682314 289.682965 
L 227.961653 276.296964 
L 231.240992 282.471068 
L 234.520331 289.997886 
L 237.799669 286.481278 
L 241.079008 277.219638 
L 244.358347 279.450196 
L 247.637686 278.391167 
L 250.917025 270.77624 
L 254.196364 285.334601 
L 257.475702 285.184053 
L 260.755041 278.581454 
L 264.03438 276.544498 
L 267.313719 291.640716 
L 270.593058 279.17966 
L 273.872397 280.173954 
L 277.151736 277.223589 
L 280.431074 274.784299 
L 283.710413 283.84056 
L 286.989752 280.356673 
L 290.269091 275.510406 
L 293.54843 279.598692 
L 296.827769 278.191914 
L 300.107107 288.991699 
L 303.386446 281.276357 
L 306.665785 285.405838 
L 309.945124 270.382539 
L 313.224463 275.750852 
L 316.503802 264.507288 
L 319.78314 282.870048 
L 323.062479 261.737632 
L 326.341818 269.460388 
L 329.621157 275.945281 
L 332.900496 271.91182 
L 336.179835 267.01698 
L 339.459174 276.302697 
L 342.738512 268.7342 
L 346.017851 278.3555 
L 349.29719 281.506904 
L 352.576529 276.733528 
L 355.855868 279.598692 
L 359.135207 264.045044 
L 362.414545 266.948012 
L 365.693884 265.881301 
L 368.973223 281.699914 
L 372.252562 261.038341 
L 375.531901 262.073525 
L 378.81124 276.830935 
L 382.090579 270.188451 
L 385.369917 265.418338 
L 388.649256 275.547407 
L 391.928595 262.610203 
L 395.207934 256.714702 
L 398.487273 256.459623 
L 398.487273 111.38508 
L 398.487273 111.38508 
L 395.207934 129.158985 
L 391.928595 128.414624 
L 388.649256 130.930839 
L 385.369917 134.620982 
L 382.090579 136.289793 
L 378.81124 155.403005 
L 375.531901 134.102442 
L 372.252562 137.713195 
L 368.973223 136.368394 
L 365.693884 135.445804 
L 362.414545 130.515739 
L 359.135207 123.116429 
L 355.855868 132.030693 
L 352.576529 134.895856 
L 349.29719 141.712542 
L 346.017851 142.288378 
L 342.738512 139.031829 
L 339.459174 134.038901 
L 336.179835 139.461264 
L 332.900496 146.156488 
L 329.621157 152.425306 
L 326.341818 144.744567 
L 323.062479 131.862766 
L 319.78314 155.802816 
L 316.503802 154.848805 
L 313.224463 142.317455 
L 309.945124 142.534629 
L 306.665785 145.540318 
L 303.386446 143.230874 
L 300.107107 144.530027 
L 296.827769 139.876393 
L 293.54843 132.030691 
L 290.269091 160.586889 
L 286.989752 155.740621 
L 283.710413 139.378887 
L 280.431074 161.312996 
L 277.151736 145.995858 
L 273.872397 149.484418 
L 270.593058 140.176433 
L 267.313719 163.77335 
L 264.03438 154.401657 
L 260.755041 158.803626 
L 257.475702 158.63995 
L 254.196364 155.913832 
L 250.917025 143.428714 
L 247.637686 138.389355 
L 244.358347 145.057036 
L 241.079008 153.726517 
L 237.799669 157.342724 
L 234.520331 140.948269 
L 231.240992 157.489581 
L 227.961653 150.785838 
L 224.682314 148.989898 
L 221.402975 154.728519 
L 218.123636 148.216259 
L 214.844298 147.831593 
L 211.564959 145.899518 
L 208.28562 148.954615 
L 205.006281 144.744565 
L 201.726942 154.423737 
L 198.447603 156.171331 
L 195.168264 160.387722 
L 191.888926 147.952891 
L 188.609587 164.864349 
L 185.330248 150.188936 
L 182.050909 150.955205 
L 178.77157 150.911573 
L 175.492231 158.461635 
L 172.212893 147.065277 
L 168.933554 146.156487 
L 165.654215 149.82131 
L 162.374876 163.393808 
L 159.095537 157.434715 
L 155.816198 170.625329 
L 152.53686 149.359236 
L 149.257521 157.791637 
L 145.978182 155.740622 
L 142.698843 150.683816 
L 139.419504 162.371276 
L 136.140165 152.800128 
L 132.860826 166.035361 
L 129.581488 162.793826 
L 126.302149 166.703898 
L 123.02281 158.575501 
L 119.743471 151.096979 
L 116.464132 163.440045 
L 113.184793 158.919173 
L 109.905455 149.984849 
L 106.626116 163.112282 
L 103.346777 161.800579 
L 100.067438 161.274639 
L 96.788099 176.937208 
L 93.50876 175.801783 
L 90.229421 169.961227 
L 86.950083 182.993453 
L 83.670744 188.429599 
L 80.391405 177.800495 
L 77.112066 193.033669 
L 73.832727 214.185294 
z
" style="fill:#2ca02c;fill-opacity:0.2;"/>
   </g>
   <g id="PolyCollection_4">
    <path clip-path="url(#p5626e0a66a)" d="M 73.832727 149.796058 
L 73.832727 149.796058 
L 77.112066 195.828489 
L 80.391405 189.215929 
L 83.670744 182.179731 
L 86.950083 174.027871 
L 90.229421 185.579412 
L 93.50876 183.439227 
L 96.788099 182.034562 
L 100.067438 185.653363 
L 103.346777 186.178676 
L 106.626116 179.059307 
L 109.905455 183.864103 
L 113.184793 195.289385 
L 116.464132 196.649106 
L 119.743471 194.673517 
L 123.02281 200.204387 
L 126.302149 212.830404 
L 129.581488 204.481402 
L 132.860826 208.54448 
L 136.140165 218.666198 
L 139.419504 219.226738 
L 142.698843 205.824756 
L 145.978182 214.671506 
L 149.257521 223.274612 
L 152.53686 207.676209 
L 155.816198 218.281903 
L 159.095537 216.293266 
L 162.374876 224.433895 
L 165.654215 207.804882 
L 168.933554 229.22764 
L 172.212893 230.71944 
L 175.492231 234.591922 
L 178.77157 207.19689 
L 182.050909 240.50593 
L 185.330248 222.601442 
L 188.609587 235.522014 
L 191.888926 229.357184 
L 195.168264 219.898146 
L 198.447603 227.937877 
L 201.726942 229.942449 
L 205.006281 234.26202 
L 208.28562 239.177001 
L 211.564959 224.91757 
L 214.844298 234.86804 
L 218.123636 246.786342 
L 221.402975 229.595777 
L 224.682314 235.659041 
L 227.961653 228.715605 
L 231.240992 225.734247 
L 234.520331 249.792316 
L 237.799669 240.698938 
L 241.079008 229.374509 
L 244.358347 247.800802 
L 247.637686 231.309428 
L 250.917025 245.601751 
L 254.196364 240.419016 
L 257.475702 245.987036 
L 260.755041 246.547944 
L 264.03438 238.798082 
L 267.313719 237.786789 
L 270.593058 240.523951 
L 273.872397 236.799101 
L 277.151736 234.86804 
L 280.431074 237.460547 
L 283.710413 267.959493 
L 286.989752 238.968087 
L 290.269091 249.022522 
L 293.54843 256.61174 
L 296.827769 242.405464 
L 300.107107 240.767166 
L 303.386446 243.448547 
L 306.665785 249.74065 
L 309.945124 237.139148 
L 313.224463 251.104511 
L 316.503802 236.132186 
L 319.78314 240.56984 
L 323.062479 242.784272 
L 326.341818 258.714257 
L 329.621157 245.669478 
L 332.900496 261.120619 
L 336.179835 253.165603 
L 339.459174 240.523951 
L 342.738512 233.554258 
L 346.017851 242.611686 
L 349.29719 240.166294 
L 352.576529 233.85869 
L 355.855868 265.600302 
L 359.135207 243.28858 
L 362.414545 249.607361 
L 365.693884 248.526862 
L 368.973223 244.823824 
L 372.252562 260.565988 
L 375.531901 246.385935 
L 378.81124 249.609439 
L 382.090579 249.664304 
L 385.369917 263.477992 
L 388.649256 266.393753 
L 391.928595 261.754772 
L 395.207934 259.954371 
L 398.487273 289.122664 
L 398.487273 113.492235 
L 398.487273 113.492235 
L 395.207934 110.465908 
L 391.928595 103.514368 
L 388.649256 118.192159 
L 385.369917 112.093427 
L 382.090579 102.726988 
L 378.81124 125.96198 
L 375.531901 108.580927 
L 372.252562 98.264228 
L 368.973223 99.84076 
L 365.693884 103.86443 
L 362.414545 93.769438 
L 359.135207 91.073725 
L 355.855868 102.244408 
L 352.576529 117.244818 
L 349.29719 89.044872 
L 346.017851 94.326189 
L 342.738512 90.505769 
L 339.459174 97.701709 
L 336.179835 106.952398 
L 332.900496 110.587445 
L 329.621157 89.980612 
L 326.341818 97.54039 
L 323.062479 118.621514 
L 319.78314 102.806959 
L 316.503802 84.064486 
L 313.224463 115.452414 
L 309.945124 90.784234 
L 306.665785 111.665136 
L 303.386446 117.957239 
L 300.107107 115.48748 
L 296.827769 93.244626 
L 293.54843 91.916199 
L 290.269091 125.261111 
L 286.989752 106.984281 
L 283.710413 98.597432 
L 280.431074 89.17505 
L 277.151736 96.918696 
L 273.872397 92.412065 
L 270.593058 97.701709 
L 267.313719 109.453365 
L 264.03438 95.564223 
L 260.755041 103.267779 
L 257.475702 121.857674 
L 254.196364 108.108922 
L 250.917025 106.789542 
L 247.637686 90.17503 
L 244.358347 98.151566 
L 241.079008 94.685518 
L 237.799669 98.814506 
L 234.520331 88.433344 
L 231.240992 104.764704 
L 227.961653 114.661194 
L 224.682314 97.415479 
L 221.402975 75.147479 
L 218.123636 105.60495 
L 214.844298 96.918696 
L 211.564959 99.142457 
L 208.28562 97.760874 
L 205.006281 109.114779 
L 201.726942 87.678654 
L 198.447603 85.819871 
L 195.168264 93.859602 
L 191.888926 88.263919 
L 188.609587 89.825797 
L 185.330248 86.005168 
L 182.050909 109.309793 
L 178.77157 88.531872 
L 175.492231 104.921522 
L 172.212893 90.765018 
L 168.933554 102.559096 
L 165.654215 80.197171 
L 162.374876 100.913917 
L 159.095537 96.176698 
L 155.816198 72.29572 
L 152.53686 77.750275 
L 149.257521 112.375479 
L 145.978182 96.510673 
L 142.698843 82.177297 
L 139.419504 98.394365 
L 136.140165 77.062564 
L 132.860826 82.033142 
L 129.581488 86.096221 
L 126.302149 89.337282 
L 123.02281 87.797666 
L 119.743471 84.314042 
L 116.464132 73.32396 
L 113.184793 74.683681 
L 109.905455 62.928837 
L 106.626116 53.568 
L 103.346777 70.916542 
L 100.067438 70.154071 
L 96.788099 68.621732 
L 93.50876 59.490359 
L 90.229421 65.076882 
L 86.950083 68.901715 
L 83.670744 72.339917 
L 80.391405 87.196061 
L 77.112066 107.626982 
L 73.832727 149.796058 
z
" style="fill:#d62728;fill-opacity:0.2;"/>
   </g>
   <g id="matplotlib.axis_1">
    <g id="xtick_1">
     <g id="line2d_1">
      <defs>
       <path d="M 0 0 
L 0 3.5 
" id="m0f28ab1220" style="stroke:#000000;stroke-width:0.8;"/>
      </defs>
      <g>
       <use style="stroke:#000000;stroke-width:0.8;" x="401.766612" xlink:href="#m0f28ab1220" y="307.584"/>
      </g>
     </g>
     <g id="text_1">
      <!-- 0 -->
      <g transform="translate(398.585362 322.182437)scale(0.1 -0.1)">
       <defs>
        <path d="M 31.78125 66.40625 
Q 24.171875 66.40625 20.328125 58.90625 
Q 16.5 51.421875 16.5 36.375 
Q 16.5 21.390625 20.328125 13.890625 
Q 24.171875 6.390625 31.78125 6.390625 
Q 39.453125 6.390625 43.28125 13.890625 
Q 47.125 21.390625 47.125 36.375 
Q 47.125 51.421875 43.28125 58.90625 
Q 39.453125 66.40625 31.78125 66.40625 
z
M 31.78125 74.21875 
Q 44.046875 74.21875 50.515625 64.515625 
Q 56.984375 54.828125 56.984375 36.375 
Q 56.984375 17.96875 50.515625 8.265625 
Q 44.046875 -1.421875 31.78125 -1.421875 
Q 19.53125 -1.421875 13.0625 8.265625 
Q 6.59375 17.96875 6.59375 36.375 
Q 6.59375 54.828125 13.0625 64.515625 
Q 19.53125 74.21875 31.78125 74.21875 
z
" id="DejaVuSans-48"/>
       </defs>
       <use xlink:href="#DejaVuSans-48"/>
      </g>
     </g>
    </g>
    <g id="xtick_2">
     <g id="line2d_2">
      <g>
       <use style="stroke:#000000;stroke-width:0.8;" x="336.179835" xlink:href="#m0f28ab1220" y="307.584"/>
      </g>
     </g>
     <g id="text_2">
      <!-- 20 -->
      <g transform="translate(329.817335 322.182437)scale(0.1 -0.1)">
       <defs>
        <path d="M 19.1875 8.296875 
L 53.609375 8.296875 
L 53.609375 0 
L 7.328125 0 
L 7.328125 8.296875 
Q 12.9375 14.109375 22.625 23.890625 
Q 32.328125 33.6875 34.8125 36.53125 
Q 39.546875 41.84375 41.421875 45.53125 
Q 43.3125 49.21875 43.3125 52.78125 
Q 43.3125 58.59375 39.234375 62.25 
Q 35.15625 65.921875 28.609375 65.921875 
Q 23.96875 65.921875 18.8125 64.3125 
Q 13.671875 62.703125 7.8125 59.421875 
L 7.8125 69.390625 
Q 13.765625 71.78125 18.9375 73 
Q 24.125 74.21875 28.421875 74.21875 
Q 39.75 74.21875 46.484375 68.546875 
Q 53.21875 62.890625 53.21875 53.421875 
Q 53.21875 48.921875 51.53125 44.890625 
Q 49.859375 40.875 45.40625 35.40625 
Q 44.1875 33.984375 37.640625 27.21875 
Q 31.109375 20.453125 19.1875 8.296875 
z
" id="DejaVuSans-50"/>
       </defs>
       <use xlink:href="#DejaVuSans-50"/>
       <use x="63.623047" xlink:href="#DejaVuSans-48"/>
      </g>
     </g>
    </g>
    <g id="xtick_3">
     <g id="line2d_3">
      <g>
       <use style="stroke:#000000;stroke-width:0.8;" x="270.593058" xlink:href="#m0f28ab1220" y="307.584"/>
      </g>
     </g>
     <g id="text_3">
      <!-- 40 -->
      <g transform="translate(264.230558 322.182437)scale(0.1 -0.1)">
       <defs>
        <path d="M 37.796875 64.3125 
L 12.890625 25.390625 
L 37.796875 25.390625 
z
M 35.203125 72.90625 
L 47.609375 72.90625 
L 47.609375 25.390625 
L 58.015625 25.390625 
L 58.015625 17.1875 
L 47.609375 17.1875 
L 47.609375 0 
L 37.796875 0 
L 37.796875 17.1875 
L 4.890625 17.1875 
L 4.890625 26.703125 
z
" id="DejaVuSans-52"/>
       </defs>
       <use xlink:href="#DejaVuSans-52"/>
       <use x="63.623047" xlink:href="#DejaVuSans-48"/>
      </g>
     </g>
    </g>
    <g id="xtick_4">
     <g id="line2d_4">
      <g>
       <use style="stroke:#000000;stroke-width:0.8;" x="205.006281" xlink:href="#m0f28ab1220" y="307.584"/>
      </g>
     </g>
     <g id="text_4">
      <!-- 60 -->
      <g transform="translate(198.643781 322.182437)scale(0.1 -0.1)">
       <defs>
        <path d="M 33.015625 40.375 
Q 26.375 40.375 22.484375 35.828125 
Q 18.609375 31.296875 18.609375 23.390625 
Q 18.609375 15.53125 22.484375 10.953125 
Q 26.375 6.390625 33.015625 6.390625 
Q 39.65625 6.390625 43.53125 10.953125 
Q 47.40625 15.53125 47.40625 23.390625 
Q 47.40625 31.296875 43.53125 35.828125 
Q 39.65625 40.375 33.015625 40.375 
z
M 52.59375 71.296875 
L 52.59375 62.3125 
Q 48.875 64.0625 45.09375 64.984375 
Q 41.3125 65.921875 37.59375 65.921875 
Q 27.828125 65.921875 22.671875 59.328125 
Q 17.53125 52.734375 16.796875 39.40625 
Q 19.671875 43.65625 24.015625 45.921875 
Q 28.375 48.1875 33.59375 48.1875 
Q 44.578125 48.1875 50.953125 41.515625 
Q 57.328125 34.859375 57.328125 23.390625 
Q 57.328125 12.15625 50.6875 5.359375 
Q 44.046875 -1.421875 33.015625 -1.421875 
Q 20.359375 -1.421875 13.671875 8.265625 
Q 6.984375 17.96875 6.984375 36.375 
Q 6.984375 53.65625 15.1875 63.9375 
Q 23.390625 74.21875 37.203125 74.21875 
Q 40.921875 74.21875 44.703125 73.484375 
Q 48.484375 72.75 52.59375 71.296875 
z
" id="DejaVuSans-54"/>
       </defs>
       <use xlink:href="#DejaVuSans-54"/>
       <use x="63.623047" xlink:href="#DejaVuSans-48"/>
      </g>
     </g>
    </g>
    <g id="xtick_5">
     <g id="line2d_5">
      <g>
       <use style="stroke:#000000;stroke-width:0.8;" x="139.419504" xlink:href="#m0f28ab1220" y="307.584"/>
      </g>
     </g>
     <g id="text_5">
      <!-- 80 -->
      <g transform="translate(133.057004 322.182437)scale(0.1 -0.1)">
       <defs>
        <path d="M 31.78125 34.625 
Q 24.75 34.625 20.71875 30.859375 
Q 16.703125 27.09375 16.703125 20.515625 
Q 16.703125 13.921875 20.71875 10.15625 
Q 24.75 6.390625 31.78125 6.390625 
Q 38.8125 6.390625 42.859375 10.171875 
Q 46.921875 13.96875 46.921875 20.515625 
Q 46.921875 27.09375 42.890625 30.859375 
Q 38.875 34.625 31.78125 34.625 
z
M 21.921875 38.8125 
Q 15.578125 40.375 12.03125 44.71875 
Q 8.5 49.078125 8.5 55.328125 
Q 8.5 64.0625 14.71875 69.140625 
Q 20.953125 74.21875 31.78125 74.21875 
Q 42.671875 74.21875 48.875 69.140625 
Q 55.078125 64.0625 55.078125 55.328125 
Q 55.078125 49.078125 51.53125 44.71875 
Q 48 40.375 41.703125 38.8125 
Q 48.828125 37.15625 52.796875 32.3125 
Q 56.78125 27.484375 56.78125 20.515625 
Q 56.78125 9.90625 50.3125 4.234375 
Q 43.84375 -1.421875 31.78125 -1.421875 
Q 19.734375 -1.421875 13.25 4.234375 
Q 6.78125 9.90625 6.78125 20.515625 
Q 6.78125 27.484375 10.78125 32.3125 
Q 14.796875 37.15625 21.921875 38.8125 
z
M 18.3125 54.390625 
Q 18.3125 48.734375 21.84375 45.5625 
Q 25.390625 42.390625 31.78125 42.390625 
Q 38.140625 42.390625 41.71875 45.5625 
Q 45.3125 48.734375 45.3125 54.390625 
Q 45.3125 60.0625 41.71875 63.234375 
Q 38.140625 66.40625 31.78125 66.40625 
Q 25.390625 66.40625 21.84375 63.234375 
Q 18.3125 60.0625 18.3125 54.390625 
z
" id="DejaVuSans-56"/>
       </defs>
       <use xlink:href="#DejaVuSans-56"/>
       <use x="63.623047" xlink:href="#DejaVuSans-48"/>
      </g>
     </g>
    </g>
    <g id="xtick_6">
     <g id="line2d_6">
      <g>
       <use style="stroke:#000000;stroke-width:0.8;" x="73.832727" xlink:href="#m0f28ab1220" y="307.584"/>
      </g>
     </g>
     <g id="text_6">
      <!-- 100 -->
      <g transform="translate(64.288977 322.182437)scale(0.1 -0.1)">
       <defs>
        <path d="M 12.40625 8.296875 
L 28.515625 8.296875 
L 28.515625 63.921875 
L 10.984375 60.40625 
L 10.984375 69.390625 
L 28.421875 72.90625 
L 38.28125 72.90625 
L 38.28125 8.296875 
L 54.390625 8.296875 
L 54.390625 0 
L 12.40625 0 
z
" id="DejaVuSans-49"/>
       </defs>
       <use xlink:href="#DejaVuSans-49"/>
       <use x="63.623047" xlink:href="#DejaVuSans-48"/>
       <use x="127.246094" xlink:href="#DejaVuSans-48"/>
      </g>
     </g>
    </g>
    <g id="text_7">
     <!-- Number of features -->
     <g transform="translate(187.4225 335.860562)scale(0.1 -0.1)">
      <defs>
       <path d="M 9.8125 72.90625 
L 23.09375 72.90625 
L 55.421875 11.921875 
L 55.421875 72.90625 
L 64.984375 72.90625 
L 64.984375 0 
L 51.703125 0 
L 19.390625 60.984375 
L 19.390625 0 
L 9.8125 0 
z
" id="DejaVuSans-78"/>
       <path d="M 8.5 21.578125 
L 8.5 54.6875 
L 17.484375 54.6875 
L 17.484375 21.921875 
Q 17.484375 14.15625 20.5 10.265625 
Q 23.53125 6.390625 29.59375 6.390625 
Q 36.859375 6.390625 41.078125 11.03125 
Q 45.3125 15.671875 45.3125 23.6875 
L 45.3125 54.6875 
L 54.296875 54.6875 
L 54.296875 0 
L 45.3125 0 
L 45.3125 8.40625 
Q 42.046875 3.421875 37.71875 1 
Q 33.40625 -1.421875 27.6875 -1.421875 
Q 18.265625 -1.421875 13.375 4.4375 
Q 8.5 10.296875 8.5 21.578125 
z
M 31.109375 56 
z
" id="DejaVuSans-117"/>
       <path d="M 52 44.1875 
Q 55.375 50.25 60.0625 53.125 
Q 64.75 56 71.09375 56 
Q 79.640625 56 84.28125 50.015625 
Q 88.921875 44.046875 88.921875 33.015625 
L 88.921875 0 
L 79.890625 0 
L 79.890625 32.71875 
Q 79.890625 40.578125 77.09375 44.375 
Q 74.3125 48.1875 68.609375 48.1875 
Q 61.625 48.1875 57.5625 43.546875 
Q 53.515625 38.921875 53.515625 30.90625 
L 53.515625 0 
L 44.484375 0 
L 44.484375 32.71875 
Q 44.484375 40.625 41.703125 44.40625 
Q 38.921875 48.1875 33.109375 48.1875 
Q 26.21875 48.1875 22.15625 43.53125 
Q 18.109375 38.875 18.109375 30.90625 
L 18.109375 0 
L 9.078125 0 
L 9.078125 54.6875 
L 18.109375 54.6875 
L 18.109375 46.1875 
Q 21.1875 51.21875 25.484375 53.609375 
Q 29.78125 56 35.6875 56 
Q 41.65625 56 45.828125 52.96875 
Q 50 49.953125 52 44.1875 
z
" id="DejaVuSans-109"/>
       <path d="M 48.6875 27.296875 
Q 48.6875 37.203125 44.609375 42.84375 
Q 40.53125 48.484375 33.40625 48.484375 
Q 26.265625 48.484375 22.1875 42.84375 
Q 18.109375 37.203125 18.109375 27.296875 
Q 18.109375 17.390625 22.1875 11.75 
Q 26.265625 6.109375 33.40625 6.109375 
Q 40.53125 6.109375 44.609375 11.75 
Q 48.6875 17.390625 48.6875 27.296875 
z
M 18.109375 46.390625 
Q 20.953125 51.265625 25.265625 53.625 
Q 29.59375 56 35.59375 56 
Q 45.5625 56 51.78125 48.09375 
Q 58.015625 40.1875 58.015625 27.296875 
Q 58.015625 14.40625 51.78125 6.484375 
Q 45.5625 -1.421875 35.59375 -1.421875 
Q 29.59375 -1.421875 25.265625 0.953125 
Q 20.953125 3.328125 18.109375 8.203125 
L 18.109375 0 
L 9.078125 0 
L 9.078125 75.984375 
L 18.109375 75.984375 
z
" id="DejaVuSans-98"/>
       <path d="M 56.203125 29.59375 
L 56.203125 25.203125 
L 14.890625 25.203125 
Q 15.484375 15.921875 20.484375 11.0625 
Q 25.484375 6.203125 34.421875 6.203125 
Q 39.59375 6.203125 44.453125 7.46875 
Q 49.3125 8.734375 54.109375 11.28125 
L 54.109375 2.78125 
Q 49.265625 0.734375 44.1875 -0.34375 
Q 39.109375 -1.421875 33.890625 -1.421875 
Q 20.796875 -1.421875 13.15625 6.1875 
Q 5.515625 13.8125 5.515625 26.8125 
Q 5.515625 40.234375 12.765625 48.109375 
Q 20.015625 56 32.328125 56 
Q 43.359375 56 49.78125 48.890625 
Q 56.203125 41.796875 56.203125 29.59375 
z
M 47.21875 32.234375 
Q 47.125 39.59375 43.09375 43.984375 
Q 39.0625 48.390625 32.421875 48.390625 
Q 24.90625 48.390625 20.390625 44.140625 
Q 15.875 39.890625 15.1875 32.171875 
z
" id="DejaVuSans-101"/>
       <path d="M 41.109375 46.296875 
Q 39.59375 47.171875 37.8125 47.578125 
Q 36.03125 48 33.890625 48 
Q 26.265625 48 22.1875 43.046875 
Q 18.109375 38.09375 18.109375 28.8125 
L 18.109375 0 
L 9.078125 0 
L 9.078125 54.6875 
L 18.109375 54.6875 
L 18.109375 46.1875 
Q 20.953125 51.171875 25.484375 53.578125 
Q 30.03125 56 36.53125 56 
Q 37.453125 56 38.578125 55.875 
Q 39.703125 55.765625 41.0625 55.515625 
z
" id="DejaVuSans-114"/>
       <path id="DejaVuSans-32"/>
       <path d="M 30.609375 48.390625 
Q 23.390625 48.390625 19.1875 42.75 
Q 14.984375 37.109375 14.984375 27.296875 
Q 14.984375 17.484375 19.15625 11.84375 
Q 23.34375 6.203125 30.609375 6.203125 
Q 37.796875 6.203125 41.984375 11.859375 
Q 46.1875 17.53125 46.1875 27.296875 
Q 46.1875 37.015625 41.984375 42.703125 
Q 37.796875 48.390625 30.609375 48.390625 
z
M 30.609375 56 
Q 42.328125 56 49.015625 48.375 
Q 55.71875 40.765625 55.71875 27.296875 
Q 55.71875 13.875 49.015625 6.21875 
Q 42.328125 -1.421875 30.609375 -1.421875 
Q 18.84375 -1.421875 12.171875 6.21875 
Q 5.515625 13.875 5.515625 27.296875 
Q 5.515625 40.765625 12.171875 48.375 
Q 18.84375 56 30.609375 56 
z
" id="DejaVuSans-111"/>
       <path d="M 37.109375 75.984375 
L 37.109375 68.5 
L 28.515625 68.5 
Q 23.6875 68.5 21.796875 66.546875 
Q 19.921875 64.59375 19.921875 59.515625 
L 19.921875 54.6875 
L 34.71875 54.6875 
L 34.71875 47.703125 
L 19.921875 47.703125 
L 19.921875 0 
L 10.890625 0 
L 10.890625 47.703125 
L 2.296875 47.703125 
L 2.296875 54.6875 
L 10.890625 54.6875 
L 10.890625 58.5 
Q 10.890625 67.625 15.140625 71.796875 
Q 19.390625 75.984375 28.609375 75.984375 
z
" id="DejaVuSans-102"/>
       <path d="M 34.28125 27.484375 
Q 23.390625 27.484375 19.1875 25 
Q 14.984375 22.515625 14.984375 16.5 
Q 14.984375 11.71875 18.140625 8.90625 
Q 21.296875 6.109375 26.703125 6.109375 
Q 34.1875 6.109375 38.703125 11.40625 
Q 43.21875 16.703125 43.21875 25.484375 
L 43.21875 27.484375 
z
M 52.203125 31.203125 
L 52.203125 0 
L 43.21875 0 
L 43.21875 8.296875 
Q 40.140625 3.328125 35.546875 0.953125 
Q 30.953125 -1.421875 24.3125 -1.421875 
Q 15.921875 -1.421875 10.953125 3.296875 
Q 6 8.015625 6 15.921875 
Q 6 25.140625 12.171875 29.828125 
Q 18.359375 34.515625 30.609375 34.515625 
L 43.21875 34.515625 
L 43.21875 35.40625 
Q 43.21875 41.609375 39.140625 45 
Q 35.0625 48.390625 27.6875 48.390625 
Q 23 48.390625 18.546875 47.265625 
Q 14.109375 46.140625 10.015625 43.890625 
L 10.015625 52.203125 
Q 14.9375 54.109375 19.578125 55.046875 
Q 24.21875 56 28.609375 56 
Q 40.484375 56 46.34375 49.84375 
Q 52.203125 43.703125 52.203125 31.203125 
z
" id="DejaVuSans-97"/>
       <path d="M 18.3125 70.21875 
L 18.3125 54.6875 
L 36.8125 54.6875 
L 36.8125 47.703125 
L 18.3125 47.703125 
L 18.3125 18.015625 
Q 18.3125 11.328125 20.140625 9.421875 
Q 21.96875 7.515625 27.59375 7.515625 
L 36.8125 7.515625 
L 36.8125 0 
L 27.59375 0 
Q 17.1875 0 13.234375 3.875 
Q 9.28125 7.765625 9.28125 18.015625 
L 9.28125 47.703125 
L 2.6875 47.703125 
L 2.6875 54.6875 
L 9.28125 54.6875 
L 9.28125 70.21875 
z
" id="DejaVuSans-116"/>
       <path d="M 44.28125 53.078125 
L 44.28125 44.578125 
Q 40.484375 46.53125 36.375 47.5 
Q 32.28125 48.484375 27.875 48.484375 
Q 21.1875 48.484375 17.84375 46.4375 
Q 14.5 44.390625 14.5 40.28125 
Q 14.5 37.15625 16.890625 35.375 
Q 19.28125 33.59375 26.515625 31.984375 
L 29.59375 31.296875 
Q 39.15625 29.25 43.1875 25.515625 
Q 47.21875 21.78125 47.21875 15.09375 
Q 47.21875 7.46875 41.1875 3.015625 
Q 35.15625 -1.421875 24.609375 -1.421875 
Q 20.21875 -1.421875 15.453125 -0.5625 
Q 10.6875 0.296875 5.421875 2 
L 5.421875 11.28125 
Q 10.40625 8.6875 15.234375 7.390625 
Q 20.0625 6.109375 24.8125 6.109375 
Q 31.15625 6.109375 34.5625 8.28125 
Q 37.984375 10.453125 37.984375 14.40625 
Q 37.984375 18.0625 35.515625 20.015625 
Q 33.0625 21.96875 24.703125 23.78125 
L 21.578125 24.515625 
Q 13.234375 26.265625 9.515625 29.90625 
Q 5.8125 33.546875 5.8125 39.890625 
Q 5.8125 47.609375 11.28125 51.796875 
Q 16.75 56 26.8125 56 
Q 31.78125 56 36.171875 55.265625 
Q 40.578125 54.546875 44.28125 53.078125 
z
" id="DejaVuSans-115"/>
      </defs>
      <use xlink:href="#DejaVuSans-78"/>
      <use x="74.804688" xlink:href="#DejaVuSans-117"/>
      <use x="138.183594" xlink:href="#DejaVuSans-109"/>
      <use x="235.595703" xlink:href="#DejaVuSans-98"/>
      <use x="299.072266" xlink:href="#DejaVuSans-101"/>
      <use x="360.595703" xlink:href="#DejaVuSans-114"/>
      <use x="401.708984" xlink:href="#DejaVuSans-32"/>
      <use x="433.496094" xlink:href="#DejaVuSans-111"/>
      <use x="494.677734" xlink:href="#DejaVuSans-102"/>
      <use x="529.882812" xlink:href="#DejaVuSans-32"/>
      <use x="561.669922" xlink:href="#DejaVuSans-102"/>
      <use x="596.875" xlink:href="#DejaVuSans-101"/>
      <use x="658.398438" xlink:href="#DejaVuSans-97"/>
      <use x="719.677734" xlink:href="#DejaVuSans-116"/>
      <use x="758.886719" xlink:href="#DejaVuSans-117"/>
      <use x="822.265625" xlink:href="#DejaVuSans-114"/>
      <use x="861.128906" xlink:href="#DejaVuSans-101"/>
      <use x="922.652344" xlink:href="#DejaVuSans-115"/>
     </g>
    </g>
   </g>
   <g id="matplotlib.axis_2">
    <g id="ytick_1">
     <g id="line2d_7">
      <defs>
       <path d="M 0 0 
L -3.5 0 
" id="m3502a00777" style="stroke:#000000;stroke-width:0.8;"/>
      </defs>
      <g>
       <use style="stroke:#000000;stroke-width:0.8;" x="57.6" xlink:href="#m3502a00777" y="278.574537"/>
      </g>
     </g>
     <g id="text_8">
      <!-- 0.30 -->
      <g transform="translate(28.334375 282.373755)scale(0.1 -0.1)">
       <defs>
        <path d="M 10.6875 12.40625 
L 21 12.40625 
L 21 0 
L 10.6875 0 
z
" id="DejaVuSans-46"/>
        <path d="M 40.578125 39.3125 
Q 47.65625 37.796875 51.625 33 
Q 55.609375 28.21875 55.609375 21.1875 
Q 55.609375 10.40625 48.1875 4.484375 
Q 40.765625 -1.421875 27.09375 -1.421875 
Q 22.515625 -1.421875 17.65625 -0.515625 
Q 12.796875 0.390625 7.625 2.203125 
L 7.625 11.71875 
Q 11.71875 9.328125 16.59375 8.109375 
Q 21.484375 6.890625 26.8125 6.890625 
Q 36.078125 6.890625 40.9375 10.546875 
Q 45.796875 14.203125 45.796875 21.1875 
Q 45.796875 27.640625 41.28125 31.265625 
Q 36.765625 34.90625 28.71875 34.90625 
L 20.21875 34.90625 
L 20.21875 43.015625 
L 29.109375 43.015625 
Q 36.375 43.015625 40.234375 45.921875 
Q 44.09375 48.828125 44.09375 54.296875 
Q 44.09375 59.90625 40.109375 62.90625 
Q 36.140625 65.921875 28.71875 65.921875 
Q 24.65625 65.921875 20.015625 65.03125 
Q 15.375 64.15625 9.8125 62.3125 
L 9.8125 71.09375 
Q 15.4375 72.65625 20.34375 73.4375 
Q 25.25 74.21875 29.59375 74.21875 
Q 40.828125 74.21875 47.359375 69.109375 
Q 53.90625 64.015625 53.90625 55.328125 
Q 53.90625 49.265625 50.4375 45.09375 
Q 46.96875 40.921875 40.578125 39.3125 
z
" id="DejaVuSans-51"/>
       </defs>
       <use xlink:href="#DejaVuSans-48"/>
       <use x="63.623047" xlink:href="#DejaVuSans-46"/>
       <use x="95.410156" xlink:href="#DejaVuSans-51"/>
       <use x="159.033203" xlink:href="#DejaVuSans-48"/>
      </g>
     </g>
    </g>
    <g id="ytick_2">
     <g id="line2d_8">
      <g>
       <use style="stroke:#000000;stroke-width:0.8;" x="57.6" xlink:href="#m3502a00777" y="246.379917"/>
      </g>
     </g>
     <g id="text_9">
      <!-- 0.35 -->
      <g transform="translate(28.334375 250.179136)scale(0.1 -0.1)">
       <defs>
        <path d="M 10.796875 72.90625 
L 49.515625 72.90625 
L 49.515625 64.59375 
L 19.828125 64.59375 
L 19.828125 46.734375 
Q 21.96875 47.46875 24.109375 47.828125 
Q 26.265625 48.1875 28.421875 48.1875 
Q 40.625 48.1875 47.75 41.5 
Q 54.890625 34.8125 54.890625 23.390625 
Q 54.890625 11.625 47.5625 5.09375 
Q 40.234375 -1.421875 26.90625 -1.421875 
Q 22.3125 -1.421875 17.546875 -0.640625 
Q 12.796875 0.140625 7.71875 1.703125 
L 7.71875 11.625 
Q 12.109375 9.234375 16.796875 8.0625 
Q 21.484375 6.890625 26.703125 6.890625 
Q 35.15625 6.890625 40.078125 11.328125 
Q 45.015625 15.765625 45.015625 23.390625 
Q 45.015625 31 40.078125 35.4375 
Q 35.15625 39.890625 26.703125 39.890625 
Q 22.75 39.890625 18.8125 39.015625 
Q 14.890625 38.140625 10.796875 36.28125 
z
" id="DejaVuSans-53"/>
       </defs>
       <use xlink:href="#DejaVuSans-48"/>
       <use x="63.623047" xlink:href="#DejaVuSans-46"/>
       <use x="95.410156" xlink:href="#DejaVuSans-51"/>
       <use x="159.033203" xlink:href="#DejaVuSans-53"/>
      </g>
     </g>
    </g>
    <g id="ytick_3">
     <g id="line2d_9">
      <g>
       <use style="stroke:#000000;stroke-width:0.8;" x="57.6" xlink:href="#m3502a00777" y="214.185297"/>
      </g>
     </g>
     <g id="text_10">
      <!-- 0.40 -->
      <g transform="translate(28.334375 217.984516)scale(0.1 -0.1)">
       <use xlink:href="#DejaVuSans-48"/>
       <use x="63.623047" xlink:href="#DejaVuSans-46"/>
       <use x="95.410156" xlink:href="#DejaVuSans-52"/>
       <use x="159.033203" xlink:href="#DejaVuSans-48"/>
      </g>
     </g>
    </g>
    <g id="ytick_4">
     <g id="line2d_10">
      <g>
       <use style="stroke:#000000;stroke-width:0.8;" x="57.6" xlink:href="#m3502a00777" y="181.990678"/>
      </g>
     </g>
     <g id="text_11">
      <!-- 0.45 -->
      <g transform="translate(28.334375 185.789896)scale(0.1 -0.1)">
       <use xlink:href="#DejaVuSans-48"/>
       <use x="63.623047" xlink:href="#DejaVuSans-46"/>
       <use x="95.410156" xlink:href="#DejaVuSans-52"/>
       <use x="159.033203" xlink:href="#DejaVuSans-53"/>
      </g>
     </g>
    </g>
    <g id="ytick_5">
     <g id="line2d_11">
      <g>
       <use style="stroke:#000000;stroke-width:0.8;" x="57.6" xlink:href="#m3502a00777" y="149.796058"/>
      </g>
     </g>
     <g id="text_12">
      <!-- 0.50 -->
      <g transform="translate(28.334375 153.595277)scale(0.1 -0.1)">
       <use xlink:href="#DejaVuSans-48"/>
       <use x="63.623047" xlink:href="#DejaVuSans-46"/>
       <use x="95.410156" xlink:href="#DejaVuSans-53"/>
       <use x="159.033203" xlink:href="#DejaVuSans-48"/>
      </g>
     </g>
    </g>
    <g id="ytick_6">
     <g id="line2d_12">
      <g>
       <use style="stroke:#000000;stroke-width:0.8;" x="57.6" xlink:href="#m3502a00777" y="117.601438"/>
      </g>
     </g>
     <g id="text_13">
      <!-- 0.55 -->
      <g transform="translate(28.334375 121.400657)scale(0.1 -0.1)">
       <use xlink:href="#DejaVuSans-48"/>
       <use x="63.623047" xlink:href="#DejaVuSans-46"/>
       <use x="95.410156" xlink:href="#DejaVuSans-53"/>
       <use x="159.033203" xlink:href="#DejaVuSans-53"/>
      </g>
     </g>
    </g>
    <g id="ytick_7">
     <g id="line2d_13">
      <g>
       <use style="stroke:#000000;stroke-width:0.8;" x="57.6" xlink:href="#m3502a00777" y="85.406819"/>
      </g>
     </g>
     <g id="text_14">
      <!-- 0.60 -->
      <g transform="translate(28.334375 89.206037)scale(0.1 -0.1)">
       <use xlink:href="#DejaVuSans-48"/>
       <use x="63.623047" xlink:href="#DejaVuSans-46"/>
       <use x="95.410156" xlink:href="#DejaVuSans-54"/>
       <use x="159.033203" xlink:href="#DejaVuSans-48"/>
      </g>
     </g>
    </g>
    <g id="ytick_8">
     <g id="line2d_14">
      <g>
       <use style="stroke:#000000;stroke-width:0.8;" x="57.6" xlink:href="#m3502a00777" y="53.212199"/>
      </g>
     </g>
     <g id="text_15">
      <!-- 0.65 -->
      <g transform="translate(28.334375 57.011418)scale(0.1 -0.1)">
       <use xlink:href="#DejaVuSans-48"/>
       <use x="63.623047" xlink:href="#DejaVuSans-46"/>
       <use x="95.410156" xlink:href="#DejaVuSans-54"/>
       <use x="159.033203" xlink:href="#DejaVuSans-53"/>
      </g>
     </g>
    </g>
    <g id="text_16">
     <!-- Accuracy -->
     <g transform="translate(22.254687 197.356125)rotate(-90)scale(0.1 -0.1)">
      <defs>
       <path d="M 34.1875 63.1875 
L 20.796875 26.90625 
L 47.609375 26.90625 
z
M 28.609375 72.90625 
L 39.796875 72.90625 
L 67.578125 0 
L 57.328125 0 
L 50.6875 18.703125 
L 17.828125 18.703125 
L 11.1875 0 
L 0.78125 0 
z
" id="DejaVuSans-65"/>
       <path d="M 48.78125 52.59375 
L 48.78125 44.1875 
Q 44.96875 46.296875 41.140625 47.34375 
Q 37.3125 48.390625 33.40625 48.390625 
Q 24.65625 48.390625 19.8125 42.84375 
Q 14.984375 37.3125 14.984375 27.296875 
Q 14.984375 17.28125 19.8125 11.734375 
Q 24.65625 6.203125 33.40625 6.203125 
Q 37.3125 6.203125 41.140625 7.25 
Q 44.96875 8.296875 48.78125 10.40625 
L 48.78125 2.09375 
Q 45.015625 0.34375 40.984375 -0.53125 
Q 36.96875 -1.421875 32.421875 -1.421875 
Q 20.0625 -1.421875 12.78125 6.34375 
Q 5.515625 14.109375 5.515625 27.296875 
Q 5.515625 40.671875 12.859375 48.328125 
Q 20.21875 56 33.015625 56 
Q 37.15625 56 41.109375 55.140625 
Q 45.0625 54.296875 48.78125 52.59375 
z
" id="DejaVuSans-99"/>
       <path d="M 32.171875 -5.078125 
Q 28.375 -14.84375 24.75 -17.8125 
Q 21.140625 -20.796875 15.09375 -20.796875 
L 7.90625 -20.796875 
L 7.90625 -13.28125 
L 13.1875 -13.28125 
Q 16.890625 -13.28125 18.9375 -11.515625 
Q 21 -9.765625 23.484375 -3.21875 
L 25.09375 0.875 
L 2.984375 54.6875 
L 12.5 54.6875 
L 29.59375 11.921875 
L 46.6875 54.6875 
L 56.203125 54.6875 
z
" id="DejaVuSans-121"/>
      </defs>
      <use xlink:href="#DejaVuSans-65"/>
      <use x="66.658203" xlink:href="#DejaVuSans-99"/>
      <use x="121.638672" xlink:href="#DejaVuSans-99"/>
      <use x="176.619141" xlink:href="#DejaVuSans-117"/>
      <use x="239.998047" xlink:href="#DejaVuSans-114"/>
      <use x="281.111328" xlink:href="#DejaVuSans-97"/>
      <use x="342.390625" xlink:href="#DejaVuSans-99"/>
      <use x="397.371094" xlink:href="#DejaVuSans-121"/>
     </g>
    </g>
   </g>
   <g id="line2d_15">
    <path clip-path="url(#p5626e0a66a)" d="M 73.832727 149.796058 
L 77.112066 147.864381 
L 80.391405 138.205995 
L 83.670744 138.849887 
L 86.950083 140.781565 
L 90.229421 142.069349 
L 93.50876 149.796058 
L 96.788099 154.947197 
L 100.067438 154.303305 
L 103.346777 154.947197 
L 106.626116 164.605583 
L 109.905455 174.907861 
L 113.184793 172.976184 
L 116.464132 158.810552 
L 119.743471 178.127323 
L 123.02281 182.63457 
L 126.302149 184.566247 
L 129.581488 188.429602 
L 132.860826 183.922355 
L 136.140165 198.73188 
L 139.419504 195.512418 
L 142.698843 201.30745 
L 145.978182 197.444095 
L 149.257521 192.936848 
L 152.53686 207.102481 
L 155.816198 209.034158 
L 159.095537 200.019665 
L 162.374876 202.595234 
L 165.654215 210.321943 
L 168.933554 209.034158 
L 172.212893 224.487576 
L 175.492231 222.555899 
L 178.77157 215.473082 
L 182.050909 210.965835 
L 185.330248 212.25362 
L 188.609587 223.199791 
L 191.888926 211.609728 
L 195.168264 213.541405 
L 198.447603 218.048652 
L 201.726942 218.692544 
L 205.006281 220.624221 
L 208.28562 221.268114 
L 211.564959 220.624221 
L 214.844298 217.404759 
L 218.123636 217.404759 
L 221.402975 218.048652 
L 224.682314 216.760867 
L 227.961653 213.541405 
L 231.240992 207.746373 
L 234.520331 209.034158 
L 237.799669 225.77536 
L 241.079008 213.541405 
L 244.358347 223.843683 
L 247.637686 218.692544 
L 250.917025 208.390266 
L 254.196364 218.048652 
L 257.475702 219.336437 
L 260.755041 211.609728 
L 264.03438 211.609728 
L 267.313719 210.321943 
L 270.593058 212.897513 
L 273.872397 213.541405 
L 277.151736 212.25362 
L 280.431074 214.185297 
L 283.710413 215.473082 
L 286.989752 210.321943 
L 290.269091 207.102481 
L 293.54843 213.541405 
L 296.827769 215.473082 
L 300.107107 214.185297 
L 303.386446 214.82919 
L 306.665785 210.965835 
L 309.945124 215.473082 
L 313.224463 213.541405 
L 316.503802 213.541405 
L 319.78314 210.965835 
L 323.062479 208.390266 
L 326.341818 211.609728 
L 329.621157 211.609728 
L 332.900496 214.185297 
L 336.179835 212.25362 
L 339.459174 213.541405 
L 342.738512 212.897513 
L 346.017851 214.185297 
L 349.29719 216.116975 
L 352.576529 213.541405 
L 355.855868 215.473082 
L 359.135207 213.541405 
L 362.414545 212.897513 
L 365.693884 214.185297 
L 368.973223 213.541405 
L 372.252562 214.185297 
L 375.531901 214.185297 
L 378.81124 214.185297 
L 382.090579 214.185297 
L 385.369917 214.185297 
L 388.649256 214.185297 
L 391.928595 214.185297 
L 395.207934 214.185297 
L 398.487273 214.185297 
" style="fill:none;stroke:#1f77b4;stroke-linecap:square;stroke-width:1.5;"/>
   </g>
   <g id="line2d_16">
    <path clip-path="url(#p5626e0a66a)" d="M 73.832727 214.185297 
L 77.112066 213.541405 
L 80.391405 208.390266 
L 83.670744 209.034158 
L 86.950083 207.746373 
L 90.229421 207.102481 
L 93.50876 204.526912 
L 96.788099 199.375772 
L 100.067438 202.595234 
L 103.346777 198.087988 
L 106.626116 205.814696 
L 109.905455 197.444095 
L 113.184793 202.595234 
L 116.464132 202.595234 
L 119.743471 203.883019 
L 123.02281 201.30745 
L 126.302149 199.375772 
L 129.581488 209.034158 
L 132.860826 211.609728 
L 136.140165 203.239127 
L 139.419504 210.321943 
L 142.698843 210.965835 
L 145.978182 214.185297 
L 149.257521 214.185297 
L 152.53686 211.609728 
L 155.816198 208.390266 
L 159.095537 203.239127 
L 162.374876 210.321943 
L 165.654215 216.116975 
L 168.933554 219.980329 
L 172.212893 212.897513 
L 175.492231 220.624221 
L 178.77157 219.336437 
L 182.050909 219.980329 
L 185.330248 225.131468 
L 188.609587 229.638715 
L 191.888926 227.063145 
L 195.168264 226.419253 
L 198.447603 214.82919 
L 201.726942 228.35093 
L 205.006281 220.624221 
L 208.28562 223.199791 
L 211.564959 216.760867 
L 214.844298 222.555899 
L 218.123636 227.707038 
L 221.402975 230.9265 
L 224.682314 223.843683 
L 227.961653 219.980329 
L 231.240992 220.624221 
L 234.520331 227.707038 
L 237.799669 221.268114 
L 241.079008 228.994822 
L 244.358347 219.980329 
L 247.637686 221.912006 
L 250.917025 219.336437 
L 254.196364 224.487576 
L 257.475702 227.063145 
L 260.755041 225.131468 
L 264.03438 224.487576 
L 267.313719 221.268114 
L 270.593058 219.336437 
L 273.872397 220.624221 
L 277.151736 219.980329 
L 280.431074 218.692544 
L 283.710413 219.980329 
L 286.989752 221.268114 
L 290.269091 219.980329 
L 293.54843 218.048652 
L 296.827769 215.473082 
L 300.107107 218.048652 
L 303.386446 218.048652 
L 306.665785 216.760867 
L 309.945124 216.116975 
L 313.224463 217.404759 
L 316.503802 216.116975 
L 319.78314 215.473082 
L 323.062479 215.473082 
L 326.341818 214.185297 
L 329.621157 214.82919 
L 332.900496 214.82919 
L 336.179835 215.473082 
L 339.459174 214.185297 
L 342.738512 214.82919 
L 346.017851 214.185297 
L 349.29719 214.185297 
L 352.576529 214.185297 
L 355.855868 214.185297 
L 359.135207 214.185297 
L 362.414545 214.185297 
L 365.693884 214.82919 
L 368.973223 214.185297 
L 372.252562 214.185297 
L 375.531901 214.185297 
L 378.81124 214.185297 
L 382.090579 214.185297 
L 385.369917 214.185297 
L 388.649256 214.185297 
L 391.928595 214.185297 
L 395.207934 214.185297 
L 398.487273 214.185297 
" style="fill:none;stroke:#ff7f0e;stroke-linecap:square;stroke-width:1.5;"/>
   </g>
   <g id="line2d_17">
    <path clip-path="url(#p5626e0a66a)" d="M 73.832727 214.185294 
L 77.112066 212.253616 
L 80.391405 209.678047 
L 83.670744 214.185294 
L 86.950083 218.048648 
L 90.229421 215.473078 
L 93.50876 215.473078 
L 96.788099 219.336432 
L 100.067438 209.678047 
L 103.346777 211.609723 
L 106.626116 218.69254 
L 109.905455 202.59523 
L 113.184793 216.11697 
L 116.464132 219.336431 
L 119.743471 214.185292 
L 123.02281 211.609723 
L 126.302149 223.843678 
L 129.581488 218.048647 
L 132.860826 219.980324 
L 136.140165 213.541401 
L 139.419504 218.692539 
L 142.698843 205.814692 
L 145.978182 218.048647 
L 149.257521 219.336432 
L 152.53686 210.321939 
L 155.816198 227.707033 
L 159.095537 218.692539 
L 162.374876 220.624216 
L 165.654215 215.473078 
L 168.933554 209.034154 
L 172.212893 203.239122 
L 175.492231 218.048648 
L 178.77157 223.199786 
L 182.050909 209.034154 
L 185.330248 212.253616 
L 188.609587 226.419248 
L 191.888926 206.458585 
L 195.168264 216.11697 
L 198.447603 214.829186 
L 201.726942 218.048647 
L 205.006281 207.102476 
L 208.28562 210.965831 
L 211.564959 208.390261 
L 214.844298 217.404755 
L 218.123636 212.253616 
L 221.402975 217.404755 
L 224.682314 219.336432 
L 227.961653 213.541401 
L 231.240992 219.980324 
L 234.520331 215.473077 
L 237.799669 221.912001 
L 241.079008 215.473078 
L 244.358347 212.253616 
L 247.637686 208.390261 
L 250.917025 207.102477 
L 254.196364 220.624217 
L 257.475702 221.912002 
L 260.755041 218.69254 
L 264.03438 215.473077 
L 267.313719 227.707033 
L 270.593058 209.678047 
L 273.872397 214.829186 
L 277.151736 211.609724 
L 280.431074 218.048647 
L 283.710413 211.609724 
L 286.989752 218.048647 
L 290.269091 218.048647 
L 293.54843 205.814691 
L 296.827769 209.034154 
L 300.107107 216.760863 
L 303.386446 212.253616 
L 306.665785 215.473078 
L 309.945124 206.458584 
L 313.224463 209.034154 
L 316.503802 209.678046 
L 319.78314 219.336432 
L 323.062479 196.800199 
L 326.341818 207.102478 
L 329.621157 214.185293 
L 332.900496 209.034154 
L 336.179835 203.239122 
L 339.459174 205.170799 
L 342.738512 203.883014 
L 346.017851 210.321939 
L 349.29719 211.609723 
L 352.576529 205.814692 
L 355.855868 205.814692 
L 359.135207 193.580737 
L 362.414545 198.731876 
L 365.693884 200.663553 
L 368.973223 209.034154 
L 372.252562 199.375768 
L 375.531901 198.087983 
L 378.81124 216.11697 
L 382.090579 203.239122 
L 385.369917 200.01966 
L 388.649256 203.239123 
L 391.928595 195.512413 
L 395.207934 192.936844 
L 398.487273 183.922351 
" style="fill:none;stroke:#2ca02c;stroke-linecap:square;stroke-width:1.5;"/>
   </g>
   <g id="line2d_18">
    <path clip-path="url(#p5626e0a66a)" d="M 73.832727 149.796058 
L 77.112066 151.727735 
L 80.391405 138.205995 
L 83.670744 127.259824 
L 86.950083 121.464793 
L 90.229421 125.328147 
L 93.50876 121.464793 
L 96.788099 125.328147 
L 100.067438 127.903717 
L 103.346777 128.547609 
L 106.626116 116.313654 
L 109.905455 123.39647 
L 113.184793 134.986533 
L 116.464132 134.986533 
L 119.743471 139.49378 
L 123.02281 144.001027 
L 126.302149 151.083843 
L 129.581488 145.288811 
L 132.860826 145.288811 
L 136.140165 147.864381 
L 139.419504 158.810552 
L 142.698843 144.001027 
L 145.978182 155.59109 
L 149.257521 167.825045 
L 152.53686 142.713242 
L 155.816198 145.288811 
L 159.095537 156.234982 
L 162.374876 162.673906 
L 165.654215 144.001027 
L 168.933554 165.893368 
L 172.212893 160.742229 
L 175.492231 169.756722 
L 178.77157 147.864381 
L 182.050909 174.907861 
L 185.330248 154.303305 
L 188.609587 162.673906 
L 191.888926 158.810552 
L 195.168264 156.878874 
L 198.447603 156.878874 
L 201.726942 158.810552 
L 205.006281 171.688399 
L 208.28562 168.468937 
L 211.564959 162.030014 
L 214.844298 165.893368 
L 218.123636 176.195646 
L 221.402975 152.371628 
L 224.682314 166.53726 
L 227.961653 171.688399 
L 231.240992 165.249476 
L 234.520331 169.11283 
L 237.799669 169.756722 
L 241.079008 162.030014 
L 244.358347 172.976184 
L 247.637686 160.742229 
L 250.917025 176.195646 
L 254.196364 174.263969 
L 257.475702 183.922355 
L 260.755041 174.907861 
L 264.03438 167.181153 
L 267.313719 173.620077 
L 270.593058 169.11283 
L 273.872397 164.605583 
L 277.151736 165.893368 
L 280.431074 163.317798 
L 283.710413 183.278463 
L 286.989752 172.976184 
L 290.269091 187.141817 
L 293.54843 174.263969 
L 296.827769 167.825045 
L 300.107107 178.127323 
L 303.386446 180.702893 
L 306.665785 180.702893 
L 309.945124 163.961691 
L 313.224463 183.278463 
L 316.503802 160.098336 
L 319.78314 171.688399 
L 323.062479 180.702893 
L 326.341818 178.127323 
L 329.621157 167.825045 
L 332.900496 185.854032 
L 336.179835 180.059001 
L 339.459174 169.11283 
L 342.738512 162.030014 
L 346.017851 168.468937 
L 349.29719 164.605583 
L 352.576529 175.551754 
L 355.855868 183.922355 
L 359.135207 167.181153 
L 362.414545 171.688399 
L 365.693884 176.195646 
L 368.973223 172.332292 
L 372.252562 179.415108 
L 375.531901 177.483431 
L 378.81124 187.785709 
L 382.090579 176.195646 
L 385.369917 187.785709 
L 388.649256 192.292956 
L 391.928595 182.63457 
L 395.207934 185.21014 
L 398.487273 201.30745 
" style="fill:none;stroke:#d62728;stroke-linecap:square;stroke-width:1.5;"/>
   </g>
   <g id="patch_3">
    <path d="M 57.6 307.584 
L 57.6 41.472 
" style="fill:none;stroke:#000000;stroke-linecap:square;stroke-linejoin:miter;stroke-width:0.8;"/>
   </g>
   <g id="patch_4">
    <path d="M 414.72 307.584 
L 414.72 41.472 
" style="fill:none;stroke:#000000;stroke-linecap:square;stroke-linejoin:miter;stroke-width:0.8;"/>
   </g>
   <g id="patch_5">
    <path d="M 57.6 307.584 
L 414.72 307.584 
" style="fill:none;stroke:#000000;stroke-linecap:square;stroke-linejoin:miter;stroke-width:0.8;"/>
   </g>
   <g id="patch_6">
    <path d="M 57.6 41.472 
L 414.72 41.472 
" style="fill:none;stroke:#000000;stroke-linecap:square;stroke-linejoin:miter;stroke-width:0.8;"/>
   </g>
   <g id="text_17">
    <!-- Toy_linear_100_100 -->
    <g transform="translate(177.41625 35.472)scale(0.12 -0.12)">
     <defs>
      <path d="M -0.296875 72.90625 
L 61.375 72.90625 
L 61.375 64.59375 
L 35.5 64.59375 
L 35.5 0 
L 25.59375 0 
L 25.59375 64.59375 
L -0.296875 64.59375 
z
" id="DejaVuSans-84"/>
      <path d="M 50.984375 -16.609375 
L 50.984375 -23.578125 
L -0.984375 -23.578125 
L -0.984375 -16.609375 
z
" id="DejaVuSans-95"/>
      <path d="M 9.421875 75.984375 
L 18.40625 75.984375 
L 18.40625 0 
L 9.421875 0 
z
" id="DejaVuSans-108"/>
      <path d="M 9.421875 54.6875 
L 18.40625 54.6875 
L 18.40625 0 
L 9.421875 0 
z
M 9.421875 75.984375 
L 18.40625 75.984375 
L 18.40625 64.59375 
L 9.421875 64.59375 
z
" id="DejaVuSans-105"/>
      <path d="M 54.890625 33.015625 
L 54.890625 0 
L 45.90625 0 
L 45.90625 32.71875 
Q 45.90625 40.484375 42.875 44.328125 
Q 39.84375 48.1875 33.796875 48.1875 
Q 26.515625 48.1875 22.3125 43.546875 
Q 18.109375 38.921875 18.109375 30.90625 
L 18.109375 0 
L 9.078125 0 
L 9.078125 54.6875 
L 18.109375 54.6875 
L 18.109375 46.1875 
Q 21.34375 51.125 25.703125 53.5625 
Q 30.078125 56 35.796875 56 
Q 45.21875 56 50.046875 50.171875 
Q 54.890625 44.34375 54.890625 33.015625 
z
" id="DejaVuSans-110"/>
     </defs>
     <use xlink:href="#DejaVuSans-84"/>
     <use x="44.083984" xlink:href="#DejaVuSans-111"/>
     <use x="105.265625" xlink:href="#DejaVuSans-121"/>
     <use x="164.445312" xlink:href="#DejaVuSans-95"/>
     <use x="214.445312" xlink:href="#DejaVuSans-108"/>
     <use x="242.228516" xlink:href="#DejaVuSans-105"/>
     <use x="270.011719" xlink:href="#DejaVuSans-110"/>
     <use x="333.390625" xlink:href="#DejaVuSans-101"/>
     <use x="394.914062" xlink:href="#DejaVuSans-97"/>
     <use x="456.193359" xlink:href="#DejaVuSans-114"/>
     <use x="497.306641" xlink:href="#DejaVuSans-95"/>
     <use x="547.306641" xlink:href="#DejaVuSans-49"/>
     <use x="610.929688" xlink:href="#DejaVuSans-48"/>
     <use x="674.552734" xlink:href="#DejaVuSans-48"/>
     <use x="738.175781" xlink:href="#DejaVuSans-95"/>
     <use x="788.175781" xlink:href="#DejaVuSans-49"/>
     <use x="851.798828" xlink:href="#DejaVuSans-48"/>
     <use x="915.421875" xlink:href="#DejaVuSans-48"/>
    </g>
   </g>
   <g id="legend_1">
    <g id="patch_7">
     <path d="M 211.399687 108.1845 
L 407.72 108.1845 
Q 409.72 108.1845 409.72 106.1845 
L 409.72 48.472 
Q 409.72 46.472 407.72 46.472 
L 211.399687 46.472 
Q 209.399687 46.472 209.399687 48.472 
L 209.399687 106.1845 
Q 209.399687 108.1845 211.399687 108.1845 
z
" style="fill:#ffffff;opacity:0.8;stroke:#cccccc;stroke-linejoin:miter;"/>
    </g>
    <g id="line2d_19">
     <path d="M 213.399687 54.570438 
L 233.399687 54.570438 
" style="fill:none;stroke:#1f77b4;stroke-linecap:square;stroke-width:1.5;"/>
    </g>
    <g id="line2d_20"/>
    <g id="text_18">
     <!-- Random Forest -->
     <g transform="translate(241.399687 58.070438)scale(0.1 -0.1)">
      <defs>
       <path d="M 44.390625 34.1875 
Q 47.5625 33.109375 50.5625 29.59375 
Q 53.5625 26.078125 56.59375 19.921875 
L 66.609375 0 
L 56 0 
L 46.6875 18.703125 
Q 43.0625 26.03125 39.671875 28.421875 
Q 36.28125 30.8125 30.421875 30.8125 
L 19.671875 30.8125 
L 19.671875 0 
L 9.8125 0 
L 9.8125 72.90625 
L 32.078125 72.90625 
Q 44.578125 72.90625 50.734375 67.671875 
Q 56.890625 62.453125 56.890625 51.90625 
Q 56.890625 45.015625 53.6875 40.46875 
Q 50.484375 35.9375 44.390625 34.1875 
z
M 19.671875 64.796875 
L 19.671875 38.921875 
L 32.078125 38.921875 
Q 39.203125 38.921875 42.84375 42.21875 
Q 46.484375 45.515625 46.484375 51.90625 
Q 46.484375 58.296875 42.84375 61.546875 
Q 39.203125 64.796875 32.078125 64.796875 
z
" id="DejaVuSans-82"/>
       <path d="M 45.40625 46.390625 
L 45.40625 75.984375 
L 54.390625 75.984375 
L 54.390625 0 
L 45.40625 0 
L 45.40625 8.203125 
Q 42.578125 3.328125 38.25 0.953125 
Q 33.9375 -1.421875 27.875 -1.421875 
Q 17.96875 -1.421875 11.734375 6.484375 
Q 5.515625 14.40625 5.515625 27.296875 
Q 5.515625 40.1875 11.734375 48.09375 
Q 17.96875 56 27.875 56 
Q 33.9375 56 38.25 53.625 
Q 42.578125 51.265625 45.40625 46.390625 
z
M 14.796875 27.296875 
Q 14.796875 17.390625 18.875 11.75 
Q 22.953125 6.109375 30.078125 6.109375 
Q 37.203125 6.109375 41.296875 11.75 
Q 45.40625 17.390625 45.40625 27.296875 
Q 45.40625 37.203125 41.296875 42.84375 
Q 37.203125 48.484375 30.078125 48.484375 
Q 22.953125 48.484375 18.875 42.84375 
Q 14.796875 37.203125 14.796875 27.296875 
z
" id="DejaVuSans-100"/>
       <path d="M 9.8125 72.90625 
L 51.703125 72.90625 
L 51.703125 64.59375 
L 19.671875 64.59375 
L 19.671875 43.109375 
L 48.578125 43.109375 
L 48.578125 34.8125 
L 19.671875 34.8125 
L 19.671875 0 
L 9.8125 0 
z
" id="DejaVuSans-70"/>
      </defs>
      <use xlink:href="#DejaVuSans-82"/>
      <use x="67.232422" xlink:href="#DejaVuSans-97"/>
      <use x="128.511719" xlink:href="#DejaVuSans-110"/>
      <use x="191.890625" xlink:href="#DejaVuSans-100"/>
      <use x="255.367188" xlink:href="#DejaVuSans-111"/>
      <use x="316.548828" xlink:href="#DejaVuSans-109"/>
      <use x="413.960938" xlink:href="#DejaVuSans-32"/>
      <use x="445.748047" xlink:href="#DejaVuSans-70"/>
      <use x="499.642578" xlink:href="#DejaVuSans-111"/>
      <use x="560.824219" xlink:href="#DejaVuSans-114"/>
      <use x="599.6875" xlink:href="#DejaVuSans-101"/>
      <use x="661.210938" xlink:href="#DejaVuSans-115"/>
      <use x="713.310547" xlink:href="#DejaVuSans-116"/>
     </g>
    </g>
    <g id="line2d_21">
     <path d="M 213.399687 69.248563 
L 233.399687 69.248563 
" style="fill:none;stroke:#ff7f0e;stroke-linecap:square;stroke-width:1.5;"/>
    </g>
    <g id="line2d_22"/>
    <g id="text_19">
     <!-- XGBoost -->
     <g transform="translate(241.399687 72.748563)scale(0.1 -0.1)">
      <defs>
       <path d="M 6.296875 72.90625 
L 16.890625 72.90625 
L 35.015625 45.796875 
L 53.21875 72.90625 
L 63.8125 72.90625 
L 40.375 37.890625 
L 65.375 0 
L 54.78125 0 
L 34.28125 31 
L 13.625 0 
L 2.984375 0 
L 29 38.921875 
z
" id="DejaVuSans-88"/>
       <path d="M 59.515625 10.40625 
L 59.515625 29.984375 
L 43.40625 29.984375 
L 43.40625 38.09375 
L 69.28125 38.09375 
L 69.28125 6.78125 
Q 63.578125 2.734375 56.6875 0.65625 
Q 49.8125 -1.421875 42 -1.421875 
Q 24.90625 -1.421875 15.25 8.5625 
Q 5.609375 18.5625 5.609375 36.375 
Q 5.609375 54.25 15.25 64.234375 
Q 24.90625 74.21875 42 74.21875 
Q 49.125 74.21875 55.546875 72.453125 
Q 61.96875 70.703125 67.390625 67.28125 
L 67.390625 56.78125 
Q 61.921875 61.421875 55.765625 63.765625 
Q 49.609375 66.109375 42.828125 66.109375 
Q 29.4375 66.109375 22.71875 58.640625 
Q 16.015625 51.171875 16.015625 36.375 
Q 16.015625 21.625 22.71875 14.15625 
Q 29.4375 6.6875 42.828125 6.6875 
Q 48.046875 6.6875 52.140625 7.59375 
Q 56.25 8.5 59.515625 10.40625 
z
" id="DejaVuSans-71"/>
       <path d="M 19.671875 34.8125 
L 19.671875 8.109375 
L 35.5 8.109375 
Q 43.453125 8.109375 47.28125 11.40625 
Q 51.125 14.703125 51.125 21.484375 
Q 51.125 28.328125 47.28125 31.5625 
Q 43.453125 34.8125 35.5 34.8125 
z
M 19.671875 64.796875 
L 19.671875 42.828125 
L 34.28125 42.828125 
Q 41.5 42.828125 45.03125 45.53125 
Q 48.578125 48.25 48.578125 53.8125 
Q 48.578125 59.328125 45.03125 62.0625 
Q 41.5 64.796875 34.28125 64.796875 
z
M 9.8125 72.90625 
L 35.015625 72.90625 
Q 46.296875 72.90625 52.390625 68.21875 
Q 58.5 63.53125 58.5 54.890625 
Q 58.5 48.1875 55.375 44.234375 
Q 52.25 40.28125 46.1875 39.3125 
Q 53.46875 37.75 57.5 32.78125 
Q 61.53125 27.828125 61.53125 20.40625 
Q 61.53125 10.640625 54.890625 5.3125 
Q 48.25 0 35.984375 0 
L 9.8125 0 
z
" id="DejaVuSans-66"/>
      </defs>
      <use xlink:href="#DejaVuSans-88"/>
      <use x="68.505859" xlink:href="#DejaVuSans-71"/>
      <use x="145.996094" xlink:href="#DejaVuSans-66"/>
      <use x="214.599609" xlink:href="#DejaVuSans-111"/>
      <use x="275.78125" xlink:href="#DejaVuSans-111"/>
      <use x="336.962891" xlink:href="#DejaVuSans-115"/>
      <use x="389.0625" xlink:href="#DejaVuSans-116"/>
     </g>
    </g>
    <g id="line2d_23">
     <path d="M 213.399687 83.926688 
L 233.399687 83.926688 
" style="fill:none;stroke:#2ca02c;stroke-linecap:square;stroke-width:1.5;"/>
    </g>
    <g id="line2d_24"/>
    <g id="text_20">
     <!-- Neural Network + Regularization -->
     <g transform="translate(241.399687 87.426688)scale(0.1 -0.1)">
      <defs>
       <path d="M 4.203125 54.6875 
L 13.1875 54.6875 
L 24.421875 12.015625 
L 35.59375 54.6875 
L 46.1875 54.6875 
L 57.421875 12.015625 
L 68.609375 54.6875 
L 77.59375 54.6875 
L 63.28125 0 
L 52.6875 0 
L 40.921875 44.828125 
L 29.109375 0 
L 18.5 0 
z
" id="DejaVuSans-119"/>
       <path d="M 9.078125 75.984375 
L 18.109375 75.984375 
L 18.109375 31.109375 
L 44.921875 54.6875 
L 56.390625 54.6875 
L 27.390625 29.109375 
L 57.625 0 
L 45.90625 0 
L 18.109375 26.703125 
L 18.109375 0 
L 9.078125 0 
z
" id="DejaVuSans-107"/>
       <path d="M 46 62.703125 
L 46 35.5 
L 73.1875 35.5 
L 73.1875 27.203125 
L 46 27.203125 
L 46 0 
L 37.796875 0 
L 37.796875 27.203125 
L 10.59375 27.203125 
L 10.59375 35.5 
L 37.796875 35.5 
L 37.796875 62.703125 
z
" id="DejaVuSans-43"/>
       <path d="M 45.40625 27.984375 
Q 45.40625 37.75 41.375 43.109375 
Q 37.359375 48.484375 30.078125 48.484375 
Q 22.859375 48.484375 18.828125 43.109375 
Q 14.796875 37.75 14.796875 27.984375 
Q 14.796875 18.265625 18.828125 12.890625 
Q 22.859375 7.515625 30.078125 7.515625 
Q 37.359375 7.515625 41.375 12.890625 
Q 45.40625 18.265625 45.40625 27.984375 
z
M 54.390625 6.78125 
Q 54.390625 -7.171875 48.1875 -13.984375 
Q 42 -20.796875 29.203125 -20.796875 
Q 24.46875 -20.796875 20.265625 -20.09375 
Q 16.0625 -19.390625 12.109375 -17.921875 
L 12.109375 -9.1875 
Q 16.0625 -11.328125 19.921875 -12.34375 
Q 23.78125 -13.375 27.78125 -13.375 
Q 36.625 -13.375 41.015625 -8.765625 
Q 45.40625 -4.15625 45.40625 5.171875 
L 45.40625 9.625 
Q 42.625 4.78125 38.28125 2.390625 
Q 33.9375 0 27.875 0 
Q 17.828125 0 11.671875 7.65625 
Q 5.515625 15.328125 5.515625 27.984375 
Q 5.515625 40.671875 11.671875 48.328125 
Q 17.828125 56 27.875 56 
Q 33.9375 56 38.28125 53.609375 
Q 42.625 51.21875 45.40625 46.390625 
L 45.40625 54.6875 
L 54.390625 54.6875 
z
" id="DejaVuSans-103"/>
       <path d="M 5.515625 54.6875 
L 48.1875 54.6875 
L 48.1875 46.484375 
L 14.40625 7.171875 
L 48.1875 7.171875 
L 48.1875 0 
L 4.296875 0 
L 4.296875 8.203125 
L 38.09375 47.515625 
L 5.515625 47.515625 
z
" id="DejaVuSans-122"/>
      </defs>
      <use xlink:href="#DejaVuSans-78"/>
      <use x="74.804688" xlink:href="#DejaVuSans-101"/>
      <use x="136.328125" xlink:href="#DejaVuSans-117"/>
      <use x="199.707031" xlink:href="#DejaVuSans-114"/>
      <use x="240.820312" xlink:href="#DejaVuSans-97"/>
      <use x="302.099609" xlink:href="#DejaVuSans-108"/>
      <use x="329.882812" xlink:href="#DejaVuSans-32"/>
      <use x="361.669922" xlink:href="#DejaVuSans-78"/>
      <use x="436.474609" xlink:href="#DejaVuSans-101"/>
      <use x="497.998047" xlink:href="#DejaVuSans-116"/>
      <use x="537.207031" xlink:href="#DejaVuSans-119"/>
      <use x="618.994141" xlink:href="#DejaVuSans-111"/>
      <use x="680.175781" xlink:href="#DejaVuSans-114"/>
      <use x="721.289062" xlink:href="#DejaVuSans-107"/>
      <use x="779.199219" xlink:href="#DejaVuSans-32"/>
      <use x="810.986328" xlink:href="#DejaVuSans-43"/>
      <use x="894.775391" xlink:href="#DejaVuSans-32"/>
      <use x="926.5625" xlink:href="#DejaVuSans-82"/>
      <use x="991.544922" xlink:href="#DejaVuSans-101"/>
      <use x="1053.068359" xlink:href="#DejaVuSans-103"/>
      <use x="1116.544922" xlink:href="#DejaVuSans-117"/>
      <use x="1179.923828" xlink:href="#DejaVuSans-108"/>
      <use x="1207.707031" xlink:href="#DejaVuSans-97"/>
      <use x="1268.986328" xlink:href="#DejaVuSans-114"/>
      <use x="1310.099609" xlink:href="#DejaVuSans-105"/>
      <use x="1337.882812" xlink:href="#DejaVuSans-122"/>
      <use x="1390.373047" xlink:href="#DejaVuSans-97"/>
      <use x="1451.652344" xlink:href="#DejaVuSans-116"/>
      <use x="1490.861328" xlink:href="#DejaVuSans-105"/>
      <use x="1518.644531" xlink:href="#DejaVuSans-111"/>
      <use x="1579.826172" xlink:href="#DejaVuSans-110"/>
     </g>
    </g>
    <g id="line2d_25">
     <path d="M 213.399687 98.604813 
L 233.399687 98.604813 
" style="fill:none;stroke:#d62728;stroke-linecap:square;stroke-width:1.5;"/>
    </g>
    <g id="line2d_26"/>
    <g id="text_21">
     <!-- KNN -->
     <g transform="translate(241.399687 102.104813)scale(0.1 -0.1)">
      <defs>
       <path d="M 9.8125 72.90625 
L 19.671875 72.90625 
L 19.671875 42.09375 
L 52.390625 72.90625 
L 65.09375 72.90625 
L 28.90625 38.921875 
L 67.671875 0 
L 54.6875 0 
L 19.671875 35.109375 
L 19.671875 0 
L 9.8125 0 
z
" id="DejaVuSans-75"/>
      </defs>
      <use xlink:href="#DejaVuSans-75"/>
      <use x="65.576172" xlink:href="#DejaVuSans-78"/>
      <use x="140.380859" xlink:href="#DejaVuSans-78"/>
     </g>
    </g>
   </g>
  </g>
 </g>
 <defs>
  <clipPath id="p5626e0a66a">
   <rect height="266.112" width="357.12" x="57.6" y="41.472"/>
  </clipPath>
 </defs>
</svg>
