<?xml version="1.0" encoding="utf-8" standalone="no"?>
<!DOCTYPE svg PUBLIC "-//W3C//DTD SVG 1.1//EN"
  "http://www.w3.org/Graphics/SVG/1.1/DTD/svg11.dtd">
<!-- Created with matplotlib (https://matplotlib.org/) -->
<svg height="345.6pt" version="1.1" viewBox="0 0 460.8 345.6" width="460.8pt" xmlns="http://www.w3.org/2000/svg" xmlns:xlink="http://www.w3.org/1999/xlink">
 <metadata>
  <rdf:RDF xmlns:cc="http://creativecommons.org/ns#" xmlns:dc="http://purl.org/dc/elements/1.1/" xmlns:rdf="http://www.w3.org/1999/02/22-rdf-syntax-ns#">
   <cc:Work>
    <dc:type rdf:resource="http://purl.org/dc/dcmitype/StillImage"/>
    <dc:date>2023-09-19T16:58:38.490852</dc:date>
    <dc:format>image/svg+xml</dc:format>
    <dc:creator>
     <cc:Agent>
      <dc:title>Matplotlib v3.3.4, https://matplotlib.org/</dc:title>
     </cc:Agent>
    </dc:creator>
   </cc:Work>
  </rdf:RDF>
 </metadata>
 <defs>
  <style type="text/css">*{stroke-linecap:butt;stroke-linejoin:round;}</style>
 </defs>
 <g id="figure_1">
  <g id="patch_1">
   <path d="M 0 345.6 
L 460.8 345.6 
L 460.8 0 
L 0 0 
z
" style="fill:#ffffff;"/>
  </g>
  <g id="axes_1">
   <g id="patch_2">
    <path d="M 57.6 307.584 
L 414.72 307.584 
L 414.72 41.472 
L 57.6 41.472 
z
" style="fill:#ffffff;"/>
   </g>
   <g id="PolyCollection_1">
    <path clip-path="url(#pc61a570653)" d="M 73.832727 105.748819 
L 73.832727 105.748819 
L 77.112066 113.786546 
L 80.391405 120.111578 
L 83.670744 125.692086 
L 86.950083 121.900097 
L 90.229421 124.648343 
L 93.50876 129.099782 
L 96.788099 130.693652 
L 100.067438 131.763648 
L 103.346777 139.844424 
L 106.626116 135.87201 
L 109.905455 144.055125 
L 113.184793 140.712143 
L 116.464132 145.420224 
L 119.743471 143.642333 
L 123.02281 153.83552 
L 126.302149 151.233786 
L 129.581488 152.560643 
L 132.860826 156.878095 
L 136.140165 156.42129 
L 139.419504 152.879236 
L 142.698843 154.855223 
L 145.978182 156.538129 
L 149.257521 152.455897 
L 152.53686 159.576255 
L 155.816198 159.641674 
L 159.095537 165.50439 
L 162.374876 172.065998 
L 165.654215 164.555446 
L 168.933554 166.710348 
L 172.212893 168.454173 
L 175.492231 165.448686 
L 178.77157 168.431428 
L 182.050909 168.804298 
L 185.330248 176.559328 
L 188.609587 175.53333 
L 191.888926 173.404787 
L 195.168264 186.912899 
L 198.447603 176.089513 
L 201.726942 175.68429 
L 205.006281 180.33886 
L 208.28562 185.085888 
L 211.564959 180.932807 
L 214.844298 186.546294 
L 218.123636 187.873195 
L 221.402975 188.679166 
L 224.682314 186.560438 
L 227.961653 188.270476 
L 231.240992 194.418588 
L 234.520331 195.989841 
L 237.799669 194.39654 
L 241.079008 198.778345 
L 244.358347 198.56671 
L 247.637686 202.469824 
L 250.917025 206.146172 
L 254.196364 206.330085 
L 257.475702 199.558515 
L 260.755041 204.153236 
L 264.03438 205.139496 
L 267.313719 204.528835 
L 270.593058 208.456971 
L 273.872397 209.478165 
L 277.151736 209.755591 
L 280.431074 217.025466 
L 283.710413 214.498692 
L 286.989752 220.553758 
L 290.269091 217.851551 
L 293.54843 220.811501 
L 296.827769 221.020509 
L 300.107107 225.801869 
L 303.386446 222.451658 
L 306.665785 233.054392 
L 309.945124 230.307284 
L 313.224463 236.992403 
L 316.503802 226.487321 
L 319.78314 235.813188 
L 323.062479 235.704885 
L 326.341818 235.610613 
L 329.621157 238.397349 
L 332.900496 239.092442 
L 336.179835 246.814003 
L 339.459174 250.059406 
L 342.738512 246.328201 
L 346.017851 240.942855 
L 349.29719 246.184072 
L 352.576529 254.085368 
L 355.855868 247.296413 
L 359.135207 262.828299 
L 362.414545 257.991622 
L 365.693884 264.080202 
L 368.973223 257.974787 
L 372.252562 259.44011 
L 375.531901 275.210043 
L 378.81124 271.868707 
L 382.090579 280.637765 
L 385.369917 275.491883 
L 388.649256 274.002055 
L 391.928595 286.473201 
L 395.207934 288.64506 
L 398.487273 295.488 
L 398.487273 200.468719 
L 398.487273 200.468719 
L 395.207934 205.854549 
L 391.928595 206.569305 
L 388.649256 196.374386 
L 385.369917 195.20836 
L 382.090579 188.605373 
L 378.81124 193.488826 
L 375.531901 188.04278 
L 372.252562 184.222761 
L 368.973223 178.078765 
L 365.693884 177.31606 
L 362.414545 179.84283 
L 359.135207 180.99647 
L 355.855868 168.519572 
L 352.576529 173.387452 
L 349.29719 171.250922 
L 346.017851 165.968614 
L 342.738512 162.849874 
L 339.459174 165.594687 
L 336.179835 165.602081 
L 332.900496 170.409435 
L 329.621157 165.599913 
L 326.341818 163.529631 
L 323.062479 156.31174 
L 319.78314 159.117645 
L 316.503802 154.358175 
L 313.224463 158.424132 
L 309.945124 155.557126 
L 306.665785 150.057708 
L 303.386446 154.508229 
L 300.107107 153.100819 
L 296.827769 147.520557 
L 293.54843 146.596259 
L 290.269091 156.356022 
L 286.989752 150.253908 
L 283.710413 142.385539 
L 280.431074 145.849085 
L 277.151736 146.804839 
L 273.872397 141.091945 
L 270.593058 136.932331 
L 267.313719 141.346164 
L 264.03438 134.745186 
L 260.755041 141.721765 
L 257.475702 128.993134 
L 254.196364 134.526002 
L 250.917025 126.452991 
L 247.637686 133.367345 
L 244.358347 133.708655 
L 241.079008 129.611408 
L 237.799669 126.383897 
L 234.520331 127.542896 
L 231.240992 132.837863 
L 227.961653 127.976741 
L 224.682314 124.667867 
L 221.402975 123.682441 
L 218.123636 123.03131 
L 214.844298 114.967986 
L 211.564959 123.33378 
L 208.28562 120.152101 
L 205.006281 124.899126 
L 201.726942 118.706372 
L 198.447603 122.834355 
L 195.168264 118.001289 
L 191.888926 114.347954 
L 188.609587 115.133613 
L 185.330248 114.917125 
L 182.050909 112.148628 
L 178.77157 117.702304 
L 175.492231 106.59971 
L 172.212893 118.489063 
L 168.933554 111.166463 
L 165.654215 112.835664 
L 162.374876 100.468098 
L 159.095537 112.372423 
L 155.816198 108.521112 
L 152.53686 105.186618 
L 149.257521 103.078652 
L 145.978182 103.529634 
L 142.698843 103.755434 
L 139.419504 100.874409 
L 136.140165 101.05607 
L 132.860826 101.570662 
L 129.581488 98.602595 
L 126.302149 100.57705 
L 123.02281 96.194417 
L 119.743471 94.568868 
L 116.464132 97.971792 
L 113.184793 91.346843 
L 109.905455 99.336888 
L 106.626116 91.329964 
L 103.346777 91.405061 
L 100.067438 87.990907 
L 96.788099 87.603796 
L 93.50876 89.359573 
L 90.229421 84.906487 
L 86.950083 88.464232 
L 83.670744 91.472065 
L 80.391405 87.662348 
L 77.112066 91.882676 
L 73.832727 105.748819 
z
" style="fill:#1f77b4;fill-opacity:0.2;"/>
   </g>
   <g id="PolyCollection_2">
    <path clip-path="url(#pc61a570653)" d="M 73.832727 65.273699 
L 73.832727 65.273699 
L 77.112066 78.478623 
L 80.391405 83.579747 
L 83.670744 87.293813 
L 86.950083 91.154684 
L 90.229421 98.151423 
L 93.50876 98.2748 
L 96.788099 97.164797 
L 100.067438 97.864561 
L 103.346777 108.564937 
L 106.626116 102.420537 
L 109.905455 111.097718 
L 113.184793 107.05397 
L 116.464132 110.053049 
L 119.743471 111.607712 
L 123.02281 119.200324 
L 126.302149 118.142904 
L 129.581488 125.859004 
L 132.860826 123.350114 
L 136.140165 119.927697 
L 139.419504 122.588745 
L 142.698843 125.608633 
L 145.978182 129.711349 
L 149.257521 124.813098 
L 152.53686 132.17121 
L 155.816198 136.442404 
L 159.095537 134.42787 
L 162.374876 131.937063 
L 165.654215 137.548649 
L 168.933554 137.258347 
L 172.212893 137.043028 
L 175.492231 136.532615 
L 178.77157 151.360704 
L 182.050909 138.736795 
L 185.330248 148.412798 
L 188.609587 152.850954 
L 191.888926 143.089603 
L 195.168264 149.664872 
L 198.447603 148.116599 
L 201.726942 153.737267 
L 205.006281 151.715822 
L 208.28562 155.298699 
L 211.564959 152.209935 
L 214.844298 160.348737 
L 218.123636 162.997067 
L 221.402975 161.361145 
L 224.682314 157.044123 
L 227.961653 168.483672 
L 231.240992 170.53584 
L 234.520331 166.650722 
L 237.799669 176.889076 
L 241.079008 176.459222 
L 244.358347 172.478535 
L 247.637686 169.764386 
L 250.917025 181.022632 
L 254.196364 169.714612 
L 257.475702 180.471921 
L 260.755041 181.507333 
L 264.03438 187.018154 
L 267.313719 173.243866 
L 270.593058 187.255285 
L 273.872397 176.793623 
L 277.151736 184.426576 
L 280.431074 188.054121 
L 283.710413 190.354121 
L 286.989752 191.27252 
L 290.269091 192.755868 
L 293.54843 199.926278 
L 296.827769 198.601607 
L 300.107107 209.784451 
L 303.386446 206.180205 
L 306.665785 200.478078 
L 309.945124 207.064387 
L 313.224463 214.750904 
L 316.503802 205.216222 
L 319.78314 210.984104 
L 323.062479 213.309354 
L 326.341818 215.847988 
L 329.621157 217.698349 
L 332.900496 218.217122 
L 336.179835 218.353913 
L 339.459174 224.933027 
L 342.738512 214.08934 
L 346.017851 222.511823 
L 349.29719 229.824442 
L 352.576529 232.806753 
L 355.855868 225.966286 
L 359.135207 241.919421 
L 362.414545 243.043492 
L 365.693884 244.420516 
L 368.973223 247.12518 
L 372.252562 244.257458 
L 375.531901 253.311087 
L 378.81124 257.099164 
L 382.090579 263.018885 
L 385.369917 264.407457 
L 388.649256 265.063495 
L 391.928595 274.87839 
L 395.207934 283.419478 
L 398.487273 292.417893 
L 398.487273 200.300813 
L 398.487273 200.300813 
L 395.207934 197.804292 
L 391.928595 196.145655 
L 388.649256 186.046791 
L 385.369917 181.522022 
L 382.090579 180.158281 
L 378.81124 175.230668 
L 375.531901 168.657125 
L 372.252562 162.654011 
L 368.973223 170.795516 
L 365.693884 160.224347 
L 362.414545 158.525258 
L 359.135207 159.001732 
L 355.855868 149.050794 
L 352.576529 148.200642 
L 349.29719 149.887747 
L 346.017851 153.314762 
L 342.738512 145.223393 
L 339.459174 148.788852 
L 336.179835 149.701442 
L 332.900496 145.628828 
L 329.621157 136.919273 
L 326.341818 137.636331 
L 323.062479 135.479849 
L 319.78314 133.271889 
L 316.503802 130.459052 
L 313.224463 142.61903 
L 309.945124 132.172697 
L 306.665785 124.835564 
L 303.386446 125.933255 
L 300.107107 131.233533 
L 296.827769 128.169145 
L 293.54843 118.263751 
L 290.269091 132.395874 
L 286.989752 119.631984 
L 283.710413 122.816987 
L 280.431074 116.860068 
L 277.151736 112.878299 
L 273.872397 110.149613 
L 270.593058 106.002069 
L 267.313719 105.604349 
L 264.03438 108.667707 
L 260.755041 115.31183 
L 257.475702 103.557111 
L 254.196364 105.571791 
L 250.917025 109.482413 
L 247.637686 104.064916 
L 244.358347 97.950852 
L 241.079008 113.074419 
L 237.799669 106.492351 
L 234.520331 95.197947 
L 231.240992 100.217355 
L 227.961653 97.412507 
L 224.682314 94.281017 
L 221.402975 91.906796 
L 218.123636 98.042099 
L 214.844298 93.243007 
L 211.564959 94.420092 
L 208.28562 92.464634 
L 205.006281 89.895287 
L 201.726942 94.026066 
L 198.447603 79.409171 
L 195.168264 82.556019 
L 191.888926 86.864677 
L 188.609587 86.655452 
L 185.330248 85.265194 
L 182.050909 81.01775 
L 178.77157 84.7458 
L 175.492231 81.117237 
L 172.212893 84.492428 
L 168.933554 78.286792 
L 165.654215 77.348889 
L 162.374876 72.436945 
L 159.095537 75.450759 
L 155.816198 70.683915 
L 152.53686 71.878999 
L 149.257521 76.322902 
L 145.978182 78.06257 
L 142.698843 81.193879 
L 139.419504 70.937935 
L 136.140165 66.313466 
L 132.860826 64.510053 
L 129.581488 69.286676 
L 126.302149 64.698345 
L 123.02281 64.936135 
L 119.743471 66.862227 
L 116.464132 65.178875 
L 113.184793 58.302037 
L 109.905455 58.1439 
L 106.626116 59.535559 
L 103.346777 65.371787 
L 100.067438 53.568 
L 96.788099 57.343873 
L 93.50876 55.424372 
L 90.229421 57.490554 
L 86.950083 57.687471 
L 83.670744 55.558026 
L 80.391405 54.576973 
L 77.112066 55.630587 
L 73.832727 65.273699 
z
" style="fill:#ff7f0e;fill-opacity:0.2;"/>
   </g>
   <g id="matplotlib.axis_1">
    <g id="xtick_1">
     <g id="line2d_1">
      <defs>
       <path d="M 0 0 
L 0 3.5 
" id="md001e9dfa2" style="stroke:#000000;stroke-width:0.8;"/>
      </defs>
      <g>
       <use style="stroke:#000000;stroke-width:0.8;" x="401.766612" xlink:href="#md001e9dfa2" y="307.584"/>
      </g>
     </g>
     <g id="text_1">
      <!-- 0 -->
      <g transform="translate(398.585362 322.182437)scale(0.1 -0.1)">
       <defs>
        <path d="M 31.78125 66.40625 
Q 24.171875 66.40625 20.328125 58.90625 
Q 16.5 51.421875 16.5 36.375 
Q 16.5 21.390625 20.328125 13.890625 
Q 24.171875 6.390625 31.78125 6.390625 
Q 39.453125 6.390625 43.28125 13.890625 
Q 47.125 21.390625 47.125 36.375 
Q 47.125 51.421875 43.28125 58.90625 
Q 39.453125 66.40625 31.78125 66.40625 
z
M 31.78125 74.21875 
Q 44.046875 74.21875 50.515625 64.515625 
Q 56.984375 54.828125 56.984375 36.375 
Q 56.984375 17.96875 50.515625 8.265625 
Q 44.046875 -1.421875 31.78125 -1.421875 
Q 19.53125 -1.421875 13.0625 8.265625 
Q 6.59375 17.96875 6.59375 36.375 
Q 6.59375 54.828125 13.0625 64.515625 
Q 19.53125 74.21875 31.78125 74.21875 
z
" id="DejaVuSans-48"/>
       </defs>
       <use xlink:href="#DejaVuSans-48"/>
      </g>
     </g>
    </g>
    <g id="xtick_2">
     <g id="line2d_2">
      <g>
       <use style="stroke:#000000;stroke-width:0.8;" x="336.179835" xlink:href="#md001e9dfa2" y="307.584"/>
      </g>
     </g>
     <g id="text_2">
      <!-- 20 -->
      <g transform="translate(329.817335 322.182437)scale(0.1 -0.1)">
       <defs>
        <path d="M 19.1875 8.296875 
L 53.609375 8.296875 
L 53.609375 0 
L 7.328125 0 
L 7.328125 8.296875 
Q 12.9375 14.109375 22.625 23.890625 
Q 32.328125 33.6875 34.8125 36.53125 
Q 39.546875 41.84375 41.421875 45.53125 
Q 43.3125 49.21875 43.3125 52.78125 
Q 43.3125 58.59375 39.234375 62.25 
Q 35.15625 65.921875 28.609375 65.921875 
Q 23.96875 65.921875 18.8125 64.3125 
Q 13.671875 62.703125 7.8125 59.421875 
L 7.8125 69.390625 
Q 13.765625 71.78125 18.9375 73 
Q 24.125 74.21875 28.421875 74.21875 
Q 39.75 74.21875 46.484375 68.546875 
Q 53.21875 62.890625 53.21875 53.421875 
Q 53.21875 48.921875 51.53125 44.890625 
Q 49.859375 40.875 45.40625 35.40625 
Q 44.1875 33.984375 37.640625 27.21875 
Q 31.109375 20.453125 19.1875 8.296875 
z
" id="DejaVuSans-50"/>
       </defs>
       <use xlink:href="#DejaVuSans-50"/>
       <use x="63.623047" xlink:href="#DejaVuSans-48"/>
      </g>
     </g>
    </g>
    <g id="xtick_3">
     <g id="line2d_3">
      <g>
       <use style="stroke:#000000;stroke-width:0.8;" x="270.593058" xlink:href="#md001e9dfa2" y="307.584"/>
      </g>
     </g>
     <g id="text_3">
      <!-- 40 -->
      <g transform="translate(264.230558 322.182437)scale(0.1 -0.1)">
       <defs>
        <path d="M 37.796875 64.3125 
L 12.890625 25.390625 
L 37.796875 25.390625 
z
M 35.203125 72.90625 
L 47.609375 72.90625 
L 47.609375 25.390625 
L 58.015625 25.390625 
L 58.015625 17.1875 
L 47.609375 17.1875 
L 47.609375 0 
L 37.796875 0 
L 37.796875 17.1875 
L 4.890625 17.1875 
L 4.890625 26.703125 
z
" id="DejaVuSans-52"/>
       </defs>
       <use xlink:href="#DejaVuSans-52"/>
       <use x="63.623047" xlink:href="#DejaVuSans-48"/>
      </g>
     </g>
    </g>
    <g id="xtick_4">
     <g id="line2d_4">
      <g>
       <use style="stroke:#000000;stroke-width:0.8;" x="205.006281" xlink:href="#md001e9dfa2" y="307.584"/>
      </g>
     </g>
     <g id="text_4">
      <!-- 60 -->
      <g transform="translate(198.643781 322.182437)scale(0.1 -0.1)">
       <defs>
        <path d="M 33.015625 40.375 
Q 26.375 40.375 22.484375 35.828125 
Q 18.609375 31.296875 18.609375 23.390625 
Q 18.609375 15.53125 22.484375 10.953125 
Q 26.375 6.390625 33.015625 6.390625 
Q 39.65625 6.390625 43.53125 10.953125 
Q 47.40625 15.53125 47.40625 23.390625 
Q 47.40625 31.296875 43.53125 35.828125 
Q 39.65625 40.375 33.015625 40.375 
z
M 52.59375 71.296875 
L 52.59375 62.3125 
Q 48.875 64.0625 45.09375 64.984375 
Q 41.3125 65.921875 37.59375 65.921875 
Q 27.828125 65.921875 22.671875 59.328125 
Q 17.53125 52.734375 16.796875 39.40625 
Q 19.671875 43.65625 24.015625 45.921875 
Q 28.375 48.1875 33.59375 48.1875 
Q 44.578125 48.1875 50.953125 41.515625 
Q 57.328125 34.859375 57.328125 23.390625 
Q 57.328125 12.15625 50.6875 5.359375 
Q 44.046875 -1.421875 33.015625 -1.421875 
Q 20.359375 -1.421875 13.671875 8.265625 
Q 6.984375 17.96875 6.984375 36.375 
Q 6.984375 53.65625 15.1875 63.9375 
Q 23.390625 74.21875 37.203125 74.21875 
Q 40.921875 74.21875 44.703125 73.484375 
Q 48.484375 72.75 52.59375 71.296875 
z
" id="DejaVuSans-54"/>
       </defs>
       <use xlink:href="#DejaVuSans-54"/>
       <use x="63.623047" xlink:href="#DejaVuSans-48"/>
      </g>
     </g>
    </g>
    <g id="xtick_5">
     <g id="line2d_5">
      <g>
       <use style="stroke:#000000;stroke-width:0.8;" x="139.419504" xlink:href="#md001e9dfa2" y="307.584"/>
      </g>
     </g>
     <g id="text_5">
      <!-- 80 -->
      <g transform="translate(133.057004 322.182437)scale(0.1 -0.1)">
       <defs>
        <path d="M 31.78125 34.625 
Q 24.75 34.625 20.71875 30.859375 
Q 16.703125 27.09375 16.703125 20.515625 
Q 16.703125 13.921875 20.71875 10.15625 
Q 24.75 6.390625 31.78125 6.390625 
Q 38.8125 6.390625 42.859375 10.171875 
Q 46.921875 13.96875 46.921875 20.515625 
Q 46.921875 27.09375 42.890625 30.859375 
Q 38.875 34.625 31.78125 34.625 
z
M 21.921875 38.8125 
Q 15.578125 40.375 12.03125 44.71875 
Q 8.5 49.078125 8.5 55.328125 
Q 8.5 64.0625 14.71875 69.140625 
Q 20.953125 74.21875 31.78125 74.21875 
Q 42.671875 74.21875 48.875 69.140625 
Q 55.078125 64.0625 55.078125 55.328125 
Q 55.078125 49.078125 51.53125 44.71875 
Q 48 40.375 41.703125 38.8125 
Q 48.828125 37.15625 52.796875 32.3125 
Q 56.78125 27.484375 56.78125 20.515625 
Q 56.78125 9.90625 50.3125 4.234375 
Q 43.84375 -1.421875 31.78125 -1.421875 
Q 19.734375 -1.421875 13.25 4.234375 
Q 6.78125 9.90625 6.78125 20.515625 
Q 6.78125 27.484375 10.78125 32.3125 
Q 14.796875 37.15625 21.921875 38.8125 
z
M 18.3125 54.390625 
Q 18.3125 48.734375 21.84375 45.5625 
Q 25.390625 42.390625 31.78125 42.390625 
Q 38.140625 42.390625 41.71875 45.5625 
Q 45.3125 48.734375 45.3125 54.390625 
Q 45.3125 60.0625 41.71875 63.234375 
Q 38.140625 66.40625 31.78125 66.40625 
Q 25.390625 66.40625 21.84375 63.234375 
Q 18.3125 60.0625 18.3125 54.390625 
z
" id="DejaVuSans-56"/>
       </defs>
       <use xlink:href="#DejaVuSans-56"/>
       <use x="63.623047" xlink:href="#DejaVuSans-48"/>
      </g>
     </g>
    </g>
    <g id="xtick_6">
     <g id="line2d_6">
      <g>
       <use style="stroke:#000000;stroke-width:0.8;" x="73.832727" xlink:href="#md001e9dfa2" y="307.584"/>
      </g>
     </g>
     <g id="text_6">
      <!-- 100 -->
      <g transform="translate(64.288977 322.182437)scale(0.1 -0.1)">
       <defs>
        <path d="M 12.40625 8.296875 
L 28.515625 8.296875 
L 28.515625 63.921875 
L 10.984375 60.40625 
L 10.984375 69.390625 
L 28.421875 72.90625 
L 38.28125 72.90625 
L 38.28125 8.296875 
L 54.390625 8.296875 
L 54.390625 0 
L 12.40625 0 
z
" id="DejaVuSans-49"/>
       </defs>
       <use xlink:href="#DejaVuSans-49"/>
       <use x="63.623047" xlink:href="#DejaVuSans-48"/>
       <use x="127.246094" xlink:href="#DejaVuSans-48"/>
      </g>
     </g>
    </g>
    <g id="text_7">
     <!-- Number of features -->
     <g transform="translate(187.4225 335.860562)scale(0.1 -0.1)">
      <defs>
       <path d="M 9.8125 72.90625 
L 23.09375 72.90625 
L 55.421875 11.921875 
L 55.421875 72.90625 
L 64.984375 72.90625 
L 64.984375 0 
L 51.703125 0 
L 19.390625 60.984375 
L 19.390625 0 
L 9.8125 0 
z
" id="DejaVuSans-78"/>
       <path d="M 8.5 21.578125 
L 8.5 54.6875 
L 17.484375 54.6875 
L 17.484375 21.921875 
Q 17.484375 14.15625 20.5 10.265625 
Q 23.53125 6.390625 29.59375 6.390625 
Q 36.859375 6.390625 41.078125 11.03125 
Q 45.3125 15.671875 45.3125 23.6875 
L 45.3125 54.6875 
L 54.296875 54.6875 
L 54.296875 0 
L 45.3125 0 
L 45.3125 8.40625 
Q 42.046875 3.421875 37.71875 1 
Q 33.40625 -1.421875 27.6875 -1.421875 
Q 18.265625 -1.421875 13.375 4.4375 
Q 8.5 10.296875 8.5 21.578125 
z
M 31.109375 56 
z
" id="DejaVuSans-117"/>
       <path d="M 52 44.1875 
Q 55.375 50.25 60.0625 53.125 
Q 64.75 56 71.09375 56 
Q 79.640625 56 84.28125 50.015625 
Q 88.921875 44.046875 88.921875 33.015625 
L 88.921875 0 
L 79.890625 0 
L 79.890625 32.71875 
Q 79.890625 40.578125 77.09375 44.375 
Q 74.3125 48.1875 68.609375 48.1875 
Q 61.625 48.1875 57.5625 43.546875 
Q 53.515625 38.921875 53.515625 30.90625 
L 53.515625 0 
L 44.484375 0 
L 44.484375 32.71875 
Q 44.484375 40.625 41.703125 44.40625 
Q 38.921875 48.1875 33.109375 48.1875 
Q 26.21875 48.1875 22.15625 43.53125 
Q 18.109375 38.875 18.109375 30.90625 
L 18.109375 0 
L 9.078125 0 
L 9.078125 54.6875 
L 18.109375 54.6875 
L 18.109375 46.1875 
Q 21.1875 51.21875 25.484375 53.609375 
Q 29.78125 56 35.6875 56 
Q 41.65625 56 45.828125 52.96875 
Q 50 49.953125 52 44.1875 
z
" id="DejaVuSans-109"/>
       <path d="M 48.6875 27.296875 
Q 48.6875 37.203125 44.609375 42.84375 
Q 40.53125 48.484375 33.40625 48.484375 
Q 26.265625 48.484375 22.1875 42.84375 
Q 18.109375 37.203125 18.109375 27.296875 
Q 18.109375 17.390625 22.1875 11.75 
Q 26.265625 6.109375 33.40625 6.109375 
Q 40.53125 6.109375 44.609375 11.75 
Q 48.6875 17.390625 48.6875 27.296875 
z
M 18.109375 46.390625 
Q 20.953125 51.265625 25.265625 53.625 
Q 29.59375 56 35.59375 56 
Q 45.5625 56 51.78125 48.09375 
Q 58.015625 40.1875 58.015625 27.296875 
Q 58.015625 14.40625 51.78125 6.484375 
Q 45.5625 -1.421875 35.59375 -1.421875 
Q 29.59375 -1.421875 25.265625 0.953125 
Q 20.953125 3.328125 18.109375 8.203125 
L 18.109375 0 
L 9.078125 0 
L 9.078125 75.984375 
L 18.109375 75.984375 
z
" id="DejaVuSans-98"/>
       <path d="M 56.203125 29.59375 
L 56.203125 25.203125 
L 14.890625 25.203125 
Q 15.484375 15.921875 20.484375 11.0625 
Q 25.484375 6.203125 34.421875 6.203125 
Q 39.59375 6.203125 44.453125 7.46875 
Q 49.3125 8.734375 54.109375 11.28125 
L 54.109375 2.78125 
Q 49.265625 0.734375 44.1875 -0.34375 
Q 39.109375 -1.421875 33.890625 -1.421875 
Q 20.796875 -1.421875 13.15625 6.1875 
Q 5.515625 13.8125 5.515625 26.8125 
Q 5.515625 40.234375 12.765625 48.109375 
Q 20.015625 56 32.328125 56 
Q 43.359375 56 49.78125 48.890625 
Q 56.203125 41.796875 56.203125 29.59375 
z
M 47.21875 32.234375 
Q 47.125 39.59375 43.09375 43.984375 
Q 39.0625 48.390625 32.421875 48.390625 
Q 24.90625 48.390625 20.390625 44.140625 
Q 15.875 39.890625 15.1875 32.171875 
z
" id="DejaVuSans-101"/>
       <path d="M 41.109375 46.296875 
Q 39.59375 47.171875 37.8125 47.578125 
Q 36.03125 48 33.890625 48 
Q 26.265625 48 22.1875 43.046875 
Q 18.109375 38.09375 18.109375 28.8125 
L 18.109375 0 
L 9.078125 0 
L 9.078125 54.6875 
L 18.109375 54.6875 
L 18.109375 46.1875 
Q 20.953125 51.171875 25.484375 53.578125 
Q 30.03125 56 36.53125 56 
Q 37.453125 56 38.578125 55.875 
Q 39.703125 55.765625 41.0625 55.515625 
z
" id="DejaVuSans-114"/>
       <path id="DejaVuSans-32"/>
       <path d="M 30.609375 48.390625 
Q 23.390625 48.390625 19.1875 42.75 
Q 14.984375 37.109375 14.984375 27.296875 
Q 14.984375 17.484375 19.15625 11.84375 
Q 23.34375 6.203125 30.609375 6.203125 
Q 37.796875 6.203125 41.984375 11.859375 
Q 46.1875 17.53125 46.1875 27.296875 
Q 46.1875 37.015625 41.984375 42.703125 
Q 37.796875 48.390625 30.609375 48.390625 
z
M 30.609375 56 
Q 42.328125 56 49.015625 48.375 
Q 55.71875 40.765625 55.71875 27.296875 
Q 55.71875 13.875 49.015625 6.21875 
Q 42.328125 -1.421875 30.609375 -1.421875 
Q 18.84375 -1.421875 12.171875 6.21875 
Q 5.515625 13.875 5.515625 27.296875 
Q 5.515625 40.765625 12.171875 48.375 
Q 18.84375 56 30.609375 56 
z
" id="DejaVuSans-111"/>
       <path d="M 37.109375 75.984375 
L 37.109375 68.5 
L 28.515625 68.5 
Q 23.6875 68.5 21.796875 66.546875 
Q 19.921875 64.59375 19.921875 59.515625 
L 19.921875 54.6875 
L 34.71875 54.6875 
L 34.71875 47.703125 
L 19.921875 47.703125 
L 19.921875 0 
L 10.890625 0 
L 10.890625 47.703125 
L 2.296875 47.703125 
L 2.296875 54.6875 
L 10.890625 54.6875 
L 10.890625 58.5 
Q 10.890625 67.625 15.140625 71.796875 
Q 19.390625 75.984375 28.609375 75.984375 
z
" id="DejaVuSans-102"/>
       <path d="M 34.28125 27.484375 
Q 23.390625 27.484375 19.1875 25 
Q 14.984375 22.515625 14.984375 16.5 
Q 14.984375 11.71875 18.140625 8.90625 
Q 21.296875 6.109375 26.703125 6.109375 
Q 34.1875 6.109375 38.703125 11.40625 
Q 43.21875 16.703125 43.21875 25.484375 
L 43.21875 27.484375 
z
M 52.203125 31.203125 
L 52.203125 0 
L 43.21875 0 
L 43.21875 8.296875 
Q 40.140625 3.328125 35.546875 0.953125 
Q 30.953125 -1.421875 24.3125 -1.421875 
Q 15.921875 -1.421875 10.953125 3.296875 
Q 6 8.015625 6 15.921875 
Q 6 25.140625 12.171875 29.828125 
Q 18.359375 34.515625 30.609375 34.515625 
L 43.21875 34.515625 
L 43.21875 35.40625 
Q 43.21875 41.609375 39.140625 45 
Q 35.0625 48.390625 27.6875 48.390625 
Q 23 48.390625 18.546875 47.265625 
Q 14.109375 46.140625 10.015625 43.890625 
L 10.015625 52.203125 
Q 14.9375 54.109375 19.578125 55.046875 
Q 24.21875 56 28.609375 56 
Q 40.484375 56 46.34375 49.84375 
Q 52.203125 43.703125 52.203125 31.203125 
z
" id="DejaVuSans-97"/>
       <path d="M 18.3125 70.21875 
L 18.3125 54.6875 
L 36.8125 54.6875 
L 36.8125 47.703125 
L 18.3125 47.703125 
L 18.3125 18.015625 
Q 18.3125 11.328125 20.140625 9.421875 
Q 21.96875 7.515625 27.59375 7.515625 
L 36.8125 7.515625 
L 36.8125 0 
L 27.59375 0 
Q 17.1875 0 13.234375 3.875 
Q 9.28125 7.765625 9.28125 18.015625 
L 9.28125 47.703125 
L 2.6875 47.703125 
L 2.6875 54.6875 
L 9.28125 54.6875 
L 9.28125 70.21875 
z
" id="DejaVuSans-116"/>
       <path d="M 44.28125 53.078125 
L 44.28125 44.578125 
Q 40.484375 46.53125 36.375 47.5 
Q 32.28125 48.484375 27.875 48.484375 
Q 21.1875 48.484375 17.84375 46.4375 
Q 14.5 44.390625 14.5 40.28125 
Q 14.5 37.15625 16.890625 35.375 
Q 19.28125 33.59375 26.515625 31.984375 
L 29.59375 31.296875 
Q 39.15625 29.25 43.1875 25.515625 
Q 47.21875 21.78125 47.21875 15.09375 
Q 47.21875 7.46875 41.1875 3.015625 
Q 35.15625 -1.421875 24.609375 -1.421875 
Q 20.21875 -1.421875 15.453125 -0.5625 
Q 10.6875 0.296875 5.421875 2 
L 5.421875 11.28125 
Q 10.40625 8.6875 15.234375 7.390625 
Q 20.0625 6.109375 24.8125 6.109375 
Q 31.15625 6.109375 34.5625 8.28125 
Q 37.984375 10.453125 37.984375 14.40625 
Q 37.984375 18.0625 35.515625 20.015625 
Q 33.0625 21.96875 24.703125 23.78125 
L 21.578125 24.515625 
Q 13.234375 26.265625 9.515625 29.90625 
Q 5.8125 33.546875 5.8125 39.890625 
Q 5.8125 47.609375 11.28125 51.796875 
Q 16.75 56 26.8125 56 
Q 31.78125 56 36.171875 55.265625 
Q 40.578125 54.546875 44.28125 53.078125 
z
" id="DejaVuSans-115"/>
      </defs>
      <use xlink:href="#DejaVuSans-78"/>
      <use x="74.804688" xlink:href="#DejaVuSans-117"/>
      <use x="138.183594" xlink:href="#DejaVuSans-109"/>
      <use x="235.595703" xlink:href="#DejaVuSans-98"/>
      <use x="299.072266" xlink:href="#DejaVuSans-101"/>
      <use x="360.595703" xlink:href="#DejaVuSans-114"/>
      <use x="401.708984" xlink:href="#DejaVuSans-32"/>
      <use x="433.496094" xlink:href="#DejaVuSans-111"/>
      <use x="494.677734" xlink:href="#DejaVuSans-102"/>
      <use x="529.882812" xlink:href="#DejaVuSans-32"/>
      <use x="561.669922" xlink:href="#DejaVuSans-102"/>
      <use x="596.875" xlink:href="#DejaVuSans-101"/>
      <use x="658.398438" xlink:href="#DejaVuSans-97"/>
      <use x="719.677734" xlink:href="#DejaVuSans-116"/>
      <use x="758.886719" xlink:href="#DejaVuSans-117"/>
      <use x="822.265625" xlink:href="#DejaVuSans-114"/>
      <use x="861.128906" xlink:href="#DejaVuSans-101"/>
      <use x="922.652344" xlink:href="#DejaVuSans-115"/>
     </g>
    </g>
   </g>
   <g id="matplotlib.axis_2">
    <g id="ytick_1">
     <g id="line2d_7">
      <defs>
       <path d="M 0 0 
L -3.5 0 
" id="m5f5670d2d4" style="stroke:#000000;stroke-width:0.8;"/>
      </defs>
      <g>
       <use style="stroke:#000000;stroke-width:0.8;" x="57.6" xlink:href="#m5f5670d2d4" y="300.029344"/>
      </g>
     </g>
     <g id="text_8">
      <!-- 0.45 -->
      <g transform="translate(28.334375 303.828563)scale(0.1 -0.1)">
       <defs>
        <path d="M 10.6875 12.40625 
L 21 12.40625 
L 21 0 
L 10.6875 0 
z
" id="DejaVuSans-46"/>
        <path d="M 10.796875 72.90625 
L 49.515625 72.90625 
L 49.515625 64.59375 
L 19.828125 64.59375 
L 19.828125 46.734375 
Q 21.96875 47.46875 24.109375 47.828125 
Q 26.265625 48.1875 28.421875 48.1875 
Q 40.625 48.1875 47.75 41.5 
Q 54.890625 34.8125 54.890625 23.390625 
Q 54.890625 11.625 47.5625 5.09375 
Q 40.234375 -1.421875 26.90625 -1.421875 
Q 22.3125 -1.421875 17.546875 -0.640625 
Q 12.796875 0.140625 7.71875 1.703125 
L 7.71875 11.625 
Q 12.109375 9.234375 16.796875 8.0625 
Q 21.484375 6.890625 26.703125 6.890625 
Q 35.15625 6.890625 40.078125 11.328125 
Q 45.015625 15.765625 45.015625 23.390625 
Q 45.015625 31 40.078125 35.4375 
Q 35.15625 39.890625 26.703125 39.890625 
Q 22.75 39.890625 18.8125 39.015625 
Q 14.890625 38.140625 10.796875 36.28125 
z
" id="DejaVuSans-53"/>
       </defs>
       <use xlink:href="#DejaVuSans-48"/>
       <use x="63.623047" xlink:href="#DejaVuSans-46"/>
       <use x="95.410156" xlink:href="#DejaVuSans-52"/>
       <use x="159.033203" xlink:href="#DejaVuSans-53"/>
      </g>
     </g>
    </g>
    <g id="ytick_2">
     <g id="line2d_8">
      <g>
       <use style="stroke:#000000;stroke-width:0.8;" x="57.6" xlink:href="#m5f5670d2d4" y="259.554234"/>
      </g>
     </g>
     <g id="text_9">
      <!-- 0.50 -->
      <g transform="translate(28.334375 263.353453)scale(0.1 -0.1)">
       <use xlink:href="#DejaVuSans-48"/>
       <use x="63.623047" xlink:href="#DejaVuSans-46"/>
       <use x="95.410156" xlink:href="#DejaVuSans-53"/>
       <use x="159.033203" xlink:href="#DejaVuSans-48"/>
      </g>
     </g>
    </g>
    <g id="ytick_3">
     <g id="line2d_9">
      <g>
       <use style="stroke:#000000;stroke-width:0.8;" x="57.6" xlink:href="#m5f5670d2d4" y="219.079125"/>
      </g>
     </g>
     <g id="text_10">
      <!-- 0.55 -->
      <g transform="translate(28.334375 222.878343)scale(0.1 -0.1)">
       <use xlink:href="#DejaVuSans-48"/>
       <use x="63.623047" xlink:href="#DejaVuSans-46"/>
       <use x="95.410156" xlink:href="#DejaVuSans-53"/>
       <use x="159.033203" xlink:href="#DejaVuSans-53"/>
      </g>
     </g>
    </g>
    <g id="ytick_4">
     <g id="line2d_10">
      <g>
       <use style="stroke:#000000;stroke-width:0.8;" x="57.6" xlink:href="#m5f5670d2d4" y="178.604015"/>
      </g>
     </g>
     <g id="text_11">
      <!-- 0.60 -->
      <g transform="translate(28.334375 182.403233)scale(0.1 -0.1)">
       <use xlink:href="#DejaVuSans-48"/>
       <use x="63.623047" xlink:href="#DejaVuSans-46"/>
       <use x="95.410156" xlink:href="#DejaVuSans-54"/>
       <use x="159.033203" xlink:href="#DejaVuSans-48"/>
      </g>
     </g>
    </g>
    <g id="ytick_5">
     <g id="line2d_11">
      <g>
       <use style="stroke:#000000;stroke-width:0.8;" x="57.6" xlink:href="#m5f5670d2d4" y="138.128905"/>
      </g>
     </g>
     <g id="text_12">
      <!-- 0.65 -->
      <g transform="translate(28.334375 141.928123)scale(0.1 -0.1)">
       <use xlink:href="#DejaVuSans-48"/>
       <use x="63.623047" xlink:href="#DejaVuSans-46"/>
       <use x="95.410156" xlink:href="#DejaVuSans-54"/>
       <use x="159.033203" xlink:href="#DejaVuSans-53"/>
      </g>
     </g>
    </g>
    <g id="ytick_6">
     <g id="line2d_12">
      <g>
       <use style="stroke:#000000;stroke-width:0.8;" x="57.6" xlink:href="#m5f5670d2d4" y="97.653795"/>
      </g>
     </g>
     <g id="text_13">
      <!-- 0.70 -->
      <g transform="translate(28.334375 101.453014)scale(0.1 -0.1)">
       <defs>
        <path d="M 8.203125 72.90625 
L 55.078125 72.90625 
L 55.078125 68.703125 
L 28.609375 0 
L 18.3125 0 
L 43.21875 64.59375 
L 8.203125 64.59375 
z
" id="DejaVuSans-55"/>
       </defs>
       <use xlink:href="#DejaVuSans-48"/>
       <use x="63.623047" xlink:href="#DejaVuSans-46"/>
       <use x="95.410156" xlink:href="#DejaVuSans-55"/>
       <use x="159.033203" xlink:href="#DejaVuSans-48"/>
      </g>
     </g>
    </g>
    <g id="ytick_7">
     <g id="line2d_13">
      <g>
       <use style="stroke:#000000;stroke-width:0.8;" x="57.6" xlink:href="#m5f5670d2d4" y="57.178685"/>
      </g>
     </g>
     <g id="text_14">
      <!-- 0.75 -->
      <g transform="translate(28.334375 60.977904)scale(0.1 -0.1)">
       <use xlink:href="#DejaVuSans-48"/>
       <use x="63.623047" xlink:href="#DejaVuSans-46"/>
       <use x="95.410156" xlink:href="#DejaVuSans-55"/>
       <use x="159.033203" xlink:href="#DejaVuSans-53"/>
      </g>
     </g>
    </g>
    <g id="text_15">
     <!-- Accuracy -->
     <g transform="translate(22.254687 197.356125)rotate(-90)scale(0.1 -0.1)">
      <defs>
       <path d="M 34.1875 63.1875 
L 20.796875 26.90625 
L 47.609375 26.90625 
z
M 28.609375 72.90625 
L 39.796875 72.90625 
L 67.578125 0 
L 57.328125 0 
L 50.6875 18.703125 
L 17.828125 18.703125 
L 11.1875 0 
L 0.78125 0 
z
" id="DejaVuSans-65"/>
       <path d="M 48.78125 52.59375 
L 48.78125 44.1875 
Q 44.96875 46.296875 41.140625 47.34375 
Q 37.3125 48.390625 33.40625 48.390625 
Q 24.65625 48.390625 19.8125 42.84375 
Q 14.984375 37.3125 14.984375 27.296875 
Q 14.984375 17.28125 19.8125 11.734375 
Q 24.65625 6.203125 33.40625 6.203125 
Q 37.3125 6.203125 41.140625 7.25 
Q 44.96875 8.296875 48.78125 10.40625 
L 48.78125 2.09375 
Q 45.015625 0.34375 40.984375 -0.53125 
Q 36.96875 -1.421875 32.421875 -1.421875 
Q 20.0625 -1.421875 12.78125 6.34375 
Q 5.515625 14.109375 5.515625 27.296875 
Q 5.515625 40.671875 12.859375 48.328125 
Q 20.21875 56 33.015625 56 
Q 37.15625 56 41.109375 55.140625 
Q 45.0625 54.296875 48.78125 52.59375 
z
" id="DejaVuSans-99"/>
       <path d="M 32.171875 -5.078125 
Q 28.375 -14.84375 24.75 -17.8125 
Q 21.140625 -20.796875 15.09375 -20.796875 
L 7.90625 -20.796875 
L 7.90625 -13.28125 
L 13.1875 -13.28125 
Q 16.890625 -13.28125 18.9375 -11.515625 
Q 21 -9.765625 23.484375 -3.21875 
L 25.09375 0.875 
L 2.984375 54.6875 
L 12.5 54.6875 
L 29.59375 11.921875 
L 46.6875 54.6875 
L 56.203125 54.6875 
z
" id="DejaVuSans-121"/>
      </defs>
      <use xlink:href="#DejaVuSans-65"/>
      <use x="66.658203" xlink:href="#DejaVuSans-99"/>
      <use x="121.638672" xlink:href="#DejaVuSans-99"/>
      <use x="176.619141" xlink:href="#DejaVuSans-117"/>
      <use x="239.998047" xlink:href="#DejaVuSans-114"/>
      <use x="281.111328" xlink:href="#DejaVuSans-97"/>
      <use x="342.390625" xlink:href="#DejaVuSans-99"/>
      <use x="397.371094" xlink:href="#DejaVuSans-121"/>
     </g>
    </g>
   </g>
   <g id="line2d_14">
    <path clip-path="url(#pc61a570653)" d="M 73.832727 105.748819 
L 77.112066 102.834611 
L 80.391405 103.886963 
L 83.670744 108.582076 
L 86.950083 105.182164 
L 90.229421 104.777415 
L 93.50876 109.229677 
L 96.788099 109.148724 
L 100.067438 109.877277 
L 103.346777 115.624742 
L 106.626116 113.600987 
L 109.905455 121.696006 
L 113.184793 116.029493 
L 116.464132 121.696008 
L 119.743471 119.1056 
L 123.02281 125.014968 
L 126.302149 125.905418 
L 129.581488 125.581619 
L 132.860826 129.224378 
L 136.140165 128.73868 
L 139.419504 126.876822 
L 142.698843 129.305329 
L 145.978182 130.033882 
L 149.257521 127.767274 
L 152.53686 132.381436 
L 155.816198 134.081393 
L 159.095537 138.938407 
L 162.374876 136.267048 
L 165.654215 138.695555 
L 168.933554 138.938405 
L 172.212893 143.471618 
L 175.492231 136.024198 
L 178.77157 143.066866 
L 182.050909 140.476463 
L 185.330248 145.738226 
L 188.609587 145.333472 
L 191.888926 143.87637 
L 195.168264 152.457094 
L 198.447603 149.461934 
L 201.726942 147.195331 
L 205.006281 152.618993 
L 208.28562 152.618995 
L 211.564959 152.133293 
L 214.844298 150.75714 
L 218.123636 155.452253 
L 221.402975 156.180803 
L 224.682314 155.614152 
L 227.961653 158.123608 
L 231.240992 163.628226 
L 234.520331 161.766369 
L 237.799669 160.390218 
L 241.079008 164.194876 
L 244.358347 166.137683 
L 247.637686 167.918584 
L 250.917025 166.299582 
L 254.196364 170.428043 
L 257.475702 164.275824 
L 260.755041 172.9375 
L 264.03438 169.942341 
L 267.313719 172.937499 
L 270.593058 172.694651 
L 273.872397 175.285055 
L 277.151736 178.280215 
L 280.431074 181.437275 
L 283.710413 178.442116 
L 286.989752 185.403833 
L 290.269091 187.103786 
L 293.54843 183.70388 
L 296.827769 184.270533 
L 300.107107 189.451344 
L 303.386446 188.479943 
L 306.665785 191.55605 
L 309.945124 192.932205 
L 313.224463 197.708267 
L 316.503802 190.422748 
L 319.78314 197.465416 
L 323.062479 196.008313 
L 326.341818 199.570122 
L 329.621157 201.998631 
L 332.900496 204.750938 
L 336.179835 206.208042 
L 339.459174 207.827046 
L 342.738512 204.589037 
L 346.017851 203.455735 
L 349.29719 208.717497 
L 352.576529 213.73641 
L 355.855868 207.907993 
L 359.135207 221.912385 
L 362.414545 218.917226 
L 365.693884 220.698131 
L 368.973223 218.026776 
L 372.252562 221.831436 
L 375.531901 231.626412 
L 378.81124 232.678766 
L 382.090579 234.621569 
L 385.369917 235.350122 
L 388.649256 235.188221 
L 391.928595 246.521253 
L 395.207934 247.249804 
L 398.487273 247.978359 
" style="fill:none;stroke:#1f77b4;stroke-linecap:square;stroke-width:1.5;"/>
   </g>
   <g id="line2d_15">
    <path clip-path="url(#pc61a570653)" d="M 73.832727 65.273699 
L 77.112066 67.054605 
L 80.391405 69.07836 
L 83.670744 71.425919 
L 86.950083 74.421078 
L 90.229421 77.820988 
L 93.50876 76.849586 
L 96.788099 77.254335 
L 100.067438 75.716281 
L 103.346777 86.968362 
L 106.626116 80.978048 
L 109.905455 84.620809 
L 113.184793 82.678003 
L 116.464132 87.615962 
L 119.743471 89.234969 
L 123.02281 92.06823 
L 126.302149 91.420625 
L 129.581488 97.57284 
L 132.860826 93.930083 
L 136.140165 93.120582 
L 139.419504 96.76334 
L 142.698843 103.401256 
L 145.978182 103.886959 
L 149.257521 100.568 
L 152.53686 102.025104 
L 155.816198 103.563159 
L 159.095537 104.939314 
L 162.374876 102.187004 
L 165.654215 107.448769 
L 168.933554 107.772569 
L 172.212893 110.767728 
L 175.492231 108.824926 
L 178.77157 118.053252 
L 182.050909 109.877273 
L 185.330248 116.838996 
L 188.609587 119.753203 
L 191.888926 114.97714 
L 195.168264 116.110446 
L 198.447603 113.762885 
L 201.726942 123.881667 
L 205.006281 120.805554 
L 208.28562 123.881667 
L 211.564959 123.315014 
L 214.844298 126.795872 
L 218.123636 130.519583 
L 221.402975 126.63397 
L 224.682314 125.66257 
L 227.961653 132.94809 
L 231.240992 135.376597 
L 234.520331 130.924335 
L 237.799669 141.690713 
L 241.079008 144.766821 
L 244.358347 135.214694 
L 247.637686 136.914651 
L 250.917025 145.252523 
L 254.196364 137.643201 
L 257.475702 142.014516 
L 260.755041 148.409582 
L 264.03438 147.842931 
L 267.313719 139.424108 
L 270.593058 146.628677 
L 273.872397 143.471618 
L 277.151736 148.652437 
L 280.431074 152.457094 
L 283.710413 156.585554 
L 286.989752 155.452252 
L 290.269091 162.575871 
L 293.54843 159.095014 
L 296.827769 163.385376 
L 300.107107 170.508992 
L 303.386446 166.05673 
L 306.665785 162.656821 
L 309.945124 169.618542 
L 313.224463 178.684967 
L 316.503802 167.837637 
L 319.78314 172.127997 
L 323.062479 174.394601 
L 326.341818 176.742159 
L 329.621157 177.308811 
L 332.900496 181.922975 
L 336.179835 184.027678 
L 339.459174 186.86094 
L 342.738512 179.656367 
L 346.017851 187.913292 
L 349.29719 189.856095 
L 352.576529 190.503697 
L 355.855868 187.50854 
L 359.135207 200.460576 
L 362.414545 200.784375 
L 365.693884 202.322432 
L 368.973223 208.960348 
L 372.252562 203.455735 
L 375.531901 210.984106 
L 378.81124 216.164916 
L 382.090579 221.588583 
L 385.369917 222.964739 
L 388.649256 225.555143 
L 391.928595 235.512023 
L 395.207934 240.611885 
L 398.487273 246.359353 
" style="fill:none;stroke:#ff7f0e;stroke-linecap:square;stroke-width:1.5;"/>
   </g>
   <g id="patch_3">
    <path d="M 57.6 307.584 
L 57.6 41.472 
" style="fill:none;stroke:#000000;stroke-linecap:square;stroke-linejoin:miter;stroke-width:0.8;"/>
   </g>
   <g id="patch_4">
    <path d="M 414.72 307.584 
L 414.72 41.472 
" style="fill:none;stroke:#000000;stroke-linecap:square;stroke-linejoin:miter;stroke-width:0.8;"/>
   </g>
   <g id="patch_5">
    <path d="M 57.6 307.584 
L 414.72 307.584 
" style="fill:none;stroke:#000000;stroke-linecap:square;stroke-linejoin:miter;stroke-width:0.8;"/>
   </g>
   <g id="patch_6">
    <path d="M 57.6 41.472 
L 414.72 41.472 
" style="fill:none;stroke:#000000;stroke-linecap:square;stroke-linejoin:miter;stroke-width:0.8;"/>
   </g>
   <g id="text_16">
    <!-- Toy_non_linear_1000_100 -->
    <g transform="translate(159.3225 35.472)scale(0.12 -0.12)">
     <defs>
      <path d="M -0.296875 72.90625 
L 61.375 72.90625 
L 61.375 64.59375 
L 35.5 64.59375 
L 35.5 0 
L 25.59375 0 
L 25.59375 64.59375 
L -0.296875 64.59375 
z
" id="DejaVuSans-84"/>
      <path d="M 50.984375 -16.609375 
L 50.984375 -23.578125 
L -0.984375 -23.578125 
L -0.984375 -16.609375 
z
" id="DejaVuSans-95"/>
      <path d="M 54.890625 33.015625 
L 54.890625 0 
L 45.90625 0 
L 45.90625 32.71875 
Q 45.90625 40.484375 42.875 44.328125 
Q 39.84375 48.1875 33.796875 48.1875 
Q 26.515625 48.1875 22.3125 43.546875 
Q 18.109375 38.921875 18.109375 30.90625 
L 18.109375 0 
L 9.078125 0 
L 9.078125 54.6875 
L 18.109375 54.6875 
L 18.109375 46.1875 
Q 21.34375 51.125 25.703125 53.5625 
Q 30.078125 56 35.796875 56 
Q 45.21875 56 50.046875 50.171875 
Q 54.890625 44.34375 54.890625 33.015625 
z
" id="DejaVuSans-110"/>
      <path d="M 9.421875 75.984375 
L 18.40625 75.984375 
L 18.40625 0 
L 9.421875 0 
z
" id="DejaVuSans-108"/>
      <path d="M 9.421875 54.6875 
L 18.40625 54.6875 
L 18.40625 0 
L 9.421875 0 
z
M 9.421875 75.984375 
L 18.40625 75.984375 
L 18.40625 64.59375 
L 9.421875 64.59375 
z
" id="DejaVuSans-105"/>
     </defs>
     <use xlink:href="#DejaVuSans-84"/>
     <use x="44.083984" xlink:href="#DejaVuSans-111"/>
     <use x="105.265625" xlink:href="#DejaVuSans-121"/>
     <use x="164.445312" xlink:href="#DejaVuSans-95"/>
     <use x="214.445312" xlink:href="#DejaVuSans-110"/>
     <use x="277.824219" xlink:href="#DejaVuSans-111"/>
     <use x="339.005859" xlink:href="#DejaVuSans-110"/>
     <use x="402.384766" xlink:href="#DejaVuSans-95"/>
     <use x="452.384766" xlink:href="#DejaVuSans-108"/>
     <use x="480.167969" xlink:href="#DejaVuSans-105"/>
     <use x="507.951172" xlink:href="#DejaVuSans-110"/>
     <use x="571.330078" xlink:href="#DejaVuSans-101"/>
     <use x="632.853516" xlink:href="#DejaVuSans-97"/>
     <use x="694.132812" xlink:href="#DejaVuSans-114"/>
     <use x="735.246094" xlink:href="#DejaVuSans-95"/>
     <use x="785.246094" xlink:href="#DejaVuSans-49"/>
     <use x="848.869141" xlink:href="#DejaVuSans-48"/>
     <use x="912.492188" xlink:href="#DejaVuSans-48"/>
     <use x="976.115234" xlink:href="#DejaVuSans-48"/>
     <use x="1039.738281" xlink:href="#DejaVuSans-95"/>
     <use x="1089.738281" xlink:href="#DejaVuSans-49"/>
     <use x="1153.361328" xlink:href="#DejaVuSans-48"/>
     <use x="1216.984375" xlink:href="#DejaVuSans-48"/>
    </g>
   </g>
   <g id="legend_1">
    <g id="patch_7">
     <path d="M 211.399687 78.82825 
L 407.72 78.82825 
Q 409.72 78.82825 409.72 76.82825 
L 409.72 48.472 
Q 409.72 46.472 407.72 46.472 
L 211.399687 46.472 
Q 209.399687 46.472 209.399687 48.472 
L 209.399687 76.82825 
Q 209.399687 78.82825 211.399687 78.82825 
z
" style="fill:#ffffff;opacity:0.8;stroke:#cccccc;stroke-linejoin:miter;"/>
    </g>
    <g id="line2d_16">
     <path d="M 213.399687 54.570437 
L 233.399687 54.570437 
" style="fill:none;stroke:#1f77b4;stroke-linecap:square;stroke-width:1.5;"/>
    </g>
    <g id="line2d_17"/>
    <g id="text_17">
     <!-- Neural Network -->
     <g transform="translate(241.399687 58.070437)scale(0.1 -0.1)">
      <defs>
       <path d="M 4.203125 54.6875 
L 13.1875 54.6875 
L 24.421875 12.015625 
L 35.59375 54.6875 
L 46.1875 54.6875 
L 57.421875 12.015625 
L 68.609375 54.6875 
L 77.59375 54.6875 
L 63.28125 0 
L 52.6875 0 
L 40.921875 44.828125 
L 29.109375 0 
L 18.5 0 
z
" id="DejaVuSans-119"/>
       <path d="M 9.078125 75.984375 
L 18.109375 75.984375 
L 18.109375 31.109375 
L 44.921875 54.6875 
L 56.390625 54.6875 
L 27.390625 29.109375 
L 57.625 0 
L 45.90625 0 
L 18.109375 26.703125 
L 18.109375 0 
L 9.078125 0 
z
" id="DejaVuSans-107"/>
      </defs>
      <use xlink:href="#DejaVuSans-78"/>
      <use x="74.804688" xlink:href="#DejaVuSans-101"/>
      <use x="136.328125" xlink:href="#DejaVuSans-117"/>
      <use x="199.707031" xlink:href="#DejaVuSans-114"/>
      <use x="240.820312" xlink:href="#DejaVuSans-97"/>
      <use x="302.099609" xlink:href="#DejaVuSans-108"/>
      <use x="329.882812" xlink:href="#DejaVuSans-32"/>
      <use x="361.669922" xlink:href="#DejaVuSans-78"/>
      <use x="436.474609" xlink:href="#DejaVuSans-101"/>
      <use x="497.998047" xlink:href="#DejaVuSans-116"/>
      <use x="537.207031" xlink:href="#DejaVuSans-119"/>
      <use x="618.994141" xlink:href="#DejaVuSans-111"/>
      <use x="680.175781" xlink:href="#DejaVuSans-114"/>
      <use x="721.289062" xlink:href="#DejaVuSans-107"/>
     </g>
    </g>
    <g id="line2d_18">
     <path d="M 213.399687 69.248562 
L 233.399687 69.248562 
" style="fill:none;stroke:#ff7f0e;stroke-linecap:square;stroke-width:1.5;"/>
    </g>
    <g id="line2d_19"/>
    <g id="text_18">
     <!-- Neural Network + Regularization -->
     <g transform="translate(241.399687 72.748562)scale(0.1 -0.1)">
      <defs>
       <path d="M 46 62.703125 
L 46 35.5 
L 73.1875 35.5 
L 73.1875 27.203125 
L 46 27.203125 
L 46 0 
L 37.796875 0 
L 37.796875 27.203125 
L 10.59375 27.203125 
L 10.59375 35.5 
L 37.796875 35.5 
L 37.796875 62.703125 
z
" id="DejaVuSans-43"/>
       <path d="M 44.390625 34.1875 
Q 47.5625 33.109375 50.5625 29.59375 
Q 53.5625 26.078125 56.59375 19.921875 
L 66.609375 0 
L 56 0 
L 46.6875 18.703125 
Q 43.0625 26.03125 39.671875 28.421875 
Q 36.28125 30.8125 30.421875 30.8125 
L 19.671875 30.8125 
L 19.671875 0 
L 9.8125 0 
L 9.8125 72.90625 
L 32.078125 72.90625 
Q 44.578125 72.90625 50.734375 67.671875 
Q 56.890625 62.453125 56.890625 51.90625 
Q 56.890625 45.015625 53.6875 40.46875 
Q 50.484375 35.9375 44.390625 34.1875 
z
M 19.671875 64.796875 
L 19.671875 38.921875 
L 32.078125 38.921875 
Q 39.203125 38.921875 42.84375 42.21875 
Q 46.484375 45.515625 46.484375 51.90625 
Q 46.484375 58.296875 42.84375 61.546875 
Q 39.203125 64.796875 32.078125 64.796875 
z
" id="DejaVuSans-82"/>
       <path d="M 45.40625 27.984375 
Q 45.40625 37.75 41.375 43.109375 
Q 37.359375 48.484375 30.078125 48.484375 
Q 22.859375 48.484375 18.828125 43.109375 
Q 14.796875 37.75 14.796875 27.984375 
Q 14.796875 18.265625 18.828125 12.890625 
Q 22.859375 7.515625 30.078125 7.515625 
Q 37.359375 7.515625 41.375 12.890625 
Q 45.40625 18.265625 45.40625 27.984375 
z
M 54.390625 6.78125 
Q 54.390625 -7.171875 48.1875 -13.984375 
Q 42 -20.796875 29.203125 -20.796875 
Q 24.46875 -20.796875 20.265625 -20.09375 
Q 16.0625 -19.390625 12.109375 -17.921875 
L 12.109375 -9.1875 
Q 16.0625 -11.328125 19.921875 -12.34375 
Q 23.78125 -13.375 27.78125 -13.375 
Q 36.625 -13.375 41.015625 -8.765625 
Q 45.40625 -4.15625 45.40625 5.171875 
L 45.40625 9.625 
Q 42.625 4.78125 38.28125 2.390625 
Q 33.9375 0 27.875 0 
Q 17.828125 0 11.671875 7.65625 
Q 5.515625 15.328125 5.515625 27.984375 
Q 5.515625 40.671875 11.671875 48.328125 
Q 17.828125 56 27.875 56 
Q 33.9375 56 38.28125 53.609375 
Q 42.625 51.21875 45.40625 46.390625 
L 45.40625 54.6875 
L 54.390625 54.6875 
z
" id="DejaVuSans-103"/>
       <path d="M 5.515625 54.6875 
L 48.1875 54.6875 
L 48.1875 46.484375 
L 14.40625 7.171875 
L 48.1875 7.171875 
L 48.1875 0 
L 4.296875 0 
L 4.296875 8.203125 
L 38.09375 47.515625 
L 5.515625 47.515625 
z
" id="DejaVuSans-122"/>
      </defs>
      <use xlink:href="#DejaVuSans-78"/>
      <use x="74.804688" xlink:href="#DejaVuSans-101"/>
      <use x="136.328125" xlink:href="#DejaVuSans-117"/>
      <use x="199.707031" xlink:href="#DejaVuSans-114"/>
      <use x="240.820312" xlink:href="#DejaVuSans-97"/>
      <use x="302.099609" xlink:href="#DejaVuSans-108"/>
      <use x="329.882812" xlink:href="#DejaVuSans-32"/>
      <use x="361.669922" xlink:href="#DejaVuSans-78"/>
      <use x="436.474609" xlink:href="#DejaVuSans-101"/>
      <use x="497.998047" xlink:href="#DejaVuSans-116"/>
      <use x="537.207031" xlink:href="#DejaVuSans-119"/>
      <use x="618.994141" xlink:href="#DejaVuSans-111"/>
      <use x="680.175781" xlink:href="#DejaVuSans-114"/>
      <use x="721.289062" xlink:href="#DejaVuSans-107"/>
      <use x="779.199219" xlink:href="#DejaVuSans-32"/>
      <use x="810.986328" xlink:href="#DejaVuSans-43"/>
      <use x="894.775391" xlink:href="#DejaVuSans-32"/>
      <use x="926.5625" xlink:href="#DejaVuSans-82"/>
      <use x="991.544922" xlink:href="#DejaVuSans-101"/>
      <use x="1053.068359" xlink:href="#DejaVuSans-103"/>
      <use x="1116.544922" xlink:href="#DejaVuSans-117"/>
      <use x="1179.923828" xlink:href="#DejaVuSans-108"/>
      <use x="1207.707031" xlink:href="#DejaVuSans-97"/>
      <use x="1268.986328" xlink:href="#DejaVuSans-114"/>
      <use x="1310.099609" xlink:href="#DejaVuSans-105"/>
      <use x="1337.882812" xlink:href="#DejaVuSans-122"/>
      <use x="1390.373047" xlink:href="#DejaVuSans-97"/>
      <use x="1451.652344" xlink:href="#DejaVuSans-116"/>
      <use x="1490.861328" xlink:href="#DejaVuSans-105"/>
      <use x="1518.644531" xlink:href="#DejaVuSans-111"/>
      <use x="1579.826172" xlink:href="#DejaVuSans-110"/>
     </g>
    </g>
   </g>
  </g>
 </g>
 <defs>
  <clipPath id="pc61a570653">
   <rect height="266.112" width="357.12" x="57.6" y="41.472"/>
  </clipPath>
 </defs>
</svg>
