<?xml version="1.0" encoding="utf-8" standalone="no"?>
<!DOCTYPE svg PUBLIC "-//W3C//DTD SVG 1.1//EN"
  "http://www.w3.org/Graphics/SVG/1.1/DTD/svg11.dtd">
<!-- Created with matplotlib (https://matplotlib.org/) -->
<svg height="345.6pt" version="1.1" viewBox="0 0 460.8 345.6" width="460.8pt" xmlns="http://www.w3.org/2000/svg" xmlns:xlink="http://www.w3.org/1999/xlink">
 <metadata>
  <rdf:RDF xmlns:cc="http://creativecommons.org/ns#" xmlns:dc="http://purl.org/dc/elements/1.1/" xmlns:rdf="http://www.w3.org/1999/02/22-rdf-syntax-ns#">
   <cc:Work>
    <dc:type rdf:resource="http://purl.org/dc/dcmitype/StillImage"/>
    <dc:date>2023-09-23T23:01:19.259472</dc:date>
    <dc:format>image/svg+xml</dc:format>
    <dc:creator>
     <cc:Agent>
      <dc:title>Matplotlib v3.3.4, https://matplotlib.org/</dc:title>
     </cc:Agent>
    </dc:creator>
   </cc:Work>
  </rdf:RDF>
 </metadata>
 <defs>
  <style type="text/css">*{stroke-linecap:butt;stroke-linejoin:round;}</style>
 </defs>
 <g id="figure_1">
  <g id="patch_1">
   <path d="M 0 345.6 
L 460.8 345.6 
L 460.8 0 
L 0 0 
z
" style="fill:#ffffff;"/>
  </g>
  <g id="axes_1">
   <g id="patch_2">
    <path d="M 57.6 307.584 
L 414.72 307.584 
L 414.72 41.472 
L 57.6 41.472 
z
" style="fill:#ffffff;"/>
   </g>
   <g id="PolyCollection_1">
    <path clip-path="url(#pb572cf2ee4)" d="M 73.832727 66.144401 
L 73.832727 66.144401 
L 79.243636 75.640204 
L 84.654545 84.511009 
L 90.065455 82.2704 
L 95.476364 88.872029 
L 100.887273 88.440056 
L 106.298182 97.184741 
L 111.709091 98.006602 
L 117.12 98.638911 
L 122.530909 101.049671 
L 127.941818 109.004562 
L 133.352727 109.972296 
L 138.763636 116.000517 
L 144.174545 116.700822 
L 149.585455 114.012556 
L 154.996364 118.431218 
L 160.407273 124.012297 
L 165.818182 121.462872 
L 171.229091 123.712823 
L 176.64 121.918407 
L 182.050909 127.949244 
L 187.461818 127.329097 
L 192.872727 132.379866 
L 198.283636 130.585419 
L 203.694545 135.08449 
L 209.105455 131.04427 
L 214.516364 138.811613 
L 219.927273 134.327496 
L 225.338182 135.601193 
L 230.749091 134.912453 
L 236.16 136.464205 
L 241.570909 134.447369 
L 246.981818 137.793397 
L 252.392727 141.278359 
L 257.803636 141.630592 
L 263.214545 141.942577 
L 268.625455 142.464648 
L 274.036364 142.330494 
L 279.447273 141.903834 
L 284.858182 146.796761 
L 290.269091 143.053486 
L 295.68 142.097352 
L 301.090909 144.140354 
L 306.501818 143.14747 
L 311.912727 141.829241 
L 317.323636 140.960326 
L 322.734545 143.927484 
L 328.145455 144.28768 
L 333.556364 142.873455 
L 338.967273 142.217298 
L 344.378182 139.010408 
L 349.789091 140.670566 
L 355.2 138.619482 
L 360.610909 138.421447 
L 366.021818 137.7211 
L 371.432727 136.611161 
L 376.843636 138.409521 
L 382.254545 136.611161 
L 387.665455 138.165512 
L 393.076364 136.611161 
L 398.487273 136.611161 
L 398.487273 136.611161 
L 398.487273 136.611161 
L 393.076364 136.611161 
L 387.665455 135.412255 
L 382.254545 136.611161 
L 376.843636 134.279636 
L 371.432727 136.611161 
L 366.021818 135.3235 
L 360.610909 134.089987 
L 355.2 133.536509 
L 349.789091 132.01859 
L 344.378182 131.901529 
L 338.967273 126.206531 
L 333.556364 128.927092 
L 328.145455 129.823252 
L 322.734545 126.629009 
L 317.323636 120.532347 
L 311.912727 124.284203 
L 306.501818 121.544198 
L 301.090909 117.174596 
L 295.68 121.350263 
L 290.269091 122.526791 
L 284.858182 112.563248 
L 279.447273 119.055672 
L 274.036364 112.408743 
L 268.625455 107.653819 
L 263.214545 109.419943 
L 257.803636 113.997255 
L 252.392727 110.617328 
L 246.981818 106.815689 
L 241.570909 98.965233 
L 236.16 95.882065 
L 230.749091 96.012041 
L 225.338182 98.700018 
L 219.927273 94.9975 
L 214.516364 90.868827 
L 209.105455 87.439687 
L 203.694545 96.195448 
L 198.283636 91.097533 
L 192.872727 86.637256 
L 187.461818 87.422699 
L 182.050909 90.001546 
L 176.64 81.814627 
L 171.229091 79.842488 
L 165.818182 78.182556 
L 160.407273 80.431624 
L 154.996364 76.060273 
L 149.585455 68.216119 
L 144.174545 77.790669 
L 138.763636 74.225647 
L 133.352727 64.436613 
L 127.941818 66.470679 
L 122.530909 64.117695 
L 117.12 57.820079 
L 111.709091 64.139491 
L 106.298182 60.873747 
L 100.887273 59.48828 
L 95.476364 58.878584 
L 90.065455 53.572842 
L 84.654545 57.37478 
L 79.243636 60.913926 
L 73.832727 66.144401 
z
" style="fill:#1f77b4;fill-opacity:0.2;"/>
   </g>
   <g id="PolyCollection_2">
    <path clip-path="url(#pb572cf2ee4)" d="M 73.832727 114.929081 
L 73.832727 114.929081 
L 79.243636 128.33158 
L 84.654545 128.970738 
L 90.065455 133.987587 
L 95.476364 135.720833 
L 100.887273 136.229039 
L 106.298182 141.860158 
L 111.709091 144.517255 
L 117.12 148.4505 
L 122.530909 151.685549 
L 127.941818 155.60036 
L 133.352727 169.068883 
L 138.763636 168.99978 
L 144.174545 172.543363 
L 149.585455 168.861745 
L 154.996364 178.338797 
L 160.407273 182.803693 
L 165.818182 189.405321 
L 171.229091 179.523712 
L 176.64 181.007602 
L 182.050909 195.650728 
L 187.461818 183.057813 
L 192.872727 180.182388 
L 198.283636 200.066576 
L 203.694545 198.007753 
L 209.105455 215.758316 
L 214.516364 220.326242 
L 219.927273 211.880516 
L 225.338182 236.736311 
L 230.749091 217.001849 
L 236.16 215.580628 
L 241.570909 251.557704 
L 246.981818 225.699565 
L 252.392727 249.677336 
L 257.803636 249.562865 
L 263.214545 259.170583 
L 268.625455 250.822835 
L 274.036364 243.653184 
L 279.447273 262.164168 
L 284.858182 290.790591 
L 290.269091 250.757418 
L 295.68 283.88955 
L 301.090909 269.370142 
L 306.501818 279.943928 
L 311.912727 269.943522 
L 317.323636 283.597624 
L 322.734545 283.013517 
L 328.145455 277.40104 
L 333.556364 271.736826 
L 338.967273 268.106301 
L 344.378182 257.279289 
L 349.789091 295.488 
L 355.2 273.384192 
L 360.610909 256.053934 
L 366.021818 295.259186 
L 371.432727 289.305329 
L 376.843636 262.745359 
L 382.254545 256.381711 
L 387.665455 203.763365 
L 393.076364 213.827883 
L 398.487273 202.900925 
L 398.487273 98.57919 
L 398.487273 98.57919 
L 393.076364 102.403155 
L 387.665455 109.4464 
L 382.254545 103.035766 
L 376.843636 103.070108 
L 371.432727 104.590209 
L 366.021818 122.451096 
L 360.610909 111.005587 
L 355.2 115.712853 
L 349.789091 107.64908 
L 344.378182 117.599998 
L 338.967273 110.327426 
L 333.556364 105.630569 
L 328.145455 101.743575 
L 322.734545 108.749357 
L 317.323636 122.56073 
L 311.912727 113.46642 
L 306.501818 121.060489 
L 301.090909 128.257557 
L 295.68 120.13614 
L 290.269091 112.39222 
L 284.858182 106.837108 
L 279.447273 111.82651 
L 274.036364 124.117225 
L 268.625455 114.459467 
L 263.214545 109.666157 
L 257.803636 106.655616 
L 252.392727 107.074311 
L 246.981818 103.149733 
L 241.570909 115.501817 
L 236.16 94.963307 
L 230.749091 100.117799 
L 225.338182 107.75252 
L 219.927273 98.307975 
L 214.516364 105.324061 
L 209.105455 100.650444 
L 203.694545 98.496147 
L 198.283636 96.259602 
L 192.872727 100.504257 
L 187.461818 95.67389 
L 182.050909 93.922016 
L 176.64 103.588927 
L 171.229091 101.696099 
L 165.818182 104.077305 
L 160.407273 111.034378 
L 154.996364 95.416691 
L 149.585455 94.585869 
L 144.174545 95.169578 
L 138.763636 102.089879 
L 133.352727 96.689117 
L 127.941818 97.53938 
L 122.530909 101.098747 
L 117.12 96.869474 
L 111.709091 97.781446 
L 106.298182 95.995493 
L 100.887273 99.849392 
L 95.476364 103.556594 
L 90.065455 104.045786 
L 84.654545 104.619586 
L 79.243636 105.436465 
L 73.832727 114.929081 
z
" style="fill:#ff7f0e;fill-opacity:0.2;"/>
   </g>
   <g id="PolyCollection_3">
    <path clip-path="url(#pb572cf2ee4)" d="M 73.832727 66.144401 
L 73.832727 66.144401 
L 79.243636 85.326353 
L 84.654545 88.905787 
L 90.065455 91.097668 
L 95.476364 95.782111 
L 100.887273 99.516024 
L 106.298182 102.735133 
L 111.709091 104.163312 
L 117.12 108.741182 
L 122.530909 106.636146 
L 127.941818 122.046661 
L 133.352727 125.571434 
L 138.763636 123.676919 
L 144.174545 129.081167 
L 149.585455 131.433095 
L 154.996364 137.598188 
L 160.407273 140.390132 
L 165.818182 130.244523 
L 171.229091 139.794031 
L 176.64 129.758932 
L 182.050909 147.599777 
L 187.461818 150.698498 
L 192.872727 144.332512 
L 198.283636 147.906656 
L 203.694545 144.938995 
L 209.105455 149.408942 
L 214.516364 146.64468 
L 219.927273 148.200264 
L 225.338182 166.172624 
L 230.749091 151.273845 
L 236.16 155.68042 
L 241.570909 161.888319 
L 246.981818 152.340872 
L 252.392727 155.394575 
L 257.803636 157.04608 
L 263.214545 153.131733 
L 268.625455 149.377303 
L 274.036364 158.622625 
L 279.447273 163.306093 
L 284.858182 159.337262 
L 290.269091 149.293576 
L 295.68 171.053603 
L 301.090909 159.605918 
L 306.501818 158.84851 
L 311.912727 155.629573 
L 317.323636 169.098304 
L 322.734545 150.632719 
L 328.145455 158.019362 
L 333.556364 152.699615 
L 338.967273 149.172458 
L 344.378182 155.033904 
L 349.789091 143.196428 
L 355.2 140.023282 
L 360.610909 138.479579 
L 366.021818 149.82314 
L 371.432727 159.140623 
L 376.843636 137.388336 
L 382.254545 139.02416 
L 387.665455 136.611161 
L 393.076364 136.611161 
L 398.487273 136.611161 
L 398.487273 136.611161 
L 398.487273 136.611161 
L 393.076364 136.611161 
L 387.665455 136.611161 
L 382.254545 133.842719 
L 376.843636 136.011708 
L 371.432727 120.301968 
L 366.021818 126.420456 
L 360.610909 135.098188 
L 355.2 131.066377 
L 349.789091 129.137284 
L 344.378182 123.164634 
L 338.967273 127.604303 
L 333.556364 125.321201 
L 328.145455 122.311839 
L 322.734545 123.300491 
L 317.323636 115.142781 
L 311.912727 122.746686 
L 306.501818 119.172305 
L 301.090909 115.92679 
L 295.68 112.121149 
L 290.269091 122.151527 
L 284.858182 112.996451 
L 279.447273 112.404337 
L 274.036364 112.289312 
L 268.625455 109.44954 
L 263.214545 105.161944 
L 257.803636 106.223812 
L 252.392727 102.010493 
L 246.981818 104.353308 
L 241.570909 98.893465 
L 236.16 95.148934 
L 230.749091 100.44412 
L 225.338182 91.410165 
L 219.927273 95.697934 
L 214.516364 92.810469 
L 209.105455 92.356592 
L 203.694545 92.738934 
L 198.283636 87.994053 
L 192.872727 92.279086 
L 187.461818 79.870552 
L 182.050909 85.812824 
L 176.64 84.459698 
L 171.229091 79.578535 
L 165.818182 80.597389 
L 160.407273 81.470542 
L 154.996364 76.442719 
L 149.585455 69.278664 
L 144.174545 68.787042 
L 138.763636 75.613065 
L 133.352727 69.097779 
L 127.941818 70.312166 
L 122.530909 59.064387 
L 117.12 64.068229 
L 111.709091 61.181777 
L 106.298182 62.07679 
L 100.887273 59.786518 
L 95.476364 53.568 
L 90.065455 57.00839 
L 84.654545 57.245329 
L 79.243636 57.092602 
L 73.832727 66.144401 
z
" style="fill:#2ca02c;fill-opacity:0.2;"/>
   </g>
   <g id="PolyCollection_4">
    <path clip-path="url(#pb572cf2ee4)" d="M 73.832727 87.826481 
L 73.832727 87.826481 
L 79.243636 101.974404 
L 84.654545 106.992995 
L 90.065455 109.509019 
L 95.476364 109.36907 
L 100.887273 117.105751 
L 106.298182 116.700484 
L 111.709091 120.675061 
L 117.12 125.597255 
L 122.530909 125.887593 
L 127.941818 121.699197 
L 133.352727 128.758485 
L 138.763636 123.799884 
L 144.174545 132.702911 
L 149.585455 130.127552 
L 154.996364 139.528964 
L 160.407273 142.021693 
L 165.818182 137.146368 
L 171.229091 139.057797 
L 176.64 137.636637 
L 182.050909 133.37436 
L 187.461818 136.64018 
L 192.872727 138.009584 
L 198.283636 134.341967 
L 203.694545 142.645033 
L 209.105455 147.640603 
L 214.516364 151.627877 
L 219.927273 149.773691 
L 225.338182 152.642685 
L 230.749091 146.326795 
L 236.16 151.269576 
L 241.570909 144.192952 
L 246.981818 149.322703 
L 252.392727 150.107505 
L 257.803636 151.966884 
L 263.214545 155.382124 
L 268.625455 161.017836 
L 274.036364 151.779614 
L 279.447273 154.354634 
L 284.858182 154.21663 
L 290.269091 152.672559 
L 295.68 148.176216 
L 301.090909 160.791812 
L 306.501818 163.227181 
L 311.912727 148.975174 
L 317.323636 146.935096 
L 322.734545 143.913577 
L 328.145455 143.46986 
L 333.556364 146.453919 
L 338.967273 145.244303 
L 344.378182 143.526045 
L 349.789091 147.685295 
L 355.2 141.60444 
L 360.610909 139.804456 
L 366.021818 150.765723 
L 371.432727 138.311172 
L 376.843636 137.8734 
L 382.254545 138.421447 
L 387.665455 136.611161 
L 393.076364 136.611161 
L 398.487273 136.611161 
L 398.487273 136.611161 
L 398.487273 136.611161 
L 393.076364 136.611161 
L 387.665455 136.611161 
L 382.254545 134.089987 
L 376.843636 134.815756 
L 371.432727 134.91115 
L 366.021818 124.589263 
L 360.610909 132.884701 
L 355.2 130.018385 
L 349.789091 129.091466 
L 344.378182 128.98539 
L 338.967273 127.267131 
L 333.556364 127.123847 
L 328.145455 127.086632 
L 322.734545 128.420135 
L 317.323636 121.844178 
L 311.912727 123.358539 
L 306.501818 112.838693 
L 301.090909 120.783443 
L 295.68 119.892169 
L 290.269091 115.395826 
L 284.858182 118.294804 
L 279.447273 114.246917 
L 274.036364 118.776879 
L 268.625455 114.870316 
L 263.214545 120.506028 
L 257.803636 114.857448 
L 252.392727 109.607948 
L 246.981818 111.814525 
L 241.570909 112.145783 
L 236.16 103.647384 
L 230.749091 104.147115 
L 225.338182 100.319333 
L 219.927273 107.09821 
L 214.516364 101.689585 
L 209.105455 96.613039 
L 203.694545 98.05417 
L 198.283636 99.6038 
L 192.872727 102.86734 
L 187.461818 91.440763 
L 182.050909 97.905579 
L 176.64 93.998746 
L 171.229091 91.688975 
L 165.818182 86.84697 
L 160.407273 87.481025 
L 154.996364 88.196535 
L 149.585455 81.425248 
L 144.174545 84.359269 
L 138.763636 79.933149 
L 133.352727 83.682925 
L 127.941818 85.232832 
L 122.530909 72.869225 
L 117.12 81.690217 
L 111.709091 74.882762 
L 106.298182 82.767222 
L 100.887273 75.253077 
L 95.476364 73.392771 
L 90.065455 75.030042 
L 84.654545 74.524792 
L 79.243636 78.29933 
L 73.832727 87.826481 
z
" style="fill:#d62728;fill-opacity:0.2;"/>
   </g>
   <g id="matplotlib.axis_1">
    <g id="xtick_1">
     <g id="line2d_1">
      <defs>
       <path d="M 0 0 
L 0 3.5 
" id="mf27f229c24" style="stroke:#000000;stroke-width:0.8;"/>
      </defs>
      <g>
       <use style="stroke:#000000;stroke-width:0.8;" x="403.898182" xlink:href="#mf27f229c24" y="307.584"/>
      </g>
     </g>
     <g id="text_1">
      <!-- 0 -->
      <g transform="translate(400.716932 322.182437)scale(0.1 -0.1)">
       <defs>
        <path d="M 31.78125 66.40625 
Q 24.171875 66.40625 20.328125 58.90625 
Q 16.5 51.421875 16.5 36.375 
Q 16.5 21.390625 20.328125 13.890625 
Q 24.171875 6.390625 31.78125 6.390625 
Q 39.453125 6.390625 43.28125 13.890625 
Q 47.125 21.390625 47.125 36.375 
Q 47.125 51.421875 43.28125 58.90625 
Q 39.453125 66.40625 31.78125 66.40625 
z
M 31.78125 74.21875 
Q 44.046875 74.21875 50.515625 64.515625 
Q 56.984375 54.828125 56.984375 36.375 
Q 56.984375 17.96875 50.515625 8.265625 
Q 44.046875 -1.421875 31.78125 -1.421875 
Q 19.53125 -1.421875 13.0625 8.265625 
Q 6.59375 17.96875 6.59375 36.375 
Q 6.59375 54.828125 13.0625 64.515625 
Q 19.53125 74.21875 31.78125 74.21875 
z
" id="DejaVuSans-48"/>
       </defs>
       <use xlink:href="#DejaVuSans-48"/>
      </g>
     </g>
    </g>
    <g id="xtick_2">
     <g id="line2d_2">
      <g>
       <use style="stroke:#000000;stroke-width:0.8;" x="349.789091" xlink:href="#mf27f229c24" y="307.584"/>
      </g>
     </g>
     <g id="text_2">
      <!-- 10 -->
      <g transform="translate(343.426591 322.182437)scale(0.1 -0.1)">
       <defs>
        <path d="M 12.40625 8.296875 
L 28.515625 8.296875 
L 28.515625 63.921875 
L 10.984375 60.40625 
L 10.984375 69.390625 
L 28.421875 72.90625 
L 38.28125 72.90625 
L 38.28125 8.296875 
L 54.390625 8.296875 
L 54.390625 0 
L 12.40625 0 
z
" id="DejaVuSans-49"/>
       </defs>
       <use xlink:href="#DejaVuSans-49"/>
       <use x="63.623047" xlink:href="#DejaVuSans-48"/>
      </g>
     </g>
    </g>
    <g id="xtick_3">
     <g id="line2d_3">
      <g>
       <use style="stroke:#000000;stroke-width:0.8;" x="295.68" xlink:href="#mf27f229c24" y="307.584"/>
      </g>
     </g>
     <g id="text_3">
      <!-- 20 -->
      <g transform="translate(289.3175 322.182437)scale(0.1 -0.1)">
       <defs>
        <path d="M 19.1875 8.296875 
L 53.609375 8.296875 
L 53.609375 0 
L 7.328125 0 
L 7.328125 8.296875 
Q 12.9375 14.109375 22.625 23.890625 
Q 32.328125 33.6875 34.8125 36.53125 
Q 39.546875 41.84375 41.421875 45.53125 
Q 43.3125 49.21875 43.3125 52.78125 
Q 43.3125 58.59375 39.234375 62.25 
Q 35.15625 65.921875 28.609375 65.921875 
Q 23.96875 65.921875 18.8125 64.3125 
Q 13.671875 62.703125 7.8125 59.421875 
L 7.8125 69.390625 
Q 13.765625 71.78125 18.9375 73 
Q 24.125 74.21875 28.421875 74.21875 
Q 39.75 74.21875 46.484375 68.546875 
Q 53.21875 62.890625 53.21875 53.421875 
Q 53.21875 48.921875 51.53125 44.890625 
Q 49.859375 40.875 45.40625 35.40625 
Q 44.1875 33.984375 37.640625 27.21875 
Q 31.109375 20.453125 19.1875 8.296875 
z
" id="DejaVuSans-50"/>
       </defs>
       <use xlink:href="#DejaVuSans-50"/>
       <use x="63.623047" xlink:href="#DejaVuSans-48"/>
      </g>
     </g>
    </g>
    <g id="xtick_4">
     <g id="line2d_4">
      <g>
       <use style="stroke:#000000;stroke-width:0.8;" x="241.570909" xlink:href="#mf27f229c24" y="307.584"/>
      </g>
     </g>
     <g id="text_4">
      <!-- 30 -->
      <g transform="translate(235.208409 322.182437)scale(0.1 -0.1)">
       <defs>
        <path d="M 40.578125 39.3125 
Q 47.65625 37.796875 51.625 33 
Q 55.609375 28.21875 55.609375 21.1875 
Q 55.609375 10.40625 48.1875 4.484375 
Q 40.765625 -1.421875 27.09375 -1.421875 
Q 22.515625 -1.421875 17.65625 -0.515625 
Q 12.796875 0.390625 7.625 2.203125 
L 7.625 11.71875 
Q 11.71875 9.328125 16.59375 8.109375 
Q 21.484375 6.890625 26.8125 6.890625 
Q 36.078125 6.890625 40.9375 10.546875 
Q 45.796875 14.203125 45.796875 21.1875 
Q 45.796875 27.640625 41.28125 31.265625 
Q 36.765625 34.90625 28.71875 34.90625 
L 20.21875 34.90625 
L 20.21875 43.015625 
L 29.109375 43.015625 
Q 36.375 43.015625 40.234375 45.921875 
Q 44.09375 48.828125 44.09375 54.296875 
Q 44.09375 59.90625 40.109375 62.90625 
Q 36.140625 65.921875 28.71875 65.921875 
Q 24.65625 65.921875 20.015625 65.03125 
Q 15.375 64.15625 9.8125 62.3125 
L 9.8125 71.09375 
Q 15.4375 72.65625 20.34375 73.4375 
Q 25.25 74.21875 29.59375 74.21875 
Q 40.828125 74.21875 47.359375 69.109375 
Q 53.90625 64.015625 53.90625 55.328125 
Q 53.90625 49.265625 50.4375 45.09375 
Q 46.96875 40.921875 40.578125 39.3125 
z
" id="DejaVuSans-51"/>
       </defs>
       <use xlink:href="#DejaVuSans-51"/>
       <use x="63.623047" xlink:href="#DejaVuSans-48"/>
      </g>
     </g>
    </g>
    <g id="xtick_5">
     <g id="line2d_5">
      <g>
       <use style="stroke:#000000;stroke-width:0.8;" x="187.461818" xlink:href="#mf27f229c24" y="307.584"/>
      </g>
     </g>
     <g id="text_5">
      <!-- 40 -->
      <g transform="translate(181.099318 322.182437)scale(0.1 -0.1)">
       <defs>
        <path d="M 37.796875 64.3125 
L 12.890625 25.390625 
L 37.796875 25.390625 
z
M 35.203125 72.90625 
L 47.609375 72.90625 
L 47.609375 25.390625 
L 58.015625 25.390625 
L 58.015625 17.1875 
L 47.609375 17.1875 
L 47.609375 0 
L 37.796875 0 
L 37.796875 17.1875 
L 4.890625 17.1875 
L 4.890625 26.703125 
z
" id="DejaVuSans-52"/>
       </defs>
       <use xlink:href="#DejaVuSans-52"/>
       <use x="63.623047" xlink:href="#DejaVuSans-48"/>
      </g>
     </g>
    </g>
    <g id="xtick_6">
     <g id="line2d_6">
      <g>
       <use style="stroke:#000000;stroke-width:0.8;" x="133.352727" xlink:href="#mf27f229c24" y="307.584"/>
      </g>
     </g>
     <g id="text_6">
      <!-- 50 -->
      <g transform="translate(126.990227 322.182437)scale(0.1 -0.1)">
       <defs>
        <path d="M 10.796875 72.90625 
L 49.515625 72.90625 
L 49.515625 64.59375 
L 19.828125 64.59375 
L 19.828125 46.734375 
Q 21.96875 47.46875 24.109375 47.828125 
Q 26.265625 48.1875 28.421875 48.1875 
Q 40.625 48.1875 47.75 41.5 
Q 54.890625 34.8125 54.890625 23.390625 
Q 54.890625 11.625 47.5625 5.09375 
Q 40.234375 -1.421875 26.90625 -1.421875 
Q 22.3125 -1.421875 17.546875 -0.640625 
Q 12.796875 0.140625 7.71875 1.703125 
L 7.71875 11.625 
Q 12.109375 9.234375 16.796875 8.0625 
Q 21.484375 6.890625 26.703125 6.890625 
Q 35.15625 6.890625 40.078125 11.328125 
Q 45.015625 15.765625 45.015625 23.390625 
Q 45.015625 31 40.078125 35.4375 
Q 35.15625 39.890625 26.703125 39.890625 
Q 22.75 39.890625 18.8125 39.015625 
Q 14.890625 38.140625 10.796875 36.28125 
z
" id="DejaVuSans-53"/>
       </defs>
       <use xlink:href="#DejaVuSans-53"/>
       <use x="63.623047" xlink:href="#DejaVuSans-48"/>
      </g>
     </g>
    </g>
    <g id="xtick_7">
     <g id="line2d_7">
      <g>
       <use style="stroke:#000000;stroke-width:0.8;" x="79.243636" xlink:href="#mf27f229c24" y="307.584"/>
      </g>
     </g>
     <g id="text_7">
      <!-- 60 -->
      <g transform="translate(72.881136 322.182437)scale(0.1 -0.1)">
       <defs>
        <path d="M 33.015625 40.375 
Q 26.375 40.375 22.484375 35.828125 
Q 18.609375 31.296875 18.609375 23.390625 
Q 18.609375 15.53125 22.484375 10.953125 
Q 26.375 6.390625 33.015625 6.390625 
Q 39.65625 6.390625 43.53125 10.953125 
Q 47.40625 15.53125 47.40625 23.390625 
Q 47.40625 31.296875 43.53125 35.828125 
Q 39.65625 40.375 33.015625 40.375 
z
M 52.59375 71.296875 
L 52.59375 62.3125 
Q 48.875 64.0625 45.09375 64.984375 
Q 41.3125 65.921875 37.59375 65.921875 
Q 27.828125 65.921875 22.671875 59.328125 
Q 17.53125 52.734375 16.796875 39.40625 
Q 19.671875 43.65625 24.015625 45.921875 
Q 28.375 48.1875 33.59375 48.1875 
Q 44.578125 48.1875 50.953125 41.515625 
Q 57.328125 34.859375 57.328125 23.390625 
Q 57.328125 12.15625 50.6875 5.359375 
Q 44.046875 -1.421875 33.015625 -1.421875 
Q 20.359375 -1.421875 13.671875 8.265625 
Q 6.984375 17.96875 6.984375 36.375 
Q 6.984375 53.65625 15.1875 63.9375 
Q 23.390625 74.21875 37.203125 74.21875 
Q 40.921875 74.21875 44.703125 73.484375 
Q 48.484375 72.75 52.59375 71.296875 
z
" id="DejaVuSans-54"/>
       </defs>
       <use xlink:href="#DejaVuSans-54"/>
       <use x="63.623047" xlink:href="#DejaVuSans-48"/>
      </g>
     </g>
    </g>
    <g id="text_8">
     <!-- Number of features -->
     <g transform="translate(187.4225 335.860562)scale(0.1 -0.1)">
      <defs>
       <path d="M 9.8125 72.90625 
L 23.09375 72.90625 
L 55.421875 11.921875 
L 55.421875 72.90625 
L 64.984375 72.90625 
L 64.984375 0 
L 51.703125 0 
L 19.390625 60.984375 
L 19.390625 0 
L 9.8125 0 
z
" id="DejaVuSans-78"/>
       <path d="M 8.5 21.578125 
L 8.5 54.6875 
L 17.484375 54.6875 
L 17.484375 21.921875 
Q 17.484375 14.15625 20.5 10.265625 
Q 23.53125 6.390625 29.59375 6.390625 
Q 36.859375 6.390625 41.078125 11.03125 
Q 45.3125 15.671875 45.3125 23.6875 
L 45.3125 54.6875 
L 54.296875 54.6875 
L 54.296875 0 
L 45.3125 0 
L 45.3125 8.40625 
Q 42.046875 3.421875 37.71875 1 
Q 33.40625 -1.421875 27.6875 -1.421875 
Q 18.265625 -1.421875 13.375 4.4375 
Q 8.5 10.296875 8.5 21.578125 
z
M 31.109375 56 
z
" id="DejaVuSans-117"/>
       <path d="M 52 44.1875 
Q 55.375 50.25 60.0625 53.125 
Q 64.75 56 71.09375 56 
Q 79.640625 56 84.28125 50.015625 
Q 88.921875 44.046875 88.921875 33.015625 
L 88.921875 0 
L 79.890625 0 
L 79.890625 32.71875 
Q 79.890625 40.578125 77.09375 44.375 
Q 74.3125 48.1875 68.609375 48.1875 
Q 61.625 48.1875 57.5625 43.546875 
Q 53.515625 38.921875 53.515625 30.90625 
L 53.515625 0 
L 44.484375 0 
L 44.484375 32.71875 
Q 44.484375 40.625 41.703125 44.40625 
Q 38.921875 48.1875 33.109375 48.1875 
Q 26.21875 48.1875 22.15625 43.53125 
Q 18.109375 38.875 18.109375 30.90625 
L 18.109375 0 
L 9.078125 0 
L 9.078125 54.6875 
L 18.109375 54.6875 
L 18.109375 46.1875 
Q 21.1875 51.21875 25.484375 53.609375 
Q 29.78125 56 35.6875 56 
Q 41.65625 56 45.828125 52.96875 
Q 50 49.953125 52 44.1875 
z
" id="DejaVuSans-109"/>
       <path d="M 48.6875 27.296875 
Q 48.6875 37.203125 44.609375 42.84375 
Q 40.53125 48.484375 33.40625 48.484375 
Q 26.265625 48.484375 22.1875 42.84375 
Q 18.109375 37.203125 18.109375 27.296875 
Q 18.109375 17.390625 22.1875 11.75 
Q 26.265625 6.109375 33.40625 6.109375 
Q 40.53125 6.109375 44.609375 11.75 
Q 48.6875 17.390625 48.6875 27.296875 
z
M 18.109375 46.390625 
Q 20.953125 51.265625 25.265625 53.625 
Q 29.59375 56 35.59375 56 
Q 45.5625 56 51.78125 48.09375 
Q 58.015625 40.1875 58.015625 27.296875 
Q 58.015625 14.40625 51.78125 6.484375 
Q 45.5625 -1.421875 35.59375 -1.421875 
Q 29.59375 -1.421875 25.265625 0.953125 
Q 20.953125 3.328125 18.109375 8.203125 
L 18.109375 0 
L 9.078125 0 
L 9.078125 75.984375 
L 18.109375 75.984375 
z
" id="DejaVuSans-98"/>
       <path d="M 56.203125 29.59375 
L 56.203125 25.203125 
L 14.890625 25.203125 
Q 15.484375 15.921875 20.484375 11.0625 
Q 25.484375 6.203125 34.421875 6.203125 
Q 39.59375 6.203125 44.453125 7.46875 
Q 49.3125 8.734375 54.109375 11.28125 
L 54.109375 2.78125 
Q 49.265625 0.734375 44.1875 -0.34375 
Q 39.109375 -1.421875 33.890625 -1.421875 
Q 20.796875 -1.421875 13.15625 6.1875 
Q 5.515625 13.8125 5.515625 26.8125 
Q 5.515625 40.234375 12.765625 48.109375 
Q 20.015625 56 32.328125 56 
Q 43.359375 56 49.78125 48.890625 
Q 56.203125 41.796875 56.203125 29.59375 
z
M 47.21875 32.234375 
Q 47.125 39.59375 43.09375 43.984375 
Q 39.0625 48.390625 32.421875 48.390625 
Q 24.90625 48.390625 20.390625 44.140625 
Q 15.875 39.890625 15.1875 32.171875 
z
" id="DejaVuSans-101"/>
       <path d="M 41.109375 46.296875 
Q 39.59375 47.171875 37.8125 47.578125 
Q 36.03125 48 33.890625 48 
Q 26.265625 48 22.1875 43.046875 
Q 18.109375 38.09375 18.109375 28.8125 
L 18.109375 0 
L 9.078125 0 
L 9.078125 54.6875 
L 18.109375 54.6875 
L 18.109375 46.1875 
Q 20.953125 51.171875 25.484375 53.578125 
Q 30.03125 56 36.53125 56 
Q 37.453125 56 38.578125 55.875 
Q 39.703125 55.765625 41.0625 55.515625 
z
" id="DejaVuSans-114"/>
       <path id="DejaVuSans-32"/>
       <path d="M 30.609375 48.390625 
Q 23.390625 48.390625 19.1875 42.75 
Q 14.984375 37.109375 14.984375 27.296875 
Q 14.984375 17.484375 19.15625 11.84375 
Q 23.34375 6.203125 30.609375 6.203125 
Q 37.796875 6.203125 41.984375 11.859375 
Q 46.1875 17.53125 46.1875 27.296875 
Q 46.1875 37.015625 41.984375 42.703125 
Q 37.796875 48.390625 30.609375 48.390625 
z
M 30.609375 56 
Q 42.328125 56 49.015625 48.375 
Q 55.71875 40.765625 55.71875 27.296875 
Q 55.71875 13.875 49.015625 6.21875 
Q 42.328125 -1.421875 30.609375 -1.421875 
Q 18.84375 -1.421875 12.171875 6.21875 
Q 5.515625 13.875 5.515625 27.296875 
Q 5.515625 40.765625 12.171875 48.375 
Q 18.84375 56 30.609375 56 
z
" id="DejaVuSans-111"/>
       <path d="M 37.109375 75.984375 
L 37.109375 68.5 
L 28.515625 68.5 
Q 23.6875 68.5 21.796875 66.546875 
Q 19.921875 64.59375 19.921875 59.515625 
L 19.921875 54.6875 
L 34.71875 54.6875 
L 34.71875 47.703125 
L 19.921875 47.703125 
L 19.921875 0 
L 10.890625 0 
L 10.890625 47.703125 
L 2.296875 47.703125 
L 2.296875 54.6875 
L 10.890625 54.6875 
L 10.890625 58.5 
Q 10.890625 67.625 15.140625 71.796875 
Q 19.390625 75.984375 28.609375 75.984375 
z
" id="DejaVuSans-102"/>
       <path d="M 34.28125 27.484375 
Q 23.390625 27.484375 19.1875 25 
Q 14.984375 22.515625 14.984375 16.5 
Q 14.984375 11.71875 18.140625 8.90625 
Q 21.296875 6.109375 26.703125 6.109375 
Q 34.1875 6.109375 38.703125 11.40625 
Q 43.21875 16.703125 43.21875 25.484375 
L 43.21875 27.484375 
z
M 52.203125 31.203125 
L 52.203125 0 
L 43.21875 0 
L 43.21875 8.296875 
Q 40.140625 3.328125 35.546875 0.953125 
Q 30.953125 -1.421875 24.3125 -1.421875 
Q 15.921875 -1.421875 10.953125 3.296875 
Q 6 8.015625 6 15.921875 
Q 6 25.140625 12.171875 29.828125 
Q 18.359375 34.515625 30.609375 34.515625 
L 43.21875 34.515625 
L 43.21875 35.40625 
Q 43.21875 41.609375 39.140625 45 
Q 35.0625 48.390625 27.6875 48.390625 
Q 23 48.390625 18.546875 47.265625 
Q 14.109375 46.140625 10.015625 43.890625 
L 10.015625 52.203125 
Q 14.9375 54.109375 19.578125 55.046875 
Q 24.21875 56 28.609375 56 
Q 40.484375 56 46.34375 49.84375 
Q 52.203125 43.703125 52.203125 31.203125 
z
" id="DejaVuSans-97"/>
       <path d="M 18.3125 70.21875 
L 18.3125 54.6875 
L 36.8125 54.6875 
L 36.8125 47.703125 
L 18.3125 47.703125 
L 18.3125 18.015625 
Q 18.3125 11.328125 20.140625 9.421875 
Q 21.96875 7.515625 27.59375 7.515625 
L 36.8125 7.515625 
L 36.8125 0 
L 27.59375 0 
Q 17.1875 0 13.234375 3.875 
Q 9.28125 7.765625 9.28125 18.015625 
L 9.28125 47.703125 
L 2.6875 47.703125 
L 2.6875 54.6875 
L 9.28125 54.6875 
L 9.28125 70.21875 
z
" id="DejaVuSans-116"/>
       <path d="M 44.28125 53.078125 
L 44.28125 44.578125 
Q 40.484375 46.53125 36.375 47.5 
Q 32.28125 48.484375 27.875 48.484375 
Q 21.1875 48.484375 17.84375 46.4375 
Q 14.5 44.390625 14.5 40.28125 
Q 14.5 37.15625 16.890625 35.375 
Q 19.28125 33.59375 26.515625 31.984375 
L 29.59375 31.296875 
Q 39.15625 29.25 43.1875 25.515625 
Q 47.21875 21.78125 47.21875 15.09375 
Q 47.21875 7.46875 41.1875 3.015625 
Q 35.15625 -1.421875 24.609375 -1.421875 
Q 20.21875 -1.421875 15.453125 -0.5625 
Q 10.6875 0.296875 5.421875 2 
L 5.421875 11.28125 
Q 10.40625 8.6875 15.234375 7.390625 
Q 20.0625 6.109375 24.8125 6.109375 
Q 31.15625 6.109375 34.5625 8.28125 
Q 37.984375 10.453125 37.984375 14.40625 
Q 37.984375 18.0625 35.515625 20.015625 
Q 33.0625 21.96875 24.703125 23.78125 
L 21.578125 24.515625 
Q 13.234375 26.265625 9.515625 29.90625 
Q 5.8125 33.546875 5.8125 39.890625 
Q 5.8125 47.609375 11.28125 51.796875 
Q 16.75 56 26.8125 56 
Q 31.78125 56 36.171875 55.265625 
Q 40.578125 54.546875 44.28125 53.078125 
z
" id="DejaVuSans-115"/>
      </defs>
      <use xlink:href="#DejaVuSans-78"/>
      <use x="74.804688" xlink:href="#DejaVuSans-117"/>
      <use x="138.183594" xlink:href="#DejaVuSans-109"/>
      <use x="235.595703" xlink:href="#DejaVuSans-98"/>
      <use x="299.072266" xlink:href="#DejaVuSans-101"/>
      <use x="360.595703" xlink:href="#DejaVuSans-114"/>
      <use x="401.708984" xlink:href="#DejaVuSans-32"/>
      <use x="433.496094" xlink:href="#DejaVuSans-111"/>
      <use x="494.677734" xlink:href="#DejaVuSans-102"/>
      <use x="529.882812" xlink:href="#DejaVuSans-32"/>
      <use x="561.669922" xlink:href="#DejaVuSans-102"/>
      <use x="596.875" xlink:href="#DejaVuSans-101"/>
      <use x="658.398438" xlink:href="#DejaVuSans-97"/>
      <use x="719.677734" xlink:href="#DejaVuSans-116"/>
      <use x="758.886719" xlink:href="#DejaVuSans-117"/>
      <use x="822.265625" xlink:href="#DejaVuSans-114"/>
      <use x="861.128906" xlink:href="#DejaVuSans-101"/>
      <use x="922.652344" xlink:href="#DejaVuSans-115"/>
     </g>
    </g>
   </g>
   <g id="matplotlib.axis_2">
    <g id="ytick_1">
     <g id="line2d_8">
      <defs>
       <path d="M 0 0 
L -3.5 0 
" id="maf407a6468" style="stroke:#000000;stroke-width:0.8;"/>
      </defs>
      <g>
       <use style="stroke:#000000;stroke-width:0.8;" x="57.6" xlink:href="#maf407a6468" y="266.703641"/>
      </g>
     </g>
     <g id="text_9">
      <!-- 0.55 -->
      <g transform="translate(28.334375 270.50286)scale(0.1 -0.1)">
       <defs>
        <path d="M 10.6875 12.40625 
L 21 12.40625 
L 21 0 
L 10.6875 0 
z
" id="DejaVuSans-46"/>
       </defs>
       <use xlink:href="#DejaVuSans-48"/>
       <use x="63.623047" xlink:href="#DejaVuSans-46"/>
       <use x="95.410156" xlink:href="#DejaVuSans-53"/>
       <use x="159.033203" xlink:href="#DejaVuSans-53"/>
      </g>
     </g>
    </g>
    <g id="ytick_2">
     <g id="line2d_9">
      <g>
       <use style="stroke:#000000;stroke-width:0.8;" x="57.6" xlink:href="#maf407a6468" y="212.498441"/>
      </g>
     </g>
     <g id="text_10">
      <!-- 0.60 -->
      <g transform="translate(28.334375 216.29766)scale(0.1 -0.1)">
       <use xlink:href="#DejaVuSans-48"/>
       <use x="63.623047" xlink:href="#DejaVuSans-46"/>
       <use x="95.410156" xlink:href="#DejaVuSans-54"/>
       <use x="159.033203" xlink:href="#DejaVuSans-48"/>
      </g>
     </g>
    </g>
    <g id="ytick_3">
     <g id="line2d_10">
      <g>
       <use style="stroke:#000000;stroke-width:0.8;" x="57.6" xlink:href="#maf407a6468" y="158.293241"/>
      </g>
     </g>
     <g id="text_11">
      <!-- 0.65 -->
      <g transform="translate(28.334375 162.09246)scale(0.1 -0.1)">
       <use xlink:href="#DejaVuSans-48"/>
       <use x="63.623047" xlink:href="#DejaVuSans-46"/>
       <use x="95.410156" xlink:href="#DejaVuSans-54"/>
       <use x="159.033203" xlink:href="#DejaVuSans-53"/>
      </g>
     </g>
    </g>
    <g id="ytick_4">
     <g id="line2d_11">
      <g>
       <use style="stroke:#000000;stroke-width:0.8;" x="57.6" xlink:href="#maf407a6468" y="104.088041"/>
      </g>
     </g>
     <g id="text_12">
      <!-- 0.70 -->
      <g transform="translate(28.334375 107.88726)scale(0.1 -0.1)">
       <defs>
        <path d="M 8.203125 72.90625 
L 55.078125 72.90625 
L 55.078125 68.703125 
L 28.609375 0 
L 18.3125 0 
L 43.21875 64.59375 
L 8.203125 64.59375 
z
" id="DejaVuSans-55"/>
       </defs>
       <use xlink:href="#DejaVuSans-48"/>
       <use x="63.623047" xlink:href="#DejaVuSans-46"/>
       <use x="95.410156" xlink:href="#DejaVuSans-55"/>
       <use x="159.033203" xlink:href="#DejaVuSans-48"/>
      </g>
     </g>
    </g>
    <g id="ytick_5">
     <g id="line2d_12">
      <g>
       <use style="stroke:#000000;stroke-width:0.8;" x="57.6" xlink:href="#maf407a6468" y="49.882841"/>
      </g>
     </g>
     <g id="text_13">
      <!-- 0.75 -->
      <g transform="translate(28.334375 53.68206)scale(0.1 -0.1)">
       <use xlink:href="#DejaVuSans-48"/>
       <use x="63.623047" xlink:href="#DejaVuSans-46"/>
       <use x="95.410156" xlink:href="#DejaVuSans-55"/>
       <use x="159.033203" xlink:href="#DejaVuSans-53"/>
      </g>
     </g>
    </g>
    <g id="text_14">
     <!-- Accuracy -->
     <g transform="translate(22.254687 197.356125)rotate(-90)scale(0.1 -0.1)">
      <defs>
       <path d="M 34.1875 63.1875 
L 20.796875 26.90625 
L 47.609375 26.90625 
z
M 28.609375 72.90625 
L 39.796875 72.90625 
L 67.578125 0 
L 57.328125 0 
L 50.6875 18.703125 
L 17.828125 18.703125 
L 11.1875 0 
L 0.78125 0 
z
" id="DejaVuSans-65"/>
       <path d="M 48.78125 52.59375 
L 48.78125 44.1875 
Q 44.96875 46.296875 41.140625 47.34375 
Q 37.3125 48.390625 33.40625 48.390625 
Q 24.65625 48.390625 19.8125 42.84375 
Q 14.984375 37.3125 14.984375 27.296875 
Q 14.984375 17.28125 19.8125 11.734375 
Q 24.65625 6.203125 33.40625 6.203125 
Q 37.3125 6.203125 41.140625 7.25 
Q 44.96875 8.296875 48.78125 10.40625 
L 48.78125 2.09375 
Q 45.015625 0.34375 40.984375 -0.53125 
Q 36.96875 -1.421875 32.421875 -1.421875 
Q 20.0625 -1.421875 12.78125 6.34375 
Q 5.515625 14.109375 5.515625 27.296875 
Q 5.515625 40.671875 12.859375 48.328125 
Q 20.21875 56 33.015625 56 
Q 37.15625 56 41.109375 55.140625 
Q 45.0625 54.296875 48.78125 52.59375 
z
" id="DejaVuSans-99"/>
       <path d="M 32.171875 -5.078125 
Q 28.375 -14.84375 24.75 -17.8125 
Q 21.140625 -20.796875 15.09375 -20.796875 
L 7.90625 -20.796875 
L 7.90625 -13.28125 
L 13.1875 -13.28125 
Q 16.890625 -13.28125 18.9375 -11.515625 
Q 21 -9.765625 23.484375 -3.21875 
L 25.09375 0.875 
L 2.984375 54.6875 
L 12.5 54.6875 
L 29.59375 11.921875 
L 46.6875 54.6875 
L 56.203125 54.6875 
z
" id="DejaVuSans-121"/>
      </defs>
      <use xlink:href="#DejaVuSans-65"/>
      <use x="66.658203" xlink:href="#DejaVuSans-99"/>
      <use x="121.638672" xlink:href="#DejaVuSans-99"/>
      <use x="176.619141" xlink:href="#DejaVuSans-117"/>
      <use x="239.998047" xlink:href="#DejaVuSans-114"/>
      <use x="281.111328" xlink:href="#DejaVuSans-97"/>
      <use x="342.390625" xlink:href="#DejaVuSans-99"/>
      <use x="397.371094" xlink:href="#DejaVuSans-121"/>
     </g>
    </g>
   </g>
   <g id="line2d_13">
    <path clip-path="url(#pb572cf2ee4)" d="M 73.832727 66.144401 
L 79.243636 68.277065 
L 84.654545 70.942894 
L 90.065455 67.921621 
L 95.476364 73.875307 
L 100.887273 73.964168 
L 106.298182 79.029244 
L 111.709091 81.073047 
L 117.12 78.229495 
L 122.530909 82.583683 
L 127.941818 87.73762 
L 133.352727 87.204454 
L 138.763636 95.113082 
L 144.174545 97.245746 
L 149.585455 91.114338 
L 154.996364 97.245746 
L 160.407273 102.221961 
L 165.818182 99.822714 
L 171.229091 101.777656 
L 176.64 101.866517 
L 182.050909 108.975395 
L 187.461818 107.375898 
L 192.872727 109.508561 
L 198.283636 110.841476 
L 203.694545 115.639969 
L 209.105455 109.241978 
L 214.516364 114.84022 
L 219.927273 114.662498 
L 225.338182 117.150606 
L 230.749091 115.462247 
L 236.16 116.173135 
L 241.570909 116.706301 
L 246.981818 122.304543 
L 252.392727 125.947843 
L 257.803636 127.813924 
L 263.214545 125.68126 
L 268.625455 125.059233 
L 274.036364 127.369619 
L 279.447273 130.479753 
L 284.858182 129.680004 
L 290.269091 132.790139 
L 295.68 131.723807 
L 301.090909 130.657475 
L 306.501818 132.345834 
L 311.912727 133.056722 
L 317.323636 130.746336 
L 322.734545 135.278246 
L 328.145455 137.055466 
L 333.556364 135.900273 
L 338.967273 134.211915 
L 344.378182 135.455968 
L 349.789091 136.344578 
L 355.2 136.077995 
L 360.610909 136.255717 
L 366.021818 136.5223 
L 371.432727 136.611161 
L 376.843636 136.344578 
L 382.254545 136.611161 
L 387.665455 136.788883 
L 393.076364 136.611161 
L 398.487273 136.611161 
" style="fill:none;stroke:#1f77b4;stroke-linecap:square;stroke-width:1.5;"/>
   </g>
   <g id="line2d_14">
    <path clip-path="url(#pb572cf2ee4)" d="M 73.832727 114.929081 
L 79.243636 116.884023 
L 84.654545 116.795162 
L 90.065455 119.016686 
L 95.476364 119.638713 
L 100.887273 118.039216 
L 106.298182 118.927825 
L 111.709091 121.14935 
L 117.12 122.659987 
L 122.530909 126.392148 
L 127.941818 126.56987 
L 133.352727 132.879 
L 138.763636 135.544829 
L 144.174545 133.856471 
L 149.585455 131.723807 
L 154.996364 136.877744 
L 160.407273 146.919035 
L 165.818182 146.741313 
L 171.229091 140.609905 
L 176.64 142.298264 
L 182.050909 144.786372 
L 187.461818 139.365852 
L 192.872727 140.343323 
L 198.283636 148.163089 
L 203.694545 148.25195 
L 209.105455 158.20438 
L 214.516364 162.825151 
L 219.927273 155.094246 
L 225.338182 172.244416 
L 230.749091 158.559824 
L 236.16 155.271968 
L 241.570909 183.52976 
L 246.981818 164.424649 
L 252.392727 178.375823 
L 257.803636 178.10924 
L 263.214545 184.41837 
L 268.625455 182.641151 
L 274.036364 183.885204 
L 279.447273 186.995339 
L 284.858182 198.81385 
L 290.269091 181.574819 
L 295.68 202.012845 
L 301.090909 198.81385 
L 306.501818 200.502208 
L 311.912727 191.704971 
L 317.323636 203.079177 
L 322.734545 195.881437 
L 328.145455 189.572307 
L 333.556364 188.683698 
L 338.967273 189.216863 
L 344.378182 187.439644 
L 349.789091 201.56854 
L 355.2 194.548522 
L 360.610909 183.52976 
L 366.021818 208.855141 
L 371.432727 196.947769 
L 376.843636 182.907734 
L 382.254545 179.708738 
L 387.665455 156.604882 
L 393.076364 158.115519 
L 398.487273 150.740058 
" style="fill:none;stroke:#ff7f0e;stroke-linecap:square;stroke-width:1.5;"/>
   </g>
   <g id="line2d_15">
    <path clip-path="url(#pb572cf2ee4)" d="M 73.832727 66.144401 
L 79.243636 71.209477 
L 84.654545 73.075558 
L 90.065455 74.053029 
L 95.476364 74.675056 
L 100.887273 79.651271 
L 106.298182 82.405961 
L 111.709091 82.672544 
L 117.12 86.404706 
L 122.530909 82.850266 
L 127.941818 96.179414 
L 133.352727 97.334606 
L 138.763636 99.644992 
L 144.174545 98.934104 
L 149.585455 100.35588 
L 154.996364 107.020454 
L 160.407273 110.930337 
L 165.818182 105.420956 
L 171.229091 109.686283 
L 176.64 107.109315 
L 182.050909 116.706301 
L 187.461818 115.284525 
L 192.872727 118.305799 
L 198.283636 117.950355 
L 203.694545 118.838964 
L 209.105455 120.882767 
L 214.516364 119.727574 
L 219.927273 121.949099 
L 225.338182 128.791395 
L 230.749091 125.858982 
L 236.16 125.414677 
L 241.570909 130.390892 
L 246.981818 128.34709 
L 252.392727 128.702534 
L 257.803636 131.634946 
L 263.214545 129.146839 
L 268.625455 129.413422 
L 274.036364 135.455968 
L 279.447273 137.855215 
L 284.858182 136.166856 
L 290.269091 135.722551 
L 295.68 141.587376 
L 301.090909 137.766354 
L 306.501818 139.010408 
L 311.912727 139.18813 
L 317.323636 142.120542 
L 322.734545 136.966605 
L 328.145455 140.165601 
L 333.556364 139.010408 
L 338.967273 138.388381 
L 344.378182 139.099269 
L 349.789091 136.166856 
L 355.2 135.544829 
L 360.610909 136.788883 
L 366.021818 138.121798 
L 371.432727 139.721296 
L 376.843636 136.700022 
L 382.254545 136.433439 
L 387.665455 136.611161 
L 393.076364 136.611161 
L 398.487273 136.611161 
" style="fill:none;stroke:#2ca02c;stroke-linecap:square;stroke-width:1.5;"/>
   </g>
   <g id="line2d_16">
    <path clip-path="url(#pb572cf2ee4)" d="M 73.832727 87.826481 
L 79.243636 90.136867 
L 84.654545 90.758894 
L 90.065455 92.26953 
L 95.476364 91.380921 
L 100.887273 96.179414 
L 106.298182 99.733853 
L 111.709091 97.778911 
L 117.12 103.643736 
L 122.530909 99.378409 
L 127.941818 103.466014 
L 133.352727 106.220705 
L 138.763636 101.866517 
L 144.174545 108.53109 
L 149.585455 105.7764 
L 154.996364 113.862749 
L 160.407273 114.751359 
L 165.818182 111.996669 
L 171.229091 115.373386 
L 176.64 115.817691 
L 182.050909 115.639969 
L 187.461818 114.040471 
L 192.872727 120.438462 
L 198.283636 116.972884 
L 203.694545 120.349601 
L 209.105455 122.126821 
L 214.516364 126.658731 
L 219.927273 128.435951 
L 225.338182 126.481009 
L 230.749091 125.236955 
L 236.16 127.45848 
L 241.570909 128.169368 
L 246.981818 130.568614 
L 252.392727 129.857726 
L 257.803636 133.412166 
L 263.214545 137.944076 
L 268.625455 137.944076 
L 274.036364 135.278246 
L 279.447273 134.300776 
L 284.858182 136.255717 
L 290.269091 134.034193 
L 295.68 134.034193 
L 301.090909 140.787627 
L 306.501818 138.032937 
L 311.912727 136.166856 
L 317.323636 134.389637 
L 322.734545 136.166856 
L 328.145455 135.278246 
L 333.556364 136.788883 
L 338.967273 136.255717 
L 344.378182 136.255717 
L 349.789091 138.388381 
L 355.2 135.811412 
L 360.610909 136.344578 
L 366.021818 137.677493 
L 371.432727 136.611161 
L 376.843636 136.344578 
L 382.254545 136.255717 
L 387.665455 136.611161 
L 393.076364 136.611161 
L 398.487273 136.611161 
" style="fill:none;stroke:#d62728;stroke-linecap:square;stroke-width:1.5;"/>
   </g>
   <g id="patch_3">
    <path d="M 57.6 307.584 
L 57.6 41.472 
" style="fill:none;stroke:#000000;stroke-linecap:square;stroke-linejoin:miter;stroke-width:0.8;"/>
   </g>
   <g id="patch_4">
    <path d="M 414.72 307.584 
L 414.72 41.472 
" style="fill:none;stroke:#000000;stroke-linecap:square;stroke-linejoin:miter;stroke-width:0.8;"/>
   </g>
   <g id="patch_5">
    <path d="M 57.6 307.584 
L 414.72 307.584 
" style="fill:none;stroke:#000000;stroke-linecap:square;stroke-linejoin:miter;stroke-width:0.8;"/>
   </g>
   <g id="patch_6">
    <path d="M 57.6 41.472 
L 414.72 41.472 
" style="fill:none;stroke:#000000;stroke-linecap:square;stroke-linejoin:miter;stroke-width:0.8;"/>
   </g>
   <g id="text_15">
    <!-- Credit_g -->
    <g transform="translate(211.309687 35.472)scale(0.12 -0.12)">
     <defs>
      <path d="M 64.40625 67.28125 
L 64.40625 56.890625 
Q 59.421875 61.53125 53.78125 63.8125 
Q 48.140625 66.109375 41.796875 66.109375 
Q 29.296875 66.109375 22.65625 58.46875 
Q 16.015625 50.828125 16.015625 36.375 
Q 16.015625 21.96875 22.65625 14.328125 
Q 29.296875 6.6875 41.796875 6.6875 
Q 48.140625 6.6875 53.78125 8.984375 
Q 59.421875 11.28125 64.40625 15.921875 
L 64.40625 5.609375 
Q 59.234375 2.09375 53.4375 0.328125 
Q 47.65625 -1.421875 41.21875 -1.421875 
Q 24.65625 -1.421875 15.125 8.703125 
Q 5.609375 18.84375 5.609375 36.375 
Q 5.609375 53.953125 15.125 64.078125 
Q 24.65625 74.21875 41.21875 74.21875 
Q 47.75 74.21875 53.53125 72.484375 
Q 59.328125 70.75 64.40625 67.28125 
z
" id="DejaVuSans-67"/>
      <path d="M 45.40625 46.390625 
L 45.40625 75.984375 
L 54.390625 75.984375 
L 54.390625 0 
L 45.40625 0 
L 45.40625 8.203125 
Q 42.578125 3.328125 38.25 0.953125 
Q 33.9375 -1.421875 27.875 -1.421875 
Q 17.96875 -1.421875 11.734375 6.484375 
Q 5.515625 14.40625 5.515625 27.296875 
Q 5.515625 40.1875 11.734375 48.09375 
Q 17.96875 56 27.875 56 
Q 33.9375 56 38.25 53.625 
Q 42.578125 51.265625 45.40625 46.390625 
z
M 14.796875 27.296875 
Q 14.796875 17.390625 18.875 11.75 
Q 22.953125 6.109375 30.078125 6.109375 
Q 37.203125 6.109375 41.296875 11.75 
Q 45.40625 17.390625 45.40625 27.296875 
Q 45.40625 37.203125 41.296875 42.84375 
Q 37.203125 48.484375 30.078125 48.484375 
Q 22.953125 48.484375 18.875 42.84375 
Q 14.796875 37.203125 14.796875 27.296875 
z
" id="DejaVuSans-100"/>
      <path d="M 9.421875 54.6875 
L 18.40625 54.6875 
L 18.40625 0 
L 9.421875 0 
z
M 9.421875 75.984375 
L 18.40625 75.984375 
L 18.40625 64.59375 
L 9.421875 64.59375 
z
" id="DejaVuSans-105"/>
      <path d="M 50.984375 -16.609375 
L 50.984375 -23.578125 
L -0.984375 -23.578125 
L -0.984375 -16.609375 
z
" id="DejaVuSans-95"/>
      <path d="M 45.40625 27.984375 
Q 45.40625 37.75 41.375 43.109375 
Q 37.359375 48.484375 30.078125 48.484375 
Q 22.859375 48.484375 18.828125 43.109375 
Q 14.796875 37.75 14.796875 27.984375 
Q 14.796875 18.265625 18.828125 12.890625 
Q 22.859375 7.515625 30.078125 7.515625 
Q 37.359375 7.515625 41.375 12.890625 
Q 45.40625 18.265625 45.40625 27.984375 
z
M 54.390625 6.78125 
Q 54.390625 -7.171875 48.1875 -13.984375 
Q 42 -20.796875 29.203125 -20.796875 
Q 24.46875 -20.796875 20.265625 -20.09375 
Q 16.0625 -19.390625 12.109375 -17.921875 
L 12.109375 -9.1875 
Q 16.0625 -11.328125 19.921875 -12.34375 
Q 23.78125 -13.375 27.78125 -13.375 
Q 36.625 -13.375 41.015625 -8.765625 
Q 45.40625 -4.15625 45.40625 5.171875 
L 45.40625 9.625 
Q 42.625 4.78125 38.28125 2.390625 
Q 33.9375 0 27.875 0 
Q 17.828125 0 11.671875 7.65625 
Q 5.515625 15.328125 5.515625 27.984375 
Q 5.515625 40.671875 11.671875 48.328125 
Q 17.828125 56 27.875 56 
Q 33.9375 56 38.28125 53.609375 
Q 42.625 51.21875 45.40625 46.390625 
L 45.40625 54.6875 
L 54.390625 54.6875 
z
" id="DejaVuSans-103"/>
     </defs>
     <use xlink:href="#DejaVuSans-67"/>
     <use x="69.824219" xlink:href="#DejaVuSans-114"/>
     <use x="108.6875" xlink:href="#DejaVuSans-101"/>
     <use x="170.210938" xlink:href="#DejaVuSans-100"/>
     <use x="233.6875" xlink:href="#DejaVuSans-105"/>
     <use x="261.470703" xlink:href="#DejaVuSans-116"/>
     <use x="300.679688" xlink:href="#DejaVuSans-95"/>
     <use x="350.679688" xlink:href="#DejaVuSans-103"/>
    </g>
   </g>
   <g id="legend_1">
    <g id="patch_7">
     <path d="M 300.468437 108.1845 
L 407.72 108.1845 
Q 409.72 108.1845 409.72 106.1845 
L 409.72 48.472 
Q 409.72 46.472 407.72 46.472 
L 300.468437 46.472 
Q 298.468437 46.472 298.468437 48.472 
L 298.468437 106.1845 
Q 298.468437 108.1845 300.468437 108.1845 
z
" style="fill:#ffffff;opacity:0.8;stroke:#cccccc;stroke-linejoin:miter;"/>
    </g>
    <g id="line2d_17">
     <path d="M 302.468437 54.570438 
L 322.468437 54.570438 
" style="fill:none;stroke:#1f77b4;stroke-linecap:square;stroke-width:1.5;"/>
    </g>
    <g id="line2d_18"/>
    <g id="text_16">
     <!-- Random Forest -->
     <g transform="translate(330.468437 58.070438)scale(0.1 -0.1)">
      <defs>
       <path d="M 44.390625 34.1875 
Q 47.5625 33.109375 50.5625 29.59375 
Q 53.5625 26.078125 56.59375 19.921875 
L 66.609375 0 
L 56 0 
L 46.6875 18.703125 
Q 43.0625 26.03125 39.671875 28.421875 
Q 36.28125 30.8125 30.421875 30.8125 
L 19.671875 30.8125 
L 19.671875 0 
L 9.8125 0 
L 9.8125 72.90625 
L 32.078125 72.90625 
Q 44.578125 72.90625 50.734375 67.671875 
Q 56.890625 62.453125 56.890625 51.90625 
Q 56.890625 45.015625 53.6875 40.46875 
Q 50.484375 35.9375 44.390625 34.1875 
z
M 19.671875 64.796875 
L 19.671875 38.921875 
L 32.078125 38.921875 
Q 39.203125 38.921875 42.84375 42.21875 
Q 46.484375 45.515625 46.484375 51.90625 
Q 46.484375 58.296875 42.84375 61.546875 
Q 39.203125 64.796875 32.078125 64.796875 
z
" id="DejaVuSans-82"/>
       <path d="M 54.890625 33.015625 
L 54.890625 0 
L 45.90625 0 
L 45.90625 32.71875 
Q 45.90625 40.484375 42.875 44.328125 
Q 39.84375 48.1875 33.796875 48.1875 
Q 26.515625 48.1875 22.3125 43.546875 
Q 18.109375 38.921875 18.109375 30.90625 
L 18.109375 0 
L 9.078125 0 
L 9.078125 54.6875 
L 18.109375 54.6875 
L 18.109375 46.1875 
Q 21.34375 51.125 25.703125 53.5625 
Q 30.078125 56 35.796875 56 
Q 45.21875 56 50.046875 50.171875 
Q 54.890625 44.34375 54.890625 33.015625 
z
" id="DejaVuSans-110"/>
       <path d="M 9.8125 72.90625 
L 51.703125 72.90625 
L 51.703125 64.59375 
L 19.671875 64.59375 
L 19.671875 43.109375 
L 48.578125 43.109375 
L 48.578125 34.8125 
L 19.671875 34.8125 
L 19.671875 0 
L 9.8125 0 
z
" id="DejaVuSans-70"/>
      </defs>
      <use xlink:href="#DejaVuSans-82"/>
      <use x="67.232422" xlink:href="#DejaVuSans-97"/>
      <use x="128.511719" xlink:href="#DejaVuSans-110"/>
      <use x="191.890625" xlink:href="#DejaVuSans-100"/>
      <use x="255.367188" xlink:href="#DejaVuSans-111"/>
      <use x="316.548828" xlink:href="#DejaVuSans-109"/>
      <use x="413.960938" xlink:href="#DejaVuSans-32"/>
      <use x="445.748047" xlink:href="#DejaVuSans-70"/>
      <use x="499.642578" xlink:href="#DejaVuSans-111"/>
      <use x="560.824219" xlink:href="#DejaVuSans-114"/>
      <use x="599.6875" xlink:href="#DejaVuSans-101"/>
      <use x="661.210938" xlink:href="#DejaVuSans-115"/>
      <use x="713.310547" xlink:href="#DejaVuSans-116"/>
     </g>
    </g>
    <g id="line2d_19">
     <path d="M 302.468437 69.248563 
L 322.468437 69.248563 
" style="fill:none;stroke:#ff7f0e;stroke-linecap:square;stroke-width:1.5;"/>
    </g>
    <g id="line2d_20"/>
    <g id="text_17">
     <!-- AdaBoost -->
     <g transform="translate(330.468437 72.748563)scale(0.1 -0.1)">
      <defs>
       <path d="M 19.671875 34.8125 
L 19.671875 8.109375 
L 35.5 8.109375 
Q 43.453125 8.109375 47.28125 11.40625 
Q 51.125 14.703125 51.125 21.484375 
Q 51.125 28.328125 47.28125 31.5625 
Q 43.453125 34.8125 35.5 34.8125 
z
M 19.671875 64.796875 
L 19.671875 42.828125 
L 34.28125 42.828125 
Q 41.5 42.828125 45.03125 45.53125 
Q 48.578125 48.25 48.578125 53.8125 
Q 48.578125 59.328125 45.03125 62.0625 
Q 41.5 64.796875 34.28125 64.796875 
z
M 9.8125 72.90625 
L 35.015625 72.90625 
Q 46.296875 72.90625 52.390625 68.21875 
Q 58.5 63.53125 58.5 54.890625 
Q 58.5 48.1875 55.375 44.234375 
Q 52.25 40.28125 46.1875 39.3125 
Q 53.46875 37.75 57.5 32.78125 
Q 61.53125 27.828125 61.53125 20.40625 
Q 61.53125 10.640625 54.890625 5.3125 
Q 48.25 0 35.984375 0 
L 9.8125 0 
z
" id="DejaVuSans-66"/>
      </defs>
      <use xlink:href="#DejaVuSans-65"/>
      <use x="66.658203" xlink:href="#DejaVuSans-100"/>
      <use x="130.134766" xlink:href="#DejaVuSans-97"/>
      <use x="191.414062" xlink:href="#DejaVuSans-66"/>
      <use x="260.017578" xlink:href="#DejaVuSans-111"/>
      <use x="321.199219" xlink:href="#DejaVuSans-111"/>
      <use x="382.380859" xlink:href="#DejaVuSans-115"/>
      <use x="434.480469" xlink:href="#DejaVuSans-116"/>
     </g>
    </g>
    <g id="line2d_21">
     <path d="M 302.468437 83.926688 
L 322.468437 83.926688 
" style="fill:none;stroke:#2ca02c;stroke-linecap:square;stroke-width:1.5;"/>
    </g>
    <g id="line2d_22"/>
    <g id="text_18">
     <!-- LightGBM -->
     <g transform="translate(330.468437 87.426688)scale(0.1 -0.1)">
      <defs>
       <path d="M 9.8125 72.90625 
L 19.671875 72.90625 
L 19.671875 8.296875 
L 55.171875 8.296875 
L 55.171875 0 
L 9.8125 0 
z
" id="DejaVuSans-76"/>
       <path d="M 54.890625 33.015625 
L 54.890625 0 
L 45.90625 0 
L 45.90625 32.71875 
Q 45.90625 40.484375 42.875 44.328125 
Q 39.84375 48.1875 33.796875 48.1875 
Q 26.515625 48.1875 22.3125 43.546875 
Q 18.109375 38.921875 18.109375 30.90625 
L 18.109375 0 
L 9.078125 0 
L 9.078125 75.984375 
L 18.109375 75.984375 
L 18.109375 46.1875 
Q 21.34375 51.125 25.703125 53.5625 
Q 30.078125 56 35.796875 56 
Q 45.21875 56 50.046875 50.171875 
Q 54.890625 44.34375 54.890625 33.015625 
z
" id="DejaVuSans-104"/>
       <path d="M 59.515625 10.40625 
L 59.515625 29.984375 
L 43.40625 29.984375 
L 43.40625 38.09375 
L 69.28125 38.09375 
L 69.28125 6.78125 
Q 63.578125 2.734375 56.6875 0.65625 
Q 49.8125 -1.421875 42 -1.421875 
Q 24.90625 -1.421875 15.25 8.5625 
Q 5.609375 18.5625 5.609375 36.375 
Q 5.609375 54.25 15.25 64.234375 
Q 24.90625 74.21875 42 74.21875 
Q 49.125 74.21875 55.546875 72.453125 
Q 61.96875 70.703125 67.390625 67.28125 
L 67.390625 56.78125 
Q 61.921875 61.421875 55.765625 63.765625 
Q 49.609375 66.109375 42.828125 66.109375 
Q 29.4375 66.109375 22.71875 58.640625 
Q 16.015625 51.171875 16.015625 36.375 
Q 16.015625 21.625 22.71875 14.15625 
Q 29.4375 6.6875 42.828125 6.6875 
Q 48.046875 6.6875 52.140625 7.59375 
Q 56.25 8.5 59.515625 10.40625 
z
" id="DejaVuSans-71"/>
       <path d="M 9.8125 72.90625 
L 24.515625 72.90625 
L 43.109375 23.296875 
L 61.8125 72.90625 
L 76.515625 72.90625 
L 76.515625 0 
L 66.890625 0 
L 66.890625 64.015625 
L 48.09375 14.015625 
L 38.1875 14.015625 
L 19.390625 64.015625 
L 19.390625 0 
L 9.8125 0 
z
" id="DejaVuSans-77"/>
      </defs>
      <use xlink:href="#DejaVuSans-76"/>
      <use x="55.712891" xlink:href="#DejaVuSans-105"/>
      <use x="83.496094" xlink:href="#DejaVuSans-103"/>
      <use x="146.972656" xlink:href="#DejaVuSans-104"/>
      <use x="210.351562" xlink:href="#DejaVuSans-116"/>
      <use x="249.560547" xlink:href="#DejaVuSans-71"/>
      <use x="327.050781" xlink:href="#DejaVuSans-66"/>
      <use x="395.654297" xlink:href="#DejaVuSans-77"/>
     </g>
    </g>
    <g id="line2d_23">
     <path d="M 302.468437 98.604813 
L 322.468437 98.604813 
" style="fill:none;stroke:#d62728;stroke-linecap:square;stroke-width:1.5;"/>
    </g>
    <g id="line2d_24"/>
    <g id="text_19">
     <!-- XGBoost -->
     <g transform="translate(330.468437 102.104813)scale(0.1 -0.1)">
      <defs>
       <path d="M 6.296875 72.90625 
L 16.890625 72.90625 
L 35.015625 45.796875 
L 53.21875 72.90625 
L 63.8125 72.90625 
L 40.375 37.890625 
L 65.375 0 
L 54.78125 0 
L 34.28125 31 
L 13.625 0 
L 2.984375 0 
L 29 38.921875 
z
" id="DejaVuSans-88"/>
      </defs>
      <use xlink:href="#DejaVuSans-88"/>
      <use x="68.505859" xlink:href="#DejaVuSans-71"/>
      <use x="145.996094" xlink:href="#DejaVuSans-66"/>
      <use x="214.599609" xlink:href="#DejaVuSans-111"/>
      <use x="275.78125" xlink:href="#DejaVuSans-111"/>
      <use x="336.962891" xlink:href="#DejaVuSans-115"/>
      <use x="389.0625" xlink:href="#DejaVuSans-116"/>
     </g>
    </g>
   </g>
  </g>
 </g>
 <defs>
  <clipPath id="pb572cf2ee4">
   <rect height="266.112" width="357.12" x="57.6" y="41.472"/>
  </clipPath>
 </defs>
</svg>
