<?xml version="1.0" encoding="utf-8" standalone="no"?>
<!DOCTYPE svg PUBLIC "-//W3C//DTD SVG 1.1//EN"
  "http://www.w3.org/Graphics/SVG/1.1/DTD/svg11.dtd">
<!-- Created with matplotlib (https://matplotlib.org/) -->
<svg height="345.6pt" version="1.1" viewBox="0 0 460.8 345.6" width="460.8pt" xmlns="http://www.w3.org/2000/svg" xmlns:xlink="http://www.w3.org/1999/xlink">
 <metadata>
  <rdf:RDF xmlns:cc="http://creativecommons.org/ns#" xmlns:dc="http://purl.org/dc/elements/1.1/" xmlns:rdf="http://www.w3.org/1999/02/22-rdf-syntax-ns#">
   <cc:Work>
    <dc:type rdf:resource="http://purl.org/dc/dcmitype/StillImage"/>
    <dc:date>2023-09-13T12:39:25.763053</dc:date>
    <dc:format>image/svg+xml</dc:format>
    <dc:creator>
     <cc:Agent>
      <dc:title>Matplotlib v3.3.4, https://matplotlib.org/</dc:title>
     </cc:Agent>
    </dc:creator>
   </cc:Work>
  </rdf:RDF>
 </metadata>
 <defs>
  <style type="text/css">*{stroke-linecap:butt;stroke-linejoin:round;}</style>
 </defs>
 <g id="figure_1">
  <g id="patch_1">
   <path d="M 0 345.6 
L 460.8 345.6 
L 460.8 0 
L 0 0 
z
" style="fill:#ffffff;"/>
  </g>
  <g id="axes_1">
   <g id="patch_2">
    <path d="M 57.6 307.584 
L 414.72 307.584 
L 414.72 41.472 
L 57.6 41.472 
z
" style="fill:#ffffff;"/>
   </g>
   <g id="PolyCollection_1">
    <path clip-path="url(#p169c5fa067)" d="M 73.832727 89.838402 
L 73.832727 89.838402 
L 79.335347 99.284334 
L 84.837966 101.008063 
L 90.340586 101.425066 
L 95.843205 104.451391 
L 101.345824 108.483089 
L 106.848444 108.873254 
L 112.351063 107.498532 
L 117.853683 113.472418 
L 123.356302 109.240026 
L 128.858921 117.255694 
L 134.361541 121.845117 
L 139.86416 124.061519 
L 145.36678 130.218326 
L 150.869399 133.987583 
L 156.372018 148.231972 
L 161.874638 144.143907 
L 167.377257 141.050616 
L 172.879877 157.285011 
L 178.382496 160.405998 
L 183.885116 156.97662 
L 189.387735 158.369597 
L 194.890354 160.963952 
L 200.392974 179.113959 
L 205.895593 187.495736 
L 211.398213 190.449793 
L 216.900832 187.398934 
L 222.403451 200.086994 
L 227.906071 204.241745 
L 233.40869 198.990735 
L 238.91131 213.770107 
L 244.413929 214.022287 
L 249.916549 229.646652 
L 255.419168 229.546581 
L 260.921787 244.278335 
L 266.424407 238.215315 
L 271.927026 243.63877 
L 277.429646 248.589404 
L 282.932265 253.680268 
L 288.434884 268.128337 
L 293.937504 269.953608 
L 299.440123 273.971232 
L 304.942743 276.130074 
L 310.445362 278.298154 
L 315.947982 282.368626 
L 321.450601 278.067498 
L 326.95322 278.892569 
L 332.45584 284.177088 
L 337.958459 284.355765 
L 343.461079 281.931504 
L 348.963698 283.258975 
L 354.466317 282.877406 
L 359.968937 280.076504 
L 365.471556 276.901854 
L 370.974176 275.770982 
L 376.476795 274.695248 
L 381.979414 272.911238 
L 387.482034 272.911238 
L 392.984653 272.911238 
L 398.487273 272.911238 
L 398.487273 272.911238 
L 398.487273 272.911238 
L 392.984653 272.911238 
L 387.482034 272.911238 
L 381.979414 272.911238 
L 376.476795 270.31357 
L 370.974176 268.831007 
L 365.471556 265.259164 
L 359.968937 259.236715 
L 354.466317 246.265099 
L 348.963698 250.358644 
L 343.461079 234.599317 
L 337.958459 226.886286 
L 332.45584 229.505934 
L 326.95322 225.026568 
L 321.450601 203.882899 
L 315.947982 214.634426 
L 310.445362 205.686385 
L 304.942743 195.242782 
L 299.440123 182.348968 
L 293.937504 187.180249 
L 288.434884 171.105065 
L 282.932265 153.006852 
L 277.429646 158.097716 
L 271.927026 157.352751 
L 266.424407 144.468922 
L 260.921787 146.135644 
L 255.419168 131.168916 
L 249.916549 140.425901 
L 244.413929 114.960585 
L 238.91131 122.942507 
L 233.40869 123.076052 
L 227.906071 112.129442 
L 222.403451 114.656879 
L 216.900832 108.223999 
L 211.398213 110.055082 
L 205.895593 97.956484 
L 200.392974 106.33826 
L 194.890354 90.7215 
L 189.387735 96.570483 
L 183.885116 92.267861 
L 178.382496 90.465797 
L 172.879877 93.586784 
L 167.377257 87.852439 
L 161.874638 83.131834 
L 156.372018 78.63694 
L 150.869399 79.04916 
L 145.36678 78.343302 
L 139.86416 75.549882 
L 134.361541 80.207256 
L 128.858921 74.625965 
L 123.356302 73.284577 
L 117.853683 76.375099 
L 112.351063 75.026071 
L 106.848444 72.430864 
L 101.345824 71.600543 
L 95.843205 66.682013 
L 90.340586 75.403937 
L 84.837966 71.345827 
L 79.335347 75.917356 
L 73.832727 89.838402 
z
" style="fill:#1f77b4;fill-opacity:0.2;"/>
   </g>
   <g id="PolyCollection_2">
    <path clip-path="url(#p169c5fa067)" d="M 73.832727 126.452969 
L 73.832727 126.452969 
L 79.335347 143.599466 
L 84.837966 148.830988 
L 90.340586 156.541116 
L 95.843205 157.418108 
L 101.345824 163.826357 
L 106.848444 164.761454 
L 112.351063 171.631867 
L 117.853683 170.954425 
L 123.356302 176.280216 
L 128.858921 176.753089 
L 134.361541 176.295496 
L 139.86416 179.705497 
L 145.36678 176.045337 
L 150.869399 183.513238 
L 156.372018 183.076718 
L 161.874638 182.024429 
L 167.377257 183.648679 
L 172.879877 181.29511 
L 178.382496 185.182385 
L 183.885116 176.759001 
L 189.387735 190.030473 
L 194.890354 178.10145 
L 200.392974 178.445237 
L 205.895593 199.316368 
L 211.398213 199.36625 
L 216.900832 186.035309 
L 222.403451 194.733897 
L 227.906071 194.332739 
L 233.40869 196.085142 
L 238.91131 199.850048 
L 244.413929 197.082841 
L 249.916549 203.776459 
L 255.419168 202.307454 
L 260.921787 202.132015 
L 266.424407 193.931477 
L 271.927026 200.554477 
L 277.429646 217.523939 
L 282.932265 209.492457 
L 288.434884 208.448578 
L 293.937504 210.646126 
L 299.440123 214.272219 
L 304.942743 213.200383 
L 310.445362 218.857845 
L 315.947982 229.476934 
L 321.450601 223.015376 
L 326.95322 230.066943 
L 332.45584 227.052275 
L 337.958459 236.413563 
L 343.461079 243.406197 
L 348.963698 256.929254 
L 354.466317 249.437417 
L 359.968937 269.910854 
L 365.471556 267.851302 
L 370.974176 282.681381 
L 376.476795 279.068575 
L 381.979414 291.861809 
L 387.482034 294.401251 
L 392.984653 295.488 
L 398.487273 294.764095 
L 398.487273 232.751096 
L 398.487273 232.751096 
L 392.984653 202.328709 
L 387.482034 198.940344 
L 381.979414 177.883732 
L 376.476795 167.48774 
L 370.974176 176.893447 
L 365.471556 158.770416 
L 359.968937 159.965492 
L 354.466317 151.147275 
L 348.963698 155.453465 
L 343.461079 139.684868 
L 337.958459 130.81119 
L 332.45584 137.324678 
L 326.95322 132.682697 
L 321.450601 130.377207 
L 315.947982 134.90002 
L 310.445362 125.177682 
L 304.942743 136.530744 
L 299.440123 137.086222 
L 293.937504 137.457686 
L 288.434884 134.773292 
L 282.932265 123.965528 
L 277.429646 139.936929 
L 271.927026 127.207909 
L 266.424407 133.830909 
L 260.921787 128.071343 
L 255.419168 139.287102 
L 249.916549 124.392756 
L 244.413929 113.592747 
L 238.91131 128.725996 
L 233.40869 128.015788 
L 227.906071 126.106734 
L 222.403451 126.112404 
L 216.900832 128.708565 
L 211.398213 132.87125 
L 205.895593 122.750419 
L 200.392974 122.873295 
L 194.890354 116.300997 
L 189.387735 124.306572 
L 183.885116 129.848302 
L 178.382496 123.865889 
L 172.879877 125.312193 
L 167.377257 120.924481 
L 161.874638 124.176045 
L 156.372018 118.648642 
L 150.869399 123.094065 
L 145.36678 119.170767 
L 139.86416 128.52912 
L 134.361541 128.277665 
L 128.858921 124.972272 
L 123.356302 118.122232 
L 117.853683 112.870481 
L 112.351063 116.261324 
L 106.848444 114.995166 
L 101.345824 121.625863 
L 95.843205 121.524856 
L 90.340586 122.808676 
L 84.837966 115.05932 
L 79.335347 115.815728 
L 73.832727 126.452969 
z
" style="fill:#ff7f0e;fill-opacity:0.2;"/>
   </g>
   <g id="PolyCollection_3">
    <path clip-path="url(#p169c5fa067)" d="M 73.832727 77.633546 
L 73.832727 77.633546 
L 79.335347 93.701917 
L 84.837966 97.872974 
L 90.340586 100.14207 
L 95.843205 103.953283 
L 101.345824 113.538357 
L 106.848444 103.352535 
L 112.351063 122.282817 
L 117.853683 119.478903 
L 123.356302 130.125938 
L 128.858921 135.214491 
L 134.361541 132.342987 
L 139.86416 135.753543 
L 145.36678 135.081792 
L 150.869399 144.721377 
L 156.372018 150.227419 
L 161.874638 154.208683 
L 167.377257 151.872718 
L 172.879877 149.769104 
L 178.382496 158.439039 
L 183.885116 163.30718 
L 189.387735 175.691819 
L 194.890354 168.947059 
L 200.392974 180.039941 
L 205.895593 188.861254 
L 211.398213 188.633927 
L 216.900832 188.701988 
L 222.403451 198.941497 
L 227.906071 200.645044 
L 233.40869 203.238005 
L 238.91131 196.066029 
L 244.413929 194.170101 
L 249.916549 211.708623 
L 255.419168 213.104732 
L 260.921787 231.903919 
L 266.424407 219.818065 
L 271.927026 226.677882 
L 277.429646 239.7591 
L 282.932265 234.713341 
L 288.434884 246.725144 
L 293.937504 246.378936 
L 299.440123 255.651059 
L 304.942743 259.995462 
L 310.445362 266.23633 
L 315.947982 278.374173 
L 321.450601 274.208225 
L 326.95322 276.518798 
L 332.45584 277.263832 
L 337.958459 283.058677 
L 343.461079 286.970824 
L 348.963698 284.407955 
L 354.466317 287.866059 
L 359.968937 289.289005 
L 365.471556 292.776677 
L 370.974176 291.164505 
L 376.476795 293.7238 
L 381.979414 290.757388 
L 387.482034 289.80452 
L 392.984653 283.78356 
L 398.487273 289.309188 
L 398.487273 246.749402 
L 398.487273 246.749402 
L 392.984653 258.784287 
L 387.482034 243.8131 
L 381.979414 242.046574 
L 376.476795 229.316278 
L 370.974176 231.468744 
L 365.471556 207.887832 
L 359.968937 221.953046 
L 354.466317 205.068708 
L 348.963698 189.405872 
L 343.461079 192.131774 
L 337.958459 172.854694 
L 332.45584 175.394912 
L 326.95322 173.698975 
L 321.450601 160.550063 
L 315.947982 180.793826 
L 310.445362 166.487816 
L 304.942743 149.539457 
L 299.440123 141.272176 
L 293.937504 147.289671 
L 288.434884 140.841035 
L 282.932265 134.952383 
L 277.429646 136.009052 
L 271.927026 121.019102 
L 266.424407 118.928692 
L 260.921787 122.302321 
L 255.419168 121.573739 
L 249.916549 120.935706 
L 244.413929 100.232346 
L 238.91131 104.845675 
L 233.40869 103.776127 
L 227.906071 105.148602 
L 222.403451 94.647293 
L 216.900832 91.46146 
L 211.398213 106.989006 
L 205.895593 96.590966 
L 200.392974 91.17328 
L 194.890354 81.924736 
L 189.387735 83.723375 
L 183.885116 86.750958 
L 178.382496 79.821072 
L 172.879877 77.913466 
L 167.377257 75.403023 
L 161.874638 77.135343 
L 156.372018 75.827836 
L 150.869399 72.38365 
L 145.36678 63.309123 
L 139.86416 72.808085 
L 134.361541 72.557185 
L 128.858921 70.499338 
L 123.356302 65.417178 
L 117.853683 58.163757 
L 112.351063 57.393986 
L 106.848444 64.119413 
L 101.345824 61.663333 
L 95.843205 64.73915 
L 90.340586 62.041107 
L 84.837966 62.27606 
L 79.335347 63.192489 
L 73.832727 77.633546 
z
" style="fill:#2ca02c;fill-opacity:0.2;"/>
   </g>
   <g id="PolyCollection_4">
    <path clip-path="url(#p169c5fa067)" d="M 73.832727 65.42869 
L 73.832727 65.42869 
L 79.335347 76.840624 
L 84.837966 86.646437 
L 90.340586 86.796937 
L 95.843205 95.455599 
L 101.345824 93.971398 
L 106.848444 94.487339 
L 112.351063 100.433623 
L 117.853683 101.543402 
L 123.356302 111.202734 
L 128.858921 110.037783 
L 134.361541 107.023371 
L 139.86416 121.387262 
L 145.36678 110.049339 
L 150.869399 125.148233 
L 156.372018 125.510118 
L 161.874638 134.842909 
L 167.377257 134.595521 
L 172.879877 152.652321 
L 178.382496 152.451227 
L 183.885116 147.966409 
L 189.387735 158.260846 
L 194.890354 161.279878 
L 200.392974 158.280556 
L 205.895593 176.771488 
L 211.398213 174.332579 
L 216.900832 172.680397 
L 222.403451 186.760056 
L 227.906071 196.863023 
L 233.40869 192.589261 
L 238.91131 190.165369 
L 244.413929 199.827104 
L 249.916549 201.703158 
L 255.419168 206.2269 
L 260.921787 208.307391 
L 266.424407 211.035846 
L 271.927026 203.834003 
L 277.429646 209.669733 
L 282.932265 209.527218 
L 288.434884 208.295663 
L 293.937504 209.223564 
L 299.440123 210.70284 
L 304.942743 205.21331 
L 310.445362 212.277028 
L 315.947982 201.466113 
L 321.450601 206.715663 
L 326.95322 206.402594 
L 332.45584 202.541848 
L 337.958459 199.682103 
L 343.461079 199.682103 
L 348.963698 199.682103 
L 354.466317 199.682103 
L 359.968937 199.682103 
L 365.471556 199.682103 
L 370.974176 199.682103 
L 376.476795 199.682103 
L 381.979414 199.682103 
L 387.482034 199.682103 
L 392.984653 199.682103 
L 398.487273 199.682103 
L 398.487273 199.682103 
L 398.487273 199.682103 
L 392.984653 199.682103 
L 387.482034 199.682103 
L 381.979414 199.682103 
L 376.476795 199.682103 
L 370.974176 199.682103 
L 365.471556 199.682103 
L 359.968937 199.682103 
L 354.466317 199.682103 
L 348.963698 199.682103 
L 343.461079 199.682103 
L 337.958459 199.682103 
L 332.45584 195.601873 
L 326.95322 190.520642 
L 321.450601 188.987086 
L 315.947982 197.084436 
L 310.445362 177.730123 
L 304.942743 189.268954 
L 299.440123 171.981397 
L 293.937504 172.240188 
L 288.434884 163.404204 
L 282.932265 160.545334 
L 277.429646 170.980362 
L 271.927026 155.25418 
L 266.424407 160.257192 
L 260.921787 157.696876 
L 255.419168 147.97934 
L 249.916549 132.161656 
L 244.413929 128.342111 
L 238.91131 122.95119 
L 233.40869 125.81607 
L 227.906071 124.796935 
L 222.403451 113.744819 
L 216.900832 107.076223 
L 211.398213 106.237699 
L 205.895593 104.612447 
L 200.392974 101.541467 
L 194.890354 89.185088 
L 189.387735 92.20412 
L 183.885116 88.259559 
L 178.382496 84.18157 
L 172.879877 87.235104 
L 167.377257 79.254878 
L 161.874638 85.923576 
L 156.372018 72.473969 
L 150.869399 71.208539 
L 145.36678 65.152351 
L 139.86416 72.935368 
L 134.361541 68.991975 
L 128.858921 72.893648 
L 123.356302 61.557984 
L 117.853683 59.826118 
L 112.351063 62.970039 
L 106.848444 59.559268 
L 101.345824 56.82058 
L 95.843205 58.591008 
L 90.340586 57.078956 
L 84.837966 53.568 
L 79.335347 56.864556 
L 73.832727 65.42869 
z
" style="fill:#d62728;fill-opacity:0.2;"/>
   </g>
   <g id="matplotlib.axis_1">
    <g id="xtick_1">
     <g id="line2d_1">
      <defs>
       <path d="M 0 0 
L 0 3.5 
" id="m020f43a4e6" style="stroke:#000000;stroke-width:0.8;"/>
      </defs>
      <g>
       <use style="stroke:#000000;stroke-width:0.8;" x="403.989892" xlink:href="#m020f43a4e6" y="307.584"/>
      </g>
     </g>
     <g id="text_1">
      <!-- 0 -->
      <g transform="translate(400.808642 322.182437)scale(0.1 -0.1)">
       <defs>
        <path d="M 31.78125 66.40625 
Q 24.171875 66.40625 20.328125 58.90625 
Q 16.5 51.421875 16.5 36.375 
Q 16.5 21.390625 20.328125 13.890625 
Q 24.171875 6.390625 31.78125 6.390625 
Q 39.453125 6.390625 43.28125 13.890625 
Q 47.125 21.390625 47.125 36.375 
Q 47.125 51.421875 43.28125 58.90625 
Q 39.453125 66.40625 31.78125 66.40625 
z
M 31.78125 74.21875 
Q 44.046875 74.21875 50.515625 64.515625 
Q 56.984375 54.828125 56.984375 36.375 
Q 56.984375 17.96875 50.515625 8.265625 
Q 44.046875 -1.421875 31.78125 -1.421875 
Q 19.53125 -1.421875 13.0625 8.265625 
Q 6.59375 17.96875 6.59375 36.375 
Q 6.59375 54.828125 13.0625 64.515625 
Q 19.53125 74.21875 31.78125 74.21875 
z
" id="DejaVuSans-48"/>
       </defs>
       <use xlink:href="#DejaVuSans-48"/>
      </g>
     </g>
    </g>
    <g id="xtick_2">
     <g id="line2d_2">
      <g>
       <use style="stroke:#000000;stroke-width:0.8;" x="348.963698" xlink:href="#m020f43a4e6" y="307.584"/>
      </g>
     </g>
     <g id="text_2">
      <!-- 10 -->
      <g transform="translate(342.601198 322.182437)scale(0.1 -0.1)">
       <defs>
        <path d="M 12.40625 8.296875 
L 28.515625 8.296875 
L 28.515625 63.921875 
L 10.984375 60.40625 
L 10.984375 69.390625 
L 28.421875 72.90625 
L 38.28125 72.90625 
L 38.28125 8.296875 
L 54.390625 8.296875 
L 54.390625 0 
L 12.40625 0 
z
" id="DejaVuSans-49"/>
       </defs>
       <use xlink:href="#DejaVuSans-49"/>
       <use x="63.623047" xlink:href="#DejaVuSans-48"/>
      </g>
     </g>
    </g>
    <g id="xtick_3">
     <g id="line2d_3">
      <g>
       <use style="stroke:#000000;stroke-width:0.8;" x="293.937504" xlink:href="#m020f43a4e6" y="307.584"/>
      </g>
     </g>
     <g id="text_3">
      <!-- 20 -->
      <g transform="translate(287.575004 322.182437)scale(0.1 -0.1)">
       <defs>
        <path d="M 19.1875 8.296875 
L 53.609375 8.296875 
L 53.609375 0 
L 7.328125 0 
L 7.328125 8.296875 
Q 12.9375 14.109375 22.625 23.890625 
Q 32.328125 33.6875 34.8125 36.53125 
Q 39.546875 41.84375 41.421875 45.53125 
Q 43.3125 49.21875 43.3125 52.78125 
Q 43.3125 58.59375 39.234375 62.25 
Q 35.15625 65.921875 28.609375 65.921875 
Q 23.96875 65.921875 18.8125 64.3125 
Q 13.671875 62.703125 7.8125 59.421875 
L 7.8125 69.390625 
Q 13.765625 71.78125 18.9375 73 
Q 24.125 74.21875 28.421875 74.21875 
Q 39.75 74.21875 46.484375 68.546875 
Q 53.21875 62.890625 53.21875 53.421875 
Q 53.21875 48.921875 51.53125 44.890625 
Q 49.859375 40.875 45.40625 35.40625 
Q 44.1875 33.984375 37.640625 27.21875 
Q 31.109375 20.453125 19.1875 8.296875 
z
" id="DejaVuSans-50"/>
       </defs>
       <use xlink:href="#DejaVuSans-50"/>
       <use x="63.623047" xlink:href="#DejaVuSans-48"/>
      </g>
     </g>
    </g>
    <g id="xtick_4">
     <g id="line2d_4">
      <g>
       <use style="stroke:#000000;stroke-width:0.8;" x="238.91131" xlink:href="#m020f43a4e6" y="307.584"/>
      </g>
     </g>
     <g id="text_4">
      <!-- 30 -->
      <g transform="translate(232.54881 322.182437)scale(0.1 -0.1)">
       <defs>
        <path d="M 40.578125 39.3125 
Q 47.65625 37.796875 51.625 33 
Q 55.609375 28.21875 55.609375 21.1875 
Q 55.609375 10.40625 48.1875 4.484375 
Q 40.765625 -1.421875 27.09375 -1.421875 
Q 22.515625 -1.421875 17.65625 -0.515625 
Q 12.796875 0.390625 7.625 2.203125 
L 7.625 11.71875 
Q 11.71875 9.328125 16.59375 8.109375 
Q 21.484375 6.890625 26.8125 6.890625 
Q 36.078125 6.890625 40.9375 10.546875 
Q 45.796875 14.203125 45.796875 21.1875 
Q 45.796875 27.640625 41.28125 31.265625 
Q 36.765625 34.90625 28.71875 34.90625 
L 20.21875 34.90625 
L 20.21875 43.015625 
L 29.109375 43.015625 
Q 36.375 43.015625 40.234375 45.921875 
Q 44.09375 48.828125 44.09375 54.296875 
Q 44.09375 59.90625 40.109375 62.90625 
Q 36.140625 65.921875 28.71875 65.921875 
Q 24.65625 65.921875 20.015625 65.03125 
Q 15.375 64.15625 9.8125 62.3125 
L 9.8125 71.09375 
Q 15.4375 72.65625 20.34375 73.4375 
Q 25.25 74.21875 29.59375 74.21875 
Q 40.828125 74.21875 47.359375 69.109375 
Q 53.90625 64.015625 53.90625 55.328125 
Q 53.90625 49.265625 50.4375 45.09375 
Q 46.96875 40.921875 40.578125 39.3125 
z
" id="DejaVuSans-51"/>
       </defs>
       <use xlink:href="#DejaVuSans-51"/>
       <use x="63.623047" xlink:href="#DejaVuSans-48"/>
      </g>
     </g>
    </g>
    <g id="xtick_5">
     <g id="line2d_5">
      <g>
       <use style="stroke:#000000;stroke-width:0.8;" x="183.885116" xlink:href="#m020f43a4e6" y="307.584"/>
      </g>
     </g>
     <g id="text_5">
      <!-- 40 -->
      <g transform="translate(177.522616 322.182437)scale(0.1 -0.1)">
       <defs>
        <path d="M 37.796875 64.3125 
L 12.890625 25.390625 
L 37.796875 25.390625 
z
M 35.203125 72.90625 
L 47.609375 72.90625 
L 47.609375 25.390625 
L 58.015625 25.390625 
L 58.015625 17.1875 
L 47.609375 17.1875 
L 47.609375 0 
L 37.796875 0 
L 37.796875 17.1875 
L 4.890625 17.1875 
L 4.890625 26.703125 
z
" id="DejaVuSans-52"/>
       </defs>
       <use xlink:href="#DejaVuSans-52"/>
       <use x="63.623047" xlink:href="#DejaVuSans-48"/>
      </g>
     </g>
    </g>
    <g id="xtick_6">
     <g id="line2d_6">
      <g>
       <use style="stroke:#000000;stroke-width:0.8;" x="128.858921" xlink:href="#m020f43a4e6" y="307.584"/>
      </g>
     </g>
     <g id="text_6">
      <!-- 50 -->
      <g transform="translate(122.496421 322.182437)scale(0.1 -0.1)">
       <defs>
        <path d="M 10.796875 72.90625 
L 49.515625 72.90625 
L 49.515625 64.59375 
L 19.828125 64.59375 
L 19.828125 46.734375 
Q 21.96875 47.46875 24.109375 47.828125 
Q 26.265625 48.1875 28.421875 48.1875 
Q 40.625 48.1875 47.75 41.5 
Q 54.890625 34.8125 54.890625 23.390625 
Q 54.890625 11.625 47.5625 5.09375 
Q 40.234375 -1.421875 26.90625 -1.421875 
Q 22.3125 -1.421875 17.546875 -0.640625 
Q 12.796875 0.140625 7.71875 1.703125 
L 7.71875 11.625 
Q 12.109375 9.234375 16.796875 8.0625 
Q 21.484375 6.890625 26.703125 6.890625 
Q 35.15625 6.890625 40.078125 11.328125 
Q 45.015625 15.765625 45.015625 23.390625 
Q 45.015625 31 40.078125 35.4375 
Q 35.15625 39.890625 26.703125 39.890625 
Q 22.75 39.890625 18.8125 39.015625 
Q 14.890625 38.140625 10.796875 36.28125 
z
" id="DejaVuSans-53"/>
       </defs>
       <use xlink:href="#DejaVuSans-53"/>
       <use x="63.623047" xlink:href="#DejaVuSans-48"/>
      </g>
     </g>
    </g>
    <g id="xtick_7">
     <g id="line2d_7">
      <g>
       <use style="stroke:#000000;stroke-width:0.8;" x="73.832727" xlink:href="#m020f43a4e6" y="307.584"/>
      </g>
     </g>
     <g id="text_7">
      <!-- 60 -->
      <g transform="translate(67.470227 322.182437)scale(0.1 -0.1)">
       <defs>
        <path d="M 33.015625 40.375 
Q 26.375 40.375 22.484375 35.828125 
Q 18.609375 31.296875 18.609375 23.390625 
Q 18.609375 15.53125 22.484375 10.953125 
Q 26.375 6.390625 33.015625 6.390625 
Q 39.65625 6.390625 43.53125 10.953125 
Q 47.40625 15.53125 47.40625 23.390625 
Q 47.40625 31.296875 43.53125 35.828125 
Q 39.65625 40.375 33.015625 40.375 
z
M 52.59375 71.296875 
L 52.59375 62.3125 
Q 48.875 64.0625 45.09375 64.984375 
Q 41.3125 65.921875 37.59375 65.921875 
Q 27.828125 65.921875 22.671875 59.328125 
Q 17.53125 52.734375 16.796875 39.40625 
Q 19.671875 43.65625 24.015625 45.921875 
Q 28.375 48.1875 33.59375 48.1875 
Q 44.578125 48.1875 50.953125 41.515625 
Q 57.328125 34.859375 57.328125 23.390625 
Q 57.328125 12.15625 50.6875 5.359375 
Q 44.046875 -1.421875 33.015625 -1.421875 
Q 20.359375 -1.421875 13.671875 8.265625 
Q 6.984375 17.96875 6.984375 36.375 
Q 6.984375 53.65625 15.1875 63.9375 
Q 23.390625 74.21875 37.203125 74.21875 
Q 40.921875 74.21875 44.703125 73.484375 
Q 48.484375 72.75 52.59375 71.296875 
z
" id="DejaVuSans-54"/>
       </defs>
       <use xlink:href="#DejaVuSans-54"/>
       <use x="63.623047" xlink:href="#DejaVuSans-48"/>
      </g>
     </g>
    </g>
    <g id="text_8">
     <!-- Number of features -->
     <g transform="translate(187.4225 335.860562)scale(0.1 -0.1)">
      <defs>
       <path d="M 9.8125 72.90625 
L 23.09375 72.90625 
L 55.421875 11.921875 
L 55.421875 72.90625 
L 64.984375 72.90625 
L 64.984375 0 
L 51.703125 0 
L 19.390625 60.984375 
L 19.390625 0 
L 9.8125 0 
z
" id="DejaVuSans-78"/>
       <path d="M 8.5 21.578125 
L 8.5 54.6875 
L 17.484375 54.6875 
L 17.484375 21.921875 
Q 17.484375 14.15625 20.5 10.265625 
Q 23.53125 6.390625 29.59375 6.390625 
Q 36.859375 6.390625 41.078125 11.03125 
Q 45.3125 15.671875 45.3125 23.6875 
L 45.3125 54.6875 
L 54.296875 54.6875 
L 54.296875 0 
L 45.3125 0 
L 45.3125 8.40625 
Q 42.046875 3.421875 37.71875 1 
Q 33.40625 -1.421875 27.6875 -1.421875 
Q 18.265625 -1.421875 13.375 4.4375 
Q 8.5 10.296875 8.5 21.578125 
z
M 31.109375 56 
z
" id="DejaVuSans-117"/>
       <path d="M 52 44.1875 
Q 55.375 50.25 60.0625 53.125 
Q 64.75 56 71.09375 56 
Q 79.640625 56 84.28125 50.015625 
Q 88.921875 44.046875 88.921875 33.015625 
L 88.921875 0 
L 79.890625 0 
L 79.890625 32.71875 
Q 79.890625 40.578125 77.09375 44.375 
Q 74.3125 48.1875 68.609375 48.1875 
Q 61.625 48.1875 57.5625 43.546875 
Q 53.515625 38.921875 53.515625 30.90625 
L 53.515625 0 
L 44.484375 0 
L 44.484375 32.71875 
Q 44.484375 40.625 41.703125 44.40625 
Q 38.921875 48.1875 33.109375 48.1875 
Q 26.21875 48.1875 22.15625 43.53125 
Q 18.109375 38.875 18.109375 30.90625 
L 18.109375 0 
L 9.078125 0 
L 9.078125 54.6875 
L 18.109375 54.6875 
L 18.109375 46.1875 
Q 21.1875 51.21875 25.484375 53.609375 
Q 29.78125 56 35.6875 56 
Q 41.65625 56 45.828125 52.96875 
Q 50 49.953125 52 44.1875 
z
" id="DejaVuSans-109"/>
       <path d="M 48.6875 27.296875 
Q 48.6875 37.203125 44.609375 42.84375 
Q 40.53125 48.484375 33.40625 48.484375 
Q 26.265625 48.484375 22.1875 42.84375 
Q 18.109375 37.203125 18.109375 27.296875 
Q 18.109375 17.390625 22.1875 11.75 
Q 26.265625 6.109375 33.40625 6.109375 
Q 40.53125 6.109375 44.609375 11.75 
Q 48.6875 17.390625 48.6875 27.296875 
z
M 18.109375 46.390625 
Q 20.953125 51.265625 25.265625 53.625 
Q 29.59375 56 35.59375 56 
Q 45.5625 56 51.78125 48.09375 
Q 58.015625 40.1875 58.015625 27.296875 
Q 58.015625 14.40625 51.78125 6.484375 
Q 45.5625 -1.421875 35.59375 -1.421875 
Q 29.59375 -1.421875 25.265625 0.953125 
Q 20.953125 3.328125 18.109375 8.203125 
L 18.109375 0 
L 9.078125 0 
L 9.078125 75.984375 
L 18.109375 75.984375 
z
" id="DejaVuSans-98"/>
       <path d="M 56.203125 29.59375 
L 56.203125 25.203125 
L 14.890625 25.203125 
Q 15.484375 15.921875 20.484375 11.0625 
Q 25.484375 6.203125 34.421875 6.203125 
Q 39.59375 6.203125 44.453125 7.46875 
Q 49.3125 8.734375 54.109375 11.28125 
L 54.109375 2.78125 
Q 49.265625 0.734375 44.1875 -0.34375 
Q 39.109375 -1.421875 33.890625 -1.421875 
Q 20.796875 -1.421875 13.15625 6.1875 
Q 5.515625 13.8125 5.515625 26.8125 
Q 5.515625 40.234375 12.765625 48.109375 
Q 20.015625 56 32.328125 56 
Q 43.359375 56 49.78125 48.890625 
Q 56.203125 41.796875 56.203125 29.59375 
z
M 47.21875 32.234375 
Q 47.125 39.59375 43.09375 43.984375 
Q 39.0625 48.390625 32.421875 48.390625 
Q 24.90625 48.390625 20.390625 44.140625 
Q 15.875 39.890625 15.1875 32.171875 
z
" id="DejaVuSans-101"/>
       <path d="M 41.109375 46.296875 
Q 39.59375 47.171875 37.8125 47.578125 
Q 36.03125 48 33.890625 48 
Q 26.265625 48 22.1875 43.046875 
Q 18.109375 38.09375 18.109375 28.8125 
L 18.109375 0 
L 9.078125 0 
L 9.078125 54.6875 
L 18.109375 54.6875 
L 18.109375 46.1875 
Q 20.953125 51.171875 25.484375 53.578125 
Q 30.03125 56 36.53125 56 
Q 37.453125 56 38.578125 55.875 
Q 39.703125 55.765625 41.0625 55.515625 
z
" id="DejaVuSans-114"/>
       <path id="DejaVuSans-32"/>
       <path d="M 30.609375 48.390625 
Q 23.390625 48.390625 19.1875 42.75 
Q 14.984375 37.109375 14.984375 27.296875 
Q 14.984375 17.484375 19.15625 11.84375 
Q 23.34375 6.203125 30.609375 6.203125 
Q 37.796875 6.203125 41.984375 11.859375 
Q 46.1875 17.53125 46.1875 27.296875 
Q 46.1875 37.015625 41.984375 42.703125 
Q 37.796875 48.390625 30.609375 48.390625 
z
M 30.609375 56 
Q 42.328125 56 49.015625 48.375 
Q 55.71875 40.765625 55.71875 27.296875 
Q 55.71875 13.875 49.015625 6.21875 
Q 42.328125 -1.421875 30.609375 -1.421875 
Q 18.84375 -1.421875 12.171875 6.21875 
Q 5.515625 13.875 5.515625 27.296875 
Q 5.515625 40.765625 12.171875 48.375 
Q 18.84375 56 30.609375 56 
z
" id="DejaVuSans-111"/>
       <path d="M 37.109375 75.984375 
L 37.109375 68.5 
L 28.515625 68.5 
Q 23.6875 68.5 21.796875 66.546875 
Q 19.921875 64.59375 19.921875 59.515625 
L 19.921875 54.6875 
L 34.71875 54.6875 
L 34.71875 47.703125 
L 19.921875 47.703125 
L 19.921875 0 
L 10.890625 0 
L 10.890625 47.703125 
L 2.296875 47.703125 
L 2.296875 54.6875 
L 10.890625 54.6875 
L 10.890625 58.5 
Q 10.890625 67.625 15.140625 71.796875 
Q 19.390625 75.984375 28.609375 75.984375 
z
" id="DejaVuSans-102"/>
       <path d="M 34.28125 27.484375 
Q 23.390625 27.484375 19.1875 25 
Q 14.984375 22.515625 14.984375 16.5 
Q 14.984375 11.71875 18.140625 8.90625 
Q 21.296875 6.109375 26.703125 6.109375 
Q 34.1875 6.109375 38.703125 11.40625 
Q 43.21875 16.703125 43.21875 25.484375 
L 43.21875 27.484375 
z
M 52.203125 31.203125 
L 52.203125 0 
L 43.21875 0 
L 43.21875 8.296875 
Q 40.140625 3.328125 35.546875 0.953125 
Q 30.953125 -1.421875 24.3125 -1.421875 
Q 15.921875 -1.421875 10.953125 3.296875 
Q 6 8.015625 6 15.921875 
Q 6 25.140625 12.171875 29.828125 
Q 18.359375 34.515625 30.609375 34.515625 
L 43.21875 34.515625 
L 43.21875 35.40625 
Q 43.21875 41.609375 39.140625 45 
Q 35.0625 48.390625 27.6875 48.390625 
Q 23 48.390625 18.546875 47.265625 
Q 14.109375 46.140625 10.015625 43.890625 
L 10.015625 52.203125 
Q 14.9375 54.109375 19.578125 55.046875 
Q 24.21875 56 28.609375 56 
Q 40.484375 56 46.34375 49.84375 
Q 52.203125 43.703125 52.203125 31.203125 
z
" id="DejaVuSans-97"/>
       <path d="M 18.3125 70.21875 
L 18.3125 54.6875 
L 36.8125 54.6875 
L 36.8125 47.703125 
L 18.3125 47.703125 
L 18.3125 18.015625 
Q 18.3125 11.328125 20.140625 9.421875 
Q 21.96875 7.515625 27.59375 7.515625 
L 36.8125 7.515625 
L 36.8125 0 
L 27.59375 0 
Q 17.1875 0 13.234375 3.875 
Q 9.28125 7.765625 9.28125 18.015625 
L 9.28125 47.703125 
L 2.6875 47.703125 
L 2.6875 54.6875 
L 9.28125 54.6875 
L 9.28125 70.21875 
z
" id="DejaVuSans-116"/>
       <path d="M 44.28125 53.078125 
L 44.28125 44.578125 
Q 40.484375 46.53125 36.375 47.5 
Q 32.28125 48.484375 27.875 48.484375 
Q 21.1875 48.484375 17.84375 46.4375 
Q 14.5 44.390625 14.5 40.28125 
Q 14.5 37.15625 16.890625 35.375 
Q 19.28125 33.59375 26.515625 31.984375 
L 29.59375 31.296875 
Q 39.15625 29.25 43.1875 25.515625 
Q 47.21875 21.78125 47.21875 15.09375 
Q 47.21875 7.46875 41.1875 3.015625 
Q 35.15625 -1.421875 24.609375 -1.421875 
Q 20.21875 -1.421875 15.453125 -0.5625 
Q 10.6875 0.296875 5.421875 2 
L 5.421875 11.28125 
Q 10.40625 8.6875 15.234375 7.390625 
Q 20.0625 6.109375 24.8125 6.109375 
Q 31.15625 6.109375 34.5625 8.28125 
Q 37.984375 10.453125 37.984375 14.40625 
Q 37.984375 18.0625 35.515625 20.015625 
Q 33.0625 21.96875 24.703125 23.78125 
L 21.578125 24.515625 
Q 13.234375 26.265625 9.515625 29.90625 
Q 5.8125 33.546875 5.8125 39.890625 
Q 5.8125 47.609375 11.28125 51.796875 
Q 16.75 56 26.8125 56 
Q 31.78125 56 36.171875 55.265625 
Q 40.578125 54.546875 44.28125 53.078125 
z
" id="DejaVuSans-115"/>
      </defs>
      <use xlink:href="#DejaVuSans-78"/>
      <use x="74.804688" xlink:href="#DejaVuSans-117"/>
      <use x="138.183594" xlink:href="#DejaVuSans-109"/>
      <use x="235.595703" xlink:href="#DejaVuSans-98"/>
      <use x="299.072266" xlink:href="#DejaVuSans-101"/>
      <use x="360.595703" xlink:href="#DejaVuSans-114"/>
      <use x="401.708984" xlink:href="#DejaVuSans-32"/>
      <use x="433.496094" xlink:href="#DejaVuSans-111"/>
      <use x="494.677734" xlink:href="#DejaVuSans-102"/>
      <use x="529.882812" xlink:href="#DejaVuSans-32"/>
      <use x="561.669922" xlink:href="#DejaVuSans-102"/>
      <use x="596.875" xlink:href="#DejaVuSans-101"/>
      <use x="658.398438" xlink:href="#DejaVuSans-97"/>
      <use x="719.677734" xlink:href="#DejaVuSans-116"/>
      <use x="758.886719" xlink:href="#DejaVuSans-117"/>
      <use x="822.265625" xlink:href="#DejaVuSans-114"/>
      <use x="861.128906" xlink:href="#DejaVuSans-101"/>
      <use x="922.652344" xlink:href="#DejaVuSans-115"/>
     </g>
    </g>
   </g>
   <g id="matplotlib.axis_2">
    <g id="ytick_1">
     <g id="line2d_8">
      <defs>
       <path d="M 0 0 
L -3.5 0 
" id="m00acef88dc" style="stroke:#000000;stroke-width:0.8;"/>
      </defs>
      <g>
       <use style="stroke:#000000;stroke-width:0.8;" x="57.6" xlink:href="#m00acef88dc" y="287.557065"/>
      </g>
     </g>
     <g id="text_9">
      <!-- 0.4 -->
      <g transform="translate(34.696875 291.356283)scale(0.1 -0.1)">
       <defs>
        <path d="M 10.6875 12.40625 
L 21 12.40625 
L 21 0 
L 10.6875 0 
z
" id="DejaVuSans-46"/>
       </defs>
       <use xlink:href="#DejaVuSans-48"/>
       <use x="63.623047" xlink:href="#DejaVuSans-46"/>
       <use x="95.410156" xlink:href="#DejaVuSans-52"/>
      </g>
     </g>
    </g>
    <g id="ytick_2">
     <g id="line2d_9">
      <g>
       <use style="stroke:#000000;stroke-width:0.8;" x="57.6" xlink:href="#m00acef88dc" y="236.29667"/>
      </g>
     </g>
     <g id="text_10">
      <!-- 0.5 -->
      <g transform="translate(34.696875 240.095889)scale(0.1 -0.1)">
       <use xlink:href="#DejaVuSans-48"/>
       <use x="63.623047" xlink:href="#DejaVuSans-46"/>
       <use x="95.410156" xlink:href="#DejaVuSans-53"/>
      </g>
     </g>
    </g>
    <g id="ytick_3">
     <g id="line2d_10">
      <g>
       <use style="stroke:#000000;stroke-width:0.8;" x="57.6" xlink:href="#m00acef88dc" y="185.036276"/>
      </g>
     </g>
     <g id="text_11">
      <!-- 0.6 -->
      <g transform="translate(34.696875 188.835495)scale(0.1 -0.1)">
       <use xlink:href="#DejaVuSans-48"/>
       <use x="63.623047" xlink:href="#DejaVuSans-46"/>
       <use x="95.410156" xlink:href="#DejaVuSans-54"/>
      </g>
     </g>
    </g>
    <g id="ytick_4">
     <g id="line2d_11">
      <g>
       <use style="stroke:#000000;stroke-width:0.8;" x="57.6" xlink:href="#m00acef88dc" y="133.775882"/>
      </g>
     </g>
     <g id="text_12">
      <!-- 0.7 -->
      <g transform="translate(34.696875 137.575101)scale(0.1 -0.1)">
       <defs>
        <path d="M 8.203125 72.90625 
L 55.078125 72.90625 
L 55.078125 68.703125 
L 28.609375 0 
L 18.3125 0 
L 43.21875 64.59375 
L 8.203125 64.59375 
z
" id="DejaVuSans-55"/>
       </defs>
       <use xlink:href="#DejaVuSans-48"/>
       <use x="63.623047" xlink:href="#DejaVuSans-46"/>
       <use x="95.410156" xlink:href="#DejaVuSans-55"/>
      </g>
     </g>
    </g>
    <g id="ytick_5">
     <g id="line2d_12">
      <g>
       <use style="stroke:#000000;stroke-width:0.8;" x="57.6" xlink:href="#m00acef88dc" y="82.515488"/>
      </g>
     </g>
     <g id="text_13">
      <!-- 0.8 -->
      <g transform="translate(34.696875 86.314707)scale(0.1 -0.1)">
       <defs>
        <path d="M 31.78125 34.625 
Q 24.75 34.625 20.71875 30.859375 
Q 16.703125 27.09375 16.703125 20.515625 
Q 16.703125 13.921875 20.71875 10.15625 
Q 24.75 6.390625 31.78125 6.390625 
Q 38.8125 6.390625 42.859375 10.171875 
Q 46.921875 13.96875 46.921875 20.515625 
Q 46.921875 27.09375 42.890625 30.859375 
Q 38.875 34.625 31.78125 34.625 
z
M 21.921875 38.8125 
Q 15.578125 40.375 12.03125 44.71875 
Q 8.5 49.078125 8.5 55.328125 
Q 8.5 64.0625 14.71875 69.140625 
Q 20.953125 74.21875 31.78125 74.21875 
Q 42.671875 74.21875 48.875 69.140625 
Q 55.078125 64.0625 55.078125 55.328125 
Q 55.078125 49.078125 51.53125 44.71875 
Q 48 40.375 41.703125 38.8125 
Q 48.828125 37.15625 52.796875 32.3125 
Q 56.78125 27.484375 56.78125 20.515625 
Q 56.78125 9.90625 50.3125 4.234375 
Q 43.84375 -1.421875 31.78125 -1.421875 
Q 19.734375 -1.421875 13.25 4.234375 
Q 6.78125 9.90625 6.78125 20.515625 
Q 6.78125 27.484375 10.78125 32.3125 
Q 14.796875 37.15625 21.921875 38.8125 
z
M 18.3125 54.390625 
Q 18.3125 48.734375 21.84375 45.5625 
Q 25.390625 42.390625 31.78125 42.390625 
Q 38.140625 42.390625 41.71875 45.5625 
Q 45.3125 48.734375 45.3125 54.390625 
Q 45.3125 60.0625 41.71875 63.234375 
Q 38.140625 66.40625 31.78125 66.40625 
Q 25.390625 66.40625 21.84375 63.234375 
Q 18.3125 60.0625 18.3125 54.390625 
z
" id="DejaVuSans-56"/>
       </defs>
       <use xlink:href="#DejaVuSans-48"/>
       <use x="63.623047" xlink:href="#DejaVuSans-46"/>
       <use x="95.410156" xlink:href="#DejaVuSans-56"/>
      </g>
     </g>
    </g>
    <g id="text_14">
     <!-- Accuracy -->
     <g transform="translate(28.617187 197.356125)rotate(-90)scale(0.1 -0.1)">
      <defs>
       <path d="M 34.1875 63.1875 
L 20.796875 26.90625 
L 47.609375 26.90625 
z
M 28.609375 72.90625 
L 39.796875 72.90625 
L 67.578125 0 
L 57.328125 0 
L 50.6875 18.703125 
L 17.828125 18.703125 
L 11.1875 0 
L 0.78125 0 
z
" id="DejaVuSans-65"/>
       <path d="M 48.78125 52.59375 
L 48.78125 44.1875 
Q 44.96875 46.296875 41.140625 47.34375 
Q 37.3125 48.390625 33.40625 48.390625 
Q 24.65625 48.390625 19.8125 42.84375 
Q 14.984375 37.3125 14.984375 27.296875 
Q 14.984375 17.28125 19.8125 11.734375 
Q 24.65625 6.203125 33.40625 6.203125 
Q 37.3125 6.203125 41.140625 7.25 
Q 44.96875 8.296875 48.78125 10.40625 
L 48.78125 2.09375 
Q 45.015625 0.34375 40.984375 -0.53125 
Q 36.96875 -1.421875 32.421875 -1.421875 
Q 20.0625 -1.421875 12.78125 6.34375 
Q 5.515625 14.109375 5.515625 27.296875 
Q 5.515625 40.671875 12.859375 48.328125 
Q 20.21875 56 33.015625 56 
Q 37.15625 56 41.109375 55.140625 
Q 45.0625 54.296875 48.78125 52.59375 
z
" id="DejaVuSans-99"/>
       <path d="M 32.171875 -5.078125 
Q 28.375 -14.84375 24.75 -17.8125 
Q 21.140625 -20.796875 15.09375 -20.796875 
L 7.90625 -20.796875 
L 7.90625 -13.28125 
L 13.1875 -13.28125 
Q 16.890625 -13.28125 18.9375 -11.515625 
Q 21 -9.765625 23.484375 -3.21875 
L 25.09375 0.875 
L 2.984375 54.6875 
L 12.5 54.6875 
L 29.59375 11.921875 
L 46.6875 54.6875 
L 56.203125 54.6875 
z
" id="DejaVuSans-121"/>
      </defs>
      <use xlink:href="#DejaVuSans-65"/>
      <use x="66.658203" xlink:href="#DejaVuSans-99"/>
      <use x="121.638672" xlink:href="#DejaVuSans-99"/>
      <use x="176.619141" xlink:href="#DejaVuSans-117"/>
      <use x="239.998047" xlink:href="#DejaVuSans-114"/>
      <use x="281.111328" xlink:href="#DejaVuSans-97"/>
      <use x="342.390625" xlink:href="#DejaVuSans-99"/>
      <use x="397.371094" xlink:href="#DejaVuSans-121"/>
     </g>
    </g>
   </g>
   <g id="line2d_13">
    <path clip-path="url(#p169c5fa067)" d="M 73.832727 89.838402 
L 79.335347 87.600845 
L 84.837966 86.176945 
L 90.340586 88.414502 
L 95.843205 85.566702 
L 101.345824 90.041816 
L 106.848444 90.652059 
L 112.351063 91.262302 
L 117.853683 94.923758 
L 123.356302 91.262302 
L 128.858921 95.94083 
L 134.361541 101.026186 
L 139.86416 99.805701 
L 145.36678 104.280814 
L 150.869399 106.518371 
L 156.372018 113.434456 
L 161.874638 113.63787 
L 167.377257 114.451527 
L 172.879877 125.435898 
L 178.382496 125.435898 
L 183.885116 124.622241 
L 189.387735 127.47004 
L 194.890354 125.842726 
L 200.392974 142.72611 
L 205.895593 142.72611 
L 211.398213 150.252438 
L 216.900832 147.811466 
L 222.403451 157.371937 
L 227.906071 158.185594 
L 233.40869 161.033393 
L 238.91131 168.356307 
L 244.413929 164.491436 
L 249.916549 185.036276 
L 255.419168 180.357748 
L 260.921787 195.206989 
L 266.424407 191.342119 
L 271.927026 200.49576 
L 277.429646 203.34356 
L 282.932265 203.34356 
L 288.434884 219.616701 
L 293.937504 228.566928 
L 299.440123 228.1601 
L 304.942743 235.686428 
L 310.445362 241.99227 
L 315.947982 248.501526 
L 321.450601 240.975198 
L 326.95322 251.959569 
L 332.45584 256.841511 
L 337.958459 255.621025 
L 343.461079 258.265411 
L 348.963698 266.80881 
L 354.466317 264.571253 
L 359.968937 269.656609 
L 365.471556 271.080509 
L 370.974176 272.300995 
L 376.476795 272.504409 
L 381.979414 272.911238 
L 387.482034 272.911238 
L 392.984653 272.911238 
L 398.487273 272.911238 
" style="fill:none;stroke:#1f77b4;stroke-linecap:square;stroke-width:1.5;"/>
   </g>
   <g id="line2d_14">
    <path clip-path="url(#p169c5fa067)" d="M 73.832727 126.452969 
L 79.335347 129.707597 
L 84.837966 131.945154 
L 90.340586 139.674896 
L 95.843205 139.471482 
L 101.345824 142.72611 
L 106.848444 139.87831 
L 112.351063 143.946595 
L 117.853683 141.912453 
L 123.356302 147.201224 
L 128.858921 150.86268 
L 134.361541 152.28658 
L 139.86416 154.117309 
L 145.36678 147.608052 
L 150.869399 153.303651 
L 156.372018 150.86268 
L 161.874638 153.100237 
L 167.377257 152.28658 
L 172.879877 153.303651 
L 178.382496 154.524137 
L 183.885116 153.303651 
L 189.387735 157.168522 
L 194.890354 147.201224 
L 200.392974 150.659266 
L 205.895593 161.033393 
L 211.398213 166.11875 
L 216.900832 157.371937 
L 222.403451 160.423151 
L 227.906071 160.219736 
L 233.40869 162.050465 
L 238.91131 164.288022 
L 244.413929 155.337794 
L 249.916549 164.084607 
L 255.419168 170.797278 
L 260.921787 165.101679 
L 266.424407 163.881193 
L 271.927026 163.881193 
L 277.429646 178.730434 
L 282.932265 166.728993 
L 288.434884 171.610935 
L 293.937504 174.051906 
L 299.440123 175.67922 
L 304.942743 174.865563 
L 310.445362 172.017764 
L 315.947982 182.188477 
L 321.450601 176.696292 
L 326.95322 181.37482 
L 332.45584 182.188477 
L 337.958459 183.612377 
L 343.461079 191.545533 
L 348.963698 206.19136 
L 354.466317 200.292346 
L 359.968937 214.938173 
L 365.471556 213.310859 
L 370.974176 229.787414 
L 376.476795 223.278158 
L 381.979414 234.872771 
L 387.482034 246.670798 
L 392.984653 248.908355 
L 398.487273 263.757596 
" style="fill:none;stroke:#ff7f0e;stroke-linecap:square;stroke-width:1.5;"/>
   </g>
   <g id="line2d_15">
    <path clip-path="url(#p169c5fa067)" d="M 73.832727 77.633546 
L 79.335347 78.447203 
L 84.837966 80.074517 
L 90.340586 81.091588 
L 95.843205 84.346217 
L 101.345824 87.600845 
L 106.848444 83.735974 
L 112.351063 89.838402 
L 117.853683 88.82133 
L 123.356302 97.771558 
L 128.858921 102.856914 
L 134.361541 102.450086 
L 139.86416 104.280814 
L 145.36678 99.195458 
L 150.869399 108.552514 
L 156.372018 113.027628 
L 161.874638 115.672013 
L 167.377257 113.63787 
L 172.879877 113.841285 
L 178.382496 119.130055 
L 183.885116 125.029069 
L 189.387735 129.707597 
L 194.890354 125.435898 
L 200.392974 135.606611 
L 205.895593 142.72611 
L 211.398213 147.811466 
L 216.900832 140.081724 
L 222.403451 146.794395 
L 227.906071 152.896823 
L 233.40869 153.507066 
L 238.91131 150.455852 
L 244.413929 147.201224 
L 249.916549 166.322164 
L 255.419168 167.339236 
L 260.921787 177.10312 
L 266.424407 169.373378 
L 271.927026 173.848492 
L 277.429646 187.884076 
L 282.932265 184.832862 
L 288.434884 193.78309 
L 293.937504 196.834304 
L 299.440123 198.461618 
L 304.942743 204.76746 
L 310.445362 216.362073 
L 315.947982 229.584 
L 321.450601 217.379144 
L 326.95322 225.108886 
L 332.45584 226.329372 
L 337.958459 227.956686 
L 343.461079 239.551299 
L 348.963698 236.906913 
L 354.466317 246.467384 
L 359.968937 255.621025 
L 365.471556 250.332255 
L 370.974176 261.316625 
L 376.476795 261.520039 
L 381.979414 266.401981 
L 387.482034 266.80881 
L 392.984653 271.283924 
L 398.487273 268.029295 
" style="fill:none;stroke:#2ca02c;stroke-linecap:square;stroke-width:1.5;"/>
   </g>
   <g id="line2d_16">
    <path clip-path="url(#p169c5fa067)" d="M 73.832727 65.42869 
L 79.335347 66.85259 
L 84.837966 70.107218 
L 90.340586 71.937947 
L 95.843205 77.023303 
L 101.345824 75.395989 
L 106.848444 77.023303 
L 112.351063 81.701831 
L 117.853683 80.68476 
L 123.356302 86.380359 
L 128.858921 91.465716 
L 134.361541 88.007673 
L 139.86416 97.161315 
L 145.36678 87.600845 
L 150.869399 98.178386 
L 156.372018 98.992043 
L 161.874638 110.383242 
L 167.377257 106.9252 
L 172.879877 119.943712 
L 178.382496 118.316398 
L 183.885116 118.112984 
L 189.387735 125.232483 
L 194.890354 125.232483 
L 200.392974 129.911011 
L 205.895593 140.691967 
L 211.398213 140.285139 
L 216.900832 139.87831 
L 222.403451 150.252438 
L 227.906071 160.829979 
L 233.40869 159.202665 
L 238.91131 156.55828 
L 244.413929 164.084607 
L 249.916549 166.932407 
L 255.419168 177.10312 
L 260.921787 183.002134 
L 266.424407 185.646519 
L 271.927026 179.544091 
L 277.429646 190.325047 
L 282.932265 185.036276 
L 288.434884 185.849933 
L 293.937504 190.731876 
L 299.440123 191.342119 
L 304.942743 197.241132 
L 310.445362 195.003575 
L 315.947982 199.275275 
L 321.450601 197.851375 
L 326.95322 198.461618 
L 332.45584 199.07186 
L 337.958459 199.682103 
L 343.461079 199.682103 
L 348.963698 199.682103 
L 354.466317 199.682103 
L 359.968937 199.682103 
L 365.471556 199.682103 
L 370.974176 199.682103 
L 376.476795 199.682103 
L 381.979414 199.682103 
L 387.482034 199.682103 
L 392.984653 199.682103 
L 398.487273 199.682103 
" style="fill:none;stroke:#d62728;stroke-linecap:square;stroke-width:1.5;"/>
   </g>
   <g id="patch_3">
    <path d="M 57.6 307.584 
L 57.6 41.472 
" style="fill:none;stroke:#000000;stroke-linecap:square;stroke-linejoin:miter;stroke-width:0.8;"/>
   </g>
   <g id="patch_4">
    <path d="M 414.72 307.584 
L 414.72 41.472 
" style="fill:none;stroke:#000000;stroke-linecap:square;stroke-linejoin:miter;stroke-width:0.8;"/>
   </g>
   <g id="patch_5">
    <path d="M 57.6 307.584 
L 414.72 307.584 
" style="fill:none;stroke:#000000;stroke-linecap:square;stroke-linejoin:miter;stroke-width:0.8;"/>
   </g>
   <g id="patch_6">
    <path d="M 57.6 41.472 
L 414.72 41.472 
" style="fill:none;stroke:#000000;stroke-linecap:square;stroke-linejoin:miter;stroke-width:0.8;"/>
   </g>
   <g id="text_15">
    <!-- Sonar -->
    <g transform="translate(218.73375 35.472)scale(0.12 -0.12)">
     <defs>
      <path d="M 53.515625 70.515625 
L 53.515625 60.890625 
Q 47.90625 63.578125 42.921875 64.890625 
Q 37.9375 66.21875 33.296875 66.21875 
Q 25.25 66.21875 20.875 63.09375 
Q 16.5 59.96875 16.5 54.203125 
Q 16.5 49.359375 19.40625 46.890625 
Q 22.3125 44.4375 30.421875 42.921875 
L 36.375 41.703125 
Q 47.40625 39.59375 52.65625 34.296875 
Q 57.90625 29 57.90625 20.125 
Q 57.90625 9.515625 50.796875 4.046875 
Q 43.703125 -1.421875 29.984375 -1.421875 
Q 24.8125 -1.421875 18.96875 -0.25 
Q 13.140625 0.921875 6.890625 3.21875 
L 6.890625 13.375 
Q 12.890625 10.015625 18.65625 8.296875 
Q 24.421875 6.59375 29.984375 6.59375 
Q 38.421875 6.59375 43.015625 9.90625 
Q 47.609375 13.234375 47.609375 19.390625 
Q 47.609375 24.75 44.3125 27.78125 
Q 41.015625 30.8125 33.5 32.328125 
L 27.484375 33.5 
Q 16.453125 35.6875 11.515625 40.375 
Q 6.59375 45.0625 6.59375 53.421875 
Q 6.59375 63.09375 13.40625 68.65625 
Q 20.21875 74.21875 32.171875 74.21875 
Q 37.3125 74.21875 42.625 73.28125 
Q 47.953125 72.359375 53.515625 70.515625 
z
" id="DejaVuSans-83"/>
      <path d="M 54.890625 33.015625 
L 54.890625 0 
L 45.90625 0 
L 45.90625 32.71875 
Q 45.90625 40.484375 42.875 44.328125 
Q 39.84375 48.1875 33.796875 48.1875 
Q 26.515625 48.1875 22.3125 43.546875 
Q 18.109375 38.921875 18.109375 30.90625 
L 18.109375 0 
L 9.078125 0 
L 9.078125 54.6875 
L 18.109375 54.6875 
L 18.109375 46.1875 
Q 21.34375 51.125 25.703125 53.5625 
Q 30.078125 56 35.796875 56 
Q 45.21875 56 50.046875 50.171875 
Q 54.890625 44.34375 54.890625 33.015625 
z
" id="DejaVuSans-110"/>
     </defs>
     <use xlink:href="#DejaVuSans-83"/>
     <use x="63.476562" xlink:href="#DejaVuSans-111"/>
     <use x="124.658203" xlink:href="#DejaVuSans-110"/>
     <use x="188.037109" xlink:href="#DejaVuSans-97"/>
     <use x="249.316406" xlink:href="#DejaVuSans-114"/>
    </g>
   </g>
   <g id="legend_1">
    <g id="patch_7">
     <path d="M 300.468437 108.1845 
L 407.72 108.1845 
Q 409.72 108.1845 409.72 106.1845 
L 409.72 48.472 
Q 409.72 46.472 407.72 46.472 
L 300.468437 46.472 
Q 298.468437 46.472 298.468437 48.472 
L 298.468437 106.1845 
Q 298.468437 108.1845 300.468437 108.1845 
z
" style="fill:#ffffff;opacity:0.8;stroke:#cccccc;stroke-linejoin:miter;"/>
    </g>
    <g id="line2d_17">
     <path d="M 302.468437 54.570438 
L 322.468437 54.570438 
" style="fill:none;stroke:#1f77b4;stroke-linecap:square;stroke-width:1.5;"/>
    </g>
    <g id="line2d_18"/>
    <g id="text_16">
     <!-- Random Forest -->
     <g transform="translate(330.468437 58.070438)scale(0.1 -0.1)">
      <defs>
       <path d="M 44.390625 34.1875 
Q 47.5625 33.109375 50.5625 29.59375 
Q 53.5625 26.078125 56.59375 19.921875 
L 66.609375 0 
L 56 0 
L 46.6875 18.703125 
Q 43.0625 26.03125 39.671875 28.421875 
Q 36.28125 30.8125 30.421875 30.8125 
L 19.671875 30.8125 
L 19.671875 0 
L 9.8125 0 
L 9.8125 72.90625 
L 32.078125 72.90625 
Q 44.578125 72.90625 50.734375 67.671875 
Q 56.890625 62.453125 56.890625 51.90625 
Q 56.890625 45.015625 53.6875 40.46875 
Q 50.484375 35.9375 44.390625 34.1875 
z
M 19.671875 64.796875 
L 19.671875 38.921875 
L 32.078125 38.921875 
Q 39.203125 38.921875 42.84375 42.21875 
Q 46.484375 45.515625 46.484375 51.90625 
Q 46.484375 58.296875 42.84375 61.546875 
Q 39.203125 64.796875 32.078125 64.796875 
z
" id="DejaVuSans-82"/>
       <path d="M 45.40625 46.390625 
L 45.40625 75.984375 
L 54.390625 75.984375 
L 54.390625 0 
L 45.40625 0 
L 45.40625 8.203125 
Q 42.578125 3.328125 38.25 0.953125 
Q 33.9375 -1.421875 27.875 -1.421875 
Q 17.96875 -1.421875 11.734375 6.484375 
Q 5.515625 14.40625 5.515625 27.296875 
Q 5.515625 40.1875 11.734375 48.09375 
Q 17.96875 56 27.875 56 
Q 33.9375 56 38.25 53.625 
Q 42.578125 51.265625 45.40625 46.390625 
z
M 14.796875 27.296875 
Q 14.796875 17.390625 18.875 11.75 
Q 22.953125 6.109375 30.078125 6.109375 
Q 37.203125 6.109375 41.296875 11.75 
Q 45.40625 17.390625 45.40625 27.296875 
Q 45.40625 37.203125 41.296875 42.84375 
Q 37.203125 48.484375 30.078125 48.484375 
Q 22.953125 48.484375 18.875 42.84375 
Q 14.796875 37.203125 14.796875 27.296875 
z
" id="DejaVuSans-100"/>
       <path d="M 9.8125 72.90625 
L 51.703125 72.90625 
L 51.703125 64.59375 
L 19.671875 64.59375 
L 19.671875 43.109375 
L 48.578125 43.109375 
L 48.578125 34.8125 
L 19.671875 34.8125 
L 19.671875 0 
L 9.8125 0 
z
" id="DejaVuSans-70"/>
      </defs>
      <use xlink:href="#DejaVuSans-82"/>
      <use x="67.232422" xlink:href="#DejaVuSans-97"/>
      <use x="128.511719" xlink:href="#DejaVuSans-110"/>
      <use x="191.890625" xlink:href="#DejaVuSans-100"/>
      <use x="255.367188" xlink:href="#DejaVuSans-111"/>
      <use x="316.548828" xlink:href="#DejaVuSans-109"/>
      <use x="413.960938" xlink:href="#DejaVuSans-32"/>
      <use x="445.748047" xlink:href="#DejaVuSans-70"/>
      <use x="499.642578" xlink:href="#DejaVuSans-111"/>
      <use x="560.824219" xlink:href="#DejaVuSans-114"/>
      <use x="599.6875" xlink:href="#DejaVuSans-101"/>
      <use x="661.210938" xlink:href="#DejaVuSans-115"/>
      <use x="713.310547" xlink:href="#DejaVuSans-116"/>
     </g>
    </g>
    <g id="line2d_19">
     <path d="M 302.468437 69.248563 
L 322.468437 69.248563 
" style="fill:none;stroke:#ff7f0e;stroke-linecap:square;stroke-width:1.5;"/>
    </g>
    <g id="line2d_20"/>
    <g id="text_17">
     <!-- AdaBoost -->
     <g transform="translate(330.468437 72.748563)scale(0.1 -0.1)">
      <defs>
       <path d="M 19.671875 34.8125 
L 19.671875 8.109375 
L 35.5 8.109375 
Q 43.453125 8.109375 47.28125 11.40625 
Q 51.125 14.703125 51.125 21.484375 
Q 51.125 28.328125 47.28125 31.5625 
Q 43.453125 34.8125 35.5 34.8125 
z
M 19.671875 64.796875 
L 19.671875 42.828125 
L 34.28125 42.828125 
Q 41.5 42.828125 45.03125 45.53125 
Q 48.578125 48.25 48.578125 53.8125 
Q 48.578125 59.328125 45.03125 62.0625 
Q 41.5 64.796875 34.28125 64.796875 
z
M 9.8125 72.90625 
L 35.015625 72.90625 
Q 46.296875 72.90625 52.390625 68.21875 
Q 58.5 63.53125 58.5 54.890625 
Q 58.5 48.1875 55.375 44.234375 
Q 52.25 40.28125 46.1875 39.3125 
Q 53.46875 37.75 57.5 32.78125 
Q 61.53125 27.828125 61.53125 20.40625 
Q 61.53125 10.640625 54.890625 5.3125 
Q 48.25 0 35.984375 0 
L 9.8125 0 
z
" id="DejaVuSans-66"/>
      </defs>
      <use xlink:href="#DejaVuSans-65"/>
      <use x="66.658203" xlink:href="#DejaVuSans-100"/>
      <use x="130.134766" xlink:href="#DejaVuSans-97"/>
      <use x="191.414062" xlink:href="#DejaVuSans-66"/>
      <use x="260.017578" xlink:href="#DejaVuSans-111"/>
      <use x="321.199219" xlink:href="#DejaVuSans-111"/>
      <use x="382.380859" xlink:href="#DejaVuSans-115"/>
      <use x="434.480469" xlink:href="#DejaVuSans-116"/>
     </g>
    </g>
    <g id="line2d_21">
     <path d="M 302.468437 83.926688 
L 322.468437 83.926688 
" style="fill:none;stroke:#2ca02c;stroke-linecap:square;stroke-width:1.5;"/>
    </g>
    <g id="line2d_22"/>
    <g id="text_18">
     <!-- LightGBM -->
     <g transform="translate(330.468437 87.426688)scale(0.1 -0.1)">
      <defs>
       <path d="M 9.8125 72.90625 
L 19.671875 72.90625 
L 19.671875 8.296875 
L 55.171875 8.296875 
L 55.171875 0 
L 9.8125 0 
z
" id="DejaVuSans-76"/>
       <path d="M 9.421875 54.6875 
L 18.40625 54.6875 
L 18.40625 0 
L 9.421875 0 
z
M 9.421875 75.984375 
L 18.40625 75.984375 
L 18.40625 64.59375 
L 9.421875 64.59375 
z
" id="DejaVuSans-105"/>
       <path d="M 45.40625 27.984375 
Q 45.40625 37.75 41.375 43.109375 
Q 37.359375 48.484375 30.078125 48.484375 
Q 22.859375 48.484375 18.828125 43.109375 
Q 14.796875 37.75 14.796875 27.984375 
Q 14.796875 18.265625 18.828125 12.890625 
Q 22.859375 7.515625 30.078125 7.515625 
Q 37.359375 7.515625 41.375 12.890625 
Q 45.40625 18.265625 45.40625 27.984375 
z
M 54.390625 6.78125 
Q 54.390625 -7.171875 48.1875 -13.984375 
Q 42 -20.796875 29.203125 -20.796875 
Q 24.46875 -20.796875 20.265625 -20.09375 
Q 16.0625 -19.390625 12.109375 -17.921875 
L 12.109375 -9.1875 
Q 16.0625 -11.328125 19.921875 -12.34375 
Q 23.78125 -13.375 27.78125 -13.375 
Q 36.625 -13.375 41.015625 -8.765625 
Q 45.40625 -4.15625 45.40625 5.171875 
L 45.40625 9.625 
Q 42.625 4.78125 38.28125 2.390625 
Q 33.9375 0 27.875 0 
Q 17.828125 0 11.671875 7.65625 
Q 5.515625 15.328125 5.515625 27.984375 
Q 5.515625 40.671875 11.671875 48.328125 
Q 17.828125 56 27.875 56 
Q 33.9375 56 38.28125 53.609375 
Q 42.625 51.21875 45.40625 46.390625 
L 45.40625 54.6875 
L 54.390625 54.6875 
z
" id="DejaVuSans-103"/>
       <path d="M 54.890625 33.015625 
L 54.890625 0 
L 45.90625 0 
L 45.90625 32.71875 
Q 45.90625 40.484375 42.875 44.328125 
Q 39.84375 48.1875 33.796875 48.1875 
Q 26.515625 48.1875 22.3125 43.546875 
Q 18.109375 38.921875 18.109375 30.90625 
L 18.109375 0 
L 9.078125 0 
L 9.078125 75.984375 
L 18.109375 75.984375 
L 18.109375 46.1875 
Q 21.34375 51.125 25.703125 53.5625 
Q 30.078125 56 35.796875 56 
Q 45.21875 56 50.046875 50.171875 
Q 54.890625 44.34375 54.890625 33.015625 
z
" id="DejaVuSans-104"/>
       <path d="M 59.515625 10.40625 
L 59.515625 29.984375 
L 43.40625 29.984375 
L 43.40625 38.09375 
L 69.28125 38.09375 
L 69.28125 6.78125 
Q 63.578125 2.734375 56.6875 0.65625 
Q 49.8125 -1.421875 42 -1.421875 
Q 24.90625 -1.421875 15.25 8.5625 
Q 5.609375 18.5625 5.609375 36.375 
Q 5.609375 54.25 15.25 64.234375 
Q 24.90625 74.21875 42 74.21875 
Q 49.125 74.21875 55.546875 72.453125 
Q 61.96875 70.703125 67.390625 67.28125 
L 67.390625 56.78125 
Q 61.921875 61.421875 55.765625 63.765625 
Q 49.609375 66.109375 42.828125 66.109375 
Q 29.4375 66.109375 22.71875 58.640625 
Q 16.015625 51.171875 16.015625 36.375 
Q 16.015625 21.625 22.71875 14.15625 
Q 29.4375 6.6875 42.828125 6.6875 
Q 48.046875 6.6875 52.140625 7.59375 
Q 56.25 8.5 59.515625 10.40625 
z
" id="DejaVuSans-71"/>
       <path d="M 9.8125 72.90625 
L 24.515625 72.90625 
L 43.109375 23.296875 
L 61.8125 72.90625 
L 76.515625 72.90625 
L 76.515625 0 
L 66.890625 0 
L 66.890625 64.015625 
L 48.09375 14.015625 
L 38.1875 14.015625 
L 19.390625 64.015625 
L 19.390625 0 
L 9.8125 0 
z
" id="DejaVuSans-77"/>
      </defs>
      <use xlink:href="#DejaVuSans-76"/>
      <use x="55.712891" xlink:href="#DejaVuSans-105"/>
      <use x="83.496094" xlink:href="#DejaVuSans-103"/>
      <use x="146.972656" xlink:href="#DejaVuSans-104"/>
      <use x="210.351562" xlink:href="#DejaVuSans-116"/>
      <use x="249.560547" xlink:href="#DejaVuSans-71"/>
      <use x="327.050781" xlink:href="#DejaVuSans-66"/>
      <use x="395.654297" xlink:href="#DejaVuSans-77"/>
     </g>
    </g>
    <g id="line2d_23">
     <path d="M 302.468437 98.604813 
L 322.468437 98.604813 
" style="fill:none;stroke:#d62728;stroke-linecap:square;stroke-width:1.5;"/>
    </g>
    <g id="line2d_24"/>
    <g id="text_19">
     <!-- XGBoost -->
     <g transform="translate(330.468437 102.104813)scale(0.1 -0.1)">
      <defs>
       <path d="M 6.296875 72.90625 
L 16.890625 72.90625 
L 35.015625 45.796875 
L 53.21875 72.90625 
L 63.8125 72.90625 
L 40.375 37.890625 
L 65.375 0 
L 54.78125 0 
L 34.28125 31 
L 13.625 0 
L 2.984375 0 
L 29 38.921875 
z
" id="DejaVuSans-88"/>
      </defs>
      <use xlink:href="#DejaVuSans-88"/>
      <use x="68.505859" xlink:href="#DejaVuSans-71"/>
      <use x="145.996094" xlink:href="#DejaVuSans-66"/>
      <use x="214.599609" xlink:href="#DejaVuSans-111"/>
      <use x="275.78125" xlink:href="#DejaVuSans-111"/>
      <use x="336.962891" xlink:href="#DejaVuSans-115"/>
      <use x="389.0625" xlink:href="#DejaVuSans-116"/>
     </g>
    </g>
   </g>
  </g>
 </g>
 <defs>
  <clipPath id="p169c5fa067">
   <rect height="266.112" width="357.12" x="57.6" y="41.472"/>
  </clipPath>
 </defs>
</svg>
