<?xml version="1.0" encoding="utf-8" standalone="no"?>
<!DOCTYPE svg PUBLIC "-//W3C//DTD SVG 1.1//EN"
  "http://www.w3.org/Graphics/SVG/1.1/DTD/svg11.dtd">
<!-- Created with matplotlib (https://matplotlib.org/) -->
<svg height="345.6pt" version="1.1" viewBox="0 0 460.8 345.6" width="460.8pt" xmlns="http://www.w3.org/2000/svg" xmlns:xlink="http://www.w3.org/1999/xlink">
 <metadata>
  <rdf:RDF xmlns:cc="http://creativecommons.org/ns#" xmlns:dc="http://purl.org/dc/elements/1.1/" xmlns:rdf="http://www.w3.org/1999/02/22-rdf-syntax-ns#">
   <cc:Work>
    <dc:type rdf:resource="http://purl.org/dc/dcmitype/StillImage"/>
    <dc:date>2023-09-19T16:53:07.790661</dc:date>
    <dc:format>image/svg+xml</dc:format>
    <dc:creator>
     <cc:Agent>
      <dc:title>Matplotlib v3.3.4, https://matplotlib.org/</dc:title>
     </cc:Agent>
    </dc:creator>
   </cc:Work>
  </rdf:RDF>
 </metadata>
 <defs>
  <style type="text/css">*{stroke-linecap:butt;stroke-linejoin:round;}</style>
 </defs>
 <g id="figure_1">
  <g id="patch_1">
   <path d="M 0 345.6 
L 460.8 345.6 
L 460.8 0 
L 0 0 
z
" style="fill:#ffffff;"/>
  </g>
  <g id="axes_1">
   <g id="patch_2">
    <path d="M 57.6 307.584 
L 414.72 307.584 
L 414.72 41.472 
L 57.6 41.472 
z
" style="fill:#ffffff;"/>
   </g>
   <g id="PolyCollection_1">
    <path clip-path="url(#pa6928de43a)" d="M 73.832727 212.292196 
L 73.832727 212.292196 
L 77.112066 234.294392 
L 80.391405 239.228547 
L 83.670744 242.005043 
L 86.950083 256.194138 
L 90.229421 249.082336 
L 93.50876 254.985752 
L 96.788099 257.448656 
L 100.067438 265.320459 
L 103.346777 274.209525 
L 106.626116 273.29294 
L 109.905455 269.136522 
L 113.184793 275.638453 
L 116.464132 271.664976 
L 119.743471 278.347357 
L 123.02281 272.810904 
L 126.302149 274.865789 
L 129.581488 280.82237 
L 132.860826 292.979243 
L 136.140165 295.061049 
L 139.419504 291.475809 
L 142.698843 276.934574 
L 145.978182 289.873406 
L 149.257521 270.539256 
L 152.53686 281.417559 
L 155.816198 274.696499 
L 159.095537 273.411475 
L 162.374876 276.675261 
L 165.654215 287.33888 
L 168.933554 279.28453 
L 172.212893 274.03532 
L 175.492231 295.488 
L 178.77157 269.864537 
L 182.050909 284.089712 
L 185.330248 292.775885 
L 188.609587 288.519001 
L 191.888926 278.224622 
L 195.168264 281.40024 
L 198.447603 284.675104 
L 201.726942 272.168008 
L 205.006281 286.408479 
L 208.28562 283.765649 
L 211.564959 276.310738 
L 214.844298 283.075177 
L 218.123636 278.820517 
L 221.402975 272.810904 
L 224.682314 285.330209 
L 227.961653 280.267285 
L 231.240992 270.555764 
L 234.520331 285.141014 
L 237.799669 282.895476 
L 241.079008 284.986659 
L 244.358347 282.496198 
L 247.637686 266.067635 
L 250.917025 285.813722 
L 254.196364 287.237478 
L 257.475702 268.679924 
L 260.755041 274.715908 
L 264.03438 261.443093 
L 267.313719 261.368333 
L 270.593058 277.492109 
L 273.872397 268.252208 
L 277.151736 276.541638 
L 280.431074 278.414866 
L 283.710413 284.424594 
L 286.989752 269.937854 
L 290.269091 264.808745 
L 293.54843 272.829085 
L 296.827769 259.853939 
L 300.107107 263.931415 
L 303.386446 255.644564 
L 306.665785 264.372494 
L 309.945124 267.561842 
L 313.224463 272.678014 
L 316.503802 263.258594 
L 319.78314 249.215525 
L 323.062479 265.877411 
L 326.341818 261.710963 
L 329.621157 262.591522 
L 332.900496 255.96474 
L 336.179835 254.529905 
L 339.459174 250.381271 
L 342.738512 255.782771 
L 346.017851 254.09869 
L 349.29719 242.968743 
L 352.576529 246.745061 
L 355.855868 244.69909 
L 359.135207 238.025526 
L 362.414545 244.813378 
L 365.693884 242.55155 
L 368.973223 233.715587 
L 372.252562 232.598188 
L 375.531901 242.697398 
L 378.81124 228.248002 
L 382.090579 226.899411 
L 385.369917 223.776484 
L 388.649256 225.162128 
L 391.928595 220.412814 
L 395.207934 219.182769 
L 398.487273 212.292196 
L 398.487273 212.292196 
L 398.487273 212.292196 
L 395.207934 203.104766 
L 391.928595 204.171578 
L 388.649256 197.125407 
L 385.369917 200.807908 
L 382.090579 196.536552 
L 378.81124 190.594246 
L 375.531901 184.183851 
L 372.252562 189.689346 
L 368.973223 175.93923 
L 365.693884 187.774986 
L 362.414545 186.661587 
L 359.135207 185.410438 
L 355.855868 178.736874 
L 352.576529 166.355043 
L 349.29719 173.576648 
L 346.017851 168.188845 
L 342.738512 172.246908 
L 339.459174 174.203121 
L 336.179835 176.94506 
L 332.900496 153.690077 
L 329.621157 163.141299 
L 326.341818 170.912431 
L 323.062479 166.745983 
L 319.78314 173.07201 
L 316.503802 165.919513 
L 313.224463 177.171812 
L 309.945124 171.952125 
L 306.665785 163.657185 
L 303.386446 155.158683 
L 300.107107 165.246692 
L 296.827769 162.433595 
L 293.54843 155.200594 
L 290.269091 165.517792 
L 286.989752 163.833969 
L 283.710413 170.018948 
L 280.431074 177.177104 
L 277.151736 160.675471 
L 273.872397 163.222757 
L 270.593058 168.912431 
L 267.313719 154.028629 
L 264.03438 161.992871 
L 260.755041 169.391774 
L 257.475702 165.091899 
L 254.196364 167.206063 
L 250.917025 166.332962 
L 247.637686 167.704187 
L 244.358347 154.720911 
L 241.079008 175.199026 
L 237.799669 164.657493 
L 234.520331 177.34153 
L 231.240992 163.216059 
L 227.961653 164.988826 
L 224.682314 182.894478 
L 221.402975 163.257777 
L 218.123636 156.099734 
L 214.844298 165.62622 
L 211.564959 159.757943 
L 208.28562 156.896747 
L 205.006281 170.33192 
L 201.726942 167.345958 
L 198.447603 160.581007 
L 195.168264 163.855871 
L 191.888926 158.992488 
L 188.609587 157.885539 
L 185.330248 180.042518 
L 182.050909 172.650687 
L 178.77157 160.461999 
L 175.492231 169.291401 
L 172.212893 148.252215 
L 168.933554 167.120009 
L 165.654215 172.846805 
L 162.374876 155.948133 
L 159.095537 166.102492 
L 155.816198 159.075323 
L 152.53686 158.096408 
L 149.257521 166.677853 
L 145.978182 168.015422 
L 142.698843 156.837249 
L 139.419504 166.413019 
L 136.140165 166.273065 
L 132.860826 168.354872 
L 129.581488 149.504167 
L 126.302149 170.390322 
L 123.02281 163.257777 
L 119.743471 165.760325 
L 116.464132 151.770987 
L 113.184793 170.766087 
L 109.905455 155.44787 
L 106.626116 150.143024 
L 103.346777 166.452871 
L 100.067438 173.045079 
L 96.788099 160.245163 
L 93.50876 173.043927 
L 90.229421 167.463055 
L 86.950083 175.280828 
L 83.670744 174.540348 
L 80.391405 181.910558 
L 77.112066 183.399427 
L 73.832727 212.292196 
z
" style="fill:#1f77b4;fill-opacity:0.2;"/>
   </g>
   <g id="PolyCollection_2">
    <path clip-path="url(#pa6928de43a)" d="M 73.832727 97.449314 
L 73.832727 97.449314 
L 77.112066 119.610612 
L 80.391405 141.503275 
L 83.670744 142.593492 
L 86.950083 144.512803 
L 90.229421 146.090895 
L 93.50876 149.677631 
L 96.788099 158.408537 
L 100.067438 157.130547 
L 103.346777 161.079835 
L 106.626116 156.484489 
L 109.905455 165.29911 
L 113.184793 166.588911 
L 116.464132 164.101014 
L 119.743471 167.755986 
L 123.02281 167.970408 
L 126.302149 175.130401 
L 129.581488 182.583895 
L 132.860826 180.259587 
L 136.140165 196.570929 
L 139.419504 194.541601 
L 142.698843 186.001731 
L 145.978182 197.810206 
L 149.257521 184.366946 
L 152.53686 200.431653 
L 155.816198 204.83638 
L 159.095537 186.028489 
L 162.374876 196.699709 
L 165.654215 202.068564 
L 168.933554 207.893491 
L 172.212893 209.257252 
L 175.492231 197.021946 
L 178.77157 208.655191 
L 182.050909 198.492117 
L 185.330248 208.496543 
L 188.609587 210.199102 
L 191.888926 221.934097 
L 195.168264 204.557768 
L 198.447603 221.036278 
L 201.726942 205.202295 
L 205.006281 213.701035 
L 208.28562 200.154758 
L 211.564959 216.180077 
L 214.844298 226.7129 
L 218.123636 208.381808 
L 221.402975 228.634309 
L 224.682314 228.162622 
L 227.961653 216.701868 
L 231.240992 220.155143 
L 234.520331 232.511806 
L 237.799669 226.029155 
L 241.079008 221.123655 
L 244.358347 238.442771 
L 247.637686 226.766146 
L 250.917025 236.433324 
L 254.196364 231.944683 
L 257.475702 225.076346 
L 260.755041 233.782098 
L 264.03438 228.199828 
L 267.313719 225.070743 
L 270.593058 247.82669 
L 273.872397 218.29481 
L 277.151736 234.182823 
L 280.431074 244.250401 
L 283.710413 222.594919 
L 286.989752 250.875408 
L 290.269091 244.526018 
L 293.54843 232.396646 
L 296.827769 234.253402 
L 300.107107 229.968484 
L 303.386446 228.827913 
L 306.665785 223.431125 
L 309.945124 250.882314 
L 313.224463 242.0939 
L 316.503802 227.917898 
L 319.78314 228.694823 
L 323.062479 226.98604 
L 326.341818 234.811774 
L 329.621157 239.875442 
L 332.900496 230.7047 
L 336.179835 231.558857 
L 339.459174 230.178269 
L 342.738512 235.069125 
L 346.017851 218.149091 
L 349.29719 217.670386 
L 352.576529 219.326163 
L 355.855868 226.381259 
L 359.135207 214.863546 
L 362.414545 210.897231 
L 365.693884 219.399565 
L 368.973223 204.258276 
L 372.252562 192.978882 
L 375.531901 189.940041 
L 378.81124 175.548049 
L 382.090579 178.473457 
L 385.369917 171.654527 
L 388.649256 160.252602 
L 391.928595 153.074088 
L 395.207934 134.629337 
L 398.487273 143.27924 
L 398.487273 75.736393 
L 398.487273 75.736393 
L 395.207934 77.495724 
L 391.928595 77.425834 
L 388.649256 69.098891 
L 385.369917 73.774969 
L 382.090579 73.846612 
L 378.81124 57.248731 
L 375.531901 72.715888 
L 372.252562 76.56762 
L 368.973223 74.475657 
L 365.693884 82.302944 
L 362.414545 74.727275 
L 359.135207 77.651532 
L 355.855868 71.875963 
L 352.576529 90.415348 
L 349.29719 62.211975 
L 346.017851 74.365987 
L 342.738512 83.859816 
L 339.459174 79.563242 
L 336.179835 82.776369 
L 332.900496 90.521098 
L 329.621157 82.498786 
L 326.341818 89.859311 
L 323.062479 87.349185 
L 319.78314 90.234118 
L 316.503802 89.862614 
L 313.224463 104.397333 
L 309.945124 96.757348 
L 306.665785 80.568242 
L 303.386446 101.585317 
L 300.107107 110.780604 
L 296.827769 93.86297 
L 293.54843 89.977581 
L 290.269091 108.855788 
L 286.989752 99.061111 
L 283.710413 103.224595 
L 280.431074 101.092403 
L 277.151736 103.120979 
L 273.872397 91.446701 
L 270.593058 99.812971 
L 267.313719 89.264483 
L 264.03438 104.510259 
L 260.755041 94.334274 
L 257.475702 81.219878 
L 254.196364 104.210691 
L 250.917025 99.72205 
L 247.637686 107.092369 
L 244.358347 103.454746 
L 241.079008 95.508429 
L 237.799669 106.680932 
L 234.520331 116.276285 
L 231.240992 107.961229 
L 227.961653 102.227073 
L 224.682314 117.180182 
L 221.402975 96.036776 
L 218.123636 102.508131 
L 214.844298 110.590902 
L 211.564959 93.561433 
L 208.28562 95.805606 
L 205.006281 99.485762 
L 201.726942 89.60964 
L 198.447603 102.486379 
L 195.168264 95.996312 
L 191.888926 98.143272 
L 188.609587 106.432981 
L 185.330248 97.799681 
L 182.050909 94.022961 
L 178.77157 91.898889 
L 175.492231 90.899417 
L 172.212893 102.781116 
L 168.933554 96.105876 
L 165.654215 96.188658 
L 162.374876 103.854371 
L 159.095537 89.260157 
L 155.816198 94.569271 
L 152.53686 88.638139 
L 149.257521 92.070129 
L 145.978182 101.595445 
L 142.698843 95.029059 
L 139.419504 95.67662 
L 136.140165 98.241007 
L 132.860826 89.286915 
L 129.581488 95.001608 
L 126.302149 87.525528 
L 123.02281 91.240235 
L 119.743471 89.157799 
L 116.464132 87.070627 
L 113.184793 84.58273 
L 109.905455 93.911533 
L 106.626116 80.906006 
L 103.346777 84.349662 
L 100.067438 86.002092 
L 96.788099 87.02096 
L 93.50876 84.267578 
L 90.229421 80.963741 
L 86.950083 84.838691 
L 83.670744 81.015857 
L 80.391405 82.106074 
L 77.112066 84.475447 
L 73.832727 97.449314 
z
" style="fill:#ff7f0e;fill-opacity:0.2;"/>
   </g>
   <g id="PolyCollection_3">
    <path clip-path="url(#pa6928de43a)" d="M 73.832727 154.870755 
L 73.832727 154.870755 
L 77.112066 165.855086 
L 80.391405 185.188161 
L 83.670744 174.450287 
L 86.950083 178.120407 
L 90.229421 172.96246 
L 93.50876 168.126242 
L 96.788099 182.225831 
L 100.067438 176.477981 
L 103.346777 184.522689 
L 106.626116 177.372643 
L 109.905455 184.876898 
L 113.184793 180.229203 
L 116.464132 189.749109 
L 119.743471 190.962731 
L 123.02281 198.099138 
L 126.302149 193.532994 
L 129.581488 207.300436 
L 132.860826 190.565437 
L 136.140165 196.137574 
L 139.419504 208.874778 
L 142.698843 187.995456 
L 145.978182 206.06003 
L 149.257521 208.184981 
L 152.53686 220.859349 
L 155.816198 212.520327 
L 159.095537 205.026918 
L 162.374876 209.774077 
L 165.654215 214.480615 
L 168.933554 217.495708 
L 172.212893 216.24197 
L 175.492231 209.636052 
L 178.77157 218.004111 
L 182.050909 224.167452 
L 185.330248 210.774667 
L 188.609587 222.9905 
L 191.888926 220.562644 
L 195.168264 219.733488 
L 198.447603 228.827913 
L 201.726942 228.026738 
L 205.006281 222.896821 
L 208.28562 235.282437 
L 211.564959 217.457516 
L 214.844298 223.438728 
L 218.123636 227.048387 
L 221.402975 229.466407 
L 224.682314 242.964801 
L 227.961653 231.690558 
L 231.240992 230.993734 
L 234.520331 240.923241 
L 237.799669 226.664028 
L 241.079008 234.416242 
L 244.358347 220.015875 
L 247.637686 243.064503 
L 250.917025 223.776484 
L 254.196364 234.631747 
L 257.475702 232.090344 
L 260.755041 242.099126 
L 264.03438 245.368409 
L 267.313719 239.554329 
L 270.593058 246.517697 
L 273.872397 223.795005 
L 277.151736 241.624141 
L 280.431074 245.648817 
L 283.710413 235.09714 
L 286.989752 236.925974 
L 290.269091 241.662557 
L 293.54843 243.541842 
L 296.827769 223.145282 
L 300.107107 230.178269 
L 303.386446 228.717413 
L 306.665785 215.53968 
L 309.945124 229.522946 
L 313.224463 231.801704 
L 316.503802 218.149091 
L 319.78314 217.311863 
L 323.062479 230.131798 
L 326.341818 219.548871 
L 329.621157 225.442851 
L 332.900496 227.778405 
L 336.179835 232.72401 
L 339.459174 220.556618 
L 342.738512 223.310357 
L 346.017851 219.097018 
L 349.29719 236.107486 
L 352.576529 221.724207 
L 355.855868 223.864453 
L 359.135207 221.267307 
L 362.414545 211.187256 
L 365.693884 232.141825 
L 368.973223 211.478329 
L 372.252562 182.056072 
L 375.531901 190.926935 
L 378.81124 194.344218 
L 382.090579 176.931922 
L 385.369917 164.906729 
L 388.649256 157.959949 
L 391.928595 182.69065 
L 395.207934 140.788468 
L 398.487273 172.383581 
L 398.487273 56.967913 
L 398.487273 56.967913 
L 395.207934 64.44602 
L 391.928595 56.996703 
L 388.649256 56.461969 
L 385.369917 55.257334 
L 382.090579 53.568 
L 378.81124 57.975852 
L 375.531901 55.65099 
L 372.252562 56.482851 
L 368.973223 67.255604 
L 365.693884 66.115397 
L 362.414545 59.507675 
L 359.135207 72.3962 
L 355.855868 66.353767 
L 352.576529 57.009725 
L 349.29719 72.485596 
L 346.017851 65.379059 
L 342.738512 55.423575 
L 339.459174 53.583599 
L 336.179835 59.791068 
L 332.900496 58.994529 
L 329.621157 55.587939 
L 326.341818 66.075635 
L 323.062479 69.273853 
L 319.78314 72.906358 
L 316.503802 74.365987 
L 313.224463 88.275666 
L 309.945124 76.773278 
L 306.665785 72.381683 
L 303.386446 76.430382 
L 300.107107 79.563242 
L 296.827769 78.557227 
L 293.54843 88.019816 
L 290.269091 91.04753 
L 286.989752 70.518678 
L 283.710413 78.089657 
L 280.431074 81.319126 
L 277.151736 108.312379 
L 273.872397 81.35279 
L 270.593058 98.825107 
L 267.313719 81.67147 
L 264.03438 101.122824 
L 260.755041 90.610961 
L 257.475702 63.870021 
L 254.196364 84.297194 
L 250.917025 85.965026 
L 247.637686 91.942441 
L 244.358347 88.577206 
L 241.079008 82.215841 
L 237.799669 86.522769 
L 234.520331 83.747844 
L 231.240992 91.380494 
L 227.961653 73.457237 
L 224.682314 89.745286 
L 221.402975 90.610962 
L 218.123636 82.693123 
L 214.844298 85.154354 
L 211.564959 91.135566 
L 208.28562 113.505653 
L 205.006281 92.586834 
L 201.726942 92.050632 
L 198.447603 101.585317 
L 195.168264 93.453308 
L 191.888926 100.663155 
L 188.609587 97.08687 
L 185.330248 77.146696 
L 182.050909 107.394206 
L 178.77157 87.143684 
L 175.492231 94.363314 
L 172.212893 98.093256 
L 168.933554 78.464656 
L 165.654215 92.964038 
L 162.374876 90.780003 
L 159.095537 87.48816 
L 155.816198 93.775897 
L 152.53686 99.218021 
L 149.257521 99.259671 
L 145.978182 100.236194 
L 142.698843 78.105759 
L 139.419504 90.530874 
L 136.140165 92.932218 
L 132.860826 91.613782 
L 129.581488 96.69893 
L 126.302149 97.833655 
L 123.02281 102.454942 
L 119.743471 92.364917 
L 116.464132 90.133252 
L 113.184793 95.059443 
L 109.905455 95.005463 
L 106.626116 94.470717 
L 103.346777 98.804959 
L 100.067438 93.068521 
L 96.788099 96.508101 
L 93.50876 93.381258 
L 90.229421 110.365188 
L 86.950083 109.800956 
L 83.670744 115.767934 
L 80.391405 114.21749 
L 77.112066 134.698994 
L 73.832727 154.870755 
z
" style="fill:#2ca02c;fill-opacity:0.2;"/>
   </g>
   <g id="PolyCollection_4">
    <path clip-path="url(#pa6928de43a)" d="M 73.832727 154.870755 
L 73.832727 154.870755 
L 77.112066 164.514396 
L 80.391405 180.630874 
L 83.670744 182.850761 
L 86.950083 190.347935 
L 90.229421 189.568777 
L 93.50876 195.489275 
L 96.788099 195.539344 
L 100.067438 199.193351 
L 103.346777 203.390883 
L 106.626116 210.093655 
L 109.905455 211.498538 
L 113.184793 210.941535 
L 116.464132 211.357433 
L 119.743471 221.115289 
L 123.02281 230.582951 
L 126.302149 218.821412 
L 129.581488 229.92671 
L 132.860826 225.176831 
L 136.140165 224.723105 
L 139.419504 234.43192 
L 142.698843 228.821196 
L 145.978182 230.241881 
L 149.257521 227.851164 
L 152.53686 234.967733 
L 155.816198 239.592706 
L 159.095537 228.651275 
L 162.374876 237.198156 
L 165.654215 238.065836 
L 168.933554 233.708021 
L 172.212893 243.66502 
L 175.492231 239.206249 
L 178.77157 235.904381 
L 182.050909 245.577486 
L 185.330248 236.539902 
L 188.609587 242.796089 
L 191.888926 238.472628 
L 195.168264 237.9787 
L 198.447603 236.755962 
L 201.726942 240.292972 
L 205.006281 239.354443 
L 208.28562 243.605932 
L 211.564959 239.854488 
L 214.844298 229.92468 
L 218.123636 241.274848 
L 221.402975 236.246252 
L 224.682314 242.625774 
L 227.961653 237.733792 
L 231.240992 229.753655 
L 234.520331 235.260772 
L 237.799669 235.572063 
L 241.079008 243.261465 
L 244.358347 231.902289 
L 247.637686 235.260772 
L 250.917025 235.328211 
L 254.196364 236.809406 
L 257.475702 227.709637 
L 260.755041 234.34737 
L 264.03438 228.007741 
L 267.313719 230.054009 
L 270.593058 229.265668 
L 273.872397 233.777332 
L 277.151736 227.709637 
L 280.431074 224.54496 
L 283.710413 229.109144 
L 286.989752 220.412814 
L 290.269091 226.406615 
L 293.54843 228.533432 
L 296.827769 221.647077 
L 300.107107 222.57049 
L 303.386446 221.647077 
L 306.665785 223.776484 
L 309.945124 217.431343 
L 313.224463 226.738581 
L 316.503802 227.458985 
L 319.78314 223.810203 
L 323.062479 221.479627 
L 326.341818 217.431343 
L 329.621157 217.431343 
L 332.900496 212.292196 
L 336.179835 218.579772 
L 339.459174 212.292196 
L 342.738512 212.292196 
L 346.017851 212.292196 
L 349.29719 212.292196 
L 352.576529 212.292196 
L 355.855868 212.292196 
L 359.135207 212.292196 
L 362.414545 212.292196 
L 365.693884 212.292196 
L 368.973223 218.579772 
L 372.252562 212.292196 
L 375.531901 212.292196 
L 378.81124 212.292196 
L 382.090579 212.292196 
L 385.369917 212.292196 
L 388.649256 212.292196 
L 391.928595 212.292196 
L 395.207934 212.292196 
L 398.487273 212.292196 
L 398.487273 212.292196 
L 398.487273 212.292196 
L 395.207934 212.292196 
L 391.928595 212.292196 
L 388.649256 212.292196 
L 385.369917 212.292196 
L 382.090579 212.292196 
L 378.81124 212.292196 
L 375.531901 212.292196 
L 372.252562 212.292196 
L 368.973223 207.153049 
L 365.693884 212.292196 
L 362.414545 212.292196 
L 359.135207 212.292196 
L 355.855868 212.292196 
L 352.576529 212.292196 
L 349.29719 212.292196 
L 346.017851 212.292196 
L 342.738512 212.292196 
L 339.459174 212.292196 
L 336.179835 207.153049 
L 332.900496 212.292196 
L 329.621157 206.00462 
L 326.341818 206.00462 
L 323.062479 205.401623 
L 319.78314 204.219475 
L 316.503802 199.422265 
L 313.224463 201.291098 
L 309.945124 206.00462 
L 306.665785 200.807908 
L 303.386446 201.788886 
L 300.107107 199.717045 
L 296.827769 201.788886 
L 293.54843 196.05096 
L 290.269091 192.435633 
L 286.989752 204.171578 
L 283.710413 198.920535 
L 280.431074 198.891003 
L 277.151736 193.429469 
L 273.872397 190.80706 
L 270.593058 193.021866 
L 267.313719 187.63981 
L 264.03438 191.982936 
L 260.755041 194.830737 
L 257.475702 193.429469 
L 254.196364 182.032842 
L 250.917025 196.146755 
L 247.637686 189.32362 
L 244.358347 193.830532 
L 241.079008 191.658787 
L 237.799669 184.418614 
L 234.520331 189.32362 
L 231.240992 190.237022 
L 227.961653 177.66317 
L 224.682314 186.552333 
L 221.402975 175.705424 
L 218.123636 170.676827 
L 214.844298 188.917569 
L 211.564959 175.542474 
L 208.28562 178.681603 
L 205.006281 172.597233 
L 201.726942 179.697705 
L 198.447603 171.750427 
L 195.168264 167.082402 
L 191.888926 153.955757 
L 188.609587 172.600873 
L 185.330248 170.818058 
L 182.050909 176.710049 
L 178.77157 164.563006 
L 175.492231 163.557996 
L 172.212893 160.247653 
L 168.933554 165.610937 
L 165.654215 153.21412 
L 162.374876 158.675516 
L 159.095537 160.331824 
L 155.816198 151.68725 
L 152.53686 165.499654 
L 149.257521 138.163358 
L 145.978182 143.811644 
L 142.698843 140.638613 
L 139.419504 155.699607 
L 136.140165 136.697703 
L 132.860826 138.540834 
L 129.581488 148.72053 
L 126.302149 133.411965 
L 123.02281 136.580001 
L 119.743471 121.930657 
L 116.464132 133.985371 
L 113.184793 126.362267 
L 109.905455 120.06312 
L 106.626116 129.507005 
L 103.346777 120.131774 
L 100.067438 128.92302 
L 96.788099 126.834884 
L 93.50876 123.439666 
L 90.229421 124.766449 
L 86.950083 132.026292 
L 83.670744 130.336036 
L 80.391405 126.813779 
L 77.112066 139.48497 
L 73.832727 154.870755 
z
" style="fill:#d62728;fill-opacity:0.2;"/>
   </g>
   <g id="matplotlib.axis_1">
    <g id="xtick_1">
     <g id="line2d_1">
      <defs>
       <path d="M 0 0 
L 0 3.5 
" id="ma15102fbcc" style="stroke:#000000;stroke-width:0.8;"/>
      </defs>
      <g>
       <use style="stroke:#000000;stroke-width:0.8;" x="401.766612" xlink:href="#ma15102fbcc" y="307.584"/>
      </g>
     </g>
     <g id="text_1">
      <!-- 0 -->
      <g transform="translate(398.585362 322.182437)scale(0.1 -0.1)">
       <defs>
        <path d="M 31.78125 66.40625 
Q 24.171875 66.40625 20.328125 58.90625 
Q 16.5 51.421875 16.5 36.375 
Q 16.5 21.390625 20.328125 13.890625 
Q 24.171875 6.390625 31.78125 6.390625 
Q 39.453125 6.390625 43.28125 13.890625 
Q 47.125 21.390625 47.125 36.375 
Q 47.125 51.421875 43.28125 58.90625 
Q 39.453125 66.40625 31.78125 66.40625 
z
M 31.78125 74.21875 
Q 44.046875 74.21875 50.515625 64.515625 
Q 56.984375 54.828125 56.984375 36.375 
Q 56.984375 17.96875 50.515625 8.265625 
Q 44.046875 -1.421875 31.78125 -1.421875 
Q 19.53125 -1.421875 13.0625 8.265625 
Q 6.59375 17.96875 6.59375 36.375 
Q 6.59375 54.828125 13.0625 64.515625 
Q 19.53125 74.21875 31.78125 74.21875 
z
" id="DejaVuSans-48"/>
       </defs>
       <use xlink:href="#DejaVuSans-48"/>
      </g>
     </g>
    </g>
    <g id="xtick_2">
     <g id="line2d_2">
      <g>
       <use style="stroke:#000000;stroke-width:0.8;" x="336.179835" xlink:href="#ma15102fbcc" y="307.584"/>
      </g>
     </g>
     <g id="text_2">
      <!-- 20 -->
      <g transform="translate(329.817335 322.182437)scale(0.1 -0.1)">
       <defs>
        <path d="M 19.1875 8.296875 
L 53.609375 8.296875 
L 53.609375 0 
L 7.328125 0 
L 7.328125 8.296875 
Q 12.9375 14.109375 22.625 23.890625 
Q 32.328125 33.6875 34.8125 36.53125 
Q 39.546875 41.84375 41.421875 45.53125 
Q 43.3125 49.21875 43.3125 52.78125 
Q 43.3125 58.59375 39.234375 62.25 
Q 35.15625 65.921875 28.609375 65.921875 
Q 23.96875 65.921875 18.8125 64.3125 
Q 13.671875 62.703125 7.8125 59.421875 
L 7.8125 69.390625 
Q 13.765625 71.78125 18.9375 73 
Q 24.125 74.21875 28.421875 74.21875 
Q 39.75 74.21875 46.484375 68.546875 
Q 53.21875 62.890625 53.21875 53.421875 
Q 53.21875 48.921875 51.53125 44.890625 
Q 49.859375 40.875 45.40625 35.40625 
Q 44.1875 33.984375 37.640625 27.21875 
Q 31.109375 20.453125 19.1875 8.296875 
z
" id="DejaVuSans-50"/>
       </defs>
       <use xlink:href="#DejaVuSans-50"/>
       <use x="63.623047" xlink:href="#DejaVuSans-48"/>
      </g>
     </g>
    </g>
    <g id="xtick_3">
     <g id="line2d_3">
      <g>
       <use style="stroke:#000000;stroke-width:0.8;" x="270.593058" xlink:href="#ma15102fbcc" y="307.584"/>
      </g>
     </g>
     <g id="text_3">
      <!-- 40 -->
      <g transform="translate(264.230558 322.182437)scale(0.1 -0.1)">
       <defs>
        <path d="M 37.796875 64.3125 
L 12.890625 25.390625 
L 37.796875 25.390625 
z
M 35.203125 72.90625 
L 47.609375 72.90625 
L 47.609375 25.390625 
L 58.015625 25.390625 
L 58.015625 17.1875 
L 47.609375 17.1875 
L 47.609375 0 
L 37.796875 0 
L 37.796875 17.1875 
L 4.890625 17.1875 
L 4.890625 26.703125 
z
" id="DejaVuSans-52"/>
       </defs>
       <use xlink:href="#DejaVuSans-52"/>
       <use x="63.623047" xlink:href="#DejaVuSans-48"/>
      </g>
     </g>
    </g>
    <g id="xtick_4">
     <g id="line2d_4">
      <g>
       <use style="stroke:#000000;stroke-width:0.8;" x="205.006281" xlink:href="#ma15102fbcc" y="307.584"/>
      </g>
     </g>
     <g id="text_4">
      <!-- 60 -->
      <g transform="translate(198.643781 322.182437)scale(0.1 -0.1)">
       <defs>
        <path d="M 33.015625 40.375 
Q 26.375 40.375 22.484375 35.828125 
Q 18.609375 31.296875 18.609375 23.390625 
Q 18.609375 15.53125 22.484375 10.953125 
Q 26.375 6.390625 33.015625 6.390625 
Q 39.65625 6.390625 43.53125 10.953125 
Q 47.40625 15.53125 47.40625 23.390625 
Q 47.40625 31.296875 43.53125 35.828125 
Q 39.65625 40.375 33.015625 40.375 
z
M 52.59375 71.296875 
L 52.59375 62.3125 
Q 48.875 64.0625 45.09375 64.984375 
Q 41.3125 65.921875 37.59375 65.921875 
Q 27.828125 65.921875 22.671875 59.328125 
Q 17.53125 52.734375 16.796875 39.40625 
Q 19.671875 43.65625 24.015625 45.921875 
Q 28.375 48.1875 33.59375 48.1875 
Q 44.578125 48.1875 50.953125 41.515625 
Q 57.328125 34.859375 57.328125 23.390625 
Q 57.328125 12.15625 50.6875 5.359375 
Q 44.046875 -1.421875 33.015625 -1.421875 
Q 20.359375 -1.421875 13.671875 8.265625 
Q 6.984375 17.96875 6.984375 36.375 
Q 6.984375 53.65625 15.1875 63.9375 
Q 23.390625 74.21875 37.203125 74.21875 
Q 40.921875 74.21875 44.703125 73.484375 
Q 48.484375 72.75 52.59375 71.296875 
z
" id="DejaVuSans-54"/>
       </defs>
       <use xlink:href="#DejaVuSans-54"/>
       <use x="63.623047" xlink:href="#DejaVuSans-48"/>
      </g>
     </g>
    </g>
    <g id="xtick_5">
     <g id="line2d_5">
      <g>
       <use style="stroke:#000000;stroke-width:0.8;" x="139.419504" xlink:href="#ma15102fbcc" y="307.584"/>
      </g>
     </g>
     <g id="text_5">
      <!-- 80 -->
      <g transform="translate(133.057004 322.182437)scale(0.1 -0.1)">
       <defs>
        <path d="M 31.78125 34.625 
Q 24.75 34.625 20.71875 30.859375 
Q 16.703125 27.09375 16.703125 20.515625 
Q 16.703125 13.921875 20.71875 10.15625 
Q 24.75 6.390625 31.78125 6.390625 
Q 38.8125 6.390625 42.859375 10.171875 
Q 46.921875 13.96875 46.921875 20.515625 
Q 46.921875 27.09375 42.890625 30.859375 
Q 38.875 34.625 31.78125 34.625 
z
M 21.921875 38.8125 
Q 15.578125 40.375 12.03125 44.71875 
Q 8.5 49.078125 8.5 55.328125 
Q 8.5 64.0625 14.71875 69.140625 
Q 20.953125 74.21875 31.78125 74.21875 
Q 42.671875 74.21875 48.875 69.140625 
Q 55.078125 64.0625 55.078125 55.328125 
Q 55.078125 49.078125 51.53125 44.71875 
Q 48 40.375 41.703125 38.8125 
Q 48.828125 37.15625 52.796875 32.3125 
Q 56.78125 27.484375 56.78125 20.515625 
Q 56.78125 9.90625 50.3125 4.234375 
Q 43.84375 -1.421875 31.78125 -1.421875 
Q 19.734375 -1.421875 13.25 4.234375 
Q 6.78125 9.90625 6.78125 20.515625 
Q 6.78125 27.484375 10.78125 32.3125 
Q 14.796875 37.15625 21.921875 38.8125 
z
M 18.3125 54.390625 
Q 18.3125 48.734375 21.84375 45.5625 
Q 25.390625 42.390625 31.78125 42.390625 
Q 38.140625 42.390625 41.71875 45.5625 
Q 45.3125 48.734375 45.3125 54.390625 
Q 45.3125 60.0625 41.71875 63.234375 
Q 38.140625 66.40625 31.78125 66.40625 
Q 25.390625 66.40625 21.84375 63.234375 
Q 18.3125 60.0625 18.3125 54.390625 
z
" id="DejaVuSans-56"/>
       </defs>
       <use xlink:href="#DejaVuSans-56"/>
       <use x="63.623047" xlink:href="#DejaVuSans-48"/>
      </g>
     </g>
    </g>
    <g id="xtick_6">
     <g id="line2d_6">
      <g>
       <use style="stroke:#000000;stroke-width:0.8;" x="73.832727" xlink:href="#ma15102fbcc" y="307.584"/>
      </g>
     </g>
     <g id="text_6">
      <!-- 100 -->
      <g transform="translate(64.288977 322.182437)scale(0.1 -0.1)">
       <defs>
        <path d="M 12.40625 8.296875 
L 28.515625 8.296875 
L 28.515625 63.921875 
L 10.984375 60.40625 
L 10.984375 69.390625 
L 28.421875 72.90625 
L 38.28125 72.90625 
L 38.28125 8.296875 
L 54.390625 8.296875 
L 54.390625 0 
L 12.40625 0 
z
" id="DejaVuSans-49"/>
       </defs>
       <use xlink:href="#DejaVuSans-49"/>
       <use x="63.623047" xlink:href="#DejaVuSans-48"/>
       <use x="127.246094" xlink:href="#DejaVuSans-48"/>
      </g>
     </g>
    </g>
    <g id="text_7">
     <!-- Number of features -->
     <g transform="translate(187.4225 335.860562)scale(0.1 -0.1)">
      <defs>
       <path d="M 9.8125 72.90625 
L 23.09375 72.90625 
L 55.421875 11.921875 
L 55.421875 72.90625 
L 64.984375 72.90625 
L 64.984375 0 
L 51.703125 0 
L 19.390625 60.984375 
L 19.390625 0 
L 9.8125 0 
z
" id="DejaVuSans-78"/>
       <path d="M 8.5 21.578125 
L 8.5 54.6875 
L 17.484375 54.6875 
L 17.484375 21.921875 
Q 17.484375 14.15625 20.5 10.265625 
Q 23.53125 6.390625 29.59375 6.390625 
Q 36.859375 6.390625 41.078125 11.03125 
Q 45.3125 15.671875 45.3125 23.6875 
L 45.3125 54.6875 
L 54.296875 54.6875 
L 54.296875 0 
L 45.3125 0 
L 45.3125 8.40625 
Q 42.046875 3.421875 37.71875 1 
Q 33.40625 -1.421875 27.6875 -1.421875 
Q 18.265625 -1.421875 13.375 4.4375 
Q 8.5 10.296875 8.5 21.578125 
z
M 31.109375 56 
z
" id="DejaVuSans-117"/>
       <path d="M 52 44.1875 
Q 55.375 50.25 60.0625 53.125 
Q 64.75 56 71.09375 56 
Q 79.640625 56 84.28125 50.015625 
Q 88.921875 44.046875 88.921875 33.015625 
L 88.921875 0 
L 79.890625 0 
L 79.890625 32.71875 
Q 79.890625 40.578125 77.09375 44.375 
Q 74.3125 48.1875 68.609375 48.1875 
Q 61.625 48.1875 57.5625 43.546875 
Q 53.515625 38.921875 53.515625 30.90625 
L 53.515625 0 
L 44.484375 0 
L 44.484375 32.71875 
Q 44.484375 40.625 41.703125 44.40625 
Q 38.921875 48.1875 33.109375 48.1875 
Q 26.21875 48.1875 22.15625 43.53125 
Q 18.109375 38.875 18.109375 30.90625 
L 18.109375 0 
L 9.078125 0 
L 9.078125 54.6875 
L 18.109375 54.6875 
L 18.109375 46.1875 
Q 21.1875 51.21875 25.484375 53.609375 
Q 29.78125 56 35.6875 56 
Q 41.65625 56 45.828125 52.96875 
Q 50 49.953125 52 44.1875 
z
" id="DejaVuSans-109"/>
       <path d="M 48.6875 27.296875 
Q 48.6875 37.203125 44.609375 42.84375 
Q 40.53125 48.484375 33.40625 48.484375 
Q 26.265625 48.484375 22.1875 42.84375 
Q 18.109375 37.203125 18.109375 27.296875 
Q 18.109375 17.390625 22.1875 11.75 
Q 26.265625 6.109375 33.40625 6.109375 
Q 40.53125 6.109375 44.609375 11.75 
Q 48.6875 17.390625 48.6875 27.296875 
z
M 18.109375 46.390625 
Q 20.953125 51.265625 25.265625 53.625 
Q 29.59375 56 35.59375 56 
Q 45.5625 56 51.78125 48.09375 
Q 58.015625 40.1875 58.015625 27.296875 
Q 58.015625 14.40625 51.78125 6.484375 
Q 45.5625 -1.421875 35.59375 -1.421875 
Q 29.59375 -1.421875 25.265625 0.953125 
Q 20.953125 3.328125 18.109375 8.203125 
L 18.109375 0 
L 9.078125 0 
L 9.078125 75.984375 
L 18.109375 75.984375 
z
" id="DejaVuSans-98"/>
       <path d="M 56.203125 29.59375 
L 56.203125 25.203125 
L 14.890625 25.203125 
Q 15.484375 15.921875 20.484375 11.0625 
Q 25.484375 6.203125 34.421875 6.203125 
Q 39.59375 6.203125 44.453125 7.46875 
Q 49.3125 8.734375 54.109375 11.28125 
L 54.109375 2.78125 
Q 49.265625 0.734375 44.1875 -0.34375 
Q 39.109375 -1.421875 33.890625 -1.421875 
Q 20.796875 -1.421875 13.15625 6.1875 
Q 5.515625 13.8125 5.515625 26.8125 
Q 5.515625 40.234375 12.765625 48.109375 
Q 20.015625 56 32.328125 56 
Q 43.359375 56 49.78125 48.890625 
Q 56.203125 41.796875 56.203125 29.59375 
z
M 47.21875 32.234375 
Q 47.125 39.59375 43.09375 43.984375 
Q 39.0625 48.390625 32.421875 48.390625 
Q 24.90625 48.390625 20.390625 44.140625 
Q 15.875 39.890625 15.1875 32.171875 
z
" id="DejaVuSans-101"/>
       <path d="M 41.109375 46.296875 
Q 39.59375 47.171875 37.8125 47.578125 
Q 36.03125 48 33.890625 48 
Q 26.265625 48 22.1875 43.046875 
Q 18.109375 38.09375 18.109375 28.8125 
L 18.109375 0 
L 9.078125 0 
L 9.078125 54.6875 
L 18.109375 54.6875 
L 18.109375 46.1875 
Q 20.953125 51.171875 25.484375 53.578125 
Q 30.03125 56 36.53125 56 
Q 37.453125 56 38.578125 55.875 
Q 39.703125 55.765625 41.0625 55.515625 
z
" id="DejaVuSans-114"/>
       <path id="DejaVuSans-32"/>
       <path d="M 30.609375 48.390625 
Q 23.390625 48.390625 19.1875 42.75 
Q 14.984375 37.109375 14.984375 27.296875 
Q 14.984375 17.484375 19.15625 11.84375 
Q 23.34375 6.203125 30.609375 6.203125 
Q 37.796875 6.203125 41.984375 11.859375 
Q 46.1875 17.53125 46.1875 27.296875 
Q 46.1875 37.015625 41.984375 42.703125 
Q 37.796875 48.390625 30.609375 48.390625 
z
M 30.609375 56 
Q 42.328125 56 49.015625 48.375 
Q 55.71875 40.765625 55.71875 27.296875 
Q 55.71875 13.875 49.015625 6.21875 
Q 42.328125 -1.421875 30.609375 -1.421875 
Q 18.84375 -1.421875 12.171875 6.21875 
Q 5.515625 13.875 5.515625 27.296875 
Q 5.515625 40.765625 12.171875 48.375 
Q 18.84375 56 30.609375 56 
z
" id="DejaVuSans-111"/>
       <path d="M 37.109375 75.984375 
L 37.109375 68.5 
L 28.515625 68.5 
Q 23.6875 68.5 21.796875 66.546875 
Q 19.921875 64.59375 19.921875 59.515625 
L 19.921875 54.6875 
L 34.71875 54.6875 
L 34.71875 47.703125 
L 19.921875 47.703125 
L 19.921875 0 
L 10.890625 0 
L 10.890625 47.703125 
L 2.296875 47.703125 
L 2.296875 54.6875 
L 10.890625 54.6875 
L 10.890625 58.5 
Q 10.890625 67.625 15.140625 71.796875 
Q 19.390625 75.984375 28.609375 75.984375 
z
" id="DejaVuSans-102"/>
       <path d="M 34.28125 27.484375 
Q 23.390625 27.484375 19.1875 25 
Q 14.984375 22.515625 14.984375 16.5 
Q 14.984375 11.71875 18.140625 8.90625 
Q 21.296875 6.109375 26.703125 6.109375 
Q 34.1875 6.109375 38.703125 11.40625 
Q 43.21875 16.703125 43.21875 25.484375 
L 43.21875 27.484375 
z
M 52.203125 31.203125 
L 52.203125 0 
L 43.21875 0 
L 43.21875 8.296875 
Q 40.140625 3.328125 35.546875 0.953125 
Q 30.953125 -1.421875 24.3125 -1.421875 
Q 15.921875 -1.421875 10.953125 3.296875 
Q 6 8.015625 6 15.921875 
Q 6 25.140625 12.171875 29.828125 
Q 18.359375 34.515625 30.609375 34.515625 
L 43.21875 34.515625 
L 43.21875 35.40625 
Q 43.21875 41.609375 39.140625 45 
Q 35.0625 48.390625 27.6875 48.390625 
Q 23 48.390625 18.546875 47.265625 
Q 14.109375 46.140625 10.015625 43.890625 
L 10.015625 52.203125 
Q 14.9375 54.109375 19.578125 55.046875 
Q 24.21875 56 28.609375 56 
Q 40.484375 56 46.34375 49.84375 
Q 52.203125 43.703125 52.203125 31.203125 
z
" id="DejaVuSans-97"/>
       <path d="M 18.3125 70.21875 
L 18.3125 54.6875 
L 36.8125 54.6875 
L 36.8125 47.703125 
L 18.3125 47.703125 
L 18.3125 18.015625 
Q 18.3125 11.328125 20.140625 9.421875 
Q 21.96875 7.515625 27.59375 7.515625 
L 36.8125 7.515625 
L 36.8125 0 
L 27.59375 0 
Q 17.1875 0 13.234375 3.875 
Q 9.28125 7.765625 9.28125 18.015625 
L 9.28125 47.703125 
L 2.6875 47.703125 
L 2.6875 54.6875 
L 9.28125 54.6875 
L 9.28125 70.21875 
z
" id="DejaVuSans-116"/>
       <path d="M 44.28125 53.078125 
L 44.28125 44.578125 
Q 40.484375 46.53125 36.375 47.5 
Q 32.28125 48.484375 27.875 48.484375 
Q 21.1875 48.484375 17.84375 46.4375 
Q 14.5 44.390625 14.5 40.28125 
Q 14.5 37.15625 16.890625 35.375 
Q 19.28125 33.59375 26.515625 31.984375 
L 29.59375 31.296875 
Q 39.15625 29.25 43.1875 25.515625 
Q 47.21875 21.78125 47.21875 15.09375 
Q 47.21875 7.46875 41.1875 3.015625 
Q 35.15625 -1.421875 24.609375 -1.421875 
Q 20.21875 -1.421875 15.453125 -0.5625 
Q 10.6875 0.296875 5.421875 2 
L 5.421875 11.28125 
Q 10.40625 8.6875 15.234375 7.390625 
Q 20.0625 6.109375 24.8125 6.109375 
Q 31.15625 6.109375 34.5625 8.28125 
Q 37.984375 10.453125 37.984375 14.40625 
Q 37.984375 18.0625 35.515625 20.015625 
Q 33.0625 21.96875 24.703125 23.78125 
L 21.578125 24.515625 
Q 13.234375 26.265625 9.515625 29.90625 
Q 5.8125 33.546875 5.8125 39.890625 
Q 5.8125 47.609375 11.28125 51.796875 
Q 16.75 56 26.8125 56 
Q 31.78125 56 36.171875 55.265625 
Q 40.578125 54.546875 44.28125 53.078125 
z
" id="DejaVuSans-115"/>
      </defs>
      <use xlink:href="#DejaVuSans-78"/>
      <use x="74.804688" xlink:href="#DejaVuSans-117"/>
      <use x="138.183594" xlink:href="#DejaVuSans-109"/>
      <use x="235.595703" xlink:href="#DejaVuSans-98"/>
      <use x="299.072266" xlink:href="#DejaVuSans-101"/>
      <use x="360.595703" xlink:href="#DejaVuSans-114"/>
      <use x="401.708984" xlink:href="#DejaVuSans-32"/>
      <use x="433.496094" xlink:href="#DejaVuSans-111"/>
      <use x="494.677734" xlink:href="#DejaVuSans-102"/>
      <use x="529.882812" xlink:href="#DejaVuSans-32"/>
      <use x="561.669922" xlink:href="#DejaVuSans-102"/>
      <use x="596.875" xlink:href="#DejaVuSans-101"/>
      <use x="658.398438" xlink:href="#DejaVuSans-97"/>
      <use x="719.677734" xlink:href="#DejaVuSans-116"/>
      <use x="758.886719" xlink:href="#DejaVuSans-117"/>
      <use x="822.265625" xlink:href="#DejaVuSans-114"/>
      <use x="861.128906" xlink:href="#DejaVuSans-101"/>
      <use x="922.652344" xlink:href="#DejaVuSans-115"/>
     </g>
    </g>
   </g>
   <g id="matplotlib.axis_2">
    <g id="ytick_1">
     <g id="line2d_7">
      <defs>
       <path d="M 0 0 
L -3.5 0 
" id="m1e464f683b" style="stroke:#000000;stroke-width:0.8;"/>
      </defs>
      <g>
       <use style="stroke:#000000;stroke-width:0.8;" x="57.6" xlink:href="#m1e464f683b" y="269.713637"/>
      </g>
     </g>
     <g id="text_8">
      <!-- 0.3 -->
      <g transform="translate(34.696875 273.512856)scale(0.1 -0.1)">
       <defs>
        <path d="M 10.6875 12.40625 
L 21 12.40625 
L 21 0 
L 10.6875 0 
z
" id="DejaVuSans-46"/>
        <path d="M 40.578125 39.3125 
Q 47.65625 37.796875 51.625 33 
Q 55.609375 28.21875 55.609375 21.1875 
Q 55.609375 10.40625 48.1875 4.484375 
Q 40.765625 -1.421875 27.09375 -1.421875 
Q 22.515625 -1.421875 17.65625 -0.515625 
Q 12.796875 0.390625 7.625 2.203125 
L 7.625 11.71875 
Q 11.71875 9.328125 16.59375 8.109375 
Q 21.484375 6.890625 26.8125 6.890625 
Q 36.078125 6.890625 40.9375 10.546875 
Q 45.796875 14.203125 45.796875 21.1875 
Q 45.796875 27.640625 41.28125 31.265625 
Q 36.765625 34.90625 28.71875 34.90625 
L 20.21875 34.90625 
L 20.21875 43.015625 
L 29.109375 43.015625 
Q 36.375 43.015625 40.234375 45.921875 
Q 44.09375 48.828125 44.09375 54.296875 
Q 44.09375 59.90625 40.109375 62.90625 
Q 36.140625 65.921875 28.71875 65.921875 
Q 24.65625 65.921875 20.015625 65.03125 
Q 15.375 64.15625 9.8125 62.3125 
L 9.8125 71.09375 
Q 15.4375 72.65625 20.34375 73.4375 
Q 25.25 74.21875 29.59375 74.21875 
Q 40.828125 74.21875 47.359375 69.109375 
Q 53.90625 64.015625 53.90625 55.328125 
Q 53.90625 49.265625 50.4375 45.09375 
Q 46.96875 40.921875 40.578125 39.3125 
z
" id="DejaVuSans-51"/>
       </defs>
       <use xlink:href="#DejaVuSans-48"/>
       <use x="63.623047" xlink:href="#DejaVuSans-46"/>
       <use x="95.410156" xlink:href="#DejaVuSans-51"/>
      </g>
     </g>
    </g>
    <g id="ytick_2">
     <g id="line2d_8">
      <g>
       <use style="stroke:#000000;stroke-width:0.8;" x="57.6" xlink:href="#m1e464f683b" y="212.292196"/>
      </g>
     </g>
     <g id="text_9">
      <!-- 0.4 -->
      <g transform="translate(34.696875 216.091415)scale(0.1 -0.1)">
       <use xlink:href="#DejaVuSans-48"/>
       <use x="63.623047" xlink:href="#DejaVuSans-46"/>
       <use x="95.410156" xlink:href="#DejaVuSans-52"/>
      </g>
     </g>
    </g>
    <g id="ytick_3">
     <g id="line2d_9">
      <g>
       <use style="stroke:#000000;stroke-width:0.8;" x="57.6" xlink:href="#m1e464f683b" y="154.870755"/>
      </g>
     </g>
     <g id="text_10">
      <!-- 0.5 -->
      <g transform="translate(34.696875 158.669974)scale(0.1 -0.1)">
       <defs>
        <path d="M 10.796875 72.90625 
L 49.515625 72.90625 
L 49.515625 64.59375 
L 19.828125 64.59375 
L 19.828125 46.734375 
Q 21.96875 47.46875 24.109375 47.828125 
Q 26.265625 48.1875 28.421875 48.1875 
Q 40.625 48.1875 47.75 41.5 
Q 54.890625 34.8125 54.890625 23.390625 
Q 54.890625 11.625 47.5625 5.09375 
Q 40.234375 -1.421875 26.90625 -1.421875 
Q 22.3125 -1.421875 17.546875 -0.640625 
Q 12.796875 0.140625 7.71875 1.703125 
L 7.71875 11.625 
Q 12.109375 9.234375 16.796875 8.0625 
Q 21.484375 6.890625 26.703125 6.890625 
Q 35.15625 6.890625 40.078125 11.328125 
Q 45.015625 15.765625 45.015625 23.390625 
Q 45.015625 31 40.078125 35.4375 
Q 35.15625 39.890625 26.703125 39.890625 
Q 22.75 39.890625 18.8125 39.015625 
Q 14.890625 38.140625 10.796875 36.28125 
z
" id="DejaVuSans-53"/>
       </defs>
       <use xlink:href="#DejaVuSans-48"/>
       <use x="63.623047" xlink:href="#DejaVuSans-46"/>
       <use x="95.410156" xlink:href="#DejaVuSans-53"/>
      </g>
     </g>
    </g>
    <g id="ytick_4">
     <g id="line2d_10">
      <g>
       <use style="stroke:#000000;stroke-width:0.8;" x="57.6" xlink:href="#m1e464f683b" y="97.449314"/>
      </g>
     </g>
     <g id="text_11">
      <!-- 0.6 -->
      <g transform="translate(34.696875 101.248533)scale(0.1 -0.1)">
       <use xlink:href="#DejaVuSans-48"/>
       <use x="63.623047" xlink:href="#DejaVuSans-46"/>
       <use x="95.410156" xlink:href="#DejaVuSans-54"/>
      </g>
     </g>
    </g>
    <g id="text_12">
     <!-- Accuracy -->
     <g transform="translate(28.617187 197.356125)rotate(-90)scale(0.1 -0.1)">
      <defs>
       <path d="M 34.1875 63.1875 
L 20.796875 26.90625 
L 47.609375 26.90625 
z
M 28.609375 72.90625 
L 39.796875 72.90625 
L 67.578125 0 
L 57.328125 0 
L 50.6875 18.703125 
L 17.828125 18.703125 
L 11.1875 0 
L 0.78125 0 
z
" id="DejaVuSans-65"/>
       <path d="M 48.78125 52.59375 
L 48.78125 44.1875 
Q 44.96875 46.296875 41.140625 47.34375 
Q 37.3125 48.390625 33.40625 48.390625 
Q 24.65625 48.390625 19.8125 42.84375 
Q 14.984375 37.3125 14.984375 27.296875 
Q 14.984375 17.28125 19.8125 11.734375 
Q 24.65625 6.203125 33.40625 6.203125 
Q 37.3125 6.203125 41.140625 7.25 
Q 44.96875 8.296875 48.78125 10.40625 
L 48.78125 2.09375 
Q 45.015625 0.34375 40.984375 -0.53125 
Q 36.96875 -1.421875 32.421875 -1.421875 
Q 20.0625 -1.421875 12.78125 6.34375 
Q 5.515625 14.109375 5.515625 27.296875 
Q 5.515625 40.671875 12.859375 48.328125 
Q 20.21875 56 33.015625 56 
Q 37.15625 56 41.109375 55.140625 
Q 45.0625 54.296875 48.78125 52.59375 
z
" id="DejaVuSans-99"/>
       <path d="M 32.171875 -5.078125 
Q 28.375 -14.84375 24.75 -17.8125 
Q 21.140625 -20.796875 15.09375 -20.796875 
L 7.90625 -20.796875 
L 7.90625 -13.28125 
L 13.1875 -13.28125 
Q 16.890625 -13.28125 18.9375 -11.515625 
Q 21 -9.765625 23.484375 -3.21875 
L 25.09375 0.875 
L 2.984375 54.6875 
L 12.5 54.6875 
L 29.59375 11.921875 
L 46.6875 54.6875 
L 56.203125 54.6875 
z
" id="DejaVuSans-121"/>
      </defs>
      <use xlink:href="#DejaVuSans-65"/>
      <use x="66.658203" xlink:href="#DejaVuSans-99"/>
      <use x="121.638672" xlink:href="#DejaVuSans-99"/>
      <use x="176.619141" xlink:href="#DejaVuSans-117"/>
      <use x="239.998047" xlink:href="#DejaVuSans-114"/>
      <use x="281.111328" xlink:href="#DejaVuSans-97"/>
      <use x="342.390625" xlink:href="#DejaVuSans-99"/>
      <use x="397.371094" xlink:href="#DejaVuSans-121"/>
     </g>
    </g>
   </g>
   <g id="line2d_11">
    <path clip-path="url(#pa6928de43a)" d="M 73.832727 212.292196 
L 77.112066 208.84691 
L 80.391405 210.569553 
L 83.670744 208.272695 
L 86.950083 215.737483 
L 90.229421 208.272695 
L 93.50876 214.014839 
L 96.788099 208.84691 
L 100.067438 219.182769 
L 103.346777 220.331198 
L 106.626116 211.717982 
L 109.905455 212.292196 
L 113.184793 223.20227 
L 116.464132 211.717982 
L 119.743471 222.053841 
L 123.02281 218.03434 
L 126.302149 222.628055 
L 129.581488 215.163268 
L 132.860826 230.667057 
L 136.140165 230.667057 
L 139.419504 228.944414 
L 142.698843 216.885911 
L 145.978182 228.944414 
L 149.257521 218.608555 
L 152.53686 219.756983 
L 155.816198 216.885911 
L 159.095537 219.756983 
L 162.374876 216.311697 
L 165.654215 230.092843 
L 168.933554 223.20227 
L 172.212893 211.143767 
L 175.492231 232.3897 
L 178.77157 215.163268 
L 182.050909 228.3702 
L 185.330248 236.409201 
L 188.609587 223.20227 
L 191.888926 218.608555 
L 195.168264 222.628055 
L 198.447603 222.628055 
L 201.726942 219.756983 
L 205.006281 228.3702 
L 208.28562 220.331198 
L 211.564959 218.03434 
L 214.844298 224.350699 
L 218.123636 217.460126 
L 221.402975 218.03434 
L 224.682314 234.112344 
L 227.961653 222.628055 
L 231.240992 216.885911 
L 234.520331 231.241272 
L 237.799669 223.776484 
L 241.079008 230.092843 
L 244.358347 218.608555 
L 247.637686 216.885911 
L 250.917025 226.073342 
L 254.196364 227.221771 
L 257.475702 216.885911 
L 260.755041 222.053841 
L 264.03438 211.717982 
L 267.313719 207.698481 
L 270.593058 223.20227 
L 273.872397 215.737483 
L 277.151736 218.608555 
L 280.431074 227.795985 
L 283.710413 227.221771 
L 286.989752 216.885911 
L 290.269091 215.163268 
L 293.54843 214.014839 
L 296.827769 211.143767 
L 300.107107 214.589054 
L 303.386446 205.401623 
L 306.665785 214.014839 
L 309.945124 219.756983 
L 313.224463 224.924913 
L 316.503802 214.589054 
L 319.78314 211.143767 
L 323.062479 216.311697 
L 326.341818 216.311697 
L 329.621157 212.866411 
L 332.900496 204.827409 
L 336.179835 215.737483 
L 339.459174 212.292196 
L 342.738512 214.014839 
L 346.017851 211.143767 
L 349.29719 208.272695 
L 352.576529 206.550052 
L 355.855868 211.717982 
L 359.135207 211.717982 
L 362.414545 215.737483 
L 365.693884 215.163268 
L 368.973223 204.827409 
L 372.252562 211.143767 
L 375.531901 213.440625 
L 378.81124 209.421124 
L 382.090579 211.717982 
L 385.369917 212.292196 
L 388.649256 211.143767 
L 391.928595 212.292196 
L 395.207934 211.143767 
L 398.487273 212.292196 
" style="fill:none;stroke:#1f77b4;stroke-linecap:square;stroke-width:1.5;"/>
   </g>
   <g id="line2d_12">
    <path clip-path="url(#pa6928de43a)" d="M 73.832727 97.449314 
L 77.112066 102.04303 
L 80.391405 111.804675 
L 83.670744 111.804675 
L 86.950083 114.675747 
L 90.229421 113.527318 
L 93.50876 116.972604 
L 96.788099 122.714748 
L 100.067438 121.56632 
L 103.346777 122.714748 
L 106.626116 118.695247 
L 109.905455 129.605321 
L 113.184793 125.58582 
L 116.464132 125.58582 
L 119.743471 128.456892 
L 123.02281 129.605321 
L 126.302149 131.327964 
L 129.581488 138.792752 
L 132.860826 134.773251 
L 136.140165 147.405968 
L 139.419504 145.10911 
L 142.698843 140.515395 
L 145.978182 149.702826 
L 149.257521 138.218537 
L 152.53686 144.534896 
L 155.816198 149.702826 
L 159.095537 137.644323 
L 162.374876 150.27704 
L 165.654215 149.128611 
L 168.933554 151.999683 
L 172.212893 156.019184 
L 175.492231 143.960681 
L 178.77157 150.27704 
L 182.050909 146.257539 
L 185.330248 153.148112 
L 188.609587 158.316042 
L 191.888926 160.038685 
L 195.168264 150.27704 
L 198.447603 161.761328 
L 201.726942 147.405968 
L 205.006281 156.593398 
L 208.28562 147.980182 
L 211.564959 154.870755 
L 214.844298 168.651901 
L 218.123636 155.44497 
L 221.402975 162.335543 
L 224.682314 172.671402 
L 227.961653 159.464471 
L 231.240992 164.058186 
L 234.520331 174.394045 
L 237.799669 166.355043 
L 241.079008 158.316042 
L 244.358347 170.948759 
L 247.637686 166.929258 
L 250.917025 168.077687 
L 254.196364 168.077687 
L 257.475702 153.148112 
L 260.755041 164.058186 
L 264.03438 166.355043 
L 267.313719 157.167613 
L 270.593058 173.819831 
L 273.872397 154.870755 
L 277.151736 168.651901 
L 280.431074 172.671402 
L 283.710413 162.909757 
L 286.989752 174.96826 
L 290.269091 176.690903 
L 293.54843 161.187114 
L 296.827769 164.058186 
L 300.107107 170.374544 
L 303.386446 165.206615 
L 306.665785 151.999683 
L 309.945124 173.819831 
L 313.224463 173.245616 
L 316.503802 158.890256 
L 319.78314 159.464471 
L 323.062479 157.167613 
L 326.341818 162.335543 
L 329.621157 161.187114 
L 332.900496 160.612899 
L 336.179835 157.167613 
L 339.459174 154.870755 
L 342.738512 159.464471 
L 346.017851 146.257539 
L 349.29719 139.941181 
L 352.576529 154.870755 
L 355.855868 149.128611 
L 359.135207 146.257539 
L 362.414545 142.812253 
L 365.693884 150.851254 
L 368.973223 139.366966 
L 372.252562 134.773251 
L 375.531901 131.327964 
L 378.81124 116.39839 
L 382.090579 126.160035 
L 385.369917 122.714748 
L 388.649256 114.675747 
L 391.928595 115.249961 
L 395.207934 106.062531 
L 398.487273 109.507817 
" style="fill:none;stroke:#ff7f0e;stroke-linecap:square;stroke-width:1.5;"/>
   </g>
   <g id="line2d_13">
    <path clip-path="url(#pa6928de43a)" d="M 73.832727 154.870755 
L 77.112066 150.27704 
L 80.391405 149.702826 
L 83.670744 145.10911 
L 86.950083 143.960681 
L 90.229421 141.663824 
L 93.50876 130.75375 
L 96.788099 139.366966 
L 100.067438 134.773251 
L 103.346777 141.663824 
L 106.626116 135.92168 
L 109.905455 139.941181 
L 113.184793 137.644323 
L 116.464132 139.941181 
L 119.743471 141.663824 
L 123.02281 150.27704 
L 126.302149 145.683325 
L 129.581488 151.999683 
L 132.860826 141.089609 
L 136.140165 144.534896 
L 139.419504 149.702826 
L 142.698843 133.050608 
L 145.978182 153.148112 
L 149.257521 153.722326 
L 152.53686 160.038685 
L 155.816198 153.148112 
L 159.095537 146.257539 
L 162.374876 150.27704 
L 165.654215 153.722326 
L 168.933554 147.980182 
L 172.212893 157.167613 
L 175.492231 151.999683 
L 178.77157 152.573898 
L 182.050909 165.780829 
L 185.330248 143.960681 
L 188.609587 160.038685 
L 191.888926 160.612899 
L 195.168264 156.593398 
L 198.447603 165.206615 
L 201.726942 160.038685 
L 205.006281 157.741827 
L 208.28562 174.394045 
L 211.564959 154.296541 
L 214.844298 154.296541 
L 218.123636 154.870755 
L 221.402975 160.038685 
L 224.682314 166.355043 
L 227.961653 152.573898 
L 231.240992 161.187114 
L 234.520331 162.335543 
L 237.799669 156.593398 
L 241.079008 158.316042 
L 244.358347 154.296541 
L 247.637686 167.503472 
L 250.917025 154.870755 
L 254.196364 159.464471 
L 257.475702 147.980182 
L 260.755041 166.355043 
L 264.03438 173.245616 
L 267.313719 160.612899 
L 270.593058 172.671402 
L 273.872397 152.573898 
L 277.151736 174.96826 
L 280.431074 163.483971 
L 283.710413 156.593398 
L 286.989752 153.722326 
L 290.269091 166.355043 
L 293.54843 165.780829 
L 296.827769 150.851254 
L 300.107107 154.870755 
L 303.386446 152.573898 
L 306.665785 143.960681 
L 309.945124 153.148112 
L 313.224463 160.038685 
L 316.503802 146.257539 
L 319.78314 145.10911 
L 323.062479 149.702826 
L 326.341818 142.812253 
L 329.621157 140.515395 
L 332.900496 143.386467 
L 336.179835 146.257539 
L 339.459174 137.070109 
L 342.738512 139.366966 
L 346.017851 142.238038 
L 349.29719 154.296541 
L 352.576529 139.366966 
L 355.855868 145.10911 
L 359.135207 146.831754 
L 362.414545 135.347465 
L 365.693884 149.128611 
L 368.973223 139.366966 
L 372.252562 119.269462 
L 375.531901 123.288963 
L 378.81124 126.160035 
L 382.090579 115.249961 
L 385.369917 110.082031 
L 388.649256 107.210959 
L 391.928595 119.843676 
L 395.207934 102.617244 
L 398.487273 114.675747 
" style="fill:none;stroke:#2ca02c;stroke-linecap:square;stroke-width:1.5;"/>
   </g>
   <g id="line2d_14">
    <path clip-path="url(#pa6928de43a)" d="M 73.832727 154.870755 
L 77.112066 151.999683 
L 80.391405 153.722326 
L 83.670744 156.593398 
L 86.950083 161.187114 
L 90.229421 157.167613 
L 93.50876 159.464471 
L 96.788099 161.187114 
L 100.067438 164.058186 
L 103.346777 161.761328 
L 106.626116 169.80033 
L 109.905455 165.780829 
L 113.184793 168.651901 
L 116.464132 172.671402 
L 119.743471 171.522973 
L 123.02281 183.581476 
L 126.302149 176.116688 
L 129.581488 189.32362 
L 132.860826 181.858832 
L 136.140165 180.710404 
L 139.419504 195.065764 
L 142.698843 184.729904 
L 145.978182 187.026762 
L 149.257521 183.007261 
L 152.53686 200.233694 
L 155.816198 195.639978 
L 159.095537 194.491549 
L 162.374876 197.936836 
L 165.654215 195.639978 
L 168.933554 199.659479 
L 172.212893 201.956337 
L 175.492231 201.382122 
L 178.77157 200.233694 
L 182.050909 211.143767 
L 185.330248 203.67898 
L 188.609587 207.698481 
L 191.888926 196.214193 
L 195.168264 202.530551 
L 198.447603 204.253194 
L 201.726942 209.995338 
L 205.006281 205.975838 
L 208.28562 211.143767 
L 211.564959 207.698481 
L 214.844298 209.421124 
L 218.123636 205.975838 
L 221.402975 205.975838 
L 224.682314 214.589054 
L 227.961653 207.698481 
L 231.240992 209.995338 
L 234.520331 212.292196 
L 237.799669 209.995338 
L 241.079008 217.460126 
L 244.358347 212.866411 
L 247.637686 212.292196 
L 250.917025 215.737483 
L 254.196364 209.421124 
L 257.475702 210.569553 
L 260.755041 214.589054 
L 264.03438 209.995338 
L 267.313719 208.84691 
L 270.593058 211.143767 
L 273.872397 212.292196 
L 277.151736 210.569553 
L 280.431074 211.717982 
L 283.710413 214.014839 
L 286.989752 212.292196 
L 290.269091 209.421124 
L 293.54843 212.292196 
L 296.827769 211.717982 
L 300.107107 211.143767 
L 303.386446 211.717982 
L 306.665785 212.292196 
L 309.945124 211.717982 
L 313.224463 214.014839 
L 316.503802 213.440625 
L 319.78314 214.014839 
L 323.062479 213.440625 
L 326.341818 211.717982 
L 329.621157 211.717982 
L 332.900496 212.292196 
L 336.179835 212.866411 
L 339.459174 212.292196 
L 342.738512 212.292196 
L 346.017851 212.292196 
L 349.29719 212.292196 
L 352.576529 212.292196 
L 355.855868 212.292196 
L 359.135207 212.292196 
L 362.414545 212.292196 
L 365.693884 212.292196 
L 368.973223 212.866411 
L 372.252562 212.292196 
L 375.531901 212.292196 
L 378.81124 212.292196 
L 382.090579 212.292196 
L 385.369917 212.292196 
L 388.649256 212.292196 
L 391.928595 212.292196 
L 395.207934 212.292196 
L 398.487273 212.292196 
" style="fill:none;stroke:#d62728;stroke-linecap:square;stroke-width:1.5;"/>
   </g>
   <g id="patch_3">
    <path d="M 57.6 307.584 
L 57.6 41.472 
" style="fill:none;stroke:#000000;stroke-linecap:square;stroke-linejoin:miter;stroke-width:0.8;"/>
   </g>
   <g id="patch_4">
    <path d="M 414.72 307.584 
L 414.72 41.472 
" style="fill:none;stroke:#000000;stroke-linecap:square;stroke-linejoin:miter;stroke-width:0.8;"/>
   </g>
   <g id="patch_5">
    <path d="M 57.6 307.584 
L 414.72 307.584 
" style="fill:none;stroke:#000000;stroke-linecap:square;stroke-linejoin:miter;stroke-width:0.8;"/>
   </g>
   <g id="patch_6">
    <path d="M 57.6 41.472 
L 414.72 41.472 
" style="fill:none;stroke:#000000;stroke-linecap:square;stroke-linejoin:miter;stroke-width:0.8;"/>
   </g>
   <g id="text_13">
    <!-- Toy_non_linear_100_100 -->
    <g transform="translate(163.14 35.472)scale(0.12 -0.12)">
     <defs>
      <path d="M -0.296875 72.90625 
L 61.375 72.90625 
L 61.375 64.59375 
L 35.5 64.59375 
L 35.5 0 
L 25.59375 0 
L 25.59375 64.59375 
L -0.296875 64.59375 
z
" id="DejaVuSans-84"/>
      <path d="M 50.984375 -16.609375 
L 50.984375 -23.578125 
L -0.984375 -23.578125 
L -0.984375 -16.609375 
z
" id="DejaVuSans-95"/>
      <path d="M 54.890625 33.015625 
L 54.890625 0 
L 45.90625 0 
L 45.90625 32.71875 
Q 45.90625 40.484375 42.875 44.328125 
Q 39.84375 48.1875 33.796875 48.1875 
Q 26.515625 48.1875 22.3125 43.546875 
Q 18.109375 38.921875 18.109375 30.90625 
L 18.109375 0 
L 9.078125 0 
L 9.078125 54.6875 
L 18.109375 54.6875 
L 18.109375 46.1875 
Q 21.34375 51.125 25.703125 53.5625 
Q 30.078125 56 35.796875 56 
Q 45.21875 56 50.046875 50.171875 
Q 54.890625 44.34375 54.890625 33.015625 
z
" id="DejaVuSans-110"/>
      <path d="M 9.421875 75.984375 
L 18.40625 75.984375 
L 18.40625 0 
L 9.421875 0 
z
" id="DejaVuSans-108"/>
      <path d="M 9.421875 54.6875 
L 18.40625 54.6875 
L 18.40625 0 
L 9.421875 0 
z
M 9.421875 75.984375 
L 18.40625 75.984375 
L 18.40625 64.59375 
L 9.421875 64.59375 
z
" id="DejaVuSans-105"/>
     </defs>
     <use xlink:href="#DejaVuSans-84"/>
     <use x="44.083984" xlink:href="#DejaVuSans-111"/>
     <use x="105.265625" xlink:href="#DejaVuSans-121"/>
     <use x="164.445312" xlink:href="#DejaVuSans-95"/>
     <use x="214.445312" xlink:href="#DejaVuSans-110"/>
     <use x="277.824219" xlink:href="#DejaVuSans-111"/>
     <use x="339.005859" xlink:href="#DejaVuSans-110"/>
     <use x="402.384766" xlink:href="#DejaVuSans-95"/>
     <use x="452.384766" xlink:href="#DejaVuSans-108"/>
     <use x="480.167969" xlink:href="#DejaVuSans-105"/>
     <use x="507.951172" xlink:href="#DejaVuSans-110"/>
     <use x="571.330078" xlink:href="#DejaVuSans-101"/>
     <use x="632.853516" xlink:href="#DejaVuSans-97"/>
     <use x="694.132812" xlink:href="#DejaVuSans-114"/>
     <use x="735.246094" xlink:href="#DejaVuSans-95"/>
     <use x="785.246094" xlink:href="#DejaVuSans-49"/>
     <use x="848.869141" xlink:href="#DejaVuSans-48"/>
     <use x="912.492188" xlink:href="#DejaVuSans-48"/>
     <use x="976.115234" xlink:href="#DejaVuSans-95"/>
     <use x="1026.115234" xlink:href="#DejaVuSans-49"/>
     <use x="1089.738281" xlink:href="#DejaVuSans-48"/>
     <use x="1153.361328" xlink:href="#DejaVuSans-48"/>
    </g>
   </g>
   <g id="legend_1">
    <g id="patch_7">
     <path d="M 64.6 302.584 
L 171.851562 302.584 
Q 173.851562 302.584 173.851562 300.584 
L 173.851562 242.8715 
Q 173.851562 240.8715 171.851562 240.8715 
L 64.6 240.8715 
Q 62.6 240.8715 62.6 242.8715 
L 62.6 300.584 
Q 62.6 302.584 64.6 302.584 
z
" style="fill:#ffffff;opacity:0.8;stroke:#cccccc;stroke-linejoin:miter;"/>
    </g>
    <g id="line2d_15">
     <path d="M 66.6 248.969937 
L 86.6 248.969937 
" style="fill:none;stroke:#1f77b4;stroke-linecap:square;stroke-width:1.5;"/>
    </g>
    <g id="line2d_16"/>
    <g id="text_14">
     <!-- Random Forest -->
     <g transform="translate(94.6 252.469937)scale(0.1 -0.1)">
      <defs>
       <path d="M 44.390625 34.1875 
Q 47.5625 33.109375 50.5625 29.59375 
Q 53.5625 26.078125 56.59375 19.921875 
L 66.609375 0 
L 56 0 
L 46.6875 18.703125 
Q 43.0625 26.03125 39.671875 28.421875 
Q 36.28125 30.8125 30.421875 30.8125 
L 19.671875 30.8125 
L 19.671875 0 
L 9.8125 0 
L 9.8125 72.90625 
L 32.078125 72.90625 
Q 44.578125 72.90625 50.734375 67.671875 
Q 56.890625 62.453125 56.890625 51.90625 
Q 56.890625 45.015625 53.6875 40.46875 
Q 50.484375 35.9375 44.390625 34.1875 
z
M 19.671875 64.796875 
L 19.671875 38.921875 
L 32.078125 38.921875 
Q 39.203125 38.921875 42.84375 42.21875 
Q 46.484375 45.515625 46.484375 51.90625 
Q 46.484375 58.296875 42.84375 61.546875 
Q 39.203125 64.796875 32.078125 64.796875 
z
" id="DejaVuSans-82"/>
       <path d="M 45.40625 46.390625 
L 45.40625 75.984375 
L 54.390625 75.984375 
L 54.390625 0 
L 45.40625 0 
L 45.40625 8.203125 
Q 42.578125 3.328125 38.25 0.953125 
Q 33.9375 -1.421875 27.875 -1.421875 
Q 17.96875 -1.421875 11.734375 6.484375 
Q 5.515625 14.40625 5.515625 27.296875 
Q 5.515625 40.1875 11.734375 48.09375 
Q 17.96875 56 27.875 56 
Q 33.9375 56 38.25 53.625 
Q 42.578125 51.265625 45.40625 46.390625 
z
M 14.796875 27.296875 
Q 14.796875 17.390625 18.875 11.75 
Q 22.953125 6.109375 30.078125 6.109375 
Q 37.203125 6.109375 41.296875 11.75 
Q 45.40625 17.390625 45.40625 27.296875 
Q 45.40625 37.203125 41.296875 42.84375 
Q 37.203125 48.484375 30.078125 48.484375 
Q 22.953125 48.484375 18.875 42.84375 
Q 14.796875 37.203125 14.796875 27.296875 
z
" id="DejaVuSans-100"/>
       <path d="M 9.8125 72.90625 
L 51.703125 72.90625 
L 51.703125 64.59375 
L 19.671875 64.59375 
L 19.671875 43.109375 
L 48.578125 43.109375 
L 48.578125 34.8125 
L 19.671875 34.8125 
L 19.671875 0 
L 9.8125 0 
z
" id="DejaVuSans-70"/>
      </defs>
      <use xlink:href="#DejaVuSans-82"/>
      <use x="67.232422" xlink:href="#DejaVuSans-97"/>
      <use x="128.511719" xlink:href="#DejaVuSans-110"/>
      <use x="191.890625" xlink:href="#DejaVuSans-100"/>
      <use x="255.367188" xlink:href="#DejaVuSans-111"/>
      <use x="316.548828" xlink:href="#DejaVuSans-109"/>
      <use x="413.960938" xlink:href="#DejaVuSans-32"/>
      <use x="445.748047" xlink:href="#DejaVuSans-70"/>
      <use x="499.642578" xlink:href="#DejaVuSans-111"/>
      <use x="560.824219" xlink:href="#DejaVuSans-114"/>
      <use x="599.6875" xlink:href="#DejaVuSans-101"/>
      <use x="661.210938" xlink:href="#DejaVuSans-115"/>
      <use x="713.310547" xlink:href="#DejaVuSans-116"/>
     </g>
    </g>
    <g id="line2d_17">
     <path d="M 66.6 263.648062 
L 86.6 263.648062 
" style="fill:none;stroke:#ff7f0e;stroke-linecap:square;stroke-width:1.5;"/>
    </g>
    <g id="line2d_18"/>
    <g id="text_15">
     <!-- AdaBoost -->
     <g transform="translate(94.6 267.148062)scale(0.1 -0.1)">
      <defs>
       <path d="M 19.671875 34.8125 
L 19.671875 8.109375 
L 35.5 8.109375 
Q 43.453125 8.109375 47.28125 11.40625 
Q 51.125 14.703125 51.125 21.484375 
Q 51.125 28.328125 47.28125 31.5625 
Q 43.453125 34.8125 35.5 34.8125 
z
M 19.671875 64.796875 
L 19.671875 42.828125 
L 34.28125 42.828125 
Q 41.5 42.828125 45.03125 45.53125 
Q 48.578125 48.25 48.578125 53.8125 
Q 48.578125 59.328125 45.03125 62.0625 
Q 41.5 64.796875 34.28125 64.796875 
z
M 9.8125 72.90625 
L 35.015625 72.90625 
Q 46.296875 72.90625 52.390625 68.21875 
Q 58.5 63.53125 58.5 54.890625 
Q 58.5 48.1875 55.375 44.234375 
Q 52.25 40.28125 46.1875 39.3125 
Q 53.46875 37.75 57.5 32.78125 
Q 61.53125 27.828125 61.53125 20.40625 
Q 61.53125 10.640625 54.890625 5.3125 
Q 48.25 0 35.984375 0 
L 9.8125 0 
z
" id="DejaVuSans-66"/>
      </defs>
      <use xlink:href="#DejaVuSans-65"/>
      <use x="66.658203" xlink:href="#DejaVuSans-100"/>
      <use x="130.134766" xlink:href="#DejaVuSans-97"/>
      <use x="191.414062" xlink:href="#DejaVuSans-66"/>
      <use x="260.017578" xlink:href="#DejaVuSans-111"/>
      <use x="321.199219" xlink:href="#DejaVuSans-111"/>
      <use x="382.380859" xlink:href="#DejaVuSans-115"/>
      <use x="434.480469" xlink:href="#DejaVuSans-116"/>
     </g>
    </g>
    <g id="line2d_19">
     <path d="M 66.6 278.326187 
L 86.6 278.326187 
" style="fill:none;stroke:#2ca02c;stroke-linecap:square;stroke-width:1.5;"/>
    </g>
    <g id="line2d_20"/>
    <g id="text_16">
     <!-- LightGBM -->
     <g transform="translate(94.6 281.826187)scale(0.1 -0.1)">
      <defs>
       <path d="M 9.8125 72.90625 
L 19.671875 72.90625 
L 19.671875 8.296875 
L 55.171875 8.296875 
L 55.171875 0 
L 9.8125 0 
z
" id="DejaVuSans-76"/>
       <path d="M 45.40625 27.984375 
Q 45.40625 37.75 41.375 43.109375 
Q 37.359375 48.484375 30.078125 48.484375 
Q 22.859375 48.484375 18.828125 43.109375 
Q 14.796875 37.75 14.796875 27.984375 
Q 14.796875 18.265625 18.828125 12.890625 
Q 22.859375 7.515625 30.078125 7.515625 
Q 37.359375 7.515625 41.375 12.890625 
Q 45.40625 18.265625 45.40625 27.984375 
z
M 54.390625 6.78125 
Q 54.390625 -7.171875 48.1875 -13.984375 
Q 42 -20.796875 29.203125 -20.796875 
Q 24.46875 -20.796875 20.265625 -20.09375 
Q 16.0625 -19.390625 12.109375 -17.921875 
L 12.109375 -9.1875 
Q 16.0625 -11.328125 19.921875 -12.34375 
Q 23.78125 -13.375 27.78125 -13.375 
Q 36.625 -13.375 41.015625 -8.765625 
Q 45.40625 -4.15625 45.40625 5.171875 
L 45.40625 9.625 
Q 42.625 4.78125 38.28125 2.390625 
Q 33.9375 0 27.875 0 
Q 17.828125 0 11.671875 7.65625 
Q 5.515625 15.328125 5.515625 27.984375 
Q 5.515625 40.671875 11.671875 48.328125 
Q 17.828125 56 27.875 56 
Q 33.9375 56 38.28125 53.609375 
Q 42.625 51.21875 45.40625 46.390625 
L 45.40625 54.6875 
L 54.390625 54.6875 
z
" id="DejaVuSans-103"/>
       <path d="M 54.890625 33.015625 
L 54.890625 0 
L 45.90625 0 
L 45.90625 32.71875 
Q 45.90625 40.484375 42.875 44.328125 
Q 39.84375 48.1875 33.796875 48.1875 
Q 26.515625 48.1875 22.3125 43.546875 
Q 18.109375 38.921875 18.109375 30.90625 
L 18.109375 0 
L 9.078125 0 
L 9.078125 75.984375 
L 18.109375 75.984375 
L 18.109375 46.1875 
Q 21.34375 51.125 25.703125 53.5625 
Q 30.078125 56 35.796875 56 
Q 45.21875 56 50.046875 50.171875 
Q 54.890625 44.34375 54.890625 33.015625 
z
" id="DejaVuSans-104"/>
       <path d="M 59.515625 10.40625 
L 59.515625 29.984375 
L 43.40625 29.984375 
L 43.40625 38.09375 
L 69.28125 38.09375 
L 69.28125 6.78125 
Q 63.578125 2.734375 56.6875 0.65625 
Q 49.8125 -1.421875 42 -1.421875 
Q 24.90625 -1.421875 15.25 8.5625 
Q 5.609375 18.5625 5.609375 36.375 
Q 5.609375 54.25 15.25 64.234375 
Q 24.90625 74.21875 42 74.21875 
Q 49.125 74.21875 55.546875 72.453125 
Q 61.96875 70.703125 67.390625 67.28125 
L 67.390625 56.78125 
Q 61.921875 61.421875 55.765625 63.765625 
Q 49.609375 66.109375 42.828125 66.109375 
Q 29.4375 66.109375 22.71875 58.640625 
Q 16.015625 51.171875 16.015625 36.375 
Q 16.015625 21.625 22.71875 14.15625 
Q 29.4375 6.6875 42.828125 6.6875 
Q 48.046875 6.6875 52.140625 7.59375 
Q 56.25 8.5 59.515625 10.40625 
z
" id="DejaVuSans-71"/>
       <path d="M 9.8125 72.90625 
L 24.515625 72.90625 
L 43.109375 23.296875 
L 61.8125 72.90625 
L 76.515625 72.90625 
L 76.515625 0 
L 66.890625 0 
L 66.890625 64.015625 
L 48.09375 14.015625 
L 38.1875 14.015625 
L 19.390625 64.015625 
L 19.390625 0 
L 9.8125 0 
z
" id="DejaVuSans-77"/>
      </defs>
      <use xlink:href="#DejaVuSans-76"/>
      <use x="55.712891" xlink:href="#DejaVuSans-105"/>
      <use x="83.496094" xlink:href="#DejaVuSans-103"/>
      <use x="146.972656" xlink:href="#DejaVuSans-104"/>
      <use x="210.351562" xlink:href="#DejaVuSans-116"/>
      <use x="249.560547" xlink:href="#DejaVuSans-71"/>
      <use x="327.050781" xlink:href="#DejaVuSans-66"/>
      <use x="395.654297" xlink:href="#DejaVuSans-77"/>
     </g>
    </g>
    <g id="line2d_21">
     <path d="M 66.6 293.004312 
L 86.6 293.004312 
" style="fill:none;stroke:#d62728;stroke-linecap:square;stroke-width:1.5;"/>
    </g>
    <g id="line2d_22"/>
    <g id="text_17">
     <!-- XGBoost -->
     <g transform="translate(94.6 296.504312)scale(0.1 -0.1)">
      <defs>
       <path d="M 6.296875 72.90625 
L 16.890625 72.90625 
L 35.015625 45.796875 
L 53.21875 72.90625 
L 63.8125 72.90625 
L 40.375 37.890625 
L 65.375 0 
L 54.78125 0 
L 34.28125 31 
L 13.625 0 
L 2.984375 0 
L 29 38.921875 
z
" id="DejaVuSans-88"/>
      </defs>
      <use xlink:href="#DejaVuSans-88"/>
      <use x="68.505859" xlink:href="#DejaVuSans-71"/>
      <use x="145.996094" xlink:href="#DejaVuSans-66"/>
      <use x="214.599609" xlink:href="#DejaVuSans-111"/>
      <use x="275.78125" xlink:href="#DejaVuSans-111"/>
      <use x="336.962891" xlink:href="#DejaVuSans-115"/>
      <use x="389.0625" xlink:href="#DejaVuSans-116"/>
     </g>
    </g>
   </g>
  </g>
 </g>
 <defs>
  <clipPath id="pa6928de43a">
   <rect height="266.112" width="357.12" x="57.6" y="41.472"/>
  </clipPath>
 </defs>
</svg>
