<?xml version="1.0" encoding="utf-8" standalone="no"?>
<!DOCTYPE svg PUBLIC "-//W3C//DTD SVG 1.1//EN"
  "http://www.w3.org/Graphics/SVG/1.1/DTD/svg11.dtd">
<!-- Created with matplotlib (https://matplotlib.org/) -->
<svg height="345.6pt" version="1.1" viewBox="0 0 460.8 345.6" width="460.8pt" xmlns="http://www.w3.org/2000/svg" xmlns:xlink="http://www.w3.org/1999/xlink">
 <metadata>
  <rdf:RDF xmlns:cc="http://creativecommons.org/ns#" xmlns:dc="http://purl.org/dc/elements/1.1/" xmlns:rdf="http://www.w3.org/1999/02/22-rdf-syntax-ns#">
   <cc:Work>
    <dc:type rdf:resource="http://purl.org/dc/dcmitype/StillImage"/>
    <dc:date>2023-09-19T16:58:38.324461</dc:date>
    <dc:format>image/svg+xml</dc:format>
    <dc:creator>
     <cc:Agent>
      <dc:title>Matplotlib v3.3.4, https://matplotlib.org/</dc:title>
     </cc:Agent>
    </dc:creator>
   </cc:Work>
  </rdf:RDF>
 </metadata>
 <defs>
  <style type="text/css">*{stroke-linecap:butt;stroke-linejoin:round;}</style>
 </defs>
 <g id="figure_1">
  <g id="patch_1">
   <path d="M 0 345.6 
L 460.8 345.6 
L 460.8 0 
L 0 0 
z
" style="fill:#ffffff;"/>
  </g>
  <g id="axes_1">
   <g id="patch_2">
    <path d="M 57.6 307.584 
L 414.72 307.584 
L 414.72 41.472 
L 57.6 41.472 
z
" style="fill:#ffffff;"/>
   </g>
   <g id="PolyCollection_1">
    <path clip-path="url(#p0d1c2f32a9)" d="M 73.832727 109.435451 
L 73.832727 109.435451 
L 77.112066 116.934747 
L 80.391405 120.106003 
L 83.670744 121.600658 
L 86.950083 123.268023 
L 90.229421 120.93731 
L 93.50876 119.919149 
L 96.788099 118.54904 
L 100.067438 122.110992 
L 103.346777 123.680052 
L 106.626116 124.938884 
L 109.905455 128.078994 
L 113.184793 121.038566 
L 116.464132 133.586491 
L 119.743471 131.754317 
L 123.02281 129.904899 
L 126.302149 128.707141 
L 129.581488 132.429117 
L 132.860826 126.583035 
L 136.140165 131.561447 
L 139.419504 133.735646 
L 142.698843 134.553754 
L 145.978182 141.23367 
L 149.257521 129.558902 
L 152.53686 140.669283 
L 155.816198 139.955464 
L 159.095537 138.591117 
L 162.374876 141.794947 
L 165.654215 146.463811 
L 168.933554 138.371787 
L 172.212893 148.055961 
L 175.492231 144.071835 
L 178.77157 151.621434 
L 182.050909 153.061293 
L 185.330248 151.886402 
L 188.609587 159.793711 
L 191.888926 143.051667 
L 195.168264 157.933703 
L 198.447603 162.962918 
L 201.726942 163.410407 
L 205.006281 155.801215 
L 208.28562 161.541781 
L 211.564959 168.393776 
L 214.844298 165.314122 
L 218.123636 164.258544 
L 221.402975 166.878468 
L 224.682314 167.00875 
L 227.961653 171.912425 
L 231.240992 169.122195 
L 234.520331 174.622517 
L 237.799669 179.080362 
L 241.079008 179.439717 
L 244.358347 175.255221 
L 247.637686 182.629067 
L 250.917025 186.812909 
L 254.196364 173.273562 
L 257.475702 181.505054 
L 260.755041 186.814087 
L 264.03438 191.158487 
L 267.313719 192.808161 
L 270.593058 187.052171 
L 273.872397 194.796891 
L 277.151736 193.772492 
L 280.431074 197.988557 
L 283.710413 190.589916 
L 286.989752 201.067846 
L 290.269091 202.045386 
L 293.54843 195.329539 
L 296.827769 200.182901 
L 300.107107 210.735286 
L 303.386446 209.336589 
L 306.665785 205.26036 
L 309.945124 218.497231 
L 313.224463 220.224081 
L 316.503802 218.874383 
L 319.78314 219.710627 
L 323.062479 224.952851 
L 326.341818 229.364968 
L 329.621157 230.2269 
L 332.900496 235.048305 
L 336.179835 236.757168 
L 339.459174 239.92784 
L 342.738512 233.438321 
L 346.017851 238.54998 
L 349.29719 246.966533 
L 352.576529 249.490509 
L 355.855868 254.052252 
L 359.135207 256.485708 
L 362.414545 257.043565 
L 365.693884 255.068647 
L 368.973223 266.69561 
L 372.252562 262.913833 
L 375.531901 274.665439 
L 378.81124 270.695587 
L 382.090579 281.62785 
L 385.369917 281.864636 
L 388.649256 282.38974 
L 391.928595 286.620596 
L 395.207934 285.625295 
L 398.487273 282.004864 
L 398.487273 257.147773 
L 398.487273 257.147773 
L 395.207934 245.502855 
L 391.928595 245.205335 
L 388.649256 230.247199 
L 385.369917 214.723327 
L 382.090579 214.785667 
L 378.81124 211.936745 
L 375.531901 203.605757 
L 372.252562 183.608303 
L 368.973223 186.10656 
L 365.693884 175.055622 
L 362.414545 187.385226 
L 359.135207 176.255241 
L 355.855868 167.000857 
L 352.576529 165.980347 
L 349.29719 165.364306 
L 346.017851 159.825228 
L 342.738512 162.320207 
L 339.459174 155.830687 
L 336.179835 156.210233 
L 332.900496 158.791323 
L 329.621157 150.878214 
L 326.341818 152.786819 
L 323.062479 149.174448 
L 319.78314 138.542141 
L 316.503802 143.565074 
L 313.224463 134.53978 
L 309.945124 141.499992 
L 306.665785 135.54787 
L 303.386446 140.19391 
L 300.107107 135.48075 
L 296.827769 128.414151 
L 293.54843 128.906379 
L 290.269091 131.785028 
L 286.989752 129.27366 
L 283.710413 129.459313 
L 280.431074 127.991815 
L 277.151736 121.915601 
L 273.872397 127.694572 
L 270.593058 120.78588 
L 267.313719 114.157663 
L 264.03438 117.2029 
L 260.755041 122.070636 
L 257.475702 113.947375 
L 254.196364 113.456597 
L 250.917025 115.093999 
L 247.637686 112.47447 
L 244.358347 101.18266 
L 241.079008 111.651576 
L 237.799669 108.870915 
L 234.520331 99.024237 
L 231.240992 99.988979 
L 227.961653 97.373194 
L 224.682314 106.812451 
L 221.402975 96.301563 
L 218.123636 95.607025 
L 214.844298 105.367061 
L 211.564959 99.845172 
L 208.28562 96.230443 
L 205.006281 86.619815 
L 201.726942 94.012926 
L 198.447603 90.448171 
L 195.168264 82.917318 
L 191.888926 85.762622 
L 188.609587 86.814008 
L 185.330248 86.173493 
L 182.050909 89.010846 
L 178.77157 80.681763 
L 175.492231 83.870228 
L 172.212893 82.502782 
L 168.933554 85.558031 
L 165.654215 85.141604 
L 162.374876 80.564863 
L 159.095537 82.37313 
L 155.816198 80.485447 
L 152.53686 78.724956 
L 149.257521 74.484142 
L 145.978182 86.708392 
L 142.698843 76.467106 
L 139.419504 76.064096 
L 136.140165 73.004934 
L 132.860826 73.796656 
L 129.581488 79.638415 
L 126.302149 73.242559 
L 123.02281 77.278162 
L 119.743471 71.765391 
L 116.464132 79.178823 
L 113.184793 75.328881 
L 109.905455 77.185168 
L 106.626116 76.313034 
L 103.346777 76.001858 
L 100.067438 74.954237 
L 96.788099 78.341743 
L 93.50876 80.460542 
L 90.229421 78.744599 
L 86.950083 88.276173 
L 83.670744 88.547975 
L 80.391405 90.042629 
L 77.112066 92.341659 
L 73.832727 109.435451 
z
" style="fill:#1f77b4;fill-opacity:0.2;"/>
   </g>
   <g id="PolyCollection_2">
    <path clip-path="url(#p0d1c2f32a9)" d="M 73.832727 196.658146 
L 73.832727 196.658146 
L 77.112066 204.585843 
L 80.391405 207.919655 
L 83.670744 208.801775 
L 86.950083 211.551299 
L 90.229421 214.187182 
L 93.50876 215.065016 
L 96.788099 214.503253 
L 100.067438 221.971118 
L 103.346777 216.781042 
L 106.626116 216.857467 
L 109.905455 217.868941 
L 113.184793 220.591961 
L 116.464132 225.994622 
L 119.743471 224.608672 
L 123.02281 223.72676 
L 126.302149 223.536238 
L 129.581488 226.570625 
L 132.860826 223.963679 
L 136.140165 223.815538 
L 139.419504 226.925934 
L 142.698843 223.437026 
L 145.978182 234.285178 
L 149.257521 225.677528 
L 152.53686 229.970012 
L 155.816198 227.673907 
L 159.095537 228.179226 
L 162.374876 230.892341 
L 165.654215 234.503265 
L 168.933554 239.084298 
L 172.212893 234.520883 
L 175.492231 234.285472 
L 178.77157 232.447758 
L 182.050909 240.674828 
L 185.330248 233.335738 
L 188.609587 239.526395 
L 191.888926 232.613983 
L 195.168264 238.17967 
L 198.447603 238.896484 
L 201.726942 240.580002 
L 205.006281 243.157114 
L 208.28562 245.058428 
L 211.564959 241.535278 
L 214.844298 245.104755 
L 218.123636 240.759225 
L 221.402975 243.038124 
L 224.682314 248.496158 
L 227.961653 246.270034 
L 231.240992 250.076014 
L 234.520331 246.193828 
L 237.799669 249.825325 
L 241.079008 252.264584 
L 244.358347 245.195345 
L 247.637686 249.477756 
L 250.917025 255.766173 
L 254.196364 250.419743 
L 257.475702 253.828397 
L 260.755041 258.026223 
L 264.03438 253.887767 
L 267.313719 260.929816 
L 270.593058 259.262852 
L 273.872397 262.814936 
L 277.151736 255.340141 
L 280.431074 266.684863 
L 283.710413 256.193582 
L 286.989752 251.546017 
L 290.269091 273.506931 
L 293.54843 265.678117 
L 296.827769 272.022297 
L 300.107107 269.358556 
L 303.386446 265.256327 
L 306.665785 267.832911 
L 309.945124 267.346401 
L 313.224463 271.269477 
L 316.503802 273.592588 
L 319.78314 269.223152 
L 323.062479 269.587656 
L 326.341818 278.99637 
L 329.621157 281.745281 
L 332.900496 283.293275 
L 336.179835 274.940593 
L 339.459174 274.244498 
L 342.738512 285.837404 
L 346.017851 278.77536 
L 349.29719 277.450182 
L 352.576529 278.148179 
L 355.855868 280.47643 
L 359.135207 291.561168 
L 362.414545 287.83279 
L 365.693884 283.374839 
L 368.973223 289.216892 
L 372.252562 284.611969 
L 375.531901 293.005971 
L 378.81124 288.706463 
L 382.090579 295.488 
L 385.369917 292.873076 
L 388.649256 288.769862 
L 391.928595 285.013623 
L 395.207934 288.897497 
L 398.487273 286.883416 
L 398.487273 260.119264 
L 398.487273 260.119264 
L 395.207934 256.535174 
L 391.928595 250.824552 
L 388.649256 248.638322 
L 385.369917 246.105116 
L 382.090579 236.163486 
L 378.81124 233.176081 
L 375.531901 235.156607 
L 372.252562 220.698263 
L 368.973223 226.734508 
L 365.693884 225.424301 
L 362.414545 224.804148 
L 359.135207 211.132383 
L 355.855868 221.868231 
L 352.576529 213.555312 
L 349.29719 209.71773 
L 346.017851 208.566996 
L 342.738512 213.890576 
L 339.459174 210.655624 
L 336.179835 202.632822 
L 332.900496 206.840208 
L 329.621157 206.818194 
L 326.341818 206.078197 
L 323.062479 199.786826 
L 319.78314 198.057985 
L 316.503802 205.550835 
L 313.224463 191.824971 
L 309.945124 199.4114 
L 306.665785 195.087092 
L 303.386446 199.75702 
L 300.107107 198.097027 
L 296.827769 190.723259 
L 293.54843 192.182968 
L 290.269091 198.658677 
L 286.989752 185.556068 
L 283.710413 178.466267 
L 280.431074 194.141794 
L 277.151736 184.029734 
L 273.872397 186.672771 
L 270.593058 186.038166 
L 267.313719 188.557892 
L 264.03438 178.678737 
L 260.755041 183.436997 
L 257.475702 181.354788 
L 254.196364 174.820055 
L 250.917025 174.358096 
L 247.637686 172.098689 
L 244.358347 172.717747 
L 241.079008 168.265189 
L 237.799669 180.996726 
L 234.520331 174.684835 
L 231.240992 169.058196 
L 227.961653 177.574201 
L 224.682314 179.883657 
L 221.402975 170.688279 
L 218.123636 180.119438 
L 214.844298 170.01721 
L 211.564959 178.471158 
L 208.28562 178.262471 
L 205.006281 168.475944 
L 201.726942 169.657492 
L 198.447603 173.434355 
L 195.168264 164.731118 
L 191.888926 165.93567 
L 188.609587 167.047747 
L 185.330248 169.749496 
L 182.050909 167.294877 
L 178.77157 165.229669 
L 175.492231 173.335342 
L 172.212893 164.900998 
L 168.933554 172.548759 
L 165.654215 172.245321 
L 162.374876 164.168405 
L 159.095537 165.137066 
L 155.816198 167.73573 
L 152.53686 172.940776 
L 149.257521 165.196529 
L 145.978182 165.660038 
L 142.698843 168.134811 
L 139.419504 171.623719 
L 136.140165 166.360737 
L 132.860826 168.829276 
L 129.581488 169.187902 
L 126.302149 169.431163 
L 123.02281 165.053952 
L 119.743471 169.928738 
L 116.464132 174.648376 
L 113.184793 174.64323 
L 109.905455 173.702896 
L 106.626116 163.724311 
L 103.346777 168.859652 
L 100.067438 177.276317 
L 96.788099 173.230786 
L 93.50876 175.460149 
L 90.229421 177.907992 
L 86.950083 176.531631 
L 83.670744 178.234483 
L 80.391405 180.686612 
L 77.112066 184.718205 
L 73.832727 196.658146 
z
" style="fill:#ff7f0e;fill-opacity:0.2;"/>
   </g>
   <g id="PolyCollection_3">
    <path clip-path="url(#p0d1c2f32a9)" d="M 73.832727 57.101834 
L 73.832727 57.101834 
L 77.112066 81.045779 
L 80.391405 90.391163 
L 83.670744 96.154679 
L 86.950083 104.726256 
L 90.229421 106.295856 
L 93.50876 111.295339 
L 96.788099 113.762108 
L 100.067438 120.584363 
L 103.346777 122.11979 
L 106.626116 124.706665 
L 109.905455 121.938346 
L 113.184793 123.267323 
L 116.464132 135.956501 
L 119.743471 132.508621 
L 123.02281 132.348204 
L 126.302149 131.707745 
L 129.581488 134.477832 
L 132.860826 142.661727 
L 136.140165 142.914017 
L 139.419504 147.345106 
L 142.698843 140.097525 
L 145.978182 150.906567 
L 149.257521 145.921494 
L 152.53686 150.920637 
L 155.816198 153.089995 
L 159.095537 156.23658 
L 162.374876 150.749082 
L 165.654215 157.250927 
L 168.933554 160.443455 
L 172.212893 163.656801 
L 175.492231 166.687181 
L 178.77157 160.555341 
L 182.050909 161.806072 
L 185.330248 169.918798 
L 188.609587 162.409328 
L 191.888926 158.939472 
L 195.168264 162.138003 
L 198.447603 165.788745 
L 201.726942 165.762001 
L 205.006281 169.933341 
L 208.28562 177.326145 
L 211.564959 170.508097 
L 214.844298 174.642686 
L 218.123636 182.374966 
L 221.402975 175.498051 
L 224.682314 177.818044 
L 227.961653 184.390487 
L 231.240992 178.122326 
L 234.520331 181.712066 
L 237.799669 189.464164 
L 241.079008 194.43613 
L 244.358347 176.791459 
L 247.637686 180.998647 
L 250.917025 183.929639 
L 254.196364 181.223434 
L 257.475702 188.566566 
L 260.755041 184.437164 
L 264.03438 193.307581 
L 267.313719 185.097821 
L 270.593058 186.158665 
L 273.872397 187.661321 
L 277.151736 187.344841 
L 280.431074 191.838221 
L 283.710413 189.274187 
L 286.989752 193.023529 
L 290.269091 197.377286 
L 293.54843 188.650192 
L 296.827769 199.813962 
L 300.107107 197.719945 
L 303.386446 202.28074 
L 306.665785 203.749098 
L 309.945124 208.553488 
L 313.224463 202.177383 
L 316.503802 202.30083 
L 319.78314 207.06974 
L 323.062479 206.515563 
L 326.341818 203.52994 
L 329.621157 209.003717 
L 332.900496 212.590364 
L 336.179835 207.857094 
L 339.459174 206.378391 
L 342.738512 207.866556 
L 346.017851 211.412833 
L 349.29719 212.895773 
L 352.576529 214.774108 
L 355.855868 214.52276 
L 359.135207 211.371759 
L 362.414545 208.566746 
L 365.693884 210.148319 
L 368.973223 220.754916 
L 372.252562 217.55807 
L 375.531901 215.129606 
L 378.81124 216.258446 
L 382.090579 220.254988 
L 385.369917 213.147175 
L 388.649256 215.144333 
L 391.928595 212.589218 
L 395.207934 211.195361 
L 398.487273 210.681107 
L 398.487273 195.020807 
L 398.487273 195.020807 
L 395.207934 194.157663 
L 391.928595 191.542688 
L 388.649256 181.835312 
L 385.369917 184.18136 
L 382.090579 174.282422 
L 378.81124 174.26672 
L 375.531901 172.778879 
L 372.252562 167.210398 
L 368.973223 167.85135 
L 365.693884 160.141181 
L 362.414545 158.582738 
L 359.135207 153.68438 
L 355.855868 155.243404 
L 352.576529 147.839796 
L 349.29719 143.26365 
L 346.017851 153.46886 
L 342.738512 136.779472 
L 339.459174 140.186537 
L 336.179835 143.76675 
L 332.900496 139.207925 
L 329.621157 136.863429 
L 326.341818 130.300474 
L 323.062479 139.700474 
L 319.78314 134.261826 
L 316.503802 130.482911 
L 313.224463 135.839721 
L 309.945124 134.871423 
L 306.665785 128.860198 
L 303.386446 124.920749 
L 300.107107 129.307098 
L 296.827769 125.643073 
L 293.54843 121.455649 
L 290.269091 136.802019 
L 286.989752 130.514607 
L 283.710413 119.436091 
L 280.431074 125.768772 
L 277.151736 123.807673 
L 273.872397 118.606722 
L 270.593058 125.342739 
L 267.313719 118.030204 
L 264.03438 119.589386 
L 260.755041 123.924223 
L 257.475702 122.411502 
L 254.196364 109.344524 
L 250.917025 120.59395 
L 247.637686 114.977117 
L 244.358347 110.113146 
L 241.079008 117.937501 
L 237.799669 114.012752 
L 234.520331 116.705934 
L 231.240992 107.561161 
L 227.961653 110.364159 
L 224.682314 108.388779 
L 221.402975 103.55651 
L 218.123636 107.49521 
L 214.844298 111.389692 
L 211.564959 107.848683 
L 208.28562 104.693989 
L 205.006281 95.340035 
L 201.726942 100.383602 
L 198.447603 104.369102 
L 195.168264 101.390919 
L 191.888926 89.761592 
L 188.609587 95.014005 
L 185.330248 98.843486 
L 182.050909 100.501733 
L 178.77157 98.786892 
L 175.492231 104.691783 
L 172.212893 100.221012 
L 168.933554 100.119896 
L 165.654215 97.904616 
L 162.374876 90.276385 
L 159.095537 95.953392 
L 155.816198 93.517724 
L 152.53686 88.360376 
L 149.257521 92.836183 
L 145.978182 89.944455 
L 142.698843 92.205673 
L 139.419504 91.412571 
L 136.140165 86.946945 
L 132.860826 86.675899 
L 129.581488 77.415255 
L 126.302149 88.035384 
L 123.02281 84.429354 
L 119.743471 80.954474 
L 116.464132 79.076603 
L 113.184793 77.286814 
L 109.905455 78.61579 
L 106.626116 75.324136 
L 103.346777 75.468775 
L 100.067438 74.736411 
L 96.788099 72.313061 
L 93.50876 66.232006 
L 90.229421 70.184817 
L 86.950083 68.091063 
L 83.670744 61.660337 
L 80.391405 58.701584 
L 77.112066 53.568 
L 73.832727 57.101834 
z
" style="fill:#2ca02c;fill-opacity:0.2;"/>
   </g>
   <g id="PolyCollection_4">
    <path clip-path="url(#p0d1c2f32a9)" d="M 73.832727 109.435451 
L 73.832727 109.435451 
L 77.112066 128.868335 
L 80.391405 148.351201 
L 83.670744 160.957123 
L 86.950083 175.229063 
L 90.229421 203.314028 
L 93.50876 212.808188 
L 96.788099 238.322508 
L 100.067438 256.51295 
L 103.346777 258.180682 
L 106.626116 272.704001 
L 109.905455 279.703421 
L 113.184793 277.534763 
L 116.464132 284.408796 
L 119.743471 282.239417 
L 123.02281 283.545494 
L 126.302149 287.092232 
L 129.581488 284.006867 
L 132.860826 282.277471 
L 136.140165 281.3406 
L 139.419504 281.523431 
L 142.698843 279.058718 
L 145.978182 280.195996 
L 149.257521 279.431611 
L 152.53686 278.023804 
L 155.816198 277.189715 
L 159.095537 277.295082 
L 162.374876 277.068726 
L 165.654215 276.392086 
L 168.933554 277.352965 
L 172.212893 276.384811 
L 175.492231 276.392086 
L 178.77157 275.158571 
L 182.050909 275.158571 
L 185.330248 276.113649 
L 188.609587 276.113649 
L 191.888926 275.158571 
L 195.168264 276.113649 
L 198.447603 275.158571 
L 201.726942 275.158571 
L 205.006281 275.158571 
L 208.28562 275.158571 
L 211.564959 275.158571 
L 214.844298 275.158571 
L 218.123636 275.158571 
L 221.402975 275.158571 
L 224.682314 275.158571 
L 227.961653 275.158571 
L 231.240992 275.158571 
L 234.520331 275.158571 
L 237.799669 275.158571 
L 241.079008 275.158571 
L 244.358347 275.158571 
L 247.637686 275.158571 
L 250.917025 275.158571 
L 254.196364 275.158571 
L 257.475702 275.158571 
L 260.755041 275.158571 
L 264.03438 275.158571 
L 267.313719 275.158571 
L 270.593058 275.158571 
L 273.872397 275.158571 
L 277.151736 275.158571 
L 280.431074 275.158571 
L 283.710413 275.158571 
L 286.989752 275.158571 
L 290.269091 275.158571 
L 293.54843 275.158571 
L 296.827769 275.158571 
L 300.107107 275.158571 
L 303.386446 275.158571 
L 306.665785 275.158571 
L 309.945124 275.158571 
L 313.224463 275.158571 
L 316.503802 275.158571 
L 319.78314 275.158571 
L 323.062479 275.158571 
L 326.341818 275.158571 
L 329.621157 275.158571 
L 332.900496 275.158571 
L 336.179835 275.158571 
L 339.459174 275.158571 
L 342.738512 275.158571 
L 346.017851 275.158571 
L 349.29719 275.158571 
L 352.576529 275.158571 
L 355.855868 275.158571 
L 359.135207 275.158571 
L 362.414545 275.158571 
L 365.693884 275.158571 
L 368.973223 275.158571 
L 372.252562 275.158571 
L 375.531901 275.158571 
L 378.81124 275.158571 
L 382.090579 275.158571 
L 385.369917 275.158571 
L 388.649256 275.158571 
L 391.928595 275.158571 
L 395.207934 275.158571 
L 398.487273 275.158571 
L 398.487273 275.158571 
L 398.487273 275.158571 
L 395.207934 275.158571 
L 391.928595 275.158571 
L 388.649256 275.158571 
L 385.369917 275.158571 
L 382.090579 275.158571 
L 378.81124 275.158571 
L 375.531901 275.158571 
L 372.252562 275.158571 
L 368.973223 275.158571 
L 365.693884 275.158571 
L 362.414545 275.158571 
L 359.135207 275.158571 
L 355.855868 275.158571 
L 352.576529 275.158571 
L 349.29719 275.158571 
L 346.017851 275.158571 
L 342.738512 275.158571 
L 339.459174 275.158571 
L 336.179835 275.158571 
L 332.900496 275.158571 
L 329.621157 275.158571 
L 326.341818 275.158571 
L 323.062479 275.158571 
L 319.78314 275.158571 
L 316.503802 275.158571 
L 313.224463 275.158571 
L 309.945124 275.158571 
L 306.665785 275.158571 
L 303.386446 275.158571 
L 300.107107 275.158571 
L 296.827769 275.158571 
L 293.54843 275.158571 
L 290.269091 275.158571 
L 286.989752 275.158571 
L 283.710413 275.158571 
L 280.431074 275.158571 
L 277.151736 275.158571 
L 273.872397 275.158571 
L 270.593058 275.158571 
L 267.313719 275.158571 
L 264.03438 275.158571 
L 260.755041 275.158571 
L 257.475702 275.158571 
L 254.196364 275.158571 
L 250.917025 275.158571 
L 247.637686 275.158571 
L 244.358347 275.158571 
L 241.079008 275.158571 
L 237.799669 275.158571 
L 234.520331 275.158571 
L 231.240992 275.158571 
L 227.961653 275.158571 
L 224.682314 275.158571 
L 221.402975 275.158571 
L 218.123636 275.158571 
L 214.844298 275.158571 
L 211.564959 275.158571 
L 208.28562 275.158571 
L 205.006281 275.158571 
L 201.726942 275.158571 
L 198.447603 275.158571 
L 195.168264 274.377939 
L 191.888926 275.158571 
L 188.609587 274.377939 
L 185.330248 274.377939 
L 182.050909 275.158571 
L 178.77157 275.158571 
L 175.492231 273.925056 
L 172.212893 273.408995 
L 168.933554 273.487513 
L 165.654215 273.925056 
L 162.374876 273.597307 
L 159.095537 273.02206 
L 155.816198 272.604091 
L 152.53686 272.816675 
L 149.257521 270.711086 
L 145.978182 269.59781 
L 142.698843 268.990634 
L 139.419504 265.653694 
L 136.140165 266.534307 
L 132.860826 263.1552 
L 129.581488 256.715779 
L 126.302149 244.384808 
L 123.02281 247.582656 
L 119.743471 236.50311 
L 116.464132 228.402588 
L 113.184793 216.087628 
L 109.905455 199.265557 
L 106.626116 204.869414 
L 103.346777 187.643672 
L 100.067438 176.751336 
L 96.788099 157.087128 
L 93.50876 132.012285 
L 90.229421 121.445225 
L 86.950083 108.186634 
L 83.670744 103.095136 
L 80.391405 99.826527 
L 77.112066 95.933711 
L 73.832727 109.435451 
z
" style="fill:#d62728;fill-opacity:0.2;"/>
   </g>
   <g id="matplotlib.axis_1">
    <g id="xtick_1">
     <g id="line2d_1">
      <defs>
       <path d="M 0 0 
L 0 3.5 
" id="m6155954238" style="stroke:#000000;stroke-width:0.8;"/>
      </defs>
      <g>
       <use style="stroke:#000000;stroke-width:0.8;" x="401.766612" xlink:href="#m6155954238" y="307.584"/>
      </g>
     </g>
     <g id="text_1">
      <!-- 0 -->
      <g transform="translate(398.585362 322.182437)scale(0.1 -0.1)">
       <defs>
        <path d="M 31.78125 66.40625 
Q 24.171875 66.40625 20.328125 58.90625 
Q 16.5 51.421875 16.5 36.375 
Q 16.5 21.390625 20.328125 13.890625 
Q 24.171875 6.390625 31.78125 6.390625 
Q 39.453125 6.390625 43.28125 13.890625 
Q 47.125 21.390625 47.125 36.375 
Q 47.125 51.421875 43.28125 58.90625 
Q 39.453125 66.40625 31.78125 66.40625 
z
M 31.78125 74.21875 
Q 44.046875 74.21875 50.515625 64.515625 
Q 56.984375 54.828125 56.984375 36.375 
Q 56.984375 17.96875 50.515625 8.265625 
Q 44.046875 -1.421875 31.78125 -1.421875 
Q 19.53125 -1.421875 13.0625 8.265625 
Q 6.59375 17.96875 6.59375 36.375 
Q 6.59375 54.828125 13.0625 64.515625 
Q 19.53125 74.21875 31.78125 74.21875 
z
" id="DejaVuSans-48"/>
       </defs>
       <use xlink:href="#DejaVuSans-48"/>
      </g>
     </g>
    </g>
    <g id="xtick_2">
     <g id="line2d_2">
      <g>
       <use style="stroke:#000000;stroke-width:0.8;" x="336.179835" xlink:href="#m6155954238" y="307.584"/>
      </g>
     </g>
     <g id="text_2">
      <!-- 20 -->
      <g transform="translate(329.817335 322.182437)scale(0.1 -0.1)">
       <defs>
        <path d="M 19.1875 8.296875 
L 53.609375 8.296875 
L 53.609375 0 
L 7.328125 0 
L 7.328125 8.296875 
Q 12.9375 14.109375 22.625 23.890625 
Q 32.328125 33.6875 34.8125 36.53125 
Q 39.546875 41.84375 41.421875 45.53125 
Q 43.3125 49.21875 43.3125 52.78125 
Q 43.3125 58.59375 39.234375 62.25 
Q 35.15625 65.921875 28.609375 65.921875 
Q 23.96875 65.921875 18.8125 64.3125 
Q 13.671875 62.703125 7.8125 59.421875 
L 7.8125 69.390625 
Q 13.765625 71.78125 18.9375 73 
Q 24.125 74.21875 28.421875 74.21875 
Q 39.75 74.21875 46.484375 68.546875 
Q 53.21875 62.890625 53.21875 53.421875 
Q 53.21875 48.921875 51.53125 44.890625 
Q 49.859375 40.875 45.40625 35.40625 
Q 44.1875 33.984375 37.640625 27.21875 
Q 31.109375 20.453125 19.1875 8.296875 
z
" id="DejaVuSans-50"/>
       </defs>
       <use xlink:href="#DejaVuSans-50"/>
       <use x="63.623047" xlink:href="#DejaVuSans-48"/>
      </g>
     </g>
    </g>
    <g id="xtick_3">
     <g id="line2d_3">
      <g>
       <use style="stroke:#000000;stroke-width:0.8;" x="270.593058" xlink:href="#m6155954238" y="307.584"/>
      </g>
     </g>
     <g id="text_3">
      <!-- 40 -->
      <g transform="translate(264.230558 322.182437)scale(0.1 -0.1)">
       <defs>
        <path d="M 37.796875 64.3125 
L 12.890625 25.390625 
L 37.796875 25.390625 
z
M 35.203125 72.90625 
L 47.609375 72.90625 
L 47.609375 25.390625 
L 58.015625 25.390625 
L 58.015625 17.1875 
L 47.609375 17.1875 
L 47.609375 0 
L 37.796875 0 
L 37.796875 17.1875 
L 4.890625 17.1875 
L 4.890625 26.703125 
z
" id="DejaVuSans-52"/>
       </defs>
       <use xlink:href="#DejaVuSans-52"/>
       <use x="63.623047" xlink:href="#DejaVuSans-48"/>
      </g>
     </g>
    </g>
    <g id="xtick_4">
     <g id="line2d_4">
      <g>
       <use style="stroke:#000000;stroke-width:0.8;" x="205.006281" xlink:href="#m6155954238" y="307.584"/>
      </g>
     </g>
     <g id="text_4">
      <!-- 60 -->
      <g transform="translate(198.643781 322.182437)scale(0.1 -0.1)">
       <defs>
        <path d="M 33.015625 40.375 
Q 26.375 40.375 22.484375 35.828125 
Q 18.609375 31.296875 18.609375 23.390625 
Q 18.609375 15.53125 22.484375 10.953125 
Q 26.375 6.390625 33.015625 6.390625 
Q 39.65625 6.390625 43.53125 10.953125 
Q 47.40625 15.53125 47.40625 23.390625 
Q 47.40625 31.296875 43.53125 35.828125 
Q 39.65625 40.375 33.015625 40.375 
z
M 52.59375 71.296875 
L 52.59375 62.3125 
Q 48.875 64.0625 45.09375 64.984375 
Q 41.3125 65.921875 37.59375 65.921875 
Q 27.828125 65.921875 22.671875 59.328125 
Q 17.53125 52.734375 16.796875 39.40625 
Q 19.671875 43.65625 24.015625 45.921875 
Q 28.375 48.1875 33.59375 48.1875 
Q 44.578125 48.1875 50.953125 41.515625 
Q 57.328125 34.859375 57.328125 23.390625 
Q 57.328125 12.15625 50.6875 5.359375 
Q 44.046875 -1.421875 33.015625 -1.421875 
Q 20.359375 -1.421875 13.671875 8.265625 
Q 6.984375 17.96875 6.984375 36.375 
Q 6.984375 53.65625 15.1875 63.9375 
Q 23.390625 74.21875 37.203125 74.21875 
Q 40.921875 74.21875 44.703125 73.484375 
Q 48.484375 72.75 52.59375 71.296875 
z
" id="DejaVuSans-54"/>
       </defs>
       <use xlink:href="#DejaVuSans-54"/>
       <use x="63.623047" xlink:href="#DejaVuSans-48"/>
      </g>
     </g>
    </g>
    <g id="xtick_5">
     <g id="line2d_5">
      <g>
       <use style="stroke:#000000;stroke-width:0.8;" x="139.419504" xlink:href="#m6155954238" y="307.584"/>
      </g>
     </g>
     <g id="text_5">
      <!-- 80 -->
      <g transform="translate(133.057004 322.182437)scale(0.1 -0.1)">
       <defs>
        <path d="M 31.78125 34.625 
Q 24.75 34.625 20.71875 30.859375 
Q 16.703125 27.09375 16.703125 20.515625 
Q 16.703125 13.921875 20.71875 10.15625 
Q 24.75 6.390625 31.78125 6.390625 
Q 38.8125 6.390625 42.859375 10.171875 
Q 46.921875 13.96875 46.921875 20.515625 
Q 46.921875 27.09375 42.890625 30.859375 
Q 38.875 34.625 31.78125 34.625 
z
M 21.921875 38.8125 
Q 15.578125 40.375 12.03125 44.71875 
Q 8.5 49.078125 8.5 55.328125 
Q 8.5 64.0625 14.71875 69.140625 
Q 20.953125 74.21875 31.78125 74.21875 
Q 42.671875 74.21875 48.875 69.140625 
Q 55.078125 64.0625 55.078125 55.328125 
Q 55.078125 49.078125 51.53125 44.71875 
Q 48 40.375 41.703125 38.8125 
Q 48.828125 37.15625 52.796875 32.3125 
Q 56.78125 27.484375 56.78125 20.515625 
Q 56.78125 9.90625 50.3125 4.234375 
Q 43.84375 -1.421875 31.78125 -1.421875 
Q 19.734375 -1.421875 13.25 4.234375 
Q 6.78125 9.90625 6.78125 20.515625 
Q 6.78125 27.484375 10.78125 32.3125 
Q 14.796875 37.15625 21.921875 38.8125 
z
M 18.3125 54.390625 
Q 18.3125 48.734375 21.84375 45.5625 
Q 25.390625 42.390625 31.78125 42.390625 
Q 38.140625 42.390625 41.71875 45.5625 
Q 45.3125 48.734375 45.3125 54.390625 
Q 45.3125 60.0625 41.71875 63.234375 
Q 38.140625 66.40625 31.78125 66.40625 
Q 25.390625 66.40625 21.84375 63.234375 
Q 18.3125 60.0625 18.3125 54.390625 
z
" id="DejaVuSans-56"/>
       </defs>
       <use xlink:href="#DejaVuSans-56"/>
       <use x="63.623047" xlink:href="#DejaVuSans-48"/>
      </g>
     </g>
    </g>
    <g id="xtick_6">
     <g id="line2d_6">
      <g>
       <use style="stroke:#000000;stroke-width:0.8;" x="73.832727" xlink:href="#m6155954238" y="307.584"/>
      </g>
     </g>
     <g id="text_6">
      <!-- 100 -->
      <g transform="translate(64.288977 322.182437)scale(0.1 -0.1)">
       <defs>
        <path d="M 12.40625 8.296875 
L 28.515625 8.296875 
L 28.515625 63.921875 
L 10.984375 60.40625 
L 10.984375 69.390625 
L 28.421875 72.90625 
L 38.28125 72.90625 
L 38.28125 8.296875 
L 54.390625 8.296875 
L 54.390625 0 
L 12.40625 0 
z
" id="DejaVuSans-49"/>
       </defs>
       <use xlink:href="#DejaVuSans-49"/>
       <use x="63.623047" xlink:href="#DejaVuSans-48"/>
       <use x="127.246094" xlink:href="#DejaVuSans-48"/>
      </g>
     </g>
    </g>
    <g id="text_7">
     <!-- Number of features -->
     <g transform="translate(187.4225 335.860562)scale(0.1 -0.1)">
      <defs>
       <path d="M 9.8125 72.90625 
L 23.09375 72.90625 
L 55.421875 11.921875 
L 55.421875 72.90625 
L 64.984375 72.90625 
L 64.984375 0 
L 51.703125 0 
L 19.390625 60.984375 
L 19.390625 0 
L 9.8125 0 
z
" id="DejaVuSans-78"/>
       <path d="M 8.5 21.578125 
L 8.5 54.6875 
L 17.484375 54.6875 
L 17.484375 21.921875 
Q 17.484375 14.15625 20.5 10.265625 
Q 23.53125 6.390625 29.59375 6.390625 
Q 36.859375 6.390625 41.078125 11.03125 
Q 45.3125 15.671875 45.3125 23.6875 
L 45.3125 54.6875 
L 54.296875 54.6875 
L 54.296875 0 
L 45.3125 0 
L 45.3125 8.40625 
Q 42.046875 3.421875 37.71875 1 
Q 33.40625 -1.421875 27.6875 -1.421875 
Q 18.265625 -1.421875 13.375 4.4375 
Q 8.5 10.296875 8.5 21.578125 
z
M 31.109375 56 
z
" id="DejaVuSans-117"/>
       <path d="M 52 44.1875 
Q 55.375 50.25 60.0625 53.125 
Q 64.75 56 71.09375 56 
Q 79.640625 56 84.28125 50.015625 
Q 88.921875 44.046875 88.921875 33.015625 
L 88.921875 0 
L 79.890625 0 
L 79.890625 32.71875 
Q 79.890625 40.578125 77.09375 44.375 
Q 74.3125 48.1875 68.609375 48.1875 
Q 61.625 48.1875 57.5625 43.546875 
Q 53.515625 38.921875 53.515625 30.90625 
L 53.515625 0 
L 44.484375 0 
L 44.484375 32.71875 
Q 44.484375 40.625 41.703125 44.40625 
Q 38.921875 48.1875 33.109375 48.1875 
Q 26.21875 48.1875 22.15625 43.53125 
Q 18.109375 38.875 18.109375 30.90625 
L 18.109375 0 
L 9.078125 0 
L 9.078125 54.6875 
L 18.109375 54.6875 
L 18.109375 46.1875 
Q 21.1875 51.21875 25.484375 53.609375 
Q 29.78125 56 35.6875 56 
Q 41.65625 56 45.828125 52.96875 
Q 50 49.953125 52 44.1875 
z
" id="DejaVuSans-109"/>
       <path d="M 48.6875 27.296875 
Q 48.6875 37.203125 44.609375 42.84375 
Q 40.53125 48.484375 33.40625 48.484375 
Q 26.265625 48.484375 22.1875 42.84375 
Q 18.109375 37.203125 18.109375 27.296875 
Q 18.109375 17.390625 22.1875 11.75 
Q 26.265625 6.109375 33.40625 6.109375 
Q 40.53125 6.109375 44.609375 11.75 
Q 48.6875 17.390625 48.6875 27.296875 
z
M 18.109375 46.390625 
Q 20.953125 51.265625 25.265625 53.625 
Q 29.59375 56 35.59375 56 
Q 45.5625 56 51.78125 48.09375 
Q 58.015625 40.1875 58.015625 27.296875 
Q 58.015625 14.40625 51.78125 6.484375 
Q 45.5625 -1.421875 35.59375 -1.421875 
Q 29.59375 -1.421875 25.265625 0.953125 
Q 20.953125 3.328125 18.109375 8.203125 
L 18.109375 0 
L 9.078125 0 
L 9.078125 75.984375 
L 18.109375 75.984375 
z
" id="DejaVuSans-98"/>
       <path d="M 56.203125 29.59375 
L 56.203125 25.203125 
L 14.890625 25.203125 
Q 15.484375 15.921875 20.484375 11.0625 
Q 25.484375 6.203125 34.421875 6.203125 
Q 39.59375 6.203125 44.453125 7.46875 
Q 49.3125 8.734375 54.109375 11.28125 
L 54.109375 2.78125 
Q 49.265625 0.734375 44.1875 -0.34375 
Q 39.109375 -1.421875 33.890625 -1.421875 
Q 20.796875 -1.421875 13.15625 6.1875 
Q 5.515625 13.8125 5.515625 26.8125 
Q 5.515625 40.234375 12.765625 48.109375 
Q 20.015625 56 32.328125 56 
Q 43.359375 56 49.78125 48.890625 
Q 56.203125 41.796875 56.203125 29.59375 
z
M 47.21875 32.234375 
Q 47.125 39.59375 43.09375 43.984375 
Q 39.0625 48.390625 32.421875 48.390625 
Q 24.90625 48.390625 20.390625 44.140625 
Q 15.875 39.890625 15.1875 32.171875 
z
" id="DejaVuSans-101"/>
       <path d="M 41.109375 46.296875 
Q 39.59375 47.171875 37.8125 47.578125 
Q 36.03125 48 33.890625 48 
Q 26.265625 48 22.1875 43.046875 
Q 18.109375 38.09375 18.109375 28.8125 
L 18.109375 0 
L 9.078125 0 
L 9.078125 54.6875 
L 18.109375 54.6875 
L 18.109375 46.1875 
Q 20.953125 51.171875 25.484375 53.578125 
Q 30.03125 56 36.53125 56 
Q 37.453125 56 38.578125 55.875 
Q 39.703125 55.765625 41.0625 55.515625 
z
" id="DejaVuSans-114"/>
       <path id="DejaVuSans-32"/>
       <path d="M 30.609375 48.390625 
Q 23.390625 48.390625 19.1875 42.75 
Q 14.984375 37.109375 14.984375 27.296875 
Q 14.984375 17.484375 19.15625 11.84375 
Q 23.34375 6.203125 30.609375 6.203125 
Q 37.796875 6.203125 41.984375 11.859375 
Q 46.1875 17.53125 46.1875 27.296875 
Q 46.1875 37.015625 41.984375 42.703125 
Q 37.796875 48.390625 30.609375 48.390625 
z
M 30.609375 56 
Q 42.328125 56 49.015625 48.375 
Q 55.71875 40.765625 55.71875 27.296875 
Q 55.71875 13.875 49.015625 6.21875 
Q 42.328125 -1.421875 30.609375 -1.421875 
Q 18.84375 -1.421875 12.171875 6.21875 
Q 5.515625 13.875 5.515625 27.296875 
Q 5.515625 40.765625 12.171875 48.375 
Q 18.84375 56 30.609375 56 
z
" id="DejaVuSans-111"/>
       <path d="M 37.109375 75.984375 
L 37.109375 68.5 
L 28.515625 68.5 
Q 23.6875 68.5 21.796875 66.546875 
Q 19.921875 64.59375 19.921875 59.515625 
L 19.921875 54.6875 
L 34.71875 54.6875 
L 34.71875 47.703125 
L 19.921875 47.703125 
L 19.921875 0 
L 10.890625 0 
L 10.890625 47.703125 
L 2.296875 47.703125 
L 2.296875 54.6875 
L 10.890625 54.6875 
L 10.890625 58.5 
Q 10.890625 67.625 15.140625 71.796875 
Q 19.390625 75.984375 28.609375 75.984375 
z
" id="DejaVuSans-102"/>
       <path d="M 34.28125 27.484375 
Q 23.390625 27.484375 19.1875 25 
Q 14.984375 22.515625 14.984375 16.5 
Q 14.984375 11.71875 18.140625 8.90625 
Q 21.296875 6.109375 26.703125 6.109375 
Q 34.1875 6.109375 38.703125 11.40625 
Q 43.21875 16.703125 43.21875 25.484375 
L 43.21875 27.484375 
z
M 52.203125 31.203125 
L 52.203125 0 
L 43.21875 0 
L 43.21875 8.296875 
Q 40.140625 3.328125 35.546875 0.953125 
Q 30.953125 -1.421875 24.3125 -1.421875 
Q 15.921875 -1.421875 10.953125 3.296875 
Q 6 8.015625 6 15.921875 
Q 6 25.140625 12.171875 29.828125 
Q 18.359375 34.515625 30.609375 34.515625 
L 43.21875 34.515625 
L 43.21875 35.40625 
Q 43.21875 41.609375 39.140625 45 
Q 35.0625 48.390625 27.6875 48.390625 
Q 23 48.390625 18.546875 47.265625 
Q 14.109375 46.140625 10.015625 43.890625 
L 10.015625 52.203125 
Q 14.9375 54.109375 19.578125 55.046875 
Q 24.21875 56 28.609375 56 
Q 40.484375 56 46.34375 49.84375 
Q 52.203125 43.703125 52.203125 31.203125 
z
" id="DejaVuSans-97"/>
       <path d="M 18.3125 70.21875 
L 18.3125 54.6875 
L 36.8125 54.6875 
L 36.8125 47.703125 
L 18.3125 47.703125 
L 18.3125 18.015625 
Q 18.3125 11.328125 20.140625 9.421875 
Q 21.96875 7.515625 27.59375 7.515625 
L 36.8125 7.515625 
L 36.8125 0 
L 27.59375 0 
Q 17.1875 0 13.234375 3.875 
Q 9.28125 7.765625 9.28125 18.015625 
L 9.28125 47.703125 
L 2.6875 47.703125 
L 2.6875 54.6875 
L 9.28125 54.6875 
L 9.28125 70.21875 
z
" id="DejaVuSans-116"/>
       <path d="M 44.28125 53.078125 
L 44.28125 44.578125 
Q 40.484375 46.53125 36.375 47.5 
Q 32.28125 48.484375 27.875 48.484375 
Q 21.1875 48.484375 17.84375 46.4375 
Q 14.5 44.390625 14.5 40.28125 
Q 14.5 37.15625 16.890625 35.375 
Q 19.28125 33.59375 26.515625 31.984375 
L 29.59375 31.296875 
Q 39.15625 29.25 43.1875 25.515625 
Q 47.21875 21.78125 47.21875 15.09375 
Q 47.21875 7.46875 41.1875 3.015625 
Q 35.15625 -1.421875 24.609375 -1.421875 
Q 20.21875 -1.421875 15.453125 -0.5625 
Q 10.6875 0.296875 5.421875 2 
L 5.421875 11.28125 
Q 10.40625 8.6875 15.234375 7.390625 
Q 20.0625 6.109375 24.8125 6.109375 
Q 31.15625 6.109375 34.5625 8.28125 
Q 37.984375 10.453125 37.984375 14.40625 
Q 37.984375 18.0625 35.515625 20.015625 
Q 33.0625 21.96875 24.703125 23.78125 
L 21.578125 24.515625 
Q 13.234375 26.265625 9.515625 29.90625 
Q 5.8125 33.546875 5.8125 39.890625 
Q 5.8125 47.609375 11.28125 51.796875 
Q 16.75 56 26.8125 56 
Q 31.78125 56 36.171875 55.265625 
Q 40.578125 54.546875 44.28125 53.078125 
z
" id="DejaVuSans-115"/>
      </defs>
      <use xlink:href="#DejaVuSans-78"/>
      <use x="74.804688" xlink:href="#DejaVuSans-117"/>
      <use x="138.183594" xlink:href="#DejaVuSans-109"/>
      <use x="235.595703" xlink:href="#DejaVuSans-98"/>
      <use x="299.072266" xlink:href="#DejaVuSans-101"/>
      <use x="360.595703" xlink:href="#DejaVuSans-114"/>
      <use x="401.708984" xlink:href="#DejaVuSans-32"/>
      <use x="433.496094" xlink:href="#DejaVuSans-111"/>
      <use x="494.677734" xlink:href="#DejaVuSans-102"/>
      <use x="529.882812" xlink:href="#DejaVuSans-32"/>
      <use x="561.669922" xlink:href="#DejaVuSans-102"/>
      <use x="596.875" xlink:href="#DejaVuSans-101"/>
      <use x="658.398438" xlink:href="#DejaVuSans-97"/>
      <use x="719.677734" xlink:href="#DejaVuSans-116"/>
      <use x="758.886719" xlink:href="#DejaVuSans-117"/>
      <use x="822.265625" xlink:href="#DejaVuSans-114"/>
      <use x="861.128906" xlink:href="#DejaVuSans-101"/>
      <use x="922.652344" xlink:href="#DejaVuSans-115"/>
     </g>
    </g>
   </g>
   <g id="matplotlib.axis_2">
    <g id="ytick_1">
     <g id="line2d_7">
      <defs>
       <path d="M 0 0 
L -3.5 0 
" id="m589cc40f53" style="stroke:#000000;stroke-width:0.8;"/>
      </defs>
      <g>
       <use style="stroke:#000000;stroke-width:0.8;" x="57.6" xlink:href="#m589cc40f53" y="283.880841"/>
      </g>
     </g>
     <g id="text_8">
      <!-- 0.45 -->
      <g transform="translate(28.334375 287.680059)scale(0.1 -0.1)">
       <defs>
        <path d="M 10.6875 12.40625 
L 21 12.40625 
L 21 0 
L 10.6875 0 
z
" id="DejaVuSans-46"/>
        <path d="M 10.796875 72.90625 
L 49.515625 72.90625 
L 49.515625 64.59375 
L 19.828125 64.59375 
L 19.828125 46.734375 
Q 21.96875 47.46875 24.109375 47.828125 
Q 26.265625 48.1875 28.421875 48.1875 
Q 40.625 48.1875 47.75 41.5 
Q 54.890625 34.8125 54.890625 23.390625 
Q 54.890625 11.625 47.5625 5.09375 
Q 40.234375 -1.421875 26.90625 -1.421875 
Q 22.3125 -1.421875 17.546875 -0.640625 
Q 12.796875 0.140625 7.71875 1.703125 
L 7.71875 11.625 
Q 12.109375 9.234375 16.796875 8.0625 
Q 21.484375 6.890625 26.703125 6.890625 
Q 35.15625 6.890625 40.078125 11.328125 
Q 45.015625 15.765625 45.015625 23.390625 
Q 45.015625 31 40.078125 35.4375 
Q 35.15625 39.890625 26.703125 39.890625 
Q 22.75 39.890625 18.8125 39.015625 
Q 14.890625 38.140625 10.796875 36.28125 
z
" id="DejaVuSans-53"/>
       </defs>
       <use xlink:href="#DejaVuSans-48"/>
       <use x="63.623047" xlink:href="#DejaVuSans-46"/>
       <use x="95.410156" xlink:href="#DejaVuSans-52"/>
       <use x="159.033203" xlink:href="#DejaVuSans-53"/>
      </g>
     </g>
    </g>
    <g id="ytick_2">
     <g id="line2d_8">
      <g>
       <use style="stroke:#000000;stroke-width:0.8;" x="57.6" xlink:href="#m589cc40f53" y="240.269493"/>
      </g>
     </g>
     <g id="text_9">
      <!-- 0.50 -->
      <g transform="translate(28.334375 244.068712)scale(0.1 -0.1)">
       <use xlink:href="#DejaVuSans-48"/>
       <use x="63.623047" xlink:href="#DejaVuSans-46"/>
       <use x="95.410156" xlink:href="#DejaVuSans-53"/>
       <use x="159.033203" xlink:href="#DejaVuSans-48"/>
      </g>
     </g>
    </g>
    <g id="ytick_3">
     <g id="line2d_9">
      <g>
       <use style="stroke:#000000;stroke-width:0.8;" x="57.6" xlink:href="#m589cc40f53" y="196.658146"/>
      </g>
     </g>
     <g id="text_10">
      <!-- 0.55 -->
      <g transform="translate(28.334375 200.457365)scale(0.1 -0.1)">
       <use xlink:href="#DejaVuSans-48"/>
       <use x="63.623047" xlink:href="#DejaVuSans-46"/>
       <use x="95.410156" xlink:href="#DejaVuSans-53"/>
       <use x="159.033203" xlink:href="#DejaVuSans-53"/>
      </g>
     </g>
    </g>
    <g id="ytick_4">
     <g id="line2d_10">
      <g>
       <use style="stroke:#000000;stroke-width:0.8;" x="57.6" xlink:href="#m589cc40f53" y="153.046799"/>
      </g>
     </g>
     <g id="text_11">
      <!-- 0.60 -->
      <g transform="translate(28.334375 156.846017)scale(0.1 -0.1)">
       <use xlink:href="#DejaVuSans-48"/>
       <use x="63.623047" xlink:href="#DejaVuSans-46"/>
       <use x="95.410156" xlink:href="#DejaVuSans-54"/>
       <use x="159.033203" xlink:href="#DejaVuSans-48"/>
      </g>
     </g>
    </g>
    <g id="ytick_5">
     <g id="line2d_11">
      <g>
       <use style="stroke:#000000;stroke-width:0.8;" x="57.6" xlink:href="#m589cc40f53" y="109.435451"/>
      </g>
     </g>
     <g id="text_12">
      <!-- 0.65 -->
      <g transform="translate(28.334375 113.23467)scale(0.1 -0.1)">
       <use xlink:href="#DejaVuSans-48"/>
       <use x="63.623047" xlink:href="#DejaVuSans-46"/>
       <use x="95.410156" xlink:href="#DejaVuSans-54"/>
       <use x="159.033203" xlink:href="#DejaVuSans-53"/>
      </g>
     </g>
    </g>
    <g id="ytick_6">
     <g id="line2d_12">
      <g>
       <use style="stroke:#000000;stroke-width:0.8;" x="57.6" xlink:href="#m589cc40f53" y="65.824104"/>
      </g>
     </g>
     <g id="text_13">
      <!-- 0.70 -->
      <g transform="translate(28.334375 69.623323)scale(0.1 -0.1)">
       <defs>
        <path d="M 8.203125 72.90625 
L 55.078125 72.90625 
L 55.078125 68.703125 
L 28.609375 0 
L 18.3125 0 
L 43.21875 64.59375 
L 8.203125 64.59375 
z
" id="DejaVuSans-55"/>
       </defs>
       <use xlink:href="#DejaVuSans-48"/>
       <use x="63.623047" xlink:href="#DejaVuSans-46"/>
       <use x="95.410156" xlink:href="#DejaVuSans-55"/>
       <use x="159.033203" xlink:href="#DejaVuSans-48"/>
      </g>
     </g>
    </g>
    <g id="text_14">
     <!-- Accuracy -->
     <g transform="translate(22.254687 197.356125)rotate(-90)scale(0.1 -0.1)">
      <defs>
       <path d="M 34.1875 63.1875 
L 20.796875 26.90625 
L 47.609375 26.90625 
z
M 28.609375 72.90625 
L 39.796875 72.90625 
L 67.578125 0 
L 57.328125 0 
L 50.6875 18.703125 
L 17.828125 18.703125 
L 11.1875 0 
L 0.78125 0 
z
" id="DejaVuSans-65"/>
       <path d="M 48.78125 52.59375 
L 48.78125 44.1875 
Q 44.96875 46.296875 41.140625 47.34375 
Q 37.3125 48.390625 33.40625 48.390625 
Q 24.65625 48.390625 19.8125 42.84375 
Q 14.984375 37.3125 14.984375 27.296875 
Q 14.984375 17.28125 19.8125 11.734375 
Q 24.65625 6.203125 33.40625 6.203125 
Q 37.3125 6.203125 41.140625 7.25 
Q 44.96875 8.296875 48.78125 10.40625 
L 48.78125 2.09375 
Q 45.015625 0.34375 40.984375 -0.53125 
Q 36.96875 -1.421875 32.421875 -1.421875 
Q 20.0625 -1.421875 12.78125 6.34375 
Q 5.515625 14.109375 5.515625 27.296875 
Q 5.515625 40.671875 12.859375 48.328125 
Q 20.21875 56 33.015625 56 
Q 37.15625 56 41.109375 55.140625 
Q 45.0625 54.296875 48.78125 52.59375 
z
" id="DejaVuSans-99"/>
       <path d="M 32.171875 -5.078125 
Q 28.375 -14.84375 24.75 -17.8125 
Q 21.140625 -20.796875 15.09375 -20.796875 
L 7.90625 -20.796875 
L 7.90625 -13.28125 
L 13.1875 -13.28125 
Q 16.890625 -13.28125 18.9375 -11.515625 
Q 21 -9.765625 23.484375 -3.21875 
L 25.09375 0.875 
L 2.984375 54.6875 
L 12.5 54.6875 
L 29.59375 11.921875 
L 46.6875 54.6875 
L 56.203125 54.6875 
z
" id="DejaVuSans-121"/>
      </defs>
      <use xlink:href="#DejaVuSans-65"/>
      <use x="66.658203" xlink:href="#DejaVuSans-99"/>
      <use x="121.638672" xlink:href="#DejaVuSans-99"/>
      <use x="176.619141" xlink:href="#DejaVuSans-117"/>
      <use x="239.998047" xlink:href="#DejaVuSans-114"/>
      <use x="281.111328" xlink:href="#DejaVuSans-97"/>
      <use x="342.390625" xlink:href="#DejaVuSans-99"/>
      <use x="397.371094" xlink:href="#DejaVuSans-121"/>
     </g>
    </g>
   </g>
   <g id="line2d_13">
    <path clip-path="url(#p0d1c2f32a9)" d="M 73.832727 109.435451 
L 77.112066 104.638203 
L 80.391405 105.074316 
L 83.670744 105.074316 
L 86.950083 105.772098 
L 90.229421 99.840955 
L 93.50876 100.189846 
L 96.788099 98.445392 
L 100.067438 98.532614 
L 103.346777 99.840955 
L 106.626116 100.625959 
L 109.905455 102.632081 
L 113.184793 98.183724 
L 116.464132 106.382657 
L 119.743471 101.759854 
L 123.02281 103.591531 
L 126.302149 100.97485 
L 129.581488 106.033766 
L 132.860826 100.189846 
L 136.140165 102.28319 
L 139.419504 104.899871 
L 142.698843 105.51043 
L 145.978182 113.971031 
L 149.257521 102.021522 
L 152.53686 109.697119 
L 155.816198 110.220455 
L 159.095537 110.482124 
L 162.374876 111.179905 
L 165.654215 115.802708 
L 168.933554 111.964909 
L 172.212893 115.279372 
L 175.492231 113.971031 
L 178.77157 116.151599 
L 182.050909 121.03607 
L 185.330248 119.029948 
L 188.609587 123.30386 
L 191.888926 114.407145 
L 195.168264 120.425511 
L 198.447603 126.705545 
L 201.726942 128.711667 
L 205.006281 121.210515 
L 208.28562 128.886112 
L 211.564959 134.119474 
L 214.844298 135.340592 
L 218.123636 129.932784 
L 221.402975 131.590016 
L 224.682314 136.9106 
L 227.961653 134.64281 
L 231.240992 134.555587 
L 234.520331 136.823377 
L 237.799669 143.975638 
L 241.079008 145.545647 
L 244.358347 138.21894 
L 247.637686 147.551769 
L 250.917025 150.953454 
L 254.196364 143.365079 
L 257.475702 147.726214 
L 260.755041 154.442362 
L 264.03438 154.180694 
L 267.313719 153.482912 
L 270.593058 153.919025 
L 273.872397 161.245732 
L 277.151736 157.844047 
L 280.431074 162.990186 
L 283.710413 160.024614 
L 286.989752 165.170753 
L 290.269091 166.915207 
L 293.54843 162.117959 
L 296.827769 164.298526 
L 300.107107 173.108018 
L 303.386446 174.76525 
L 306.665785 170.404115 
L 309.945124 179.998611 
L 313.224463 177.38193 
L 316.503802 181.219729 
L 319.78314 179.126384 
L 323.062479 187.063649 
L 326.341818 191.075893 
L 329.621157 190.552557 
L 332.900496 196.919814 
L 336.179835 196.483701 
L 339.459174 197.879264 
L 342.738512 197.879264 
L 346.017851 199.187604 
L 349.29719 206.16542 
L 352.576529 207.735428 
L 355.855868 210.526554 
L 359.135207 216.370475 
L 362.414545 222.214395 
L 365.693884 215.062134 
L 368.973223 226.401085 
L 372.252562 223.261068 
L 375.531901 239.135598 
L 378.81124 241.316166 
L 382.090579 248.206758 
L 385.369917 248.293981 
L 388.649256 256.318469 
L 391.928595 265.912966 
L 395.207934 265.564075 
L 398.487273 269.576319 
" style="fill:none;stroke:#1f77b4;stroke-linecap:square;stroke-width:1.5;"/>
   </g>
   <g id="line2d_14">
    <path clip-path="url(#p0d1c2f32a9)" d="M 73.832727 196.658146 
L 77.112066 194.652024 
L 80.391405 194.303133 
L 83.670744 193.518129 
L 86.950083 194.041465 
L 90.229421 196.047587 
L 93.50876 195.262583 
L 96.788099 193.86702 
L 100.067438 199.623718 
L 103.346777 192.820347 
L 106.626116 190.290889 
L 109.905455 195.785919 
L 113.184793 197.617596 
L 116.464132 200.321499 
L 119.743471 197.268705 
L 123.02281 194.390356 
L 126.302149 196.483701 
L 129.581488 197.879264 
L 132.860826 196.396478 
L 136.140165 195.088137 
L 139.419504 199.274827 
L 142.698843 195.785919 
L 145.978182 199.972608 
L 149.257521 195.437028 
L 152.53686 201.455394 
L 155.816198 197.704818 
L 159.095537 196.658146 
L 162.374876 197.530373 
L 165.654215 203.374293 
L 168.933554 205.816529 
L 172.212893 199.71094 
L 175.492231 203.810407 
L 178.77157 198.838713 
L 182.050909 203.984852 
L 185.330248 201.542617 
L 188.609587 203.287071 
L 191.888926 199.274827 
L 195.168264 201.455394 
L 198.447603 206.16542 
L 201.726942 205.118747 
L 205.006281 205.816529 
L 208.28562 211.660449 
L 211.564959 210.003218 
L 214.844298 207.560983 
L 218.123636 210.439332 
L 221.402975 206.863201 
L 224.682314 214.189908 
L 227.961653 211.922117 
L 231.240992 209.567105 
L 234.520331 210.439332 
L 237.799669 215.411025 
L 241.079008 210.264886 
L 244.358347 208.956546 
L 247.637686 210.788222 
L 250.917025 215.062134 
L 254.196364 212.619899 
L 257.475702 217.591593 
L 260.755041 220.73161 
L 264.03438 216.283252 
L 267.313719 224.743854 
L 270.593058 222.650509 
L 273.872397 224.743854 
L 277.151736 219.684937 
L 280.431074 230.413329 
L 283.710413 217.329925 
L 286.989752 218.551042 
L 290.269091 236.082804 
L 293.54843 228.930543 
L 296.827769 231.372778 
L 300.107107 233.727791 
L 303.386446 232.506673 
L 306.665785 231.460001 
L 309.945124 233.3789 
L 313.224463 231.547224 
L 316.503802 239.571712 
L 319.78314 233.640568 
L 323.062479 234.687241 
L 326.341818 242.537283 
L 329.621157 244.281737 
L 332.900496 245.066741 
L 336.179835 238.786707 
L 339.459174 242.450061 
L 342.738512 249.86399 
L 346.017851 243.671178 
L 349.29719 243.583956 
L 352.576529 245.851746 
L 355.855868 251.17233 
L 359.135207 251.346775 
L 362.414545 256.318469 
L 365.693884 254.39957 
L 368.973223 257.9757 
L 372.252562 252.655116 
L 375.531901 264.081289 
L 378.81124 260.941272 
L 382.090579 265.825743 
L 385.369917 269.489096 
L 388.649256 268.704092 
L 391.928595 267.919087 
L 395.207934 272.716336 
L 398.487273 273.50134 
" style="fill:none;stroke:#ff7f0e;stroke-linecap:square;stroke-width:1.5;"/>
   </g>
   <g id="line2d_15">
    <path clip-path="url(#p0d1c2f32a9)" d="M 73.832727 57.101834 
L 77.112066 67.30689 
L 80.391405 74.546373 
L 83.670744 78.907508 
L 86.950083 86.40866 
L 90.229421 88.240336 
L 93.50876 88.763673 
L 96.788099 93.037585 
L 100.067438 97.660387 
L 103.346777 98.794282 
L 106.626116 100.0154 
L 109.905455 100.277068 
L 113.184793 100.277068 
L 116.464132 107.516552 
L 119.743471 106.731548 
L 123.02281 108.388779 
L 126.302149 109.871565 
L 129.581488 105.946543 
L 132.860826 114.668813 
L 136.140165 114.930481 
L 139.419504 119.378838 
L 142.698843 116.151599 
L 145.978182 120.425511 
L 149.257521 119.378838 
L 152.53686 119.640506 
L 155.816198 123.30386 
L 159.095537 126.094986 
L 162.374876 120.512733 
L 165.654215 127.577772 
L 168.933554 130.281675 
L 172.212893 131.938906 
L 175.492231 135.689482 
L 178.77157 129.671116 
L 182.050909 131.153902 
L 185.330248 134.381142 
L 188.609587 128.711667 
L 191.888926 124.350532 
L 195.168264 131.764461 
L 198.447603 135.078923 
L 201.726942 133.072801 
L 205.006281 132.636688 
L 208.28562 141.010067 
L 211.564959 139.17839 
L 214.844298 143.016189 
L 218.123636 144.935088 
L 221.402975 139.527281 
L 224.682314 143.103411 
L 227.961653 147.377323 
L 231.240992 142.841743 
L 234.520331 149.209 
L 237.799669 151.738458 
L 241.079008 156.186816 
L 244.358347 143.452302 
L 247.637686 147.987882 
L 250.917025 152.261794 
L 254.196364 145.283979 
L 257.475702 155.489034 
L 260.755041 154.180694 
L 264.03438 156.448484 
L 267.313719 151.564013 
L 270.593058 155.750702 
L 273.872397 153.134021 
L 277.151736 155.576257 
L 280.431074 158.803496 
L 283.710413 154.355139 
L 286.989752 161.769068 
L 290.269091 167.089652 
L 293.54843 155.052921 
L 296.827769 162.728518 
L 300.107107 163.513522 
L 303.386446 163.600745 
L 306.665785 166.304648 
L 309.945124 171.712455 
L 313.224463 169.008552 
L 316.503802 166.391871 
L 319.78314 170.665783 
L 323.062479 173.108018 
L 326.341818 166.915207 
L 329.621157 172.933573 
L 332.900496 175.899145 
L 336.179835 175.811922 
L 339.459174 173.282464 
L 342.738512 172.323014 
L 346.017851 182.440847 
L 349.29719 178.079712 
L 352.576529 181.306952 
L 355.855868 184.883082 
L 359.135207 182.528069 
L 362.414545 183.574742 
L 365.693884 185.14475 
L 368.973223 194.303133 
L 372.252562 192.384234 
L 375.531901 193.954242 
L 378.81124 195.262583 
L 382.090579 197.268705 
L 385.369917 198.664268 
L 388.649256 198.489822 
L 391.928595 202.065953 
L 395.207934 202.676512 
L 398.487273 202.850957 
" style="fill:none;stroke:#2ca02c;stroke-linecap:square;stroke-width:1.5;"/>
   </g>
   <g id="line2d_16">
    <path clip-path="url(#p0d1c2f32a9)" d="M 73.832727 109.435451 
L 77.112066 112.401023 
L 80.391405 124.088864 
L 83.670744 132.026129 
L 86.950083 141.707848 
L 90.229421 162.379627 
L 93.50876 172.410237 
L 96.788099 197.704818 
L 100.067438 216.632143 
L 103.346777 222.912177 
L 106.626116 238.786707 
L 109.905455 239.484489 
L 113.184793 246.811195 
L 116.464132 256.405692 
L 119.743471 259.371263 
L 123.02281 265.564075 
L 126.302149 265.73852 
L 129.581488 270.361323 
L 132.860826 272.716336 
L 136.140165 273.937453 
L 139.419504 273.588563 
L 142.698843 274.024676 
L 145.978182 274.896903 
L 149.257521 275.071348 
L 152.53686 275.420239 
L 155.816198 274.896903 
L 159.095537 275.158571 
L 162.374876 275.333017 
L 165.654215 275.158571 
L 168.933554 275.420239 
L 172.212893 274.896903 
L 175.492231 275.158571 
L 178.77157 275.158571 
L 182.050909 275.158571 
L 185.330248 275.245794 
L 188.609587 275.245794 
L 191.888926 275.158571 
L 195.168264 275.245794 
L 198.447603 275.158571 
L 201.726942 275.158571 
L 205.006281 275.158571 
L 208.28562 275.158571 
L 211.564959 275.158571 
L 214.844298 275.158571 
L 218.123636 275.158571 
L 221.402975 275.158571 
L 224.682314 275.158571 
L 227.961653 275.158571 
L 231.240992 275.158571 
L 234.520331 275.158571 
L 237.799669 275.158571 
L 241.079008 275.158571 
L 244.358347 275.158571 
L 247.637686 275.158571 
L 250.917025 275.158571 
L 254.196364 275.158571 
L 257.475702 275.158571 
L 260.755041 275.158571 
L 264.03438 275.158571 
L 267.313719 275.158571 
L 270.593058 275.158571 
L 273.872397 275.158571 
L 277.151736 275.158571 
L 280.431074 275.158571 
L 283.710413 275.158571 
L 286.989752 275.158571 
L 290.269091 275.158571 
L 293.54843 275.158571 
L 296.827769 275.158571 
L 300.107107 275.158571 
L 303.386446 275.158571 
L 306.665785 275.158571 
L 309.945124 275.158571 
L 313.224463 275.158571 
L 316.503802 275.158571 
L 319.78314 275.158571 
L 323.062479 275.158571 
L 326.341818 275.158571 
L 329.621157 275.158571 
L 332.900496 275.158571 
L 336.179835 275.158571 
L 339.459174 275.158571 
L 342.738512 275.158571 
L 346.017851 275.158571 
L 349.29719 275.158571 
L 352.576529 275.158571 
L 355.855868 275.158571 
L 359.135207 275.158571 
L 362.414545 275.158571 
L 365.693884 275.158571 
L 368.973223 275.158571 
L 372.252562 275.158571 
L 375.531901 275.158571 
L 378.81124 275.158571 
L 382.090579 275.158571 
L 385.369917 275.158571 
L 388.649256 275.158571 
L 391.928595 275.158571 
L 395.207934 275.158571 
L 398.487273 275.158571 
" style="fill:none;stroke:#d62728;stroke-linecap:square;stroke-width:1.5;"/>
   </g>
   <g id="patch_3">
    <path d="M 57.6 307.584 
L 57.6 41.472 
" style="fill:none;stroke:#000000;stroke-linecap:square;stroke-linejoin:miter;stroke-width:0.8;"/>
   </g>
   <g id="patch_4">
    <path d="M 414.72 307.584 
L 414.72 41.472 
" style="fill:none;stroke:#000000;stroke-linecap:square;stroke-linejoin:miter;stroke-width:0.8;"/>
   </g>
   <g id="patch_5">
    <path d="M 57.6 307.584 
L 414.72 307.584 
" style="fill:none;stroke:#000000;stroke-linecap:square;stroke-linejoin:miter;stroke-width:0.8;"/>
   </g>
   <g id="patch_6">
    <path d="M 57.6 41.472 
L 414.72 41.472 
" style="fill:none;stroke:#000000;stroke-linecap:square;stroke-linejoin:miter;stroke-width:0.8;"/>
   </g>
   <g id="text_15">
    <!-- Toy_non_linear_1000_100 -->
    <g transform="translate(159.3225 35.472)scale(0.12 -0.12)">
     <defs>
      <path d="M -0.296875 72.90625 
L 61.375 72.90625 
L 61.375 64.59375 
L 35.5 64.59375 
L 35.5 0 
L 25.59375 0 
L 25.59375 64.59375 
L -0.296875 64.59375 
z
" id="DejaVuSans-84"/>
      <path d="M 50.984375 -16.609375 
L 50.984375 -23.578125 
L -0.984375 -23.578125 
L -0.984375 -16.609375 
z
" id="DejaVuSans-95"/>
      <path d="M 54.890625 33.015625 
L 54.890625 0 
L 45.90625 0 
L 45.90625 32.71875 
Q 45.90625 40.484375 42.875 44.328125 
Q 39.84375 48.1875 33.796875 48.1875 
Q 26.515625 48.1875 22.3125 43.546875 
Q 18.109375 38.921875 18.109375 30.90625 
L 18.109375 0 
L 9.078125 0 
L 9.078125 54.6875 
L 18.109375 54.6875 
L 18.109375 46.1875 
Q 21.34375 51.125 25.703125 53.5625 
Q 30.078125 56 35.796875 56 
Q 45.21875 56 50.046875 50.171875 
Q 54.890625 44.34375 54.890625 33.015625 
z
" id="DejaVuSans-110"/>
      <path d="M 9.421875 75.984375 
L 18.40625 75.984375 
L 18.40625 0 
L 9.421875 0 
z
" id="DejaVuSans-108"/>
      <path d="M 9.421875 54.6875 
L 18.40625 54.6875 
L 18.40625 0 
L 9.421875 0 
z
M 9.421875 75.984375 
L 18.40625 75.984375 
L 18.40625 64.59375 
L 9.421875 64.59375 
z
" id="DejaVuSans-105"/>
     </defs>
     <use xlink:href="#DejaVuSans-84"/>
     <use x="44.083984" xlink:href="#DejaVuSans-111"/>
     <use x="105.265625" xlink:href="#DejaVuSans-121"/>
     <use x="164.445312" xlink:href="#DejaVuSans-95"/>
     <use x="214.445312" xlink:href="#DejaVuSans-110"/>
     <use x="277.824219" xlink:href="#DejaVuSans-111"/>
     <use x="339.005859" xlink:href="#DejaVuSans-110"/>
     <use x="402.384766" xlink:href="#DejaVuSans-95"/>
     <use x="452.384766" xlink:href="#DejaVuSans-108"/>
     <use x="480.167969" xlink:href="#DejaVuSans-105"/>
     <use x="507.951172" xlink:href="#DejaVuSans-110"/>
     <use x="571.330078" xlink:href="#DejaVuSans-101"/>
     <use x="632.853516" xlink:href="#DejaVuSans-97"/>
     <use x="694.132812" xlink:href="#DejaVuSans-114"/>
     <use x="735.246094" xlink:href="#DejaVuSans-95"/>
     <use x="785.246094" xlink:href="#DejaVuSans-49"/>
     <use x="848.869141" xlink:href="#DejaVuSans-48"/>
     <use x="912.492188" xlink:href="#DejaVuSans-48"/>
     <use x="976.115234" xlink:href="#DejaVuSans-48"/>
     <use x="1039.738281" xlink:href="#DejaVuSans-95"/>
     <use x="1089.738281" xlink:href="#DejaVuSans-49"/>
     <use x="1153.361328" xlink:href="#DejaVuSans-48"/>
     <use x="1216.984375" xlink:href="#DejaVuSans-48"/>
    </g>
   </g>
   <g id="legend_1">
    <g id="patch_7">
     <path d="M 300.468437 108.1845 
L 407.72 108.1845 
Q 409.72 108.1845 409.72 106.1845 
L 409.72 48.472 
Q 409.72 46.472 407.72 46.472 
L 300.468437 46.472 
Q 298.468437 46.472 298.468437 48.472 
L 298.468437 106.1845 
Q 298.468437 108.1845 300.468437 108.1845 
z
" style="fill:#ffffff;opacity:0.8;stroke:#cccccc;stroke-linejoin:miter;"/>
    </g>
    <g id="line2d_17">
     <path d="M 302.468437 54.570438 
L 322.468437 54.570438 
" style="fill:none;stroke:#1f77b4;stroke-linecap:square;stroke-width:1.5;"/>
    </g>
    <g id="line2d_18"/>
    <g id="text_16">
     <!-- Random Forest -->
     <g transform="translate(330.468437 58.070438)scale(0.1 -0.1)">
      <defs>
       <path d="M 44.390625 34.1875 
Q 47.5625 33.109375 50.5625 29.59375 
Q 53.5625 26.078125 56.59375 19.921875 
L 66.609375 0 
L 56 0 
L 46.6875 18.703125 
Q 43.0625 26.03125 39.671875 28.421875 
Q 36.28125 30.8125 30.421875 30.8125 
L 19.671875 30.8125 
L 19.671875 0 
L 9.8125 0 
L 9.8125 72.90625 
L 32.078125 72.90625 
Q 44.578125 72.90625 50.734375 67.671875 
Q 56.890625 62.453125 56.890625 51.90625 
Q 56.890625 45.015625 53.6875 40.46875 
Q 50.484375 35.9375 44.390625 34.1875 
z
M 19.671875 64.796875 
L 19.671875 38.921875 
L 32.078125 38.921875 
Q 39.203125 38.921875 42.84375 42.21875 
Q 46.484375 45.515625 46.484375 51.90625 
Q 46.484375 58.296875 42.84375 61.546875 
Q 39.203125 64.796875 32.078125 64.796875 
z
" id="DejaVuSans-82"/>
       <path d="M 45.40625 46.390625 
L 45.40625 75.984375 
L 54.390625 75.984375 
L 54.390625 0 
L 45.40625 0 
L 45.40625 8.203125 
Q 42.578125 3.328125 38.25 0.953125 
Q 33.9375 -1.421875 27.875 -1.421875 
Q 17.96875 -1.421875 11.734375 6.484375 
Q 5.515625 14.40625 5.515625 27.296875 
Q 5.515625 40.1875 11.734375 48.09375 
Q 17.96875 56 27.875 56 
Q 33.9375 56 38.25 53.625 
Q 42.578125 51.265625 45.40625 46.390625 
z
M 14.796875 27.296875 
Q 14.796875 17.390625 18.875 11.75 
Q 22.953125 6.109375 30.078125 6.109375 
Q 37.203125 6.109375 41.296875 11.75 
Q 45.40625 17.390625 45.40625 27.296875 
Q 45.40625 37.203125 41.296875 42.84375 
Q 37.203125 48.484375 30.078125 48.484375 
Q 22.953125 48.484375 18.875 42.84375 
Q 14.796875 37.203125 14.796875 27.296875 
z
" id="DejaVuSans-100"/>
       <path d="M 9.8125 72.90625 
L 51.703125 72.90625 
L 51.703125 64.59375 
L 19.671875 64.59375 
L 19.671875 43.109375 
L 48.578125 43.109375 
L 48.578125 34.8125 
L 19.671875 34.8125 
L 19.671875 0 
L 9.8125 0 
z
" id="DejaVuSans-70"/>
      </defs>
      <use xlink:href="#DejaVuSans-82"/>
      <use x="67.232422" xlink:href="#DejaVuSans-97"/>
      <use x="128.511719" xlink:href="#DejaVuSans-110"/>
      <use x="191.890625" xlink:href="#DejaVuSans-100"/>
      <use x="255.367188" xlink:href="#DejaVuSans-111"/>
      <use x="316.548828" xlink:href="#DejaVuSans-109"/>
      <use x="413.960938" xlink:href="#DejaVuSans-32"/>
      <use x="445.748047" xlink:href="#DejaVuSans-70"/>
      <use x="499.642578" xlink:href="#DejaVuSans-111"/>
      <use x="560.824219" xlink:href="#DejaVuSans-114"/>
      <use x="599.6875" xlink:href="#DejaVuSans-101"/>
      <use x="661.210938" xlink:href="#DejaVuSans-115"/>
      <use x="713.310547" xlink:href="#DejaVuSans-116"/>
     </g>
    </g>
    <g id="line2d_19">
     <path d="M 302.468437 69.248563 
L 322.468437 69.248563 
" style="fill:none;stroke:#ff7f0e;stroke-linecap:square;stroke-width:1.5;"/>
    </g>
    <g id="line2d_20"/>
    <g id="text_17">
     <!-- AdaBoost -->
     <g transform="translate(330.468437 72.748563)scale(0.1 -0.1)">
      <defs>
       <path d="M 19.671875 34.8125 
L 19.671875 8.109375 
L 35.5 8.109375 
Q 43.453125 8.109375 47.28125 11.40625 
Q 51.125 14.703125 51.125 21.484375 
Q 51.125 28.328125 47.28125 31.5625 
Q 43.453125 34.8125 35.5 34.8125 
z
M 19.671875 64.796875 
L 19.671875 42.828125 
L 34.28125 42.828125 
Q 41.5 42.828125 45.03125 45.53125 
Q 48.578125 48.25 48.578125 53.8125 
Q 48.578125 59.328125 45.03125 62.0625 
Q 41.5 64.796875 34.28125 64.796875 
z
M 9.8125 72.90625 
L 35.015625 72.90625 
Q 46.296875 72.90625 52.390625 68.21875 
Q 58.5 63.53125 58.5 54.890625 
Q 58.5 48.1875 55.375 44.234375 
Q 52.25 40.28125 46.1875 39.3125 
Q 53.46875 37.75 57.5 32.78125 
Q 61.53125 27.828125 61.53125 20.40625 
Q 61.53125 10.640625 54.890625 5.3125 
Q 48.25 0 35.984375 0 
L 9.8125 0 
z
" id="DejaVuSans-66"/>
      </defs>
      <use xlink:href="#DejaVuSans-65"/>
      <use x="66.658203" xlink:href="#DejaVuSans-100"/>
      <use x="130.134766" xlink:href="#DejaVuSans-97"/>
      <use x="191.414062" xlink:href="#DejaVuSans-66"/>
      <use x="260.017578" xlink:href="#DejaVuSans-111"/>
      <use x="321.199219" xlink:href="#DejaVuSans-111"/>
      <use x="382.380859" xlink:href="#DejaVuSans-115"/>
      <use x="434.480469" xlink:href="#DejaVuSans-116"/>
     </g>
    </g>
    <g id="line2d_21">
     <path d="M 302.468437 83.926688 
L 322.468437 83.926688 
" style="fill:none;stroke:#2ca02c;stroke-linecap:square;stroke-width:1.5;"/>
    </g>
    <g id="line2d_22"/>
    <g id="text_18">
     <!-- LightGBM -->
     <g transform="translate(330.468437 87.426688)scale(0.1 -0.1)">
      <defs>
       <path d="M 9.8125 72.90625 
L 19.671875 72.90625 
L 19.671875 8.296875 
L 55.171875 8.296875 
L 55.171875 0 
L 9.8125 0 
z
" id="DejaVuSans-76"/>
       <path d="M 45.40625 27.984375 
Q 45.40625 37.75 41.375 43.109375 
Q 37.359375 48.484375 30.078125 48.484375 
Q 22.859375 48.484375 18.828125 43.109375 
Q 14.796875 37.75 14.796875 27.984375 
Q 14.796875 18.265625 18.828125 12.890625 
Q 22.859375 7.515625 30.078125 7.515625 
Q 37.359375 7.515625 41.375 12.890625 
Q 45.40625 18.265625 45.40625 27.984375 
z
M 54.390625 6.78125 
Q 54.390625 -7.171875 48.1875 -13.984375 
Q 42 -20.796875 29.203125 -20.796875 
Q 24.46875 -20.796875 20.265625 -20.09375 
Q 16.0625 -19.390625 12.109375 -17.921875 
L 12.109375 -9.1875 
Q 16.0625 -11.328125 19.921875 -12.34375 
Q 23.78125 -13.375 27.78125 -13.375 
Q 36.625 -13.375 41.015625 -8.765625 
Q 45.40625 -4.15625 45.40625 5.171875 
L 45.40625 9.625 
Q 42.625 4.78125 38.28125 2.390625 
Q 33.9375 0 27.875 0 
Q 17.828125 0 11.671875 7.65625 
Q 5.515625 15.328125 5.515625 27.984375 
Q 5.515625 40.671875 11.671875 48.328125 
Q 17.828125 56 27.875 56 
Q 33.9375 56 38.28125 53.609375 
Q 42.625 51.21875 45.40625 46.390625 
L 45.40625 54.6875 
L 54.390625 54.6875 
z
" id="DejaVuSans-103"/>
       <path d="M 54.890625 33.015625 
L 54.890625 0 
L 45.90625 0 
L 45.90625 32.71875 
Q 45.90625 40.484375 42.875 44.328125 
Q 39.84375 48.1875 33.796875 48.1875 
Q 26.515625 48.1875 22.3125 43.546875 
Q 18.109375 38.921875 18.109375 30.90625 
L 18.109375 0 
L 9.078125 0 
L 9.078125 75.984375 
L 18.109375 75.984375 
L 18.109375 46.1875 
Q 21.34375 51.125 25.703125 53.5625 
Q 30.078125 56 35.796875 56 
Q 45.21875 56 50.046875 50.171875 
Q 54.890625 44.34375 54.890625 33.015625 
z
" id="DejaVuSans-104"/>
       <path d="M 59.515625 10.40625 
L 59.515625 29.984375 
L 43.40625 29.984375 
L 43.40625 38.09375 
L 69.28125 38.09375 
L 69.28125 6.78125 
Q 63.578125 2.734375 56.6875 0.65625 
Q 49.8125 -1.421875 42 -1.421875 
Q 24.90625 -1.421875 15.25 8.5625 
Q 5.609375 18.5625 5.609375 36.375 
Q 5.609375 54.25 15.25 64.234375 
Q 24.90625 74.21875 42 74.21875 
Q 49.125 74.21875 55.546875 72.453125 
Q 61.96875 70.703125 67.390625 67.28125 
L 67.390625 56.78125 
Q 61.921875 61.421875 55.765625 63.765625 
Q 49.609375 66.109375 42.828125 66.109375 
Q 29.4375 66.109375 22.71875 58.640625 
Q 16.015625 51.171875 16.015625 36.375 
Q 16.015625 21.625 22.71875 14.15625 
Q 29.4375 6.6875 42.828125 6.6875 
Q 48.046875 6.6875 52.140625 7.59375 
Q 56.25 8.5 59.515625 10.40625 
z
" id="DejaVuSans-71"/>
       <path d="M 9.8125 72.90625 
L 24.515625 72.90625 
L 43.109375 23.296875 
L 61.8125 72.90625 
L 76.515625 72.90625 
L 76.515625 0 
L 66.890625 0 
L 66.890625 64.015625 
L 48.09375 14.015625 
L 38.1875 14.015625 
L 19.390625 64.015625 
L 19.390625 0 
L 9.8125 0 
z
" id="DejaVuSans-77"/>
      </defs>
      <use xlink:href="#DejaVuSans-76"/>
      <use x="55.712891" xlink:href="#DejaVuSans-105"/>
      <use x="83.496094" xlink:href="#DejaVuSans-103"/>
      <use x="146.972656" xlink:href="#DejaVuSans-104"/>
      <use x="210.351562" xlink:href="#DejaVuSans-116"/>
      <use x="249.560547" xlink:href="#DejaVuSans-71"/>
      <use x="327.050781" xlink:href="#DejaVuSans-66"/>
      <use x="395.654297" xlink:href="#DejaVuSans-77"/>
     </g>
    </g>
    <g id="line2d_23">
     <path d="M 302.468437 98.604813 
L 322.468437 98.604813 
" style="fill:none;stroke:#d62728;stroke-linecap:square;stroke-width:1.5;"/>
    </g>
    <g id="line2d_24"/>
    <g id="text_19">
     <!-- XGBoost -->
     <g transform="translate(330.468437 102.104813)scale(0.1 -0.1)">
      <defs>
       <path d="M 6.296875 72.90625 
L 16.890625 72.90625 
L 35.015625 45.796875 
L 53.21875 72.90625 
L 63.8125 72.90625 
L 40.375 37.890625 
L 65.375 0 
L 54.78125 0 
L 34.28125 31 
L 13.625 0 
L 2.984375 0 
L 29 38.921875 
z
" id="DejaVuSans-88"/>
      </defs>
      <use xlink:href="#DejaVuSans-88"/>
      <use x="68.505859" xlink:href="#DejaVuSans-71"/>
      <use x="145.996094" xlink:href="#DejaVuSans-66"/>
      <use x="214.599609" xlink:href="#DejaVuSans-111"/>
      <use x="275.78125" xlink:href="#DejaVuSans-111"/>
      <use x="336.962891" xlink:href="#DejaVuSans-115"/>
      <use x="389.0625" xlink:href="#DejaVuSans-116"/>
     </g>
    </g>
   </g>
  </g>
 </g>
 <defs>
  <clipPath id="p0d1c2f32a9">
   <rect height="266.112" width="357.12" x="57.6" y="41.472"/>
  </clipPath>
 </defs>
</svg>
