<?xml version="1.0" encoding="utf-8" standalone="no"?>
<!DOCTYPE svg PUBLIC "-//W3C//DTD SVG 1.1//EN"
  "http://www.w3.org/Graphics/SVG/1.1/DTD/svg11.dtd">
<!-- Created with matplotlib (https://matplotlib.org/) -->
<svg height="345.6pt" version="1.1" viewBox="0 0 460.8 345.6" width="460.8pt" xmlns="http://www.w3.org/2000/svg" xmlns:xlink="http://www.w3.org/1999/xlink">
 <metadata>
  <rdf:RDF xmlns:cc="http://creativecommons.org/ns#" xmlns:dc="http://purl.org/dc/elements/1.1/" xmlns:rdf="http://www.w3.org/1999/02/22-rdf-syntax-ns#">
   <cc:Work>
    <dc:type rdf:resource="http://purl.org/dc/dcmitype/StillImage"/>
    <dc:date>2023-09-19T16:49:45.880753</dc:date>
    <dc:format>image/svg+xml</dc:format>
    <dc:creator>
     <cc:Agent>
      <dc:title>Matplotlib v3.3.4, https://matplotlib.org/</dc:title>
     </cc:Agent>
    </dc:creator>
   </cc:Work>
  </rdf:RDF>
 </metadata>
 <defs>
  <style type="text/css">*{stroke-linecap:butt;stroke-linejoin:round;}</style>
 </defs>
 <g id="figure_1">
  <g id="patch_1">
   <path d="M 0 345.6 
L 460.8 345.6 
L 460.8 0 
L 0 0 
z
" style="fill:#ffffff;"/>
  </g>
  <g id="axes_1">
   <g id="patch_2">
    <path d="M 57.6 307.584 
L 414.72 307.584 
L 414.72 41.472 
L 57.6 41.472 
z
" style="fill:#ffffff;"/>
   </g>
   <g id="PolyCollection_1">
    <path clip-path="url(#p24d315c5a7)" d="M 73.832727 86.403373 
L 73.832727 86.403373 
L 77.112066 97.518864 
L 80.391405 105.41264 
L 83.670744 103.921958 
L 86.950083 108.364606 
L 90.229421 109.768956 
L 93.50876 111.309287 
L 96.788099 115.007595 
L 100.067438 119.923306 
L 103.346777 125.842683 
L 106.626116 122.905365 
L 109.905455 122.069814 
L 113.184793 126.457609 
L 116.464132 128.885557 
L 119.743471 129.958827 
L 123.02281 133.173621 
L 126.302149 133.761153 
L 129.581488 139.008408 
L 132.860826 143.89625 
L 136.140165 140.454596 
L 139.419504 139.465048 
L 142.698843 138.513476 
L 145.978182 143.006486 
L 149.257521 149.775658 
L 152.53686 156.308055 
L 155.816198 151.452088 
L 159.095537 160.4792 
L 162.374876 150.18319 
L 165.654215 161.718385 
L 168.933554 161.363099 
L 172.212893 155.843919 
L 175.492231 168.402207 
L 178.77157 156.427744 
L 182.050909 164.848813 
L 185.330248 175.350324 
L 188.609587 169.78219 
L 191.888926 173.73242 
L 195.168264 171.172176 
L 198.447603 177.170141 
L 201.726942 185.471574 
L 205.006281 183.786969 
L 208.28562 181.699507 
L 211.564959 188.910014 
L 214.844298 186.850162 
L 218.123636 182.4756 
L 221.402975 196.240288 
L 224.682314 198.594517 
L 227.961653 195.257323 
L 231.240992 196.142414 
L 234.520331 196.569251 
L 237.799669 208.277252 
L 241.079008 205.032876 
L 244.358347 207.717129 
L 247.637686 204.999008 
L 250.917025 211.730045 
L 254.196364 203.911416 
L 257.475702 206.937958 
L 260.755041 213.409768 
L 264.03438 221.524022 
L 267.313719 215.186568 
L 270.593058 229.777686 
L 273.872397 229.591017 
L 277.151736 221.935849 
L 280.431074 234.339564 
L 283.710413 233.689009 
L 286.989752 228.527062 
L 290.269091 233.485736 
L 293.54843 242.553345 
L 296.827769 243.422721 
L 300.107107 250.99992 
L 303.386446 250.435049 
L 306.665785 250.105165 
L 309.945124 247.989498 
L 313.224463 257.924946 
L 316.503802 256.618765 
L 319.78314 259.250874 
L 323.062479 262.864816 
L 326.341818 263.167494 
L 329.621157 265.270954 
L 332.900496 259.644082 
L 336.179835 268.69052 
L 339.459174 266.826554 
L 342.738512 274.275302 
L 346.017851 274.453523 
L 349.29719 271.305579 
L 352.576529 275.248268 
L 355.855868 279.96041 
L 359.135207 284.72509 
L 362.414545 282.731568 
L 365.693884 287.657817 
L 368.973223 285.297453 
L 372.252562 287.039916 
L 375.531901 289.665513 
L 378.81124 285.868911 
L 382.090579 290.175197 
L 385.369917 291.25711 
L 388.649256 291.340385 
L 391.928595 286.954284 
L 395.207934 287.319298 
L 398.487273 287.550826 
L 398.487273 271.869921 
L 398.487273 271.869921 
L 395.207934 273.026806 
L 391.928595 272.836605 
L 388.649256 269.005718 
L 385.369917 259.095142 
L 382.090579 263.323267 
L 378.81124 244.495637 
L 375.531901 243.475106 
L 372.252562 239.808277 
L 368.973223 227.670391 
L 365.693884 228.826382 
L 362.414545 226.349778 
L 359.135207 219.729473 
L 355.855868 220.977798 
L 352.576529 216.066231 
L 349.29719 201.501787 
L 346.017851 207.60741 
L 342.738512 198.161921 
L 339.459174 206.721097 
L 336.179835 196.899064 
L 332.900496 185.957799 
L 329.621157 200.873844 
L 326.341818 186.505956 
L 323.062479 184.957921 
L 319.78314 184.130151 
L 316.503802 184.726475 
L 313.224463 184.345651 
L 309.945124 170.77704 
L 306.665785 168.661374 
L 303.386446 172.773201 
L 300.107107 169.247189 
L 296.827769 170.161821 
L 293.54843 170.661054 
L 290.269091 146.415824 
L 286.989752 143.601502 
L 283.710413 152.875119 
L 280.431074 149.448494 
L 277.151736 143.160005 
L 273.872397 147.534473 
L 270.593058 145.682163 
L 267.313719 140.100506 
L 264.03438 133.022766 
L 260.755041 136.510237 
L 257.475702 118.922775 
L 254.196364 128.426813 
L 250.917025 131.15725 
L 247.637686 129.375005 
L 244.358347 121.84503 
L 241.079008 120.642786 
L 237.799669 124.801262 
L 234.520331 122.628914 
L 231.240992 117.31854 
L 227.961653 117.648417 
L 224.682314 113.200794 
L 221.402975 111.113312 
L 218.123636 106.185796 
L 214.844298 107.363374 
L 211.564959 108.819877 
L 208.28562 99.373965 
L 205.006281 105.429641 
L 201.726942 107.631534 
L 198.447603 109.270399 
L 195.168264 101.388015 
L 191.888926 104.194839 
L 188.609587 98.151218 
L 185.330248 92.583083 
L 182.050909 87.538603 
L 178.77157 85.225535 
L 175.492231 88.611993 
L 172.212893 91.3615 
L 168.933554 85.102034 
L 165.654215 89.558603 
L 162.374876 82.771737 
L 159.095537 87.651576 
L 155.816198 87.054978 
L 152.53686 83.309439 
L 149.257521 76.701773 
L 145.978182 79.214304 
L 142.698843 87.22367 
L 139.419504 69.800749 
L 136.140165 74.548412 
L 132.860826 83.506537 
L 129.581488 74.328958 
L 126.302149 71.062932 
L 123.02281 76.462319 
L 119.743471 69.128047 
L 116.464132 72.237102 
L 113.184793 73.369551 
L 109.905455 65.172495 
L 106.626116 68.223442 
L 103.346777 70.28305 
L 100.067438 65.46829 
L 96.788099 67.793002 
L 93.50876 64.828742 
L 90.229421 64.148217 
L 86.950083 71.289779 
L 83.670744 63.332648 
L 80.391405 67.394106 
L 77.112066 73.067026 
L 73.832727 86.403373 
z
" style="fill:#1f77b4;fill-opacity:0.2;"/>
   </g>
   <g id="PolyCollection_2">
    <path clip-path="url(#p24d315c5a7)" d="M 73.832727 132.671204 
L 73.832727 132.671204 
L 77.112066 146.625986 
L 80.391405 149.894985 
L 83.670744 147.165971 
L 86.950083 154.517529 
L 90.229421 155.138821 
L 93.50876 160.284458 
L 96.788099 164.386844 
L 100.067438 162.95955 
L 103.346777 159.243113 
L 106.626116 166.71223 
L 109.905455 167.666044 
L 113.184793 162.666968 
L 116.464132 160.225415 
L 119.743471 165.257681 
L 123.02281 167.113096 
L 126.302149 162.267643 
L 129.581488 173.829845 
L 132.860826 173.071491 
L 136.140165 173.311041 
L 139.419504 186.809748 
L 142.698843 174.839504 
L 145.978182 179.374665 
L 149.257521 183.171845 
L 152.53686 184.696994 
L 155.816198 181.200791 
L 159.095537 182.102506 
L 162.374876 186.184023 
L 165.654215 203.929108 
L 168.933554 193.103547 
L 172.212893 195.648986 
L 175.492231 199.126442 
L 178.77157 199.494 
L 182.050909 209.378494 
L 185.330248 208.119692 
L 188.609587 211.840874 
L 191.888926 204.869153 
L 195.168264 207.001262 
L 198.447603 205.296477 
L 201.726942 223.025829 
L 205.006281 222.749038 
L 208.28562 213.940295 
L 211.564959 223.725644 
L 214.844298 225.643409 
L 218.123636 230.568029 
L 221.402975 223.877389 
L 224.682314 240.071421 
L 227.961653 240.55755 
L 231.240992 230.885907 
L 234.520331 239.075446 
L 237.799669 241.798938 
L 241.079008 243.783109 
L 244.358347 243.719199 
L 247.637686 237.604198 
L 250.917025 253.030835 
L 254.196364 245.04201 
L 257.475702 244.670191 
L 260.755041 259.269441 
L 264.03438 252.045339 
L 267.313719 256.750897 
L 270.593058 259.038016 
L 273.872397 267.562419 
L 277.151736 260.620768 
L 280.431074 265.750823 
L 283.710413 268.506335 
L 286.989752 270.530244 
L 290.269091 258.214548 
L 293.54843 267.034977 
L 296.827769 272.625465 
L 300.107107 272.1615 
L 303.386446 281.001307 
L 306.665785 279.015112 
L 309.945124 280.415386 
L 313.224463 278.458205 
L 316.503802 289.856514 
L 319.78314 280.131541 
L 323.062479 283.203389 
L 326.341818 280.361076 
L 329.621157 288.615433 
L 332.900496 285.079489 
L 336.179835 289.815568 
L 339.459174 289.715825 
L 342.738512 292.423463 
L 346.017851 292.113772 
L 349.29719 295.488 
L 352.576529 290.528357 
L 355.855868 292.499071 
L 359.135207 295.083684 
L 362.414545 292.61582 
L 365.693884 294.718757 
L 368.973223 289.787917 
L 372.252562 291.042233 
L 375.531901 289.775635 
L 378.81124 289.958678 
L 382.090579 287.905031 
L 385.369917 284.409691 
L 388.649256 284.449951 
L 391.928595 283.507138 
L 395.207934 282.036918 
L 398.487273 280.728266 
L 398.487273 280.728266 
L 398.487273 280.728266 
L 395.207934 279.419614 
L 391.928595 277.394179 
L 388.649256 276.821509 
L 385.369917 275.011056 
L 382.090579 268.739646 
L 378.81124 263.354715 
L 375.531901 268.719755 
L 372.252562 265.417372 
L 368.973223 260.749406 
L 365.693884 258.224493 
L 362.414545 247.557508 
L 359.135207 243.238932 
L 355.855868 249.154829 
L 352.576529 245.20326 
L 349.29719 244.8704 
L 346.017851 237.695563 
L 342.738512 233.869516 
L 339.459174 228.434016 
L 336.179835 222.411991 
L 332.900496 222.336215 
L 329.621157 222.501697 
L 326.341818 210.768351 
L 323.062479 218.290033 
L 319.78314 221.176809 
L 316.503802 211.266765 
L 313.224463 201.937086 
L 309.945124 203.49626 
L 306.665785 201.56525 
L 303.386446 196.617914 
L 300.107107 203.051793 
L 296.827769 202.957971 
L 293.54843 198.184464 
L 290.269091 188.312689 
L 286.989752 188.951987 
L 283.710413 192.641537 
L 280.431074 182.256985 
L 277.151736 183.685614 
L 273.872397 186.552743 
L 270.593058 177.865513 
L 267.313719 172.194564 
L 264.03438 175.419552 
L 260.755041 172.267019 
L 257.475702 161.326426 
L 254.196364 170.208173 
L 250.917025 164.995418 
L 247.637686 167.652133 
L 244.358347 161.352062 
L 241.079008 154.255441 
L 237.799669 163.087252 
L 234.520331 164.885386 
L 231.240992 157.343862 
L 227.961653 156.925786 
L 224.682314 152.41499 
L 221.402975 154.358529 
L 218.123636 152.294672 
L 214.844298 142.783729 
L 211.564959 145.071637 
L 208.28562 140.236351 
L 205.006281 140.311031 
L 201.726942 140.404383 
L 198.447603 134.999819 
L 195.168264 131.444321 
L 191.888926 133.391358 
L 188.609587 133.082206 
L 185.330248 126.809536 
L 182.050909 128.696947 
L 178.77157 128.402517 
L 175.492231 123.032864 
L 172.212893 128.731176 
L 168.933554 126.464761 
L 165.654215 125.262909 
L 162.374876 120.059149 
L 159.095537 121.549668 
L 155.816198 115.418672 
L 152.53686 114.513467 
L 149.257521 114.928189 
L 145.978182 108.176304 
L 142.698843 111.786108 
L 139.419504 115.731997 
L 136.140165 112.204143 
L 132.860826 116.700333 
L 129.581488 116.127051 
L 126.302149 111.958189 
L 123.02281 111.924591 
L 119.743471 109.893508 
L 116.464132 110.669133 
L 113.184793 108.412652 
L 109.905455 106.929932 
L 106.626116 110.104601 
L 103.346777 104.248583 
L 100.067438 105.714143 
L 96.788099 105.767419 
L 93.50876 106.538521 
L 90.229421 106.687233 
L 86.950083 111.195023 
L 83.670744 108.922872 
L 80.391405 113.226568 
L 77.112066 117.791066 
L 73.832727 132.671204 
z
" style="fill:#ff7f0e;fill-opacity:0.2;"/>
   </g>
   <g id="PolyCollection_3">
    <path clip-path="url(#p24d315c5a7)" d="M 73.832727 77.149807 
L 73.832727 77.149807 
L 77.112066 86.117975 
L 80.391405 90.555584 
L 83.670744 97.560938 
L 86.950083 95.363743 
L 90.229421 97.988117 
L 93.50876 97.340917 
L 96.788099 103.592632 
L 100.067438 98.140615 
L 103.346777 111.019592 
L 106.626116 108.249132 
L 109.905455 114.18833 
L 113.184793 111.066204 
L 116.464132 121.597752 
L 119.743471 123.884372 
L 123.02281 128.112478 
L 126.302149 126.268819 
L 129.581488 124.910189 
L 132.860826 126.064851 
L 136.140165 125.044052 
L 139.419504 132.664514 
L 142.698843 136.651652 
L 145.978182 136.079189 
L 149.257521 136.954053 
L 152.53686 136.457326 
L 155.816198 146.243599 
L 159.095537 150.503435 
L 162.374876 150.157214 
L 165.654215 149.003462 
L 168.933554 147.306052 
L 172.212893 152.544291 
L 175.492231 148.519036 
L 178.77157 155.682435 
L 182.050909 154.534216 
L 185.330248 169.032654 
L 188.609587 167.697993 
L 191.888926 167.415514 
L 195.168264 172.449468 
L 198.447603 169.09332 
L 201.726942 177.056529 
L 205.006281 180.321341 
L 208.28562 177.980388 
L 211.564959 180.963189 
L 214.844298 184.848283 
L 218.123636 181.132871 
L 221.402975 178.411335 
L 224.682314 194.347469 
L 227.961653 195.174993 
L 231.240992 199.91075 
L 234.520331 192.878844 
L 237.799669 189.774708 
L 241.079008 200.187138 
L 244.358347 196.702408 
L 247.637686 204.274817 
L 250.917025 210.258097 
L 254.196364 211.046391 
L 257.475702 200.139769 
L 260.755041 208.603121 
L 264.03438 210.234196 
L 267.313719 214.851856 
L 270.593058 224.488456 
L 273.872397 228.294369 
L 277.151736 222.030939 
L 280.431074 228.125568 
L 283.710413 237.222786 
L 286.989752 242.30593 
L 290.269091 231.053338 
L 293.54843 239.497665 
L 296.827769 240.379705 
L 300.107107 245.783476 
L 303.386446 250.1211 
L 306.665785 250.415801 
L 309.945124 250.204714 
L 313.224463 249.315099 
L 316.503802 253.486254 
L 319.78314 253.4156 
L 323.062479 265.593362 
L 326.341818 262.004646 
L 329.621157 264.108374 
L 332.900496 266.588961 
L 336.179835 269.493737 
L 339.459174 272.625012 
L 342.738512 276.114025 
L 346.017851 280.097226 
L 349.29719 277.371081 
L 352.576529 276.263995 
L 355.855868 279.315278 
L 359.135207 282.350101 
L 362.414545 287.916299 
L 365.693884 289.160516 
L 368.973223 289.777845 
L 372.252562 288.951711 
L 375.531901 291.023892 
L 378.81124 289.041243 
L 382.090579 291.760448 
L 385.369917 290.947311 
L 388.649256 289.416018 
L 391.928595 287.581938 
L 395.207934 288.884058 
L 398.487273 286.359974 
L 398.487273 272.505559 
L 398.487273 272.505559 
L 395.207934 271.276974 
L 391.928595 270.54331 
L 388.649256 265.192875 
L 385.369917 262.736224 
L 382.090579 250.263594 
L 378.81124 245.209804 
L 375.531901 246.003224 
L 372.252562 243.448622 
L 368.973223 221.8945 
L 365.693884 218.44026 
L 362.414545 226.347044 
L 359.135207 217.107536 
L 355.855868 213.109649 
L 352.576529 210.238649 
L 349.29719 201.358567 
L 346.017851 202.703991 
L 342.738512 181.887635 
L 339.459174 193.149644 
L 336.179835 186.657209 
L 332.900496 186.230701 
L 329.621157 197.964855 
L 326.341818 180.265951 
L 323.062479 183.154732 
L 319.78314 180.341716 
L 316.503802 178.975563 
L 313.224463 170.561867 
L 309.945124 171.152823 
L 306.665785 166.129881 
L 303.386446 159.206801 
L 300.107107 161.878783 
L 296.827769 155.067846 
L 293.54843 158.725956 
L 290.269091 143.481153 
L 286.989752 151.290908 
L 283.710413 148.601057 
L 280.431074 141.411998 
L 277.151736 141.954487 
L 273.872397 141.428268 
L 270.593058 139.126827 
L 267.313719 138.584504 
L 264.03438 141.16638 
L 260.755041 135.394602 
L 257.475702 115.912184 
L 254.196364 126.103693 
L 250.917025 121.339847 
L 247.637686 118.624775 
L 244.358347 117.868974 
L 241.079008 116.790171 
L 237.799669 122.205676 
L 234.520331 111.883757 
L 231.240992 117.806844 
L 227.961653 120.691888 
L 224.682314 120.408984 
L 221.402975 113.026131 
L 218.123636 112.710522 
L 214.844298 106.033969 
L 211.564959 113.250347 
L 208.28562 102.908012 
L 205.006281 101.122273 
L 201.726942 103.831871 
L 198.447603 99.580372 
L 195.168264 100.110723 
L 191.888926 91.079256 
L 188.609587 93.202704 
L 185.330248 92.978471 
L 182.050909 90.450347 
L 178.77157 87.266344 
L 175.492231 86.656747 
L 172.212893 83.926991 
L 168.933554 83.428019 
L 165.654215 81.91568 
L 162.374876 83.908141 
L 159.095537 75.788924 
L 155.816198 85.045686 
L 152.53686 69.84733 
L 149.257521 70.275959 
L 145.978182 66.338969 
L 142.698843 70.023147 
L 139.419504 71.234214 
L 136.140165 71.821966 
L 132.860826 71.17131 
L 129.581488 73.4364 
L 126.302149 64.859988 
L 123.02281 70.419182 
L 119.743471 66.874292 
L 116.464132 68.235555 
L 113.184793 66.737468 
L 109.905455 68.98241 
L 106.626116 61.596472 
L 103.346777 61.602082 
L 100.067438 53.568 
L 96.788099 59.220262 
L 93.50876 55.293054 
L 90.229421 61.863636 
L 86.950083 59.676155 
L 83.670744 62.475886 
L 80.391405 63.9291 
L 77.112066 67.441353 
L 73.832727 77.149807 
z
" style="fill:#2ca02c;fill-opacity:0.2;"/>
   </g>
   <g id="PolyCollection_4">
    <path clip-path="url(#p24d315c5a7)" d="M 73.832727 86.403373 
L 73.832727 86.403373 
L 77.112066 88.909956 
L 80.391405 95.295783 
L 83.670744 96.659231 
L 86.950083 110.550576 
L 90.229421 123.127749 
L 93.50876 140.341704 
L 96.788099 167.847645 
L 100.067438 177.612378 
L 103.346777 202.511691 
L 106.626116 202.95593 
L 109.905455 218.38868 
L 113.184793 227.336282 
L 116.464132 232.756216 
L 119.743471 262.215992 
L 123.02281 256.869766 
L 126.302149 264.062435 
L 129.581488 270.663952 
L 132.860826 278.071469 
L 136.140165 281.542816 
L 139.419504 284.126134 
L 142.698843 282.490649 
L 145.978182 285.180734 
L 149.257521 286.690325 
L 152.53686 285.786971 
L 155.816198 284.379875 
L 159.095537 285.559248 
L 162.374876 284.551951 
L 165.654215 284.061295 
L 168.933554 282.819027 
L 172.212893 283.506304 
L 175.492231 282.441536 
L 178.77157 282.171444 
L 182.050909 282.029199 
L 185.330248 282.282355 
L 188.609587 282.384631 
L 191.888926 282.029199 
L 195.168264 280.728266 
L 198.447603 280.728266 
L 201.726942 280.728266 
L 205.006281 280.728266 
L 208.28562 280.728266 
L 211.564959 280.728266 
L 214.844298 280.728266 
L 218.123636 280.728266 
L 221.402975 280.728266 
L 224.682314 280.728266 
L 227.961653 280.728266 
L 231.240992 280.728266 
L 234.520331 280.728266 
L 237.799669 280.728266 
L 241.079008 280.728266 
L 244.358347 280.728266 
L 247.637686 280.728266 
L 250.917025 280.728266 
L 254.196364 280.728266 
L 257.475702 280.728266 
L 260.755041 280.728266 
L 264.03438 280.728266 
L 267.313719 280.728266 
L 270.593058 280.728266 
L 273.872397 280.728266 
L 277.151736 280.728266 
L 280.431074 280.728266 
L 283.710413 280.728266 
L 286.989752 280.728266 
L 290.269091 280.728266 
L 293.54843 280.728266 
L 296.827769 280.728266 
L 300.107107 280.728266 
L 303.386446 280.728266 
L 306.665785 280.728266 
L 309.945124 280.728266 
L 313.224463 280.728266 
L 316.503802 280.728266 
L 319.78314 280.728266 
L 323.062479 280.728266 
L 326.341818 280.728266 
L 329.621157 280.728266 
L 332.900496 280.728266 
L 336.179835 280.728266 
L 339.459174 280.728266 
L 342.738512 280.728266 
L 346.017851 280.728266 
L 349.29719 280.728266 
L 352.576529 280.728266 
L 355.855868 280.728266 
L 359.135207 280.728266 
L 362.414545 280.728266 
L 365.693884 280.728266 
L 368.973223 280.728266 
L 372.252562 280.728266 
L 375.531901 280.728266 
L 378.81124 280.728266 
L 382.090579 280.728266 
L 385.369917 280.728266 
L 388.649256 280.728266 
L 391.928595 280.728266 
L 395.207934 280.728266 
L 398.487273 280.728266 
L 398.487273 280.728266 
L 398.487273 280.728266 
L 395.207934 280.728266 
L 391.928595 280.728266 
L 388.649256 280.728266 
L 385.369917 280.728266 
L 382.090579 280.728266 
L 378.81124 280.728266 
L 375.531901 280.728266 
L 372.252562 280.728266 
L 368.973223 280.728266 
L 365.693884 280.728266 
L 362.414545 280.728266 
L 359.135207 280.728266 
L 355.855868 280.728266 
L 352.576529 280.728266 
L 349.29719 280.728266 
L 346.017851 280.728266 
L 342.738512 280.728266 
L 339.459174 280.728266 
L 336.179835 280.728266 
L 332.900496 280.728266 
L 329.621157 280.728266 
L 326.341818 280.728266 
L 323.062479 280.728266 
L 319.78314 280.728266 
L 316.503802 280.728266 
L 313.224463 280.728266 
L 309.945124 280.728266 
L 306.665785 280.728266 
L 303.386446 280.728266 
L 300.107107 280.728266 
L 296.827769 280.728266 
L 293.54843 280.728266 
L 290.269091 280.728266 
L 286.989752 280.728266 
L 283.710413 280.728266 
L 280.431074 280.728266 
L 277.151736 280.728266 
L 273.872397 280.728266 
L 270.593058 280.728266 
L 267.313719 280.728266 
L 264.03438 280.728266 
L 260.755041 280.728266 
L 257.475702 280.728266 
L 254.196364 280.728266 
L 250.917025 280.728266 
L 247.637686 280.728266 
L 244.358347 280.728266 
L 241.079008 280.728266 
L 237.799669 280.728266 
L 234.520331 280.728266 
L 231.240992 280.728266 
L 227.961653 280.728266 
L 224.682314 280.728266 
L 221.402975 280.728266 
L 218.123636 280.728266 
L 214.844298 280.728266 
L 211.564959 280.728266 
L 208.28562 280.728266 
L 205.006281 280.728266 
L 201.726942 280.728266 
L 198.447603 280.728266 
L 195.168264 280.728266 
L 191.888926 278.872119 
L 188.609587 278.701758 
L 185.330248 278.248819 
L 182.050909 278.872119 
L 178.77157 278.544802 
L 175.492231 277.719496 
L 172.212893 274.804015 
L 168.933554 277.156933 
L 165.654215 274.249024 
L 162.374876 270.982298 
L 159.095537 264.052718 
L 155.816198 269.30366 
L 152.53686 264.38021 
L 149.257521 258.665001 
L 145.978182 253.326953 
L 142.698843 243.80233 
L 139.419504 242.907131 
L 136.140165 232.350384 
L 132.860826 227.123379 
L 129.581488 213.617836 
L 126.302149 198.566008 
L 123.02281 185.956046 
L 119.743471 182.275461 
L 116.464132 157.324267 
L 113.184793 141.275927 
L 109.905455 135.787966 
L 106.626116 128.642014 
L 103.346777 122.053542 
L 100.067438 101.795452 
L 96.788099 93.423195 
L 93.50876 84.470084 
L 90.229421 75.033768 
L 86.950083 71.509736 
L 83.670744 63.192522 
L 80.391405 62.890328 
L 77.112066 64.649371 
L 73.832727 86.403373 
z
" style="fill:#d62728;fill-opacity:0.2;"/>
   </g>
   <g id="matplotlib.axis_1">
    <g id="xtick_1">
     <g id="line2d_1">
      <defs>
       <path d="M 0 0 
L 0 3.5 
" id="m66939ef86a" style="stroke:#000000;stroke-width:0.8;"/>
      </defs>
      <g>
       <use style="stroke:#000000;stroke-width:0.8;" x="401.766612" xlink:href="#m66939ef86a" y="307.584"/>
      </g>
     </g>
     <g id="text_1">
      <!-- 0 -->
      <g transform="translate(398.585362 322.182437)scale(0.1 -0.1)">
       <defs>
        <path d="M 31.78125 66.40625 
Q 24.171875 66.40625 20.328125 58.90625 
Q 16.5 51.421875 16.5 36.375 
Q 16.5 21.390625 20.328125 13.890625 
Q 24.171875 6.390625 31.78125 6.390625 
Q 39.453125 6.390625 43.28125 13.890625 
Q 47.125 21.390625 47.125 36.375 
Q 47.125 51.421875 43.28125 58.90625 
Q 39.453125 66.40625 31.78125 66.40625 
z
M 31.78125 74.21875 
Q 44.046875 74.21875 50.515625 64.515625 
Q 56.984375 54.828125 56.984375 36.375 
Q 56.984375 17.96875 50.515625 8.265625 
Q 44.046875 -1.421875 31.78125 -1.421875 
Q 19.53125 -1.421875 13.0625 8.265625 
Q 6.59375 17.96875 6.59375 36.375 
Q 6.59375 54.828125 13.0625 64.515625 
Q 19.53125 74.21875 31.78125 74.21875 
z
" id="DejaVuSans-48"/>
       </defs>
       <use xlink:href="#DejaVuSans-48"/>
      </g>
     </g>
    </g>
    <g id="xtick_2">
     <g id="line2d_2">
      <g>
       <use style="stroke:#000000;stroke-width:0.8;" x="336.179835" xlink:href="#m66939ef86a" y="307.584"/>
      </g>
     </g>
     <g id="text_2">
      <!-- 20 -->
      <g transform="translate(329.817335 322.182437)scale(0.1 -0.1)">
       <defs>
        <path d="M 19.1875 8.296875 
L 53.609375 8.296875 
L 53.609375 0 
L 7.328125 0 
L 7.328125 8.296875 
Q 12.9375 14.109375 22.625 23.890625 
Q 32.328125 33.6875 34.8125 36.53125 
Q 39.546875 41.84375 41.421875 45.53125 
Q 43.3125 49.21875 43.3125 52.78125 
Q 43.3125 58.59375 39.234375 62.25 
Q 35.15625 65.921875 28.609375 65.921875 
Q 23.96875 65.921875 18.8125 64.3125 
Q 13.671875 62.703125 7.8125 59.421875 
L 7.8125 69.390625 
Q 13.765625 71.78125 18.9375 73 
Q 24.125 74.21875 28.421875 74.21875 
Q 39.75 74.21875 46.484375 68.546875 
Q 53.21875 62.890625 53.21875 53.421875 
Q 53.21875 48.921875 51.53125 44.890625 
Q 49.859375 40.875 45.40625 35.40625 
Q 44.1875 33.984375 37.640625 27.21875 
Q 31.109375 20.453125 19.1875 8.296875 
z
" id="DejaVuSans-50"/>
       </defs>
       <use xlink:href="#DejaVuSans-50"/>
       <use x="63.623047" xlink:href="#DejaVuSans-48"/>
      </g>
     </g>
    </g>
    <g id="xtick_3">
     <g id="line2d_3">
      <g>
       <use style="stroke:#000000;stroke-width:0.8;" x="270.593058" xlink:href="#m66939ef86a" y="307.584"/>
      </g>
     </g>
     <g id="text_3">
      <!-- 40 -->
      <g transform="translate(264.230558 322.182437)scale(0.1 -0.1)">
       <defs>
        <path d="M 37.796875 64.3125 
L 12.890625 25.390625 
L 37.796875 25.390625 
z
M 35.203125 72.90625 
L 47.609375 72.90625 
L 47.609375 25.390625 
L 58.015625 25.390625 
L 58.015625 17.1875 
L 47.609375 17.1875 
L 47.609375 0 
L 37.796875 0 
L 37.796875 17.1875 
L 4.890625 17.1875 
L 4.890625 26.703125 
z
" id="DejaVuSans-52"/>
       </defs>
       <use xlink:href="#DejaVuSans-52"/>
       <use x="63.623047" xlink:href="#DejaVuSans-48"/>
      </g>
     </g>
    </g>
    <g id="xtick_4">
     <g id="line2d_4">
      <g>
       <use style="stroke:#000000;stroke-width:0.8;" x="205.006281" xlink:href="#m66939ef86a" y="307.584"/>
      </g>
     </g>
     <g id="text_4">
      <!-- 60 -->
      <g transform="translate(198.643781 322.182437)scale(0.1 -0.1)">
       <defs>
        <path d="M 33.015625 40.375 
Q 26.375 40.375 22.484375 35.828125 
Q 18.609375 31.296875 18.609375 23.390625 
Q 18.609375 15.53125 22.484375 10.953125 
Q 26.375 6.390625 33.015625 6.390625 
Q 39.65625 6.390625 43.53125 10.953125 
Q 47.40625 15.53125 47.40625 23.390625 
Q 47.40625 31.296875 43.53125 35.828125 
Q 39.65625 40.375 33.015625 40.375 
z
M 52.59375 71.296875 
L 52.59375 62.3125 
Q 48.875 64.0625 45.09375 64.984375 
Q 41.3125 65.921875 37.59375 65.921875 
Q 27.828125 65.921875 22.671875 59.328125 
Q 17.53125 52.734375 16.796875 39.40625 
Q 19.671875 43.65625 24.015625 45.921875 
Q 28.375 48.1875 33.59375 48.1875 
Q 44.578125 48.1875 50.953125 41.515625 
Q 57.328125 34.859375 57.328125 23.390625 
Q 57.328125 12.15625 50.6875 5.359375 
Q 44.046875 -1.421875 33.015625 -1.421875 
Q 20.359375 -1.421875 13.671875 8.265625 
Q 6.984375 17.96875 6.984375 36.375 
Q 6.984375 53.65625 15.1875 63.9375 
Q 23.390625 74.21875 37.203125 74.21875 
Q 40.921875 74.21875 44.703125 73.484375 
Q 48.484375 72.75 52.59375 71.296875 
z
" id="DejaVuSans-54"/>
       </defs>
       <use xlink:href="#DejaVuSans-54"/>
       <use x="63.623047" xlink:href="#DejaVuSans-48"/>
      </g>
     </g>
    </g>
    <g id="xtick_5">
     <g id="line2d_5">
      <g>
       <use style="stroke:#000000;stroke-width:0.8;" x="139.419504" xlink:href="#m66939ef86a" y="307.584"/>
      </g>
     </g>
     <g id="text_5">
      <!-- 80 -->
      <g transform="translate(133.057004 322.182437)scale(0.1 -0.1)">
       <defs>
        <path d="M 31.78125 34.625 
Q 24.75 34.625 20.71875 30.859375 
Q 16.703125 27.09375 16.703125 20.515625 
Q 16.703125 13.921875 20.71875 10.15625 
Q 24.75 6.390625 31.78125 6.390625 
Q 38.8125 6.390625 42.859375 10.171875 
Q 46.921875 13.96875 46.921875 20.515625 
Q 46.921875 27.09375 42.890625 30.859375 
Q 38.875 34.625 31.78125 34.625 
z
M 21.921875 38.8125 
Q 15.578125 40.375 12.03125 44.71875 
Q 8.5 49.078125 8.5 55.328125 
Q 8.5 64.0625 14.71875 69.140625 
Q 20.953125 74.21875 31.78125 74.21875 
Q 42.671875 74.21875 48.875 69.140625 
Q 55.078125 64.0625 55.078125 55.328125 
Q 55.078125 49.078125 51.53125 44.71875 
Q 48 40.375 41.703125 38.8125 
Q 48.828125 37.15625 52.796875 32.3125 
Q 56.78125 27.484375 56.78125 20.515625 
Q 56.78125 9.90625 50.3125 4.234375 
Q 43.84375 -1.421875 31.78125 -1.421875 
Q 19.734375 -1.421875 13.25 4.234375 
Q 6.78125 9.90625 6.78125 20.515625 
Q 6.78125 27.484375 10.78125 32.3125 
Q 14.796875 37.15625 21.921875 38.8125 
z
M 18.3125 54.390625 
Q 18.3125 48.734375 21.84375 45.5625 
Q 25.390625 42.390625 31.78125 42.390625 
Q 38.140625 42.390625 41.71875 45.5625 
Q 45.3125 48.734375 45.3125 54.390625 
Q 45.3125 60.0625 41.71875 63.234375 
Q 38.140625 66.40625 31.78125 66.40625 
Q 25.390625 66.40625 21.84375 63.234375 
Q 18.3125 60.0625 18.3125 54.390625 
z
" id="DejaVuSans-56"/>
       </defs>
       <use xlink:href="#DejaVuSans-56"/>
       <use x="63.623047" xlink:href="#DejaVuSans-48"/>
      </g>
     </g>
    </g>
    <g id="xtick_6">
     <g id="line2d_6">
      <g>
       <use style="stroke:#000000;stroke-width:0.8;" x="73.832727" xlink:href="#m66939ef86a" y="307.584"/>
      </g>
     </g>
     <g id="text_6">
      <!-- 100 -->
      <g transform="translate(64.288977 322.182437)scale(0.1 -0.1)">
       <defs>
        <path d="M 12.40625 8.296875 
L 28.515625 8.296875 
L 28.515625 63.921875 
L 10.984375 60.40625 
L 10.984375 69.390625 
L 28.421875 72.90625 
L 38.28125 72.90625 
L 38.28125 8.296875 
L 54.390625 8.296875 
L 54.390625 0 
L 12.40625 0 
z
" id="DejaVuSans-49"/>
       </defs>
       <use xlink:href="#DejaVuSans-49"/>
       <use x="63.623047" xlink:href="#DejaVuSans-48"/>
       <use x="127.246094" xlink:href="#DejaVuSans-48"/>
      </g>
     </g>
    </g>
    <g id="text_7">
     <!-- Number of features -->
     <g transform="translate(187.4225 335.860562)scale(0.1 -0.1)">
      <defs>
       <path d="M 9.8125 72.90625 
L 23.09375 72.90625 
L 55.421875 11.921875 
L 55.421875 72.90625 
L 64.984375 72.90625 
L 64.984375 0 
L 51.703125 0 
L 19.390625 60.984375 
L 19.390625 0 
L 9.8125 0 
z
" id="DejaVuSans-78"/>
       <path d="M 8.5 21.578125 
L 8.5 54.6875 
L 17.484375 54.6875 
L 17.484375 21.921875 
Q 17.484375 14.15625 20.5 10.265625 
Q 23.53125 6.390625 29.59375 6.390625 
Q 36.859375 6.390625 41.078125 11.03125 
Q 45.3125 15.671875 45.3125 23.6875 
L 45.3125 54.6875 
L 54.296875 54.6875 
L 54.296875 0 
L 45.3125 0 
L 45.3125 8.40625 
Q 42.046875 3.421875 37.71875 1 
Q 33.40625 -1.421875 27.6875 -1.421875 
Q 18.265625 -1.421875 13.375 4.4375 
Q 8.5 10.296875 8.5 21.578125 
z
M 31.109375 56 
z
" id="DejaVuSans-117"/>
       <path d="M 52 44.1875 
Q 55.375 50.25 60.0625 53.125 
Q 64.75 56 71.09375 56 
Q 79.640625 56 84.28125 50.015625 
Q 88.921875 44.046875 88.921875 33.015625 
L 88.921875 0 
L 79.890625 0 
L 79.890625 32.71875 
Q 79.890625 40.578125 77.09375 44.375 
Q 74.3125 48.1875 68.609375 48.1875 
Q 61.625 48.1875 57.5625 43.546875 
Q 53.515625 38.921875 53.515625 30.90625 
L 53.515625 0 
L 44.484375 0 
L 44.484375 32.71875 
Q 44.484375 40.625 41.703125 44.40625 
Q 38.921875 48.1875 33.109375 48.1875 
Q 26.21875 48.1875 22.15625 43.53125 
Q 18.109375 38.875 18.109375 30.90625 
L 18.109375 0 
L 9.078125 0 
L 9.078125 54.6875 
L 18.109375 54.6875 
L 18.109375 46.1875 
Q 21.1875 51.21875 25.484375 53.609375 
Q 29.78125 56 35.6875 56 
Q 41.65625 56 45.828125 52.96875 
Q 50 49.953125 52 44.1875 
z
" id="DejaVuSans-109"/>
       <path d="M 48.6875 27.296875 
Q 48.6875 37.203125 44.609375 42.84375 
Q 40.53125 48.484375 33.40625 48.484375 
Q 26.265625 48.484375 22.1875 42.84375 
Q 18.109375 37.203125 18.109375 27.296875 
Q 18.109375 17.390625 22.1875 11.75 
Q 26.265625 6.109375 33.40625 6.109375 
Q 40.53125 6.109375 44.609375 11.75 
Q 48.6875 17.390625 48.6875 27.296875 
z
M 18.109375 46.390625 
Q 20.953125 51.265625 25.265625 53.625 
Q 29.59375 56 35.59375 56 
Q 45.5625 56 51.78125 48.09375 
Q 58.015625 40.1875 58.015625 27.296875 
Q 58.015625 14.40625 51.78125 6.484375 
Q 45.5625 -1.421875 35.59375 -1.421875 
Q 29.59375 -1.421875 25.265625 0.953125 
Q 20.953125 3.328125 18.109375 8.203125 
L 18.109375 0 
L 9.078125 0 
L 9.078125 75.984375 
L 18.109375 75.984375 
z
" id="DejaVuSans-98"/>
       <path d="M 56.203125 29.59375 
L 56.203125 25.203125 
L 14.890625 25.203125 
Q 15.484375 15.921875 20.484375 11.0625 
Q 25.484375 6.203125 34.421875 6.203125 
Q 39.59375 6.203125 44.453125 7.46875 
Q 49.3125 8.734375 54.109375 11.28125 
L 54.109375 2.78125 
Q 49.265625 0.734375 44.1875 -0.34375 
Q 39.109375 -1.421875 33.890625 -1.421875 
Q 20.796875 -1.421875 13.15625 6.1875 
Q 5.515625 13.8125 5.515625 26.8125 
Q 5.515625 40.234375 12.765625 48.109375 
Q 20.015625 56 32.328125 56 
Q 43.359375 56 49.78125 48.890625 
Q 56.203125 41.796875 56.203125 29.59375 
z
M 47.21875 32.234375 
Q 47.125 39.59375 43.09375 43.984375 
Q 39.0625 48.390625 32.421875 48.390625 
Q 24.90625 48.390625 20.390625 44.140625 
Q 15.875 39.890625 15.1875 32.171875 
z
" id="DejaVuSans-101"/>
       <path d="M 41.109375 46.296875 
Q 39.59375 47.171875 37.8125 47.578125 
Q 36.03125 48 33.890625 48 
Q 26.265625 48 22.1875 43.046875 
Q 18.109375 38.09375 18.109375 28.8125 
L 18.109375 0 
L 9.078125 0 
L 9.078125 54.6875 
L 18.109375 54.6875 
L 18.109375 46.1875 
Q 20.953125 51.171875 25.484375 53.578125 
Q 30.03125 56 36.53125 56 
Q 37.453125 56 38.578125 55.875 
Q 39.703125 55.765625 41.0625 55.515625 
z
" id="DejaVuSans-114"/>
       <path id="DejaVuSans-32"/>
       <path d="M 30.609375 48.390625 
Q 23.390625 48.390625 19.1875 42.75 
Q 14.984375 37.109375 14.984375 27.296875 
Q 14.984375 17.484375 19.15625 11.84375 
Q 23.34375 6.203125 30.609375 6.203125 
Q 37.796875 6.203125 41.984375 11.859375 
Q 46.1875 17.53125 46.1875 27.296875 
Q 46.1875 37.015625 41.984375 42.703125 
Q 37.796875 48.390625 30.609375 48.390625 
z
M 30.609375 56 
Q 42.328125 56 49.015625 48.375 
Q 55.71875 40.765625 55.71875 27.296875 
Q 55.71875 13.875 49.015625 6.21875 
Q 42.328125 -1.421875 30.609375 -1.421875 
Q 18.84375 -1.421875 12.171875 6.21875 
Q 5.515625 13.875 5.515625 27.296875 
Q 5.515625 40.765625 12.171875 48.375 
Q 18.84375 56 30.609375 56 
z
" id="DejaVuSans-111"/>
       <path d="M 37.109375 75.984375 
L 37.109375 68.5 
L 28.515625 68.5 
Q 23.6875 68.5 21.796875 66.546875 
Q 19.921875 64.59375 19.921875 59.515625 
L 19.921875 54.6875 
L 34.71875 54.6875 
L 34.71875 47.703125 
L 19.921875 47.703125 
L 19.921875 0 
L 10.890625 0 
L 10.890625 47.703125 
L 2.296875 47.703125 
L 2.296875 54.6875 
L 10.890625 54.6875 
L 10.890625 58.5 
Q 10.890625 67.625 15.140625 71.796875 
Q 19.390625 75.984375 28.609375 75.984375 
z
" id="DejaVuSans-102"/>
       <path d="M 34.28125 27.484375 
Q 23.390625 27.484375 19.1875 25 
Q 14.984375 22.515625 14.984375 16.5 
Q 14.984375 11.71875 18.140625 8.90625 
Q 21.296875 6.109375 26.703125 6.109375 
Q 34.1875 6.109375 38.703125 11.40625 
Q 43.21875 16.703125 43.21875 25.484375 
L 43.21875 27.484375 
z
M 52.203125 31.203125 
L 52.203125 0 
L 43.21875 0 
L 43.21875 8.296875 
Q 40.140625 3.328125 35.546875 0.953125 
Q 30.953125 -1.421875 24.3125 -1.421875 
Q 15.921875 -1.421875 10.953125 3.296875 
Q 6 8.015625 6 15.921875 
Q 6 25.140625 12.171875 29.828125 
Q 18.359375 34.515625 30.609375 34.515625 
L 43.21875 34.515625 
L 43.21875 35.40625 
Q 43.21875 41.609375 39.140625 45 
Q 35.0625 48.390625 27.6875 48.390625 
Q 23 48.390625 18.546875 47.265625 
Q 14.109375 46.140625 10.015625 43.890625 
L 10.015625 52.203125 
Q 14.9375 54.109375 19.578125 55.046875 
Q 24.21875 56 28.609375 56 
Q 40.484375 56 46.34375 49.84375 
Q 52.203125 43.703125 52.203125 31.203125 
z
" id="DejaVuSans-97"/>
       <path d="M 18.3125 70.21875 
L 18.3125 54.6875 
L 36.8125 54.6875 
L 36.8125 47.703125 
L 18.3125 47.703125 
L 18.3125 18.015625 
Q 18.3125 11.328125 20.140625 9.421875 
Q 21.96875 7.515625 27.59375 7.515625 
L 36.8125 7.515625 
L 36.8125 0 
L 27.59375 0 
Q 17.1875 0 13.234375 3.875 
Q 9.28125 7.765625 9.28125 18.015625 
L 9.28125 47.703125 
L 2.6875 47.703125 
L 2.6875 54.6875 
L 9.28125 54.6875 
L 9.28125 70.21875 
z
" id="DejaVuSans-116"/>
       <path d="M 44.28125 53.078125 
L 44.28125 44.578125 
Q 40.484375 46.53125 36.375 47.5 
Q 32.28125 48.484375 27.875 48.484375 
Q 21.1875 48.484375 17.84375 46.4375 
Q 14.5 44.390625 14.5 40.28125 
Q 14.5 37.15625 16.890625 35.375 
Q 19.28125 33.59375 26.515625 31.984375 
L 29.59375 31.296875 
Q 39.15625 29.25 43.1875 25.515625 
Q 47.21875 21.78125 47.21875 15.09375 
Q 47.21875 7.46875 41.1875 3.015625 
Q 35.15625 -1.421875 24.609375 -1.421875 
Q 20.21875 -1.421875 15.453125 -0.5625 
Q 10.6875 0.296875 5.421875 2 
L 5.421875 11.28125 
Q 10.40625 8.6875 15.234375 7.390625 
Q 20.0625 6.109375 24.8125 6.109375 
Q 31.15625 6.109375 34.5625 8.28125 
Q 37.984375 10.453125 37.984375 14.40625 
Q 37.984375 18.0625 35.515625 20.015625 
Q 33.0625 21.96875 24.703125 23.78125 
L 21.578125 24.515625 
Q 13.234375 26.265625 9.515625 29.90625 
Q 5.8125 33.546875 5.8125 39.890625 
Q 5.8125 47.609375 11.28125 51.796875 
Q 16.75 56 26.8125 56 
Q 31.78125 56 36.171875 55.265625 
Q 40.578125 54.546875 44.28125 53.078125 
z
" id="DejaVuSans-115"/>
      </defs>
      <use xlink:href="#DejaVuSans-78"/>
      <use x="74.804688" xlink:href="#DejaVuSans-117"/>
      <use x="138.183594" xlink:href="#DejaVuSans-109"/>
      <use x="235.595703" xlink:href="#DejaVuSans-98"/>
      <use x="299.072266" xlink:href="#DejaVuSans-101"/>
      <use x="360.595703" xlink:href="#DejaVuSans-114"/>
      <use x="401.708984" xlink:href="#DejaVuSans-32"/>
      <use x="433.496094" xlink:href="#DejaVuSans-111"/>
      <use x="494.677734" xlink:href="#DejaVuSans-102"/>
      <use x="529.882812" xlink:href="#DejaVuSans-32"/>
      <use x="561.669922" xlink:href="#DejaVuSans-102"/>
      <use x="596.875" xlink:href="#DejaVuSans-101"/>
      <use x="658.398438" xlink:href="#DejaVuSans-97"/>
      <use x="719.677734" xlink:href="#DejaVuSans-116"/>
      <use x="758.886719" xlink:href="#DejaVuSans-117"/>
      <use x="822.265625" xlink:href="#DejaVuSans-114"/>
      <use x="861.128906" xlink:href="#DejaVuSans-101"/>
      <use x="922.652344" xlink:href="#DejaVuSans-115"/>
     </g>
    </g>
   </g>
   <g id="matplotlib.axis_2">
    <g id="ytick_1">
     <g id="line2d_7">
      <defs>
       <path d="M 0 0 
L -3.5 0 
" id="m0a86bd6da0" style="stroke:#000000;stroke-width:0.8;"/>
      </defs>
      <g>
       <use style="stroke:#000000;stroke-width:0.8;" x="57.6" xlink:href="#m0a86bd6da0" y="280.728266"/>
      </g>
     </g>
     <g id="text_8">
      <!-- 0.50 -->
      <g transform="translate(28.334375 284.527484)scale(0.1 -0.1)">
       <defs>
        <path d="M 10.6875 12.40625 
L 21 12.40625 
L 21 0 
L 10.6875 0 
z
" id="DejaVuSans-46"/>
        <path d="M 10.796875 72.90625 
L 49.515625 72.90625 
L 49.515625 64.59375 
L 19.828125 64.59375 
L 19.828125 46.734375 
Q 21.96875 47.46875 24.109375 47.828125 
Q 26.265625 48.1875 28.421875 48.1875 
Q 40.625 48.1875 47.75 41.5 
Q 54.890625 34.8125 54.890625 23.390625 
Q 54.890625 11.625 47.5625 5.09375 
Q 40.234375 -1.421875 26.90625 -1.421875 
Q 22.3125 -1.421875 17.546875 -0.640625 
Q 12.796875 0.140625 7.71875 1.703125 
L 7.71875 11.625 
Q 12.109375 9.234375 16.796875 8.0625 
Q 21.484375 6.890625 26.703125 6.890625 
Q 35.15625 6.890625 40.078125 11.328125 
Q 45.015625 15.765625 45.015625 23.390625 
Q 45.015625 31 40.078125 35.4375 
Q 35.15625 39.890625 26.703125 39.890625 
Q 22.75 39.890625 18.8125 39.015625 
Q 14.890625 38.140625 10.796875 36.28125 
z
" id="DejaVuSans-53"/>
       </defs>
       <use xlink:href="#DejaVuSans-48"/>
       <use x="63.623047" xlink:href="#DejaVuSans-46"/>
       <use x="95.410156" xlink:href="#DejaVuSans-53"/>
       <use x="159.033203" xlink:href="#DejaVuSans-48"/>
      </g>
     </g>
    </g>
    <g id="ytick_2">
     <g id="line2d_8">
      <g>
       <use style="stroke:#000000;stroke-width:0.8;" x="57.6" xlink:href="#m0a86bd6da0" y="234.460434"/>
      </g>
     </g>
     <g id="text_9">
      <!-- 0.55 -->
      <g transform="translate(28.334375 238.259653)scale(0.1 -0.1)">
       <use xlink:href="#DejaVuSans-48"/>
       <use x="63.623047" xlink:href="#DejaVuSans-46"/>
       <use x="95.410156" xlink:href="#DejaVuSans-53"/>
       <use x="159.033203" xlink:href="#DejaVuSans-53"/>
      </g>
     </g>
    </g>
    <g id="ytick_3">
     <g id="line2d_9">
      <g>
       <use style="stroke:#000000;stroke-width:0.8;" x="57.6" xlink:href="#m0a86bd6da0" y="188.192602"/>
      </g>
     </g>
     <g id="text_10">
      <!-- 0.60 -->
      <g transform="translate(28.334375 191.991821)scale(0.1 -0.1)">
       <use xlink:href="#DejaVuSans-48"/>
       <use x="63.623047" xlink:href="#DejaVuSans-46"/>
       <use x="95.410156" xlink:href="#DejaVuSans-54"/>
       <use x="159.033203" xlink:href="#DejaVuSans-48"/>
      </g>
     </g>
    </g>
    <g id="ytick_4">
     <g id="line2d_10">
      <g>
       <use style="stroke:#000000;stroke-width:0.8;" x="57.6" xlink:href="#m0a86bd6da0" y="141.924771"/>
      </g>
     </g>
     <g id="text_11">
      <!-- 0.65 -->
      <g transform="translate(28.334375 145.72399)scale(0.1 -0.1)">
       <use xlink:href="#DejaVuSans-48"/>
       <use x="63.623047" xlink:href="#DejaVuSans-46"/>
       <use x="95.410156" xlink:href="#DejaVuSans-54"/>
       <use x="159.033203" xlink:href="#DejaVuSans-53"/>
      </g>
     </g>
    </g>
    <g id="ytick_5">
     <g id="line2d_11">
      <g>
       <use style="stroke:#000000;stroke-width:0.8;" x="57.6" xlink:href="#m0a86bd6da0" y="95.656939"/>
      </g>
     </g>
     <g id="text_12">
      <!-- 0.70 -->
      <g transform="translate(28.334375 99.456158)scale(0.1 -0.1)">
       <defs>
        <path d="M 8.203125 72.90625 
L 55.078125 72.90625 
L 55.078125 68.703125 
L 28.609375 0 
L 18.3125 0 
L 43.21875 64.59375 
L 8.203125 64.59375 
z
" id="DejaVuSans-55"/>
       </defs>
       <use xlink:href="#DejaVuSans-48"/>
       <use x="63.623047" xlink:href="#DejaVuSans-46"/>
       <use x="95.410156" xlink:href="#DejaVuSans-55"/>
       <use x="159.033203" xlink:href="#DejaVuSans-48"/>
      </g>
     </g>
    </g>
    <g id="ytick_6">
     <g id="line2d_12">
      <g>
       <use style="stroke:#000000;stroke-width:0.8;" x="57.6" xlink:href="#m0a86bd6da0" y="49.389108"/>
      </g>
     </g>
     <g id="text_13">
      <!-- 0.75 -->
      <g transform="translate(28.334375 53.188326)scale(0.1 -0.1)">
       <use xlink:href="#DejaVuSans-48"/>
       <use x="63.623047" xlink:href="#DejaVuSans-46"/>
       <use x="95.410156" xlink:href="#DejaVuSans-55"/>
       <use x="159.033203" xlink:href="#DejaVuSans-53"/>
      </g>
     </g>
    </g>
    <g id="text_14">
     <!-- Accuracy -->
     <g transform="translate(22.254687 197.356125)rotate(-90)scale(0.1 -0.1)">
      <defs>
       <path d="M 34.1875 63.1875 
L 20.796875 26.90625 
L 47.609375 26.90625 
z
M 28.609375 72.90625 
L 39.796875 72.90625 
L 67.578125 0 
L 57.328125 0 
L 50.6875 18.703125 
L 17.828125 18.703125 
L 11.1875 0 
L 0.78125 0 
z
" id="DejaVuSans-65"/>
       <path d="M 48.78125 52.59375 
L 48.78125 44.1875 
Q 44.96875 46.296875 41.140625 47.34375 
Q 37.3125 48.390625 33.40625 48.390625 
Q 24.65625 48.390625 19.8125 42.84375 
Q 14.984375 37.3125 14.984375 27.296875 
Q 14.984375 17.28125 19.8125 11.734375 
Q 24.65625 6.203125 33.40625 6.203125 
Q 37.3125 6.203125 41.140625 7.25 
Q 44.96875 8.296875 48.78125 10.40625 
L 48.78125 2.09375 
Q 45.015625 0.34375 40.984375 -0.53125 
Q 36.96875 -1.421875 32.421875 -1.421875 
Q 20.0625 -1.421875 12.78125 6.34375 
Q 5.515625 14.109375 5.515625 27.296875 
Q 5.515625 40.671875 12.859375 48.328125 
Q 20.21875 56 33.015625 56 
Q 37.15625 56 41.109375 55.140625 
Q 45.0625 54.296875 48.78125 52.59375 
z
" id="DejaVuSans-99"/>
       <path d="M 32.171875 -5.078125 
Q 28.375 -14.84375 24.75 -17.8125 
Q 21.140625 -20.796875 15.09375 -20.796875 
L 7.90625 -20.796875 
L 7.90625 -13.28125 
L 13.1875 -13.28125 
Q 16.890625 -13.28125 18.9375 -11.515625 
Q 21 -9.765625 23.484375 -3.21875 
L 25.09375 0.875 
L 2.984375 54.6875 
L 12.5 54.6875 
L 29.59375 11.921875 
L 46.6875 54.6875 
L 56.203125 54.6875 
z
" id="DejaVuSans-121"/>
      </defs>
      <use xlink:href="#DejaVuSans-65"/>
      <use x="66.658203" xlink:href="#DejaVuSans-99"/>
      <use x="121.638672" xlink:href="#DejaVuSans-99"/>
      <use x="176.619141" xlink:href="#DejaVuSans-117"/>
      <use x="239.998047" xlink:href="#DejaVuSans-114"/>
      <use x="281.111328" xlink:href="#DejaVuSans-97"/>
      <use x="342.390625" xlink:href="#DejaVuSans-99"/>
      <use x="397.371094" xlink:href="#DejaVuSans-121"/>
     </g>
    </g>
   </g>
   <g id="line2d_13">
    <path clip-path="url(#p24d315c5a7)" d="M 73.832727 86.403373 
L 77.112066 85.292945 
L 80.391405 86.403373 
L 83.670744 83.627303 
L 86.950083 89.827192 
L 90.229421 86.958587 
L 93.50876 88.069015 
L 96.788099 91.400299 
L 100.067438 92.695798 
L 103.346777 98.062866 
L 106.626116 95.564404 
L 109.905455 93.621155 
L 113.184793 99.91358 
L 116.464132 100.561329 
L 119.743471 99.543437 
L 123.02281 104.81797 
L 126.302149 102.412043 
L 129.581488 106.668683 
L 132.860826 113.701394 
L 136.140165 107.501504 
L 139.419504 104.632899 
L 142.698843 112.868573 
L 145.978182 111.110395 
L 149.257521 113.238715 
L 152.53686 119.808747 
L 155.816198 119.253533 
L 159.095537 124.065388 
L 162.374876 116.477463 
L 165.654215 125.638494 
L 168.933554 123.232567 
L 172.212893 123.602709 
L 175.492231 128.5071 
L 178.77157 120.82664 
L 182.050909 126.193708 
L 185.330248 133.966704 
L 188.609587 133.966704 
L 191.888926 138.96363 
L 195.168264 136.280095 
L 198.447603 143.22027 
L 201.726942 146.551554 
L 205.006281 144.608305 
L 208.28562 140.536736 
L 211.564959 148.864946 
L 214.844298 147.106768 
L 218.123636 144.330698 
L 221.402975 153.6768 
L 224.682314 155.897656 
L 227.961653 156.45287 
L 231.240992 156.730477 
L 234.520331 159.599082 
L 237.799669 166.539257 
L 241.079008 162.837831 
L 244.358347 164.78108 
L 247.637686 167.187007 
L 250.917025 171.443647 
L 254.196364 166.169115 
L 257.475702 162.930366 
L 260.755041 174.960003 
L 264.03438 177.273394 
L 267.313719 177.643537 
L 270.593058 187.729924 
L 273.872397 188.562745 
L 277.151736 182.547927 
L 280.431074 191.894029 
L 283.710413 193.282064 
L 286.989752 186.064282 
L 290.269091 189.95078 
L 293.54843 206.607199 
L 296.827769 206.792271 
L 300.107107 210.123555 
L 303.386446 211.604125 
L 306.665785 209.383269 
L 309.945124 209.383269 
L 313.224463 221.135299 
L 316.503802 220.67262 
L 319.78314 221.690513 
L 323.062479 223.911368 
L 326.341818 224.836725 
L 329.621157 233.072399 
L 332.900496 222.80094 
L 336.179835 232.794792 
L 339.459174 236.773826 
L 342.738512 236.218612 
L 346.017851 241.030466 
L 349.29719 236.403683 
L 352.576529 245.657249 
L 355.855868 250.469104 
L 359.135207 252.227281 
L 362.414545 254.540673 
L 365.693884 258.2421 
L 368.973223 256.483922 
L 372.252562 263.424097 
L 375.531901 266.570309 
L 378.81124 265.182274 
L 382.090579 276.749232 
L 385.369917 275.176126 
L 388.649256 280.173052 
L 391.928595 279.895445 
L 395.207934 280.173052 
L 398.487273 279.710373 
" style="fill:none;stroke:#1f77b4;stroke-linecap:square;stroke-width:1.5;"/>
   </g>
   <g id="line2d_14">
    <path clip-path="url(#p24d315c5a7)" d="M 73.832727 132.671204 
L 77.112066 132.208526 
L 80.391405 131.560777 
L 83.670744 128.044421 
L 86.950083 132.856276 
L 90.229421 130.913027 
L 93.50876 133.41149 
L 96.788099 135.077132 
L 100.067438 134.336846 
L 103.346777 131.745848 
L 106.626116 138.408416 
L 109.905455 137.297988 
L 113.184793 135.53981 
L 116.464132 135.447274 
L 119.743471 137.575595 
L 123.02281 139.518844 
L 126.302149 137.112916 
L 129.581488 144.978448 
L 132.860826 144.885912 
L 136.140165 142.757592 
L 139.419504 151.270873 
L 142.698843 143.312806 
L 145.978182 143.775484 
L 149.257521 149.050017 
L 152.53686 149.605231 
L 155.816198 148.309732 
L 159.095537 151.826087 
L 162.374876 153.121586 
L 165.654215 164.596008 
L 168.933554 159.784154 
L 172.212893 162.190081 
L 175.492231 161.079653 
L 178.77157 163.948259 
L 182.050909 169.03772 
L 185.330248 167.464614 
L 188.609587 172.46154 
L 191.888926 169.130256 
L 195.168264 169.222791 
L 198.447603 170.148148 
L 201.726942 181.715106 
L 205.006281 181.530035 
L 208.28562 177.088323 
L 211.564959 184.39864 
L 214.844298 184.213569 
L 218.123636 191.431351 
L 221.402975 189.117959 
L 224.682314 196.243205 
L 227.961653 198.741668 
L 231.240992 194.114885 
L 234.520331 201.980416 
L 237.799669 202.443095 
L 241.079008 199.019275 
L 244.358347 202.53563 
L 247.637686 202.628166 
L 250.917025 209.013127 
L 254.196364 207.625092 
L 257.475702 202.998309 
L 260.755041 215.76823 
L 264.03438 213.732445 
L 267.313719 214.472731 
L 270.593058 218.451764 
L 273.872397 227.057581 
L 277.151736 222.153191 
L 280.431074 224.003904 
L 283.710413 230.573936 
L 286.989752 229.741115 
L 290.269091 223.263619 
L 293.54843 232.609721 
L 296.827769 237.791718 
L 300.107107 237.606647 
L 303.386446 238.80961 
L 306.665785 240.290181 
L 309.945124 241.955823 
L 313.224463 240.197645 
L 316.503802 250.561639 
L 319.78314 250.654175 
L 323.062479 250.746711 
L 326.341818 245.564714 
L 329.621157 255.558565 
L 332.900496 253.707852 
L 336.179835 256.113779 
L 339.459174 259.07492 
L 342.738512 263.14649 
L 346.017851 264.904667 
L 349.29719 270.1792 
L 352.576529 267.865808 
L 355.855868 270.82695 
L 359.135207 269.161308 
L 362.414545 270.086664 
L 365.693884 276.471625 
L 368.973223 275.268662 
L 372.252562 278.229803 
L 375.531901 279.247695 
L 378.81124 276.656696 
L 382.090579 278.322338 
L 385.369917 279.710373 
L 388.649256 280.63573 
L 391.928595 280.450659 
L 395.207934 280.728266 
L 398.487273 280.728266 
" style="fill:none;stroke:#ff7f0e;stroke-linecap:square;stroke-width:1.5;"/>
   </g>
   <g id="line2d_15">
    <path clip-path="url(#p24d315c5a7)" d="M 73.832727 77.149807 
L 77.112066 76.779664 
L 80.391405 77.242342 
L 83.670744 80.018412 
L 86.950083 77.519949 
L 90.229421 79.925876 
L 93.50876 76.316986 
L 96.788099 81.406447 
L 100.067438 75.854307 
L 103.346777 86.310837 
L 106.626116 84.922802 
L 109.905455 91.58537 
L 113.184793 88.901836 
L 116.464132 94.916654 
L 119.743471 95.379332 
L 123.02281 99.26583 
L 126.302149 95.564404 
L 129.581488 99.173294 
L 132.860826 98.61808 
L 136.140165 98.433009 
L 139.419504 101.949364 
L 142.698843 103.337399 
L 145.978182 101.209079 
L 149.257521 103.615006 
L 152.53686 103.152328 
L 155.816198 115.644642 
L 159.095537 113.14618 
L 162.374876 117.032677 
L 165.654215 115.459571 
L 168.933554 115.367035 
L 172.212893 118.235641 
L 175.492231 117.587891 
L 178.77157 121.474389 
L 182.050909 122.492282 
L 185.330248 131.005563 
L 188.609587 130.450349 
L 191.888926 129.247385 
L 195.168264 136.280095 
L 198.447603 134.336846 
L 201.726942 140.4442 
L 205.006281 140.721807 
L 208.28562 140.4442 
L 211.564959 147.106768 
L 214.844298 145.441126 
L 218.123636 146.921697 
L 221.402975 145.718733 
L 224.682314 157.378227 
L 227.961653 157.933441 
L 231.240992 158.858797 
L 234.520331 152.381301 
L 237.799669 155.990192 
L 241.079008 158.488655 
L 244.358347 157.285691 
L 247.637686 161.449796 
L 250.917025 165.798972 
L 254.196364 168.575042 
L 257.475702 158.025976 
L 260.755041 171.998861 
L 264.03438 175.700288 
L 267.313719 176.71818 
L 270.593058 181.807642 
L 273.872397 184.861319 
L 277.151736 181.992713 
L 280.431074 184.768783 
L 283.710413 192.911921 
L 286.989752 196.798419 
L 290.269091 187.267246 
L 293.54843 199.111811 
L 296.827769 197.723776 
L 300.107107 203.83113 
L 303.386446 204.66395 
L 306.665785 208.272841 
L 309.945124 210.678769 
L 313.224463 209.938483 
L 316.503802 216.230908 
L 319.78314 216.878658 
L 323.062479 224.374047 
L 326.341818 221.135299 
L 329.621157 231.036615 
L 332.900496 226.409831 
L 336.179835 228.075473 
L 339.459174 232.887328 
L 342.738512 229.00083 
L 346.017851 241.400609 
L 349.29719 239.364824 
L 352.576529 243.251322 
L 355.855868 246.212463 
L 359.135207 249.728818 
L 362.414545 257.131672 
L 365.693884 253.800388 
L 368.973223 255.836172 
L 372.252562 266.200167 
L 375.531901 268.513558 
L 378.81124 267.125523 
L 382.090579 271.012021 
L 385.369917 276.841768 
L 388.649256 277.304446 
L 391.928595 279.062624 
L 395.207934 280.080516 
L 398.487273 279.432766 
" style="fill:none;stroke:#2ca02c;stroke-linecap:square;stroke-width:1.5;"/>
   </g>
   <g id="line2d_16">
    <path clip-path="url(#p24d315c5a7)" d="M 73.832727 86.403373 
L 77.112066 76.779664 
L 80.391405 79.093055 
L 83.670744 79.925876 
L 86.950083 91.030156 
L 90.229421 99.080759 
L 93.50876 112.405894 
L 96.788099 130.63542 
L 100.067438 139.703915 
L 103.346777 162.282617 
L 106.626116 165.798972 
L 109.905455 177.088323 
L 113.184793 184.306105 
L 116.464132 195.040242 
L 119.743471 222.245727 
L 123.02281 221.412906 
L 126.302149 231.314222 
L 129.581488 242.140894 
L 132.860826 252.597424 
L 136.140165 256.9466 
L 139.419504 263.516632 
L 142.698843 263.14649 
L 145.978182 269.253843 
L 149.257521 272.677663 
L 152.53686 275.08359 
L 155.816198 276.841768 
L 159.095537 274.805983 
L 162.374876 277.767124 
L 165.654215 279.155159 
L 168.933554 279.98798 
L 172.212893 279.155159 
L 175.492231 280.080516 
L 178.77157 280.358123 
L 182.050909 280.450659 
L 185.330248 280.265587 
L 188.609587 280.543194 
L 191.888926 280.450659 
L 195.168264 280.728266 
L 198.447603 280.728266 
L 201.726942 280.728266 
L 205.006281 280.728266 
L 208.28562 280.728266 
L 211.564959 280.728266 
L 214.844298 280.728266 
L 218.123636 280.728266 
L 221.402975 280.728266 
L 224.682314 280.728266 
L 227.961653 280.728266 
L 231.240992 280.728266 
L 234.520331 280.728266 
L 237.799669 280.728266 
L 241.079008 280.728266 
L 244.358347 280.728266 
L 247.637686 280.728266 
L 250.917025 280.728266 
L 254.196364 280.728266 
L 257.475702 280.728266 
L 260.755041 280.728266 
L 264.03438 280.728266 
L 267.313719 280.728266 
L 270.593058 280.728266 
L 273.872397 280.728266 
L 277.151736 280.728266 
L 280.431074 280.728266 
L 283.710413 280.728266 
L 286.989752 280.728266 
L 290.269091 280.728266 
L 293.54843 280.728266 
L 296.827769 280.728266 
L 300.107107 280.728266 
L 303.386446 280.728266 
L 306.665785 280.728266 
L 309.945124 280.728266 
L 313.224463 280.728266 
L 316.503802 280.728266 
L 319.78314 280.728266 
L 323.062479 280.728266 
L 326.341818 280.728266 
L 329.621157 280.728266 
L 332.900496 280.728266 
L 336.179835 280.728266 
L 339.459174 280.728266 
L 342.738512 280.728266 
L 346.017851 280.728266 
L 349.29719 280.728266 
L 352.576529 280.728266 
L 355.855868 280.728266 
L 359.135207 280.728266 
L 362.414545 280.728266 
L 365.693884 280.728266 
L 368.973223 280.728266 
L 372.252562 280.728266 
L 375.531901 280.728266 
L 378.81124 280.728266 
L 382.090579 280.728266 
L 385.369917 280.728266 
L 388.649256 280.728266 
L 391.928595 280.728266 
L 395.207934 280.728266 
L 398.487273 280.728266 
" style="fill:none;stroke:#d62728;stroke-linecap:square;stroke-width:1.5;"/>
   </g>
   <g id="patch_3">
    <path d="M 57.6 307.584 
L 57.6 41.472 
" style="fill:none;stroke:#000000;stroke-linecap:square;stroke-linejoin:miter;stroke-width:0.8;"/>
   </g>
   <g id="patch_4">
    <path d="M 414.72 307.584 
L 414.72 41.472 
" style="fill:none;stroke:#000000;stroke-linecap:square;stroke-linejoin:miter;stroke-width:0.8;"/>
   </g>
   <g id="patch_5">
    <path d="M 57.6 307.584 
L 414.72 307.584 
" style="fill:none;stroke:#000000;stroke-linecap:square;stroke-linejoin:miter;stroke-width:0.8;"/>
   </g>
   <g id="patch_6">
    <path d="M 57.6 41.472 
L 414.72 41.472 
" style="fill:none;stroke:#000000;stroke-linecap:square;stroke-linejoin:miter;stroke-width:0.8;"/>
   </g>
   <g id="text_15">
    <!-- Toy_linear_1000_100 -->
    <g transform="translate(173.59875 35.472)scale(0.12 -0.12)">
     <defs>
      <path d="M -0.296875 72.90625 
L 61.375 72.90625 
L 61.375 64.59375 
L 35.5 64.59375 
L 35.5 0 
L 25.59375 0 
L 25.59375 64.59375 
L -0.296875 64.59375 
z
" id="DejaVuSans-84"/>
      <path d="M 50.984375 -16.609375 
L 50.984375 -23.578125 
L -0.984375 -23.578125 
L -0.984375 -16.609375 
z
" id="DejaVuSans-95"/>
      <path d="M 9.421875 75.984375 
L 18.40625 75.984375 
L 18.40625 0 
L 9.421875 0 
z
" id="DejaVuSans-108"/>
      <path d="M 9.421875 54.6875 
L 18.40625 54.6875 
L 18.40625 0 
L 9.421875 0 
z
M 9.421875 75.984375 
L 18.40625 75.984375 
L 18.40625 64.59375 
L 9.421875 64.59375 
z
" id="DejaVuSans-105"/>
      <path d="M 54.890625 33.015625 
L 54.890625 0 
L 45.90625 0 
L 45.90625 32.71875 
Q 45.90625 40.484375 42.875 44.328125 
Q 39.84375 48.1875 33.796875 48.1875 
Q 26.515625 48.1875 22.3125 43.546875 
Q 18.109375 38.921875 18.109375 30.90625 
L 18.109375 0 
L 9.078125 0 
L 9.078125 54.6875 
L 18.109375 54.6875 
L 18.109375 46.1875 
Q 21.34375 51.125 25.703125 53.5625 
Q 30.078125 56 35.796875 56 
Q 45.21875 56 50.046875 50.171875 
Q 54.890625 44.34375 54.890625 33.015625 
z
" id="DejaVuSans-110"/>
     </defs>
     <use xlink:href="#DejaVuSans-84"/>
     <use x="44.083984" xlink:href="#DejaVuSans-111"/>
     <use x="105.265625" xlink:href="#DejaVuSans-121"/>
     <use x="164.445312" xlink:href="#DejaVuSans-95"/>
     <use x="214.445312" xlink:href="#DejaVuSans-108"/>
     <use x="242.228516" xlink:href="#DejaVuSans-105"/>
     <use x="270.011719" xlink:href="#DejaVuSans-110"/>
     <use x="333.390625" xlink:href="#DejaVuSans-101"/>
     <use x="394.914062" xlink:href="#DejaVuSans-97"/>
     <use x="456.193359" xlink:href="#DejaVuSans-114"/>
     <use x="497.306641" xlink:href="#DejaVuSans-95"/>
     <use x="547.306641" xlink:href="#DejaVuSans-49"/>
     <use x="610.929688" xlink:href="#DejaVuSans-48"/>
     <use x="674.552734" xlink:href="#DejaVuSans-48"/>
     <use x="738.175781" xlink:href="#DejaVuSans-48"/>
     <use x="801.798828" xlink:href="#DejaVuSans-95"/>
     <use x="851.798828" xlink:href="#DejaVuSans-49"/>
     <use x="915.421875" xlink:href="#DejaVuSans-48"/>
     <use x="979.044922" xlink:href="#DejaVuSans-48"/>
    </g>
   </g>
   <g id="legend_1">
    <g id="patch_7">
     <path d="M 300.468437 108.1845 
L 407.72 108.1845 
Q 409.72 108.1845 409.72 106.1845 
L 409.72 48.472 
Q 409.72 46.472 407.72 46.472 
L 300.468437 46.472 
Q 298.468437 46.472 298.468437 48.472 
L 298.468437 106.1845 
Q 298.468437 108.1845 300.468437 108.1845 
z
" style="fill:#ffffff;opacity:0.8;stroke:#cccccc;stroke-linejoin:miter;"/>
    </g>
    <g id="line2d_17">
     <path d="M 302.468437 54.570438 
L 322.468437 54.570438 
" style="fill:none;stroke:#1f77b4;stroke-linecap:square;stroke-width:1.5;"/>
    </g>
    <g id="line2d_18"/>
    <g id="text_16">
     <!-- Random Forest -->
     <g transform="translate(330.468437 58.070438)scale(0.1 -0.1)">
      <defs>
       <path d="M 44.390625 34.1875 
Q 47.5625 33.109375 50.5625 29.59375 
Q 53.5625 26.078125 56.59375 19.921875 
L 66.609375 0 
L 56 0 
L 46.6875 18.703125 
Q 43.0625 26.03125 39.671875 28.421875 
Q 36.28125 30.8125 30.421875 30.8125 
L 19.671875 30.8125 
L 19.671875 0 
L 9.8125 0 
L 9.8125 72.90625 
L 32.078125 72.90625 
Q 44.578125 72.90625 50.734375 67.671875 
Q 56.890625 62.453125 56.890625 51.90625 
Q 56.890625 45.015625 53.6875 40.46875 
Q 50.484375 35.9375 44.390625 34.1875 
z
M 19.671875 64.796875 
L 19.671875 38.921875 
L 32.078125 38.921875 
Q 39.203125 38.921875 42.84375 42.21875 
Q 46.484375 45.515625 46.484375 51.90625 
Q 46.484375 58.296875 42.84375 61.546875 
Q 39.203125 64.796875 32.078125 64.796875 
z
" id="DejaVuSans-82"/>
       <path d="M 45.40625 46.390625 
L 45.40625 75.984375 
L 54.390625 75.984375 
L 54.390625 0 
L 45.40625 0 
L 45.40625 8.203125 
Q 42.578125 3.328125 38.25 0.953125 
Q 33.9375 -1.421875 27.875 -1.421875 
Q 17.96875 -1.421875 11.734375 6.484375 
Q 5.515625 14.40625 5.515625 27.296875 
Q 5.515625 40.1875 11.734375 48.09375 
Q 17.96875 56 27.875 56 
Q 33.9375 56 38.25 53.625 
Q 42.578125 51.265625 45.40625 46.390625 
z
M 14.796875 27.296875 
Q 14.796875 17.390625 18.875 11.75 
Q 22.953125 6.109375 30.078125 6.109375 
Q 37.203125 6.109375 41.296875 11.75 
Q 45.40625 17.390625 45.40625 27.296875 
Q 45.40625 37.203125 41.296875 42.84375 
Q 37.203125 48.484375 30.078125 48.484375 
Q 22.953125 48.484375 18.875 42.84375 
Q 14.796875 37.203125 14.796875 27.296875 
z
" id="DejaVuSans-100"/>
       <path d="M 9.8125 72.90625 
L 51.703125 72.90625 
L 51.703125 64.59375 
L 19.671875 64.59375 
L 19.671875 43.109375 
L 48.578125 43.109375 
L 48.578125 34.8125 
L 19.671875 34.8125 
L 19.671875 0 
L 9.8125 0 
z
" id="DejaVuSans-70"/>
      </defs>
      <use xlink:href="#DejaVuSans-82"/>
      <use x="67.232422" xlink:href="#DejaVuSans-97"/>
      <use x="128.511719" xlink:href="#DejaVuSans-110"/>
      <use x="191.890625" xlink:href="#DejaVuSans-100"/>
      <use x="255.367188" xlink:href="#DejaVuSans-111"/>
      <use x="316.548828" xlink:href="#DejaVuSans-109"/>
      <use x="413.960938" xlink:href="#DejaVuSans-32"/>
      <use x="445.748047" xlink:href="#DejaVuSans-70"/>
      <use x="499.642578" xlink:href="#DejaVuSans-111"/>
      <use x="560.824219" xlink:href="#DejaVuSans-114"/>
      <use x="599.6875" xlink:href="#DejaVuSans-101"/>
      <use x="661.210938" xlink:href="#DejaVuSans-115"/>
      <use x="713.310547" xlink:href="#DejaVuSans-116"/>
     </g>
    </g>
    <g id="line2d_19">
     <path d="M 302.468437 69.248563 
L 322.468437 69.248563 
" style="fill:none;stroke:#ff7f0e;stroke-linecap:square;stroke-width:1.5;"/>
    </g>
    <g id="line2d_20"/>
    <g id="text_17">
     <!-- AdaBoost -->
     <g transform="translate(330.468437 72.748563)scale(0.1 -0.1)">
      <defs>
       <path d="M 19.671875 34.8125 
L 19.671875 8.109375 
L 35.5 8.109375 
Q 43.453125 8.109375 47.28125 11.40625 
Q 51.125 14.703125 51.125 21.484375 
Q 51.125 28.328125 47.28125 31.5625 
Q 43.453125 34.8125 35.5 34.8125 
z
M 19.671875 64.796875 
L 19.671875 42.828125 
L 34.28125 42.828125 
Q 41.5 42.828125 45.03125 45.53125 
Q 48.578125 48.25 48.578125 53.8125 
Q 48.578125 59.328125 45.03125 62.0625 
Q 41.5 64.796875 34.28125 64.796875 
z
M 9.8125 72.90625 
L 35.015625 72.90625 
Q 46.296875 72.90625 52.390625 68.21875 
Q 58.5 63.53125 58.5 54.890625 
Q 58.5 48.1875 55.375 44.234375 
Q 52.25 40.28125 46.1875 39.3125 
Q 53.46875 37.75 57.5 32.78125 
Q 61.53125 27.828125 61.53125 20.40625 
Q 61.53125 10.640625 54.890625 5.3125 
Q 48.25 0 35.984375 0 
L 9.8125 0 
z
" id="DejaVuSans-66"/>
      </defs>
      <use xlink:href="#DejaVuSans-65"/>
      <use x="66.658203" xlink:href="#DejaVuSans-100"/>
      <use x="130.134766" xlink:href="#DejaVuSans-97"/>
      <use x="191.414062" xlink:href="#DejaVuSans-66"/>
      <use x="260.017578" xlink:href="#DejaVuSans-111"/>
      <use x="321.199219" xlink:href="#DejaVuSans-111"/>
      <use x="382.380859" xlink:href="#DejaVuSans-115"/>
      <use x="434.480469" xlink:href="#DejaVuSans-116"/>
     </g>
    </g>
    <g id="line2d_21">
     <path d="M 302.468437 83.926688 
L 322.468437 83.926688 
" style="fill:none;stroke:#2ca02c;stroke-linecap:square;stroke-width:1.5;"/>
    </g>
    <g id="line2d_22"/>
    <g id="text_18">
     <!-- LightGBM -->
     <g transform="translate(330.468437 87.426688)scale(0.1 -0.1)">
      <defs>
       <path d="M 9.8125 72.90625 
L 19.671875 72.90625 
L 19.671875 8.296875 
L 55.171875 8.296875 
L 55.171875 0 
L 9.8125 0 
z
" id="DejaVuSans-76"/>
       <path d="M 45.40625 27.984375 
Q 45.40625 37.75 41.375 43.109375 
Q 37.359375 48.484375 30.078125 48.484375 
Q 22.859375 48.484375 18.828125 43.109375 
Q 14.796875 37.75 14.796875 27.984375 
Q 14.796875 18.265625 18.828125 12.890625 
Q 22.859375 7.515625 30.078125 7.515625 
Q 37.359375 7.515625 41.375 12.890625 
Q 45.40625 18.265625 45.40625 27.984375 
z
M 54.390625 6.78125 
Q 54.390625 -7.171875 48.1875 -13.984375 
Q 42 -20.796875 29.203125 -20.796875 
Q 24.46875 -20.796875 20.265625 -20.09375 
Q 16.0625 -19.390625 12.109375 -17.921875 
L 12.109375 -9.1875 
Q 16.0625 -11.328125 19.921875 -12.34375 
Q 23.78125 -13.375 27.78125 -13.375 
Q 36.625 -13.375 41.015625 -8.765625 
Q 45.40625 -4.15625 45.40625 5.171875 
L 45.40625 9.625 
Q 42.625 4.78125 38.28125 2.390625 
Q 33.9375 0 27.875 0 
Q 17.828125 0 11.671875 7.65625 
Q 5.515625 15.328125 5.515625 27.984375 
Q 5.515625 40.671875 11.671875 48.328125 
Q 17.828125 56 27.875 56 
Q 33.9375 56 38.28125 53.609375 
Q 42.625 51.21875 45.40625 46.390625 
L 45.40625 54.6875 
L 54.390625 54.6875 
z
" id="DejaVuSans-103"/>
       <path d="M 54.890625 33.015625 
L 54.890625 0 
L 45.90625 0 
L 45.90625 32.71875 
Q 45.90625 40.484375 42.875 44.328125 
Q 39.84375 48.1875 33.796875 48.1875 
Q 26.515625 48.1875 22.3125 43.546875 
Q 18.109375 38.921875 18.109375 30.90625 
L 18.109375 0 
L 9.078125 0 
L 9.078125 75.984375 
L 18.109375 75.984375 
L 18.109375 46.1875 
Q 21.34375 51.125 25.703125 53.5625 
Q 30.078125 56 35.796875 56 
Q 45.21875 56 50.046875 50.171875 
Q 54.890625 44.34375 54.890625 33.015625 
z
" id="DejaVuSans-104"/>
       <path d="M 59.515625 10.40625 
L 59.515625 29.984375 
L 43.40625 29.984375 
L 43.40625 38.09375 
L 69.28125 38.09375 
L 69.28125 6.78125 
Q 63.578125 2.734375 56.6875 0.65625 
Q 49.8125 -1.421875 42 -1.421875 
Q 24.90625 -1.421875 15.25 8.5625 
Q 5.609375 18.5625 5.609375 36.375 
Q 5.609375 54.25 15.25 64.234375 
Q 24.90625 74.21875 42 74.21875 
Q 49.125 74.21875 55.546875 72.453125 
Q 61.96875 70.703125 67.390625 67.28125 
L 67.390625 56.78125 
Q 61.921875 61.421875 55.765625 63.765625 
Q 49.609375 66.109375 42.828125 66.109375 
Q 29.4375 66.109375 22.71875 58.640625 
Q 16.015625 51.171875 16.015625 36.375 
Q 16.015625 21.625 22.71875 14.15625 
Q 29.4375 6.6875 42.828125 6.6875 
Q 48.046875 6.6875 52.140625 7.59375 
Q 56.25 8.5 59.515625 10.40625 
z
" id="DejaVuSans-71"/>
       <path d="M 9.8125 72.90625 
L 24.515625 72.90625 
L 43.109375 23.296875 
L 61.8125 72.90625 
L 76.515625 72.90625 
L 76.515625 0 
L 66.890625 0 
L 66.890625 64.015625 
L 48.09375 14.015625 
L 38.1875 14.015625 
L 19.390625 64.015625 
L 19.390625 0 
L 9.8125 0 
z
" id="DejaVuSans-77"/>
      </defs>
      <use xlink:href="#DejaVuSans-76"/>
      <use x="55.712891" xlink:href="#DejaVuSans-105"/>
      <use x="83.496094" xlink:href="#DejaVuSans-103"/>
      <use x="146.972656" xlink:href="#DejaVuSans-104"/>
      <use x="210.351562" xlink:href="#DejaVuSans-116"/>
      <use x="249.560547" xlink:href="#DejaVuSans-71"/>
      <use x="327.050781" xlink:href="#DejaVuSans-66"/>
      <use x="395.654297" xlink:href="#DejaVuSans-77"/>
     </g>
    </g>
    <g id="line2d_23">
     <path d="M 302.468437 98.604813 
L 322.468437 98.604813 
" style="fill:none;stroke:#d62728;stroke-linecap:square;stroke-width:1.5;"/>
    </g>
    <g id="line2d_24"/>
    <g id="text_19">
     <!-- XGBoost -->
     <g transform="translate(330.468437 102.104813)scale(0.1 -0.1)">
      <defs>
       <path d="M 6.296875 72.90625 
L 16.890625 72.90625 
L 35.015625 45.796875 
L 53.21875 72.90625 
L 63.8125 72.90625 
L 40.375 37.890625 
L 65.375 0 
L 54.78125 0 
L 34.28125 31 
L 13.625 0 
L 2.984375 0 
L 29 38.921875 
z
" id="DejaVuSans-88"/>
      </defs>
      <use xlink:href="#DejaVuSans-88"/>
      <use x="68.505859" xlink:href="#DejaVuSans-71"/>
      <use x="145.996094" xlink:href="#DejaVuSans-66"/>
      <use x="214.599609" xlink:href="#DejaVuSans-111"/>
      <use x="275.78125" xlink:href="#DejaVuSans-111"/>
      <use x="336.962891" xlink:href="#DejaVuSans-115"/>
      <use x="389.0625" xlink:href="#DejaVuSans-116"/>
     </g>
    </g>
   </g>
  </g>
 </g>
 <defs>
  <clipPath id="p24d315c5a7">
   <rect height="266.112" width="357.12" x="57.6" y="41.472"/>
  </clipPath>
 </defs>
</svg>
