<?xml version="1.0" encoding="utf-8" standalone="no"?>
<!DOCTYPE svg PUBLIC "-//W3C//DTD SVG 1.1//EN"
  "http://www.w3.org/Graphics/SVG/1.1/DTD/svg11.dtd">
<!-- Created with matplotlib (https://matplotlib.org/) -->
<svg height="345.6pt" version="1.1" viewBox="0 0 460.8 345.6" width="460.8pt" xmlns="http://www.w3.org/2000/svg" xmlns:xlink="http://www.w3.org/1999/xlink">
 <metadata>
  <rdf:RDF xmlns:cc="http://creativecommons.org/ns#" xmlns:dc="http://purl.org/dc/elements/1.1/" xmlns:rdf="http://www.w3.org/1999/02/22-rdf-syntax-ns#">
   <cc:Work>
    <dc:type rdf:resource="http://purl.org/dc/dcmitype/StillImage"/>
    <dc:date>2023-09-19T16:44:13.271144</dc:date>
    <dc:format>image/svg+xml</dc:format>
    <dc:creator>
     <cc:Agent>
      <dc:title>Matplotlib v3.3.4, https://matplotlib.org/</dc:title>
     </cc:Agent>
    </dc:creator>
   </cc:Work>
  </rdf:RDF>
 </metadata>
 <defs>
  <style type="text/css">*{stroke-linecap:butt;stroke-linejoin:round;}</style>
 </defs>
 <g id="figure_1">
  <g id="patch_1">
   <path d="M 0 345.6 
L 460.8 345.6 
L 460.8 0 
L 0 0 
z
" style="fill:#ffffff;"/>
  </g>
  <g id="axes_1">
   <g id="patch_2">
    <path d="M 57.6 307.584 
L 414.72 307.584 
L 414.72 41.472 
L 57.6 41.472 
z
" style="fill:#ffffff;"/>
   </g>
   <g id="PolyCollection_1">
    <path clip-path="url(#p5cff07b509)" d="M 73.832727 119.273654 
L 73.832727 119.273654 
L 77.112066 142.483162 
L 80.391405 138.837168 
L 83.670744 156.28811 
L 86.950083 154.851426 
L 90.229421 162.735909 
L 93.50876 176.067764 
L 96.788099 185.002719 
L 100.067438 177.392113 
L 103.346777 180.845027 
L 106.626116 193.691064 
L 109.905455 207.143327 
L 113.184793 213.149097 
L 116.464132 198.369358 
L 119.743471 211.445776 
L 123.02281 231.598329 
L 126.302149 220.293347 
L 129.581488 225.512098 
L 132.860826 226.229079 
L 136.140165 230.566925 
L 139.419504 244.385098 
L 142.698843 240.969497 
L 145.978182 247.821642 
L 149.257521 238.481921 
L 152.53686 257.095878 
L 155.816198 250.918619 
L 159.095537 247.446996 
L 162.374876 250.362276 
L 165.654215 265.09752 
L 168.933554 253.80955 
L 172.212893 274.251224 
L 175.492231 273.678642 
L 178.77157 264.573202 
L 182.050909 262.147167 
L 185.330248 247.176577 
L 188.609587 266.261141 
L 191.888926 246.92585 
L 195.168264 258.093751 
L 198.447603 263.814643 
L 201.726942 268.684233 
L 205.006281 271.221847 
L 208.28562 262.789963 
L 211.564959 264.652419 
L 214.844298 259.664357 
L 218.123636 261.647811 
L 221.402975 264.761428 
L 224.682314 256.362035 
L 227.961653 262.715816 
L 231.240992 249.19502 
L 234.520331 249.923794 
L 237.799669 270.716515 
L 241.079008 245.269565 
L 244.358347 265.34085 
L 247.637686 254.679107 
L 250.917025 239.805681 
L 254.196364 247.33762 
L 257.475702 248.701758 
L 260.755041 248.031815 
L 264.03438 239.7382 
L 267.313719 234.000501 
L 270.593058 235.882119 
L 273.872397 237.400921 
L 277.151736 235.797725 
L 280.431074 234.423388 
L 283.710413 241.79918 
L 286.989752 234.000501 
L 290.269091 225.755805 
L 293.54843 234.423545 
L 296.827769 226.983192 
L 300.107107 232.811461 
L 303.386446 231.013271 
L 306.665785 220.293275 
L 309.945124 224.834729 
L 313.224463 221.40932 
L 316.503802 223.64328 
L 319.78314 215.558099 
L 323.062479 218.718533 
L 326.341818 215.109526 
L 329.621157 212.146414 
L 332.900496 212.018047 
L 336.179835 211.367692 
L 339.459174 213.052385 
L 342.738512 210.394826 
L 346.017851 212.018047 
L 349.29719 216.004912 
L 352.576529 209.151948 
L 355.855868 208.926567 
L 359.135207 203.477737 
L 362.414545 205.835087 
L 365.693884 196.560648 
L 368.973223 203.477737 
L 372.252562 196.560648 
L 375.531901 196.560648 
L 378.81124 196.560648 
L 382.090579 196.560648 
L 385.369917 196.560648 
L 388.649256 196.560648 
L 391.928595 196.560648 
L 395.207934 196.560648 
L 398.487273 196.560648 
L 398.487273 196.560648 
L 398.487273 196.560648 
L 395.207934 196.560648 
L 391.928595 196.560648 
L 388.649256 196.560648 
L 385.369917 196.560648 
L 382.090579 196.560648 
L 378.81124 196.560648 
L 375.531901 196.560648 
L 372.252562 196.560648 
L 368.973223 188.097819 
L 365.693884 196.560648 
L 362.414545 184.194729 
L 359.135207 188.097819 
L 355.855868 187.286209 
L 352.576529 182.423607 
L 349.29719 181.753604 
L 346.017851 181.103249 
L 342.738512 179.63499 
L 339.459174 178.523171 
L 336.179835 177.116384 
L 332.900496 181.103249 
L 329.621157 174.791922 
L 326.341818 171.82881 
L 323.062479 160.491104 
L 319.78314 169.834497 
L 316.503802 167.932276 
L 313.224463 170.166236 
L 309.945124 171.378047 
L 306.665785 165.099321 
L 303.386446 163.653765 
L 300.107107 160.309834 
L 296.827769 169.229584 
L 293.54843 157.15201 
L 290.269091 150.362352 
L 286.989752 149.846356 
L 283.710413 154.413595 
L 280.431074 158.697908 
L 277.151736 152.686352 
L 273.872397 154.174635 
L 270.593058 154.147697 
L 267.313719 149.846356 
L 264.03438 147.200136 
L 260.755041 138.906521 
L 257.475702 156.785457 
L 254.196364 155.058115 
L 250.917025 139.403956 
L 247.637686 149.262368 
L 244.358347 150.966544 
L 241.079008 146.305991 
L 237.799669 150.228099 
L 234.520331 130.831583 
L 231.240992 128.468877 
L 227.961653 128.85974 
L 224.682314 142.94222 
L 221.402975 137.634307 
L 218.123636 139.202185 
L 214.844298 141.185639 
L 211.564959 143.926275 
L 208.28562 147.334472 
L 205.006281 137.356847 
L 201.726942 135.257242 
L 198.447603 138.581092 
L 195.168264 133.481805 
L 191.888926 140.012486 
L 188.609587 148.500513 
L 185.330248 141.307499 
L 182.050909 123.24543 
L 178.77157 131.639573 
L 175.492231 139.537272 
L 172.212893 143.60191 
L 168.933554 126.945827 
L 165.654215 118.749337 
L 162.374876 114.935702 
L 159.095537 111.668023 
L 155.816198 129.836758 
L 152.53686 119.022279 
L 149.257521 103.629959 
L 145.978182 105.110417 
L 142.698843 121.237001 
L 139.419504 103.909741 
L 136.140165 125.456614 
L 132.860826 94.242443 
L 129.581488 105.779602 
L 126.302149 101.723914 
L 123.02281 85.781713 
L 119.743471 95.114087 
L 116.464132 61.818309 
L 113.184793 81.044846 
L 109.905455 91.687836 
L 106.626116 80.408261 
L 103.346777 70.0682 
L 100.067438 71.975374 
L 96.788099 65.910508 
L 93.50876 62.479544 
L 90.229421 57.262521 
L 86.950083 62.055523 
L 83.670744 55.98162 
L 80.391405 71.886822 
L 77.112066 91.426927 
L 73.832727 119.273654 
z
" style="fill:#1f77b4;fill-opacity:0.2;"/>
   </g>
   <g id="PolyCollection_2">
    <path clip-path="url(#p5cff07b509)" d="M 73.832727 196.560648 
L 73.832727 196.560648 
L 77.112066 219.552512 
L 80.391405 232.056063 
L 83.670744 242.285763 
L 86.950083 254.837953 
L 90.229421 249.115804 
L 93.50876 252.448219 
L 96.788099 269.234568 
L 100.067438 263.819334 
L 103.346777 274.069538 
L 106.626116 267.476974 
L 109.905455 269.620537 
L 113.184793 282.797763 
L 116.464132 271.873151 
L 119.743471 283.854022 
L 123.02281 284.102113 
L 126.302149 274.097755 
L 129.581488 287.04308 
L 132.860826 291.113256 
L 136.140165 280.580501 
L 139.419504 278.824785 
L 142.698843 287.254962 
L 145.978182 265.159409 
L 149.257521 288.296085 
L 152.53686 280.99048 
L 155.816198 282.824272 
L 159.095537 275.329703 
L 162.374876 282.479156 
L 165.654215 257.945927 
L 168.933554 284.956128 
L 172.212893 281.822211 
L 175.492231 284.675044 
L 178.77157 266.546997 
L 182.050909 283.949617 
L 185.330248 285.453715 
L 188.609587 272.648625 
L 191.888926 268.551562 
L 195.168264 269.708938 
L 198.447603 285.031575 
L 201.726942 265.047416 
L 205.006281 279.801288 
L 208.28562 254.230726 
L 211.564959 255.423798 
L 214.844298 277.290956 
L 218.123636 268.274873 
L 221.402975 272.226094 
L 224.682314 258.108061 
L 227.961653 283.458667 
L 231.240992 256.729636 
L 234.520331 263.78244 
L 237.799669 295.488 
L 241.079008 292.58389 
L 244.358347 272.368504 
L 247.637686 265.825762 
L 250.917025 259.833329 
L 254.196364 288.942643 
L 257.475702 275.00214 
L 260.755041 267.26968 
L 264.03438 245.822419 
L 267.313719 277.599066 
L 270.593058 266.286078 
L 273.872397 266.797041 
L 277.151736 269.841598 
L 280.431074 272.409856 
L 283.710413 270.241826 
L 286.989752 258.058164 
L 290.269091 263.437407 
L 293.54843 271.493169 
L 296.827769 259.631371 
L 300.107107 261.265015 
L 303.386446 256.181266 
L 306.665785 251.935657 
L 309.945124 252.094079 
L 313.224463 255.6788 
L 316.503802 267.216693 
L 319.78314 245.786824 
L 323.062479 251.897359 
L 326.341818 245.410961 
L 329.621157 264.984186 
L 332.900496 247.194624 
L 336.179835 247.410702 
L 339.459174 241.865531 
L 342.738512 243.871048 
L 346.017851 243.871048 
L 349.29719 244.61164 
L 352.576529 233.658405 
L 355.855868 238.874792 
L 359.135207 238.244062 
L 362.414545 225.18902 
L 365.693884 227.566215 
L 368.973223 213.052385 
L 372.252562 214.598124 
L 375.531901 223.891712 
L 378.81124 205.023477 
L 382.090579 213.883068 
L 385.369917 210.697688 
L 388.649256 196.560648 
L 391.928595 196.560648 
L 395.207934 196.560648 
L 398.487273 196.560648 
L 398.487273 196.560648 
L 398.487273 196.560648 
L 395.207934 196.560648 
L 391.928595 196.560648 
L 388.649256 196.560648 
L 385.369917 183.969347 
L 382.090579 176.146748 
L 378.81124 189.643559 
L 375.531901 166.138104 
L 372.252562 180.068911 
L 368.973223 178.523171 
L 365.693884 174.82952 
L 362.414545 169.478016 
L 359.135207 168.788893 
L 355.855868 161.975204 
L 352.576529 168.73733 
L 349.29719 154.692615 
L 346.017851 146.158768 
L 342.738512 146.158768 
L 339.459174 158.984464 
L 336.179835 142.619114 
L 332.900496 152.109632 
L 329.621157 125.04563 
L 326.341818 129.161456 
L 323.062479 128.858018 
L 319.78314 130.331333 
L 316.503802 128.996083 
L 313.224463 138.988236 
L 309.945124 125.569818 
L 306.665785 133.456939 
L 303.386446 130.757071 
L 300.107107 107.124442 
L 296.827769 122.669746 
L 293.54843 121.628127 
L 290.269091 117.31797 
L 286.989752 128.880173 
L 283.710413 124.42521 
L 280.431074 128.440139 
L 277.151736 114.005258 
L 273.872397 109.321116 
L 270.593058 116.015038 
L 267.313719 103.156311 
L 264.03438 104.01816 
L 260.755041 110.394216 
L 257.475702 119.664896 
L 254.196364 121.181791 
L 250.917025 85.37003 
L 247.637686 107.200915 
L 244.358347 92.929474 
L 241.079008 132.997944 
L 237.799669 122.365134 
L 234.520331 96.878318 
L 231.240992 100.839643 
L 227.961653 112.754108 
L 224.682314 93.278258 
L 221.402975 114.712242 
L 218.123636 103.206065 
L 214.844298 100.372941 
L 211.564959 92.871041 
L 208.28562 98.701333 
L 205.006281 113.320008 
L 201.726942 103.342042 
L 198.447603 120.45564 
L 195.168264 111.046439 
L 191.888926 106.020855 
L 188.609587 103.469532 
L 185.330248 147.856817 
L 182.050909 119.991858 
L 178.77157 126.574298 
L 175.492231 119.266431 
L 172.212893 140.668143 
L 168.933554 131.351266 
L 165.654215 121.263709 
L 162.374876 121.462319 
L 159.095537 144.069171 
L 155.816198 122.662943 
L 152.53686 130.679695 
L 149.257521 134.194269 
L 145.978182 134.144846 
L 142.698843 129.052432 
L 139.419504 134.391129 
L 136.140165 138.818372 
L 132.860826 140.651537 
L 129.581488 170.99929 
L 126.302149 159.212777 
L 123.02281 136.8425 
L 119.743471 152.547991 
L 116.464132 141.342763 
L 113.184793 150.51277 
L 109.905455 149.778337 
L 106.626116 165.833558 
L 103.346777 160.786735 
L 100.067438 169.491199 
L 96.788099 170.258924 
L 93.50876 153.038996 
L 90.229421 178.011769 
L 86.950083 164.560921 
L 83.670744 170.930151 
L 80.391405 168.793932 
L 77.112066 182.843223 
L 73.832727 196.560648 
z
" style="fill:#ff7f0e;fill-opacity:0.2;"/>
   </g>
   <g id="PolyCollection_3">
    <path clip-path="url(#p5cff07b509)" d="M 73.832727 119.273654 
L 73.832727 119.273654 
L 77.112066 137.51023 
L 80.391405 144.934598 
L 83.670744 156.933638 
L 86.950083 161.684776 
L 90.229421 165.995715 
L 93.50876 172.100276 
L 96.788099 172.725956 
L 100.067438 178.56412 
L 103.346777 169.889583 
L 106.626116 193.322244 
L 109.905455 193.743426 
L 113.184793 193.664416 
L 116.464132 188.974147 
L 119.743471 191.397239 
L 123.02281 197.687556 
L 126.302149 198.834653 
L 129.581488 214.001509 
L 132.860826 220.547213 
L 136.140165 214.868661 
L 139.419504 218.144036 
L 142.698843 206.619666 
L 145.978182 210.417078 
L 149.257521 223.50367 
L 152.53686 215.808543 
L 155.816198 210.853462 
L 159.095537 230.701211 
L 162.374876 227.504605 
L 165.654215 236.135485 
L 168.933554 223.723499 
L 172.212893 220.132137 
L 175.492231 230.867323 
L 178.77157 228.015177 
L 182.050909 224.958939 
L 185.330248 242.480625 
L 188.609587 250.30951 
L 191.888926 235.922977 
L 195.168264 230.733013 
L 198.447603 223.004314 
L 201.726942 227.678551 
L 205.006281 236.48055 
L 208.28562 231.644244 
L 211.564959 241.817026 
L 214.844298 252.535423 
L 218.123636 235.919904 
L 221.402975 247.276884 
L 224.682314 240.333022 
L 227.961653 252.868006 
L 231.240992 241.434794 
L 234.520331 247.54458 
L 237.799669 244.232624 
L 241.079008 259.159432 
L 244.358347 252.776259 
L 247.637686 248.574387 
L 250.917025 233.59319 
L 254.196364 251.671531 
L 257.475702 254.396938 
L 260.755041 252.776259 
L 264.03438 252.958917 
L 267.313719 261.657149 
L 270.593058 244.374047 
L 273.872397 253.919111 
L 277.151736 248.82922 
L 280.431074 244.844614 
L 283.710413 259.982524 
L 286.989752 254.024489 
L 290.269091 241.487818 
L 293.54843 275.803326 
L 296.827769 250.918597 
L 300.107107 243.678872 
L 303.386446 250.825223 
L 306.665785 245.438988 
L 309.945124 248.979237 
L 313.224463 243.145545 
L 316.503802 248.767434 
L 319.78314 249.349472 
L 323.062479 235.217702 
L 326.341818 247.089247 
L 329.621157 243.27494 
L 332.900496 250.825223 
L 336.179835 244.61164 
L 339.459174 232.556105 
L 342.738512 231.205488 
L 346.017851 238.639323 
L 349.29719 238.639323 
L 352.576529 225.18902 
L 355.855868 230.411963 
L 359.135207 226.983192 
L 362.414545 227.850774 
L 365.693884 217.767123 
L 368.973223 232.296163 
L 372.252562 217.767123 
L 375.531901 228.021974 
L 378.81124 223.286799 
L 382.090579 215.492018 
L 385.369917 219.195596 
L 388.649256 208.926567 
L 391.928595 217.269307 
L 395.207934 214.797224 
L 398.487273 196.560648 
L 398.487273 196.560648 
L 398.487273 196.560648 
L 395.207934 184.507032 
L 391.928595 183.580688 
L 388.649256 187.286209 
L 385.369917 178.562919 
L 382.090579 177.629278 
L 378.81124 177.563196 
L 375.531901 172.828021 
L 372.252562 176.899912 
L 368.973223 167.008092 
L 365.693884 176.899912 
L 362.414545 160.633302 
L 359.135207 169.229584 
L 355.855868 168.892292 
L 352.576529 169.478016 
L 349.29719 165.302151 
L 346.017851 165.302151 
L 342.738512 155.732849 
L 339.459174 151.290751 
L 336.179835 154.692615 
L 332.900496 148.479032 
L 329.621157 159.120795 
L 326.341818 150.669269 
L 323.062479 147.083415 
L 319.78314 146.863304 
L 316.503802 142.808121 
L 313.224463 153.06723 
L 309.945124 144.142058 
L 306.665785 133.770649 
L 303.386446 148.479032 
L 300.107107 132.439285 
L 296.827769 134.473999 
L 293.54843 129.683889 
L 290.269091 134.630339 
L 286.989752 143.734026 
L 283.710413 131.593031 
L 280.431074 120.453364 
L 277.151736 136.563377 
L 273.872397 131.473485 
L 270.593058 130.198371 
L 267.313719 125.281188 
L 264.03438 112.33906 
L 260.755041 109.43024 
L 257.475702 138.724358 
L 254.196364 102.806268 
L 250.917025 105.42721 
L 247.637686 116.723591 
L 244.358347 109.43024 
L 241.079008 96.864106 
L 237.799669 113.336655 
L 234.520331 106.933219 
L 231.240992 116.134484 
L 227.961653 98.518313 
L 224.682314 94.050158 
L 221.402975 88.652036 
L 218.123636 100.009017 
L 214.844298 106.579595 
L 211.564959 94.111895 
L 208.28562 84.190058 
L 205.006281 94.81115 
L 201.726942 80.427051 
L 198.447603 100.558688 
L 195.168264 108.287387 
L 191.888926 92.277244 
L 188.609587 80.98219 
L 185.330248 94.994035 
L 182.050909 89.329623 
L 178.77157 92.456345 
L 175.492231 83.421239 
L 172.212893 77.153287 
L 168.933554 101.385243 
L 165.654215 88.973256 
L 162.374876 63.597859 
L 159.095537 88.224571 
L 155.816198 69.428822 
L 152.53686 78.3854 
L 149.257521 84.601933 
L 145.978182 80.685386 
L 142.698843 53.568 
L 139.419504 71.412688 
L 136.140165 76.233803 
L 132.860826 69.009511 
L 129.581488 77.100955 
L 126.302149 78.356152 
L 123.02281 64.04585 
L 119.743471 57.970248 
L 116.464132 71.213519 
L 113.184793 64.97751 
L 109.905455 54.078322 
L 106.626116 71.502642 
L 103.346777 64.020506 
L 100.067438 56.891708 
L 96.788099 81.278751 
L 93.50876 61.809813 
L 90.229421 80.280292 
L 86.950083 81.499752 
L 83.670744 86.25089 
L 80.391405 87.429751 
L 77.112066 107.220038 
L 73.832727 119.273654 
z
" style="fill:#2ca02c;fill-opacity:0.2;"/>
   </g>
   <g id="PolyCollection_4">
    <path clip-path="url(#p5cff07b509)" d="M 73.832727 196.560648 
L 73.832727 196.560648 
L 77.112066 203.477737 
L 80.391405 211.722946 
L 83.670744 214.022962 
L 86.950083 222.520568 
L 90.229421 222.440934 
L 93.50876 226.408132 
L 96.788099 219.468736 
L 100.067438 230.765962 
L 103.346777 231.201606 
L 106.626116 241.874784 
L 109.905455 235.951916 
L 113.184793 235.498828 
L 116.464132 231.991756 
L 119.743471 245.753225 
L 123.02281 233.521839 
L 126.302149 233.276081 
L 129.581488 252.860769 
L 132.860826 253.255541 
L 136.140165 245.304566 
L 139.419504 257.339461 
L 142.698843 259.517151 
L 145.978182 264.818673 
L 149.257521 259.348898 
L 152.53686 258.97645 
L 155.816198 248.561169 
L 159.095537 246.262411 
L 162.374876 255.486989 
L 165.654215 260.180074 
L 168.933554 265.437783 
L 172.212893 256.825178 
L 175.492231 261.606916 
L 178.77157 268.940267 
L 182.050909 262.472828 
L 185.330248 267.592503 
L 188.609587 277.054943 
L 191.888926 264.436636 
L 195.168264 264.449849 
L 198.447603 248.008095 
L 201.726942 266.639191 
L 205.006281 260.555128 
L 208.28562 253.778779 
L 211.564959 247.194624 
L 214.844298 253.816331 
L 218.123636 260.802254 
L 221.402975 266.28772 
L 224.682314 251.011408 
L 227.961653 241.528795 
L 231.240992 244.448847 
L 234.520331 256.912247 
L 237.799669 241.1396 
L 241.079008 251.969947 
L 244.358347 241.528795 
L 247.637686 239.131343 
L 250.917025 234.945491 
L 254.196364 243.003033 
L 257.475702 244.808141 
L 260.755041 246.040764 
L 264.03438 239.295537 
L 267.313719 231.599919 
L 270.593058 233.033799 
L 273.872397 232.155569 
L 277.151736 230.500598 
L 280.431074 229.306744 
L 283.710413 228.187861 
L 286.989752 231.599919 
L 290.269091 228.187861 
L 293.54843 219.552512 
L 296.827769 216.974548 
L 300.107107 219.552512 
L 303.386446 222.560418 
L 306.665785 218.329374 
L 309.945124 212.063431 
L 313.224463 217.269307 
L 316.503802 212.063431 
L 319.78314 208.926567 
L 323.062479 208.926567 
L 326.341818 196.560648 
L 329.621157 205.023477 
L 332.900496 205.023477 
L 336.179835 208.926567 
L 339.459174 207.490679 
L 342.738512 205.023477 
L 346.017851 196.560648 
L 349.29719 196.560648 
L 352.576529 196.560648 
L 355.855868 196.560648 
L 359.135207 196.560648 
L 362.414545 196.560648 
L 365.693884 205.023477 
L 368.973223 196.560648 
L 372.252562 196.560648 
L 375.531901 196.560648 
L 378.81124 196.560648 
L 382.090579 196.560648 
L 385.369917 196.560648 
L 388.649256 196.560648 
L 391.928595 196.560648 
L 395.207934 196.560648 
L 398.487273 196.560648 
L 398.487273 196.560648 
L 398.487273 196.560648 
L 395.207934 196.560648 
L 391.928595 196.560648 
L 388.649256 196.560648 
L 385.369917 196.560648 
L 382.090579 196.560648 
L 378.81124 196.560648 
L 375.531901 196.560648 
L 372.252562 196.560648 
L 368.973223 196.560648 
L 365.693884 189.643559 
L 362.414545 196.560648 
L 359.135207 196.560648 
L 355.855868 196.560648 
L 352.576529 196.560648 
L 349.29719 196.560648 
L 346.017851 196.560648 
L 342.738512 189.643559 
L 339.459174 185.630616 
L 336.179835 187.286209 
L 332.900496 189.643559 
L 329.621157 189.643559 
L 326.341818 196.560648 
L 323.062479 187.286209 
L 319.78314 187.286209 
L 316.503802 185.695084 
L 313.224463 183.580688 
L 309.945124 185.695084 
L 306.665785 180.974882 
L 303.386446 179.835317 
L 300.107107 182.843223 
L 296.827769 179.238228 
L 293.54843 182.843223 
L 290.269091 178.845094 
L 286.989752 178.524515 
L 283.710413 178.845094 
L 280.431074 174.634731 
L 277.151736 176.532357 
L 273.872397 176.423125 
L 270.593058 172.453416 
L 267.313719 178.524515 
L 264.03438 178.557597 
L 260.755041 173.358109 
L 257.475702 179.227952 
L 254.196364 174.850101 
L 250.917025 170.541724 
L 247.637686 172.538831 
L 244.358347 165.50416 
L 241.079008 176.703366 
L 237.799669 168.984834 
L 234.520331 168.669587 
L 231.240992 164.129847 
L 227.961653 165.50416 
L 224.682314 165.295986 
L 221.402975 167.022813 
L 218.123636 164.779579 
L 214.844298 159.399583 
L 211.564959 152.109632 
L 208.28562 160.982876 
L 205.006281 148.023566 
L 201.726942 160.488382 
L 198.447603 146.65894 
L 195.168264 158.040505 
L 191.888926 159.599457 
L 188.609587 153.164109 
L 185.330248 151.806371 
L 182.050909 144.560127 
L 178.77157 136.546947 
L 175.492231 146.971779 
L 172.212893 133.204638 
L 168.933554 141.595172 
L 165.654215 137.578441 
L 162.374876 128.359868 
L 159.095537 120.581307 
L 155.816198 130.648468 
L 152.53686 127.961887 
L 149.257521 133.772397 
L 145.978182 128.302623 
L 142.698843 125.875445 
L 139.419504 126.507395 
L 136.140165 121.539152 
L 132.860826 133.682795 
L 129.581488 127.894607 
L 126.302149 124.293198 
L 123.02281 128.68466 
L 119.743471 122.636233 
L 116.464132 133.306222 
L 113.184793 129.79915 
L 109.905455 116.980143 
L 106.626116 131.151893 
L 103.346777 123.276193 
L 100.067438 134.532016 
L 96.788099 138.100543 
L 93.50876 143.527065 
L 90.229421 153.677223 
L 86.950083 155.143329 
L 83.670744 166.732415 
L 80.391405 167.48669 
L 77.112066 188.097819 
L 73.832727 196.560648 
z
" style="fill:#d62728;fill-opacity:0.2;"/>
   </g>
   <g id="matplotlib.axis_1">
    <g id="xtick_1">
     <g id="line2d_1">
      <defs>
       <path d="M 0 0 
L 0 3.5 
" id="m23d4eda748" style="stroke:#000000;stroke-width:0.8;"/>
      </defs>
      <g>
       <use style="stroke:#000000;stroke-width:0.8;" x="401.766612" xlink:href="#m23d4eda748" y="307.584"/>
      </g>
     </g>
     <g id="text_1">
      <!-- 0 -->
      <g transform="translate(398.585362 322.182437)scale(0.1 -0.1)">
       <defs>
        <path d="M 31.78125 66.40625 
Q 24.171875 66.40625 20.328125 58.90625 
Q 16.5 51.421875 16.5 36.375 
Q 16.5 21.390625 20.328125 13.890625 
Q 24.171875 6.390625 31.78125 6.390625 
Q 39.453125 6.390625 43.28125 13.890625 
Q 47.125 21.390625 47.125 36.375 
Q 47.125 51.421875 43.28125 58.90625 
Q 39.453125 66.40625 31.78125 66.40625 
z
M 31.78125 74.21875 
Q 44.046875 74.21875 50.515625 64.515625 
Q 56.984375 54.828125 56.984375 36.375 
Q 56.984375 17.96875 50.515625 8.265625 
Q 44.046875 -1.421875 31.78125 -1.421875 
Q 19.53125 -1.421875 13.0625 8.265625 
Q 6.59375 17.96875 6.59375 36.375 
Q 6.59375 54.828125 13.0625 64.515625 
Q 19.53125 74.21875 31.78125 74.21875 
z
" id="DejaVuSans-48"/>
       </defs>
       <use xlink:href="#DejaVuSans-48"/>
      </g>
     </g>
    </g>
    <g id="xtick_2">
     <g id="line2d_2">
      <g>
       <use style="stroke:#000000;stroke-width:0.8;" x="336.179835" xlink:href="#m23d4eda748" y="307.584"/>
      </g>
     </g>
     <g id="text_2">
      <!-- 20 -->
      <g transform="translate(329.817335 322.182437)scale(0.1 -0.1)">
       <defs>
        <path d="M 19.1875 8.296875 
L 53.609375 8.296875 
L 53.609375 0 
L 7.328125 0 
L 7.328125 8.296875 
Q 12.9375 14.109375 22.625 23.890625 
Q 32.328125 33.6875 34.8125 36.53125 
Q 39.546875 41.84375 41.421875 45.53125 
Q 43.3125 49.21875 43.3125 52.78125 
Q 43.3125 58.59375 39.234375 62.25 
Q 35.15625 65.921875 28.609375 65.921875 
Q 23.96875 65.921875 18.8125 64.3125 
Q 13.671875 62.703125 7.8125 59.421875 
L 7.8125 69.390625 
Q 13.765625 71.78125 18.9375 73 
Q 24.125 74.21875 28.421875 74.21875 
Q 39.75 74.21875 46.484375 68.546875 
Q 53.21875 62.890625 53.21875 53.421875 
Q 53.21875 48.921875 51.53125 44.890625 
Q 49.859375 40.875 45.40625 35.40625 
Q 44.1875 33.984375 37.640625 27.21875 
Q 31.109375 20.453125 19.1875 8.296875 
z
" id="DejaVuSans-50"/>
       </defs>
       <use xlink:href="#DejaVuSans-50"/>
       <use x="63.623047" xlink:href="#DejaVuSans-48"/>
      </g>
     </g>
    </g>
    <g id="xtick_3">
     <g id="line2d_3">
      <g>
       <use style="stroke:#000000;stroke-width:0.8;" x="270.593058" xlink:href="#m23d4eda748" y="307.584"/>
      </g>
     </g>
     <g id="text_3">
      <!-- 40 -->
      <g transform="translate(264.230558 322.182437)scale(0.1 -0.1)">
       <defs>
        <path d="M 37.796875 64.3125 
L 12.890625 25.390625 
L 37.796875 25.390625 
z
M 35.203125 72.90625 
L 47.609375 72.90625 
L 47.609375 25.390625 
L 58.015625 25.390625 
L 58.015625 17.1875 
L 47.609375 17.1875 
L 47.609375 0 
L 37.796875 0 
L 37.796875 17.1875 
L 4.890625 17.1875 
L 4.890625 26.703125 
z
" id="DejaVuSans-52"/>
       </defs>
       <use xlink:href="#DejaVuSans-52"/>
       <use x="63.623047" xlink:href="#DejaVuSans-48"/>
      </g>
     </g>
    </g>
    <g id="xtick_4">
     <g id="line2d_4">
      <g>
       <use style="stroke:#000000;stroke-width:0.8;" x="205.006281" xlink:href="#m23d4eda748" y="307.584"/>
      </g>
     </g>
     <g id="text_4">
      <!-- 60 -->
      <g transform="translate(198.643781 322.182437)scale(0.1 -0.1)">
       <defs>
        <path d="M 33.015625 40.375 
Q 26.375 40.375 22.484375 35.828125 
Q 18.609375 31.296875 18.609375 23.390625 
Q 18.609375 15.53125 22.484375 10.953125 
Q 26.375 6.390625 33.015625 6.390625 
Q 39.65625 6.390625 43.53125 10.953125 
Q 47.40625 15.53125 47.40625 23.390625 
Q 47.40625 31.296875 43.53125 35.828125 
Q 39.65625 40.375 33.015625 40.375 
z
M 52.59375 71.296875 
L 52.59375 62.3125 
Q 48.875 64.0625 45.09375 64.984375 
Q 41.3125 65.921875 37.59375 65.921875 
Q 27.828125 65.921875 22.671875 59.328125 
Q 17.53125 52.734375 16.796875 39.40625 
Q 19.671875 43.65625 24.015625 45.921875 
Q 28.375 48.1875 33.59375 48.1875 
Q 44.578125 48.1875 50.953125 41.515625 
Q 57.328125 34.859375 57.328125 23.390625 
Q 57.328125 12.15625 50.6875 5.359375 
Q 44.046875 -1.421875 33.015625 -1.421875 
Q 20.359375 -1.421875 13.671875 8.265625 
Q 6.984375 17.96875 6.984375 36.375 
Q 6.984375 53.65625 15.1875 63.9375 
Q 23.390625 74.21875 37.203125 74.21875 
Q 40.921875 74.21875 44.703125 73.484375 
Q 48.484375 72.75 52.59375 71.296875 
z
" id="DejaVuSans-54"/>
       </defs>
       <use xlink:href="#DejaVuSans-54"/>
       <use x="63.623047" xlink:href="#DejaVuSans-48"/>
      </g>
     </g>
    </g>
    <g id="xtick_5">
     <g id="line2d_5">
      <g>
       <use style="stroke:#000000;stroke-width:0.8;" x="139.419504" xlink:href="#m23d4eda748" y="307.584"/>
      </g>
     </g>
     <g id="text_5">
      <!-- 80 -->
      <g transform="translate(133.057004 322.182437)scale(0.1 -0.1)">
       <defs>
        <path d="M 31.78125 34.625 
Q 24.75 34.625 20.71875 30.859375 
Q 16.703125 27.09375 16.703125 20.515625 
Q 16.703125 13.921875 20.71875 10.15625 
Q 24.75 6.390625 31.78125 6.390625 
Q 38.8125 6.390625 42.859375 10.171875 
Q 46.921875 13.96875 46.921875 20.515625 
Q 46.921875 27.09375 42.890625 30.859375 
Q 38.875 34.625 31.78125 34.625 
z
M 21.921875 38.8125 
Q 15.578125 40.375 12.03125 44.71875 
Q 8.5 49.078125 8.5 55.328125 
Q 8.5 64.0625 14.71875 69.140625 
Q 20.953125 74.21875 31.78125 74.21875 
Q 42.671875 74.21875 48.875 69.140625 
Q 55.078125 64.0625 55.078125 55.328125 
Q 55.078125 49.078125 51.53125 44.71875 
Q 48 40.375 41.703125 38.8125 
Q 48.828125 37.15625 52.796875 32.3125 
Q 56.78125 27.484375 56.78125 20.515625 
Q 56.78125 9.90625 50.3125 4.234375 
Q 43.84375 -1.421875 31.78125 -1.421875 
Q 19.734375 -1.421875 13.25 4.234375 
Q 6.78125 9.90625 6.78125 20.515625 
Q 6.78125 27.484375 10.78125 32.3125 
Q 14.796875 37.15625 21.921875 38.8125 
z
M 18.3125 54.390625 
Q 18.3125 48.734375 21.84375 45.5625 
Q 25.390625 42.390625 31.78125 42.390625 
Q 38.140625 42.390625 41.71875 45.5625 
Q 45.3125 48.734375 45.3125 54.390625 
Q 45.3125 60.0625 41.71875 63.234375 
Q 38.140625 66.40625 31.78125 66.40625 
Q 25.390625 66.40625 21.84375 63.234375 
Q 18.3125 60.0625 18.3125 54.390625 
z
" id="DejaVuSans-56"/>
       </defs>
       <use xlink:href="#DejaVuSans-56"/>
       <use x="63.623047" xlink:href="#DejaVuSans-48"/>
      </g>
     </g>
    </g>
    <g id="xtick_6">
     <g id="line2d_6">
      <g>
       <use style="stroke:#000000;stroke-width:0.8;" x="73.832727" xlink:href="#m23d4eda748" y="307.584"/>
      </g>
     </g>
     <g id="text_6">
      <!-- 100 -->
      <g transform="translate(64.288977 322.182437)scale(0.1 -0.1)">
       <defs>
        <path d="M 12.40625 8.296875 
L 28.515625 8.296875 
L 28.515625 63.921875 
L 10.984375 60.40625 
L 10.984375 69.390625 
L 28.421875 72.90625 
L 38.28125 72.90625 
L 38.28125 8.296875 
L 54.390625 8.296875 
L 54.390625 0 
L 12.40625 0 
z
" id="DejaVuSans-49"/>
       </defs>
       <use xlink:href="#DejaVuSans-49"/>
       <use x="63.623047" xlink:href="#DejaVuSans-48"/>
       <use x="127.246094" xlink:href="#DejaVuSans-48"/>
      </g>
     </g>
    </g>
    <g id="text_7">
     <!-- Number of features -->
     <g transform="translate(187.4225 335.860562)scale(0.1 -0.1)">
      <defs>
       <path d="M 9.8125 72.90625 
L 23.09375 72.90625 
L 55.421875 11.921875 
L 55.421875 72.90625 
L 64.984375 72.90625 
L 64.984375 0 
L 51.703125 0 
L 19.390625 60.984375 
L 19.390625 0 
L 9.8125 0 
z
" id="DejaVuSans-78"/>
       <path d="M 8.5 21.578125 
L 8.5 54.6875 
L 17.484375 54.6875 
L 17.484375 21.921875 
Q 17.484375 14.15625 20.5 10.265625 
Q 23.53125 6.390625 29.59375 6.390625 
Q 36.859375 6.390625 41.078125 11.03125 
Q 45.3125 15.671875 45.3125 23.6875 
L 45.3125 54.6875 
L 54.296875 54.6875 
L 54.296875 0 
L 45.3125 0 
L 45.3125 8.40625 
Q 42.046875 3.421875 37.71875 1 
Q 33.40625 -1.421875 27.6875 -1.421875 
Q 18.265625 -1.421875 13.375 4.4375 
Q 8.5 10.296875 8.5 21.578125 
z
M 31.109375 56 
z
" id="DejaVuSans-117"/>
       <path d="M 52 44.1875 
Q 55.375 50.25 60.0625 53.125 
Q 64.75 56 71.09375 56 
Q 79.640625 56 84.28125 50.015625 
Q 88.921875 44.046875 88.921875 33.015625 
L 88.921875 0 
L 79.890625 0 
L 79.890625 32.71875 
Q 79.890625 40.578125 77.09375 44.375 
Q 74.3125 48.1875 68.609375 48.1875 
Q 61.625 48.1875 57.5625 43.546875 
Q 53.515625 38.921875 53.515625 30.90625 
L 53.515625 0 
L 44.484375 0 
L 44.484375 32.71875 
Q 44.484375 40.625 41.703125 44.40625 
Q 38.921875 48.1875 33.109375 48.1875 
Q 26.21875 48.1875 22.15625 43.53125 
Q 18.109375 38.875 18.109375 30.90625 
L 18.109375 0 
L 9.078125 0 
L 9.078125 54.6875 
L 18.109375 54.6875 
L 18.109375 46.1875 
Q 21.1875 51.21875 25.484375 53.609375 
Q 29.78125 56 35.6875 56 
Q 41.65625 56 45.828125 52.96875 
Q 50 49.953125 52 44.1875 
z
" id="DejaVuSans-109"/>
       <path d="M 48.6875 27.296875 
Q 48.6875 37.203125 44.609375 42.84375 
Q 40.53125 48.484375 33.40625 48.484375 
Q 26.265625 48.484375 22.1875 42.84375 
Q 18.109375 37.203125 18.109375 27.296875 
Q 18.109375 17.390625 22.1875 11.75 
Q 26.265625 6.109375 33.40625 6.109375 
Q 40.53125 6.109375 44.609375 11.75 
Q 48.6875 17.390625 48.6875 27.296875 
z
M 18.109375 46.390625 
Q 20.953125 51.265625 25.265625 53.625 
Q 29.59375 56 35.59375 56 
Q 45.5625 56 51.78125 48.09375 
Q 58.015625 40.1875 58.015625 27.296875 
Q 58.015625 14.40625 51.78125 6.484375 
Q 45.5625 -1.421875 35.59375 -1.421875 
Q 29.59375 -1.421875 25.265625 0.953125 
Q 20.953125 3.328125 18.109375 8.203125 
L 18.109375 0 
L 9.078125 0 
L 9.078125 75.984375 
L 18.109375 75.984375 
z
" id="DejaVuSans-98"/>
       <path d="M 56.203125 29.59375 
L 56.203125 25.203125 
L 14.890625 25.203125 
Q 15.484375 15.921875 20.484375 11.0625 
Q 25.484375 6.203125 34.421875 6.203125 
Q 39.59375 6.203125 44.453125 7.46875 
Q 49.3125 8.734375 54.109375 11.28125 
L 54.109375 2.78125 
Q 49.265625 0.734375 44.1875 -0.34375 
Q 39.109375 -1.421875 33.890625 -1.421875 
Q 20.796875 -1.421875 13.15625 6.1875 
Q 5.515625 13.8125 5.515625 26.8125 
Q 5.515625 40.234375 12.765625 48.109375 
Q 20.015625 56 32.328125 56 
Q 43.359375 56 49.78125 48.890625 
Q 56.203125 41.796875 56.203125 29.59375 
z
M 47.21875 32.234375 
Q 47.125 39.59375 43.09375 43.984375 
Q 39.0625 48.390625 32.421875 48.390625 
Q 24.90625 48.390625 20.390625 44.140625 
Q 15.875 39.890625 15.1875 32.171875 
z
" id="DejaVuSans-101"/>
       <path d="M 41.109375 46.296875 
Q 39.59375 47.171875 37.8125 47.578125 
Q 36.03125 48 33.890625 48 
Q 26.265625 48 22.1875 43.046875 
Q 18.109375 38.09375 18.109375 28.8125 
L 18.109375 0 
L 9.078125 0 
L 9.078125 54.6875 
L 18.109375 54.6875 
L 18.109375 46.1875 
Q 20.953125 51.171875 25.484375 53.578125 
Q 30.03125 56 36.53125 56 
Q 37.453125 56 38.578125 55.875 
Q 39.703125 55.765625 41.0625 55.515625 
z
" id="DejaVuSans-114"/>
       <path id="DejaVuSans-32"/>
       <path d="M 30.609375 48.390625 
Q 23.390625 48.390625 19.1875 42.75 
Q 14.984375 37.109375 14.984375 27.296875 
Q 14.984375 17.484375 19.15625 11.84375 
Q 23.34375 6.203125 30.609375 6.203125 
Q 37.796875 6.203125 41.984375 11.859375 
Q 46.1875 17.53125 46.1875 27.296875 
Q 46.1875 37.015625 41.984375 42.703125 
Q 37.796875 48.390625 30.609375 48.390625 
z
M 30.609375 56 
Q 42.328125 56 49.015625 48.375 
Q 55.71875 40.765625 55.71875 27.296875 
Q 55.71875 13.875 49.015625 6.21875 
Q 42.328125 -1.421875 30.609375 -1.421875 
Q 18.84375 -1.421875 12.171875 6.21875 
Q 5.515625 13.875 5.515625 27.296875 
Q 5.515625 40.765625 12.171875 48.375 
Q 18.84375 56 30.609375 56 
z
" id="DejaVuSans-111"/>
       <path d="M 37.109375 75.984375 
L 37.109375 68.5 
L 28.515625 68.5 
Q 23.6875 68.5 21.796875 66.546875 
Q 19.921875 64.59375 19.921875 59.515625 
L 19.921875 54.6875 
L 34.71875 54.6875 
L 34.71875 47.703125 
L 19.921875 47.703125 
L 19.921875 0 
L 10.890625 0 
L 10.890625 47.703125 
L 2.296875 47.703125 
L 2.296875 54.6875 
L 10.890625 54.6875 
L 10.890625 58.5 
Q 10.890625 67.625 15.140625 71.796875 
Q 19.390625 75.984375 28.609375 75.984375 
z
" id="DejaVuSans-102"/>
       <path d="M 34.28125 27.484375 
Q 23.390625 27.484375 19.1875 25 
Q 14.984375 22.515625 14.984375 16.5 
Q 14.984375 11.71875 18.140625 8.90625 
Q 21.296875 6.109375 26.703125 6.109375 
Q 34.1875 6.109375 38.703125 11.40625 
Q 43.21875 16.703125 43.21875 25.484375 
L 43.21875 27.484375 
z
M 52.203125 31.203125 
L 52.203125 0 
L 43.21875 0 
L 43.21875 8.296875 
Q 40.140625 3.328125 35.546875 0.953125 
Q 30.953125 -1.421875 24.3125 -1.421875 
Q 15.921875 -1.421875 10.953125 3.296875 
Q 6 8.015625 6 15.921875 
Q 6 25.140625 12.171875 29.828125 
Q 18.359375 34.515625 30.609375 34.515625 
L 43.21875 34.515625 
L 43.21875 35.40625 
Q 43.21875 41.609375 39.140625 45 
Q 35.0625 48.390625 27.6875 48.390625 
Q 23 48.390625 18.546875 47.265625 
Q 14.109375 46.140625 10.015625 43.890625 
L 10.015625 52.203125 
Q 14.9375 54.109375 19.578125 55.046875 
Q 24.21875 56 28.609375 56 
Q 40.484375 56 46.34375 49.84375 
Q 52.203125 43.703125 52.203125 31.203125 
z
" id="DejaVuSans-97"/>
       <path d="M 18.3125 70.21875 
L 18.3125 54.6875 
L 36.8125 54.6875 
L 36.8125 47.703125 
L 18.3125 47.703125 
L 18.3125 18.015625 
Q 18.3125 11.328125 20.140625 9.421875 
Q 21.96875 7.515625 27.59375 7.515625 
L 36.8125 7.515625 
L 36.8125 0 
L 27.59375 0 
Q 17.1875 0 13.234375 3.875 
Q 9.28125 7.765625 9.28125 18.015625 
L 9.28125 47.703125 
L 2.6875 47.703125 
L 2.6875 54.6875 
L 9.28125 54.6875 
L 9.28125 70.21875 
z
" id="DejaVuSans-116"/>
       <path d="M 44.28125 53.078125 
L 44.28125 44.578125 
Q 40.484375 46.53125 36.375 47.5 
Q 32.28125 48.484375 27.875 48.484375 
Q 21.1875 48.484375 17.84375 46.4375 
Q 14.5 44.390625 14.5 40.28125 
Q 14.5 37.15625 16.890625 35.375 
Q 19.28125 33.59375 26.515625 31.984375 
L 29.59375 31.296875 
Q 39.15625 29.25 43.1875 25.515625 
Q 47.21875 21.78125 47.21875 15.09375 
Q 47.21875 7.46875 41.1875 3.015625 
Q 35.15625 -1.421875 24.609375 -1.421875 
Q 20.21875 -1.421875 15.453125 -0.5625 
Q 10.6875 0.296875 5.421875 2 
L 5.421875 11.28125 
Q 10.40625 8.6875 15.234375 7.390625 
Q 20.0625 6.109375 24.8125 6.109375 
Q 31.15625 6.109375 34.5625 8.28125 
Q 37.984375 10.453125 37.984375 14.40625 
Q 37.984375 18.0625 35.515625 20.015625 
Q 33.0625 21.96875 24.703125 23.78125 
L 21.578125 24.515625 
Q 13.234375 26.265625 9.515625 29.90625 
Q 5.8125 33.546875 5.8125 39.890625 
Q 5.8125 47.609375 11.28125 51.796875 
Q 16.75 56 26.8125 56 
Q 31.78125 56 36.171875 55.265625 
Q 40.578125 54.546875 44.28125 53.078125 
z
" id="DejaVuSans-115"/>
      </defs>
      <use xlink:href="#DejaVuSans-78"/>
      <use x="74.804688" xlink:href="#DejaVuSans-117"/>
      <use x="138.183594" xlink:href="#DejaVuSans-109"/>
      <use x="235.595703" xlink:href="#DejaVuSans-98"/>
      <use x="299.072266" xlink:href="#DejaVuSans-101"/>
      <use x="360.595703" xlink:href="#DejaVuSans-114"/>
      <use x="401.708984" xlink:href="#DejaVuSans-32"/>
      <use x="433.496094" xlink:href="#DejaVuSans-111"/>
      <use x="494.677734" xlink:href="#DejaVuSans-102"/>
      <use x="529.882812" xlink:href="#DejaVuSans-32"/>
      <use x="561.669922" xlink:href="#DejaVuSans-102"/>
      <use x="596.875" xlink:href="#DejaVuSans-101"/>
      <use x="658.398438" xlink:href="#DejaVuSans-97"/>
      <use x="719.677734" xlink:href="#DejaVuSans-116"/>
      <use x="758.886719" xlink:href="#DejaVuSans-117"/>
      <use x="822.265625" xlink:href="#DejaVuSans-114"/>
      <use x="861.128906" xlink:href="#DejaVuSans-101"/>
      <use x="922.652344" xlink:href="#DejaVuSans-115"/>
     </g>
    </g>
   </g>
   <g id="matplotlib.axis_2">
    <g id="ytick_1">
     <g id="line2d_7">
      <defs>
       <path d="M 0 0 
L -3.5 0 
" id="ma76b56a856" style="stroke:#000000;stroke-width:0.8;"/>
      </defs>
      <g>
       <use style="stroke:#000000;stroke-width:0.8;" x="57.6" xlink:href="#ma76b56a856" y="273.847642"/>
      </g>
     </g>
     <g id="text_8">
      <!-- 0.30 -->
      <g transform="translate(28.334375 277.64686)scale(0.1 -0.1)">
       <defs>
        <path d="M 10.6875 12.40625 
L 21 12.40625 
L 21 0 
L 10.6875 0 
z
" id="DejaVuSans-46"/>
        <path d="M 40.578125 39.3125 
Q 47.65625 37.796875 51.625 33 
Q 55.609375 28.21875 55.609375 21.1875 
Q 55.609375 10.40625 48.1875 4.484375 
Q 40.765625 -1.421875 27.09375 -1.421875 
Q 22.515625 -1.421875 17.65625 -0.515625 
Q 12.796875 0.390625 7.625 2.203125 
L 7.625 11.71875 
Q 11.71875 9.328125 16.59375 8.109375 
Q 21.484375 6.890625 26.8125 6.890625 
Q 36.078125 6.890625 40.9375 10.546875 
Q 45.796875 14.203125 45.796875 21.1875 
Q 45.796875 27.640625 41.28125 31.265625 
Q 36.765625 34.90625 28.71875 34.90625 
L 20.21875 34.90625 
L 20.21875 43.015625 
L 29.109375 43.015625 
Q 36.375 43.015625 40.234375 45.921875 
Q 44.09375 48.828125 44.09375 54.296875 
Q 44.09375 59.90625 40.109375 62.90625 
Q 36.140625 65.921875 28.71875 65.921875 
Q 24.65625 65.921875 20.015625 65.03125 
Q 15.375 64.15625 9.8125 62.3125 
L 9.8125 71.09375 
Q 15.4375 72.65625 20.34375 73.4375 
Q 25.25 74.21875 29.59375 74.21875 
Q 40.828125 74.21875 47.359375 69.109375 
Q 53.90625 64.015625 53.90625 55.328125 
Q 53.90625 49.265625 50.4375 45.09375 
Q 46.96875 40.921875 40.578125 39.3125 
z
" id="DejaVuSans-51"/>
       </defs>
       <use xlink:href="#DejaVuSans-48"/>
       <use x="63.623047" xlink:href="#DejaVuSans-46"/>
       <use x="95.410156" xlink:href="#DejaVuSans-51"/>
       <use x="159.033203" xlink:href="#DejaVuSans-48"/>
      </g>
     </g>
    </g>
    <g id="ytick_2">
     <g id="line2d_8">
      <g>
       <use style="stroke:#000000;stroke-width:0.8;" x="57.6" xlink:href="#ma76b56a856" y="235.204145"/>
      </g>
     </g>
     <g id="text_9">
      <!-- 0.35 -->
      <g transform="translate(28.334375 239.003364)scale(0.1 -0.1)">
       <defs>
        <path d="M 10.796875 72.90625 
L 49.515625 72.90625 
L 49.515625 64.59375 
L 19.828125 64.59375 
L 19.828125 46.734375 
Q 21.96875 47.46875 24.109375 47.828125 
Q 26.265625 48.1875 28.421875 48.1875 
Q 40.625 48.1875 47.75 41.5 
Q 54.890625 34.8125 54.890625 23.390625 
Q 54.890625 11.625 47.5625 5.09375 
Q 40.234375 -1.421875 26.90625 -1.421875 
Q 22.3125 -1.421875 17.546875 -0.640625 
Q 12.796875 0.140625 7.71875 1.703125 
L 7.71875 11.625 
Q 12.109375 9.234375 16.796875 8.0625 
Q 21.484375 6.890625 26.703125 6.890625 
Q 35.15625 6.890625 40.078125 11.328125 
Q 45.015625 15.765625 45.015625 23.390625 
Q 45.015625 31 40.078125 35.4375 
Q 35.15625 39.890625 26.703125 39.890625 
Q 22.75 39.890625 18.8125 39.015625 
Q 14.890625 38.140625 10.796875 36.28125 
z
" id="DejaVuSans-53"/>
       </defs>
       <use xlink:href="#DejaVuSans-48"/>
       <use x="63.623047" xlink:href="#DejaVuSans-46"/>
       <use x="95.410156" xlink:href="#DejaVuSans-51"/>
       <use x="159.033203" xlink:href="#DejaVuSans-53"/>
      </g>
     </g>
    </g>
    <g id="ytick_3">
     <g id="line2d_9">
      <g>
       <use style="stroke:#000000;stroke-width:0.8;" x="57.6" xlink:href="#ma76b56a856" y="196.560648"/>
      </g>
     </g>
     <g id="text_10">
      <!-- 0.40 -->
      <g transform="translate(28.334375 200.359867)scale(0.1 -0.1)">
       <use xlink:href="#DejaVuSans-48"/>
       <use x="63.623047" xlink:href="#DejaVuSans-46"/>
       <use x="95.410156" xlink:href="#DejaVuSans-52"/>
       <use x="159.033203" xlink:href="#DejaVuSans-48"/>
      </g>
     </g>
    </g>
    <g id="ytick_4">
     <g id="line2d_10">
      <g>
       <use style="stroke:#000000;stroke-width:0.8;" x="57.6" xlink:href="#ma76b56a856" y="157.917151"/>
      </g>
     </g>
     <g id="text_11">
      <!-- 0.45 -->
      <g transform="translate(28.334375 161.71637)scale(0.1 -0.1)">
       <use xlink:href="#DejaVuSans-48"/>
       <use x="63.623047" xlink:href="#DejaVuSans-46"/>
       <use x="95.410156" xlink:href="#DejaVuSans-52"/>
       <use x="159.033203" xlink:href="#DejaVuSans-53"/>
      </g>
     </g>
    </g>
    <g id="ytick_5">
     <g id="line2d_11">
      <g>
       <use style="stroke:#000000;stroke-width:0.8;" x="57.6" xlink:href="#ma76b56a856" y="119.273654"/>
      </g>
     </g>
     <g id="text_12">
      <!-- 0.50 -->
      <g transform="translate(28.334375 123.072873)scale(0.1 -0.1)">
       <use xlink:href="#DejaVuSans-48"/>
       <use x="63.623047" xlink:href="#DejaVuSans-46"/>
       <use x="95.410156" xlink:href="#DejaVuSans-53"/>
       <use x="159.033203" xlink:href="#DejaVuSans-48"/>
      </g>
     </g>
    </g>
    <g id="ytick_6">
     <g id="line2d_12">
      <g>
       <use style="stroke:#000000;stroke-width:0.8;" x="57.6" xlink:href="#ma76b56a856" y="80.630157"/>
      </g>
     </g>
     <g id="text_13">
      <!-- 0.55 -->
      <g transform="translate(28.334375 84.429376)scale(0.1 -0.1)">
       <use xlink:href="#DejaVuSans-48"/>
       <use x="63.623047" xlink:href="#DejaVuSans-46"/>
       <use x="95.410156" xlink:href="#DejaVuSans-53"/>
       <use x="159.033203" xlink:href="#DejaVuSans-53"/>
      </g>
     </g>
    </g>
    <g id="ytick_7">
     <g id="line2d_13">
      <g>
       <use style="stroke:#000000;stroke-width:0.8;" x="57.6" xlink:href="#ma76b56a856" y="41.98666"/>
      </g>
     </g>
     <g id="text_14">
      <!-- 0.60 -->
      <g transform="translate(28.334375 45.785879)scale(0.1 -0.1)">
       <use xlink:href="#DejaVuSans-48"/>
       <use x="63.623047" xlink:href="#DejaVuSans-46"/>
       <use x="95.410156" xlink:href="#DejaVuSans-54"/>
       <use x="159.033203" xlink:href="#DejaVuSans-48"/>
      </g>
     </g>
    </g>
    <g id="text_15">
     <!-- Accuracy -->
     <g transform="translate(22.254687 197.356125)rotate(-90)scale(0.1 -0.1)">
      <defs>
       <path d="M 34.1875 63.1875 
L 20.796875 26.90625 
L 47.609375 26.90625 
z
M 28.609375 72.90625 
L 39.796875 72.90625 
L 67.578125 0 
L 57.328125 0 
L 50.6875 18.703125 
L 17.828125 18.703125 
L 11.1875 0 
L 0.78125 0 
z
" id="DejaVuSans-65"/>
       <path d="M 48.78125 52.59375 
L 48.78125 44.1875 
Q 44.96875 46.296875 41.140625 47.34375 
Q 37.3125 48.390625 33.40625 48.390625 
Q 24.65625 48.390625 19.8125 42.84375 
Q 14.984375 37.3125 14.984375 27.296875 
Q 14.984375 17.28125 19.8125 11.734375 
Q 24.65625 6.203125 33.40625 6.203125 
Q 37.3125 6.203125 41.140625 7.25 
Q 44.96875 8.296875 48.78125 10.40625 
L 48.78125 2.09375 
Q 45.015625 0.34375 40.984375 -0.53125 
Q 36.96875 -1.421875 32.421875 -1.421875 
Q 20.0625 -1.421875 12.78125 6.34375 
Q 5.515625 14.109375 5.515625 27.296875 
Q 5.515625 40.671875 12.859375 48.328125 
Q 20.21875 56 33.015625 56 
Q 37.15625 56 41.109375 55.140625 
Q 45.0625 54.296875 48.78125 52.59375 
z
" id="DejaVuSans-99"/>
       <path d="M 32.171875 -5.078125 
Q 28.375 -14.84375 24.75 -17.8125 
Q 21.140625 -20.796875 15.09375 -20.796875 
L 7.90625 -20.796875 
L 7.90625 -13.28125 
L 13.1875 -13.28125 
Q 16.890625 -13.28125 18.9375 -11.515625 
Q 21 -9.765625 23.484375 -3.21875 
L 25.09375 0.875 
L 2.984375 54.6875 
L 12.5 54.6875 
L 29.59375 11.921875 
L 46.6875 54.6875 
L 56.203125 54.6875 
z
" id="DejaVuSans-121"/>
      </defs>
      <use xlink:href="#DejaVuSans-65"/>
      <use x="66.658203" xlink:href="#DejaVuSans-99"/>
      <use x="121.638672" xlink:href="#DejaVuSans-99"/>
      <use x="176.619141" xlink:href="#DejaVuSans-117"/>
      <use x="239.998047" xlink:href="#DejaVuSans-114"/>
      <use x="281.111328" xlink:href="#DejaVuSans-97"/>
      <use x="342.390625" xlink:href="#DejaVuSans-99"/>
      <use x="397.371094" xlink:href="#DejaVuSans-121"/>
     </g>
    </g>
   </g>
   <g id="line2d_14">
    <path clip-path="url(#p5cff07b509)" d="M 73.832727 119.273654 
L 77.112066 116.955044 
L 80.391405 105.361995 
L 83.670744 106.134865 
L 86.950083 108.453475 
L 90.229421 109.999215 
L 93.50876 119.273654 
L 96.788099 125.456614 
L 100.067438 124.683744 
L 103.346777 125.456614 
L 106.626116 137.049663 
L 109.905455 149.415582 
L 113.184793 147.096972 
L 116.464132 130.093833 
L 119.743471 153.279931 
L 123.02281 158.690021 
L 126.302149 161.008631 
L 129.581488 165.64585 
L 132.860826 160.235761 
L 136.140165 178.011769 
L 139.419504 174.14742 
L 142.698843 181.103249 
L 145.978182 176.466029 
L 149.257521 171.05594 
L 152.53686 188.059079 
L 155.816198 190.377688 
L 159.095537 179.557509 
L 162.374876 182.648989 
L 165.654215 191.923428 
L 168.933554 190.377688 
L 172.212893 208.926567 
L 175.492231 206.607957 
L 178.77157 198.106388 
L 182.050909 192.696298 
L 185.330248 194.242038 
L 188.609587 207.380827 
L 191.888926 193.469168 
L 195.168264 195.787778 
L 198.447603 201.197868 
L 201.726942 201.970737 
L 205.006281 204.289347 
L 208.28562 205.062217 
L 211.564959 204.289347 
L 214.844298 200.424998 
L 218.123636 200.424998 
L 221.402975 201.197868 
L 224.682314 199.652128 
L 227.961653 195.787778 
L 231.240992 188.831948 
L 234.520331 190.377688 
L 237.799669 210.472307 
L 241.079008 195.787778 
L 244.358347 208.153697 
L 247.637686 201.970737 
L 250.917025 189.604818 
L 254.196364 201.197868 
L 257.475702 202.743607 
L 260.755041 193.469168 
L 264.03438 193.469168 
L 267.313719 191.923428 
L 270.593058 195.014908 
L 273.872397 195.787778 
L 277.151736 194.242038 
L 280.431074 196.560648 
L 283.710413 198.106388 
L 286.989752 191.923428 
L 290.269091 188.059079 
L 293.54843 195.787778 
L 296.827769 198.106388 
L 300.107107 196.560648 
L 303.386446 197.333518 
L 306.665785 192.696298 
L 309.945124 198.106388 
L 313.224463 195.787778 
L 316.503802 195.787778 
L 319.78314 192.696298 
L 323.062479 189.604818 
L 326.341818 193.469168 
L 329.621157 193.469168 
L 332.900496 196.560648 
L 336.179835 194.242038 
L 339.459174 195.787778 
L 342.738512 195.014908 
L 346.017851 196.560648 
L 349.29719 198.879258 
L 352.576529 195.787778 
L 355.855868 198.106388 
L 359.135207 195.787778 
L 362.414545 195.014908 
L 365.693884 196.560648 
L 368.973223 195.787778 
L 372.252562 196.560648 
L 375.531901 196.560648 
L 378.81124 196.560648 
L 382.090579 196.560648 
L 385.369917 196.560648 
L 388.649256 196.560648 
L 391.928595 196.560648 
L 395.207934 196.560648 
L 398.487273 196.560648 
" style="fill:none;stroke:#1f77b4;stroke-linecap:square;stroke-width:1.5;"/>
   </g>
   <g id="line2d_15">
    <path clip-path="url(#p5cff07b509)" d="M 73.832727 196.560648 
L 77.112066 201.197868 
L 80.391405 200.424998 
L 83.670744 206.607957 
L 86.950083 209.699437 
L 90.229421 213.563787 
L 93.50876 202.743607 
L 96.788099 219.746746 
L 100.067438 216.655266 
L 103.346777 217.428136 
L 106.626116 216.655266 
L 109.905455 209.699437 
L 113.184793 216.655266 
L 116.464132 206.607957 
L 119.743471 218.201006 
L 123.02281 210.472307 
L 126.302149 216.655266 
L 129.581488 229.021185 
L 132.860826 215.882396 
L 136.140165 209.699437 
L 139.419504 206.607957 
L 142.698843 208.153697 
L 145.978182 199.652128 
L 149.257521 211.245177 
L 152.53686 205.835087 
L 155.816198 202.743607 
L 159.095537 209.699437 
L 162.374876 201.970737 
L 165.654215 189.604818 
L 168.933554 208.153697 
L 172.212893 211.245177 
L 175.492231 201.970737 
L 178.77157 196.560648 
L 182.050909 201.970737 
L 185.330248 216.655266 
L 188.609587 188.059079 
L 191.888926 187.286209 
L 195.168264 190.377688 
L 198.447603 202.743607 
L 201.726942 184.194729 
L 205.006281 196.560648 
L 208.28562 176.466029 
L 211.564959 174.14742 
L 214.844298 188.831948 
L 218.123636 185.740469 
L 221.402975 193.469168 
L 224.682314 175.69316 
L 227.961653 198.106388 
L 231.240992 178.784639 
L 234.520331 180.330379 
L 237.799669 208.926567 
L 241.079008 212.790917 
L 244.358347 182.648989 
L 247.637686 186.513339 
L 250.917025 172.60168 
L 254.196364 205.062217 
L 257.475702 197.333518 
L 260.755041 188.831948 
L 264.03438 174.92029 
L 267.313719 190.377688 
L 270.593058 191.150558 
L 273.872397 188.059079 
L 277.151736 191.923428 
L 280.431074 200.424998 
L 283.710413 197.333518 
L 286.989752 193.469168 
L 290.269091 190.377688 
L 293.54843 196.560648 
L 296.827769 191.150558 
L 300.107107 184.194729 
L 303.386446 193.469168 
L 306.665785 192.696298 
L 309.945124 188.831948 
L 313.224463 197.333518 
L 316.503802 198.106388 
L 319.78314 188.059079 
L 323.062479 190.377688 
L 326.341818 187.286209 
L 329.621157 195.014908 
L 332.900496 199.652128 
L 336.179835 195.014908 
L 339.459174 200.424998 
L 342.738512 195.014908 
L 346.017851 195.014908 
L 349.29719 199.652128 
L 352.576529 201.197868 
L 355.855868 200.424998 
L 359.135207 203.516477 
L 362.414545 197.333518 
L 365.693884 201.197868 
L 368.973223 195.787778 
L 372.252562 197.333518 
L 375.531901 195.014908 
L 378.81124 197.333518 
L 382.090579 195.014908 
L 385.369917 197.333518 
L 388.649256 196.560648 
L 391.928595 196.560648 
L 395.207934 196.560648 
L 398.487273 196.560648 
" style="fill:none;stroke:#ff7f0e;stroke-linecap:square;stroke-width:1.5;"/>
   </g>
   <g id="line2d_16">
    <path clip-path="url(#p5cff07b509)" d="M 73.832727 119.273654 
L 77.112066 122.365134 
L 80.391405 116.182174 
L 83.670744 121.592264 
L 86.950083 121.592264 
L 90.229421 123.138004 
L 93.50876 116.955044 
L 96.788099 127.002353 
L 100.067438 117.727914 
L 103.346777 116.955044 
L 106.626116 132.412443 
L 109.905455 123.910874 
L 113.184793 129.320963 
L 116.464132 130.093833 
L 119.743471 124.683744 
L 123.02281 130.866703 
L 126.302149 138.595402 
L 129.581488 145.551232 
L 132.860826 144.778362 
L 136.140165 145.551232 
L 139.419504 144.778362 
L 142.698843 130.093833 
L 145.978182 145.551232 
L 149.257521 154.052801 
L 152.53686 147.096972 
L 155.816198 140.141142 
L 159.095537 159.462891 
L 162.374876 145.551232 
L 165.654215 162.554371 
L 168.933554 162.554371 
L 172.212893 148.642712 
L 175.492231 157.144281 
L 178.77157 160.235761 
L 182.050909 157.144281 
L 185.330248 168.73733 
L 188.609587 165.64585 
L 191.888926 164.10011 
L 195.168264 169.5102 
L 198.447603 161.781501 
L 201.726942 154.052801 
L 205.006281 165.64585 
L 208.28562 157.917151 
L 211.564959 167.96446 
L 214.844298 179.557509 
L 218.123636 167.96446 
L 221.402975 167.96446 
L 224.682314 167.19159 
L 227.961653 175.69316 
L 231.240992 178.784639 
L 234.520331 177.238899 
L 237.799669 178.784639 
L 241.079008 178.011769 
L 244.358347 181.103249 
L 247.637686 182.648989 
L 250.917025 169.5102 
L 254.196364 177.238899 
L 257.475702 196.560648 
L 260.755041 181.103249 
L 264.03438 182.648989 
L 267.313719 193.469168 
L 270.593058 187.286209 
L 273.872397 192.696298 
L 277.151736 192.696298 
L 280.431074 182.648989 
L 283.710413 195.787778 
L 286.989752 198.879258 
L 290.269091 188.059079 
L 293.54843 202.743607 
L 296.827769 192.696298 
L 300.107107 188.059079 
L 303.386446 199.652128 
L 306.665785 189.604818 
L 309.945124 196.560648 
L 313.224463 198.106388 
L 316.503802 195.787778 
L 319.78314 198.106388 
L 323.062479 191.150558 
L 326.341818 198.879258 
L 329.621157 201.197868 
L 332.900496 199.652128 
L 336.179835 199.652128 
L 339.459174 191.923428 
L 342.738512 193.469168 
L 346.017851 201.970737 
L 349.29719 201.970737 
L 352.576529 197.333518 
L 355.855868 199.652128 
L 359.135207 198.106388 
L 362.414545 194.242038 
L 365.693884 197.333518 
L 368.973223 199.652128 
L 372.252562 197.333518 
L 375.531901 200.424998 
L 378.81124 200.424998 
L 382.090579 196.560648 
L 385.369917 198.879258 
L 388.649256 198.106388 
L 391.928595 200.424998 
L 395.207934 199.652128 
L 398.487273 196.560648 
" style="fill:none;stroke:#2ca02c;stroke-linecap:square;stroke-width:1.5;"/>
   </g>
   <g id="line2d_17">
    <path clip-path="url(#p5cff07b509)" d="M 73.832727 196.560648 
L 77.112066 195.787778 
L 80.391405 189.604818 
L 83.670744 190.377688 
L 86.950083 188.831948 
L 90.229421 188.059079 
L 93.50876 184.967599 
L 96.788099 178.784639 
L 100.067438 182.648989 
L 103.346777 177.238899 
L 106.626116 186.513339 
L 109.905455 176.466029 
L 113.184793 182.648989 
L 116.464132 182.648989 
L 119.743471 184.194729 
L 123.02281 181.103249 
L 126.302149 178.784639 
L 129.581488 190.377688 
L 132.860826 193.469168 
L 136.140165 183.421859 
L 139.419504 191.923428 
L 142.698843 192.696298 
L 145.978182 196.560648 
L 149.257521 196.560648 
L 152.53686 193.469168 
L 155.816198 189.604818 
L 159.095537 183.421859 
L 162.374876 191.923428 
L 165.654215 198.879258 
L 168.933554 203.516477 
L 172.212893 195.014908 
L 175.492231 204.289347 
L 178.77157 202.743607 
L 182.050909 203.516477 
L 185.330248 209.699437 
L 188.609587 215.109526 
L 191.888926 212.018047 
L 195.168264 211.245177 
L 198.447603 197.333518 
L 201.726942 213.563787 
L 205.006281 204.289347 
L 208.28562 207.380827 
L 211.564959 199.652128 
L 214.844298 206.607957 
L 218.123636 212.790917 
L 221.402975 216.655266 
L 224.682314 208.153697 
L 227.961653 203.516477 
L 231.240992 204.289347 
L 234.520331 212.790917 
L 237.799669 205.062217 
L 241.079008 214.336656 
L 244.358347 203.516477 
L 247.637686 205.835087 
L 250.917025 202.743607 
L 254.196364 208.926567 
L 257.475702 212.018047 
L 260.755041 209.699437 
L 264.03438 208.926567 
L 267.313719 205.062217 
L 270.593058 202.743607 
L 273.872397 204.289347 
L 277.151736 203.516477 
L 280.431074 201.970737 
L 283.710413 203.516477 
L 286.989752 205.062217 
L 290.269091 203.516477 
L 293.54843 201.197868 
L 296.827769 198.106388 
L 300.107107 201.197868 
L 303.386446 201.197868 
L 306.665785 199.652128 
L 309.945124 198.879258 
L 313.224463 200.424998 
L 316.503802 198.879258 
L 319.78314 198.106388 
L 323.062479 198.106388 
L 326.341818 196.560648 
L 329.621157 197.333518 
L 332.900496 197.333518 
L 336.179835 198.106388 
L 339.459174 196.560648 
L 342.738512 197.333518 
L 346.017851 196.560648 
L 349.29719 196.560648 
L 352.576529 196.560648 
L 355.855868 196.560648 
L 359.135207 196.560648 
L 362.414545 196.560648 
L 365.693884 197.333518 
L 368.973223 196.560648 
L 372.252562 196.560648 
L 375.531901 196.560648 
L 378.81124 196.560648 
L 382.090579 196.560648 
L 385.369917 196.560648 
L 388.649256 196.560648 
L 391.928595 196.560648 
L 395.207934 196.560648 
L 398.487273 196.560648 
" style="fill:none;stroke:#d62728;stroke-linecap:square;stroke-width:1.5;"/>
   </g>
   <g id="patch_3">
    <path d="M 57.6 307.584 
L 57.6 41.472 
" style="fill:none;stroke:#000000;stroke-linecap:square;stroke-linejoin:miter;stroke-width:0.8;"/>
   </g>
   <g id="patch_4">
    <path d="M 414.72 307.584 
L 414.72 41.472 
" style="fill:none;stroke:#000000;stroke-linecap:square;stroke-linejoin:miter;stroke-width:0.8;"/>
   </g>
   <g id="patch_5">
    <path d="M 57.6 307.584 
L 414.72 307.584 
" style="fill:none;stroke:#000000;stroke-linecap:square;stroke-linejoin:miter;stroke-width:0.8;"/>
   </g>
   <g id="patch_6">
    <path d="M 57.6 41.472 
L 414.72 41.472 
" style="fill:none;stroke:#000000;stroke-linecap:square;stroke-linejoin:miter;stroke-width:0.8;"/>
   </g>
   <g id="text_16">
    <!-- Toy_linear_100_100 -->
    <g transform="translate(177.41625 35.472)scale(0.12 -0.12)">
     <defs>
      <path d="M -0.296875 72.90625 
L 61.375 72.90625 
L 61.375 64.59375 
L 35.5 64.59375 
L 35.5 0 
L 25.59375 0 
L 25.59375 64.59375 
L -0.296875 64.59375 
z
" id="DejaVuSans-84"/>
      <path d="M 50.984375 -16.609375 
L 50.984375 -23.578125 
L -0.984375 -23.578125 
L -0.984375 -16.609375 
z
" id="DejaVuSans-95"/>
      <path d="M 9.421875 75.984375 
L 18.40625 75.984375 
L 18.40625 0 
L 9.421875 0 
z
" id="DejaVuSans-108"/>
      <path d="M 9.421875 54.6875 
L 18.40625 54.6875 
L 18.40625 0 
L 9.421875 0 
z
M 9.421875 75.984375 
L 18.40625 75.984375 
L 18.40625 64.59375 
L 9.421875 64.59375 
z
" id="DejaVuSans-105"/>
      <path d="M 54.890625 33.015625 
L 54.890625 0 
L 45.90625 0 
L 45.90625 32.71875 
Q 45.90625 40.484375 42.875 44.328125 
Q 39.84375 48.1875 33.796875 48.1875 
Q 26.515625 48.1875 22.3125 43.546875 
Q 18.109375 38.921875 18.109375 30.90625 
L 18.109375 0 
L 9.078125 0 
L 9.078125 54.6875 
L 18.109375 54.6875 
L 18.109375 46.1875 
Q 21.34375 51.125 25.703125 53.5625 
Q 30.078125 56 35.796875 56 
Q 45.21875 56 50.046875 50.171875 
Q 54.890625 44.34375 54.890625 33.015625 
z
" id="DejaVuSans-110"/>
     </defs>
     <use xlink:href="#DejaVuSans-84"/>
     <use x="44.083984" xlink:href="#DejaVuSans-111"/>
     <use x="105.265625" xlink:href="#DejaVuSans-121"/>
     <use x="164.445312" xlink:href="#DejaVuSans-95"/>
     <use x="214.445312" xlink:href="#DejaVuSans-108"/>
     <use x="242.228516" xlink:href="#DejaVuSans-105"/>
     <use x="270.011719" xlink:href="#DejaVuSans-110"/>
     <use x="333.390625" xlink:href="#DejaVuSans-101"/>
     <use x="394.914062" xlink:href="#DejaVuSans-97"/>
     <use x="456.193359" xlink:href="#DejaVuSans-114"/>
     <use x="497.306641" xlink:href="#DejaVuSans-95"/>
     <use x="547.306641" xlink:href="#DejaVuSans-49"/>
     <use x="610.929688" xlink:href="#DejaVuSans-48"/>
     <use x="674.552734" xlink:href="#DejaVuSans-48"/>
     <use x="738.175781" xlink:href="#DejaVuSans-95"/>
     <use x="788.175781" xlink:href="#DejaVuSans-49"/>
     <use x="851.798828" xlink:href="#DejaVuSans-48"/>
     <use x="915.421875" xlink:href="#DejaVuSans-48"/>
    </g>
   </g>
   <g id="legend_1">
    <g id="patch_7">
     <path d="M 300.468437 108.1845 
L 407.72 108.1845 
Q 409.72 108.1845 409.72 106.1845 
L 409.72 48.472 
Q 409.72 46.472 407.72 46.472 
L 300.468437 46.472 
Q 298.468437 46.472 298.468437 48.472 
L 298.468437 106.1845 
Q 298.468437 108.1845 300.468437 108.1845 
z
" style="fill:#ffffff;opacity:0.8;stroke:#cccccc;stroke-linejoin:miter;"/>
    </g>
    <g id="line2d_18">
     <path d="M 302.468437 54.570438 
L 322.468437 54.570438 
" style="fill:none;stroke:#1f77b4;stroke-linecap:square;stroke-width:1.5;"/>
    </g>
    <g id="line2d_19"/>
    <g id="text_17">
     <!-- Random Forest -->
     <g transform="translate(330.468437 58.070438)scale(0.1 -0.1)">
      <defs>
       <path d="M 44.390625 34.1875 
Q 47.5625 33.109375 50.5625 29.59375 
Q 53.5625 26.078125 56.59375 19.921875 
L 66.609375 0 
L 56 0 
L 46.6875 18.703125 
Q 43.0625 26.03125 39.671875 28.421875 
Q 36.28125 30.8125 30.421875 30.8125 
L 19.671875 30.8125 
L 19.671875 0 
L 9.8125 0 
L 9.8125 72.90625 
L 32.078125 72.90625 
Q 44.578125 72.90625 50.734375 67.671875 
Q 56.890625 62.453125 56.890625 51.90625 
Q 56.890625 45.015625 53.6875 40.46875 
Q 50.484375 35.9375 44.390625 34.1875 
z
M 19.671875 64.796875 
L 19.671875 38.921875 
L 32.078125 38.921875 
Q 39.203125 38.921875 42.84375 42.21875 
Q 46.484375 45.515625 46.484375 51.90625 
Q 46.484375 58.296875 42.84375 61.546875 
Q 39.203125 64.796875 32.078125 64.796875 
z
" id="DejaVuSans-82"/>
       <path d="M 45.40625 46.390625 
L 45.40625 75.984375 
L 54.390625 75.984375 
L 54.390625 0 
L 45.40625 0 
L 45.40625 8.203125 
Q 42.578125 3.328125 38.25 0.953125 
Q 33.9375 -1.421875 27.875 -1.421875 
Q 17.96875 -1.421875 11.734375 6.484375 
Q 5.515625 14.40625 5.515625 27.296875 
Q 5.515625 40.1875 11.734375 48.09375 
Q 17.96875 56 27.875 56 
Q 33.9375 56 38.25 53.625 
Q 42.578125 51.265625 45.40625 46.390625 
z
M 14.796875 27.296875 
Q 14.796875 17.390625 18.875 11.75 
Q 22.953125 6.109375 30.078125 6.109375 
Q 37.203125 6.109375 41.296875 11.75 
Q 45.40625 17.390625 45.40625 27.296875 
Q 45.40625 37.203125 41.296875 42.84375 
Q 37.203125 48.484375 30.078125 48.484375 
Q 22.953125 48.484375 18.875 42.84375 
Q 14.796875 37.203125 14.796875 27.296875 
z
" id="DejaVuSans-100"/>
       <path d="M 9.8125 72.90625 
L 51.703125 72.90625 
L 51.703125 64.59375 
L 19.671875 64.59375 
L 19.671875 43.109375 
L 48.578125 43.109375 
L 48.578125 34.8125 
L 19.671875 34.8125 
L 19.671875 0 
L 9.8125 0 
z
" id="DejaVuSans-70"/>
      </defs>
      <use xlink:href="#DejaVuSans-82"/>
      <use x="67.232422" xlink:href="#DejaVuSans-97"/>
      <use x="128.511719" xlink:href="#DejaVuSans-110"/>
      <use x="191.890625" xlink:href="#DejaVuSans-100"/>
      <use x="255.367188" xlink:href="#DejaVuSans-111"/>
      <use x="316.548828" xlink:href="#DejaVuSans-109"/>
      <use x="413.960938" xlink:href="#DejaVuSans-32"/>
      <use x="445.748047" xlink:href="#DejaVuSans-70"/>
      <use x="499.642578" xlink:href="#DejaVuSans-111"/>
      <use x="560.824219" xlink:href="#DejaVuSans-114"/>
      <use x="599.6875" xlink:href="#DejaVuSans-101"/>
      <use x="661.210938" xlink:href="#DejaVuSans-115"/>
      <use x="713.310547" xlink:href="#DejaVuSans-116"/>
     </g>
    </g>
    <g id="line2d_20">
     <path d="M 302.468437 69.248563 
L 322.468437 69.248563 
" style="fill:none;stroke:#ff7f0e;stroke-linecap:square;stroke-width:1.5;"/>
    </g>
    <g id="line2d_21"/>
    <g id="text_18">
     <!-- AdaBoost -->
     <g transform="translate(330.468437 72.748563)scale(0.1 -0.1)">
      <defs>
       <path d="M 19.671875 34.8125 
L 19.671875 8.109375 
L 35.5 8.109375 
Q 43.453125 8.109375 47.28125 11.40625 
Q 51.125 14.703125 51.125 21.484375 
Q 51.125 28.328125 47.28125 31.5625 
Q 43.453125 34.8125 35.5 34.8125 
z
M 19.671875 64.796875 
L 19.671875 42.828125 
L 34.28125 42.828125 
Q 41.5 42.828125 45.03125 45.53125 
Q 48.578125 48.25 48.578125 53.8125 
Q 48.578125 59.328125 45.03125 62.0625 
Q 41.5 64.796875 34.28125 64.796875 
z
M 9.8125 72.90625 
L 35.015625 72.90625 
Q 46.296875 72.90625 52.390625 68.21875 
Q 58.5 63.53125 58.5 54.890625 
Q 58.5 48.1875 55.375 44.234375 
Q 52.25 40.28125 46.1875 39.3125 
Q 53.46875 37.75 57.5 32.78125 
Q 61.53125 27.828125 61.53125 20.40625 
Q 61.53125 10.640625 54.890625 5.3125 
Q 48.25 0 35.984375 0 
L 9.8125 0 
z
" id="DejaVuSans-66"/>
      </defs>
      <use xlink:href="#DejaVuSans-65"/>
      <use x="66.658203" xlink:href="#DejaVuSans-100"/>
      <use x="130.134766" xlink:href="#DejaVuSans-97"/>
      <use x="191.414062" xlink:href="#DejaVuSans-66"/>
      <use x="260.017578" xlink:href="#DejaVuSans-111"/>
      <use x="321.199219" xlink:href="#DejaVuSans-111"/>
      <use x="382.380859" xlink:href="#DejaVuSans-115"/>
      <use x="434.480469" xlink:href="#DejaVuSans-116"/>
     </g>
    </g>
    <g id="line2d_22">
     <path d="M 302.468437 83.926688 
L 322.468437 83.926688 
" style="fill:none;stroke:#2ca02c;stroke-linecap:square;stroke-width:1.5;"/>
    </g>
    <g id="line2d_23"/>
    <g id="text_19">
     <!-- LightGBM -->
     <g transform="translate(330.468437 87.426688)scale(0.1 -0.1)">
      <defs>
       <path d="M 9.8125 72.90625 
L 19.671875 72.90625 
L 19.671875 8.296875 
L 55.171875 8.296875 
L 55.171875 0 
L 9.8125 0 
z
" id="DejaVuSans-76"/>
       <path d="M 45.40625 27.984375 
Q 45.40625 37.75 41.375 43.109375 
Q 37.359375 48.484375 30.078125 48.484375 
Q 22.859375 48.484375 18.828125 43.109375 
Q 14.796875 37.75 14.796875 27.984375 
Q 14.796875 18.265625 18.828125 12.890625 
Q 22.859375 7.515625 30.078125 7.515625 
Q 37.359375 7.515625 41.375 12.890625 
Q 45.40625 18.265625 45.40625 27.984375 
z
M 54.390625 6.78125 
Q 54.390625 -7.171875 48.1875 -13.984375 
Q 42 -20.796875 29.203125 -20.796875 
Q 24.46875 -20.796875 20.265625 -20.09375 
Q 16.0625 -19.390625 12.109375 -17.921875 
L 12.109375 -9.1875 
Q 16.0625 -11.328125 19.921875 -12.34375 
Q 23.78125 -13.375 27.78125 -13.375 
Q 36.625 -13.375 41.015625 -8.765625 
Q 45.40625 -4.15625 45.40625 5.171875 
L 45.40625 9.625 
Q 42.625 4.78125 38.28125 2.390625 
Q 33.9375 0 27.875 0 
Q 17.828125 0 11.671875 7.65625 
Q 5.515625 15.328125 5.515625 27.984375 
Q 5.515625 40.671875 11.671875 48.328125 
Q 17.828125 56 27.875 56 
Q 33.9375 56 38.28125 53.609375 
Q 42.625 51.21875 45.40625 46.390625 
L 45.40625 54.6875 
L 54.390625 54.6875 
z
" id="DejaVuSans-103"/>
       <path d="M 54.890625 33.015625 
L 54.890625 0 
L 45.90625 0 
L 45.90625 32.71875 
Q 45.90625 40.484375 42.875 44.328125 
Q 39.84375 48.1875 33.796875 48.1875 
Q 26.515625 48.1875 22.3125 43.546875 
Q 18.109375 38.921875 18.109375 30.90625 
L 18.109375 0 
L 9.078125 0 
L 9.078125 75.984375 
L 18.109375 75.984375 
L 18.109375 46.1875 
Q 21.34375 51.125 25.703125 53.5625 
Q 30.078125 56 35.796875 56 
Q 45.21875 56 50.046875 50.171875 
Q 54.890625 44.34375 54.890625 33.015625 
z
" id="DejaVuSans-104"/>
       <path d="M 59.515625 10.40625 
L 59.515625 29.984375 
L 43.40625 29.984375 
L 43.40625 38.09375 
L 69.28125 38.09375 
L 69.28125 6.78125 
Q 63.578125 2.734375 56.6875 0.65625 
Q 49.8125 -1.421875 42 -1.421875 
Q 24.90625 -1.421875 15.25 8.5625 
Q 5.609375 18.5625 5.609375 36.375 
Q 5.609375 54.25 15.25 64.234375 
Q 24.90625 74.21875 42 74.21875 
Q 49.125 74.21875 55.546875 72.453125 
Q 61.96875 70.703125 67.390625 67.28125 
L 67.390625 56.78125 
Q 61.921875 61.421875 55.765625 63.765625 
Q 49.609375 66.109375 42.828125 66.109375 
Q 29.4375 66.109375 22.71875 58.640625 
Q 16.015625 51.171875 16.015625 36.375 
Q 16.015625 21.625 22.71875 14.15625 
Q 29.4375 6.6875 42.828125 6.6875 
Q 48.046875 6.6875 52.140625 7.59375 
Q 56.25 8.5 59.515625 10.40625 
z
" id="DejaVuSans-71"/>
       <path d="M 9.8125 72.90625 
L 24.515625 72.90625 
L 43.109375 23.296875 
L 61.8125 72.90625 
L 76.515625 72.90625 
L 76.515625 0 
L 66.890625 0 
L 66.890625 64.015625 
L 48.09375 14.015625 
L 38.1875 14.015625 
L 19.390625 64.015625 
L 19.390625 0 
L 9.8125 0 
z
" id="DejaVuSans-77"/>
      </defs>
      <use xlink:href="#DejaVuSans-76"/>
      <use x="55.712891" xlink:href="#DejaVuSans-105"/>
      <use x="83.496094" xlink:href="#DejaVuSans-103"/>
      <use x="146.972656" xlink:href="#DejaVuSans-104"/>
      <use x="210.351562" xlink:href="#DejaVuSans-116"/>
      <use x="249.560547" xlink:href="#DejaVuSans-71"/>
      <use x="327.050781" xlink:href="#DejaVuSans-66"/>
      <use x="395.654297" xlink:href="#DejaVuSans-77"/>
     </g>
    </g>
    <g id="line2d_24">
     <path d="M 302.468437 98.604813 
L 322.468437 98.604813 
" style="fill:none;stroke:#d62728;stroke-linecap:square;stroke-width:1.5;"/>
    </g>
    <g id="line2d_25"/>
    <g id="text_20">
     <!-- XGBoost -->
     <g transform="translate(330.468437 102.104813)scale(0.1 -0.1)">
      <defs>
       <path d="M 6.296875 72.90625 
L 16.890625 72.90625 
L 35.015625 45.796875 
L 53.21875 72.90625 
L 63.8125 72.90625 
L 40.375 37.890625 
L 65.375 0 
L 54.78125 0 
L 34.28125 31 
L 13.625 0 
L 2.984375 0 
L 29 38.921875 
z
" id="DejaVuSans-88"/>
      </defs>
      <use xlink:href="#DejaVuSans-88"/>
      <use x="68.505859" xlink:href="#DejaVuSans-71"/>
      <use x="145.996094" xlink:href="#DejaVuSans-66"/>
      <use x="214.599609" xlink:href="#DejaVuSans-111"/>
      <use x="275.78125" xlink:href="#DejaVuSans-111"/>
      <use x="336.962891" xlink:href="#DejaVuSans-115"/>
      <use x="389.0625" xlink:href="#DejaVuSans-116"/>
     </g>
    </g>
   </g>
  </g>
 </g>
 <defs>
  <clipPath id="p5cff07b509">
   <rect height="266.112" width="357.12" x="57.6" y="41.472"/>
  </clipPath>
 </defs>
</svg>
