<?xml version="1.0" encoding="utf-8" standalone="no"?>
<!DOCTYPE svg PUBLIC "-//W3C//DTD SVG 1.1//EN"
  "http://www.w3.org/Graphics/SVG/1.1/DTD/svg11.dtd">
<!-- Created with matplotlib (https://matplotlib.org/) -->
<svg height="345.6pt" version="1.1" viewBox="0 0 460.8 345.6" width="460.8pt" xmlns="http://www.w3.org/2000/svg" xmlns:xlink="http://www.w3.org/1999/xlink">
 <metadata>
  <rdf:RDF xmlns:cc="http://creativecommons.org/ns#" xmlns:dc="http://purl.org/dc/elements/1.1/" xmlns:rdf="http://www.w3.org/1999/02/22-rdf-syntax-ns#">
   <cc:Work>
    <dc:type rdf:resource="http://purl.org/dc/dcmitype/StillImage"/>
    <dc:date>2023-09-19T15:49:31.980078</dc:date>
    <dc:format>image/svg+xml</dc:format>
    <dc:creator>
     <cc:Agent>
      <dc:title>Matplotlib v3.3.4, https://matplotlib.org/</dc:title>
     </cc:Agent>
    </dc:creator>
   </cc:Work>
  </rdf:RDF>
 </metadata>
 <defs>
  <style type="text/css">*{stroke-linecap:butt;stroke-linejoin:round;}</style>
 </defs>
 <g id="figure_1">
  <g id="patch_1">
   <path d="M 0 345.6 
L 460.8 345.6 
L 460.8 0 
L 0 0 
z
" style="fill:#ffffff;"/>
  </g>
  <g id="axes_1">
   <g id="patch_2">
    <path d="M 57.6 307.584 
L 414.72 307.584 
L 414.72 41.472 
L 57.6 41.472 
z
" style="fill:#ffffff;"/>
   </g>
   <g id="PolyCollection_1">
    <path clip-path="url(#pc26ef20bf0)" d="M 73.832727 206.689042 
L 73.832727 206.689042 
L 77.112066 214.688583 
L 80.391405 224.015032 
L 83.670744 230.8862 
L 86.950083 232.11645 
L 90.229421 237.456641 
L 93.50876 241.836982 
L 96.788099 244.653249 
L 100.067438 245.340496 
L 103.346777 244.657866 
L 106.626116 249.671296 
L 109.905455 244.977841 
L 113.184793 255.200861 
L 116.464132 251.752625 
L 119.743471 243.607659 
L 123.02281 250.077955 
L 126.302149 255.112315 
L 129.581488 255.086461 
L 132.860826 255.005357 
L 136.140165 254.081964 
L 139.419504 251.954096 
L 142.698843 260.217412 
L 145.978182 255.096679 
L 149.257521 257.902011 
L 152.53686 266.900098 
L 155.816198 267.717226 
L 159.095537 259.729441 
L 162.374876 263.598042 
L 165.654215 263.430018 
L 168.933554 261.278743 
L 172.212893 254.522732 
L 175.492231 268.385971 
L 178.77157 263.06473 
L 182.050909 268.816781 
L 185.330248 264.758072 
L 188.609587 270.922959 
L 191.888926 264.763053 
L 195.168264 264.74302 
L 198.447603 265.900354 
L 201.726942 264.255437 
L 205.006281 263.447454 
L 208.28562 267.114646 
L 211.564959 267.777899 
L 214.844298 276.3769 
L 218.123636 273.296871 
L 221.402975 265.236084 
L 224.682314 266.440322 
L 227.961653 272.086062 
L 231.240992 278.236394 
L 234.520331 275.632265 
L 237.799669 270.521741 
L 241.079008 270.225496 
L 244.358347 272.17968 
L 247.637686 270.59006 
L 250.917025 273.372482 
L 254.196364 275.787992 
L 257.475702 278.035611 
L 260.755041 280.803367 
L 264.03438 271.046824 
L 267.313719 270.184302 
L 270.593058 278.274642 
L 273.872397 277.084082 
L 277.151736 274.837597 
L 280.431074 272.862955 
L 283.710413 285.219789 
L 286.989752 273.03923 
L 290.269091 280.184599 
L 293.54843 281.328285 
L 296.827769 277.832951 
L 300.107107 282.643976 
L 303.386446 284.960548 
L 306.665785 285.391352 
L 309.945124 281.688761 
L 313.224463 279.918019 
L 316.503802 284.932984 
L 319.78314 284.529401 
L 323.062479 281.328285 
L 326.341818 286.84382 
L 329.621157 280.991323 
L 332.900496 282.895562 
L 336.179835 284.536861 
L 339.459174 289.975545 
L 342.738512 281.566158 
L 346.017851 288.801977 
L 349.29719 280.409662 
L 352.576529 283.773499 
L 355.855868 287.600198 
L 359.135207 282.2661 
L 362.414545 286.531838 
L 365.693884 284.092128 
L 368.973223 284.795575 
L 372.252562 285.330651 
L 375.531901 285.808857 
L 378.81124 283.499939 
L 382.090579 281.929012 
L 385.369917 282.500147 
L 388.649256 279.929652 
L 391.928595 279.373129 
L 395.207934 271.77782 
L 398.487273 271.77782 
L 398.487273 271.77782 
L 398.487273 271.77782 
L 395.207934 271.77782 
L 391.928595 264.833398 
L 388.649256 259.720661 
L 385.369917 251.943063 
L 382.090579 256.419525 
L 378.81124 248.990608 
L 375.531901 242.776363 
L 372.252562 245.207233 
L 368.973223 239.233431 
L 365.693884 243.842205 
L 362.414545 244.656934 
L 359.135207 245.017345 
L 355.855868 235.777921 
L 352.576529 225.935976 
L 349.29719 227.998038 
L 346.017851 230.019927 
L 342.738512 230.746868 
L 339.459174 227.544583 
L 336.179835 222.569063 
L 332.900496 214.447045 
L 329.621157 222.209274 
L 326.341818 220.262104 
L 323.062479 206.901894 
L 319.78314 221.925635 
L 316.503802 216.965838 
L 313.224463 202.45417 
L 309.945124 209.795856 
L 306.665785 200.886163 
L 303.386446 202.618743 
L 300.107107 202.982651 
L 296.827769 207.793676 
L 293.54843 206.901894 
L 290.269091 206.743804 
L 286.989752 194.362539 
L 283.710413 200.406839 
L 280.431074 199.745917 
L 277.151736 197.771275 
L 273.872397 200.081005 
L 270.593058 208.002873 
L 267.313719 197.868356 
L 264.03438 191.798731 
L 260.755041 202.870597 
L 257.475702 193.922373 
L 254.196364 194.868217 
L 250.917025 192.076625 
L 247.637686 196.160822 
L 244.358347 195.872977 
L 241.079008 203.685152 
L 237.799669 191.672926 
L 234.520331 192.420393 
L 231.240992 198.277805 
L 227.961653 192.061269 
L 224.682314 188.59458 
L 221.402975 194.355033 
L 218.123636 198.010226 
L 214.844298 192.326645 
L 211.564959 187.257004 
L 208.28562 182.062266 
L 205.006281 195.492775 
L 201.726942 181.667037 
L 198.447603 189.785436 
L 195.168264 188.339219 
L 191.888926 191.573624 
L 188.609587 198.431474 
L 185.330248 188.975054 
L 182.050909 186.218122 
L 178.77157 184.159519 
L 175.492231 189.90337 
L 172.212893 173.825771 
L 168.933554 183.992843 
L 165.654215 185.096006 
L 162.374876 183.626207 
L 159.095537 183.589481 
L 155.816198 186.015901 
L 152.53686 186.182141 
L 149.257521 190.624014 
L 145.978182 177.808038 
L 142.698843 182.450622 
L 139.419504 180.950622 
L 136.140165 179.473642 
L 132.860826 191.568004 
L 129.581488 181.723583 
L 126.302149 184.952168 
L 123.02281 178.270548 
L 119.743471 176.279304 
L 116.464132 177.897654 
L 113.184793 178.354745 
L 109.905455 187.275989 
L 106.626116 178.026319 
L 103.346777 181.087086 
L 100.067438 183.008008 
L 96.788099 183.695254 
L 93.50876 188.464185 
L 90.229421 183.081209 
L 86.950083 182.56341 
L 83.670744 184.444548 
L 80.391405 181.552399 
L 77.112066 195.435063 
L 73.832727 206.689042 
z
" style="fill:#1f77b4;fill-opacity:0.2;"/>
   </g>
   <g id="PolyCollection_2">
    <path clip-path="url(#pc26ef20bf0)" d="M 73.832727 141.600265 
L 73.832727 141.600265 
L 77.112066 152.014469 
L 80.391405 153.506054 
L 83.670744 156.184982 
L 86.950083 163.000842 
L 90.229421 164.649745 
L 93.50876 162.996642 
L 96.788099 162.348484 
L 100.067438 169.592897 
L 103.346777 173.282803 
L 106.626116 172.004684 
L 109.905455 174.382785 
L 113.184793 173.808502 
L 116.464132 177.559378 
L 119.743471 169.981049 
L 123.02281 178.738685 
L 126.302149 181.501989 
L 129.581488 188.917827 
L 132.860826 187.162409 
L 136.140165 185.546355 
L 139.419504 179.696649 
L 142.698843 187.328423 
L 145.978182 193.671287 
L 149.257521 195.244225 
L 152.53686 194.964104 
L 155.816198 197.613385 
L 159.095537 193.438031 
L 162.374876 187.54533 
L 165.654215 196.288743 
L 168.933554 204.642129 
L 172.212893 191.107253 
L 175.492231 204.618602 
L 178.77157 199.602375 
L 182.050909 205.682341 
L 185.330248 204.272136 
L 188.609587 207.261117 
L 191.888926 215.860819 
L 195.168264 205.731059 
L 198.447603 217.422708 
L 201.726942 207.980955 
L 205.006281 211.009458 
L 208.28562 207.174545 
L 211.564959 208.128013 
L 214.844298 211.118134 
L 218.123636 205.317113 
L 221.402975 208.004045 
L 224.682314 204.040576 
L 227.961653 215.117809 
L 231.240992 209.062385 
L 234.520331 205.974963 
L 237.799669 210.12746 
L 241.079008 220.082203 
L 244.358347 210.960148 
L 247.637686 223.62383 
L 250.917025 212.15576 
L 254.196364 210.48258 
L 257.475702 219.092972 
L 260.755041 228.406993 
L 264.03438 225.212921 
L 267.313719 215.81051 
L 270.593058 211.047363 
L 273.872397 221.811392 
L 277.151736 216.057933 
L 280.431074 221.70411 
L 283.710413 214.03411 
L 286.989752 217.380345 
L 290.269091 225.998229 
L 293.54843 227.51131 
L 296.827769 223.260258 
L 300.107107 221.13359 
L 303.386446 228.329753 
L 306.665785 235.305584 
L 309.945124 229.143735 
L 313.224463 236.074427 
L 316.503802 227.311821 
L 319.78314 240.169293 
L 323.062479 231.574948 
L 326.341818 247.624663 
L 329.621157 224.946245 
L 332.900496 232.57642 
L 336.179835 234.116099 
L 339.459174 236.042549 
L 342.738512 247.00908 
L 346.017851 239.993954 
L 349.29719 228.738809 
L 352.576529 255.062412 
L 355.855868 248.856556 
L 359.135207 251.265978 
L 362.414545 245.161565 
L 365.693884 244.482781 
L 368.973223 257.545423 
L 372.252562 261.435098 
L 375.531901 267.16852 
L 378.81124 262.491045 
L 382.090579 274.551577 
L 385.369917 281.172089 
L 388.649256 280.778954 
L 391.928595 285.848344 
L 395.207934 290.492976 
L 398.487273 294.363155 
L 398.487273 213.393657 
L 398.487273 213.393657 
L 395.207934 203.595192 
L 391.928595 198.476508 
L 388.649256 176.208611 
L 385.369917 171.91015 
L 382.090579 164.862019 
L 378.81124 150.88704 
L 375.531901 147.51134 
L 372.252562 142.830557 
L 368.973223 157.785325 
L 365.693884 144.161568 
L 362.414545 145.435447 
L 359.135207 143.887248 
L 355.855868 137.184242 
L 352.576529 128.374835 
L 349.29719 123.455825 
L 346.017851 127.821986 
L 342.738512 126.013962 
L 339.459174 122.660962 
L 336.179835 127.841851 
L 332.900496 125.476204 
L 329.621157 113.579746 
L 326.341818 133.209033 
L 323.062479 118.667023 
L 319.78314 122.439545 
L 316.503802 125.5337 
L 313.224463 116.120207 
L 309.945124 115.891133 
L 306.665785 131.859468 
L 303.386446 127.11932 
L 300.107107 119.345063 
L 296.827769 123.076386 
L 293.54843 124.032436 
L 290.269091 128.799956 
L 286.989752 110.080553 
L 283.710413 116.681227 
L 280.431074 122.028983 
L 277.151736 122.468057 
L 273.872397 131.034129 
L 270.593058 132.034842 
L 267.313719 122.064592 
L 264.03438 125.029049 
L 260.755041 119.882314 
L 257.475702 116.178579 
L 254.196364 121.534532 
L 250.917025 120.51224 
L 247.637686 133.127018 
L 244.358347 129.518506 
L 241.079008 120.396451 
L 237.799669 116.68255 
L 234.520331 118.882384 
L 231.240992 125.558278 
L 227.961653 118.201079 
L 224.682314 128.627425 
L 221.402975 127.918394 
L 218.123636 120.84201 
L 214.844298 119.597203 
L 211.564959 119.983773 
L 208.28562 117.682802 
L 205.006281 122.30943 
L 201.726942 122.083494 
L 198.447603 128.913936 
L 195.168264 119.126288 
L 191.888926 126.570498 
L 188.609587 126.708659 
L 185.330248 121.236099 
L 182.050909 118.524118 
L 178.77157 115.491655 
L 175.492231 127.39851 
L 172.212893 121.383226 
L 168.933554 126.073207 
L 165.654215 120.107063 
L 162.374876 122.992486 
L 159.095537 125.561326 
L 155.816198 122.687748 
L 152.53686 124.035253 
L 149.257521 123.104244 
L 145.978182 122.073631 
L 142.698843 131.020046 
L 139.419504 119.776075 
L 136.140165 119.133471 
L 132.860826 122.073631 
L 129.581488 126.827091 
L 126.302149 124.479613 
L 123.02281 122.686702 
L 119.743471 121.030134 
L 116.464132 123.215121 
L 113.184793 124.362446 
L 109.905455 119.882836 
L 106.626116 123.562713 
L 103.346777 122.284594 
L 100.067438 122.069174 
L 96.788099 122.804708 
L 93.50876 124.760101 
L 90.229421 125.71055 
L 86.950083 125.40679 
L 83.670744 126.36466 
L 80.391405 130.996251 
L 77.112066 133.789611 
L 73.832727 141.600265 
z
" style="fill:#ff7f0e;fill-opacity:0.2;"/>
   </g>
   <g id="PolyCollection_3">
    <path clip-path="url(#pc26ef20bf0)" d="M 73.832727 206.689042 
L 73.832727 206.689042 
L 77.112066 215.427088 
L 80.391405 216.632059 
L 83.670744 221.893912 
L 86.950083 217.887068 
L 90.229421 219.203333 
L 93.50876 220.07343 
L 96.788099 222.818978 
L 100.067438 216.682524 
L 103.346777 219.379155 
L 106.626116 216.654973 
L 109.905455 226.93017 
L 113.184793 218.456355 
L 116.464132 219.426615 
L 119.743471 219.473542 
L 123.02281 221.650161 
L 126.302149 221.829077 
L 129.581488 217.643364 
L 132.860826 223.267088 
L 136.140165 225.08783 
L 139.419504 224.105763 
L 142.698843 224.055242 
L 145.978182 230.786287 
L 149.257521 223.263926 
L 152.53686 224.354996 
L 155.816198 224.872856 
L 159.095537 223.025291 
L 162.374876 235.693358 
L 165.654215 221.311149 
L 168.933554 227.765811 
L 172.212893 231.761478 
L 175.492231 213.312584 
L 178.77157 232.204618 
L 182.050909 226.451714 
L 185.330248 225.077564 
L 188.609587 221.273669 
L 191.888926 225.907915 
L 195.168264 218.114868 
L 198.447603 224.010859 
L 201.726942 225.414685 
L 205.006281 218.338773 
L 208.28562 221.955417 
L 211.564959 217.84324 
L 214.844298 224.798888 
L 218.123636 224.061971 
L 221.402975 219.778782 
L 224.682314 218.210293 
L 227.961653 222.181487 
L 231.240992 220.627338 
L 234.520331 211.349004 
L 237.799669 205.689842 
L 241.079008 220.425437 
L 244.358347 218.175265 
L 247.637686 215.552988 
L 250.917025 216.224661 
L 254.196364 218.417634 
L 257.475702 216.299097 
L 260.755041 213.97784 
L 264.03438 211.596328 
L 267.313719 207.228141 
L 270.593058 203.318225 
L 273.872397 221.663529 
L 277.151736 210.104745 
L 280.431074 208.571626 
L 283.710413 215.444972 
L 286.989752 215.810986 
L 290.269091 206.801422 
L 293.54843 216.855477 
L 296.827769 207.28566 
L 300.107107 202.523078 
L 303.386446 205.611268 
L 306.665785 207.051804 
L 309.945124 200.699975 
L 313.224463 201.39706 
L 316.503802 195.181253 
L 319.78314 194.848658 
L 323.062479 207.90795 
L 326.341818 194.973062 
L 329.621157 193.612257 
L 332.900496 196.723563 
L 336.179835 197.929318 
L 339.459174 180.944978 
L 342.738512 191.301438 
L 346.017851 176.919195 
L 349.29719 172.274961 
L 352.576529 180.550339 
L 355.855868 180.386241 
L 359.135207 168.282381 
L 362.414545 179.002377 
L 365.693884 157.932685 
L 368.973223 159.614337 
L 372.252562 145.571684 
L 375.531901 151.245716 
L 378.81124 145.126667 
L 382.090579 135.72246 
L 385.369917 139.810016 
L 388.649256 134.679859 
L 391.928595 120.076269 
L 395.207934 102.648765 
L 398.487273 87.202196 
L 398.487273 67.773441 
L 398.487273 67.773441 
L 395.207934 58.83575 
L 391.928595 53.775114 
L 388.649256 54.79283 
L 385.369917 53.568 
L 382.090579 60.909995 
L 378.81124 56.062003 
L 375.531901 59.70627 
L 372.252562 65.380302 
L 368.973223 64.355405 
L 365.693884 69.942383 
L 362.414545 68.399325 
L 359.135207 69.356004 
L 355.855868 72.87345 
L 352.576529 75.963792 
L 349.29719 77.730291 
L 346.017851 77.642272 
L 342.738512 88.644653 
L 339.459174 78.172704 
L 336.179835 77.460558 
L 332.900496 80.618976 
L 329.621157 82.428507 
L 326.341818 92.132794 
L 323.062479 98.073651 
L 319.78314 87.700984 
L 316.503802 93.226378 
L 313.224463 94.170337 
L 309.945124 87.707657 
L 306.665785 96.326246 
L 303.386446 91.908793 
L 300.107107 112.570952 
L 296.827769 105.855707 
L 293.54843 114.510748 
L 290.269091 101.132843 
L 286.989752 104.490146 
L 283.710413 116.572141 
L 280.431074 105.871517 
L 277.151736 119.308816 
L 273.872397 117.513349 
L 270.593058 112.426693 
L 267.313719 118.280093 
L 264.03438 116.515458 
L 260.755041 125.199038 
L 257.475702 118.321567 
L 254.196364 134.427887 
L 250.917025 113.1889 
L 247.637686 117.7659 
L 244.358347 126.208715 
L 241.079008 126.562094 
L 237.799669 126.978158 
L 234.520331 119.366332 
L 231.240992 127.661969 
L 227.961653 138.474687 
L 224.682314 131.38079 
L 221.402975 134.368515 
L 218.123636 129.434438 
L 214.844298 136.508174 
L 211.564959 129.795179 
L 208.28562 132.19188 
L 205.006281 141.666514 
L 201.726942 126.779949 
L 198.447603 144.455969 
L 195.168264 149.050185 
L 191.888926 136.050035 
L 188.609587 128.317414 
L 185.330248 140.785713 
L 182.050909 140.062451 
L 178.77157 144.723751 
L 175.492231 146.692702 
L 172.212893 143.865115 
L 168.933554 155.020548 
L 165.654215 142.599465 
L 162.374876 142.536786 
L 159.095537 136.979995 
L 155.816198 147.499299 
L 152.53686 155.176924 
L 149.257521 162.776872 
L 145.978182 157.207174 
L 142.698843 160.032893 
L 139.419504 151.520831 
L 136.140165 151.840539 
L 132.860826 153.010393 
L 129.581488 150.823464 
L 126.302149 164.211721 
L 123.02281 153.325544 
L 119.743471 151.596837 
L 116.464132 156.199978 
L 113.184793 168.886219 
L 109.905455 166.921282 
L 106.626116 164.178723 
L 103.346777 171.217857 
L 100.067438 166.754722 
L 96.788099 172.334249 
L 93.50876 171.17447 
L 90.229421 175.949894 
L 86.950083 177.917047 
L 83.670744 188.229734 
L 80.391405 186.982709 
L 77.112066 195.998333 
L 73.832727 206.689042 
z
" style="fill:#2ca02c;fill-opacity:0.2;"/>
   </g>
   <g id="PolyCollection_4">
    <path clip-path="url(#pc26ef20bf0)" d="M 73.832727 206.689042 
L 73.832727 206.689042 
L 77.112066 218.121665 
L 80.391405 226.071128 
L 83.670744 232.136136 
L 86.950083 237.101502 
L 90.229421 237.264213 
L 93.50876 245.759894 
L 96.788099 251.705741 
L 100.067438 254.643775 
L 103.346777 250.235157 
L 106.626116 254.695509 
L 109.905455 253.365656 
L 113.184793 255.743757 
L 116.464132 262.829476 
L 119.743471 261.975138 
L 123.02281 267.832242 
L 126.302149 265.897115 
L 129.581488 269.617386 
L 132.860826 270.793269 
L 136.140165 269.43884 
L 139.419504 269.060856 
L 142.698843 278.844952 
L 145.978182 274.168367 
L 149.257521 282.914431 
L 152.53686 279.986718 
L 155.816198 268.500666 
L 159.095537 284.248794 
L 162.374876 281.767168 
L 165.654215 285.974322 
L 168.933554 284.529401 
L 172.212893 280.677879 
L 175.492231 295.488 
L 178.77157 287.160461 
L 182.050909 293.732309 
L 185.330248 284.865954 
L 188.609587 292.538354 
L 191.888926 289.441063 
L 195.168264 288.253622 
L 198.447603 294.908981 
L 201.726942 289.136605 
L 205.006281 286.521922 
L 208.28562 289.738175 
L 211.564959 292.15291 
L 214.844298 295.230369 
L 218.123636 289.946511 
L 221.402975 288.803461 
L 224.682314 285.470034 
L 227.961653 284.507082 
L 231.240992 290.695974 
L 234.520331 291.921313 
L 237.799669 289.453557 
L 241.079008 288.818921 
L 244.358347 286.329983 
L 247.637686 286.049071 
L 250.917025 286.856434 
L 254.196364 287.683841 
L 257.475702 287.520812 
L 260.755041 288.975044 
L 264.03438 280.515866 
L 267.313719 284.903683 
L 270.593058 280.820992 
L 273.872397 282.733997 
L 277.151736 280.28326 
L 280.431074 282.892109 
L 283.710413 283.210442 
L 286.989752 279.929652 
L 290.269091 279.373129 
L 293.54843 278.286698 
L 296.827769 280.68482 
L 300.107107 277.730715 
L 303.386446 280.308834 
L 306.665785 278.286698 
L 309.945124 275.341389 
L 313.224463 277.730715 
L 316.503802 278.305808 
L 319.78314 277.730715 
L 323.062479 275.341389 
L 326.341818 277.730715 
L 329.621157 271.77782 
L 332.900496 271.77782 
L 336.179835 271.77782 
L 339.459174 275.341389 
L 342.738512 271.77782 
L 346.017851 271.77782 
L 349.29719 271.77782 
L 352.576529 271.77782 
L 355.855868 275.341389 
L 359.135207 271.77782 
L 362.414545 271.77782 
L 365.693884 271.77782 
L 368.973223 271.77782 
L 372.252562 271.77782 
L 375.531901 271.77782 
L 378.81124 271.77782 
L 382.090579 271.77782 
L 385.369917 271.77782 
L 388.649256 271.77782 
L 391.928595 271.77782 
L 395.207934 271.77782 
L 398.487273 271.77782 
L 398.487273 271.77782 
L 398.487273 271.77782 
L 395.207934 271.77782 
L 391.928595 271.77782 
L 388.649256 271.77782 
L 385.369917 271.77782 
L 382.090579 271.77782 
L 378.81124 271.77782 
L 375.531901 271.77782 
L 372.252562 271.77782 
L 368.973223 271.77782 
L 365.693884 271.77782 
L 362.414545 271.77782 
L 359.135207 271.77782 
L 355.855868 268.865138 
L 352.576529 271.77782 
L 349.29719 271.77782 
L 346.017851 271.77782 
L 342.738512 271.77782 
L 339.459174 268.865138 
L 336.179835 271.77782 
L 332.900496 271.77782 
L 329.621157 271.77782 
L 326.341818 266.475813 
L 323.062479 268.865138 
L 319.78314 266.475813 
L 316.503802 267.202495 
L 313.224463 266.475813 
L 309.945124 268.865138 
L 306.665785 265.268942 
L 303.386446 261.94503 
L 300.107107 266.475813 
L 296.827769 260.267268 
L 293.54843 265.268942 
L 290.269091 264.833398 
L 286.989752 259.720661 
L 283.710413 265.5523 
L 280.431074 261.314418 
L 277.151736 256.112614 
L 273.872397 255.614541 
L 270.593058 259.480209 
L 267.313719 253.444855 
L 264.03438 261.087111 
L 260.755041 253.929708 
L 257.475702 245.620623 
L 254.196364 253.919135 
L 250.917025 245.634113 
L 247.637686 250.997691 
L 244.358347 248.764115 
L 241.079008 245.62429 
L 237.799669 245.640541 
L 234.520331 248.379888 
L 231.240992 245.6999 
L 227.961653 241.474588 
L 224.682314 240.511636 
L 221.402975 239.130872 
L 218.123636 233.431608 
L 214.844298 243.769056 
L 211.564959 235.130535 
L 208.28562 242.752372 
L 205.006281 236.205308 
L 201.726942 236.194176 
L 198.447603 230.421801 
L 195.168264 231.870058 
L 191.888926 230.031729 
L 188.609587 230.188877 
L 185.330248 221.589083 
L 182.050909 226.391371 
L 178.77157 219.945464 
L 175.492231 230.49367 
L 172.212893 214.061177 
L 168.933554 221.925635 
L 165.654215 217.226275 
L 162.374876 216.877215 
L 159.095537 216.99914 
L 155.816198 212.569747 
L 152.53686 217.355889 
L 149.257521 217.682615 
L 145.978182 214.712699 
L 142.698843 217.19588 
L 139.419504 209.406006 
L 136.140165 205.122696 
L 132.860826 206.371818 
L 129.581488 205.595037 
L 126.302149 209.966196 
L 123.02281 209.983732 
L 119.743471 202.823081 
L 116.464132 204.572293 
L 113.184793 201.243808 
L 109.905455 204.923685 
L 106.626116 201.641168 
L 103.346777 203.49797 
L 100.067438 203.645566 
L 96.788099 201.376498 
L 93.50876 197.559028 
L 90.229421 198.894944 
L 86.950083 197.104991 
L 83.670744 198.165031 
L 80.391405 198.372048 
L 77.112066 200.463522 
L 73.832727 206.689042 
z
" style="fill:#d62728;fill-opacity:0.2;"/>
   </g>
   <g id="matplotlib.axis_1">
    <g id="xtick_1">
     <g id="line2d_1">
      <defs>
       <path d="M 0 0 
L 0 3.5 
" id="m9a56dde161" style="stroke:#000000;stroke-width:0.8;"/>
      </defs>
      <g>
       <use style="stroke:#000000;stroke-width:0.8;" x="401.766612" xlink:href="#m9a56dde161" y="307.584"/>
      </g>
     </g>
     <g id="text_1">
      <!-- 0 -->
      <g transform="translate(398.585362 322.182437)scale(0.1 -0.1)">
       <defs>
        <path d="M 31.78125 66.40625 
Q 24.171875 66.40625 20.328125 58.90625 
Q 16.5 51.421875 16.5 36.375 
Q 16.5 21.390625 20.328125 13.890625 
Q 24.171875 6.390625 31.78125 6.390625 
Q 39.453125 6.390625 43.28125 13.890625 
Q 47.125 21.390625 47.125 36.375 
Q 47.125 51.421875 43.28125 58.90625 
Q 39.453125 66.40625 31.78125 66.40625 
z
M 31.78125 74.21875 
Q 44.046875 74.21875 50.515625 64.515625 
Q 56.984375 54.828125 56.984375 36.375 
Q 56.984375 17.96875 50.515625 8.265625 
Q 44.046875 -1.421875 31.78125 -1.421875 
Q 19.53125 -1.421875 13.0625 8.265625 
Q 6.59375 17.96875 6.59375 36.375 
Q 6.59375 54.828125 13.0625 64.515625 
Q 19.53125 74.21875 31.78125 74.21875 
z
" id="DejaVuSans-48"/>
       </defs>
       <use xlink:href="#DejaVuSans-48"/>
      </g>
     </g>
    </g>
    <g id="xtick_2">
     <g id="line2d_2">
      <g>
       <use style="stroke:#000000;stroke-width:0.8;" x="336.179835" xlink:href="#m9a56dde161" y="307.584"/>
      </g>
     </g>
     <g id="text_2">
      <!-- 20 -->
      <g transform="translate(329.817335 322.182437)scale(0.1 -0.1)">
       <defs>
        <path d="M 19.1875 8.296875 
L 53.609375 8.296875 
L 53.609375 0 
L 7.328125 0 
L 7.328125 8.296875 
Q 12.9375 14.109375 22.625 23.890625 
Q 32.328125 33.6875 34.8125 36.53125 
Q 39.546875 41.84375 41.421875 45.53125 
Q 43.3125 49.21875 43.3125 52.78125 
Q 43.3125 58.59375 39.234375 62.25 
Q 35.15625 65.921875 28.609375 65.921875 
Q 23.96875 65.921875 18.8125 64.3125 
Q 13.671875 62.703125 7.8125 59.421875 
L 7.8125 69.390625 
Q 13.765625 71.78125 18.9375 73 
Q 24.125 74.21875 28.421875 74.21875 
Q 39.75 74.21875 46.484375 68.546875 
Q 53.21875 62.890625 53.21875 53.421875 
Q 53.21875 48.921875 51.53125 44.890625 
Q 49.859375 40.875 45.40625 35.40625 
Q 44.1875 33.984375 37.640625 27.21875 
Q 31.109375 20.453125 19.1875 8.296875 
z
" id="DejaVuSans-50"/>
       </defs>
       <use xlink:href="#DejaVuSans-50"/>
       <use x="63.623047" xlink:href="#DejaVuSans-48"/>
      </g>
     </g>
    </g>
    <g id="xtick_3">
     <g id="line2d_3">
      <g>
       <use style="stroke:#000000;stroke-width:0.8;" x="270.593058" xlink:href="#m9a56dde161" y="307.584"/>
      </g>
     </g>
     <g id="text_3">
      <!-- 40 -->
      <g transform="translate(264.230558 322.182437)scale(0.1 -0.1)">
       <defs>
        <path d="M 37.796875 64.3125 
L 12.890625 25.390625 
L 37.796875 25.390625 
z
M 35.203125 72.90625 
L 47.609375 72.90625 
L 47.609375 25.390625 
L 58.015625 25.390625 
L 58.015625 17.1875 
L 47.609375 17.1875 
L 47.609375 0 
L 37.796875 0 
L 37.796875 17.1875 
L 4.890625 17.1875 
L 4.890625 26.703125 
z
" id="DejaVuSans-52"/>
       </defs>
       <use xlink:href="#DejaVuSans-52"/>
       <use x="63.623047" xlink:href="#DejaVuSans-48"/>
      </g>
     </g>
    </g>
    <g id="xtick_4">
     <g id="line2d_4">
      <g>
       <use style="stroke:#000000;stroke-width:0.8;" x="205.006281" xlink:href="#m9a56dde161" y="307.584"/>
      </g>
     </g>
     <g id="text_4">
      <!-- 60 -->
      <g transform="translate(198.643781 322.182437)scale(0.1 -0.1)">
       <defs>
        <path d="M 33.015625 40.375 
Q 26.375 40.375 22.484375 35.828125 
Q 18.609375 31.296875 18.609375 23.390625 
Q 18.609375 15.53125 22.484375 10.953125 
Q 26.375 6.390625 33.015625 6.390625 
Q 39.65625 6.390625 43.53125 10.953125 
Q 47.40625 15.53125 47.40625 23.390625 
Q 47.40625 31.296875 43.53125 35.828125 
Q 39.65625 40.375 33.015625 40.375 
z
M 52.59375 71.296875 
L 52.59375 62.3125 
Q 48.875 64.0625 45.09375 64.984375 
Q 41.3125 65.921875 37.59375 65.921875 
Q 27.828125 65.921875 22.671875 59.328125 
Q 17.53125 52.734375 16.796875 39.40625 
Q 19.671875 43.65625 24.015625 45.921875 
Q 28.375 48.1875 33.59375 48.1875 
Q 44.578125 48.1875 50.953125 41.515625 
Q 57.328125 34.859375 57.328125 23.390625 
Q 57.328125 12.15625 50.6875 5.359375 
Q 44.046875 -1.421875 33.015625 -1.421875 
Q 20.359375 -1.421875 13.671875 8.265625 
Q 6.984375 17.96875 6.984375 36.375 
Q 6.984375 53.65625 15.1875 63.9375 
Q 23.390625 74.21875 37.203125 74.21875 
Q 40.921875 74.21875 44.703125 73.484375 
Q 48.484375 72.75 52.59375 71.296875 
z
" id="DejaVuSans-54"/>
       </defs>
       <use xlink:href="#DejaVuSans-54"/>
       <use x="63.623047" xlink:href="#DejaVuSans-48"/>
      </g>
     </g>
    </g>
    <g id="xtick_5">
     <g id="line2d_5">
      <g>
       <use style="stroke:#000000;stroke-width:0.8;" x="139.419504" xlink:href="#m9a56dde161" y="307.584"/>
      </g>
     </g>
     <g id="text_5">
      <!-- 80 -->
      <g transform="translate(133.057004 322.182437)scale(0.1 -0.1)">
       <defs>
        <path d="M 31.78125 34.625 
Q 24.75 34.625 20.71875 30.859375 
Q 16.703125 27.09375 16.703125 20.515625 
Q 16.703125 13.921875 20.71875 10.15625 
Q 24.75 6.390625 31.78125 6.390625 
Q 38.8125 6.390625 42.859375 10.171875 
Q 46.921875 13.96875 46.921875 20.515625 
Q 46.921875 27.09375 42.890625 30.859375 
Q 38.875 34.625 31.78125 34.625 
z
M 21.921875 38.8125 
Q 15.578125 40.375 12.03125 44.71875 
Q 8.5 49.078125 8.5 55.328125 
Q 8.5 64.0625 14.71875 69.140625 
Q 20.953125 74.21875 31.78125 74.21875 
Q 42.671875 74.21875 48.875 69.140625 
Q 55.078125 64.0625 55.078125 55.328125 
Q 55.078125 49.078125 51.53125 44.71875 
Q 48 40.375 41.703125 38.8125 
Q 48.828125 37.15625 52.796875 32.3125 
Q 56.78125 27.484375 56.78125 20.515625 
Q 56.78125 9.90625 50.3125 4.234375 
Q 43.84375 -1.421875 31.78125 -1.421875 
Q 19.734375 -1.421875 13.25 4.234375 
Q 6.78125 9.90625 6.78125 20.515625 
Q 6.78125 27.484375 10.78125 32.3125 
Q 14.796875 37.15625 21.921875 38.8125 
z
M 18.3125 54.390625 
Q 18.3125 48.734375 21.84375 45.5625 
Q 25.390625 42.390625 31.78125 42.390625 
Q 38.140625 42.390625 41.71875 45.5625 
Q 45.3125 48.734375 45.3125 54.390625 
Q 45.3125 60.0625 41.71875 63.234375 
Q 38.140625 66.40625 31.78125 66.40625 
Q 25.390625 66.40625 21.84375 63.234375 
Q 18.3125 60.0625 18.3125 54.390625 
z
" id="DejaVuSans-56"/>
       </defs>
       <use xlink:href="#DejaVuSans-56"/>
       <use x="63.623047" xlink:href="#DejaVuSans-48"/>
      </g>
     </g>
    </g>
    <g id="xtick_6">
     <g id="line2d_6">
      <g>
       <use style="stroke:#000000;stroke-width:0.8;" x="73.832727" xlink:href="#m9a56dde161" y="307.584"/>
      </g>
     </g>
     <g id="text_6">
      <!-- 100 -->
      <g transform="translate(64.288977 322.182437)scale(0.1 -0.1)">
       <defs>
        <path d="M 12.40625 8.296875 
L 28.515625 8.296875 
L 28.515625 63.921875 
L 10.984375 60.40625 
L 10.984375 69.390625 
L 28.421875 72.90625 
L 38.28125 72.90625 
L 38.28125 8.296875 
L 54.390625 8.296875 
L 54.390625 0 
L 12.40625 0 
z
" id="DejaVuSans-49"/>
       </defs>
       <use xlink:href="#DejaVuSans-49"/>
       <use x="63.623047" xlink:href="#DejaVuSans-48"/>
       <use x="127.246094" xlink:href="#DejaVuSans-48"/>
      </g>
     </g>
    </g>
    <g id="text_7">
     <!-- Number of features -->
     <g transform="translate(187.4225 335.860562)scale(0.1 -0.1)">
      <defs>
       <path d="M 9.8125 72.90625 
L 23.09375 72.90625 
L 55.421875 11.921875 
L 55.421875 72.90625 
L 64.984375 72.90625 
L 64.984375 0 
L 51.703125 0 
L 19.390625 60.984375 
L 19.390625 0 
L 9.8125 0 
z
" id="DejaVuSans-78"/>
       <path d="M 8.5 21.578125 
L 8.5 54.6875 
L 17.484375 54.6875 
L 17.484375 21.921875 
Q 17.484375 14.15625 20.5 10.265625 
Q 23.53125 6.390625 29.59375 6.390625 
Q 36.859375 6.390625 41.078125 11.03125 
Q 45.3125 15.671875 45.3125 23.6875 
L 45.3125 54.6875 
L 54.296875 54.6875 
L 54.296875 0 
L 45.3125 0 
L 45.3125 8.40625 
Q 42.046875 3.421875 37.71875 1 
Q 33.40625 -1.421875 27.6875 -1.421875 
Q 18.265625 -1.421875 13.375 4.4375 
Q 8.5 10.296875 8.5 21.578125 
z
M 31.109375 56 
z
" id="DejaVuSans-117"/>
       <path d="M 52 44.1875 
Q 55.375 50.25 60.0625 53.125 
Q 64.75 56 71.09375 56 
Q 79.640625 56 84.28125 50.015625 
Q 88.921875 44.046875 88.921875 33.015625 
L 88.921875 0 
L 79.890625 0 
L 79.890625 32.71875 
Q 79.890625 40.578125 77.09375 44.375 
Q 74.3125 48.1875 68.609375 48.1875 
Q 61.625 48.1875 57.5625 43.546875 
Q 53.515625 38.921875 53.515625 30.90625 
L 53.515625 0 
L 44.484375 0 
L 44.484375 32.71875 
Q 44.484375 40.625 41.703125 44.40625 
Q 38.921875 48.1875 33.109375 48.1875 
Q 26.21875 48.1875 22.15625 43.53125 
Q 18.109375 38.875 18.109375 30.90625 
L 18.109375 0 
L 9.078125 0 
L 9.078125 54.6875 
L 18.109375 54.6875 
L 18.109375 46.1875 
Q 21.1875 51.21875 25.484375 53.609375 
Q 29.78125 56 35.6875 56 
Q 41.65625 56 45.828125 52.96875 
Q 50 49.953125 52 44.1875 
z
" id="DejaVuSans-109"/>
       <path d="M 48.6875 27.296875 
Q 48.6875 37.203125 44.609375 42.84375 
Q 40.53125 48.484375 33.40625 48.484375 
Q 26.265625 48.484375 22.1875 42.84375 
Q 18.109375 37.203125 18.109375 27.296875 
Q 18.109375 17.390625 22.1875 11.75 
Q 26.265625 6.109375 33.40625 6.109375 
Q 40.53125 6.109375 44.609375 11.75 
Q 48.6875 17.390625 48.6875 27.296875 
z
M 18.109375 46.390625 
Q 20.953125 51.265625 25.265625 53.625 
Q 29.59375 56 35.59375 56 
Q 45.5625 56 51.78125 48.09375 
Q 58.015625 40.1875 58.015625 27.296875 
Q 58.015625 14.40625 51.78125 6.484375 
Q 45.5625 -1.421875 35.59375 -1.421875 
Q 29.59375 -1.421875 25.265625 0.953125 
Q 20.953125 3.328125 18.109375 8.203125 
L 18.109375 0 
L 9.078125 0 
L 9.078125 75.984375 
L 18.109375 75.984375 
z
" id="DejaVuSans-98"/>
       <path d="M 56.203125 29.59375 
L 56.203125 25.203125 
L 14.890625 25.203125 
Q 15.484375 15.921875 20.484375 11.0625 
Q 25.484375 6.203125 34.421875 6.203125 
Q 39.59375 6.203125 44.453125 7.46875 
Q 49.3125 8.734375 54.109375 11.28125 
L 54.109375 2.78125 
Q 49.265625 0.734375 44.1875 -0.34375 
Q 39.109375 -1.421875 33.890625 -1.421875 
Q 20.796875 -1.421875 13.15625 6.1875 
Q 5.515625 13.8125 5.515625 26.8125 
Q 5.515625 40.234375 12.765625 48.109375 
Q 20.015625 56 32.328125 56 
Q 43.359375 56 49.78125 48.890625 
Q 56.203125 41.796875 56.203125 29.59375 
z
M 47.21875 32.234375 
Q 47.125 39.59375 43.09375 43.984375 
Q 39.0625 48.390625 32.421875 48.390625 
Q 24.90625 48.390625 20.390625 44.140625 
Q 15.875 39.890625 15.1875 32.171875 
z
" id="DejaVuSans-101"/>
       <path d="M 41.109375 46.296875 
Q 39.59375 47.171875 37.8125 47.578125 
Q 36.03125 48 33.890625 48 
Q 26.265625 48 22.1875 43.046875 
Q 18.109375 38.09375 18.109375 28.8125 
L 18.109375 0 
L 9.078125 0 
L 9.078125 54.6875 
L 18.109375 54.6875 
L 18.109375 46.1875 
Q 20.953125 51.171875 25.484375 53.578125 
Q 30.03125 56 36.53125 56 
Q 37.453125 56 38.578125 55.875 
Q 39.703125 55.765625 41.0625 55.515625 
z
" id="DejaVuSans-114"/>
       <path id="DejaVuSans-32"/>
       <path d="M 30.609375 48.390625 
Q 23.390625 48.390625 19.1875 42.75 
Q 14.984375 37.109375 14.984375 27.296875 
Q 14.984375 17.484375 19.15625 11.84375 
Q 23.34375 6.203125 30.609375 6.203125 
Q 37.796875 6.203125 41.984375 11.859375 
Q 46.1875 17.53125 46.1875 27.296875 
Q 46.1875 37.015625 41.984375 42.703125 
Q 37.796875 48.390625 30.609375 48.390625 
z
M 30.609375 56 
Q 42.328125 56 49.015625 48.375 
Q 55.71875 40.765625 55.71875 27.296875 
Q 55.71875 13.875 49.015625 6.21875 
Q 42.328125 -1.421875 30.609375 -1.421875 
Q 18.84375 -1.421875 12.171875 6.21875 
Q 5.515625 13.875 5.515625 27.296875 
Q 5.515625 40.765625 12.171875 48.375 
Q 18.84375 56 30.609375 56 
z
" id="DejaVuSans-111"/>
       <path d="M 37.109375 75.984375 
L 37.109375 68.5 
L 28.515625 68.5 
Q 23.6875 68.5 21.796875 66.546875 
Q 19.921875 64.59375 19.921875 59.515625 
L 19.921875 54.6875 
L 34.71875 54.6875 
L 34.71875 47.703125 
L 19.921875 47.703125 
L 19.921875 0 
L 10.890625 0 
L 10.890625 47.703125 
L 2.296875 47.703125 
L 2.296875 54.6875 
L 10.890625 54.6875 
L 10.890625 58.5 
Q 10.890625 67.625 15.140625 71.796875 
Q 19.390625 75.984375 28.609375 75.984375 
z
" id="DejaVuSans-102"/>
       <path d="M 34.28125 27.484375 
Q 23.390625 27.484375 19.1875 25 
Q 14.984375 22.515625 14.984375 16.5 
Q 14.984375 11.71875 18.140625 8.90625 
Q 21.296875 6.109375 26.703125 6.109375 
Q 34.1875 6.109375 38.703125 11.40625 
Q 43.21875 16.703125 43.21875 25.484375 
L 43.21875 27.484375 
z
M 52.203125 31.203125 
L 52.203125 0 
L 43.21875 0 
L 43.21875 8.296875 
Q 40.140625 3.328125 35.546875 0.953125 
Q 30.953125 -1.421875 24.3125 -1.421875 
Q 15.921875 -1.421875 10.953125 3.296875 
Q 6 8.015625 6 15.921875 
Q 6 25.140625 12.171875 29.828125 
Q 18.359375 34.515625 30.609375 34.515625 
L 43.21875 34.515625 
L 43.21875 35.40625 
Q 43.21875 41.609375 39.140625 45 
Q 35.0625 48.390625 27.6875 48.390625 
Q 23 48.390625 18.546875 47.265625 
Q 14.109375 46.140625 10.015625 43.890625 
L 10.015625 52.203125 
Q 14.9375 54.109375 19.578125 55.046875 
Q 24.21875 56 28.609375 56 
Q 40.484375 56 46.34375 49.84375 
Q 52.203125 43.703125 52.203125 31.203125 
z
" id="DejaVuSans-97"/>
       <path d="M 18.3125 70.21875 
L 18.3125 54.6875 
L 36.8125 54.6875 
L 36.8125 47.703125 
L 18.3125 47.703125 
L 18.3125 18.015625 
Q 18.3125 11.328125 20.140625 9.421875 
Q 21.96875 7.515625 27.59375 7.515625 
L 36.8125 7.515625 
L 36.8125 0 
L 27.59375 0 
Q 17.1875 0 13.234375 3.875 
Q 9.28125 7.765625 9.28125 18.015625 
L 9.28125 47.703125 
L 2.6875 47.703125 
L 2.6875 54.6875 
L 9.28125 54.6875 
L 9.28125 70.21875 
z
" id="DejaVuSans-116"/>
       <path d="M 44.28125 53.078125 
L 44.28125 44.578125 
Q 40.484375 46.53125 36.375 47.5 
Q 32.28125 48.484375 27.875 48.484375 
Q 21.1875 48.484375 17.84375 46.4375 
Q 14.5 44.390625 14.5 40.28125 
Q 14.5 37.15625 16.890625 35.375 
Q 19.28125 33.59375 26.515625 31.984375 
L 29.59375 31.296875 
Q 39.15625 29.25 43.1875 25.515625 
Q 47.21875 21.78125 47.21875 15.09375 
Q 47.21875 7.46875 41.1875 3.015625 
Q 35.15625 -1.421875 24.609375 -1.421875 
Q 20.21875 -1.421875 15.453125 -0.5625 
Q 10.6875 0.296875 5.421875 2 
L 5.421875 11.28125 
Q 10.40625 8.6875 15.234375 7.390625 
Q 20.0625 6.109375 24.8125 6.109375 
Q 31.15625 6.109375 34.5625 8.28125 
Q 37.984375 10.453125 37.984375 14.40625 
Q 37.984375 18.0625 35.515625 20.015625 
Q 33.0625 21.96875 24.703125 23.78125 
L 21.578125 24.515625 
Q 13.234375 26.265625 9.515625 29.90625 
Q 5.8125 33.546875 5.8125 39.890625 
Q 5.8125 47.609375 11.28125 51.796875 
Q 16.75 56 26.8125 56 
Q 31.78125 56 36.171875 55.265625 
Q 40.578125 54.546875 44.28125 53.078125 
z
" id="DejaVuSans-115"/>
      </defs>
      <use xlink:href="#DejaVuSans-78"/>
      <use x="74.804688" xlink:href="#DejaVuSans-117"/>
      <use x="138.183594" xlink:href="#DejaVuSans-109"/>
      <use x="235.595703" xlink:href="#DejaVuSans-98"/>
      <use x="299.072266" xlink:href="#DejaVuSans-101"/>
      <use x="360.595703" xlink:href="#DejaVuSans-114"/>
      <use x="401.708984" xlink:href="#DejaVuSans-32"/>
      <use x="433.496094" xlink:href="#DejaVuSans-111"/>
      <use x="494.677734" xlink:href="#DejaVuSans-102"/>
      <use x="529.882812" xlink:href="#DejaVuSans-32"/>
      <use x="561.669922" xlink:href="#DejaVuSans-102"/>
      <use x="596.875" xlink:href="#DejaVuSans-101"/>
      <use x="658.398438" xlink:href="#DejaVuSans-97"/>
      <use x="719.677734" xlink:href="#DejaVuSans-116"/>
      <use x="758.886719" xlink:href="#DejaVuSans-117"/>
      <use x="822.265625" xlink:href="#DejaVuSans-114"/>
      <use x="861.128906" xlink:href="#DejaVuSans-101"/>
      <use x="922.652344" xlink:href="#DejaVuSans-115"/>
     </g>
    </g>
   </g>
   <g id="matplotlib.axis_2">
    <g id="ytick_1">
     <g id="line2d_7">
      <defs>
       <path d="M 0 0 
L -3.5 0 
" id="mb39906da53" style="stroke:#000000;stroke-width:0.8;"/>
      </defs>
      <g>
       <use style="stroke:#000000;stroke-width:0.8;" x="57.6" xlink:href="#mb39906da53" y="304.322209"/>
      </g>
     </g>
     <g id="text_8">
      <!-- 0.1 -->
      <g transform="translate(34.696875 308.121427)scale(0.1 -0.1)">
       <defs>
        <path d="M 10.6875 12.40625 
L 21 12.40625 
L 21 0 
L 10.6875 0 
z
" id="DejaVuSans-46"/>
       </defs>
       <use xlink:href="#DejaVuSans-48"/>
       <use x="63.623047" xlink:href="#DejaVuSans-46"/>
       <use x="95.410156" xlink:href="#DejaVuSans-49"/>
      </g>
     </g>
    </g>
    <g id="ytick_2">
     <g id="line2d_8">
      <g>
       <use style="stroke:#000000;stroke-width:0.8;" x="57.6" xlink:href="#mb39906da53" y="271.77782"/>
      </g>
     </g>
     <g id="text_9">
      <!-- 0.2 -->
      <g transform="translate(34.696875 275.577039)scale(0.1 -0.1)">
       <use xlink:href="#DejaVuSans-48"/>
       <use x="63.623047" xlink:href="#DejaVuSans-46"/>
       <use x="95.410156" xlink:href="#DejaVuSans-50"/>
      </g>
     </g>
    </g>
    <g id="ytick_3">
     <g id="line2d_9">
      <g>
       <use style="stroke:#000000;stroke-width:0.8;" x="57.6" xlink:href="#mb39906da53" y="239.233431"/>
      </g>
     </g>
     <g id="text_10">
      <!-- 0.3 -->
      <g transform="translate(34.696875 243.03265)scale(0.1 -0.1)">
       <defs>
        <path d="M 40.578125 39.3125 
Q 47.65625 37.796875 51.625 33 
Q 55.609375 28.21875 55.609375 21.1875 
Q 55.609375 10.40625 48.1875 4.484375 
Q 40.765625 -1.421875 27.09375 -1.421875 
Q 22.515625 -1.421875 17.65625 -0.515625 
Q 12.796875 0.390625 7.625 2.203125 
L 7.625 11.71875 
Q 11.71875 9.328125 16.59375 8.109375 
Q 21.484375 6.890625 26.8125 6.890625 
Q 36.078125 6.890625 40.9375 10.546875 
Q 45.796875 14.203125 45.796875 21.1875 
Q 45.796875 27.640625 41.28125 31.265625 
Q 36.765625 34.90625 28.71875 34.90625 
L 20.21875 34.90625 
L 20.21875 43.015625 
L 29.109375 43.015625 
Q 36.375 43.015625 40.234375 45.921875 
Q 44.09375 48.828125 44.09375 54.296875 
Q 44.09375 59.90625 40.109375 62.90625 
Q 36.140625 65.921875 28.71875 65.921875 
Q 24.65625 65.921875 20.015625 65.03125 
Q 15.375 64.15625 9.8125 62.3125 
L 9.8125 71.09375 
Q 15.4375 72.65625 20.34375 73.4375 
Q 25.25 74.21875 29.59375 74.21875 
Q 40.828125 74.21875 47.359375 69.109375 
Q 53.90625 64.015625 53.90625 55.328125 
Q 53.90625 49.265625 50.4375 45.09375 
Q 46.96875 40.921875 40.578125 39.3125 
z
" id="DejaVuSans-51"/>
       </defs>
       <use xlink:href="#DejaVuSans-48"/>
       <use x="63.623047" xlink:href="#DejaVuSans-46"/>
       <use x="95.410156" xlink:href="#DejaVuSans-51"/>
      </g>
     </g>
    </g>
    <g id="ytick_4">
     <g id="line2d_10">
      <g>
       <use style="stroke:#000000;stroke-width:0.8;" x="57.6" xlink:href="#mb39906da53" y="206.689042"/>
      </g>
     </g>
     <g id="text_11">
      <!-- 0.4 -->
      <g transform="translate(34.696875 210.488261)scale(0.1 -0.1)">
       <use xlink:href="#DejaVuSans-48"/>
       <use x="63.623047" xlink:href="#DejaVuSans-46"/>
       <use x="95.410156" xlink:href="#DejaVuSans-52"/>
      </g>
     </g>
    </g>
    <g id="ytick_5">
     <g id="line2d_11">
      <g>
       <use style="stroke:#000000;stroke-width:0.8;" x="57.6" xlink:href="#mb39906da53" y="174.144653"/>
      </g>
     </g>
     <g id="text_12">
      <!-- 0.5 -->
      <g transform="translate(34.696875 177.943872)scale(0.1 -0.1)">
       <defs>
        <path d="M 10.796875 72.90625 
L 49.515625 72.90625 
L 49.515625 64.59375 
L 19.828125 64.59375 
L 19.828125 46.734375 
Q 21.96875 47.46875 24.109375 47.828125 
Q 26.265625 48.1875 28.421875 48.1875 
Q 40.625 48.1875 47.75 41.5 
Q 54.890625 34.8125 54.890625 23.390625 
Q 54.890625 11.625 47.5625 5.09375 
Q 40.234375 -1.421875 26.90625 -1.421875 
Q 22.3125 -1.421875 17.546875 -0.640625 
Q 12.796875 0.140625 7.71875 1.703125 
L 7.71875 11.625 
Q 12.109375 9.234375 16.796875 8.0625 
Q 21.484375 6.890625 26.703125 6.890625 
Q 35.15625 6.890625 40.078125 11.328125 
Q 45.015625 15.765625 45.015625 23.390625 
Q 45.015625 31 40.078125 35.4375 
Q 35.15625 39.890625 26.703125 39.890625 
Q 22.75 39.890625 18.8125 39.015625 
Q 14.890625 38.140625 10.796875 36.28125 
z
" id="DejaVuSans-53"/>
       </defs>
       <use xlink:href="#DejaVuSans-48"/>
       <use x="63.623047" xlink:href="#DejaVuSans-46"/>
       <use x="95.410156" xlink:href="#DejaVuSans-53"/>
      </g>
     </g>
    </g>
    <g id="ytick_6">
     <g id="line2d_12">
      <g>
       <use style="stroke:#000000;stroke-width:0.8;" x="57.6" xlink:href="#mb39906da53" y="141.600265"/>
      </g>
     </g>
     <g id="text_13">
      <!-- 0.6 -->
      <g transform="translate(34.696875 145.399483)scale(0.1 -0.1)">
       <use xlink:href="#DejaVuSans-48"/>
       <use x="63.623047" xlink:href="#DejaVuSans-46"/>
       <use x="95.410156" xlink:href="#DejaVuSans-54"/>
      </g>
     </g>
    </g>
    <g id="ytick_7">
     <g id="line2d_13">
      <g>
       <use style="stroke:#000000;stroke-width:0.8;" x="57.6" xlink:href="#mb39906da53" y="109.055876"/>
      </g>
     </g>
     <g id="text_14">
      <!-- 0.7 -->
      <g transform="translate(34.696875 112.855095)scale(0.1 -0.1)">
       <defs>
        <path d="M 8.203125 72.90625 
L 55.078125 72.90625 
L 55.078125 68.703125 
L 28.609375 0 
L 18.3125 0 
L 43.21875 64.59375 
L 8.203125 64.59375 
z
" id="DejaVuSans-55"/>
       </defs>
       <use xlink:href="#DejaVuSans-48"/>
       <use x="63.623047" xlink:href="#DejaVuSans-46"/>
       <use x="95.410156" xlink:href="#DejaVuSans-55"/>
      </g>
     </g>
    </g>
    <g id="ytick_8">
     <g id="line2d_14">
      <g>
       <use style="stroke:#000000;stroke-width:0.8;" x="57.6" xlink:href="#mb39906da53" y="76.511487"/>
      </g>
     </g>
     <g id="text_15">
      <!-- 0.8 -->
      <g transform="translate(34.696875 80.310706)scale(0.1 -0.1)">
       <use xlink:href="#DejaVuSans-48"/>
       <use x="63.623047" xlink:href="#DejaVuSans-46"/>
       <use x="95.410156" xlink:href="#DejaVuSans-56"/>
      </g>
     </g>
    </g>
    <g id="ytick_9">
     <g id="line2d_15">
      <g>
       <use style="stroke:#000000;stroke-width:0.8;" x="57.6" xlink:href="#mb39906da53" y="43.967098"/>
      </g>
     </g>
     <g id="text_16">
      <!-- 0.9 -->
      <g transform="translate(34.696875 47.766317)scale(0.1 -0.1)">
       <defs>
        <path d="M 10.984375 1.515625 
L 10.984375 10.5 
Q 14.703125 8.734375 18.5 7.8125 
Q 22.3125 6.890625 25.984375 6.890625 
Q 35.75 6.890625 40.890625 13.453125 
Q 46.046875 20.015625 46.78125 33.40625 
Q 43.953125 29.203125 39.59375 26.953125 
Q 35.25 24.703125 29.984375 24.703125 
Q 19.046875 24.703125 12.671875 31.3125 
Q 6.296875 37.9375 6.296875 49.421875 
Q 6.296875 60.640625 12.9375 67.421875 
Q 19.578125 74.21875 30.609375 74.21875 
Q 43.265625 74.21875 49.921875 64.515625 
Q 56.59375 54.828125 56.59375 36.375 
Q 56.59375 19.140625 48.40625 8.859375 
Q 40.234375 -1.421875 26.421875 -1.421875 
Q 22.703125 -1.421875 18.890625 -0.6875 
Q 15.09375 0.046875 10.984375 1.515625 
z
M 30.609375 32.421875 
Q 37.25 32.421875 41.125 36.953125 
Q 45.015625 41.5 45.015625 49.421875 
Q 45.015625 57.28125 41.125 61.84375 
Q 37.25 66.40625 30.609375 66.40625 
Q 23.96875 66.40625 20.09375 61.84375 
Q 16.21875 57.28125 16.21875 49.421875 
Q 16.21875 41.5 20.09375 36.953125 
Q 23.96875 32.421875 30.609375 32.421875 
z
" id="DejaVuSans-57"/>
       </defs>
       <use xlink:href="#DejaVuSans-48"/>
       <use x="63.623047" xlink:href="#DejaVuSans-46"/>
       <use x="95.410156" xlink:href="#DejaVuSans-57"/>
      </g>
     </g>
    </g>
    <g id="text_17">
     <!-- Accuracy -->
     <g transform="translate(28.617187 197.356125)rotate(-90)scale(0.1 -0.1)">
      <defs>
       <path d="M 34.1875 63.1875 
L 20.796875 26.90625 
L 47.609375 26.90625 
z
M 28.609375 72.90625 
L 39.796875 72.90625 
L 67.578125 0 
L 57.328125 0 
L 50.6875 18.703125 
L 17.828125 18.703125 
L 11.1875 0 
L 0.78125 0 
z
" id="DejaVuSans-65"/>
       <path d="M 48.78125 52.59375 
L 48.78125 44.1875 
Q 44.96875 46.296875 41.140625 47.34375 
Q 37.3125 48.390625 33.40625 48.390625 
Q 24.65625 48.390625 19.8125 42.84375 
Q 14.984375 37.3125 14.984375 27.296875 
Q 14.984375 17.28125 19.8125 11.734375 
Q 24.65625 6.203125 33.40625 6.203125 
Q 37.3125 6.203125 41.140625 7.25 
Q 44.96875 8.296875 48.78125 10.40625 
L 48.78125 2.09375 
Q 45.015625 0.34375 40.984375 -0.53125 
Q 36.96875 -1.421875 32.421875 -1.421875 
Q 20.0625 -1.421875 12.78125 6.34375 
Q 5.515625 14.109375 5.515625 27.296875 
Q 5.515625 40.671875 12.859375 48.328125 
Q 20.21875 56 33.015625 56 
Q 37.15625 56 41.109375 55.140625 
Q 45.0625 54.296875 48.78125 52.59375 
z
" id="DejaVuSans-99"/>
       <path d="M 32.171875 -5.078125 
Q 28.375 -14.84375 24.75 -17.8125 
Q 21.140625 -20.796875 15.09375 -20.796875 
L 7.90625 -20.796875 
L 7.90625 -13.28125 
L 13.1875 -13.28125 
Q 16.890625 -13.28125 18.9375 -11.515625 
Q 21 -9.765625 23.484375 -3.21875 
L 25.09375 0.875 
L 2.984375 54.6875 
L 12.5 54.6875 
L 29.59375 11.921875 
L 46.6875 54.6875 
L 56.203125 54.6875 
z
" id="DejaVuSans-121"/>
      </defs>
      <use xlink:href="#DejaVuSans-65"/>
      <use x="66.658203" xlink:href="#DejaVuSans-99"/>
      <use x="121.638672" xlink:href="#DejaVuSans-99"/>
      <use x="176.619141" xlink:href="#DejaVuSans-117"/>
      <use x="239.998047" xlink:href="#DejaVuSans-114"/>
      <use x="281.111328" xlink:href="#DejaVuSans-97"/>
      <use x="342.390625" xlink:href="#DejaVuSans-99"/>
      <use x="397.371094" xlink:href="#DejaVuSans-121"/>
     </g>
    </g>
   </g>
   <g id="line2d_16">
    <path clip-path="url(#pc26ef20bf0)" d="M 73.832727 206.689042 
L 77.112066 205.061823 
L 80.391405 202.783716 
L 83.670744 207.665374 
L 86.950083 207.33993 
L 90.229421 210.268925 
L 93.50876 215.150583 
L 96.788099 214.174252 
L 100.067438 214.174252 
L 103.346777 212.872476 
L 106.626116 213.848808 
L 109.905455 216.126915 
L 113.184793 216.777803 
L 116.464132 214.825139 
L 119.743471 209.943481 
L 123.02281 214.174252 
L 126.302149 220.032242 
L 129.581488 218.405022 
L 132.860826 223.286681 
L 136.140165 216.777803 
L 139.419504 216.452359 
L 142.698843 221.334017 
L 145.978182 216.452359 
L 149.257521 224.263012 
L 152.53686 226.541119 
L 155.816198 226.866563 
L 159.095537 221.659461 
L 162.374876 223.612124 
L 165.654215 224.263012 
L 168.933554 222.635793 
L 172.212893 214.174252 
L 175.492231 229.14467 
L 178.77157 223.612124 
L 182.050909 227.517451 
L 185.330248 226.866563 
L 188.609587 234.677217 
L 191.888926 228.168339 
L 195.168264 226.541119 
L 198.447603 227.842895 
L 201.726942 222.961237 
L 205.006281 229.470114 
L 208.28562 224.588456 
L 211.564959 227.517451 
L 214.844298 234.351773 
L 218.123636 235.653548 
L 221.402975 229.795558 
L 224.682314 227.517451 
L 227.961653 232.073665 
L 231.240992 238.257099 
L 234.520331 234.026329 
L 237.799669 231.097334 
L 241.079008 236.955324 
L 244.358347 234.026329 
L 247.637686 233.375441 
L 250.917025 232.724553 
L 254.196364 235.328104 
L 257.475702 235.978992 
L 260.755041 241.836982 
L 264.03438 231.422778 
L 267.313719 234.026329 
L 270.593058 243.138758 
L 273.872397 238.582543 
L 277.151736 236.304436 
L 280.431074 236.304436 
L 283.710413 242.813314 
L 286.989752 233.700885 
L 290.269091 243.464202 
L 293.54843 244.115089 
L 296.827769 242.813314 
L 300.107107 242.813314 
L 303.386446 243.789645 
L 306.665785 243.138758 
L 309.945124 245.742309 
L 313.224463 241.186094 
L 316.503802 250.949411 
L 319.78314 253.227518 
L 323.062479 244.115089 
L 326.341818 253.552962 
L 329.621157 251.600299 
L 332.900496 248.671304 
L 336.179835 253.552962 
L 339.459174 258.760064 
L 342.738512 256.156513 
L 346.017851 259.410952 
L 349.29719 254.20385 
L 352.576529 254.854738 
L 355.855868 261.689059 
L 359.135207 263.641723 
L 362.414545 265.594386 
L 365.693884 263.967166 
L 368.973223 262.014503 
L 372.252562 265.268942 
L 375.531901 264.29261 
L 378.81124 266.245274 
L 382.090579 269.174269 
L 385.369917 267.221605 
L 388.649256 269.825156 
L 391.928595 272.103264 
L 395.207934 271.77782 
L 398.487273 271.77782 
" style="fill:none;stroke:#1f77b4;stroke-linecap:square;stroke-width:1.5;"/>
   </g>
   <g id="line2d_17">
    <path clip-path="url(#pc26ef20bf0)" d="M 73.832727 141.600265 
L 77.112066 142.90204 
L 80.391405 142.251152 
L 83.670744 141.274821 
L 86.950083 144.203816 
L 90.229421 145.180147 
L 93.50876 143.878372 
L 96.788099 142.576596 
L 100.067438 145.831035 
L 103.346777 147.783699 
L 106.626116 147.783699 
L 109.905455 147.132811 
L 113.184793 149.085474 
L 116.464132 150.38725 
L 119.743471 145.505591 
L 123.02281 150.712694 
L 126.302149 152.990801 
L 129.581488 157.872459 
L 132.860826 154.61802 
L 136.140165 152.339913 
L 139.419504 149.736362 
L 142.698843 159.174235 
L 145.978182 157.872459 
L 149.257521 159.174235 
L 152.53686 159.499678 
L 155.816198 160.150566 
L 159.095537 159.499678 
L 162.374876 155.268908 
L 165.654215 158.197903 
L 168.933554 165.357668 
L 172.212893 156.24524 
L 175.492231 166.008556 
L 178.77157 157.547015 
L 182.050909 162.10323 
L 185.330248 162.754117 
L 188.609587 166.984888 
L 191.888926 171.215658 
L 195.168264 162.428673 
L 198.447603 173.168322 
L 201.726942 165.032225 
L 205.006281 166.659444 
L 208.28562 162.428673 
L 211.564959 164.055893 
L 214.844298 165.357668 
L 218.123636 163.079561 
L 221.402975 167.96122 
L 224.682314 166.334 
L 227.961653 166.659444 
L 231.240992 167.310332 
L 234.520331 162.428673 
L 237.799669 163.405005 
L 241.079008 170.239327 
L 244.358347 170.239327 
L 247.637686 178.375424 
L 250.917025 166.334 
L 254.196364 166.008556 
L 257.475702 167.635776 
L 260.755041 174.144653 
L 264.03438 175.120985 
L 267.313719 168.937551 
L 270.593058 171.541102 
L 273.872397 176.422761 
L 277.151736 169.262995 
L 280.431074 171.866546 
L 283.710413 165.357668 
L 286.989752 163.730449 
L 290.269091 177.399092 
L 293.54843 175.771873 
L 296.827769 173.168322 
L 300.107107 170.239327 
L 303.386446 177.724536 
L 306.665785 183.582526 
L 309.945124 172.517434 
L 313.224463 176.097317 
L 316.503802 176.422761 
L 319.78314 181.304419 
L 323.062479 175.120985 
L 326.341818 190.416848 
L 329.621157 169.262995 
L 332.900496 179.026312 
L 336.179835 180.978975 
L 339.459174 179.351756 
L 342.738512 186.511521 
L 346.017851 183.90797 
L 349.29719 176.097317 
L 352.576529 191.718623 
L 355.855868 193.020399 
L 359.135207 197.576613 
L 362.414545 195.298506 
L 365.693884 194.322174 
L 368.973223 207.665374 
L 372.252562 202.132828 
L 375.531901 207.33993 
L 378.81124 206.689042 
L 382.090579 219.706798 
L 385.369917 226.541119 
L 388.649256 228.493783 
L 391.928595 242.162426 
L 395.207934 247.044084 
L 398.487273 253.878406 
" style="fill:none;stroke:#ff7f0e;stroke-linecap:square;stroke-width:1.5;"/>
   </g>
   <g id="line2d_18">
    <path clip-path="url(#pc26ef20bf0)" d="M 73.832727 206.689042 
L 77.112066 205.712711 
L 80.391405 201.807384 
L 83.670744 205.061823 
L 86.950083 197.902057 
L 90.229421 197.576613 
L 93.50876 195.62395 
L 96.788099 197.576613 
L 100.067438 191.718623 
L 103.346777 195.298506 
L 106.626116 190.416848 
L 109.905455 196.925726 
L 113.184793 193.671287 
L 116.464132 187.813297 
L 119.743471 185.53519 
L 123.02281 187.487853 
L 126.302149 193.020399 
L 129.581488 184.233414 
L 132.860826 188.138741 
L 136.140165 188.464185 
L 139.419504 187.813297 
L 142.698843 192.044067 
L 145.978182 193.996731 
L 149.257521 193.020399 
L 152.53686 189.76596 
L 155.816198 186.186077 
L 159.095537 180.002643 
L 162.374876 189.115072 
L 165.654215 181.955307 
L 168.933554 191.393179 
L 172.212893 187.813297 
L 175.492231 180.002643 
L 178.77157 188.464185 
L 182.050909 183.257082 
L 185.330248 182.931638 
L 188.609587 174.795541 
L 191.888926 180.978975 
L 195.168264 183.582526 
L 198.447603 184.233414 
L 201.726942 176.097317 
L 205.006281 180.002643 
L 208.28562 177.073648 
L 211.564959 173.81921 
L 214.844298 180.653531 
L 218.123636 176.748205 
L 221.402975 177.073648 
L 224.682314 174.795541 
L 227.961653 180.328087 
L 231.240992 174.144653 
L 234.520331 165.357668 
L 237.799669 166.334 
L 241.079008 173.493766 
L 244.358347 172.19199 
L 247.637686 166.659444 
L 250.917025 164.706781 
L 254.196364 176.422761 
L 257.475702 167.310332 
L 260.755041 169.588439 
L 264.03438 164.055893 
L 267.313719 162.754117 
L 270.593058 157.872459 
L 273.872397 169.588439 
L 277.151736 164.706781 
L 280.431074 157.221571 
L 283.710413 166.008556 
L 286.989752 160.150566 
L 290.269091 153.967132 
L 293.54843 165.683112 
L 296.827769 156.570683 
L 300.107107 157.547015 
L 303.386446 148.76003 
L 306.665785 151.689025 
L 309.945124 144.203816 
L 313.224463 147.783699 
L 316.503802 144.203816 
L 319.78314 141.274821 
L 323.062479 152.990801 
L 326.341818 143.552928 
L 329.621157 138.020382 
L 332.900496 138.67127 
L 336.179835 137.694938 
L 339.459174 129.558841 
L 342.738512 139.973045 
L 346.017851 127.280734 
L 349.29719 125.002626 
L 352.576529 128.257065 
L 355.855868 126.629846 
L 359.135207 118.819192 
L 362.414545 123.700851 
L 365.693884 113.937534 
L 368.973223 111.984871 
L 372.252562 105.475993 
L 375.531901 105.475993 
L 378.81124 100.594335 
L 382.090579 98.316228 
L 385.369917 96.689008 
L 388.649256 94.736345 
L 391.928595 86.925691 
L 395.207934 80.742258 
L 398.487273 77.487819 
" style="fill:none;stroke:#2ca02c;stroke-linecap:square;stroke-width:1.5;"/>
   </g>
   <g id="line2d_19">
    <path clip-path="url(#pc26ef20bf0)" d="M 73.832727 206.689042 
L 77.112066 209.292593 
L 80.391405 212.221588 
L 83.670744 215.150583 
L 86.950083 217.103247 
L 90.229421 218.079578 
L 93.50876 221.659461 
L 96.788099 226.541119 
L 100.067438 229.14467 
L 103.346777 226.866563 
L 106.626116 228.168339 
L 109.905455 229.14467 
L 113.184793 228.493783 
L 116.464132 233.700885 
L 119.743471 232.399109 
L 123.02281 238.907987 
L 126.302149 237.931655 
L 129.581488 237.606212 
L 132.860826 238.582543 
L 136.140165 237.280768 
L 139.419504 239.233431 
L 142.698843 248.020416 
L 145.978182 244.440533 
L 149.257521 250.298523 
L 152.53686 248.671304 
L 155.816198 240.535207 
L 159.095537 250.623967 
L 162.374876 249.322192 
L 165.654215 251.600299 
L 168.933554 253.227518 
L 172.212893 247.369528 
L 175.492231 262.990835 
L 178.77157 253.552962 
L 182.050909 260.06184 
L 185.330248 253.227518 
L 188.609587 261.363615 
L 191.888926 259.736396 
L 195.168264 260.06184 
L 198.447603 262.665391 
L 201.726942 262.665391 
L 205.006281 261.363615 
L 208.28562 266.245274 
L 211.564959 263.641723 
L 214.844298 269.499713 
L 218.123636 261.689059 
L 221.402975 263.967166 
L 224.682314 262.990835 
L 227.961653 262.990835 
L 231.240992 268.197937 
L 234.520331 270.1506 
L 237.799669 267.547049 
L 241.079008 267.221605 
L 244.358347 267.547049 
L 247.637686 268.523381 
L 250.917025 266.245274 
L 254.196364 270.801488 
L 257.475702 266.570718 
L 260.755041 271.452376 
L 264.03438 270.801488 
L 267.313719 269.174269 
L 270.593058 270.1506 
L 273.872397 269.174269 
L 277.151736 268.197937 
L 280.431074 272.103264 
L 283.710413 274.381371 
L 286.989752 269.825156 
L 290.269091 272.103264 
L 293.54843 271.77782 
L 296.827769 270.476044 
L 300.107107 272.103264 
L 303.386446 271.126932 
L 306.665785 271.77782 
L 309.945124 272.103264 
L 313.224463 272.103264 
L 316.503802 272.754151 
L 319.78314 272.103264 
L 323.062479 272.103264 
L 326.341818 272.103264 
L 329.621157 271.77782 
L 332.900496 271.77782 
L 336.179835 271.77782 
L 339.459174 272.103264 
L 342.738512 271.77782 
L 346.017851 271.77782 
L 349.29719 271.77782 
L 352.576529 271.77782 
L 355.855868 272.103264 
L 359.135207 271.77782 
L 362.414545 271.77782 
L 365.693884 271.77782 
L 368.973223 271.77782 
L 372.252562 271.77782 
L 375.531901 271.77782 
L 378.81124 271.77782 
L 382.090579 271.77782 
L 385.369917 271.77782 
L 388.649256 271.77782 
L 391.928595 271.77782 
L 395.207934 271.77782 
L 398.487273 271.77782 
" style="fill:none;stroke:#d62728;stroke-linecap:square;stroke-width:1.5;"/>
   </g>
   <g id="patch_3">
    <path d="M 57.6 307.584 
L 57.6 41.472 
" style="fill:none;stroke:#000000;stroke-linecap:square;stroke-linejoin:miter;stroke-width:0.8;"/>
   </g>
   <g id="patch_4">
    <path d="M 414.72 307.584 
L 414.72 41.472 
" style="fill:none;stroke:#000000;stroke-linecap:square;stroke-linejoin:miter;stroke-width:0.8;"/>
   </g>
   <g id="patch_5">
    <path d="M 57.6 307.584 
L 414.72 307.584 
" style="fill:none;stroke:#000000;stroke-linecap:square;stroke-linejoin:miter;stroke-width:0.8;"/>
   </g>
   <g id="patch_6">
    <path d="M 57.6 41.472 
L 414.72 41.472 
" style="fill:none;stroke:#000000;stroke-linecap:square;stroke-linejoin:miter;stroke-width:0.8;"/>
   </g>
   <g id="text_18">
    <!-- Toy_non_linear_100_100 -->
    <g transform="translate(163.14 35.472)scale(0.12 -0.12)">
     <defs>
      <path d="M -0.296875 72.90625 
L 61.375 72.90625 
L 61.375 64.59375 
L 35.5 64.59375 
L 35.5 0 
L 25.59375 0 
L 25.59375 64.59375 
L -0.296875 64.59375 
z
" id="DejaVuSans-84"/>
      <path d="M 50.984375 -16.609375 
L 50.984375 -23.578125 
L -0.984375 -23.578125 
L -0.984375 -16.609375 
z
" id="DejaVuSans-95"/>
      <path d="M 54.890625 33.015625 
L 54.890625 0 
L 45.90625 0 
L 45.90625 32.71875 
Q 45.90625 40.484375 42.875 44.328125 
Q 39.84375 48.1875 33.796875 48.1875 
Q 26.515625 48.1875 22.3125 43.546875 
Q 18.109375 38.921875 18.109375 30.90625 
L 18.109375 0 
L 9.078125 0 
L 9.078125 54.6875 
L 18.109375 54.6875 
L 18.109375 46.1875 
Q 21.34375 51.125 25.703125 53.5625 
Q 30.078125 56 35.796875 56 
Q 45.21875 56 50.046875 50.171875 
Q 54.890625 44.34375 54.890625 33.015625 
z
" id="DejaVuSans-110"/>
      <path d="M 9.421875 75.984375 
L 18.40625 75.984375 
L 18.40625 0 
L 9.421875 0 
z
" id="DejaVuSans-108"/>
      <path d="M 9.421875 54.6875 
L 18.40625 54.6875 
L 18.40625 0 
L 9.421875 0 
z
M 9.421875 75.984375 
L 18.40625 75.984375 
L 18.40625 64.59375 
L 9.421875 64.59375 
z
" id="DejaVuSans-105"/>
     </defs>
     <use xlink:href="#DejaVuSans-84"/>
     <use x="44.083984" xlink:href="#DejaVuSans-111"/>
     <use x="105.265625" xlink:href="#DejaVuSans-121"/>
     <use x="164.445312" xlink:href="#DejaVuSans-95"/>
     <use x="214.445312" xlink:href="#DejaVuSans-110"/>
     <use x="277.824219" xlink:href="#DejaVuSans-111"/>
     <use x="339.005859" xlink:href="#DejaVuSans-110"/>
     <use x="402.384766" xlink:href="#DejaVuSans-95"/>
     <use x="452.384766" xlink:href="#DejaVuSans-108"/>
     <use x="480.167969" xlink:href="#DejaVuSans-105"/>
     <use x="507.951172" xlink:href="#DejaVuSans-110"/>
     <use x="571.330078" xlink:href="#DejaVuSans-101"/>
     <use x="632.853516" xlink:href="#DejaVuSans-97"/>
     <use x="694.132812" xlink:href="#DejaVuSans-114"/>
     <use x="735.246094" xlink:href="#DejaVuSans-95"/>
     <use x="785.246094" xlink:href="#DejaVuSans-49"/>
     <use x="848.869141" xlink:href="#DejaVuSans-48"/>
     <use x="912.492188" xlink:href="#DejaVuSans-48"/>
     <use x="976.115234" xlink:href="#DejaVuSans-95"/>
     <use x="1026.115234" xlink:href="#DejaVuSans-49"/>
     <use x="1089.738281" xlink:href="#DejaVuSans-48"/>
     <use x="1153.361328" xlink:href="#DejaVuSans-48"/>
    </g>
   </g>
   <g id="legend_1">
    <g id="patch_7">
     <path d="M 64.6 108.1845 
L 171.851562 108.1845 
Q 173.851562 108.1845 173.851562 106.1845 
L 173.851562 48.472 
Q 173.851562 46.472 171.851562 46.472 
L 64.6 46.472 
Q 62.6 46.472 62.6 48.472 
L 62.6 106.1845 
Q 62.6 108.1845 64.6 108.1845 
z
" style="fill:#ffffff;opacity:0.8;stroke:#cccccc;stroke-linejoin:miter;"/>
    </g>
    <g id="line2d_20">
     <path d="M 66.6 54.570438 
L 86.6 54.570438 
" style="fill:none;stroke:#1f77b4;stroke-linecap:square;stroke-width:1.5;"/>
    </g>
    <g id="line2d_21"/>
    <g id="text_19">
     <!-- Random Forest -->
     <g transform="translate(94.6 58.070438)scale(0.1 -0.1)">
      <defs>
       <path d="M 44.390625 34.1875 
Q 47.5625 33.109375 50.5625 29.59375 
Q 53.5625 26.078125 56.59375 19.921875 
L 66.609375 0 
L 56 0 
L 46.6875 18.703125 
Q 43.0625 26.03125 39.671875 28.421875 
Q 36.28125 30.8125 30.421875 30.8125 
L 19.671875 30.8125 
L 19.671875 0 
L 9.8125 0 
L 9.8125 72.90625 
L 32.078125 72.90625 
Q 44.578125 72.90625 50.734375 67.671875 
Q 56.890625 62.453125 56.890625 51.90625 
Q 56.890625 45.015625 53.6875 40.46875 
Q 50.484375 35.9375 44.390625 34.1875 
z
M 19.671875 64.796875 
L 19.671875 38.921875 
L 32.078125 38.921875 
Q 39.203125 38.921875 42.84375 42.21875 
Q 46.484375 45.515625 46.484375 51.90625 
Q 46.484375 58.296875 42.84375 61.546875 
Q 39.203125 64.796875 32.078125 64.796875 
z
" id="DejaVuSans-82"/>
       <path d="M 45.40625 46.390625 
L 45.40625 75.984375 
L 54.390625 75.984375 
L 54.390625 0 
L 45.40625 0 
L 45.40625 8.203125 
Q 42.578125 3.328125 38.25 0.953125 
Q 33.9375 -1.421875 27.875 -1.421875 
Q 17.96875 -1.421875 11.734375 6.484375 
Q 5.515625 14.40625 5.515625 27.296875 
Q 5.515625 40.1875 11.734375 48.09375 
Q 17.96875 56 27.875 56 
Q 33.9375 56 38.25 53.625 
Q 42.578125 51.265625 45.40625 46.390625 
z
M 14.796875 27.296875 
Q 14.796875 17.390625 18.875 11.75 
Q 22.953125 6.109375 30.078125 6.109375 
Q 37.203125 6.109375 41.296875 11.75 
Q 45.40625 17.390625 45.40625 27.296875 
Q 45.40625 37.203125 41.296875 42.84375 
Q 37.203125 48.484375 30.078125 48.484375 
Q 22.953125 48.484375 18.875 42.84375 
Q 14.796875 37.203125 14.796875 27.296875 
z
" id="DejaVuSans-100"/>
       <path d="M 9.8125 72.90625 
L 51.703125 72.90625 
L 51.703125 64.59375 
L 19.671875 64.59375 
L 19.671875 43.109375 
L 48.578125 43.109375 
L 48.578125 34.8125 
L 19.671875 34.8125 
L 19.671875 0 
L 9.8125 0 
z
" id="DejaVuSans-70"/>
      </defs>
      <use xlink:href="#DejaVuSans-82"/>
      <use x="67.232422" xlink:href="#DejaVuSans-97"/>
      <use x="128.511719" xlink:href="#DejaVuSans-110"/>
      <use x="191.890625" xlink:href="#DejaVuSans-100"/>
      <use x="255.367188" xlink:href="#DejaVuSans-111"/>
      <use x="316.548828" xlink:href="#DejaVuSans-109"/>
      <use x="413.960938" xlink:href="#DejaVuSans-32"/>
      <use x="445.748047" xlink:href="#DejaVuSans-70"/>
      <use x="499.642578" xlink:href="#DejaVuSans-111"/>
      <use x="560.824219" xlink:href="#DejaVuSans-114"/>
      <use x="599.6875" xlink:href="#DejaVuSans-101"/>
      <use x="661.210938" xlink:href="#DejaVuSans-115"/>
      <use x="713.310547" xlink:href="#DejaVuSans-116"/>
     </g>
    </g>
    <g id="line2d_22">
     <path d="M 66.6 69.248563 
L 86.6 69.248563 
" style="fill:none;stroke:#ff7f0e;stroke-linecap:square;stroke-width:1.5;"/>
    </g>
    <g id="line2d_23"/>
    <g id="text_20">
     <!-- AdaBoost -->
     <g transform="translate(94.6 72.748563)scale(0.1 -0.1)">
      <defs>
       <path d="M 19.671875 34.8125 
L 19.671875 8.109375 
L 35.5 8.109375 
Q 43.453125 8.109375 47.28125 11.40625 
Q 51.125 14.703125 51.125 21.484375 
Q 51.125 28.328125 47.28125 31.5625 
Q 43.453125 34.8125 35.5 34.8125 
z
M 19.671875 64.796875 
L 19.671875 42.828125 
L 34.28125 42.828125 
Q 41.5 42.828125 45.03125 45.53125 
Q 48.578125 48.25 48.578125 53.8125 
Q 48.578125 59.328125 45.03125 62.0625 
Q 41.5 64.796875 34.28125 64.796875 
z
M 9.8125 72.90625 
L 35.015625 72.90625 
Q 46.296875 72.90625 52.390625 68.21875 
Q 58.5 63.53125 58.5 54.890625 
Q 58.5 48.1875 55.375 44.234375 
Q 52.25 40.28125 46.1875 39.3125 
Q 53.46875 37.75 57.5 32.78125 
Q 61.53125 27.828125 61.53125 20.40625 
Q 61.53125 10.640625 54.890625 5.3125 
Q 48.25 0 35.984375 0 
L 9.8125 0 
z
" id="DejaVuSans-66"/>
      </defs>
      <use xlink:href="#DejaVuSans-65"/>
      <use x="66.658203" xlink:href="#DejaVuSans-100"/>
      <use x="130.134766" xlink:href="#DejaVuSans-97"/>
      <use x="191.414062" xlink:href="#DejaVuSans-66"/>
      <use x="260.017578" xlink:href="#DejaVuSans-111"/>
      <use x="321.199219" xlink:href="#DejaVuSans-111"/>
      <use x="382.380859" xlink:href="#DejaVuSans-115"/>
      <use x="434.480469" xlink:href="#DejaVuSans-116"/>
     </g>
    </g>
    <g id="line2d_24">
     <path d="M 66.6 83.926688 
L 86.6 83.926688 
" style="fill:none;stroke:#2ca02c;stroke-linecap:square;stroke-width:1.5;"/>
    </g>
    <g id="line2d_25"/>
    <g id="text_21">
     <!-- LightGBM -->
     <g transform="translate(94.6 87.426688)scale(0.1 -0.1)">
      <defs>
       <path d="M 9.8125 72.90625 
L 19.671875 72.90625 
L 19.671875 8.296875 
L 55.171875 8.296875 
L 55.171875 0 
L 9.8125 0 
z
" id="DejaVuSans-76"/>
       <path d="M 45.40625 27.984375 
Q 45.40625 37.75 41.375 43.109375 
Q 37.359375 48.484375 30.078125 48.484375 
Q 22.859375 48.484375 18.828125 43.109375 
Q 14.796875 37.75 14.796875 27.984375 
Q 14.796875 18.265625 18.828125 12.890625 
Q 22.859375 7.515625 30.078125 7.515625 
Q 37.359375 7.515625 41.375 12.890625 
Q 45.40625 18.265625 45.40625 27.984375 
z
M 54.390625 6.78125 
Q 54.390625 -7.171875 48.1875 -13.984375 
Q 42 -20.796875 29.203125 -20.796875 
Q 24.46875 -20.796875 20.265625 -20.09375 
Q 16.0625 -19.390625 12.109375 -17.921875 
L 12.109375 -9.1875 
Q 16.0625 -11.328125 19.921875 -12.34375 
Q 23.78125 -13.375 27.78125 -13.375 
Q 36.625 -13.375 41.015625 -8.765625 
Q 45.40625 -4.15625 45.40625 5.171875 
L 45.40625 9.625 
Q 42.625 4.78125 38.28125 2.390625 
Q 33.9375 0 27.875 0 
Q 17.828125 0 11.671875 7.65625 
Q 5.515625 15.328125 5.515625 27.984375 
Q 5.515625 40.671875 11.671875 48.328125 
Q 17.828125 56 27.875 56 
Q 33.9375 56 38.28125 53.609375 
Q 42.625 51.21875 45.40625 46.390625 
L 45.40625 54.6875 
L 54.390625 54.6875 
z
" id="DejaVuSans-103"/>
       <path d="M 54.890625 33.015625 
L 54.890625 0 
L 45.90625 0 
L 45.90625 32.71875 
Q 45.90625 40.484375 42.875 44.328125 
Q 39.84375 48.1875 33.796875 48.1875 
Q 26.515625 48.1875 22.3125 43.546875 
Q 18.109375 38.921875 18.109375 30.90625 
L 18.109375 0 
L 9.078125 0 
L 9.078125 75.984375 
L 18.109375 75.984375 
L 18.109375 46.1875 
Q 21.34375 51.125 25.703125 53.5625 
Q 30.078125 56 35.796875 56 
Q 45.21875 56 50.046875 50.171875 
Q 54.890625 44.34375 54.890625 33.015625 
z
" id="DejaVuSans-104"/>
       <path d="M 59.515625 10.40625 
L 59.515625 29.984375 
L 43.40625 29.984375 
L 43.40625 38.09375 
L 69.28125 38.09375 
L 69.28125 6.78125 
Q 63.578125 2.734375 56.6875 0.65625 
Q 49.8125 -1.421875 42 -1.421875 
Q 24.90625 -1.421875 15.25 8.5625 
Q 5.609375 18.5625 5.609375 36.375 
Q 5.609375 54.25 15.25 64.234375 
Q 24.90625 74.21875 42 74.21875 
Q 49.125 74.21875 55.546875 72.453125 
Q 61.96875 70.703125 67.390625 67.28125 
L 67.390625 56.78125 
Q 61.921875 61.421875 55.765625 63.765625 
Q 49.609375 66.109375 42.828125 66.109375 
Q 29.4375 66.109375 22.71875 58.640625 
Q 16.015625 51.171875 16.015625 36.375 
Q 16.015625 21.625 22.71875 14.15625 
Q 29.4375 6.6875 42.828125 6.6875 
Q 48.046875 6.6875 52.140625 7.59375 
Q 56.25 8.5 59.515625 10.40625 
z
" id="DejaVuSans-71"/>
       <path d="M 9.8125 72.90625 
L 24.515625 72.90625 
L 43.109375 23.296875 
L 61.8125 72.90625 
L 76.515625 72.90625 
L 76.515625 0 
L 66.890625 0 
L 66.890625 64.015625 
L 48.09375 14.015625 
L 38.1875 14.015625 
L 19.390625 64.015625 
L 19.390625 0 
L 9.8125 0 
z
" id="DejaVuSans-77"/>
      </defs>
      <use xlink:href="#DejaVuSans-76"/>
      <use x="55.712891" xlink:href="#DejaVuSans-105"/>
      <use x="83.496094" xlink:href="#DejaVuSans-103"/>
      <use x="146.972656" xlink:href="#DejaVuSans-104"/>
      <use x="210.351562" xlink:href="#DejaVuSans-116"/>
      <use x="249.560547" xlink:href="#DejaVuSans-71"/>
      <use x="327.050781" xlink:href="#DejaVuSans-66"/>
      <use x="395.654297" xlink:href="#DejaVuSans-77"/>
     </g>
    </g>
    <g id="line2d_26">
     <path d="M 66.6 98.604813 
L 86.6 98.604813 
" style="fill:none;stroke:#d62728;stroke-linecap:square;stroke-width:1.5;"/>
    </g>
    <g id="line2d_27"/>
    <g id="text_22">
     <!-- XGBoost -->
     <g transform="translate(94.6 102.104813)scale(0.1 -0.1)">
      <defs>
       <path d="M 6.296875 72.90625 
L 16.890625 72.90625 
L 35.015625 45.796875 
L 53.21875 72.90625 
L 63.8125 72.90625 
L 40.375 37.890625 
L 65.375 0 
L 54.78125 0 
L 34.28125 31 
L 13.625 0 
L 2.984375 0 
L 29 38.921875 
z
" id="DejaVuSans-88"/>
      </defs>
      <use xlink:href="#DejaVuSans-88"/>
      <use x="68.505859" xlink:href="#DejaVuSans-71"/>
      <use x="145.996094" xlink:href="#DejaVuSans-66"/>
      <use x="214.599609" xlink:href="#DejaVuSans-111"/>
      <use x="275.78125" xlink:href="#DejaVuSans-111"/>
      <use x="336.962891" xlink:href="#DejaVuSans-115"/>
      <use x="389.0625" xlink:href="#DejaVuSans-116"/>
     </g>
    </g>
   </g>
  </g>
 </g>
 <defs>
  <clipPath id="pc26ef20bf0">
   <rect height="266.112" width="357.12" x="57.6" y="41.472"/>
  </clipPath>
 </defs>
</svg>
