<?xml version="1.0" encoding="utf-8" standalone="no"?>
<!DOCTYPE svg PUBLIC "-//W3C//DTD SVG 1.1//EN"
  "http://www.w3.org/Graphics/SVG/1.1/DTD/svg11.dtd">
<!-- Created with matplotlib (https://matplotlib.org/) -->
<svg height="345.6pt" version="1.1" viewBox="0 0 460.8 345.6" width="460.8pt" xmlns="http://www.w3.org/2000/svg" xmlns:xlink="http://www.w3.org/1999/xlink">
 <metadata>
  <rdf:RDF xmlns:cc="http://creativecommons.org/ns#" xmlns:dc="http://purl.org/dc/elements/1.1/" xmlns:rdf="http://www.w3.org/1999/02/22-rdf-syntax-ns#">
   <cc:Work>
    <dc:type rdf:resource="http://purl.org/dc/dcmitype/StillImage"/>
    <dc:date>2023-09-19T15:42:18.601616</dc:date>
    <dc:format>image/svg+xml</dc:format>
    <dc:creator>
     <cc:Agent>
      <dc:title>Matplotlib v3.3.4, https://matplotlib.org/</dc:title>
     </cc:Agent>
    </dc:creator>
   </cc:Work>
  </rdf:RDF>
 </metadata>
 <defs>
  <style type="text/css">*{stroke-linecap:butt;stroke-linejoin:round;}</style>
 </defs>
 <g id="figure_1">
  <g id="patch_1">
   <path d="M 0 345.6 
L 460.8 345.6 
L 460.8 0 
L 0 0 
z
" style="fill:#ffffff;"/>
  </g>
  <g id="axes_1">
   <g id="patch_2">
    <path d="M 57.6 307.584 
L 414.72 307.584 
L 414.72 41.472 
L 57.6 41.472 
z
" style="fill:#ffffff;"/>
   </g>
   <g id="PolyCollection_1">
    <path clip-path="url(#p92f3ace2d4)" d="M 73.832727 218.742483 
L 73.832727 218.742483 
L 77.112066 225.934119 
L 80.391405 220.475975 
L 83.670744 214.607828 
L 86.950083 205.160966 
L 90.229421 210.043659 
L 93.50876 208.283748 
L 96.788099 198.634201 
L 100.067438 200.652711 
L 103.346777 202.850413 
L 106.626116 211.836842 
L 109.905455 205.561703 
L 113.184793 202.939931 
L 116.464132 197.09963 
L 119.743471 197.513923 
L 123.02281 204.504959 
L 126.302149 204.291659 
L 129.581488 205.292797 
L 132.860826 204.228431 
L 136.140165 199.683191 
L 139.419504 202.939931 
L 142.698843 203.472501 
L 145.978182 197.395524 
L 149.257521 203.139385 
L 152.53686 210.729584 
L 155.816198 207.961404 
L 159.095537 205.710632 
L 162.374876 205.483318 
L 165.654215 210.885686 
L 168.933554 208.941339 
L 172.212893 208.835183 
L 175.492231 211.745172 
L 178.77157 213.117574 
L 182.050909 225.184545 
L 185.330248 215.979752 
L 188.609587 217.68315 
L 191.888926 217.145205 
L 195.168264 197.936638 
L 198.447603 217.44598 
L 201.726942 225.059723 
L 205.006281 211.186918 
L 208.28562 224.839751 
L 211.564959 215.261852 
L 214.844298 244.804371 
L 218.123636 223.458945 
L 221.402975 236.13576 
L 224.682314 236.613648 
L 227.961653 229.464023 
L 231.240992 222.665207 
L 234.520331 234.347779 
L 237.799669 241.439225 
L 241.079008 242.441038 
L 244.358347 251.55078 
L 247.637686 240.57998 
L 250.917025 249.997021 
L 254.196364 251.55078 
L 257.475702 251.594682 
L 260.755041 253.673358 
L 264.03438 253.673358 
L 267.313719 256.313141 
L 270.593058 248.12823 
L 273.872397 263.837609 
L 277.151736 256.656891 
L 280.431074 260.461614 
L 283.710413 260.450549 
L 286.989752 262.321061 
L 290.269091 259.898804 
L 293.54843 278.720349 
L 296.827769 280.97206 
L 300.107107 258.934868 
L 303.386446 268.727752 
L 306.665785 267.055511 
L 309.945124 273.760292 
L 313.224463 272.261841 
L 316.503802 263.323147 
L 319.78314 275.094545 
L 323.062479 264.748224 
L 326.341818 290.578995 
L 329.621157 274.918258 
L 332.900496 275.516169 
L 336.179835 271.529387 
L 339.459174 276.618615 
L 342.738512 271.306898 
L 346.017851 286.318309 
L 349.29719 279.772554 
L 352.576529 273.050182 
L 355.855868 280.186433 
L 359.135207 273.721685 
L 362.414545 268.656842 
L 365.693884 282.427407 
L 368.973223 280.6991 
L 372.252562 295.488 
L 375.531901 275.762932 
L 378.81124 276.745915 
L 382.090579 270.972879 
L 385.369917 263.958996 
L 388.649256 257.972442 
L 391.928595 244.141734 
L 395.207934 248.984909 
L 398.487273 238.167529 
L 398.487273 205.609231 
L 398.487273 205.609231 
L 395.207934 200.035011 
L 391.928595 187.05144 
L 388.649256 184.755686 
L 385.369917 189.255453 
L 382.090579 172.803881 
L 378.81124 174.37127 
L 375.531901 163.8193 
L 372.252562 154.580553 
L 368.973223 167.272189 
L 365.693884 151.911664 
L 362.414545 144.709585 
L 359.135207 151.179696 
L 355.855868 138.423155 
L 352.576529 153.948463 
L 349.29719 143.031563 
L 346.017851 137.53444 
L 342.738512 122.135518 
L 339.459174 139.893709 
L 336.179835 133.447982 
L 332.900496 126.315305 
L 329.621157 144.739962 
L 326.341818 132.225122 
L 323.062479 121.353767 
L 319.78314 130.931457 
L 316.503802 123.827476 
L 313.224463 131.666897 
L 309.945124 141.703399 
L 306.665785 122.192377 
L 303.386446 138.346882 
L 300.107107 129.264388 
L 296.827769 138.68616 
L 293.54843 126.257021 
L 290.269091 122.008658 
L 286.989752 102.808287 
L 283.710413 130.894602 
L 280.431074 117.25132 
L 277.151736 122.104675 
L 273.872397 124.361647 
L 270.593058 133.779232 
L 267.313719 113.010736 
L 264.03438 108.310093 
L 260.755041 108.310093 
L 257.475702 115.63193 
L 254.196364 117.773096 
L 250.917025 113.035062 
L 247.637686 115.111678 
L 244.358347 117.773096 
L 241.079008 118.493781 
L 237.799669 112.155169 
L 234.520331 97.22534 
L 231.240992 101.567487 
L 227.961653 114.692682 
L 224.682314 112.786217 
L 221.402975 105.92368 
L 218.123636 108.114174 
L 214.844298 105.644127 
L 211.564959 112.116738 
L 208.28562 111.976528 
L 205.006281 101.510822 
L 201.726942 116.999717 
L 198.447603 106.786714 
L 195.168264 102.177515 
L 191.888926 115.476545 
L 188.609587 114.938601 
L 185.330248 105.107045 
L 182.050909 104.291309 
L 178.77157 106.920591 
L 175.492231 107.24436 
L 172.212893 113.300246 
L 168.933554 107.950929 
L 165.654215 107.055215 
L 162.374876 109.311685 
L 159.095537 108.035739 
L 155.816198 113.125393 
L 152.53686 105.114052 
L 149.257521 111.655619 
L 145.978182 111.107687 
L 142.698843 114.468399 
L 139.419504 120.244131 
L 136.140165 116.160445 
L 132.860826 108.469308 
L 129.581488 114.745368 
L 126.302149 125.184195 
L 123.02281 119.727734 
L 119.743471 120.426977 
L 116.464132 112.452213 
L 113.184793 120.244131 
L 109.905455 111.330565 
L 106.626116 122.882173 
L 103.346777 115.090488 
L 100.067438 121.482718 
L 96.788099 118.258067 
L 93.50876 128.532531 
L 90.229421 139.356206 
L 86.950083 140.044371 
L 83.670744 141.08383 
L 80.391405 160.382855 
L 77.112066 170.654194 
L 73.832727 218.742483 
z
" style="fill:#1f77b4;fill-opacity:0.2;"/>
   </g>
   <g id="PolyCollection_2">
    <path clip-path="url(#p92f3ace2d4)" d="M 73.832727 113.879267 
L 73.832727 113.879267 
L 77.112066 126.767166 
L 80.391405 132.4207 
L 83.670744 135.880369 
L 86.950083 132.586739 
L 90.229421 142.597242 
L 93.50876 148.974723 
L 96.788099 142.081399 
L 100.067438 145.189229 
L 103.346777 151.445753 
L 106.626116 149.338342 
L 109.905455 161.81243 
L 113.184793 154.301989 
L 116.464132 160.409145 
L 119.743471 160.540485 
L 123.02281 151.898027 
L 126.302149 158.899532 
L 129.581488 161.740229 
L 132.860826 160.092319 
L 136.140165 163.110333 
L 139.419504 177.899303 
L 142.698843 164.891079 
L 145.978182 159.1981 
L 149.257521 163.409029 
L 152.53686 186.804881 
L 155.816198 182.010672 
L 159.095537 187.288158 
L 162.374876 187.084625 
L 165.654215 185.470151 
L 168.933554 179.214475 
L 172.212893 186.907724 
L 175.492231 182.404513 
L 178.77157 174.892179 
L 182.050909 189.912661 
L 185.330248 190.981188 
L 188.609587 212.556995 
L 191.888926 190.911671 
L 195.168264 182.579592 
L 198.447603 204.096005 
L 201.726942 205.916094 
L 205.006281 194.28221 
L 208.28562 214.383906 
L 211.564959 201.808802 
L 214.844298 214.704293 
L 218.123636 196.76417 
L 221.402975 194.235487 
L 224.682314 226.34454 
L 227.961653 219.264719 
L 231.240992 212.402205 
L 234.520331 223.109027 
L 237.799669 226.123858 
L 241.079008 219.544406 
L 244.358347 222.892057 
L 247.637686 225.00896 
L 250.917025 222.0867 
L 254.196364 217.510072 
L 257.475702 244.328065 
L 260.755041 249.851124 
L 264.03438 218.588567 
L 267.313719 234.416334 
L 270.593058 229.411647 
L 273.872397 240.488262 
L 277.151736 229.712329 
L 280.431074 235.598811 
L 283.710413 256.313668 
L 286.989752 264.250742 
L 290.269091 239.443443 
L 293.54843 241.725582 
L 296.827769 240.914534 
L 300.107107 255.597118 
L 303.386446 249.379071 
L 306.665785 235.304375 
L 309.945124 260.578608 
L 313.224463 249.344222 
L 316.503802 247.715346 
L 319.78314 270.141741 
L 323.062479 255.995671 
L 326.341818 276.57133 
L 329.621157 261.714852 
L 332.900496 273.624983 
L 336.179835 272.671382 
L 339.459174 256.877245 
L 342.738512 263.264137 
L 346.017851 278.102935 
L 349.29719 274.027286 
L 352.576529 271.675377 
L 355.855868 284.261083 
L 359.135207 266.408081 
L 362.414545 254.880676 
L 365.693884 285.80284 
L 368.973223 283.668293 
L 372.252562 284.745789 
L 375.531901 288.291956 
L 378.81124 279.735164 
L 382.090579 287.782065 
L 385.369917 288.208343 
L 388.649256 278.647674 
L 391.928595 281.89141 
L 395.207934 260.486629 
L 398.487273 249.232693 
L 398.487273 187.203641 
L 398.487273 187.203641 
L 395.207934 175.949705 
L 391.928595 165.031247 
L 388.649256 154.642764 
L 385.369917 139.838935 
L 382.090579 136.070684 
L 378.81124 135.728528 
L 375.531901 126.123103 
L 372.252562 121.280213 
L 368.973223 142.28172 
L 365.693884 127.563587 
L 362.414545 109.20004 
L 359.135207 120.742542 
L 355.855868 113.375862 
L 352.576529 116.523878 
L 349.29719 127.804188 
L 346.017851 104.85316 
L 342.738512 111.3029 
L 339.459174 106.154838 
L 336.179835 109.23608 
L 332.900496 124.011961 
L 329.621157 108.657657 
L 326.341818 97.995707 
L 323.062479 101.793251 
L 319.78314 101.2794 
L 316.503802 95.392726 
L 313.224463 96.909747 
L 309.945124 104.55074 
L 306.665785 93.122847 
L 303.386446 79.048151 
L 300.107107 89.608219 
L 296.827769 102.193538 
L 293.54843 96.139329 
L 290.269091 87.935147 
L 286.989752 97.732709 
L 283.710413 97.280726 
L 280.431074 94.925676 
L 277.151736 88.228571 
L 273.872397 91.084857 
L 270.593058 96.918311 
L 267.313719 96.108152 
L 264.03438 79.428323 
L 260.755041 93.256948 
L 257.475702 75.7101 
L 254.196364 92.041771 
L 250.917025 83.270614 
L 247.637686 73.007929 
L 244.358347 76.173464 
L 241.079008 81.61838 
L 237.799669 91.817042 
L 234.520331 79.102391 
L 231.240992 87.711948 
L 227.961653 87.141228 
L 224.682314 95.790889 
L 221.402975 82.808759 
L 218.123636 68.745122 
L 214.844298 73.874907 
L 211.564959 88.867662 
L 208.28562 80.487087 
L 205.006281 69.129818 
L 201.726942 81.614474 
L 198.447603 76.094137 
L 195.168264 53.568 
L 191.888926 79.840782 
L 188.609587 67.633147 
L 185.330248 80.819897 
L 182.050909 80.839792 
L 178.77157 71.741734 
L 175.492231 77.861619 
L 172.212893 77.552936 
L 168.933554 75.808496 
L 165.654215 74.79598 
L 162.374876 79.4733 
L 159.095537 68.783444 
L 155.816198 70.915035 
L 152.53686 72.412618 
L 149.257521 68.544034 
L 145.978182 69.609066 
L 142.698843 66.013351 
L 139.419504 75.026403 
L 136.140165 62.550937 
L 132.860826 62.423055 
L 129.581488 74.407362 
L 126.302149 81.442588 
L 123.02281 69.568714 
L 119.743471 66.169417 
L 116.464132 68.398022 
L 113.184793 72.407913 
L 109.905455 68.043369 
L 106.626116 73.177032 
L 103.346777 71.06962 
L 100.067438 75.22888 
L 96.788099 67.850388 
L 93.50876 75.637915 
L 90.229421 85.161293 
L 86.950083 83.636841 
L 83.670744 81.391844 
L 80.391405 93.24057 
L 77.112066 95.748208 
L 73.832727 113.879267 
z
" style="fill:#ff7f0e;fill-opacity:0.2;"/>
   </g>
   <g id="PolyCollection_3">
    <path clip-path="url(#p92f3ace2d4)" d="M 73.832727 113.879267 
L 73.832727 113.879267 
L 77.112066 129.476981 
L 80.391405 127.070284 
L 83.670744 131.517548 
L 86.950083 138.328306 
L 90.229421 140.177687 
L 93.50876 142.870678 
L 96.788099 151.189235 
L 100.067438 150.051726 
L 103.346777 150.717002 
L 106.626116 152.924885 
L 109.905455 150.03366 
L 113.184793 158.29423 
L 116.464132 163.356644 
L 119.743471 163.864972 
L 123.02281 160.678078 
L 126.302149 167.942467 
L 129.581488 171.561218 
L 132.860826 170.836247 
L 136.140165 169.896976 
L 139.419504 158.636612 
L 142.698843 165.423762 
L 145.978182 178.088122 
L 149.257521 162.879238 
L 152.53686 173.812819 
L 155.816198 179.822903 
L 159.095537 173.050711 
L 162.374876 179.924584 
L 165.654215 181.670836 
L 168.933554 182.366785 
L 172.212893 178.775144 
L 175.492231 176.923581 
L 178.77157 171.600269 
L 182.050909 184.795934 
L 185.330248 176.295254 
L 188.609587 187.001252 
L 191.888926 190.674936 
L 195.168264 184.892657 
L 198.447603 198.239074 
L 201.726942 199.486341 
L 205.006281 180.947484 
L 208.28562 193.283203 
L 211.564959 192.697822 
L 214.844298 185.576317 
L 218.123636 169.155006 
L 221.402975 198.868864 
L 224.682314 195.075382 
L 227.961653 191.50817 
L 231.240992 205.321599 
L 234.520331 202.979523 
L 237.799669 213.260503 
L 241.079008 209.661787 
L 244.358347 197.936638 
L 247.637686 212.670766 
L 250.917025 204.77553 
L 254.196364 197.775866 
L 257.475702 212.360224 
L 260.755041 213.300429 
L 264.03438 220.955634 
L 267.313719 221.935175 
L 270.593058 217.285685 
L 273.872397 213.038171 
L 277.151736 214.726019 
L 280.431074 223.165353 
L 283.710413 208.380858 
L 286.989752 218.441307 
L 290.269091 216.88788 
L 293.54843 220.821019 
L 296.827769 226.726718 
L 300.107107 222.080109 
L 303.386446 225.165209 
L 306.665785 224.507577 
L 309.945124 236.408354 
L 313.224463 229.429353 
L 316.503802 235.73665 
L 319.78314 233.109718 
L 323.062479 229.703503 
L 326.341818 243.587502 
L 329.621157 233.935512 
L 332.900496 236.071609 
L 336.179835 230.131606 
L 339.459174 227.997187 
L 342.738512 232.737287 
L 346.017851 236.935385 
L 349.29719 239.073878 
L 352.576529 234.916281 
L 355.855868 237.960976 
L 359.135207 244.692869 
L 362.414545 241.765762 
L 365.693884 242.543246 
L 368.973223 249.861571 
L 372.252562 247.871237 
L 375.531901 237.190386 
L 378.81124 234.905903 
L 382.090579 246.853392 
L 385.369917 240.312171 
L 388.649256 238.644639 
L 391.928595 239.166068 
L 395.207934 233.805997 
L 398.487273 223.435046 
L 398.487273 213.001288 
L 398.487273 213.001288 
L 395.207934 193.192648 
L 391.928595 183.638049 
L 388.649256 188.354007 
L 385.369917 183.540578 
L 382.090579 165.464403 
L 378.81124 171.120099 
L 375.531901 160.446558 
L 372.252562 165.49519 
L 368.973223 167.699384 
L 365.693884 142.510113 
L 362.414545 147.482125 
L 359.135207 139.311858 
L 355.855868 133.460164 
L 352.576529 149.088445 
L 349.29719 133.395894 
L 346.017851 144.972078 
L 342.738512 115.613946 
L 339.459174 135.034896 
L 336.179835 117.170995 
L 332.900496 122.765946 
L 329.621157 120.707514 
L 326.341818 114.20142 
L 323.062479 113.40457 
L 319.78314 108.949722 
L 316.503802 121.00364 
L 313.224463 116.824616 
L 309.945124 106.699719 
L 306.665785 109.162806 
L 303.386446 107.456541 
L 300.107107 115.784802 
L 296.827769 118.478619 
L 293.54843 103.411674 
L 290.269091 114.685239 
L 286.989752 111.034547 
L 283.710413 98.025089 
L 280.431074 107.359134 
L 277.151736 112.652571 
L 273.872397 95.465039 
L 270.593058 96.460687 
L 267.313719 104.394782 
L 264.03438 102.228428 
L 260.755041 105.689104 
L 257.475702 90.899826 
L 254.196364 106.532816 
L 250.917025 101.630416 
L 247.637686 100.026974 
L 244.358347 102.177515 
L 241.079008 103.035953 
L 237.799669 98.388605 
L 234.520331 104.475056 
L 231.240992 95.841187 
L 227.961653 100.216926 
L 224.682314 100.844243 
L 221.402975 89.710336 
L 218.123636 91.111125 
L 214.844298 93.565193 
L 211.564959 83.297792 
L 208.28562 90.052836 
L 205.006281 93.999498 
L 201.726942 101.676445 
L 198.447603 93.486022 
L 195.168264 95.297486 
L 191.888926 87.417942 
L 188.609587 101.577948 
L 185.330248 90.26267 
L 182.050909 96.44284 
L 178.77157 100.200816 
L 175.492231 85.439815 
L 172.212893 86.734148 
L 168.933554 97.823357 
L 165.654215 83.838457 
L 162.374876 90.827869 
L 159.095537 83.020892 
L 155.816198 93.026814 
L 152.53686 88.550576 
L 149.257521 90.046468 
L 145.978182 91.615699 
L 142.698843 80.161519 
L 139.419504 96.386359 
L 136.140165 88.271891 
L 132.860826 95.721678 
L 129.581488 94.996707 
L 126.302149 97.566826 
L 123.02281 89.101731 
L 119.743471 96.401159 
L 116.464132 100.055384 
L 113.184793 91.48558 
L 109.905455 91.357092 
L 106.626116 96.854925 
L 103.346777 93.819647 
L 100.067438 98.679452 
L 96.788099 101.736471 
L 93.50876 101.665971 
L 90.229421 100.164434 
L 86.950083 103.062446 
L 83.670744 102.532779 
L 80.391405 103.834147 
L 77.112066 104.573347 
L 73.832727 113.879267 
z
" style="fill:#2ca02c;fill-opacity:0.2;"/>
   </g>
   <g id="PolyCollection_4">
    <path clip-path="url(#p92f3ace2d4)" d="M 73.832727 166.310875 
L 73.832727 166.310875 
L 77.112066 182.612908 
L 80.391405 183.868099 
L 83.670744 193.888204 
L 86.950083 188.601207 
L 90.229421 203.85138 
L 93.50876 195.060776 
L 96.788099 209.955599 
L 100.067438 216.048025 
L 103.346777 214.794125 
L 106.626116 221.706151 
L 109.905455 222.452807 
L 113.184793 221.204838 
L 116.464132 217.213698 
L 119.743471 225.659316 
L 123.02281 231.20397 
L 126.302149 236.899102 
L 129.581488 235.876712 
L 132.860826 240.104377 
L 136.140165 248.199416 
L 139.419504 244.197436 
L 142.698843 245.887603 
L 145.978182 244.34986 
L 149.257521 247.652787 
L 152.53686 237.625044 
L 155.816198 247.871237 
L 159.095537 249.225568 
L 162.374876 252.460231 
L 165.654215 236.974136 
L 168.933554 240.743585 
L 172.212893 241.336101 
L 175.492231 243.29781 
L 178.77157 241.08935 
L 182.050909 240.004637 
L 185.330248 239.96975 
L 188.609587 230.88892 
L 191.888926 234.487847 
L 195.168264 236.257644 
L 198.447603 241.029889 
L 201.726942 236.130249 
L 205.006281 233.092372 
L 208.28562 234.960823 
L 211.564959 235.044516 
L 214.844298 226.113698 
L 218.123636 227.28444 
L 221.402975 225.034276 
L 224.682314 226.113698 
L 227.961653 228.12761 
L 231.240992 229.930501 
L 234.520331 226.157433 
L 237.799669 223.435046 
L 241.079008 218.742483 
L 244.358347 227.28444 
L 247.637686 224.483679 
L 250.917025 218.742483 
L 254.196364 218.742483 
L 257.475702 218.742483 
L 260.755041 218.742483 
L 264.03438 218.742483 
L 267.313719 218.742483 
L 270.593058 218.742483 
L 273.872397 218.742483 
L 277.151736 218.742483 
L 280.431074 218.742483 
L 283.710413 218.742483 
L 286.989752 218.742483 
L 290.269091 218.742483 
L 293.54843 218.742483 
L 296.827769 223.435046 
L 300.107107 218.742483 
L 303.386446 218.742483 
L 306.665785 218.742483 
L 309.945124 218.742483 
L 313.224463 218.742483 
L 316.503802 218.742483 
L 319.78314 218.742483 
L 323.062479 218.742483 
L 326.341818 218.742483 
L 329.621157 218.742483 
L 332.900496 218.742483 
L 336.179835 218.742483 
L 339.459174 218.742483 
L 342.738512 218.742483 
L 346.017851 218.742483 
L 349.29719 218.742483 
L 352.576529 218.742483 
L 355.855868 218.742483 
L 359.135207 218.742483 
L 362.414545 218.742483 
L 365.693884 218.742483 
L 368.973223 218.742483 
L 372.252562 218.742483 
L 375.531901 218.742483 
L 378.81124 218.742483 
L 382.090579 218.742483 
L 385.369917 218.742483 
L 388.649256 218.742483 
L 391.928595 218.742483 
L 395.207934 218.742483 
L 398.487273 218.742483 
L 398.487273 218.742483 
L 398.487273 218.742483 
L 395.207934 218.742483 
L 391.928595 218.742483 
L 388.649256 218.742483 
L 385.369917 218.742483 
L 382.090579 218.742483 
L 378.81124 218.742483 
L 375.531901 218.742483 
L 372.252562 218.742483 
L 368.973223 218.742483 
L 365.693884 218.742483 
L 362.414545 218.742483 
L 359.135207 218.742483 
L 355.855868 218.742483 
L 352.576529 218.742483 
L 349.29719 218.742483 
L 346.017851 218.742483 
L 342.738512 218.742483 
L 339.459174 218.742483 
L 336.179835 218.742483 
L 332.900496 218.742483 
L 329.621157 218.742483 
L 326.341818 218.742483 
L 323.062479 218.742483 
L 319.78314 218.742483 
L 316.503802 218.742483 
L 313.224463 218.742483 
L 309.945124 218.742483 
L 306.665785 218.742483 
L 303.386446 218.742483 
L 300.107107 218.742483 
L 296.827769 213.001288 
L 293.54843 218.742483 
L 290.269091 218.742483 
L 286.989752 218.742483 
L 283.710413 218.742483 
L 280.431074 218.742483 
L 277.151736 218.742483 
L 273.872397 218.742483 
L 270.593058 218.742483 
L 267.313719 218.742483 
L 264.03438 218.742483 
L 260.755041 218.742483 
L 257.475702 218.742483 
L 254.196364 218.742483 
L 250.917025 218.742483 
L 247.637686 214.04992 
L 244.358347 209.151895 
L 241.079008 218.742483 
L 237.799669 213.001288 
L 234.520331 211.327534 
L 231.240992 206.505833 
L 227.961653 207.260093 
L 224.682314 208.225373 
L 221.402975 210.353426 
L 218.123636 209.151895 
L 214.844298 208.225373 
L 211.564959 195.100026 
L 208.28562 196.232351 
L 205.006281 200.198066 
L 201.726942 187.722499 
L 198.447603 189.114653 
L 195.168264 195.984162 
L 191.888926 199.851223 
L 188.609587 196.109725 
L 185.330248 194.36932 
L 182.050909 192.237169 
L 178.77157 190.103824 
L 175.492231 189.992628 
L 172.212893 178.32212 
L 168.933554 186.25506 
L 165.654215 179.538187 
L 162.374876 167.197989 
L 159.095537 173.578549 
L 155.816198 165.49519 
L 152.53686 161.060533 
L 149.257521 145.789629 
L 145.978182 162.724774 
L 142.698843 153.846606 
L 139.419504 150.293612 
L 136.140165 155.729322 
L 132.860826 132.365396 
L 129.581488 142.884854 
L 126.302149 128.230246 
L 123.02281 141.265803 
L 119.743471 130.032342 
L 116.464132 123.79711 
L 113.184793 122.951866 
L 109.905455 119.606634 
L 106.626116 119.304657 
L 103.346777 107.341304 
L 100.067438 121.816886 
L 96.788099 116.374358 
L 93.50876 116.588331 
L 90.229421 120.381314 
L 86.950083 118.853372 
L 83.670744 135.58765 
L 80.391405 137.218698 
L 77.112066 142.668418 
L 73.832727 166.310875 
z
" style="fill:#d62728;fill-opacity:0.2;"/>
   </g>
   <g id="matplotlib.axis_1">
    <g id="xtick_1">
     <g id="line2d_1">
      <defs>
       <path d="M 0 0 
L 0 3.5 
" id="m1872875f5d" style="stroke:#000000;stroke-width:0.8;"/>
      </defs>
      <g>
       <use style="stroke:#000000;stroke-width:0.8;" x="401.766612" xlink:href="#m1872875f5d" y="307.584"/>
      </g>
     </g>
     <g id="text_1">
      <!-- 0 -->
      <g transform="translate(398.585362 322.182437)scale(0.1 -0.1)">
       <defs>
        <path d="M 31.78125 66.40625 
Q 24.171875 66.40625 20.328125 58.90625 
Q 16.5 51.421875 16.5 36.375 
Q 16.5 21.390625 20.328125 13.890625 
Q 24.171875 6.390625 31.78125 6.390625 
Q 39.453125 6.390625 43.28125 13.890625 
Q 47.125 21.390625 47.125 36.375 
Q 47.125 51.421875 43.28125 58.90625 
Q 39.453125 66.40625 31.78125 66.40625 
z
M 31.78125 74.21875 
Q 44.046875 74.21875 50.515625 64.515625 
Q 56.984375 54.828125 56.984375 36.375 
Q 56.984375 17.96875 50.515625 8.265625 
Q 44.046875 -1.421875 31.78125 -1.421875 
Q 19.53125 -1.421875 13.0625 8.265625 
Q 6.59375 17.96875 6.59375 36.375 
Q 6.59375 54.828125 13.0625 64.515625 
Q 19.53125 74.21875 31.78125 74.21875 
z
" id="DejaVuSans-48"/>
       </defs>
       <use xlink:href="#DejaVuSans-48"/>
      </g>
     </g>
    </g>
    <g id="xtick_2">
     <g id="line2d_2">
      <g>
       <use style="stroke:#000000;stroke-width:0.8;" x="336.179835" xlink:href="#m1872875f5d" y="307.584"/>
      </g>
     </g>
     <g id="text_2">
      <!-- 20 -->
      <g transform="translate(329.817335 322.182437)scale(0.1 -0.1)">
       <defs>
        <path d="M 19.1875 8.296875 
L 53.609375 8.296875 
L 53.609375 0 
L 7.328125 0 
L 7.328125 8.296875 
Q 12.9375 14.109375 22.625 23.890625 
Q 32.328125 33.6875 34.8125 36.53125 
Q 39.546875 41.84375 41.421875 45.53125 
Q 43.3125 49.21875 43.3125 52.78125 
Q 43.3125 58.59375 39.234375 62.25 
Q 35.15625 65.921875 28.609375 65.921875 
Q 23.96875 65.921875 18.8125 64.3125 
Q 13.671875 62.703125 7.8125 59.421875 
L 7.8125 69.390625 
Q 13.765625 71.78125 18.9375 73 
Q 24.125 74.21875 28.421875 74.21875 
Q 39.75 74.21875 46.484375 68.546875 
Q 53.21875 62.890625 53.21875 53.421875 
Q 53.21875 48.921875 51.53125 44.890625 
Q 49.859375 40.875 45.40625 35.40625 
Q 44.1875 33.984375 37.640625 27.21875 
Q 31.109375 20.453125 19.1875 8.296875 
z
" id="DejaVuSans-50"/>
       </defs>
       <use xlink:href="#DejaVuSans-50"/>
       <use x="63.623047" xlink:href="#DejaVuSans-48"/>
      </g>
     </g>
    </g>
    <g id="xtick_3">
     <g id="line2d_3">
      <g>
       <use style="stroke:#000000;stroke-width:0.8;" x="270.593058" xlink:href="#m1872875f5d" y="307.584"/>
      </g>
     </g>
     <g id="text_3">
      <!-- 40 -->
      <g transform="translate(264.230558 322.182437)scale(0.1 -0.1)">
       <defs>
        <path d="M 37.796875 64.3125 
L 12.890625 25.390625 
L 37.796875 25.390625 
z
M 35.203125 72.90625 
L 47.609375 72.90625 
L 47.609375 25.390625 
L 58.015625 25.390625 
L 58.015625 17.1875 
L 47.609375 17.1875 
L 47.609375 0 
L 37.796875 0 
L 37.796875 17.1875 
L 4.890625 17.1875 
L 4.890625 26.703125 
z
" id="DejaVuSans-52"/>
       </defs>
       <use xlink:href="#DejaVuSans-52"/>
       <use x="63.623047" xlink:href="#DejaVuSans-48"/>
      </g>
     </g>
    </g>
    <g id="xtick_4">
     <g id="line2d_4">
      <g>
       <use style="stroke:#000000;stroke-width:0.8;" x="205.006281" xlink:href="#m1872875f5d" y="307.584"/>
      </g>
     </g>
     <g id="text_4">
      <!-- 60 -->
      <g transform="translate(198.643781 322.182437)scale(0.1 -0.1)">
       <defs>
        <path d="M 33.015625 40.375 
Q 26.375 40.375 22.484375 35.828125 
Q 18.609375 31.296875 18.609375 23.390625 
Q 18.609375 15.53125 22.484375 10.953125 
Q 26.375 6.390625 33.015625 6.390625 
Q 39.65625 6.390625 43.53125 10.953125 
Q 47.40625 15.53125 47.40625 23.390625 
Q 47.40625 31.296875 43.53125 35.828125 
Q 39.65625 40.375 33.015625 40.375 
z
M 52.59375 71.296875 
L 52.59375 62.3125 
Q 48.875 64.0625 45.09375 64.984375 
Q 41.3125 65.921875 37.59375 65.921875 
Q 27.828125 65.921875 22.671875 59.328125 
Q 17.53125 52.734375 16.796875 39.40625 
Q 19.671875 43.65625 24.015625 45.921875 
Q 28.375 48.1875 33.59375 48.1875 
Q 44.578125 48.1875 50.953125 41.515625 
Q 57.328125 34.859375 57.328125 23.390625 
Q 57.328125 12.15625 50.6875 5.359375 
Q 44.046875 -1.421875 33.015625 -1.421875 
Q 20.359375 -1.421875 13.671875 8.265625 
Q 6.984375 17.96875 6.984375 36.375 
Q 6.984375 53.65625 15.1875 63.9375 
Q 23.390625 74.21875 37.203125 74.21875 
Q 40.921875 74.21875 44.703125 73.484375 
Q 48.484375 72.75 52.59375 71.296875 
z
" id="DejaVuSans-54"/>
       </defs>
       <use xlink:href="#DejaVuSans-54"/>
       <use x="63.623047" xlink:href="#DejaVuSans-48"/>
      </g>
     </g>
    </g>
    <g id="xtick_5">
     <g id="line2d_5">
      <g>
       <use style="stroke:#000000;stroke-width:0.8;" x="139.419504" xlink:href="#m1872875f5d" y="307.584"/>
      </g>
     </g>
     <g id="text_5">
      <!-- 80 -->
      <g transform="translate(133.057004 322.182437)scale(0.1 -0.1)">
       <defs>
        <path d="M 31.78125 34.625 
Q 24.75 34.625 20.71875 30.859375 
Q 16.703125 27.09375 16.703125 20.515625 
Q 16.703125 13.921875 20.71875 10.15625 
Q 24.75 6.390625 31.78125 6.390625 
Q 38.8125 6.390625 42.859375 10.171875 
Q 46.921875 13.96875 46.921875 20.515625 
Q 46.921875 27.09375 42.890625 30.859375 
Q 38.875 34.625 31.78125 34.625 
z
M 21.921875 38.8125 
Q 15.578125 40.375 12.03125 44.71875 
Q 8.5 49.078125 8.5 55.328125 
Q 8.5 64.0625 14.71875 69.140625 
Q 20.953125 74.21875 31.78125 74.21875 
Q 42.671875 74.21875 48.875 69.140625 
Q 55.078125 64.0625 55.078125 55.328125 
Q 55.078125 49.078125 51.53125 44.71875 
Q 48 40.375 41.703125 38.8125 
Q 48.828125 37.15625 52.796875 32.3125 
Q 56.78125 27.484375 56.78125 20.515625 
Q 56.78125 9.90625 50.3125 4.234375 
Q 43.84375 -1.421875 31.78125 -1.421875 
Q 19.734375 -1.421875 13.25 4.234375 
Q 6.78125 9.90625 6.78125 20.515625 
Q 6.78125 27.484375 10.78125 32.3125 
Q 14.796875 37.15625 21.921875 38.8125 
z
M 18.3125 54.390625 
Q 18.3125 48.734375 21.84375 45.5625 
Q 25.390625 42.390625 31.78125 42.390625 
Q 38.140625 42.390625 41.71875 45.5625 
Q 45.3125 48.734375 45.3125 54.390625 
Q 45.3125 60.0625 41.71875 63.234375 
Q 38.140625 66.40625 31.78125 66.40625 
Q 25.390625 66.40625 21.84375 63.234375 
Q 18.3125 60.0625 18.3125 54.390625 
z
" id="DejaVuSans-56"/>
       </defs>
       <use xlink:href="#DejaVuSans-56"/>
       <use x="63.623047" xlink:href="#DejaVuSans-48"/>
      </g>
     </g>
    </g>
    <g id="xtick_6">
     <g id="line2d_6">
      <g>
       <use style="stroke:#000000;stroke-width:0.8;" x="73.832727" xlink:href="#m1872875f5d" y="307.584"/>
      </g>
     </g>
     <g id="text_6">
      <!-- 100 -->
      <g transform="translate(64.288977 322.182437)scale(0.1 -0.1)">
       <defs>
        <path d="M 12.40625 8.296875 
L 28.515625 8.296875 
L 28.515625 63.921875 
L 10.984375 60.40625 
L 10.984375 69.390625 
L 28.421875 72.90625 
L 38.28125 72.90625 
L 38.28125 8.296875 
L 54.390625 8.296875 
L 54.390625 0 
L 12.40625 0 
z
" id="DejaVuSans-49"/>
       </defs>
       <use xlink:href="#DejaVuSans-49"/>
       <use x="63.623047" xlink:href="#DejaVuSans-48"/>
       <use x="127.246094" xlink:href="#DejaVuSans-48"/>
      </g>
     </g>
    </g>
    <g id="text_7">
     <!-- Number of features -->
     <g transform="translate(187.4225 335.860562)scale(0.1 -0.1)">
      <defs>
       <path d="M 9.8125 72.90625 
L 23.09375 72.90625 
L 55.421875 11.921875 
L 55.421875 72.90625 
L 64.984375 72.90625 
L 64.984375 0 
L 51.703125 0 
L 19.390625 60.984375 
L 19.390625 0 
L 9.8125 0 
z
" id="DejaVuSans-78"/>
       <path d="M 8.5 21.578125 
L 8.5 54.6875 
L 17.484375 54.6875 
L 17.484375 21.921875 
Q 17.484375 14.15625 20.5 10.265625 
Q 23.53125 6.390625 29.59375 6.390625 
Q 36.859375 6.390625 41.078125 11.03125 
Q 45.3125 15.671875 45.3125 23.6875 
L 45.3125 54.6875 
L 54.296875 54.6875 
L 54.296875 0 
L 45.3125 0 
L 45.3125 8.40625 
Q 42.046875 3.421875 37.71875 1 
Q 33.40625 -1.421875 27.6875 -1.421875 
Q 18.265625 -1.421875 13.375 4.4375 
Q 8.5 10.296875 8.5 21.578125 
z
M 31.109375 56 
z
" id="DejaVuSans-117"/>
       <path d="M 52 44.1875 
Q 55.375 50.25 60.0625 53.125 
Q 64.75 56 71.09375 56 
Q 79.640625 56 84.28125 50.015625 
Q 88.921875 44.046875 88.921875 33.015625 
L 88.921875 0 
L 79.890625 0 
L 79.890625 32.71875 
Q 79.890625 40.578125 77.09375 44.375 
Q 74.3125 48.1875 68.609375 48.1875 
Q 61.625 48.1875 57.5625 43.546875 
Q 53.515625 38.921875 53.515625 30.90625 
L 53.515625 0 
L 44.484375 0 
L 44.484375 32.71875 
Q 44.484375 40.625 41.703125 44.40625 
Q 38.921875 48.1875 33.109375 48.1875 
Q 26.21875 48.1875 22.15625 43.53125 
Q 18.109375 38.875 18.109375 30.90625 
L 18.109375 0 
L 9.078125 0 
L 9.078125 54.6875 
L 18.109375 54.6875 
L 18.109375 46.1875 
Q 21.1875 51.21875 25.484375 53.609375 
Q 29.78125 56 35.6875 56 
Q 41.65625 56 45.828125 52.96875 
Q 50 49.953125 52 44.1875 
z
" id="DejaVuSans-109"/>
       <path d="M 48.6875 27.296875 
Q 48.6875 37.203125 44.609375 42.84375 
Q 40.53125 48.484375 33.40625 48.484375 
Q 26.265625 48.484375 22.1875 42.84375 
Q 18.109375 37.203125 18.109375 27.296875 
Q 18.109375 17.390625 22.1875 11.75 
Q 26.265625 6.109375 33.40625 6.109375 
Q 40.53125 6.109375 44.609375 11.75 
Q 48.6875 17.390625 48.6875 27.296875 
z
M 18.109375 46.390625 
Q 20.953125 51.265625 25.265625 53.625 
Q 29.59375 56 35.59375 56 
Q 45.5625 56 51.78125 48.09375 
Q 58.015625 40.1875 58.015625 27.296875 
Q 58.015625 14.40625 51.78125 6.484375 
Q 45.5625 -1.421875 35.59375 -1.421875 
Q 29.59375 -1.421875 25.265625 0.953125 
Q 20.953125 3.328125 18.109375 8.203125 
L 18.109375 0 
L 9.078125 0 
L 9.078125 75.984375 
L 18.109375 75.984375 
z
" id="DejaVuSans-98"/>
       <path d="M 56.203125 29.59375 
L 56.203125 25.203125 
L 14.890625 25.203125 
Q 15.484375 15.921875 20.484375 11.0625 
Q 25.484375 6.203125 34.421875 6.203125 
Q 39.59375 6.203125 44.453125 7.46875 
Q 49.3125 8.734375 54.109375 11.28125 
L 54.109375 2.78125 
Q 49.265625 0.734375 44.1875 -0.34375 
Q 39.109375 -1.421875 33.890625 -1.421875 
Q 20.796875 -1.421875 13.15625 6.1875 
Q 5.515625 13.8125 5.515625 26.8125 
Q 5.515625 40.234375 12.765625 48.109375 
Q 20.015625 56 32.328125 56 
Q 43.359375 56 49.78125 48.890625 
Q 56.203125 41.796875 56.203125 29.59375 
z
M 47.21875 32.234375 
Q 47.125 39.59375 43.09375 43.984375 
Q 39.0625 48.390625 32.421875 48.390625 
Q 24.90625 48.390625 20.390625 44.140625 
Q 15.875 39.890625 15.1875 32.171875 
z
" id="DejaVuSans-101"/>
       <path d="M 41.109375 46.296875 
Q 39.59375 47.171875 37.8125 47.578125 
Q 36.03125 48 33.890625 48 
Q 26.265625 48 22.1875 43.046875 
Q 18.109375 38.09375 18.109375 28.8125 
L 18.109375 0 
L 9.078125 0 
L 9.078125 54.6875 
L 18.109375 54.6875 
L 18.109375 46.1875 
Q 20.953125 51.171875 25.484375 53.578125 
Q 30.03125 56 36.53125 56 
Q 37.453125 56 38.578125 55.875 
Q 39.703125 55.765625 41.0625 55.515625 
z
" id="DejaVuSans-114"/>
       <path id="DejaVuSans-32"/>
       <path d="M 30.609375 48.390625 
Q 23.390625 48.390625 19.1875 42.75 
Q 14.984375 37.109375 14.984375 27.296875 
Q 14.984375 17.484375 19.15625 11.84375 
Q 23.34375 6.203125 30.609375 6.203125 
Q 37.796875 6.203125 41.984375 11.859375 
Q 46.1875 17.53125 46.1875 27.296875 
Q 46.1875 37.015625 41.984375 42.703125 
Q 37.796875 48.390625 30.609375 48.390625 
z
M 30.609375 56 
Q 42.328125 56 49.015625 48.375 
Q 55.71875 40.765625 55.71875 27.296875 
Q 55.71875 13.875 49.015625 6.21875 
Q 42.328125 -1.421875 30.609375 -1.421875 
Q 18.84375 -1.421875 12.171875 6.21875 
Q 5.515625 13.875 5.515625 27.296875 
Q 5.515625 40.765625 12.171875 48.375 
Q 18.84375 56 30.609375 56 
z
" id="DejaVuSans-111"/>
       <path d="M 37.109375 75.984375 
L 37.109375 68.5 
L 28.515625 68.5 
Q 23.6875 68.5 21.796875 66.546875 
Q 19.921875 64.59375 19.921875 59.515625 
L 19.921875 54.6875 
L 34.71875 54.6875 
L 34.71875 47.703125 
L 19.921875 47.703125 
L 19.921875 0 
L 10.890625 0 
L 10.890625 47.703125 
L 2.296875 47.703125 
L 2.296875 54.6875 
L 10.890625 54.6875 
L 10.890625 58.5 
Q 10.890625 67.625 15.140625 71.796875 
Q 19.390625 75.984375 28.609375 75.984375 
z
" id="DejaVuSans-102"/>
       <path d="M 34.28125 27.484375 
Q 23.390625 27.484375 19.1875 25 
Q 14.984375 22.515625 14.984375 16.5 
Q 14.984375 11.71875 18.140625 8.90625 
Q 21.296875 6.109375 26.703125 6.109375 
Q 34.1875 6.109375 38.703125 11.40625 
Q 43.21875 16.703125 43.21875 25.484375 
L 43.21875 27.484375 
z
M 52.203125 31.203125 
L 52.203125 0 
L 43.21875 0 
L 43.21875 8.296875 
Q 40.140625 3.328125 35.546875 0.953125 
Q 30.953125 -1.421875 24.3125 -1.421875 
Q 15.921875 -1.421875 10.953125 3.296875 
Q 6 8.015625 6 15.921875 
Q 6 25.140625 12.171875 29.828125 
Q 18.359375 34.515625 30.609375 34.515625 
L 43.21875 34.515625 
L 43.21875 35.40625 
Q 43.21875 41.609375 39.140625 45 
Q 35.0625 48.390625 27.6875 48.390625 
Q 23 48.390625 18.546875 47.265625 
Q 14.109375 46.140625 10.015625 43.890625 
L 10.015625 52.203125 
Q 14.9375 54.109375 19.578125 55.046875 
Q 24.21875 56 28.609375 56 
Q 40.484375 56 46.34375 49.84375 
Q 52.203125 43.703125 52.203125 31.203125 
z
" id="DejaVuSans-97"/>
       <path d="M 18.3125 70.21875 
L 18.3125 54.6875 
L 36.8125 54.6875 
L 36.8125 47.703125 
L 18.3125 47.703125 
L 18.3125 18.015625 
Q 18.3125 11.328125 20.140625 9.421875 
Q 21.96875 7.515625 27.59375 7.515625 
L 36.8125 7.515625 
L 36.8125 0 
L 27.59375 0 
Q 17.1875 0 13.234375 3.875 
Q 9.28125 7.765625 9.28125 18.015625 
L 9.28125 47.703125 
L 2.6875 47.703125 
L 2.6875 54.6875 
L 9.28125 54.6875 
L 9.28125 70.21875 
z
" id="DejaVuSans-116"/>
       <path d="M 44.28125 53.078125 
L 44.28125 44.578125 
Q 40.484375 46.53125 36.375 47.5 
Q 32.28125 48.484375 27.875 48.484375 
Q 21.1875 48.484375 17.84375 46.4375 
Q 14.5 44.390625 14.5 40.28125 
Q 14.5 37.15625 16.890625 35.375 
Q 19.28125 33.59375 26.515625 31.984375 
L 29.59375 31.296875 
Q 39.15625 29.25 43.1875 25.515625 
Q 47.21875 21.78125 47.21875 15.09375 
Q 47.21875 7.46875 41.1875 3.015625 
Q 35.15625 -1.421875 24.609375 -1.421875 
Q 20.21875 -1.421875 15.453125 -0.5625 
Q 10.6875 0.296875 5.421875 2 
L 5.421875 11.28125 
Q 10.40625 8.6875 15.234375 7.390625 
Q 20.0625 6.109375 24.8125 6.109375 
Q 31.15625 6.109375 34.5625 8.28125 
Q 37.984375 10.453125 37.984375 14.40625 
Q 37.984375 18.0625 35.515625 20.015625 
Q 33.0625 21.96875 24.703125 23.78125 
L 21.578125 24.515625 
Q 13.234375 26.265625 9.515625 29.90625 
Q 5.8125 33.546875 5.8125 39.890625 
Q 5.8125 47.609375 11.28125 51.796875 
Q 16.75 56 26.8125 56 
Q 31.78125 56 36.171875 55.265625 
Q 40.578125 54.546875 44.28125 53.078125 
z
" id="DejaVuSans-115"/>
      </defs>
      <use xlink:href="#DejaVuSans-78"/>
      <use x="74.804688" xlink:href="#DejaVuSans-117"/>
      <use x="138.183594" xlink:href="#DejaVuSans-109"/>
      <use x="235.595703" xlink:href="#DejaVuSans-98"/>
      <use x="299.072266" xlink:href="#DejaVuSans-101"/>
      <use x="360.595703" xlink:href="#DejaVuSans-114"/>
      <use x="401.708984" xlink:href="#DejaVuSans-32"/>
      <use x="433.496094" xlink:href="#DejaVuSans-111"/>
      <use x="494.677734" xlink:href="#DejaVuSans-102"/>
      <use x="529.882812" xlink:href="#DejaVuSans-32"/>
      <use x="561.669922" xlink:href="#DejaVuSans-102"/>
      <use x="596.875" xlink:href="#DejaVuSans-101"/>
      <use x="658.398438" xlink:href="#DejaVuSans-97"/>
      <use x="719.677734" xlink:href="#DejaVuSans-116"/>
      <use x="758.886719" xlink:href="#DejaVuSans-117"/>
      <use x="822.265625" xlink:href="#DejaVuSans-114"/>
      <use x="861.128906" xlink:href="#DejaVuSans-101"/>
      <use x="922.652344" xlink:href="#DejaVuSans-115"/>
     </g>
    </g>
   </g>
   <g id="matplotlib.axis_2">
    <g id="ytick_1">
     <g id="line2d_7">
      <defs>
       <path d="M 0 0 
L -3.5 0 
" id="m2562e43d27" style="stroke:#000000;stroke-width:0.8;"/>
      </defs>
      <g>
       <use style="stroke:#000000;stroke-width:0.8;" x="57.6" xlink:href="#m2562e43d27" y="271.174092"/>
      </g>
     </g>
     <g id="text_8">
      <!-- 0.4 -->
      <g transform="translate(34.696875 274.97331)scale(0.1 -0.1)">
       <defs>
        <path d="M 10.6875 12.40625 
L 21 12.40625 
L 21 0 
L 10.6875 0 
z
" id="DejaVuSans-46"/>
       </defs>
       <use xlink:href="#DejaVuSans-48"/>
       <use x="63.623047" xlink:href="#DejaVuSans-46"/>
       <use x="95.410156" xlink:href="#DejaVuSans-52"/>
      </g>
     </g>
    </g>
    <g id="ytick_2">
     <g id="line2d_8">
      <g>
       <use style="stroke:#000000;stroke-width:0.8;" x="57.6" xlink:href="#m2562e43d27" y="218.742483"/>
      </g>
     </g>
     <g id="text_9">
      <!-- 0.5 -->
      <g transform="translate(34.696875 222.541702)scale(0.1 -0.1)">
       <defs>
        <path d="M 10.796875 72.90625 
L 49.515625 72.90625 
L 49.515625 64.59375 
L 19.828125 64.59375 
L 19.828125 46.734375 
Q 21.96875 47.46875 24.109375 47.828125 
Q 26.265625 48.1875 28.421875 48.1875 
Q 40.625 48.1875 47.75 41.5 
Q 54.890625 34.8125 54.890625 23.390625 
Q 54.890625 11.625 47.5625 5.09375 
Q 40.234375 -1.421875 26.90625 -1.421875 
Q 22.3125 -1.421875 17.546875 -0.640625 
Q 12.796875 0.140625 7.71875 1.703125 
L 7.71875 11.625 
Q 12.109375 9.234375 16.796875 8.0625 
Q 21.484375 6.890625 26.703125 6.890625 
Q 35.15625 6.890625 40.078125 11.328125 
Q 45.015625 15.765625 45.015625 23.390625 
Q 45.015625 31 40.078125 35.4375 
Q 35.15625 39.890625 26.703125 39.890625 
Q 22.75 39.890625 18.8125 39.015625 
Q 14.890625 38.140625 10.796875 36.28125 
z
" id="DejaVuSans-53"/>
       </defs>
       <use xlink:href="#DejaVuSans-48"/>
       <use x="63.623047" xlink:href="#DejaVuSans-46"/>
       <use x="95.410156" xlink:href="#DejaVuSans-53"/>
      </g>
     </g>
    </g>
    <g id="ytick_3">
     <g id="line2d_9">
      <g>
       <use style="stroke:#000000;stroke-width:0.8;" x="57.6" xlink:href="#m2562e43d27" y="166.310875"/>
      </g>
     </g>
     <g id="text_10">
      <!-- 0.6 -->
      <g transform="translate(34.696875 170.110094)scale(0.1 -0.1)">
       <use xlink:href="#DejaVuSans-48"/>
       <use x="63.623047" xlink:href="#DejaVuSans-46"/>
       <use x="95.410156" xlink:href="#DejaVuSans-54"/>
      </g>
     </g>
    </g>
    <g id="ytick_4">
     <g id="line2d_10">
      <g>
       <use style="stroke:#000000;stroke-width:0.8;" x="57.6" xlink:href="#m2562e43d27" y="113.879267"/>
      </g>
     </g>
     <g id="text_11">
      <!-- 0.7 -->
      <g transform="translate(34.696875 117.678486)scale(0.1 -0.1)">
       <defs>
        <path d="M 8.203125 72.90625 
L 55.078125 72.90625 
L 55.078125 68.703125 
L 28.609375 0 
L 18.3125 0 
L 43.21875 64.59375 
L 8.203125 64.59375 
z
" id="DejaVuSans-55"/>
       </defs>
       <use xlink:href="#DejaVuSans-48"/>
       <use x="63.623047" xlink:href="#DejaVuSans-46"/>
       <use x="95.410156" xlink:href="#DejaVuSans-55"/>
      </g>
     </g>
    </g>
    <g id="ytick_5">
     <g id="line2d_11">
      <g>
       <use style="stroke:#000000;stroke-width:0.8;" x="57.6" xlink:href="#m2562e43d27" y="61.447659"/>
      </g>
     </g>
     <g id="text_12">
      <!-- 0.8 -->
      <g transform="translate(34.696875 65.246878)scale(0.1 -0.1)">
       <use xlink:href="#DejaVuSans-48"/>
       <use x="63.623047" xlink:href="#DejaVuSans-46"/>
       <use x="95.410156" xlink:href="#DejaVuSans-56"/>
      </g>
     </g>
    </g>
    <g id="text_13">
     <!-- Accuracy -->
     <g transform="translate(28.617187 197.356125)rotate(-90)scale(0.1 -0.1)">
      <defs>
       <path d="M 34.1875 63.1875 
L 20.796875 26.90625 
L 47.609375 26.90625 
z
M 28.609375 72.90625 
L 39.796875 72.90625 
L 67.578125 0 
L 57.328125 0 
L 50.6875 18.703125 
L 17.828125 18.703125 
L 11.1875 0 
L 0.78125 0 
z
" id="DejaVuSans-65"/>
       <path d="M 48.78125 52.59375 
L 48.78125 44.1875 
Q 44.96875 46.296875 41.140625 47.34375 
Q 37.3125 48.390625 33.40625 48.390625 
Q 24.65625 48.390625 19.8125 42.84375 
Q 14.984375 37.3125 14.984375 27.296875 
Q 14.984375 17.28125 19.8125 11.734375 
Q 24.65625 6.203125 33.40625 6.203125 
Q 37.3125 6.203125 41.140625 7.25 
Q 44.96875 8.296875 48.78125 10.40625 
L 48.78125 2.09375 
Q 45.015625 0.34375 40.984375 -0.53125 
Q 36.96875 -1.421875 32.421875 -1.421875 
Q 20.0625 -1.421875 12.78125 6.34375 
Q 5.515625 14.109375 5.515625 27.296875 
Q 5.515625 40.671875 12.859375 48.328125 
Q 20.21875 56 33.015625 56 
Q 37.15625 56 41.109375 55.140625 
Q 45.0625 54.296875 48.78125 52.59375 
z
" id="DejaVuSans-99"/>
       <path d="M 32.171875 -5.078125 
Q 28.375 -14.84375 24.75 -17.8125 
Q 21.140625 -20.796875 15.09375 -20.796875 
L 7.90625 -20.796875 
L 7.90625 -13.28125 
L 13.1875 -13.28125 
Q 16.890625 -13.28125 18.9375 -11.515625 
Q 21 -9.765625 23.484375 -3.21875 
L 25.09375 0.875 
L 2.984375 54.6875 
L 12.5 54.6875 
L 29.59375 11.921875 
L 46.6875 54.6875 
L 56.203125 54.6875 
z
" id="DejaVuSans-121"/>
      </defs>
      <use xlink:href="#DejaVuSans-65"/>
      <use x="66.658203" xlink:href="#DejaVuSans-99"/>
      <use x="121.638672" xlink:href="#DejaVuSans-99"/>
      <use x="176.619141" xlink:href="#DejaVuSans-117"/>
      <use x="239.998047" xlink:href="#DejaVuSans-114"/>
      <use x="281.111328" xlink:href="#DejaVuSans-97"/>
      <use x="342.390625" xlink:href="#DejaVuSans-99"/>
      <use x="397.371094" xlink:href="#DejaVuSans-121"/>
     </g>
    </g>
   </g>
   <g id="line2d_12">
    <path clip-path="url(#p92f3ace2d4)" d="M 73.832727 218.742483 
L 77.112066 198.294156 
L 80.391405 190.429415 
L 83.670744 177.845829 
L 86.950083 172.602668 
L 90.229421 174.699933 
L 93.50876 168.40814 
L 96.788099 158.446134 
L 100.067438 161.067714 
L 103.346777 158.97045 
L 106.626116 167.359507 
L 109.905455 158.446134 
L 113.184793 161.592031 
L 116.464132 154.775922 
L 119.743471 158.97045 
L 123.02281 162.116347 
L 126.302149 164.737927 
L 129.581488 160.019082 
L 132.860826 156.34887 
L 136.140165 157.921818 
L 139.419504 161.592031 
L 142.698843 158.97045 
L 145.978182 154.251605 
L 149.257521 157.397502 
L 152.53686 157.921818 
L 155.816198 160.543398 
L 159.095537 156.873186 
L 162.374876 157.397502 
L 165.654215 158.97045 
L 168.933554 158.446134 
L 172.212893 161.067714 
L 175.492231 159.494766 
L 178.77157 160.019082 
L 182.050909 164.737927 
L 185.330248 160.543398 
L 188.609587 166.310875 
L 191.888926 166.310875 
L 195.168264 150.057077 
L 198.447603 162.116347 
L 201.726942 171.02972 
L 205.006281 156.34887 
L 208.28562 168.40814 
L 211.564959 163.689295 
L 214.844298 175.224249 
L 218.123636 165.786559 
L 221.402975 171.02972 
L 224.682314 174.699933 
L 227.961653 172.078352 
L 231.240992 162.116347 
L 234.520331 165.786559 
L 237.799669 176.797197 
L 241.079008 180.46741 
L 244.358347 184.661938 
L 247.637686 177.845829 
L 250.917025 181.516042 
L 254.196364 184.661938 
L 257.475702 183.613306 
L 260.755041 180.991726 
L 264.03438 180.991726 
L 267.313719 184.661938 
L 270.593058 190.953731 
L 273.872397 194.099628 
L 277.151736 189.380783 
L 280.431074 188.856467 
L 283.710413 195.672576 
L 286.989752 182.564674 
L 290.269091 190.953731 
L 293.54843 202.488685 
L 296.827769 209.82911 
L 300.107107 194.099628 
L 303.386446 203.537317 
L 306.665785 194.623944 
L 309.945124 207.731846 
L 313.224463 201.964369 
L 316.503802 193.575312 
L 319.78314 203.013001 
L 323.062479 193.050995 
L 326.341818 211.402058 
L 329.621157 209.82911 
L 332.900496 200.915737 
L 336.179835 202.488685 
L 339.459174 208.256162 
L 342.738512 196.721208 
L 346.017851 211.926374 
L 349.29719 211.402058 
L 352.576529 213.499323 
L 355.855868 209.304794 
L 359.135207 212.45069 
L 362.414545 206.683214 
L 365.693884 217.169535 
L 368.973223 223.985644 
L 372.252562 225.034276 
L 375.531901 219.791116 
L 378.81124 225.558592 
L 382.090579 221.88838 
L 385.369917 226.607225 
L 388.649256 221.364064 
L 391.928595 215.596587 
L 395.207934 224.50996 
L 398.487273 221.88838 
" style="fill:none;stroke:#1f77b4;stroke-linecap:square;stroke-width:1.5;"/>
   </g>
   <g id="line2d_13">
    <path clip-path="url(#p92f3ace2d4)" d="M 73.832727 113.879267 
L 77.112066 111.257687 
L 80.391405 112.830635 
L 83.670744 108.636106 
L 86.950083 108.11179 
L 90.229421 113.879267 
L 93.50876 112.306319 
L 96.788099 104.965894 
L 100.067438 110.209055 
L 103.346777 111.257687 
L 106.626116 111.257687 
L 109.905455 114.927899 
L 113.184793 113.354951 
L 116.464132 114.403583 
L 119.743471 113.354951 
L 123.02281 110.733371 
L 126.302149 120.17106 
L 129.581488 118.073796 
L 132.860826 111.257687 
L 136.140165 112.830635 
L 139.419504 126.462853 
L 142.698843 115.452215 
L 145.978182 114.403583 
L 149.257521 115.976532 
L 152.53686 129.60875 
L 155.816198 126.462853 
L 159.095537 128.035801 
L 162.374876 133.278962 
L 165.654215 130.133066 
L 168.933554 127.511485 
L 172.212893 132.23033 
L 175.492231 130.133066 
L 178.77157 123.316957 
L 182.050909 135.376227 
L 185.330248 135.900543 
L 188.609587 140.095071 
L 191.888926 135.376227 
L 195.168264 118.073796 
L 198.447603 140.095071 
L 201.726942 143.765284 
L 205.006281 131.706014 
L 208.28562 147.435496 
L 211.564959 145.338232 
L 214.844298 144.2896 
L 218.123636 132.754646 
L 221.402975 138.522123 
L 224.682314 161.067714 
L 227.961653 153.202973 
L 231.240992 150.057077 
L 234.520331 151.105709 
L 237.799669 158.97045 
L 241.079008 150.581393 
L 244.358347 149.532761 
L 247.637686 149.008445 
L 250.917025 152.678657 
L 254.196364 154.775922 
L 257.475702 160.019082 
L 260.755041 171.554036 
L 264.03438 149.008445 
L 267.313719 165.262243 
L 270.593058 163.164979 
L 273.872397 165.786559 
L 277.151736 158.97045 
L 280.431074 165.262243 
L 283.710413 176.797197 
L 286.989752 180.991726 
L 290.269091 163.689295 
L 293.54843 168.932456 
L 296.827769 171.554036 
L 300.107107 172.602668 
L 303.386446 164.213611 
L 306.665785 164.213611 
L 309.945124 182.564674 
L 313.224463 173.126984 
L 316.503802 171.554036 
L 319.78314 185.71057 
L 323.062479 178.894461 
L 326.341818 187.283519 
L 329.621157 185.186254 
L 332.900496 198.818472 
L 336.179835 190.953731 
L 339.459174 181.516042 
L 342.738512 187.283519 
L 346.017851 191.478047 
L 349.29719 200.915737 
L 352.576529 194.099628 
L 355.855868 198.818472 
L 359.135207 193.575312 
L 362.414545 182.040358 
L 365.693884 206.683214 
L 368.973223 212.975007 
L 372.252562 203.013001 
L 375.531901 207.20753 
L 378.81124 207.731846 
L 382.090579 211.926374 
L 385.369917 214.023639 
L 388.649256 216.645219 
L 391.928595 223.461328 
L 395.207934 218.218167 
L 398.487273 218.218167 
" style="fill:none;stroke:#ff7f0e;stroke-linecap:square;stroke-width:1.5;"/>
   </g>
   <g id="line2d_14">
    <path clip-path="url(#p92f3ace2d4)" d="M 73.832727 113.879267 
L 77.112066 117.025164 
L 80.391405 115.452215 
L 83.670744 117.025164 
L 86.950083 120.695376 
L 90.229421 120.17106 
L 93.50876 122.268324 
L 96.788099 126.462853 
L 100.067438 124.365589 
L 103.346777 122.268324 
L 106.626116 124.889905 
L 109.905455 120.695376 
L 113.184793 124.889905 
L 116.464132 131.706014 
L 119.743471 130.133066 
L 123.02281 124.889905 
L 126.302149 132.754646 
L 129.581488 133.278962 
L 132.860826 133.278962 
L 136.140165 129.084434 
L 139.419504 127.511485 
L 142.698843 122.792641 
L 145.978182 134.85191 
L 149.257521 126.462853 
L 152.53686 131.181698 
L 155.816198 136.424859 
L 159.095537 128.035801 
L 162.374876 135.376227 
L 165.654215 132.754646 
L 168.933554 140.095071 
L 172.212893 132.754646 
L 175.492231 131.181698 
L 178.77157 135.900543 
L 182.050909 140.619387 
L 185.330248 133.278962 
L 188.609587 144.2896 
L 191.888926 139.046439 
L 195.168264 140.095071 
L 198.447603 145.862548 
L 201.726942 150.581393 
L 205.006281 137.473491 
L 208.28562 141.668019 
L 211.564959 137.997807 
L 214.844298 139.570755 
L 218.123636 130.133066 
L 221.402975 144.2896 
L 224.682314 147.959812 
L 227.961653 145.862548 
L 231.240992 150.581393 
L 234.520331 153.727289 
L 237.799669 155.824554 
L 241.079008 156.34887 
L 244.358347 150.057077 
L 247.637686 156.34887 
L 250.917025 153.202973 
L 254.196364 152.154341 
L 257.475702 151.630025 
L 260.755041 159.494766 
L 264.03438 161.592031 
L 267.313719 163.164979 
L 270.593058 156.873186 
L 273.872397 154.251605 
L 277.151736 163.689295 
L 280.431074 165.262243 
L 283.710413 153.202973 
L 286.989752 164.737927 
L 290.269091 165.786559 
L 293.54843 162.116347 
L 296.827769 172.602668 
L 300.107107 168.932456 
L 303.386446 166.310875 
L 306.665785 166.835191 
L 309.945124 171.554036 
L 313.224463 173.126984 
L 316.503802 178.370145 
L 319.78314 171.02972 
L 323.062479 171.554036 
L 326.341818 178.894461 
L 329.621157 177.321513 
L 332.900496 179.418777 
L 336.179835 173.6513 
L 339.459174 181.516042 
L 342.738512 174.175617 
L 346.017851 190.953731 
L 349.29719 186.234886 
L 352.576529 192.002363 
L 355.855868 185.71057 
L 359.135207 192.002363 
L 362.414545 194.623944 
L 365.693884 192.526679 
L 368.973223 208.780478 
L 372.252562 206.683214 
L 375.531901 198.818472 
L 378.81124 203.013001 
L 382.090579 206.158897 
L 385.369917 211.926374 
L 388.649256 213.499323 
L 391.928595 211.402058 
L 395.207934 213.499323 
L 398.487273 218.218167 
" style="fill:none;stroke:#2ca02c;stroke-linecap:square;stroke-width:1.5;"/>
   </g>
   <g id="line2d_15">
    <path clip-path="url(#p92f3ace2d4)" d="M 73.832727 166.310875 
L 77.112066 162.640663 
L 80.391405 160.543398 
L 83.670744 164.737927 
L 86.950083 153.727289 
L 90.229421 162.116347 
L 93.50876 155.824554 
L 96.788099 163.164979 
L 100.067438 168.932456 
L 103.346777 161.067714 
L 106.626116 170.505404 
L 109.905455 171.02972 
L 113.184793 172.078352 
L 116.464132 170.505404 
L 119.743471 177.845829 
L 123.02281 186.234886 
L 126.302149 182.564674 
L 129.581488 189.380783 
L 132.860826 186.234886 
L 136.140165 201.964369 
L 139.419504 197.245524 
L 142.698843 199.867105 
L 145.978182 203.537317 
L 149.257521 196.721208 
L 152.53686 199.342788 
L 155.816198 206.683214 
L 159.095537 211.402058 
L 162.374876 209.82911 
L 165.654215 208.256162 
L 168.933554 213.499323 
L 172.212893 209.82911 
L 175.492231 216.645219 
L 178.77157 215.596587 
L 182.050909 216.120903 
L 185.330248 217.169535 
L 188.609587 213.499323 
L 191.888926 217.169535 
L 195.168264 216.120903 
L 198.447603 215.072271 
L 201.726942 211.926374 
L 205.006281 216.645219 
L 208.28562 215.596587 
L 211.564959 215.072271 
L 214.844298 217.169535 
L 218.123636 218.218167 
L 221.402975 217.693851 
L 224.682314 217.169535 
L 227.961653 217.693851 
L 231.240992 218.218167 
L 234.520331 218.742483 
L 237.799669 218.218167 
L 241.079008 218.742483 
L 244.358347 218.218167 
L 247.637686 219.2668 
L 250.917025 218.742483 
L 254.196364 218.742483 
L 257.475702 218.742483 
L 260.755041 218.742483 
L 264.03438 218.742483 
L 267.313719 218.742483 
L 270.593058 218.742483 
L 273.872397 218.742483 
L 277.151736 218.742483 
L 280.431074 218.742483 
L 283.710413 218.742483 
L 286.989752 218.742483 
L 290.269091 218.742483 
L 293.54843 218.742483 
L 296.827769 218.218167 
L 300.107107 218.742483 
L 303.386446 218.742483 
L 306.665785 218.742483 
L 309.945124 218.742483 
L 313.224463 218.742483 
L 316.503802 218.742483 
L 319.78314 218.742483 
L 323.062479 218.742483 
L 326.341818 218.742483 
L 329.621157 218.742483 
L 332.900496 218.742483 
L 336.179835 218.742483 
L 339.459174 218.742483 
L 342.738512 218.742483 
L 346.017851 218.742483 
L 349.29719 218.742483 
L 352.576529 218.742483 
L 355.855868 218.742483 
L 359.135207 218.742483 
L 362.414545 218.742483 
L 365.693884 218.742483 
L 368.973223 218.742483 
L 372.252562 218.742483 
L 375.531901 218.742483 
L 378.81124 218.742483 
L 382.090579 218.742483 
L 385.369917 218.742483 
L 388.649256 218.742483 
L 391.928595 218.742483 
L 395.207934 218.742483 
L 398.487273 218.742483 
" style="fill:none;stroke:#d62728;stroke-linecap:square;stroke-width:1.5;"/>
   </g>
   <g id="patch_3">
    <path d="M 57.6 307.584 
L 57.6 41.472 
" style="fill:none;stroke:#000000;stroke-linecap:square;stroke-linejoin:miter;stroke-width:0.8;"/>
   </g>
   <g id="patch_4">
    <path d="M 414.72 307.584 
L 414.72 41.472 
" style="fill:none;stroke:#000000;stroke-linecap:square;stroke-linejoin:miter;stroke-width:0.8;"/>
   </g>
   <g id="patch_5">
    <path d="M 57.6 307.584 
L 414.72 307.584 
" style="fill:none;stroke:#000000;stroke-linecap:square;stroke-linejoin:miter;stroke-width:0.8;"/>
   </g>
   <g id="patch_6">
    <path d="M 57.6 41.472 
L 414.72 41.472 
" style="fill:none;stroke:#000000;stroke-linecap:square;stroke-linejoin:miter;stroke-width:0.8;"/>
   </g>
   <g id="text_14">
    <!-- Toy_linear_100_100 -->
    <g transform="translate(177.41625 35.472)scale(0.12 -0.12)">
     <defs>
      <path d="M -0.296875 72.90625 
L 61.375 72.90625 
L 61.375 64.59375 
L 35.5 64.59375 
L 35.5 0 
L 25.59375 0 
L 25.59375 64.59375 
L -0.296875 64.59375 
z
" id="DejaVuSans-84"/>
      <path d="M 50.984375 -16.609375 
L 50.984375 -23.578125 
L -0.984375 -23.578125 
L -0.984375 -16.609375 
z
" id="DejaVuSans-95"/>
      <path d="M 9.421875 75.984375 
L 18.40625 75.984375 
L 18.40625 0 
L 9.421875 0 
z
" id="DejaVuSans-108"/>
      <path d="M 9.421875 54.6875 
L 18.40625 54.6875 
L 18.40625 0 
L 9.421875 0 
z
M 9.421875 75.984375 
L 18.40625 75.984375 
L 18.40625 64.59375 
L 9.421875 64.59375 
z
" id="DejaVuSans-105"/>
      <path d="M 54.890625 33.015625 
L 54.890625 0 
L 45.90625 0 
L 45.90625 32.71875 
Q 45.90625 40.484375 42.875 44.328125 
Q 39.84375 48.1875 33.796875 48.1875 
Q 26.515625 48.1875 22.3125 43.546875 
Q 18.109375 38.921875 18.109375 30.90625 
L 18.109375 0 
L 9.078125 0 
L 9.078125 54.6875 
L 18.109375 54.6875 
L 18.109375 46.1875 
Q 21.34375 51.125 25.703125 53.5625 
Q 30.078125 56 35.796875 56 
Q 45.21875 56 50.046875 50.171875 
Q 54.890625 44.34375 54.890625 33.015625 
z
" id="DejaVuSans-110"/>
     </defs>
     <use xlink:href="#DejaVuSans-84"/>
     <use x="44.083984" xlink:href="#DejaVuSans-111"/>
     <use x="105.265625" xlink:href="#DejaVuSans-121"/>
     <use x="164.445312" xlink:href="#DejaVuSans-95"/>
     <use x="214.445312" xlink:href="#DejaVuSans-108"/>
     <use x="242.228516" xlink:href="#DejaVuSans-105"/>
     <use x="270.011719" xlink:href="#DejaVuSans-110"/>
     <use x="333.390625" xlink:href="#DejaVuSans-101"/>
     <use x="394.914062" xlink:href="#DejaVuSans-97"/>
     <use x="456.193359" xlink:href="#DejaVuSans-114"/>
     <use x="497.306641" xlink:href="#DejaVuSans-95"/>
     <use x="547.306641" xlink:href="#DejaVuSans-49"/>
     <use x="610.929688" xlink:href="#DejaVuSans-48"/>
     <use x="674.552734" xlink:href="#DejaVuSans-48"/>
     <use x="738.175781" xlink:href="#DejaVuSans-95"/>
     <use x="788.175781" xlink:href="#DejaVuSans-49"/>
     <use x="851.798828" xlink:href="#DejaVuSans-48"/>
     <use x="915.421875" xlink:href="#DejaVuSans-48"/>
    </g>
   </g>
   <g id="legend_1">
    <g id="patch_7">
     <path d="M 300.468437 108.1845 
L 407.72 108.1845 
Q 409.72 108.1845 409.72 106.1845 
L 409.72 48.472 
Q 409.72 46.472 407.72 46.472 
L 300.468437 46.472 
Q 298.468437 46.472 298.468437 48.472 
L 298.468437 106.1845 
Q 298.468437 108.1845 300.468437 108.1845 
z
" style="fill:#ffffff;opacity:0.8;stroke:#cccccc;stroke-linejoin:miter;"/>
    </g>
    <g id="line2d_16">
     <path d="M 302.468437 54.570438 
L 322.468437 54.570438 
" style="fill:none;stroke:#1f77b4;stroke-linecap:square;stroke-width:1.5;"/>
    </g>
    <g id="line2d_17"/>
    <g id="text_15">
     <!-- Random Forest -->
     <g transform="translate(330.468437 58.070438)scale(0.1 -0.1)">
      <defs>
       <path d="M 44.390625 34.1875 
Q 47.5625 33.109375 50.5625 29.59375 
Q 53.5625 26.078125 56.59375 19.921875 
L 66.609375 0 
L 56 0 
L 46.6875 18.703125 
Q 43.0625 26.03125 39.671875 28.421875 
Q 36.28125 30.8125 30.421875 30.8125 
L 19.671875 30.8125 
L 19.671875 0 
L 9.8125 0 
L 9.8125 72.90625 
L 32.078125 72.90625 
Q 44.578125 72.90625 50.734375 67.671875 
Q 56.890625 62.453125 56.890625 51.90625 
Q 56.890625 45.015625 53.6875 40.46875 
Q 50.484375 35.9375 44.390625 34.1875 
z
M 19.671875 64.796875 
L 19.671875 38.921875 
L 32.078125 38.921875 
Q 39.203125 38.921875 42.84375 42.21875 
Q 46.484375 45.515625 46.484375 51.90625 
Q 46.484375 58.296875 42.84375 61.546875 
Q 39.203125 64.796875 32.078125 64.796875 
z
" id="DejaVuSans-82"/>
       <path d="M 45.40625 46.390625 
L 45.40625 75.984375 
L 54.390625 75.984375 
L 54.390625 0 
L 45.40625 0 
L 45.40625 8.203125 
Q 42.578125 3.328125 38.25 0.953125 
Q 33.9375 -1.421875 27.875 -1.421875 
Q 17.96875 -1.421875 11.734375 6.484375 
Q 5.515625 14.40625 5.515625 27.296875 
Q 5.515625 40.1875 11.734375 48.09375 
Q 17.96875 56 27.875 56 
Q 33.9375 56 38.25 53.625 
Q 42.578125 51.265625 45.40625 46.390625 
z
M 14.796875 27.296875 
Q 14.796875 17.390625 18.875 11.75 
Q 22.953125 6.109375 30.078125 6.109375 
Q 37.203125 6.109375 41.296875 11.75 
Q 45.40625 17.390625 45.40625 27.296875 
Q 45.40625 37.203125 41.296875 42.84375 
Q 37.203125 48.484375 30.078125 48.484375 
Q 22.953125 48.484375 18.875 42.84375 
Q 14.796875 37.203125 14.796875 27.296875 
z
" id="DejaVuSans-100"/>
       <path d="M 9.8125 72.90625 
L 51.703125 72.90625 
L 51.703125 64.59375 
L 19.671875 64.59375 
L 19.671875 43.109375 
L 48.578125 43.109375 
L 48.578125 34.8125 
L 19.671875 34.8125 
L 19.671875 0 
L 9.8125 0 
z
" id="DejaVuSans-70"/>
      </defs>
      <use xlink:href="#DejaVuSans-82"/>
      <use x="67.232422" xlink:href="#DejaVuSans-97"/>
      <use x="128.511719" xlink:href="#DejaVuSans-110"/>
      <use x="191.890625" xlink:href="#DejaVuSans-100"/>
      <use x="255.367188" xlink:href="#DejaVuSans-111"/>
      <use x="316.548828" xlink:href="#DejaVuSans-109"/>
      <use x="413.960938" xlink:href="#DejaVuSans-32"/>
      <use x="445.748047" xlink:href="#DejaVuSans-70"/>
      <use x="499.642578" xlink:href="#DejaVuSans-111"/>
      <use x="560.824219" xlink:href="#DejaVuSans-114"/>
      <use x="599.6875" xlink:href="#DejaVuSans-101"/>
      <use x="661.210938" xlink:href="#DejaVuSans-115"/>
      <use x="713.310547" xlink:href="#DejaVuSans-116"/>
     </g>
    </g>
    <g id="line2d_18">
     <path d="M 302.468437 69.248563 
L 322.468437 69.248563 
" style="fill:none;stroke:#ff7f0e;stroke-linecap:square;stroke-width:1.5;"/>
    </g>
    <g id="line2d_19"/>
    <g id="text_16">
     <!-- AdaBoost -->
     <g transform="translate(330.468437 72.748563)scale(0.1 -0.1)">
      <defs>
       <path d="M 19.671875 34.8125 
L 19.671875 8.109375 
L 35.5 8.109375 
Q 43.453125 8.109375 47.28125 11.40625 
Q 51.125 14.703125 51.125 21.484375 
Q 51.125 28.328125 47.28125 31.5625 
Q 43.453125 34.8125 35.5 34.8125 
z
M 19.671875 64.796875 
L 19.671875 42.828125 
L 34.28125 42.828125 
Q 41.5 42.828125 45.03125 45.53125 
Q 48.578125 48.25 48.578125 53.8125 
Q 48.578125 59.328125 45.03125 62.0625 
Q 41.5 64.796875 34.28125 64.796875 
z
M 9.8125 72.90625 
L 35.015625 72.90625 
Q 46.296875 72.90625 52.390625 68.21875 
Q 58.5 63.53125 58.5 54.890625 
Q 58.5 48.1875 55.375 44.234375 
Q 52.25 40.28125 46.1875 39.3125 
Q 53.46875 37.75 57.5 32.78125 
Q 61.53125 27.828125 61.53125 20.40625 
Q 61.53125 10.640625 54.890625 5.3125 
Q 48.25 0 35.984375 0 
L 9.8125 0 
z
" id="DejaVuSans-66"/>
      </defs>
      <use xlink:href="#DejaVuSans-65"/>
      <use x="66.658203" xlink:href="#DejaVuSans-100"/>
      <use x="130.134766" xlink:href="#DejaVuSans-97"/>
      <use x="191.414062" xlink:href="#DejaVuSans-66"/>
      <use x="260.017578" xlink:href="#DejaVuSans-111"/>
      <use x="321.199219" xlink:href="#DejaVuSans-111"/>
      <use x="382.380859" xlink:href="#DejaVuSans-115"/>
      <use x="434.480469" xlink:href="#DejaVuSans-116"/>
     </g>
    </g>
    <g id="line2d_20">
     <path d="M 302.468437 83.926688 
L 322.468437 83.926688 
" style="fill:none;stroke:#2ca02c;stroke-linecap:square;stroke-width:1.5;"/>
    </g>
    <g id="line2d_21"/>
    <g id="text_17">
     <!-- LightGBM -->
     <g transform="translate(330.468437 87.426688)scale(0.1 -0.1)">
      <defs>
       <path d="M 9.8125 72.90625 
L 19.671875 72.90625 
L 19.671875 8.296875 
L 55.171875 8.296875 
L 55.171875 0 
L 9.8125 0 
z
" id="DejaVuSans-76"/>
       <path d="M 45.40625 27.984375 
Q 45.40625 37.75 41.375 43.109375 
Q 37.359375 48.484375 30.078125 48.484375 
Q 22.859375 48.484375 18.828125 43.109375 
Q 14.796875 37.75 14.796875 27.984375 
Q 14.796875 18.265625 18.828125 12.890625 
Q 22.859375 7.515625 30.078125 7.515625 
Q 37.359375 7.515625 41.375 12.890625 
Q 45.40625 18.265625 45.40625 27.984375 
z
M 54.390625 6.78125 
Q 54.390625 -7.171875 48.1875 -13.984375 
Q 42 -20.796875 29.203125 -20.796875 
Q 24.46875 -20.796875 20.265625 -20.09375 
Q 16.0625 -19.390625 12.109375 -17.921875 
L 12.109375 -9.1875 
Q 16.0625 -11.328125 19.921875 -12.34375 
Q 23.78125 -13.375 27.78125 -13.375 
Q 36.625 -13.375 41.015625 -8.765625 
Q 45.40625 -4.15625 45.40625 5.171875 
L 45.40625 9.625 
Q 42.625 4.78125 38.28125 2.390625 
Q 33.9375 0 27.875 0 
Q 17.828125 0 11.671875 7.65625 
Q 5.515625 15.328125 5.515625 27.984375 
Q 5.515625 40.671875 11.671875 48.328125 
Q 17.828125 56 27.875 56 
Q 33.9375 56 38.28125 53.609375 
Q 42.625 51.21875 45.40625 46.390625 
L 45.40625 54.6875 
L 54.390625 54.6875 
z
" id="DejaVuSans-103"/>
       <path d="M 54.890625 33.015625 
L 54.890625 0 
L 45.90625 0 
L 45.90625 32.71875 
Q 45.90625 40.484375 42.875 44.328125 
Q 39.84375 48.1875 33.796875 48.1875 
Q 26.515625 48.1875 22.3125 43.546875 
Q 18.109375 38.921875 18.109375 30.90625 
L 18.109375 0 
L 9.078125 0 
L 9.078125 75.984375 
L 18.109375 75.984375 
L 18.109375 46.1875 
Q 21.34375 51.125 25.703125 53.5625 
Q 30.078125 56 35.796875 56 
Q 45.21875 56 50.046875 50.171875 
Q 54.890625 44.34375 54.890625 33.015625 
z
" id="DejaVuSans-104"/>
       <path d="M 59.515625 10.40625 
L 59.515625 29.984375 
L 43.40625 29.984375 
L 43.40625 38.09375 
L 69.28125 38.09375 
L 69.28125 6.78125 
Q 63.578125 2.734375 56.6875 0.65625 
Q 49.8125 -1.421875 42 -1.421875 
Q 24.90625 -1.421875 15.25 8.5625 
Q 5.609375 18.5625 5.609375 36.375 
Q 5.609375 54.25 15.25 64.234375 
Q 24.90625 74.21875 42 74.21875 
Q 49.125 74.21875 55.546875 72.453125 
Q 61.96875 70.703125 67.390625 67.28125 
L 67.390625 56.78125 
Q 61.921875 61.421875 55.765625 63.765625 
Q 49.609375 66.109375 42.828125 66.109375 
Q 29.4375 66.109375 22.71875 58.640625 
Q 16.015625 51.171875 16.015625 36.375 
Q 16.015625 21.625 22.71875 14.15625 
Q 29.4375 6.6875 42.828125 6.6875 
Q 48.046875 6.6875 52.140625 7.59375 
Q 56.25 8.5 59.515625 10.40625 
z
" id="DejaVuSans-71"/>
       <path d="M 9.8125 72.90625 
L 24.515625 72.90625 
L 43.109375 23.296875 
L 61.8125 72.90625 
L 76.515625 72.90625 
L 76.515625 0 
L 66.890625 0 
L 66.890625 64.015625 
L 48.09375 14.015625 
L 38.1875 14.015625 
L 19.390625 64.015625 
L 19.390625 0 
L 9.8125 0 
z
" id="DejaVuSans-77"/>
      </defs>
      <use xlink:href="#DejaVuSans-76"/>
      <use x="55.712891" xlink:href="#DejaVuSans-105"/>
      <use x="83.496094" xlink:href="#DejaVuSans-103"/>
      <use x="146.972656" xlink:href="#DejaVuSans-104"/>
      <use x="210.351562" xlink:href="#DejaVuSans-116"/>
      <use x="249.560547" xlink:href="#DejaVuSans-71"/>
      <use x="327.050781" xlink:href="#DejaVuSans-66"/>
      <use x="395.654297" xlink:href="#DejaVuSans-77"/>
     </g>
    </g>
    <g id="line2d_22">
     <path d="M 302.468437 98.604813 
L 322.468437 98.604813 
" style="fill:none;stroke:#d62728;stroke-linecap:square;stroke-width:1.5;"/>
    </g>
    <g id="line2d_23"/>
    <g id="text_18">
     <!-- XGBoost -->
     <g transform="translate(330.468437 102.104813)scale(0.1 -0.1)">
      <defs>
       <path d="M 6.296875 72.90625 
L 16.890625 72.90625 
L 35.015625 45.796875 
L 53.21875 72.90625 
L 63.8125 72.90625 
L 40.375 37.890625 
L 65.375 0 
L 54.78125 0 
L 34.28125 31 
L 13.625 0 
L 2.984375 0 
L 29 38.921875 
z
" id="DejaVuSans-88"/>
      </defs>
      <use xlink:href="#DejaVuSans-88"/>
      <use x="68.505859" xlink:href="#DejaVuSans-71"/>
      <use x="145.996094" xlink:href="#DejaVuSans-66"/>
      <use x="214.599609" xlink:href="#DejaVuSans-111"/>
      <use x="275.78125" xlink:href="#DejaVuSans-111"/>
      <use x="336.962891" xlink:href="#DejaVuSans-115"/>
      <use x="389.0625" xlink:href="#DejaVuSans-116"/>
     </g>
    </g>
   </g>
  </g>
 </g>
 <defs>
  <clipPath id="p92f3ace2d4">
   <rect height="266.112" width="357.12" x="57.6" y="41.472"/>
  </clipPath>
 </defs>
</svg>
