<?xml version="1.0" encoding="utf-8" standalone="no"?>
<!DOCTYPE svg PUBLIC "-//W3C//DTD SVG 1.1//EN"
  "http://www.w3.org/Graphics/SVG/1.1/DTD/svg11.dtd">
<!-- Created with matplotlib (https://matplotlib.org/) -->
<svg height="345.6pt" version="1.1" viewBox="0 0 460.8 345.6" width="460.8pt" xmlns="http://www.w3.org/2000/svg" xmlns:xlink="http://www.w3.org/1999/xlink">
 <metadata>
  <rdf:RDF xmlns:cc="http://creativecommons.org/ns#" xmlns:dc="http://purl.org/dc/elements/1.1/" xmlns:rdf="http://www.w3.org/1999/02/22-rdf-syntax-ns#">
   <cc:Work>
    <dc:type rdf:resource="http://purl.org/dc/dcmitype/StillImage"/>
    <dc:date>2023-09-19T15:55:05.879005</dc:date>
    <dc:format>image/svg+xml</dc:format>
    <dc:creator>
     <cc:Agent>
      <dc:title>Matplotlib v3.3.4, https://matplotlib.org/</dc:title>
     </cc:Agent>
    </dc:creator>
   </cc:Work>
  </rdf:RDF>
 </metadata>
 <defs>
  <style type="text/css">*{stroke-linecap:butt;stroke-linejoin:round;}</style>
 </defs>
 <g id="figure_1">
  <g id="patch_1">
   <path d="M 0 345.6 
L 460.8 345.6 
L 460.8 0 
L 0 0 
z
" style="fill:#ffffff;"/>
  </g>
  <g id="axes_1">
   <g id="patch_2">
    <path d="M 57.6 307.584 
L 414.72 307.584 
L 414.72 41.472 
L 57.6 41.472 
z
" style="fill:#ffffff;"/>
   </g>
   <g id="PolyCollection_1">
    <path clip-path="url(#pb04f90082c)" d="M 73.832727 90.320489 
L 73.832727 90.320489 
L 77.112066 110.317761 
L 80.391405 121.236905 
L 83.670744 119.385591 
L 86.950083 125.109621 
L 90.229421 123.950183 
L 93.50876 126.908286 
L 96.788099 127.376899 
L 100.067438 124.598062 
L 103.346777 113.679254 
L 106.626116 127.659183 
L 109.905455 122.604268 
L 113.184793 125.462075 
L 116.464132 121.574119 
L 119.743471 121.714219 
L 123.02281 124.564017 
L 126.302149 116.331108 
L 129.581488 126.380601 
L 132.860826 120.969596 
L 136.140165 119.899715 
L 139.419504 123.084489 
L 142.698843 125.41933 
L 145.978182 125.685054 
L 149.257521 123.716226 
L 152.53686 126.509912 
L 155.816198 126.110533 
L 159.095537 123.500571 
L 162.374876 119.986084 
L 165.654215 121.798576 
L 168.933554 132.034247 
L 172.212893 129.077415 
L 175.492231 119.406391 
L 178.77157 128.75266 
L 182.050909 123.684389 
L 185.330248 127.679785 
L 188.609587 132.406094 
L 191.888926 133.103264 
L 195.168264 133.347807 
L 198.447603 135.829291 
L 201.726942 131.132775 
L 205.006281 128.512716 
L 208.28562 126.703017 
L 211.564959 136.061694 
L 214.844298 129.526967 
L 218.123636 133.250047 
L 221.402975 133.255226 
L 224.682314 141.280166 
L 227.961653 145.28016 
L 231.240992 135.830289 
L 234.520331 140.085835 
L 237.799669 139.617378 
L 241.079008 141.078564 
L 244.358347 146.86776 
L 247.637686 148.654087 
L 250.917025 140.504684 
L 254.196364 150.910343 
L 257.475702 151.028909 
L 260.755041 156.388215 
L 264.03438 150.384538 
L 267.313719 151.244992 
L 270.593058 150.511575 
L 273.872397 157.046767 
L 277.151736 166.865842 
L 280.431074 155.850003 
L 283.710413 172.626324 
L 286.989752 169.873283 
L 290.269091 159.951771 
L 293.54843 166.300903 
L 296.827769 172.033186 
L 300.107107 168.680407 
L 303.386446 182.17586 
L 306.665785 175.427404 
L 309.945124 187.682519 
L 313.224463 176.522205 
L 316.503802 179.431167 
L 319.78314 181.472321 
L 323.062479 182.148493 
L 326.341818 187.423587 
L 329.621157 183.979833 
L 332.900496 202.022638 
L 336.179835 193.670179 
L 339.459174 199.798012 
L 342.738512 187.480312 
L 346.017851 204.288311 
L 349.29719 202.675906 
L 352.576529 205.429889 
L 355.855868 191.966671 
L 359.135207 211.426146 
L 362.414545 219.584033 
L 365.693884 211.791493 
L 368.973223 204.952514 
L 372.252562 219.851167 
L 375.531901 215.383327 
L 378.81124 225.956834 
L 382.090579 224.002487 
L 385.369917 231.409232 
L 388.649256 224.590661 
L 391.928595 213.370144 
L 395.207934 219.280277 
L 398.487273 214.957277 
L 398.487273 123.997682 
L 398.487273 123.997682 
L 395.207934 130.3919 
L 391.928595 126.900964 
L 388.649256 132.038306 
L 385.369917 138.005187 
L 382.090579 119.653006 
L 378.81124 126.535663 
L 375.531901 123.383611 
L 372.252562 115.155344 
L 368.973223 122.721164 
L 365.693884 119.642612 
L 362.414545 118.618841 
L 359.135207 115.495446 
L 355.855868 108.44391 
L 352.576529 119.047426 
L 349.29719 102.811252 
L 346.017851 116.804619 
L 342.738512 93.940112 
L 339.459174 116.218342 
L 336.179835 114.261256 
L 332.900496 111.92548 
L 329.621157 103.833317 
L 326.341818 93.996837 
L 323.062479 100.400059 
L 319.78314 99.38404 
L 316.503802 100.673108 
L 313.224463 93.616938 
L 309.945124 89.789457 
L 306.665785 96.591953 
L 303.386446 86.647133 
L 300.107107 90.92954 
L 296.827769 91.337188 
L 293.54843 87.668403 
L 290.269091 90.44513 
L 286.989752 96.505432 
L 283.710413 82.283089 
L 280.431074 79.881231 
L 277.151736 79.58261 
L 273.872397 74.924041 
L 270.593058 80.519126 
L 267.313719 75.273196 
L 264.03438 68.800817 
L 260.755041 79.719063 
L 257.475702 73.985108 
L 254.196364 71.095333 
L 250.917025 69.843667 
L 247.637686 67.334905 
L 244.358347 73.821766 
L 241.079008 69.833851 
L 237.799669 59.449693 
L 234.520331 66.878132 
L 231.240992 62.108653 
L 227.961653 59.051508 
L 224.682314 66.247865 
L 221.402975 58.855054 
L 218.123636 62.996703 
L 214.844298 61.455185 
L 211.564959 67.70591 
L 208.28562 59.766622 
L 205.006281 61.905371 
L 201.726942 62.857718 
L 198.447603 61.733608 
L 195.168264 60.454665 
L 191.888926 62.767443 
L 188.609587 64.404719 
L 185.330248 57.285684 
L 182.050909 58.460759 
L 178.77157 68.058154 
L 175.492231 59.730415 
L 172.212893 64.913078 
L 168.933554 64.588546 
L 165.654215 57.33823 
L 162.374876 61.218957 
L 159.095537 53.568 
L 155.816198 61.487234 
L 152.53686 56.763365 
L 149.257521 58.05288 
L 145.978182 65.861161 
L 142.698843 62.178437 
L 139.419504 62.633065 
L 136.140165 61.681369 
L 132.860826 66.628171 
L 129.581488 64.977593 
L 126.302149 67.13019 
L 123.02281 64.725943 
L 119.743471 67.199698 
L 116.464132 69.03199 
L 113.184793 72.664888 
L 109.905455 73.642482 
L 106.626116 68.023503 
L 103.346777 63.953381 
L 100.067438 71.836709 
L 96.788099 78.270918 
L 93.50876 79.303596 
L 90.229421 76.621058 
L 86.950083 77.341834 
L 83.670744 77.425223 
L 80.391405 80.086422 
L 77.112066 78.596156 
L 73.832727 90.320489 
z
" style="fill:#1f77b4;fill-opacity:0.2;"/>
   </g>
   <g id="PolyCollection_2">
    <path clip-path="url(#pb04f90082c)" d="M 73.832727 137.325828 
L 73.832727 137.325828 
L 77.112066 149.980074 
L 80.391405 151.651769 
L 83.670744 154.119892 
L 86.950083 151.701125 
L 90.229421 157.556782 
L 93.50876 158.936964 
L 96.788099 167.209969 
L 100.067438 167.996891 
L 103.346777 169.028873 
L 106.626116 174.812997 
L 109.905455 169.803206 
L 113.184793 179.398078 
L 116.464132 174.04756 
L 119.743471 167.614411 
L 123.02281 182.987214 
L 126.302149 176.544735 
L 129.581488 188.678895 
L 132.860826 179.658303 
L 136.140165 176.507867 
L 139.419504 189.691021 
L 142.698843 190.084977 
L 145.978182 188.797341 
L 149.257521 194.331012 
L 152.53686 193.928761 
L 155.816198 192.939715 
L 159.095537 190.682429 
L 162.374876 189.375225 
L 165.654215 188.737611 
L 168.933554 202.157022 
L 172.212893 202.348362 
L 175.492231 195.301858 
L 178.77157 195.451474 
L 182.050909 195.732679 
L 185.330248 197.996201 
L 188.609587 201.758354 
L 191.888926 195.247566 
L 195.168264 202.968422 
L 198.447603 205.213653 
L 201.726942 199.129408 
L 205.006281 204.104011 
L 208.28562 194.912819 
L 211.564959 207.36407 
L 214.844298 211.423205 
L 218.123636 195.210757 
L 221.402975 205.327389 
L 224.682314 214.004038 
L 227.961653 219.154639 
L 231.240992 213.484093 
L 234.520331 208.863809 
L 237.799669 204.845093 
L 241.079008 217.585037 
L 244.358347 212.882677 
L 247.637686 210.271068 
L 250.917025 211.201963 
L 254.196364 214.232295 
L 257.475702 210.519985 
L 260.755041 225.50485 
L 264.03438 211.849945 
L 267.313719 218.504401 
L 270.593058 224.099635 
L 273.872397 217.378574 
L 277.151736 220.977186 
L 280.431074 230.235602 
L 283.710413 230.808167 
L 286.989752 233.310641 
L 290.269091 218.245937 
L 293.54843 229.148862 
L 296.827769 236.57578 
L 300.107107 236.010723 
L 303.386446 225.344341 
L 306.665785 247.047662 
L 309.945124 235.123209 
L 313.224463 234.228767 
L 316.503802 245.718629 
L 319.78314 237.933997 
L 323.062479 237.486062 
L 326.341818 249.64055 
L 329.621157 237.647413 
L 332.900496 246.040616 
L 336.179835 257.589058 
L 339.459174 250.236016 
L 342.738512 248.445453 
L 346.017851 255.463465 
L 349.29719 257.121097 
L 352.576529 261.248324 
L 355.855868 264.271461 
L 359.135207 263.805082 
L 362.414545 266.824969 
L 365.693884 265.717345 
L 368.973223 268.060461 
L 372.252562 266.775805 
L 375.531901 275.989296 
L 378.81124 281.482631 
L 382.090579 288.06296 
L 385.369917 293.615369 
L 388.649256 291.939805 
L 391.928595 293.173117 
L 395.207934 295.488 
L 398.487273 292.474459 
L 398.487273 253.115971 
L 398.487273 253.115971 
L 395.207934 218.326821 
L 391.928595 224.590152 
L 388.649256 206.457265 
L 385.369917 207.602021 
L 382.090579 192.472081 
L 378.81124 191.531556 
L 375.531901 179.162861 
L 372.252562 172.77058 
L 368.973223 164.529134 
L 365.693884 177.589467 
L 362.414545 169.525053 
L 359.135207 168.784513 
L 355.855868 157.224874 
L 352.576529 148.214644 
L 349.29719 159.298661 
L 346.017851 160.016187 
L 342.738512 142.027358 
L 339.459174 147.757649 
L 336.179835 139.464501 
L 332.900496 146.688452 
L 329.621157 142.672244 
L 326.341818 147.224987 
L 323.062479 127.603866 
L 319.78314 131.292401 
L 316.503802 146.258353 
L 313.224463 129.733033 
L 309.945124 130.15474 
L 306.665785 135.904295 
L 303.386446 130.156498 
L 300.107107 121.182308 
L 296.827769 136.787087 
L 293.54843 121.651443 
L 290.269091 124.469449 
L 286.989752 134.411586 
L 283.710413 120.932244 
L 280.431074 121.128767 
L 277.151736 124.558521 
L 273.872397 124.96077 
L 270.593058 119.931901 
L 267.313719 124.587028 
L 264.03438 121.652395 
L 260.755041 136.952779 
L 257.475702 115.27348 
L 254.196364 121.714323 
L 250.917025 130.761338 
L 247.637686 122.479187 
L 244.358347 131.33688 
L 241.079008 120.053773 
L 237.799669 116.435859 
L 234.520331 121.442168 
L 231.240992 123.402631 
L 227.961653 118.48417 
L 224.682314 124.386858 
L 221.402975 107.868645 
L 218.123636 120.805596 
L 214.844298 122.831221 
L 211.564959 115.04501 
L 208.28562 120.727492 
L 205.006281 122.62956 
L 201.726942 114.066626 
L 198.447603 120.579812 
L 195.168264 128.08964 
L 191.888926 123.965151 
L 188.609587 120.650726 
L 185.330248 128.549348 
L 182.050909 109.754479 
L 178.77157 118.308623 
L 175.492231 118.270218 
L 172.212893 116.30029 
L 168.933554 116.679652 
L 165.654215 108.85265 
L 162.374876 118.744232 
L 159.095537 116.120878 
L 155.816198 111.231293 
L 152.53686 114.942781 
L 149.257521 114.352509 
L 145.978182 112.553347 
L 142.698843 116.71833 
L 139.419504 111.659667 
L 136.140165 113.749561 
L 132.860826 115.111637 
L 129.581488 120.192648 
L 126.302149 116.909056 
L 123.02281 109.902513 
L 119.743471 111.925799 
L 116.464132 109.817142 
L 113.184793 119.508332 
L 109.905455 115.753688 
L 106.626116 111.684004 
L 103.346777 115.02385 
L 100.067438 119.252195 
L 96.788099 118.534947 
L 93.50876 118.34699 
L 90.229421 118.223002 
L 86.950083 125.206787 
L 83.670744 126.736468 
L 80.391405 125.820207 
L 77.112066 123.167411 
L 73.832727 137.325828 
z
" style="fill:#ff7f0e;fill-opacity:0.2;"/>
   </g>
   <g id="PolyCollection_3">
    <path clip-path="url(#pb04f90082c)" d="M 73.832727 127.92476 
L 73.832727 127.92476 
L 77.112066 138.374039 
L 80.391405 139.165702 
L 83.670744 138.064187 
L 86.950083 140.947603 
L 90.229421 141.167849 
L 93.50876 142.972298 
L 96.788099 142.52426 
L 100.067438 144.030092 
L 103.346777 146.18441 
L 106.626116 150.569616 
L 109.905455 152.449833 
L 113.184793 154.583627 
L 116.464132 144.194339 
L 119.743471 147.411312 
L 123.02281 158.807605 
L 126.302149 158.533131 
L 129.581488 153.659265 
L 132.860826 156.727053 
L 136.140165 167.737476 
L 139.419504 165.187006 
L 142.698843 172.233102 
L 145.978182 164.233418 
L 149.257521 160.603542 
L 152.53686 163.363803 
L 155.816198 167.774734 
L 159.095537 165.735349 
L 162.374876 164.160885 
L 165.654215 171.755715 
L 168.933554 177.265761 
L 172.212893 170.18925 
L 175.492231 170.945156 
L 178.77157 174.731854 
L 182.050909 177.48284 
L 185.330248 173.592813 
L 188.609587 177.375582 
L 191.888926 191.625631 
L 195.168264 182.868944 
L 198.447603 184.267325 
L 201.726942 184.715244 
L 205.006281 188.239105 
L 208.28562 177.009064 
L 211.564959 187.55926 
L 214.844298 189.563304 
L 218.123636 186.737273 
L 221.402975 185.465966 
L 224.682314 199.868775 
L 227.961653 200.548947 
L 231.240992 200.424773 
L 234.520331 192.055123 
L 237.799669 203.407606 
L 241.079008 203.162554 
L 244.358347 206.545445 
L 247.637686 202.46048 
L 250.917025 206.235216 
L 254.196364 202.778845 
L 257.475702 216.188256 
L 260.755041 210.334945 
L 264.03438 206.483966 
L 267.313719 215.432766 
L 270.593058 221.019151 
L 273.872397 222.499853 
L 277.151736 224.384212 
L 280.431074 223.133708 
L 283.710413 214.406277 
L 286.989752 227.92518 
L 290.269091 224.412874 
L 293.54843 228.951872 
L 296.827769 248.070064 
L 300.107107 233.490776 
L 303.386446 233.55341 
L 306.665785 239.648117 
L 309.945124 241.479692 
L 313.224463 245.728629 
L 316.503802 240.676748 
L 319.78314 242.757825 
L 323.062479 239.580743 
L 326.341818 258.733652 
L 329.621157 244.656151 
L 332.900496 267.317941 
L 336.179835 251.691533 
L 339.459174 261.964262 
L 342.738512 268.764731 
L 346.017851 265.274244 
L 349.29719 264.672867 
L 352.576529 264.241697 
L 355.855868 269.26204 
L 359.135207 268.761063 
L 362.414545 274.520063 
L 365.693884 271.491743 
L 368.973223 273.720584 
L 372.252562 288.184939 
L 375.531901 285.400624 
L 378.81124 289.902264 
L 382.090579 284.745342 
L 385.369917 290.29225 
L 388.649256 288.549438 
L 391.928595 294.916929 
L 395.207934 291.151825 
L 398.487273 288.965939 
L 398.487273 259.068769 
L 398.487273 259.068769 
L 395.207934 244.285451 
L 391.928595 239.204199 
L 388.649256 225.829447 
L 385.369917 233.487703 
L 382.090579 212.5236 
L 378.81124 213.571382 
L 375.531901 193.442225 
L 372.252562 202.127213 
L 368.973223 201.173816 
L 365.693884 185.72865 
L 362.414545 188.152949 
L 359.135207 187.895266 
L 355.855868 171.224452 
L 352.576529 191.286503 
L 349.29719 161.524002 
L 346.017851 189.877914 
L 342.738512 161.004543 
L 339.459174 169.685226 
L 336.179835 160.215713 
L 332.900496 170.912294 
L 329.621157 148.825002 
L 326.341818 167.087174 
L 323.062479 146.003513 
L 319.78314 159.184289 
L 316.503802 150.360127 
L 313.224463 146.812417 
L 309.945124 135.079538 
L 306.665785 148.192395 
L 303.386446 143.757906 
L 300.107107 139.308028 
L 296.827769 145.035046 
L 293.54843 138.206291 
L 290.269091 127.891602 
L 286.989752 126.259509 
L 283.710413 120.788255 
L 280.431074 125.034298 
L 277.151736 137.885396 
L 273.872397 121.719704 
L 270.593058 125.268641 
L 267.313719 126.154492 
L 264.03438 112.164687 
L 260.755041 117.902797 
L 257.475702 116.75002 
L 254.196364 124.142748 
L 250.917025 105.456646 
L 247.637686 113.179831 
L 244.358347 117.367806 
L 241.079008 117.930376 
L 237.799669 106.216022 
L 234.520331 106.475245 
L 231.240992 101.489979 
L 227.961653 89.896502 
L 224.682314 105.806405 
L 221.402975 98.022693 
L 218.123636 96.939407 
L 214.844298 94.301398 
L 211.564959 100.065869 
L 208.28562 94.634249 
L 205.006281 89.232871 
L 201.726942 96.70518 
L 198.447603 100.16144 
L 195.168264 98.55148 
L 191.888926 92.615113 
L 188.609587 89.379177 
L 185.330248 91.657774 
L 182.050909 94.912559 
L 178.77157 86.570286 
L 175.492231 86.220513 
L 172.212893 104.462405 
L 168.933554 94.377553 
L 165.654215 87.290168 
L 162.374876 91.124571 
L 159.095537 95.190748 
L 155.816198 94.091469 
L 152.53686 89.289354 
L 149.257521 78.324056 
L 145.978182 91.052038 
L 142.698843 91.701336 
L 139.419504 82.013532 
L 136.140165 88.300066 
L 132.860826 83.516694 
L 129.581488 85.644375 
L 126.302149 87.163236 
L 123.02281 86.70074 
L 119.743471 90.012115 
L 116.464132 90.220746 
L 113.184793 86.412206 
L 109.905455 97.383003 
L 106.626116 89.48611 
L 103.346777 95.375487 
L 100.067438 90.384993 
L 96.788099 95.839273 
L 93.50876 94.451129 
L 90.229421 97.759748 
L 86.950083 93.279461 
L 83.670744 103.307688 
L 80.391405 106.342644 
L 77.112066 113.903075 
L 73.832727 127.92476 
z
" style="fill:#2ca02c;fill-opacity:0.2;"/>
   </g>
   <g id="PolyCollection_4">
    <path clip-path="url(#pb04f90082c)" d="M 73.832727 118.523692 
L 73.832727 118.523692 
L 77.112066 134.187919 
L 80.391405 140.604502 
L 83.670744 139.888601 
L 86.950083 133.783633 
L 90.229421 134.570982 
L 93.50876 130.879097 
L 96.788099 133.895139 
L 100.067438 128.807768 
L 103.346777 128.640804 
L 106.626116 140.35169 
L 109.905455 138.08678 
L 113.184793 145.03241 
L 116.464132 141.318495 
L 119.743471 147.233092 
L 123.02281 151.577814 
L 126.302149 152.008791 
L 129.581488 154.734194 
L 132.860826 153.18976 
L 136.140165 154.754609 
L 139.419504 152.829753 
L 142.698843 155.837159 
L 145.978182 156.453906 
L 149.257521 154.757341 
L 152.53686 154.057378 
L 155.816198 153.435452 
L 159.095537 154.585916 
L 162.374876 153.283131 
L 165.654215 155.324932 
L 168.933554 151.229275 
L 172.212893 151.721009 
L 175.492231 152.381858 
L 178.77157 150.923152 
L 182.050909 150.600338 
L 185.330248 149.735237 
L 188.609587 149.790067 
L 191.888926 149.881844 
L 195.168264 149.21001 
L 198.447603 148.258481 
L 201.726942 146.726896 
L 205.006281 148.056407 
L 208.28562 147.756301 
L 211.564959 146.726896 
L 214.844298 146.726896 
L 218.123636 146.726896 
L 221.402975 146.726896 
L 224.682314 146.726896 
L 227.961653 146.726896 
L 231.240992 146.726896 
L 234.520331 146.726896 
L 237.799669 146.726896 
L 241.079008 146.726896 
L 244.358347 146.726896 
L 247.637686 146.726896 
L 250.917025 146.726896 
L 254.196364 146.726896 
L 257.475702 146.726896 
L 260.755041 146.726896 
L 264.03438 146.726896 
L 267.313719 146.726896 
L 270.593058 146.726896 
L 273.872397 146.726896 
L 277.151736 146.726896 
L 280.431074 146.726896 
L 283.710413 146.726896 
L 286.989752 146.726896 
L 290.269091 146.726896 
L 293.54843 146.726896 
L 296.827769 146.726896 
L 300.107107 146.726896 
L 303.386446 146.726896 
L 306.665785 146.726896 
L 309.945124 146.726896 
L 313.224463 146.726896 
L 316.503802 146.726896 
L 319.78314 146.726896 
L 323.062479 146.726896 
L 326.341818 146.726896 
L 329.621157 146.726896 
L 332.900496 146.726896 
L 336.179835 146.726896 
L 339.459174 146.726896 
L 342.738512 146.726896 
L 346.017851 146.726896 
L 349.29719 146.726896 
L 352.576529 146.726896 
L 355.855868 146.726896 
L 359.135207 146.726896 
L 362.414545 146.726896 
L 365.693884 146.726896 
L 368.973223 146.726896 
L 372.252562 146.726896 
L 375.531901 146.726896 
L 378.81124 146.726896 
L 382.090579 146.726896 
L 385.369917 146.726896 
L 388.649256 146.726896 
L 391.928595 146.726896 
L 395.207934 146.726896 
L 398.487273 146.726896 
L 398.487273 146.726896 
L 398.487273 146.726896 
L 395.207934 146.726896 
L 391.928595 146.726896 
L 388.649256 146.726896 
L 385.369917 146.726896 
L 382.090579 146.726896 
L 378.81124 146.726896 
L 375.531901 146.726896 
L 372.252562 146.726896 
L 368.973223 146.726896 
L 365.693884 146.726896 
L 362.414545 146.726896 
L 359.135207 146.726896 
L 355.855868 146.726896 
L 352.576529 146.726896 
L 349.29719 146.726896 
L 346.017851 146.726896 
L 342.738512 146.726896 
L 339.459174 146.726896 
L 336.179835 146.726896 
L 332.900496 146.726896 
L 329.621157 146.726896 
L 326.341818 146.726896 
L 323.062479 146.726896 
L 319.78314 146.726896 
L 316.503802 146.726896 
L 313.224463 146.726896 
L 309.945124 146.726896 
L 306.665785 146.726896 
L 303.386446 146.726896 
L 300.107107 146.726896 
L 296.827769 146.726896 
L 293.54843 146.726896 
L 290.269091 146.726896 
L 286.989752 146.726896 
L 283.710413 146.726896 
L 280.431074 146.726896 
L 277.151736 146.726896 
L 273.872397 146.726896 
L 270.593058 146.726896 
L 267.313719 146.726896 
L 264.03438 146.726896 
L 260.755041 146.726896 
L 257.475702 146.726896 
L 254.196364 146.726896 
L 250.917025 146.726896 
L 247.637686 146.726896 
L 244.358347 146.726896 
L 241.079008 146.726896 
L 237.799669 146.726896 
L 234.520331 146.726896 
L 231.240992 146.726896 
L 227.961653 146.726896 
L 224.682314 146.726896 
L 221.402975 146.726896 
L 218.123636 146.726896 
L 214.844298 146.726896 
L 211.564959 146.726896 
L 208.28562 145.885512 
L 205.006281 145.397384 
L 201.726942 146.726896 
L 198.447603 145.007288 
L 195.168264 144.619824 
L 191.888926 143.94799 
L 188.609587 143.287681 
L 185.330248 144.470639 
L 182.050909 143.605539 
L 178.77157 141.402511 
L 175.492231 141.259954 
L 172.212893 140.228612 
L 168.933554 139.028153 
L 165.654215 139.068966 
L 162.374876 139.606596 
L 159.095537 136.423598 
L 155.816198 135.881869 
L 152.53686 139.020371 
L 149.257521 130.799553 
L 145.978182 130.043095 
L 142.698843 130.659842 
L 139.419504 124.642223 
L 136.140165 124.221538 
L 132.860826 115.821255 
L 129.581488 114.276821 
L 126.302149 114.181903 
L 123.02281 108.408176 
L 119.743471 106.360172 
L 116.464132 99.301295 
L 113.184793 98.783743 
L 109.905455 98.208519 
L 106.626116 95.943609 
L 103.346777 93.364871 
L 100.067438 93.57395 
L 96.788099 86.606366 
L 93.50876 85.109895 
L 90.229421 89.69095 
L 86.950083 91.042363 
L 83.670744 95.466591 
L 80.391405 100.579352 
L 77.112066 108.124063 
L 73.832727 118.523692 
z
" style="fill:#d62728;fill-opacity:0.2;"/>
   </g>
   <g id="matplotlib.axis_1">
    <g id="xtick_1">
     <g id="line2d_1">
      <defs>
       <path d="M 0 0 
L 0 3.5 
" id="m3c6fc61b93" style="stroke:#000000;stroke-width:0.8;"/>
      </defs>
      <g>
       <use style="stroke:#000000;stroke-width:0.8;" x="401.766612" xlink:href="#m3c6fc61b93" y="307.584"/>
      </g>
     </g>
     <g id="text_1">
      <!-- 0 -->
      <g transform="translate(398.585362 322.182437)scale(0.1 -0.1)">
       <defs>
        <path d="M 31.78125 66.40625 
Q 24.171875 66.40625 20.328125 58.90625 
Q 16.5 51.421875 16.5 36.375 
Q 16.5 21.390625 20.328125 13.890625 
Q 24.171875 6.390625 31.78125 6.390625 
Q 39.453125 6.390625 43.28125 13.890625 
Q 47.125 21.390625 47.125 36.375 
Q 47.125 51.421875 43.28125 58.90625 
Q 39.453125 66.40625 31.78125 66.40625 
z
M 31.78125 74.21875 
Q 44.046875 74.21875 50.515625 64.515625 
Q 56.984375 54.828125 56.984375 36.375 
Q 56.984375 17.96875 50.515625 8.265625 
Q 44.046875 -1.421875 31.78125 -1.421875 
Q 19.53125 -1.421875 13.0625 8.265625 
Q 6.59375 17.96875 6.59375 36.375 
Q 6.59375 54.828125 13.0625 64.515625 
Q 19.53125 74.21875 31.78125 74.21875 
z
" id="DejaVuSans-48"/>
       </defs>
       <use xlink:href="#DejaVuSans-48"/>
      </g>
     </g>
    </g>
    <g id="xtick_2">
     <g id="line2d_2">
      <g>
       <use style="stroke:#000000;stroke-width:0.8;" x="336.179835" xlink:href="#m3c6fc61b93" y="307.584"/>
      </g>
     </g>
     <g id="text_2">
      <!-- 20 -->
      <g transform="translate(329.817335 322.182437)scale(0.1 -0.1)">
       <defs>
        <path d="M 19.1875 8.296875 
L 53.609375 8.296875 
L 53.609375 0 
L 7.328125 0 
L 7.328125 8.296875 
Q 12.9375 14.109375 22.625 23.890625 
Q 32.328125 33.6875 34.8125 36.53125 
Q 39.546875 41.84375 41.421875 45.53125 
Q 43.3125 49.21875 43.3125 52.78125 
Q 43.3125 58.59375 39.234375 62.25 
Q 35.15625 65.921875 28.609375 65.921875 
Q 23.96875 65.921875 18.8125 64.3125 
Q 13.671875 62.703125 7.8125 59.421875 
L 7.8125 69.390625 
Q 13.765625 71.78125 18.9375 73 
Q 24.125 74.21875 28.421875 74.21875 
Q 39.75 74.21875 46.484375 68.546875 
Q 53.21875 62.890625 53.21875 53.421875 
Q 53.21875 48.921875 51.53125 44.890625 
Q 49.859375 40.875 45.40625 35.40625 
Q 44.1875 33.984375 37.640625 27.21875 
Q 31.109375 20.453125 19.1875 8.296875 
z
" id="DejaVuSans-50"/>
       </defs>
       <use xlink:href="#DejaVuSans-50"/>
       <use x="63.623047" xlink:href="#DejaVuSans-48"/>
      </g>
     </g>
    </g>
    <g id="xtick_3">
     <g id="line2d_3">
      <g>
       <use style="stroke:#000000;stroke-width:0.8;" x="270.593058" xlink:href="#m3c6fc61b93" y="307.584"/>
      </g>
     </g>
     <g id="text_3">
      <!-- 40 -->
      <g transform="translate(264.230558 322.182437)scale(0.1 -0.1)">
       <defs>
        <path d="M 37.796875 64.3125 
L 12.890625 25.390625 
L 37.796875 25.390625 
z
M 35.203125 72.90625 
L 47.609375 72.90625 
L 47.609375 25.390625 
L 58.015625 25.390625 
L 58.015625 17.1875 
L 47.609375 17.1875 
L 47.609375 0 
L 37.796875 0 
L 37.796875 17.1875 
L 4.890625 17.1875 
L 4.890625 26.703125 
z
" id="DejaVuSans-52"/>
       </defs>
       <use xlink:href="#DejaVuSans-52"/>
       <use x="63.623047" xlink:href="#DejaVuSans-48"/>
      </g>
     </g>
    </g>
    <g id="xtick_4">
     <g id="line2d_4">
      <g>
       <use style="stroke:#000000;stroke-width:0.8;" x="205.006281" xlink:href="#m3c6fc61b93" y="307.584"/>
      </g>
     </g>
     <g id="text_4">
      <!-- 60 -->
      <g transform="translate(198.643781 322.182437)scale(0.1 -0.1)">
       <defs>
        <path d="M 33.015625 40.375 
Q 26.375 40.375 22.484375 35.828125 
Q 18.609375 31.296875 18.609375 23.390625 
Q 18.609375 15.53125 22.484375 10.953125 
Q 26.375 6.390625 33.015625 6.390625 
Q 39.65625 6.390625 43.53125 10.953125 
Q 47.40625 15.53125 47.40625 23.390625 
Q 47.40625 31.296875 43.53125 35.828125 
Q 39.65625 40.375 33.015625 40.375 
z
M 52.59375 71.296875 
L 52.59375 62.3125 
Q 48.875 64.0625 45.09375 64.984375 
Q 41.3125 65.921875 37.59375 65.921875 
Q 27.828125 65.921875 22.671875 59.328125 
Q 17.53125 52.734375 16.796875 39.40625 
Q 19.671875 43.65625 24.015625 45.921875 
Q 28.375 48.1875 33.59375 48.1875 
Q 44.578125 48.1875 50.953125 41.515625 
Q 57.328125 34.859375 57.328125 23.390625 
Q 57.328125 12.15625 50.6875 5.359375 
Q 44.046875 -1.421875 33.015625 -1.421875 
Q 20.359375 -1.421875 13.671875 8.265625 
Q 6.984375 17.96875 6.984375 36.375 
Q 6.984375 53.65625 15.1875 63.9375 
Q 23.390625 74.21875 37.203125 74.21875 
Q 40.921875 74.21875 44.703125 73.484375 
Q 48.484375 72.75 52.59375 71.296875 
z
" id="DejaVuSans-54"/>
       </defs>
       <use xlink:href="#DejaVuSans-54"/>
       <use x="63.623047" xlink:href="#DejaVuSans-48"/>
      </g>
     </g>
    </g>
    <g id="xtick_5">
     <g id="line2d_5">
      <g>
       <use style="stroke:#000000;stroke-width:0.8;" x="139.419504" xlink:href="#m3c6fc61b93" y="307.584"/>
      </g>
     </g>
     <g id="text_5">
      <!-- 80 -->
      <g transform="translate(133.057004 322.182437)scale(0.1 -0.1)">
       <defs>
        <path d="M 31.78125 34.625 
Q 24.75 34.625 20.71875 30.859375 
Q 16.703125 27.09375 16.703125 20.515625 
Q 16.703125 13.921875 20.71875 10.15625 
Q 24.75 6.390625 31.78125 6.390625 
Q 38.8125 6.390625 42.859375 10.171875 
Q 46.921875 13.96875 46.921875 20.515625 
Q 46.921875 27.09375 42.890625 30.859375 
Q 38.875 34.625 31.78125 34.625 
z
M 21.921875 38.8125 
Q 15.578125 40.375 12.03125 44.71875 
Q 8.5 49.078125 8.5 55.328125 
Q 8.5 64.0625 14.71875 69.140625 
Q 20.953125 74.21875 31.78125 74.21875 
Q 42.671875 74.21875 48.875 69.140625 
Q 55.078125 64.0625 55.078125 55.328125 
Q 55.078125 49.078125 51.53125 44.71875 
Q 48 40.375 41.703125 38.8125 
Q 48.828125 37.15625 52.796875 32.3125 
Q 56.78125 27.484375 56.78125 20.515625 
Q 56.78125 9.90625 50.3125 4.234375 
Q 43.84375 -1.421875 31.78125 -1.421875 
Q 19.734375 -1.421875 13.25 4.234375 
Q 6.78125 9.90625 6.78125 20.515625 
Q 6.78125 27.484375 10.78125 32.3125 
Q 14.796875 37.15625 21.921875 38.8125 
z
M 18.3125 54.390625 
Q 18.3125 48.734375 21.84375 45.5625 
Q 25.390625 42.390625 31.78125 42.390625 
Q 38.140625 42.390625 41.71875 45.5625 
Q 45.3125 48.734375 45.3125 54.390625 
Q 45.3125 60.0625 41.71875 63.234375 
Q 38.140625 66.40625 31.78125 66.40625 
Q 25.390625 66.40625 21.84375 63.234375 
Q 18.3125 60.0625 18.3125 54.390625 
z
" id="DejaVuSans-56"/>
       </defs>
       <use xlink:href="#DejaVuSans-56"/>
       <use x="63.623047" xlink:href="#DejaVuSans-48"/>
      </g>
     </g>
    </g>
    <g id="xtick_6">
     <g id="line2d_6">
      <g>
       <use style="stroke:#000000;stroke-width:0.8;" x="73.832727" xlink:href="#m3c6fc61b93" y="307.584"/>
      </g>
     </g>
     <g id="text_6">
      <!-- 100 -->
      <g transform="translate(64.288977 322.182437)scale(0.1 -0.1)">
       <defs>
        <path d="M 12.40625 8.296875 
L 28.515625 8.296875 
L 28.515625 63.921875 
L 10.984375 60.40625 
L 10.984375 69.390625 
L 28.421875 72.90625 
L 38.28125 72.90625 
L 38.28125 8.296875 
L 54.390625 8.296875 
L 54.390625 0 
L 12.40625 0 
z
" id="DejaVuSans-49"/>
       </defs>
       <use xlink:href="#DejaVuSans-49"/>
       <use x="63.623047" xlink:href="#DejaVuSans-48"/>
       <use x="127.246094" xlink:href="#DejaVuSans-48"/>
      </g>
     </g>
    </g>
    <g id="text_7">
     <!-- Number of features -->
     <g transform="translate(187.4225 335.860562)scale(0.1 -0.1)">
      <defs>
       <path d="M 9.8125 72.90625 
L 23.09375 72.90625 
L 55.421875 11.921875 
L 55.421875 72.90625 
L 64.984375 72.90625 
L 64.984375 0 
L 51.703125 0 
L 19.390625 60.984375 
L 19.390625 0 
L 9.8125 0 
z
" id="DejaVuSans-78"/>
       <path d="M 8.5 21.578125 
L 8.5 54.6875 
L 17.484375 54.6875 
L 17.484375 21.921875 
Q 17.484375 14.15625 20.5 10.265625 
Q 23.53125 6.390625 29.59375 6.390625 
Q 36.859375 6.390625 41.078125 11.03125 
Q 45.3125 15.671875 45.3125 23.6875 
L 45.3125 54.6875 
L 54.296875 54.6875 
L 54.296875 0 
L 45.3125 0 
L 45.3125 8.40625 
Q 42.046875 3.421875 37.71875 1 
Q 33.40625 -1.421875 27.6875 -1.421875 
Q 18.265625 -1.421875 13.375 4.4375 
Q 8.5 10.296875 8.5 21.578125 
z
M 31.109375 56 
z
" id="DejaVuSans-117"/>
       <path d="M 52 44.1875 
Q 55.375 50.25 60.0625 53.125 
Q 64.75 56 71.09375 56 
Q 79.640625 56 84.28125 50.015625 
Q 88.921875 44.046875 88.921875 33.015625 
L 88.921875 0 
L 79.890625 0 
L 79.890625 32.71875 
Q 79.890625 40.578125 77.09375 44.375 
Q 74.3125 48.1875 68.609375 48.1875 
Q 61.625 48.1875 57.5625 43.546875 
Q 53.515625 38.921875 53.515625 30.90625 
L 53.515625 0 
L 44.484375 0 
L 44.484375 32.71875 
Q 44.484375 40.625 41.703125 44.40625 
Q 38.921875 48.1875 33.109375 48.1875 
Q 26.21875 48.1875 22.15625 43.53125 
Q 18.109375 38.875 18.109375 30.90625 
L 18.109375 0 
L 9.078125 0 
L 9.078125 54.6875 
L 18.109375 54.6875 
L 18.109375 46.1875 
Q 21.1875 51.21875 25.484375 53.609375 
Q 29.78125 56 35.6875 56 
Q 41.65625 56 45.828125 52.96875 
Q 50 49.953125 52 44.1875 
z
" id="DejaVuSans-109"/>
       <path d="M 48.6875 27.296875 
Q 48.6875 37.203125 44.609375 42.84375 
Q 40.53125 48.484375 33.40625 48.484375 
Q 26.265625 48.484375 22.1875 42.84375 
Q 18.109375 37.203125 18.109375 27.296875 
Q 18.109375 17.390625 22.1875 11.75 
Q 26.265625 6.109375 33.40625 6.109375 
Q 40.53125 6.109375 44.609375 11.75 
Q 48.6875 17.390625 48.6875 27.296875 
z
M 18.109375 46.390625 
Q 20.953125 51.265625 25.265625 53.625 
Q 29.59375 56 35.59375 56 
Q 45.5625 56 51.78125 48.09375 
Q 58.015625 40.1875 58.015625 27.296875 
Q 58.015625 14.40625 51.78125 6.484375 
Q 45.5625 -1.421875 35.59375 -1.421875 
Q 29.59375 -1.421875 25.265625 0.953125 
Q 20.953125 3.328125 18.109375 8.203125 
L 18.109375 0 
L 9.078125 0 
L 9.078125 75.984375 
L 18.109375 75.984375 
z
" id="DejaVuSans-98"/>
       <path d="M 56.203125 29.59375 
L 56.203125 25.203125 
L 14.890625 25.203125 
Q 15.484375 15.921875 20.484375 11.0625 
Q 25.484375 6.203125 34.421875 6.203125 
Q 39.59375 6.203125 44.453125 7.46875 
Q 49.3125 8.734375 54.109375 11.28125 
L 54.109375 2.78125 
Q 49.265625 0.734375 44.1875 -0.34375 
Q 39.109375 -1.421875 33.890625 -1.421875 
Q 20.796875 -1.421875 13.15625 6.1875 
Q 5.515625 13.8125 5.515625 26.8125 
Q 5.515625 40.234375 12.765625 48.109375 
Q 20.015625 56 32.328125 56 
Q 43.359375 56 49.78125 48.890625 
Q 56.203125 41.796875 56.203125 29.59375 
z
M 47.21875 32.234375 
Q 47.125 39.59375 43.09375 43.984375 
Q 39.0625 48.390625 32.421875 48.390625 
Q 24.90625 48.390625 20.390625 44.140625 
Q 15.875 39.890625 15.1875 32.171875 
z
" id="DejaVuSans-101"/>
       <path d="M 41.109375 46.296875 
Q 39.59375 47.171875 37.8125 47.578125 
Q 36.03125 48 33.890625 48 
Q 26.265625 48 22.1875 43.046875 
Q 18.109375 38.09375 18.109375 28.8125 
L 18.109375 0 
L 9.078125 0 
L 9.078125 54.6875 
L 18.109375 54.6875 
L 18.109375 46.1875 
Q 20.953125 51.171875 25.484375 53.578125 
Q 30.03125 56 36.53125 56 
Q 37.453125 56 38.578125 55.875 
Q 39.703125 55.765625 41.0625 55.515625 
z
" id="DejaVuSans-114"/>
       <path id="DejaVuSans-32"/>
       <path d="M 30.609375 48.390625 
Q 23.390625 48.390625 19.1875 42.75 
Q 14.984375 37.109375 14.984375 27.296875 
Q 14.984375 17.484375 19.15625 11.84375 
Q 23.34375 6.203125 30.609375 6.203125 
Q 37.796875 6.203125 41.984375 11.859375 
Q 46.1875 17.53125 46.1875 27.296875 
Q 46.1875 37.015625 41.984375 42.703125 
Q 37.796875 48.390625 30.609375 48.390625 
z
M 30.609375 56 
Q 42.328125 56 49.015625 48.375 
Q 55.71875 40.765625 55.71875 27.296875 
Q 55.71875 13.875 49.015625 6.21875 
Q 42.328125 -1.421875 30.609375 -1.421875 
Q 18.84375 -1.421875 12.171875 6.21875 
Q 5.515625 13.875 5.515625 27.296875 
Q 5.515625 40.765625 12.171875 48.375 
Q 18.84375 56 30.609375 56 
z
" id="DejaVuSans-111"/>
       <path d="M 37.109375 75.984375 
L 37.109375 68.5 
L 28.515625 68.5 
Q 23.6875 68.5 21.796875 66.546875 
Q 19.921875 64.59375 19.921875 59.515625 
L 19.921875 54.6875 
L 34.71875 54.6875 
L 34.71875 47.703125 
L 19.921875 47.703125 
L 19.921875 0 
L 10.890625 0 
L 10.890625 47.703125 
L 2.296875 47.703125 
L 2.296875 54.6875 
L 10.890625 54.6875 
L 10.890625 58.5 
Q 10.890625 67.625 15.140625 71.796875 
Q 19.390625 75.984375 28.609375 75.984375 
z
" id="DejaVuSans-102"/>
       <path d="M 34.28125 27.484375 
Q 23.390625 27.484375 19.1875 25 
Q 14.984375 22.515625 14.984375 16.5 
Q 14.984375 11.71875 18.140625 8.90625 
Q 21.296875 6.109375 26.703125 6.109375 
Q 34.1875 6.109375 38.703125 11.40625 
Q 43.21875 16.703125 43.21875 25.484375 
L 43.21875 27.484375 
z
M 52.203125 31.203125 
L 52.203125 0 
L 43.21875 0 
L 43.21875 8.296875 
Q 40.140625 3.328125 35.546875 0.953125 
Q 30.953125 -1.421875 24.3125 -1.421875 
Q 15.921875 -1.421875 10.953125 3.296875 
Q 6 8.015625 6 15.921875 
Q 6 25.140625 12.171875 29.828125 
Q 18.359375 34.515625 30.609375 34.515625 
L 43.21875 34.515625 
L 43.21875 35.40625 
Q 43.21875 41.609375 39.140625 45 
Q 35.0625 48.390625 27.6875 48.390625 
Q 23 48.390625 18.546875 47.265625 
Q 14.109375 46.140625 10.015625 43.890625 
L 10.015625 52.203125 
Q 14.9375 54.109375 19.578125 55.046875 
Q 24.21875 56 28.609375 56 
Q 40.484375 56 46.34375 49.84375 
Q 52.203125 43.703125 52.203125 31.203125 
z
" id="DejaVuSans-97"/>
       <path d="M 18.3125 70.21875 
L 18.3125 54.6875 
L 36.8125 54.6875 
L 36.8125 47.703125 
L 18.3125 47.703125 
L 18.3125 18.015625 
Q 18.3125 11.328125 20.140625 9.421875 
Q 21.96875 7.515625 27.59375 7.515625 
L 36.8125 7.515625 
L 36.8125 0 
L 27.59375 0 
Q 17.1875 0 13.234375 3.875 
Q 9.28125 7.765625 9.28125 18.015625 
L 9.28125 47.703125 
L 2.6875 47.703125 
L 2.6875 54.6875 
L 9.28125 54.6875 
L 9.28125 70.21875 
z
" id="DejaVuSans-116"/>
       <path d="M 44.28125 53.078125 
L 44.28125 44.578125 
Q 40.484375 46.53125 36.375 47.5 
Q 32.28125 48.484375 27.875 48.484375 
Q 21.1875 48.484375 17.84375 46.4375 
Q 14.5 44.390625 14.5 40.28125 
Q 14.5 37.15625 16.890625 35.375 
Q 19.28125 33.59375 26.515625 31.984375 
L 29.59375 31.296875 
Q 39.15625 29.25 43.1875 25.515625 
Q 47.21875 21.78125 47.21875 15.09375 
Q 47.21875 7.46875 41.1875 3.015625 
Q 35.15625 -1.421875 24.609375 -1.421875 
Q 20.21875 -1.421875 15.453125 -0.5625 
Q 10.6875 0.296875 5.421875 2 
L 5.421875 11.28125 
Q 10.40625 8.6875 15.234375 7.390625 
Q 20.0625 6.109375 24.8125 6.109375 
Q 31.15625 6.109375 34.5625 8.28125 
Q 37.984375 10.453125 37.984375 14.40625 
Q 37.984375 18.0625 35.515625 20.015625 
Q 33.0625 21.96875 24.703125 23.78125 
L 21.578125 24.515625 
Q 13.234375 26.265625 9.515625 29.90625 
Q 5.8125 33.546875 5.8125 39.890625 
Q 5.8125 47.609375 11.28125 51.796875 
Q 16.75 56 26.8125 56 
Q 31.78125 56 36.171875 55.265625 
Q 40.578125 54.546875 44.28125 53.078125 
z
" id="DejaVuSans-115"/>
      </defs>
      <use xlink:href="#DejaVuSans-78"/>
      <use x="74.804688" xlink:href="#DejaVuSans-117"/>
      <use x="138.183594" xlink:href="#DejaVuSans-109"/>
      <use x="235.595703" xlink:href="#DejaVuSans-98"/>
      <use x="299.072266" xlink:href="#DejaVuSans-101"/>
      <use x="360.595703" xlink:href="#DejaVuSans-114"/>
      <use x="401.708984" xlink:href="#DejaVuSans-32"/>
      <use x="433.496094" xlink:href="#DejaVuSans-111"/>
      <use x="494.677734" xlink:href="#DejaVuSans-102"/>
      <use x="529.882812" xlink:href="#DejaVuSans-32"/>
      <use x="561.669922" xlink:href="#DejaVuSans-102"/>
      <use x="596.875" xlink:href="#DejaVuSans-101"/>
      <use x="658.398438" xlink:href="#DejaVuSans-97"/>
      <use x="719.677734" xlink:href="#DejaVuSans-116"/>
      <use x="758.886719" xlink:href="#DejaVuSans-117"/>
      <use x="822.265625" xlink:href="#DejaVuSans-114"/>
      <use x="861.128906" xlink:href="#DejaVuSans-101"/>
      <use x="922.652344" xlink:href="#DejaVuSans-115"/>
     </g>
    </g>
   </g>
   <g id="matplotlib.axis_2">
    <g id="ytick_1">
     <g id="line2d_7">
      <defs>
       <path d="M 0 0 
L -3.5 0 
" id="mb1703be81f" style="stroke:#000000;stroke-width:0.8;"/>
      </defs>
      <g>
       <use style="stroke:#000000;stroke-width:0.8;" x="57.6" xlink:href="#mb1703be81f" y="306.545049"/>
      </g>
     </g>
     <g id="text_8">
      <!-- 0.40 -->
      <g transform="translate(28.334375 310.344267)scale(0.1 -0.1)">
       <defs>
        <path d="M 10.6875 12.40625 
L 21 12.40625 
L 21 0 
L 10.6875 0 
z
" id="DejaVuSans-46"/>
       </defs>
       <use xlink:href="#DejaVuSans-48"/>
       <use x="63.623047" xlink:href="#DejaVuSans-46"/>
       <use x="95.410156" xlink:href="#DejaVuSans-52"/>
       <use x="159.033203" xlink:href="#DejaVuSans-48"/>
      </g>
     </g>
    </g>
    <g id="ytick_2">
     <g id="line2d_8">
      <g>
       <use style="stroke:#000000;stroke-width:0.8;" x="57.6" xlink:href="#mb1703be81f" y="259.539709"/>
      </g>
     </g>
     <g id="text_9">
      <!-- 0.45 -->
      <g transform="translate(28.334375 263.338928)scale(0.1 -0.1)">
       <defs>
        <path d="M 10.796875 72.90625 
L 49.515625 72.90625 
L 49.515625 64.59375 
L 19.828125 64.59375 
L 19.828125 46.734375 
Q 21.96875 47.46875 24.109375 47.828125 
Q 26.265625 48.1875 28.421875 48.1875 
Q 40.625 48.1875 47.75 41.5 
Q 54.890625 34.8125 54.890625 23.390625 
Q 54.890625 11.625 47.5625 5.09375 
Q 40.234375 -1.421875 26.90625 -1.421875 
Q 22.3125 -1.421875 17.546875 -0.640625 
Q 12.796875 0.140625 7.71875 1.703125 
L 7.71875 11.625 
Q 12.109375 9.234375 16.796875 8.0625 
Q 21.484375 6.890625 26.703125 6.890625 
Q 35.15625 6.890625 40.078125 11.328125 
Q 45.015625 15.765625 45.015625 23.390625 
Q 45.015625 31 40.078125 35.4375 
Q 35.15625 39.890625 26.703125 39.890625 
Q 22.75 39.890625 18.8125 39.015625 
Q 14.890625 38.140625 10.796875 36.28125 
z
" id="DejaVuSans-53"/>
       </defs>
       <use xlink:href="#DejaVuSans-48"/>
       <use x="63.623047" xlink:href="#DejaVuSans-46"/>
       <use x="95.410156" xlink:href="#DejaVuSans-52"/>
       <use x="159.033203" xlink:href="#DejaVuSans-53"/>
      </g>
     </g>
    </g>
    <g id="ytick_3">
     <g id="line2d_9">
      <g>
       <use style="stroke:#000000;stroke-width:0.8;" x="57.6" xlink:href="#mb1703be81f" y="212.53437"/>
      </g>
     </g>
     <g id="text_10">
      <!-- 0.50 -->
      <g transform="translate(28.334375 216.333589)scale(0.1 -0.1)">
       <use xlink:href="#DejaVuSans-48"/>
       <use x="63.623047" xlink:href="#DejaVuSans-46"/>
       <use x="95.410156" xlink:href="#DejaVuSans-53"/>
       <use x="159.033203" xlink:href="#DejaVuSans-48"/>
      </g>
     </g>
    </g>
    <g id="ytick_4">
     <g id="line2d_10">
      <g>
       <use style="stroke:#000000;stroke-width:0.8;" x="57.6" xlink:href="#mb1703be81f" y="165.529031"/>
      </g>
     </g>
     <g id="text_11">
      <!-- 0.55 -->
      <g transform="translate(28.334375 169.32825)scale(0.1 -0.1)">
       <use xlink:href="#DejaVuSans-48"/>
       <use x="63.623047" xlink:href="#DejaVuSans-46"/>
       <use x="95.410156" xlink:href="#DejaVuSans-53"/>
       <use x="159.033203" xlink:href="#DejaVuSans-53"/>
      </g>
     </g>
    </g>
    <g id="ytick_5">
     <g id="line2d_11">
      <g>
       <use style="stroke:#000000;stroke-width:0.8;" x="57.6" xlink:href="#mb1703be81f" y="118.523692"/>
      </g>
     </g>
     <g id="text_12">
      <!-- 0.60 -->
      <g transform="translate(28.334375 122.322911)scale(0.1 -0.1)">
       <use xlink:href="#DejaVuSans-48"/>
       <use x="63.623047" xlink:href="#DejaVuSans-46"/>
       <use x="95.410156" xlink:href="#DejaVuSans-54"/>
       <use x="159.033203" xlink:href="#DejaVuSans-48"/>
      </g>
     </g>
    </g>
    <g id="ytick_6">
     <g id="line2d_12">
      <g>
       <use style="stroke:#000000;stroke-width:0.8;" x="57.6" xlink:href="#mb1703be81f" y="71.518353"/>
      </g>
     </g>
     <g id="text_13">
      <!-- 0.65 -->
      <g transform="translate(28.334375 75.317572)scale(0.1 -0.1)">
       <use xlink:href="#DejaVuSans-48"/>
       <use x="63.623047" xlink:href="#DejaVuSans-46"/>
       <use x="95.410156" xlink:href="#DejaVuSans-54"/>
       <use x="159.033203" xlink:href="#DejaVuSans-53"/>
      </g>
     </g>
    </g>
    <g id="text_14">
     <!-- Accuracy -->
     <g transform="translate(22.254687 197.356125)rotate(-90)scale(0.1 -0.1)">
      <defs>
       <path d="M 34.1875 63.1875 
L 20.796875 26.90625 
L 47.609375 26.90625 
z
M 28.609375 72.90625 
L 39.796875 72.90625 
L 67.578125 0 
L 57.328125 0 
L 50.6875 18.703125 
L 17.828125 18.703125 
L 11.1875 0 
L 0.78125 0 
z
" id="DejaVuSans-65"/>
       <path d="M 48.78125 52.59375 
L 48.78125 44.1875 
Q 44.96875 46.296875 41.140625 47.34375 
Q 37.3125 48.390625 33.40625 48.390625 
Q 24.65625 48.390625 19.8125 42.84375 
Q 14.984375 37.3125 14.984375 27.296875 
Q 14.984375 17.28125 19.8125 11.734375 
Q 24.65625 6.203125 33.40625 6.203125 
Q 37.3125 6.203125 41.140625 7.25 
Q 44.96875 8.296875 48.78125 10.40625 
L 48.78125 2.09375 
Q 45.015625 0.34375 40.984375 -0.53125 
Q 36.96875 -1.421875 32.421875 -1.421875 
Q 20.0625 -1.421875 12.78125 6.34375 
Q 5.515625 14.109375 5.515625 27.296875 
Q 5.515625 40.671875 12.859375 48.328125 
Q 20.21875 56 33.015625 56 
Q 37.15625 56 41.109375 55.140625 
Q 45.0625 54.296875 48.78125 52.59375 
z
" id="DejaVuSans-99"/>
       <path d="M 32.171875 -5.078125 
Q 28.375 -14.84375 24.75 -17.8125 
Q 21.140625 -20.796875 15.09375 -20.796875 
L 7.90625 -20.796875 
L 7.90625 -13.28125 
L 13.1875 -13.28125 
Q 16.890625 -13.28125 18.9375 -11.515625 
Q 21 -9.765625 23.484375 -3.21875 
L 25.09375 0.875 
L 2.984375 54.6875 
L 12.5 54.6875 
L 29.59375 11.921875 
L 46.6875 54.6875 
L 56.203125 54.6875 
z
" id="DejaVuSans-121"/>
      </defs>
      <use xlink:href="#DejaVuSans-65"/>
      <use x="66.658203" xlink:href="#DejaVuSans-99"/>
      <use x="121.638672" xlink:href="#DejaVuSans-99"/>
      <use x="176.619141" xlink:href="#DejaVuSans-117"/>
      <use x="239.998047" xlink:href="#DejaVuSans-114"/>
      <use x="281.111328" xlink:href="#DejaVuSans-97"/>
      <use x="342.390625" xlink:href="#DejaVuSans-99"/>
      <use x="397.371094" xlink:href="#DejaVuSans-121"/>
     </g>
    </g>
   </g>
   <g id="line2d_13">
    <path clip-path="url(#pb04f90082c)" d="M 73.832727 90.320489 
L 77.112066 94.456958 
L 80.391405 100.661663 
L 83.670744 98.405407 
L 86.950083 101.225727 
L 90.229421 100.28562 
L 93.50876 103.105941 
L 96.788099 102.823909 
L 100.067438 98.217386 
L 103.346777 88.816318 
L 106.626116 97.841343 
L 109.905455 98.123375 
L 113.184793 99.063482 
L 116.464132 95.303055 
L 119.743471 94.456958 
L 123.02281 94.64498 
L 126.302149 91.730649 
L 129.581488 95.679097 
L 132.860826 93.798884 
L 136.140165 90.790542 
L 139.419504 92.858777 
L 142.698843 93.798884 
L 145.978182 95.773108 
L 149.257521 90.884553 
L 152.53686 91.636638 
L 155.816198 93.798884 
L 159.095537 88.534286 
L 162.374876 90.602521 
L 165.654215 89.568403 
L 168.933554 98.311396 
L 172.212893 96.995247 
L 175.492231 89.568403 
L 178.77157 98.405407 
L 182.050909 91.072574 
L 185.330248 92.482734 
L 188.609587 98.405407 
L 191.888926 97.935354 
L 195.168264 96.901236 
L 198.447603 98.78145 
L 201.726942 96.995247 
L 205.006281 95.209044 
L 208.28562 93.23482 
L 211.564959 101.883802 
L 214.844298 95.491076 
L 218.123636 98.123375 
L 221.402975 96.05514 
L 224.682314 103.764016 
L 227.961653 102.165834 
L 231.240992 98.969471 
L 234.520331 103.481984 
L 237.799669 99.533535 
L 241.079008 105.456208 
L 244.358347 110.344763 
L 247.637686 107.994496 
L 250.917025 105.174176 
L 254.196364 111.002838 
L 257.475702 112.507009 
L 260.755041 118.053639 
L 264.03438 109.592678 
L 267.313719 113.259094 
L 270.593058 115.51535 
L 273.872397 115.985404 
L 277.151736 123.224226 
L 280.431074 117.865617 
L 283.710413 127.454707 
L 286.989752 133.189358 
L 290.269091 125.19845 
L 293.54843 126.984653 
L 296.827769 131.685187 
L 300.107107 129.804973 
L 303.386446 134.411497 
L 306.665785 136.009678 
L 309.945124 138.735988 
L 313.224463 135.069571 
L 316.503802 140.052137 
L 319.78314 140.42818 
L 323.062479 141.274276 
L 326.341818 140.710212 
L 329.621157 143.906575 
L 332.900496 156.974059 
L 336.179835 153.965718 
L 339.459174 158.008177 
L 342.738512 140.710212 
L 346.017851 160.546465 
L 349.29719 152.743579 
L 352.576529 162.238657 
L 355.855868 150.205291 
L 359.135207 163.460796 
L 362.414545 169.101437 
L 365.693884 165.717053 
L 368.973223 163.836839 
L 372.252562 167.503255 
L 375.531901 169.383469 
L 378.81124 176.246249 
L 382.090579 171.827747 
L 385.369917 184.70721 
L 388.649256 178.314483 
L 391.928595 170.135554 
L 395.207934 174.836088 
L 398.487273 169.47748 
" style="fill:none;stroke:#1f77b4;stroke-linecap:square;stroke-width:1.5;"/>
   </g>
   <g id="line2d_14">
    <path clip-path="url(#pb04f90082c)" d="M 73.832727 137.325828 
L 77.112066 136.573742 
L 80.391405 138.735988 
L 83.670744 140.42818 
L 86.950083 138.453956 
L 90.229421 137.889892 
L 93.50876 138.641977 
L 96.788099 142.872458 
L 100.067438 143.624543 
L 103.346777 142.026362 
L 106.626116 143.2485 
L 109.905455 142.778447 
L 113.184793 149.453205 
L 116.464132 141.932351 
L 119.743471 139.770105 
L 123.02281 146.444864 
L 126.302149 146.726896 
L 129.581488 154.435771 
L 132.860826 147.38497 
L 136.140165 145.128714 
L 139.419504 150.675344 
L 142.698843 153.401654 
L 145.978182 150.675344 
L 149.257521 154.34176 
L 152.53686 154.435771 
L 155.816198 152.085504 
L 159.095537 153.401654 
L 162.374876 154.059728 
L 165.654215 148.79513 
L 168.933554 159.418337 
L 172.212893 159.324326 
L 175.492231 156.786038 
L 178.77157 156.880049 
L 182.050909 152.743579 
L 185.330248 163.272775 
L 188.609587 161.20454 
L 191.888926 159.606358 
L 195.168264 165.529031 
L 198.447603 162.896732 
L 201.726942 156.598017 
L 205.006281 163.366786 
L 208.28562 157.820156 
L 211.564959 161.20454 
L 214.844298 167.127213 
L 218.123636 158.008177 
L 221.402975 156.598017 
L 224.682314 169.195448 
L 227.961653 168.819405 
L 231.240992 168.443362 
L 234.520331 165.152988 
L 237.799669 160.640476 
L 241.079008 168.819405 
L 244.358347 172.109779 
L 247.637686 166.375127 
L 250.917025 170.981651 
L 254.196364 167.973309 
L 257.475702 162.896732 
L 260.755041 181.228814 
L 264.03438 166.75117 
L 267.313719 171.545715 
L 270.593058 172.015768 
L 273.872397 171.169672 
L 277.151736 172.767853 
L 280.431074 175.682184 
L 283.710413 175.870206 
L 286.989752 183.861113 
L 290.269091 171.357693 
L 293.54843 175.400152 
L 296.827769 186.681434 
L 300.107107 178.596515 
L 303.386446 177.750419 
L 306.665785 191.475978 
L 309.945124 182.638975 
L 313.224463 181.9809 
L 316.503802 195.988491 
L 319.78314 184.613199 
L 323.062479 182.544964 
L 326.341818 198.432769 
L 329.621157 190.159829 
L 332.900496 196.364534 
L 336.179835 198.526779 
L 339.459174 198.996833 
L 342.738512 195.236406 
L 346.017851 207.739826 
L 349.29719 208.209879 
L 352.576529 204.731484 
L 355.855868 210.748167 
L 359.135207 216.294797 
L 362.414545 218.175011 
L 365.693884 221.653406 
L 368.973223 216.294797 
L 372.252562 219.773193 
L 375.531901 227.576079 
L 378.81124 236.507093 
L 382.090579 240.26752 
L 385.369917 250.608695 
L 388.649256 249.198535 
L 391.928595 258.881635 
L 395.207934 256.90741 
L 398.487273 272.795215 
" style="fill:none;stroke:#ff7f0e;stroke-linecap:square;stroke-width:1.5;"/>
   </g>
   <g id="line2d_15">
    <path clip-path="url(#pb04f90082c)" d="M 73.832727 127.92476 
L 77.112066 126.138557 
L 80.391405 122.754173 
L 83.670744 120.685938 
L 86.950083 117.113532 
L 90.229421 119.463799 
L 93.50876 118.711713 
L 96.788099 119.181767 
L 100.067438 117.207543 
L 103.346777 120.779948 
L 106.626116 120.027863 
L 109.905455 124.916418 
L 113.184793 120.497916 
L 116.464132 117.207543 
L 119.743471 118.711713 
L 123.02281 122.754173 
L 126.302149 122.848183 
L 129.581488 119.65182 
L 132.860826 120.121874 
L 136.140165 128.018771 
L 139.419504 123.600269 
L 142.698843 131.967219 
L 145.978182 127.642728 
L 149.257521 119.463799 
L 152.53686 126.326578 
L 155.816198 130.933102 
L 159.095537 130.463048 
L 162.374876 127.642728 
L 165.654215 129.522941 
L 168.933554 135.821657 
L 172.212893 137.325828 
L 175.492231 128.582835 
L 178.77157 130.65107 
L 182.050909 136.1977 
L 185.330248 132.625294 
L 188.609587 133.377379 
L 191.888926 142.120372 
L 195.168264 140.710212 
L 198.447603 142.214383 
L 201.726942 140.710212 
L 205.006281 138.735988 
L 208.28562 135.821657 
L 211.564959 143.812565 
L 214.844298 141.932351 
L 218.123636 141.83834 
L 221.402975 141.74433 
L 224.682314 152.83759 
L 227.961653 145.222725 
L 231.240992 150.957376 
L 234.520331 149.265184 
L 237.799669 154.811814 
L 241.079008 160.546465 
L 244.358347 161.956625 
L 247.637686 157.820156 
L 250.917025 155.845931 
L 254.196364 163.460796 
L 257.475702 166.469138 
L 260.755041 164.118871 
L 264.03438 159.324326 
L 267.313719 170.793629 
L 270.593058 173.143896 
L 273.872397 172.109779 
L 277.151736 181.134804 
L 280.431074 174.084003 
L 283.710413 167.597266 
L 286.989752 177.092345 
L 290.269091 176.152238 
L 293.54843 183.579081 
L 296.827769 196.552555 
L 300.107107 186.399402 
L 303.386446 188.655658 
L 306.665785 193.920256 
L 309.945124 188.279615 
L 313.224463 196.270523 
L 316.503802 195.518438 
L 319.78314 200.971057 
L 323.062479 192.792128 
L 326.341818 212.910413 
L 329.621157 196.740576 
L 332.900496 219.115118 
L 336.179835 205.953623 
L 339.459174 215.824744 
L 342.738512 214.884637 
L 346.017851 227.576079 
L 349.29719 213.098434 
L 352.576529 227.7641 
L 355.855868 220.243246 
L 359.135207 228.328164 
L 362.414545 231.336506 
L 365.693884 228.610196 
L 368.973223 237.4472 
L 372.252562 245.156076 
L 375.531901 239.421424 
L 378.81124 251.736823 
L 382.090579 248.634471 
L 385.369917 261.889976 
L 388.649256 257.189442 
L 391.928595 267.060564 
L 395.207934 267.718638 
L 398.487273 274.017354 
" style="fill:none;stroke:#2ca02c;stroke-linecap:square;stroke-width:1.5;"/>
   </g>
   <g id="line2d_16">
    <path clip-path="url(#pb04f90082c)" d="M 73.832727 118.523692 
L 77.112066 121.155991 
L 80.391405 120.591927 
L 83.670744 117.677596 
L 86.950083 112.412998 
L 90.229421 112.130966 
L 93.50876 107.994496 
L 96.788099 110.250752 
L 100.067438 111.190859 
L 103.346777 111.002838 
L 106.626116 118.147649 
L 109.905455 118.147649 
L 113.184793 121.908076 
L 116.464132 120.309895 
L 119.743471 126.796632 
L 123.02281 129.992995 
L 126.302149 133.095347 
L 129.581488 134.505507 
L 132.860826 134.505507 
L 136.140165 139.488073 
L 139.419504 138.735988 
L 142.698843 143.2485 
L 145.978182 143.2485 
L 149.257521 142.778447 
L 152.53686 146.538874 
L 155.816198 144.658661 
L 159.095537 145.504757 
L 162.374876 146.444864 
L 165.654215 147.196949 
L 168.933554 145.128714 
L 172.212893 145.97481 
L 175.492231 146.820906 
L 178.77157 146.162831 
L 182.050909 147.102938 
L 185.330248 147.102938 
L 188.609587 146.538874 
L 191.888926 146.914917 
L 195.168264 146.914917 
L 198.447603 146.632885 
L 201.726942 146.726896 
L 205.006281 146.726896 
L 208.28562 146.820906 
L 211.564959 146.726896 
L 214.844298 146.726896 
L 218.123636 146.726896 
L 221.402975 146.726896 
L 224.682314 146.726896 
L 227.961653 146.726896 
L 231.240992 146.726896 
L 234.520331 146.726896 
L 237.799669 146.726896 
L 241.079008 146.726896 
L 244.358347 146.726896 
L 247.637686 146.726896 
L 250.917025 146.726896 
L 254.196364 146.726896 
L 257.475702 146.726896 
L 260.755041 146.726896 
L 264.03438 146.726896 
L 267.313719 146.726896 
L 270.593058 146.726896 
L 273.872397 146.726896 
L 277.151736 146.726896 
L 280.431074 146.726896 
L 283.710413 146.726896 
L 286.989752 146.726896 
L 290.269091 146.726896 
L 293.54843 146.726896 
L 296.827769 146.726896 
L 300.107107 146.726896 
L 303.386446 146.726896 
L 306.665785 146.726896 
L 309.945124 146.726896 
L 313.224463 146.726896 
L 316.503802 146.726896 
L 319.78314 146.726896 
L 323.062479 146.726896 
L 326.341818 146.726896 
L 329.621157 146.726896 
L 332.900496 146.726896 
L 336.179835 146.726896 
L 339.459174 146.726896 
L 342.738512 146.726896 
L 346.017851 146.726896 
L 349.29719 146.726896 
L 352.576529 146.726896 
L 355.855868 146.726896 
L 359.135207 146.726896 
L 362.414545 146.726896 
L 365.693884 146.726896 
L 368.973223 146.726896 
L 372.252562 146.726896 
L 375.531901 146.726896 
L 378.81124 146.726896 
L 382.090579 146.726896 
L 385.369917 146.726896 
L 388.649256 146.726896 
L 391.928595 146.726896 
L 395.207934 146.726896 
L 398.487273 146.726896 
" style="fill:none;stroke:#d62728;stroke-linecap:square;stroke-width:1.5;"/>
   </g>
   <g id="patch_3">
    <path d="M 57.6 307.584 
L 57.6 41.472 
" style="fill:none;stroke:#000000;stroke-linecap:square;stroke-linejoin:miter;stroke-width:0.8;"/>
   </g>
   <g id="patch_4">
    <path d="M 414.72 307.584 
L 414.72 41.472 
" style="fill:none;stroke:#000000;stroke-linecap:square;stroke-linejoin:miter;stroke-width:0.8;"/>
   </g>
   <g id="patch_5">
    <path d="M 57.6 307.584 
L 414.72 307.584 
" style="fill:none;stroke:#000000;stroke-linecap:square;stroke-linejoin:miter;stroke-width:0.8;"/>
   </g>
   <g id="patch_6">
    <path d="M 57.6 41.472 
L 414.72 41.472 
" style="fill:none;stroke:#000000;stroke-linecap:square;stroke-linejoin:miter;stroke-width:0.8;"/>
   </g>
   <g id="text_15">
    <!-- Toy_non_linear_1000_100 -->
    <g transform="translate(159.3225 35.472)scale(0.12 -0.12)">
     <defs>
      <path d="M -0.296875 72.90625 
L 61.375 72.90625 
L 61.375 64.59375 
L 35.5 64.59375 
L 35.5 0 
L 25.59375 0 
L 25.59375 64.59375 
L -0.296875 64.59375 
z
" id="DejaVuSans-84"/>
      <path d="M 50.984375 -16.609375 
L 50.984375 -23.578125 
L -0.984375 -23.578125 
L -0.984375 -16.609375 
z
" id="DejaVuSans-95"/>
      <path d="M 54.890625 33.015625 
L 54.890625 0 
L 45.90625 0 
L 45.90625 32.71875 
Q 45.90625 40.484375 42.875 44.328125 
Q 39.84375 48.1875 33.796875 48.1875 
Q 26.515625 48.1875 22.3125 43.546875 
Q 18.109375 38.921875 18.109375 30.90625 
L 18.109375 0 
L 9.078125 0 
L 9.078125 54.6875 
L 18.109375 54.6875 
L 18.109375 46.1875 
Q 21.34375 51.125 25.703125 53.5625 
Q 30.078125 56 35.796875 56 
Q 45.21875 56 50.046875 50.171875 
Q 54.890625 44.34375 54.890625 33.015625 
z
" id="DejaVuSans-110"/>
      <path d="M 9.421875 75.984375 
L 18.40625 75.984375 
L 18.40625 0 
L 9.421875 0 
z
" id="DejaVuSans-108"/>
      <path d="M 9.421875 54.6875 
L 18.40625 54.6875 
L 18.40625 0 
L 9.421875 0 
z
M 9.421875 75.984375 
L 18.40625 75.984375 
L 18.40625 64.59375 
L 9.421875 64.59375 
z
" id="DejaVuSans-105"/>
     </defs>
     <use xlink:href="#DejaVuSans-84"/>
     <use x="44.083984" xlink:href="#DejaVuSans-111"/>
     <use x="105.265625" xlink:href="#DejaVuSans-121"/>
     <use x="164.445312" xlink:href="#DejaVuSans-95"/>
     <use x="214.445312" xlink:href="#DejaVuSans-110"/>
     <use x="277.824219" xlink:href="#DejaVuSans-111"/>
     <use x="339.005859" xlink:href="#DejaVuSans-110"/>
     <use x="402.384766" xlink:href="#DejaVuSans-95"/>
     <use x="452.384766" xlink:href="#DejaVuSans-108"/>
     <use x="480.167969" xlink:href="#DejaVuSans-105"/>
     <use x="507.951172" xlink:href="#DejaVuSans-110"/>
     <use x="571.330078" xlink:href="#DejaVuSans-101"/>
     <use x="632.853516" xlink:href="#DejaVuSans-97"/>
     <use x="694.132812" xlink:href="#DejaVuSans-114"/>
     <use x="735.246094" xlink:href="#DejaVuSans-95"/>
     <use x="785.246094" xlink:href="#DejaVuSans-49"/>
     <use x="848.869141" xlink:href="#DejaVuSans-48"/>
     <use x="912.492188" xlink:href="#DejaVuSans-48"/>
     <use x="976.115234" xlink:href="#DejaVuSans-48"/>
     <use x="1039.738281" xlink:href="#DejaVuSans-95"/>
     <use x="1089.738281" xlink:href="#DejaVuSans-49"/>
     <use x="1153.361328" xlink:href="#DejaVuSans-48"/>
     <use x="1216.984375" xlink:href="#DejaVuSans-48"/>
    </g>
   </g>
   <g id="legend_1">
    <g id="patch_7">
     <path d="M 300.468437 108.1845 
L 407.72 108.1845 
Q 409.72 108.1845 409.72 106.1845 
L 409.72 48.472 
Q 409.72 46.472 407.72 46.472 
L 300.468437 46.472 
Q 298.468437 46.472 298.468437 48.472 
L 298.468437 106.1845 
Q 298.468437 108.1845 300.468437 108.1845 
z
" style="fill:#ffffff;opacity:0.8;stroke:#cccccc;stroke-linejoin:miter;"/>
    </g>
    <g id="line2d_17">
     <path d="M 302.468437 54.570438 
L 322.468437 54.570438 
" style="fill:none;stroke:#1f77b4;stroke-linecap:square;stroke-width:1.5;"/>
    </g>
    <g id="line2d_18"/>
    <g id="text_16">
     <!-- Random Forest -->
     <g transform="translate(330.468437 58.070438)scale(0.1 -0.1)">
      <defs>
       <path d="M 44.390625 34.1875 
Q 47.5625 33.109375 50.5625 29.59375 
Q 53.5625 26.078125 56.59375 19.921875 
L 66.609375 0 
L 56 0 
L 46.6875 18.703125 
Q 43.0625 26.03125 39.671875 28.421875 
Q 36.28125 30.8125 30.421875 30.8125 
L 19.671875 30.8125 
L 19.671875 0 
L 9.8125 0 
L 9.8125 72.90625 
L 32.078125 72.90625 
Q 44.578125 72.90625 50.734375 67.671875 
Q 56.890625 62.453125 56.890625 51.90625 
Q 56.890625 45.015625 53.6875 40.46875 
Q 50.484375 35.9375 44.390625 34.1875 
z
M 19.671875 64.796875 
L 19.671875 38.921875 
L 32.078125 38.921875 
Q 39.203125 38.921875 42.84375 42.21875 
Q 46.484375 45.515625 46.484375 51.90625 
Q 46.484375 58.296875 42.84375 61.546875 
Q 39.203125 64.796875 32.078125 64.796875 
z
" id="DejaVuSans-82"/>
       <path d="M 45.40625 46.390625 
L 45.40625 75.984375 
L 54.390625 75.984375 
L 54.390625 0 
L 45.40625 0 
L 45.40625 8.203125 
Q 42.578125 3.328125 38.25 0.953125 
Q 33.9375 -1.421875 27.875 -1.421875 
Q 17.96875 -1.421875 11.734375 6.484375 
Q 5.515625 14.40625 5.515625 27.296875 
Q 5.515625 40.1875 11.734375 48.09375 
Q 17.96875 56 27.875 56 
Q 33.9375 56 38.25 53.625 
Q 42.578125 51.265625 45.40625 46.390625 
z
M 14.796875 27.296875 
Q 14.796875 17.390625 18.875 11.75 
Q 22.953125 6.109375 30.078125 6.109375 
Q 37.203125 6.109375 41.296875 11.75 
Q 45.40625 17.390625 45.40625 27.296875 
Q 45.40625 37.203125 41.296875 42.84375 
Q 37.203125 48.484375 30.078125 48.484375 
Q 22.953125 48.484375 18.875 42.84375 
Q 14.796875 37.203125 14.796875 27.296875 
z
" id="DejaVuSans-100"/>
       <path d="M 9.8125 72.90625 
L 51.703125 72.90625 
L 51.703125 64.59375 
L 19.671875 64.59375 
L 19.671875 43.109375 
L 48.578125 43.109375 
L 48.578125 34.8125 
L 19.671875 34.8125 
L 19.671875 0 
L 9.8125 0 
z
" id="DejaVuSans-70"/>
      </defs>
      <use xlink:href="#DejaVuSans-82"/>
      <use x="67.232422" xlink:href="#DejaVuSans-97"/>
      <use x="128.511719" xlink:href="#DejaVuSans-110"/>
      <use x="191.890625" xlink:href="#DejaVuSans-100"/>
      <use x="255.367188" xlink:href="#DejaVuSans-111"/>
      <use x="316.548828" xlink:href="#DejaVuSans-109"/>
      <use x="413.960938" xlink:href="#DejaVuSans-32"/>
      <use x="445.748047" xlink:href="#DejaVuSans-70"/>
      <use x="499.642578" xlink:href="#DejaVuSans-111"/>
      <use x="560.824219" xlink:href="#DejaVuSans-114"/>
      <use x="599.6875" xlink:href="#DejaVuSans-101"/>
      <use x="661.210938" xlink:href="#DejaVuSans-115"/>
      <use x="713.310547" xlink:href="#DejaVuSans-116"/>
     </g>
    </g>
    <g id="line2d_19">
     <path d="M 302.468437 69.248563 
L 322.468437 69.248563 
" style="fill:none;stroke:#ff7f0e;stroke-linecap:square;stroke-width:1.5;"/>
    </g>
    <g id="line2d_20"/>
    <g id="text_17">
     <!-- AdaBoost -->
     <g transform="translate(330.468437 72.748563)scale(0.1 -0.1)">
      <defs>
       <path d="M 19.671875 34.8125 
L 19.671875 8.109375 
L 35.5 8.109375 
Q 43.453125 8.109375 47.28125 11.40625 
Q 51.125 14.703125 51.125 21.484375 
Q 51.125 28.328125 47.28125 31.5625 
Q 43.453125 34.8125 35.5 34.8125 
z
M 19.671875 64.796875 
L 19.671875 42.828125 
L 34.28125 42.828125 
Q 41.5 42.828125 45.03125 45.53125 
Q 48.578125 48.25 48.578125 53.8125 
Q 48.578125 59.328125 45.03125 62.0625 
Q 41.5 64.796875 34.28125 64.796875 
z
M 9.8125 72.90625 
L 35.015625 72.90625 
Q 46.296875 72.90625 52.390625 68.21875 
Q 58.5 63.53125 58.5 54.890625 
Q 58.5 48.1875 55.375 44.234375 
Q 52.25 40.28125 46.1875 39.3125 
Q 53.46875 37.75 57.5 32.78125 
Q 61.53125 27.828125 61.53125 20.40625 
Q 61.53125 10.640625 54.890625 5.3125 
Q 48.25 0 35.984375 0 
L 9.8125 0 
z
" id="DejaVuSans-66"/>
      </defs>
      <use xlink:href="#DejaVuSans-65"/>
      <use x="66.658203" xlink:href="#DejaVuSans-100"/>
      <use x="130.134766" xlink:href="#DejaVuSans-97"/>
      <use x="191.414062" xlink:href="#DejaVuSans-66"/>
      <use x="260.017578" xlink:href="#DejaVuSans-111"/>
      <use x="321.199219" xlink:href="#DejaVuSans-111"/>
      <use x="382.380859" xlink:href="#DejaVuSans-115"/>
      <use x="434.480469" xlink:href="#DejaVuSans-116"/>
     </g>
    </g>
    <g id="line2d_21">
     <path d="M 302.468437 83.926688 
L 322.468437 83.926688 
" style="fill:none;stroke:#2ca02c;stroke-linecap:square;stroke-width:1.5;"/>
    </g>
    <g id="line2d_22"/>
    <g id="text_18">
     <!-- LightGBM -->
     <g transform="translate(330.468437 87.426688)scale(0.1 -0.1)">
      <defs>
       <path d="M 9.8125 72.90625 
L 19.671875 72.90625 
L 19.671875 8.296875 
L 55.171875 8.296875 
L 55.171875 0 
L 9.8125 0 
z
" id="DejaVuSans-76"/>
       <path d="M 45.40625 27.984375 
Q 45.40625 37.75 41.375 43.109375 
Q 37.359375 48.484375 30.078125 48.484375 
Q 22.859375 48.484375 18.828125 43.109375 
Q 14.796875 37.75 14.796875 27.984375 
Q 14.796875 18.265625 18.828125 12.890625 
Q 22.859375 7.515625 30.078125 7.515625 
Q 37.359375 7.515625 41.375 12.890625 
Q 45.40625 18.265625 45.40625 27.984375 
z
M 54.390625 6.78125 
Q 54.390625 -7.171875 48.1875 -13.984375 
Q 42 -20.796875 29.203125 -20.796875 
Q 24.46875 -20.796875 20.265625 -20.09375 
Q 16.0625 -19.390625 12.109375 -17.921875 
L 12.109375 -9.1875 
Q 16.0625 -11.328125 19.921875 -12.34375 
Q 23.78125 -13.375 27.78125 -13.375 
Q 36.625 -13.375 41.015625 -8.765625 
Q 45.40625 -4.15625 45.40625 5.171875 
L 45.40625 9.625 
Q 42.625 4.78125 38.28125 2.390625 
Q 33.9375 0 27.875 0 
Q 17.828125 0 11.671875 7.65625 
Q 5.515625 15.328125 5.515625 27.984375 
Q 5.515625 40.671875 11.671875 48.328125 
Q 17.828125 56 27.875 56 
Q 33.9375 56 38.28125 53.609375 
Q 42.625 51.21875 45.40625 46.390625 
L 45.40625 54.6875 
L 54.390625 54.6875 
z
" id="DejaVuSans-103"/>
       <path d="M 54.890625 33.015625 
L 54.890625 0 
L 45.90625 0 
L 45.90625 32.71875 
Q 45.90625 40.484375 42.875 44.328125 
Q 39.84375 48.1875 33.796875 48.1875 
Q 26.515625 48.1875 22.3125 43.546875 
Q 18.109375 38.921875 18.109375 30.90625 
L 18.109375 0 
L 9.078125 0 
L 9.078125 75.984375 
L 18.109375 75.984375 
L 18.109375 46.1875 
Q 21.34375 51.125 25.703125 53.5625 
Q 30.078125 56 35.796875 56 
Q 45.21875 56 50.046875 50.171875 
Q 54.890625 44.34375 54.890625 33.015625 
z
" id="DejaVuSans-104"/>
       <path d="M 59.515625 10.40625 
L 59.515625 29.984375 
L 43.40625 29.984375 
L 43.40625 38.09375 
L 69.28125 38.09375 
L 69.28125 6.78125 
Q 63.578125 2.734375 56.6875 0.65625 
Q 49.8125 -1.421875 42 -1.421875 
Q 24.90625 -1.421875 15.25 8.5625 
Q 5.609375 18.5625 5.609375 36.375 
Q 5.609375 54.25 15.25 64.234375 
Q 24.90625 74.21875 42 74.21875 
Q 49.125 74.21875 55.546875 72.453125 
Q 61.96875 70.703125 67.390625 67.28125 
L 67.390625 56.78125 
Q 61.921875 61.421875 55.765625 63.765625 
Q 49.609375 66.109375 42.828125 66.109375 
Q 29.4375 66.109375 22.71875 58.640625 
Q 16.015625 51.171875 16.015625 36.375 
Q 16.015625 21.625 22.71875 14.15625 
Q 29.4375 6.6875 42.828125 6.6875 
Q 48.046875 6.6875 52.140625 7.59375 
Q 56.25 8.5 59.515625 10.40625 
z
" id="DejaVuSans-71"/>
       <path d="M 9.8125 72.90625 
L 24.515625 72.90625 
L 43.109375 23.296875 
L 61.8125 72.90625 
L 76.515625 72.90625 
L 76.515625 0 
L 66.890625 0 
L 66.890625 64.015625 
L 48.09375 14.015625 
L 38.1875 14.015625 
L 19.390625 64.015625 
L 19.390625 0 
L 9.8125 0 
z
" id="DejaVuSans-77"/>
      </defs>
      <use xlink:href="#DejaVuSans-76"/>
      <use x="55.712891" xlink:href="#DejaVuSans-105"/>
      <use x="83.496094" xlink:href="#DejaVuSans-103"/>
      <use x="146.972656" xlink:href="#DejaVuSans-104"/>
      <use x="210.351562" xlink:href="#DejaVuSans-116"/>
      <use x="249.560547" xlink:href="#DejaVuSans-71"/>
      <use x="327.050781" xlink:href="#DejaVuSans-66"/>
      <use x="395.654297" xlink:href="#DejaVuSans-77"/>
     </g>
    </g>
    <g id="line2d_23">
     <path d="M 302.468437 98.604813 
L 322.468437 98.604813 
" style="fill:none;stroke:#d62728;stroke-linecap:square;stroke-width:1.5;"/>
    </g>
    <g id="line2d_24"/>
    <g id="text_19">
     <!-- XGBoost -->
     <g transform="translate(330.468437 102.104813)scale(0.1 -0.1)">
      <defs>
       <path d="M 6.296875 72.90625 
L 16.890625 72.90625 
L 35.015625 45.796875 
L 53.21875 72.90625 
L 63.8125 72.90625 
L 40.375 37.890625 
L 65.375 0 
L 54.78125 0 
L 34.28125 31 
L 13.625 0 
L 2.984375 0 
L 29 38.921875 
z
" id="DejaVuSans-88"/>
      </defs>
      <use xlink:href="#DejaVuSans-88"/>
      <use x="68.505859" xlink:href="#DejaVuSans-71"/>
      <use x="145.996094" xlink:href="#DejaVuSans-66"/>
      <use x="214.599609" xlink:href="#DejaVuSans-111"/>
      <use x="275.78125" xlink:href="#DejaVuSans-111"/>
      <use x="336.962891" xlink:href="#DejaVuSans-115"/>
      <use x="389.0625" xlink:href="#DejaVuSans-116"/>
     </g>
    </g>
   </g>
  </g>
 </g>
 <defs>
  <clipPath id="pb04f90082c">
   <rect height="266.112" width="357.12" x="57.6" y="41.472"/>
  </clipPath>
 </defs>
</svg>
