<?xml version="1.0" encoding="utf-8" standalone="no"?>
<!DOCTYPE svg PUBLIC "-//W3C//DTD SVG 1.1//EN"
  "http://www.w3.org/Graphics/SVG/1.1/DTD/svg11.dtd">
<!-- Created with matplotlib (https://matplotlib.org/) -->
<svg height="345.6pt" version="1.1" viewBox="0 0 460.8 345.6" width="460.8pt" xmlns="http://www.w3.org/2000/svg" xmlns:xlink="http://www.w3.org/1999/xlink">
 <metadata>
  <rdf:RDF xmlns:cc="http://creativecommons.org/ns#" xmlns:dc="http://purl.org/dc/elements/1.1/" xmlns:rdf="http://www.w3.org/1999/02/22-rdf-syntax-ns#">
   <cc:Work>
    <dc:type rdf:resource="http://purl.org/dc/dcmitype/StillImage"/>
    <dc:date>2023-09-19T15:46:35.135972</dc:date>
    <dc:format>image/svg+xml</dc:format>
    <dc:creator>
     <cc:Agent>
      <dc:title>Matplotlib v3.3.4, https://matplotlib.org/</dc:title>
     </cc:Agent>
    </dc:creator>
   </cc:Work>
  </rdf:RDF>
 </metadata>
 <defs>
  <style type="text/css">*{stroke-linecap:butt;stroke-linejoin:round;}</style>
 </defs>
 <g id="figure_1">
  <g id="patch_1">
   <path d="M 0 345.6 
L 460.8 345.6 
L 460.8 0 
L 0 0 
z
" style="fill:#ffffff;"/>
  </g>
  <g id="axes_1">
   <g id="patch_2">
    <path d="M 57.6 307.584 
L 414.72 307.584 
L 414.72 41.472 
L 57.6 41.472 
z
" style="fill:#ffffff;"/>
   </g>
   <g id="PolyCollection_1">
    <path clip-path="url(#p52ef196b66)" d="M 73.832727 162.429153 
L 73.832727 162.429153 
L 77.112066 174.395529 
L 80.391405 181.241128 
L 83.670744 179.505424 
L 86.950083 185.436515 
L 90.229421 184.510908 
L 93.50876 182.23539 
L 96.788099 174.921604 
L 100.067438 180.086149 
L 103.346777 183.616382 
L 106.626116 183.01113 
L 109.905455 180.045377 
L 113.184793 177.257999 
L 116.464132 184.578279 
L 119.743471 178.044953 
L 123.02281 181.631352 
L 126.302149 179.552957 
L 129.581488 181.630121 
L 132.860826 179.202766 
L 136.140165 178.28856 
L 139.419504 184.998547 
L 142.698843 185.927173 
L 145.978182 184.93367 
L 149.257521 185.84594 
L 152.53686 182.490819 
L 155.816198 181.312517 
L 159.095537 184.900433 
L 162.374876 178.490546 
L 165.654215 189.393192 
L 168.933554 184.078234 
L 172.212893 187.726867 
L 175.492231 192.776817 
L 178.77157 189.793325 
L 182.050909 195.765466 
L 185.330248 186.415915 
L 188.609587 183.114586 
L 191.888926 194.786283 
L 195.168264 194.759504 
L 198.447603 198.175117 
L 201.726942 196.194249 
L 205.006281 198.571122 
L 208.28562 202.250095 
L 211.564959 198.443022 
L 214.844298 202.550555 
L 218.123636 204.88609 
L 221.402975 201.461325 
L 224.682314 201.135952 
L 227.961653 203.490311 
L 231.240992 201.571621 
L 234.520331 206.556297 
L 237.799669 204.418408 
L 241.079008 214.884611 
L 244.358347 202.073087 
L 247.637686 217.974375 
L 250.917025 217.703105 
L 254.196364 213.18837 
L 257.475702 214.004683 
L 260.755041 218.300793 
L 264.03438 219.583882 
L 267.313719 222.365204 
L 270.593058 220.574554 
L 273.872397 218.550843 
L 277.151736 225.455314 
L 280.431074 233.188164 
L 283.710413 224.97072 
L 286.989752 227.703311 
L 290.269091 222.665865 
L 293.54843 225.114933 
L 296.827769 232.026373 
L 300.107107 243.86373 
L 303.386446 239.493456 
L 306.665785 243.983101 
L 309.945124 240.31491 
L 313.224463 246.399688 
L 316.503802 250.665843 
L 319.78314 246.196768 
L 323.062479 232.567131 
L 326.341818 249.851207 
L 329.621157 249.242538 
L 332.900496 263.076476 
L 336.179835 252.697307 
L 339.459174 261.761429 
L 342.738512 265.5469 
L 346.017851 255.238879 
L 349.29719 269.554763 
L 352.576529 275.700033 
L 355.855868 270.037505 
L 359.135207 270.931735 
L 362.414545 270.331218 
L 365.693884 276.186887 
L 368.973223 280.518282 
L 372.252562 280.612125 
L 375.531901 279.895592 
L 378.81124 283.444348 
L 382.090579 284.055579 
L 385.369917 284.839083 
L 388.649256 282.678017 
L 391.928595 286.910811 
L 395.207934 285.352153 
L 398.487273 278.655107 
L 398.487273 259.389622 
L 398.487273 259.389622 
L 395.207934 245.253731 
L 391.928595 243.513637 
L 388.649256 236.860316 
L 385.369917 229.256192 
L 382.090579 218.972146 
L 378.81124 205.794298 
L 375.531901 200.089856 
L 372.252562 196.83323 
L 368.973223 210.716152 
L 365.693884 200.351291 
L 362.414545 200.945338 
L 359.135207 190.547317 
L 355.855868 188.901453 
L 352.576529 186.323325 
L 349.29719 185.936925 
L 346.017851 174.307569 
L 342.738512 170.712652 
L 339.459174 175.405299 
L 336.179835 158.705615 
L 332.900496 160.845478 
L 329.621157 159.257419 
L 326.341818 164.091808 
L 323.062479 148.717539 
L 319.78314 154.864344 
L 316.503802 164.91009 
L 313.224463 152.484201 
L 309.945124 163.286296 
L 306.665785 154.719353 
L 303.386446 156.306034 
L 300.107107 161.188958 
L 296.827769 161.958765 
L 293.54843 143.287834 
L 290.269091 143.378243 
L 286.989752 141.062326 
L 283.710413 141.799129 
L 280.431074 143.923494 
L 277.151736 139.137313 
L 273.872397 142.413078 
L 270.593058 140.026496 
L 267.313719 133.699965 
L 264.03438 131.763971 
L 260.755041 131.414142 
L 257.475702 121.558302 
L 254.196364 131.809248 
L 250.917025 132.374701 
L 247.637686 142.08237 
L 244.358347 127.502535 
L 241.079008 136.826112 
L 237.799669 125.33865 
L 234.520331 128.462382 
L 231.240992 121.653767 
L 227.961653 126.629617 
L 224.682314 126.443882 
L 221.402975 125.392769 
L 218.123636 129.225413 
L 214.844298 122.30775 
L 211.564959 126.415283 
L 208.28562 119.886682 
L 205.006281 119.755514 
L 201.726942 116.326459 
L 198.447603 111.261191 
L 195.168264 116.854028 
L 191.888926 118.641601 
L 188.609587 110.536856 
L 185.330248 113.585761 
L 182.050909 113.126537 
L 178.77157 113.474186 
L 175.492231 108.676341 
L 172.212893 108.101798 
L 168.933554 114.83483 
L 165.654215 112.604271 
L 162.374876 112.620802 
L 159.095537 114.012631 
L 155.816198 111.250313 
L 152.53686 110.072011 
L 149.257521 110.8899 
L 145.978182 114.523699 
L 142.698843 113.348762 
L 139.419504 114.640258 
L 136.140165 110.645565 
L 132.860826 113.5415 
L 129.581488 109.844098 
L 126.302149 117.364319 
L 123.02281 111.838655 
L 119.743471 114.155007 
L 116.464132 114.153349 
L 113.184793 131.815439 
L 109.905455 116.146158 
L 106.626116 118.986333 
L 103.346777 125.819926 
L 100.067438 123.907102 
L 96.788099 124.172895 
L 93.50876 130.829624 
L 90.229421 126.558318 
L 86.950083 133.615862 
L 83.670744 138.639776 
L 80.391405 141.077083 
L 77.112066 144.838284 
L 73.832727 162.429153 
z
" style="fill:#1f77b4;fill-opacity:0.2;"/>
   </g>
   <g id="PolyCollection_2">
    <path clip-path="url(#p52ef196b66)" d="M 73.832727 153.35739 
L 73.832727 153.35739 
L 77.112066 165.624811 
L 80.391405 164.714298 
L 83.670744 163.910542 
L 86.950083 168.381294 
L 90.229421 165.232484 
L 93.50876 170.434419 
L 96.788099 165.681238 
L 100.067438 170.39993 
L 103.346777 174.525742 
L 106.626116 171.209172 
L 109.905455 182.081884 
L 113.184793 174.520915 
L 116.464132 176.243176 
L 119.743471 176.739924 
L 123.02281 178.21571 
L 126.302149 178.140517 
L 129.581488 177.312371 
L 132.860826 183.125964 
L 136.140165 183.542924 
L 139.419504 182.77289 
L 142.698843 184.443674 
L 145.978182 187.923341 
L 149.257521 186.567998 
L 152.53686 193.892351 
L 155.816198 198.039729 
L 159.095537 192.591936 
L 162.374876 198.521878 
L 165.654215 188.486999 
L 168.933554 199.836876 
L 172.212893 198.052804 
L 175.492231 205.181674 
L 178.77157 205.263606 
L 182.050909 201.49332 
L 185.330248 210.041643 
L 188.609587 209.066425 
L 191.888926 207.73473 
L 195.168264 207.632644 
L 198.447603 208.759948 
L 201.726942 211.305875 
L 205.006281 217.56528 
L 208.28562 217.528698 
L 211.564959 221.646077 
L 214.844298 211.504381 
L 218.123636 215.838994 
L 221.402975 220.728463 
L 224.682314 212.133689 
L 227.961653 220.790473 
L 231.240992 222.281846 
L 234.520331 219.286634 
L 237.799669 227.570797 
L 241.079008 226.344267 
L 244.358347 224.779227 
L 247.637686 231.751518 
L 250.917025 227.178324 
L 254.196364 228.834456 
L 257.475702 236.228555 
L 260.755041 237.415969 
L 264.03438 232.81377 
L 267.313719 240.947262 
L 270.593058 242.718577 
L 273.872397 234.101968 
L 277.151736 238.403506 
L 280.431074 245.181433 
L 283.710413 241.144272 
L 286.989752 244.518153 
L 290.269091 244.335349 
L 293.54843 238.399197 
L 296.827769 253.616128 
L 300.107107 249.380424 
L 303.386446 251.36496 
L 306.665785 252.861868 
L 309.945124 249.364907 
L 313.224463 249.668936 
L 316.503802 258.652274 
L 319.78314 259.532824 
L 323.062479 267.87568 
L 326.341818 263.783001 
L 329.621157 263.46023 
L 332.900496 261.643985 
L 336.179835 264.465733 
L 339.459174 274.557254 
L 342.738512 272.347748 
L 346.017851 263.913088 
L 349.29719 275.632542 
L 352.576529 271.406141 
L 355.855868 273.629302 
L 359.135207 275.239903 
L 362.414545 273.073532 
L 365.693884 278.446074 
L 368.973223 279.306169 
L 372.252562 278.575095 
L 375.531901 286.385808 
L 378.81124 282.715623 
L 382.090579 282.597743 
L 385.369917 282.273644 
L 388.649256 281.793817 
L 391.928595 279.790186 
L 395.207934 283.745867 
L 398.487273 274.609049 
L 398.487273 268.334432 
L 398.487273 268.334432 
L 395.207934 255.024603 
L 391.928595 259.524591 
L 388.649256 248.449196 
L 385.369917 237.990431 
L 382.090579 237.484896 
L 378.81124 224.666548 
L 375.531901 227.528033 
L 372.252562 213.022209 
L 368.973223 226.443085 
L 365.693884 214.421277 
L 362.414545 210.177751 
L 359.135207 212.547261 
L 355.855868 208.351933 
L 352.576529 207.490696 
L 349.29719 206.893 
L 346.017851 200.287493 
L 342.738512 200.561725 
L 339.459174 200.710877 
L 336.179835 187.941556 
L 332.900496 188.767516 
L 329.621157 188.039883 
L 326.341818 184.269842 
L 323.062479 190.700408 
L 319.78314 194.688818 
L 316.503802 179.240195 
L 313.224463 181.328993 
L 309.945124 176.552835 
L 306.665785 177.410321 
L 303.386446 179.99584 
L 300.107107 174.904401 
L 296.827769 176.837496 
L 293.54843 160.847563 
L 290.269091 162.894562 
L 286.989752 168.154815 
L 283.710413 170.077215 
L 280.431074 166.584359 
L 277.151736 167.737793 
L 273.872397 164.237615 
L 270.593058 160.882629 
L 267.313719 163.92399 
L 264.03438 158.994144 
L 260.755041 159.109262 
L 257.475702 159.026629 
L 254.196364 155.534613 
L 250.917025 157.00931 
L 247.637686 161.689313 
L 244.358347 154.509655 
L 241.079008 147.138686 
L 237.799669 150.266603 
L 234.520331 142.765899 
L 231.240992 146.846661 
L 227.961653 148.338035 
L 224.682314 136.67407 
L 221.402975 151.847315 
L 218.123636 136.234599 
L 214.844298 143.109306 
L 211.564959 139.317844 
L 208.28562 145.975317 
L 205.006281 143.398641 
L 201.726942 137.139013 
L 198.447603 137.326282 
L 195.168264 138.272151 
L 191.888926 138.532936 
L 188.609587 136.656935 
L 185.330248 133.323059 
L 182.050909 130.07809 
L 178.77157 134.10952 
L 175.492231 131.651358 
L 172.212893 129.345595 
L 168.933554 134.093192 
L 165.654215 115.143382 
L 162.374876 133.412402 
L 159.095537 130.452017 
L 155.816198 131.173022 
L 152.53686 126.792943 
L 149.257521 124.501228 
L 145.978182 126.230285 
L 142.698843 121.36393 
L 139.419504 131.1993 
L 136.140165 128.433478 
L 132.860826 123.225945 
L 129.581488 126.680881 
L 126.302149 119.321065 
L 123.02281 119.790178 
L 119.743471 122.17314 
L 116.464132 120.129795 
L 113.184793 126.025067 
L 109.905455 124.995767 
L 106.626116 122.079399 
L 103.346777 124.024452 
L 100.067438 122.52577 
L 96.788099 117.809829 
L 93.50876 125.757116 
L 90.229421 123.701641 
L 86.950083 126.358759 
L 83.670744 128.107982 
L 80.391405 134.561636 
L 77.112066 140.364228 
L 73.832727 153.35739 
z
" style="fill:#ff7f0e;fill-opacity:0.2;"/>
   </g>
   <g id="PolyCollection_3">
    <path clip-path="url(#p52ef196b66)" d="M 73.832727 53.568 
L 73.832727 53.568 
L 77.112066 82.739015 
L 80.391405 97.761667 
L 83.670744 105.946111 
L 86.950083 106.608752 
L 90.229421 120.960328 
L 93.50876 114.487347 
L 96.788099 118.643297 
L 100.067438 124.004014 
L 103.346777 123.740132 
L 106.626116 130.148098 
L 109.905455 133.648609 
L 113.184793 132.766749 
L 116.464132 134.987924 
L 119.743471 135.105478 
L 123.02281 142.72144 
L 126.302149 142.443772 
L 129.581488 143.318731 
L 132.860826 145.629953 
L 136.140165 147.643739 
L 139.419504 146.309173 
L 142.698843 146.682439 
L 145.978182 160.496184 
L 149.257521 155.782128 
L 152.53686 153.612911 
L 155.816198 160.000454 
L 159.095537 160.061875 
L 162.374876 165.247604 
L 165.654215 173.044362 
L 168.933554 169.217437 
L 172.212893 165.399966 
L 175.492231 171.110404 
L 178.77157 171.939381 
L 182.050909 174.358612 
L 185.330248 183.524857 
L 188.609587 180.156157 
L 191.888926 185.788478 
L 195.168264 185.249467 
L 198.447603 183.884533 
L 201.726942 186.280901 
L 205.006281 188.359692 
L 208.28562 199.74357 
L 211.564959 189.691336 
L 214.844298 189.387866 
L 218.123636 199.914653 
L 221.402975 206.851597 
L 224.682314 197.6967 
L 227.961653 209.131682 
L 231.240992 210.494146 
L 234.520331 209.919597 
L 237.799669 213.770803 
L 241.079008 210.960446 
L 244.358347 220.110992 
L 247.637686 225.043241 
L 250.917025 218.062139 
L 254.196364 218.642634 
L 257.475702 224.350234 
L 260.755041 230.364616 
L 264.03438 230.674745 
L 267.313719 225.472863 
L 270.593058 231.47053 
L 273.872397 231.367184 
L 277.151736 238.918087 
L 280.431074 240.762178 
L 283.710413 238.16976 
L 286.989752 237.490506 
L 290.269091 238.21203 
L 293.54843 239.026464 
L 296.827769 257.431587 
L 300.107107 266.494626 
L 303.386446 255.833523 
L 306.665785 248.899851 
L 309.945124 243.620113 
L 313.224463 257.810864 
L 316.503802 256.955221 
L 319.78314 265.088128 
L 323.062479 254.407897 
L 326.341818 268.147397 
L 329.621157 268.930021 
L 332.900496 268.420254 
L 336.179835 270.803726 
L 339.459174 274.562839 
L 342.738512 281.307575 
L 346.017851 268.89868 
L 349.29719 275.404506 
L 352.576529 284.743062 
L 355.855868 275.856285 
L 359.135207 276.012806 
L 362.414545 279.289028 
L 365.693884 285.150563 
L 368.973223 289.873577 
L 372.252562 277.767804 
L 375.531901 284.53603 
L 378.81124 288.20711 
L 382.090579 292.448616 
L 385.369917 293.698832 
L 388.649256 295.488 
L 391.928595 293.172564 
L 395.207934 294.239409 
L 398.487273 283.716146 
L 398.487273 253.784278 
L 398.487273 253.784278 
L 395.207934 237.273651 
L 391.928595 235.618968 
L 388.649256 224.95751 
L 385.369917 222.573667 
L 382.090579 208.583322 
L 378.81124 210.284734 
L 375.531901 197.989512 
L 372.252562 187.884259 
L 368.973223 208.436832 
L 365.693884 198.82646 
L 362.414545 194.709057 
L 359.135207 187.099164 
L 355.855868 191.610131 
L 352.576529 192.339421 
L 349.29719 192.06191 
L 346.017851 180.061339 
L 342.738512 175.635596 
L 339.459174 183.650378 
L 336.179835 161.827121 
L 332.900496 174.370966 
L 329.621157 167.692401 
L 326.341818 164.120579 
L 323.062479 162.256647 
L 319.78314 170.445683 
L 316.503802 160.072193 
L 313.224463 161.393773 
L 309.945124 162.339751 
L 306.665785 159.237236 
L 303.386446 171.172831 
L 300.107107 163.233257 
L 296.827769 159.414392 
L 293.54843 153.144321 
L 290.269091 149.422873 
L 286.989752 148.14861 
L 283.710413 145.473567 
L 280.431074 144.514067 
L 277.151736 142.910889 
L 273.872397 133.044007 
L 270.593058 145.459694 
L 267.313719 138.938327 
L 264.03438 136.095104 
L 260.755041 144.93269 
L 257.475702 130.626324 
L 254.196364 127.080726 
L 250.917025 127.116915 
L 247.637686 132.836281 
L 244.358347 135.409871 
L 241.079008 132.948561 
L 237.799669 130.138204 
L 234.520331 130.54214 
L 231.240992 125.79458 
L 227.961653 123.709775 
L 224.682314 113.553961 
L 221.402975 113.289392 
L 218.123636 117.686242 
L 214.844298 118.052655 
L 211.564959 110.67321 
L 208.28562 116.224408 
L 205.006281 110.009067 
L 201.726942 109.729198 
L 198.447603 112.307003 
L 195.168264 107.313363 
L 191.888926 110.403057 
L 188.609587 99.52477 
L 185.330248 107.22362 
L 182.050909 106.410927 
L 178.77157 103.931406 
L 175.492231 99.680195 
L 172.212893 97.407482 
L 168.933554 103.024644 
L 165.654215 100.467766 
L 162.374876 92.298222 
L 159.095537 87.505012 
L 155.816198 91.920879 
L 152.53686 91.776753 
L 149.257521 96.683511 
L 145.978182 82.353387 
L 142.698843 92.719861 
L 139.419504 84.021364 
L 136.140165 89.581339 
L 132.860826 83.067668 
L 129.581488 83.020231 
L 126.302149 82.625144 
L 123.02281 83.980393 
L 119.743471 76.900099 
L 116.464132 79.557746 
L 113.184793 78.150217 
L 109.905455 77.631227 
L 106.626116 78.773079 
L 103.346777 72.480578 
L 100.067438 74.75679 
L 96.788099 72.860096 
L 93.50876 68.48859 
L 90.229421 68.728713 
L 86.950083 67.839727 
L 83.670744 63.603616 
L 80.391405 56.547499 
L 77.112066 53.608061 
L 73.832727 53.568 
z
" style="fill:#2ca02c;fill-opacity:0.2;"/>
   </g>
   <g id="PolyCollection_4">
    <path clip-path="url(#p52ef196b66)" d="M 73.832727 80.783288 
L 73.832727 80.783288 
L 77.112066 97.557638 
L 80.391405 105.371969 
L 83.670744 118.21762 
L 86.950083 130.880545 
L 90.229421 148.604382 
L 93.50876 166.631579 
L 96.788099 176.186463 
L 100.067438 200.385681 
L 103.346777 218.179095 
L 106.626116 225.194732 
L 109.905455 239.977186 
L 113.184793 240.082578 
L 116.464132 248.464427 
L 119.743471 251.9863 
L 123.02281 258.071877 
L 126.302149 264.59308 
L 129.581488 267.6616 
L 132.860826 265.353146 
L 136.140165 267.646881 
L 139.419504 267.377293 
L 142.698843 271.255279 
L 145.978182 271.259446 
L 149.257521 272.435478 
L 152.53686 273.834258 
L 155.816198 273.141606 
L 159.095537 273.370976 
L 162.374876 274.467653 
L 165.654215 273.676925 
L 168.933554 274.589896 
L 172.212893 274.256496 
L 175.492231 273.596269 
L 178.77157 273.407344 
L 182.050909 272.70513 
L 185.330248 273.19363 
L 188.609587 272.565679 
L 191.888926 272.378917 
L 195.168264 272.102217 
L 198.447603 271.290305 
L 201.726942 272.102217 
L 205.006281 271.290305 
L 208.28562 271.290305 
L 211.564959 271.290305 
L 214.844298 271.290305 
L 218.123636 272.102217 
L 221.402975 272.102217 
L 224.682314 271.290305 
L 227.961653 271.290305 
L 231.240992 271.290305 
L 234.520331 271.290305 
L 237.799669 271.290305 
L 241.079008 271.290305 
L 244.358347 271.290305 
L 247.637686 271.290305 
L 250.917025 271.290305 
L 254.196364 271.290305 
L 257.475702 271.290305 
L 260.755041 271.290305 
L 264.03438 271.290305 
L 267.313719 271.290305 
L 270.593058 271.290305 
L 273.872397 271.290305 
L 277.151736 271.290305 
L 280.431074 271.290305 
L 283.710413 271.290305 
L 286.989752 271.290305 
L 290.269091 271.290305 
L 293.54843 271.290305 
L 296.827769 271.290305 
L 300.107107 271.290305 
L 303.386446 271.290305 
L 306.665785 271.290305 
L 309.945124 271.290305 
L 313.224463 271.290305 
L 316.503802 271.290305 
L 319.78314 271.290305 
L 323.062479 271.290305 
L 326.341818 271.290305 
L 329.621157 271.290305 
L 332.900496 271.290305 
L 336.179835 271.290305 
L 339.459174 271.290305 
L 342.738512 271.290305 
L 346.017851 271.290305 
L 349.29719 271.290305 
L 352.576529 271.290305 
L 355.855868 271.290305 
L 359.135207 271.290305 
L 362.414545 271.290305 
L 365.693884 271.290305 
L 368.973223 271.290305 
L 372.252562 271.290305 
L 375.531901 271.290305 
L 378.81124 271.290305 
L 382.090579 271.290305 
L 385.369917 271.290305 
L 388.649256 271.290305 
L 391.928595 271.290305 
L 395.207934 271.290305 
L 398.487273 271.290305 
L 398.487273 271.290305 
L 398.487273 271.290305 
L 395.207934 271.290305 
L 391.928595 271.290305 
L 388.649256 271.290305 
L 385.369917 271.290305 
L 382.090579 271.290305 
L 378.81124 271.290305 
L 375.531901 271.290305 
L 372.252562 271.290305 
L 368.973223 271.290305 
L 365.693884 271.290305 
L 362.414545 271.290305 
L 359.135207 271.290305 
L 355.855868 271.290305 
L 352.576529 271.290305 
L 349.29719 271.290305 
L 346.017851 271.290305 
L 342.738512 271.290305 
L 339.459174 271.290305 
L 336.179835 271.290305 
L 332.900496 271.290305 
L 329.621157 271.290305 
L 326.341818 271.290305 
L 323.062479 271.290305 
L 319.78314 271.290305 
L 316.503802 271.290305 
L 313.224463 271.290305 
L 309.945124 271.290305 
L 306.665785 271.290305 
L 303.386446 271.290305 
L 300.107107 271.290305 
L 296.827769 271.290305 
L 293.54843 271.290305 
L 290.269091 271.290305 
L 286.989752 271.290305 
L 283.710413 271.290305 
L 280.431074 271.290305 
L 277.151736 271.290305 
L 273.872397 271.290305 
L 270.593058 271.290305 
L 267.313719 271.290305 
L 264.03438 271.290305 
L 260.755041 271.290305 
L 257.475702 271.290305 
L 254.196364 271.290305 
L 250.917025 271.290305 
L 247.637686 271.290305 
L 244.358347 271.290305 
L 241.079008 271.290305 
L 237.799669 271.290305 
L 234.520331 271.290305 
L 231.240992 271.290305 
L 227.961653 271.290305 
L 224.682314 271.290305 
L 221.402975 270.296959 
L 218.123636 270.296959 
L 214.844298 271.290305 
L 211.564959 271.290305 
L 208.28562 271.290305 
L 205.006281 271.290305 
L 201.726942 270.296959 
L 198.447603 271.290305 
L 195.168264 270.296959 
L 191.888926 269.838823 
L 188.609587 269.470626 
L 185.330248 268.479804 
L 182.050909 269.14974 
L 178.77157 267.177479 
L 175.492231 267.714295 
L 172.212893 265.602586 
L 168.933554 262.366222 
L 165.654215 263.642063 
L 162.374876 263.395641 
L 159.095537 260.682178 
L 155.816198 260.185807 
L 152.53686 256.771626 
L 149.257521 249.098644 
L 145.978182 252.089028 
L 142.698843 243.565738 
L 139.419504 236.920479 
L 136.140165 240.823902 
L 132.860826 233.501568 
L 129.581488 225.931492 
L 126.302149 217.932462 
L 123.02281 209.938844 
L 119.743471 203.505388 
L 116.464132 195.23397 
L 113.184793 182.9322 
L 109.905455 173.784394 
L 106.626116 155.001326 
L 103.346777 148.046448 
L 100.067438 132.818646 
L 96.788099 118.190719 
L 93.50876 98.897398 
L 90.229421 90.072177 
L 86.950083 80.217856 
L 83.670744 67.66128 
L 80.391405 68.169334 
L 77.112066 65.278985 
L 73.832727 80.783288 
z
" style="fill:#d62728;fill-opacity:0.2;"/>
   </g>
   <g id="matplotlib.axis_1">
    <g id="xtick_1">
     <g id="line2d_1">
      <defs>
       <path d="M 0 0 
L 0 3.5 
" id="m268442724f" style="stroke:#000000;stroke-width:0.8;"/>
      </defs>
      <g>
       <use style="stroke:#000000;stroke-width:0.8;" x="401.766612" xlink:href="#m268442724f" y="307.584"/>
      </g>
     </g>
     <g id="text_1">
      <!-- 0 -->
      <g transform="translate(398.585362 322.182437)scale(0.1 -0.1)">
       <defs>
        <path d="M 31.78125 66.40625 
Q 24.171875 66.40625 20.328125 58.90625 
Q 16.5 51.421875 16.5 36.375 
Q 16.5 21.390625 20.328125 13.890625 
Q 24.171875 6.390625 31.78125 6.390625 
Q 39.453125 6.390625 43.28125 13.890625 
Q 47.125 21.390625 47.125 36.375 
Q 47.125 51.421875 43.28125 58.90625 
Q 39.453125 66.40625 31.78125 66.40625 
z
M 31.78125 74.21875 
Q 44.046875 74.21875 50.515625 64.515625 
Q 56.984375 54.828125 56.984375 36.375 
Q 56.984375 17.96875 50.515625 8.265625 
Q 44.046875 -1.421875 31.78125 -1.421875 
Q 19.53125 -1.421875 13.0625 8.265625 
Q 6.59375 17.96875 6.59375 36.375 
Q 6.59375 54.828125 13.0625 64.515625 
Q 19.53125 74.21875 31.78125 74.21875 
z
" id="DejaVuSans-48"/>
       </defs>
       <use xlink:href="#DejaVuSans-48"/>
      </g>
     </g>
    </g>
    <g id="xtick_2">
     <g id="line2d_2">
      <g>
       <use style="stroke:#000000;stroke-width:0.8;" x="336.179835" xlink:href="#m268442724f" y="307.584"/>
      </g>
     </g>
     <g id="text_2">
      <!-- 20 -->
      <g transform="translate(329.817335 322.182437)scale(0.1 -0.1)">
       <defs>
        <path d="M 19.1875 8.296875 
L 53.609375 8.296875 
L 53.609375 0 
L 7.328125 0 
L 7.328125 8.296875 
Q 12.9375 14.109375 22.625 23.890625 
Q 32.328125 33.6875 34.8125 36.53125 
Q 39.546875 41.84375 41.421875 45.53125 
Q 43.3125 49.21875 43.3125 52.78125 
Q 43.3125 58.59375 39.234375 62.25 
Q 35.15625 65.921875 28.609375 65.921875 
Q 23.96875 65.921875 18.8125 64.3125 
Q 13.671875 62.703125 7.8125 59.421875 
L 7.8125 69.390625 
Q 13.765625 71.78125 18.9375 73 
Q 24.125 74.21875 28.421875 74.21875 
Q 39.75 74.21875 46.484375 68.546875 
Q 53.21875 62.890625 53.21875 53.421875 
Q 53.21875 48.921875 51.53125 44.890625 
Q 49.859375 40.875 45.40625 35.40625 
Q 44.1875 33.984375 37.640625 27.21875 
Q 31.109375 20.453125 19.1875 8.296875 
z
" id="DejaVuSans-50"/>
       </defs>
       <use xlink:href="#DejaVuSans-50"/>
       <use x="63.623047" xlink:href="#DejaVuSans-48"/>
      </g>
     </g>
    </g>
    <g id="xtick_3">
     <g id="line2d_3">
      <g>
       <use style="stroke:#000000;stroke-width:0.8;" x="270.593058" xlink:href="#m268442724f" y="307.584"/>
      </g>
     </g>
     <g id="text_3">
      <!-- 40 -->
      <g transform="translate(264.230558 322.182437)scale(0.1 -0.1)">
       <defs>
        <path d="M 37.796875 64.3125 
L 12.890625 25.390625 
L 37.796875 25.390625 
z
M 35.203125 72.90625 
L 47.609375 72.90625 
L 47.609375 25.390625 
L 58.015625 25.390625 
L 58.015625 17.1875 
L 47.609375 17.1875 
L 47.609375 0 
L 37.796875 0 
L 37.796875 17.1875 
L 4.890625 17.1875 
L 4.890625 26.703125 
z
" id="DejaVuSans-52"/>
       </defs>
       <use xlink:href="#DejaVuSans-52"/>
       <use x="63.623047" xlink:href="#DejaVuSans-48"/>
      </g>
     </g>
    </g>
    <g id="xtick_4">
     <g id="line2d_4">
      <g>
       <use style="stroke:#000000;stroke-width:0.8;" x="205.006281" xlink:href="#m268442724f" y="307.584"/>
      </g>
     </g>
     <g id="text_4">
      <!-- 60 -->
      <g transform="translate(198.643781 322.182437)scale(0.1 -0.1)">
       <defs>
        <path d="M 33.015625 40.375 
Q 26.375 40.375 22.484375 35.828125 
Q 18.609375 31.296875 18.609375 23.390625 
Q 18.609375 15.53125 22.484375 10.953125 
Q 26.375 6.390625 33.015625 6.390625 
Q 39.65625 6.390625 43.53125 10.953125 
Q 47.40625 15.53125 47.40625 23.390625 
Q 47.40625 31.296875 43.53125 35.828125 
Q 39.65625 40.375 33.015625 40.375 
z
M 52.59375 71.296875 
L 52.59375 62.3125 
Q 48.875 64.0625 45.09375 64.984375 
Q 41.3125 65.921875 37.59375 65.921875 
Q 27.828125 65.921875 22.671875 59.328125 
Q 17.53125 52.734375 16.796875 39.40625 
Q 19.671875 43.65625 24.015625 45.921875 
Q 28.375 48.1875 33.59375 48.1875 
Q 44.578125 48.1875 50.953125 41.515625 
Q 57.328125 34.859375 57.328125 23.390625 
Q 57.328125 12.15625 50.6875 5.359375 
Q 44.046875 -1.421875 33.015625 -1.421875 
Q 20.359375 -1.421875 13.671875 8.265625 
Q 6.984375 17.96875 6.984375 36.375 
Q 6.984375 53.65625 15.1875 63.9375 
Q 23.390625 74.21875 37.203125 74.21875 
Q 40.921875 74.21875 44.703125 73.484375 
Q 48.484375 72.75 52.59375 71.296875 
z
" id="DejaVuSans-54"/>
       </defs>
       <use xlink:href="#DejaVuSans-54"/>
       <use x="63.623047" xlink:href="#DejaVuSans-48"/>
      </g>
     </g>
    </g>
    <g id="xtick_5">
     <g id="line2d_5">
      <g>
       <use style="stroke:#000000;stroke-width:0.8;" x="139.419504" xlink:href="#m268442724f" y="307.584"/>
      </g>
     </g>
     <g id="text_5">
      <!-- 80 -->
      <g transform="translate(133.057004 322.182437)scale(0.1 -0.1)">
       <defs>
        <path d="M 31.78125 34.625 
Q 24.75 34.625 20.71875 30.859375 
Q 16.703125 27.09375 16.703125 20.515625 
Q 16.703125 13.921875 20.71875 10.15625 
Q 24.75 6.390625 31.78125 6.390625 
Q 38.8125 6.390625 42.859375 10.171875 
Q 46.921875 13.96875 46.921875 20.515625 
Q 46.921875 27.09375 42.890625 30.859375 
Q 38.875 34.625 31.78125 34.625 
z
M 21.921875 38.8125 
Q 15.578125 40.375 12.03125 44.71875 
Q 8.5 49.078125 8.5 55.328125 
Q 8.5 64.0625 14.71875 69.140625 
Q 20.953125 74.21875 31.78125 74.21875 
Q 42.671875 74.21875 48.875 69.140625 
Q 55.078125 64.0625 55.078125 55.328125 
Q 55.078125 49.078125 51.53125 44.71875 
Q 48 40.375 41.703125 38.8125 
Q 48.828125 37.15625 52.796875 32.3125 
Q 56.78125 27.484375 56.78125 20.515625 
Q 56.78125 9.90625 50.3125 4.234375 
Q 43.84375 -1.421875 31.78125 -1.421875 
Q 19.734375 -1.421875 13.25 4.234375 
Q 6.78125 9.90625 6.78125 20.515625 
Q 6.78125 27.484375 10.78125 32.3125 
Q 14.796875 37.15625 21.921875 38.8125 
z
M 18.3125 54.390625 
Q 18.3125 48.734375 21.84375 45.5625 
Q 25.390625 42.390625 31.78125 42.390625 
Q 38.140625 42.390625 41.71875 45.5625 
Q 45.3125 48.734375 45.3125 54.390625 
Q 45.3125 60.0625 41.71875 63.234375 
Q 38.140625 66.40625 31.78125 66.40625 
Q 25.390625 66.40625 21.84375 63.234375 
Q 18.3125 60.0625 18.3125 54.390625 
z
" id="DejaVuSans-56"/>
       </defs>
       <use xlink:href="#DejaVuSans-56"/>
       <use x="63.623047" xlink:href="#DejaVuSans-48"/>
      </g>
     </g>
    </g>
    <g id="xtick_6">
     <g id="line2d_6">
      <g>
       <use style="stroke:#000000;stroke-width:0.8;" x="73.832727" xlink:href="#m268442724f" y="307.584"/>
      </g>
     </g>
     <g id="text_6">
      <!-- 100 -->
      <g transform="translate(64.288977 322.182437)scale(0.1 -0.1)">
       <defs>
        <path d="M 12.40625 8.296875 
L 28.515625 8.296875 
L 28.515625 63.921875 
L 10.984375 60.40625 
L 10.984375 69.390625 
L 28.421875 72.90625 
L 38.28125 72.90625 
L 38.28125 8.296875 
L 54.390625 8.296875 
L 54.390625 0 
L 12.40625 0 
z
" id="DejaVuSans-49"/>
       </defs>
       <use xlink:href="#DejaVuSans-49"/>
       <use x="63.623047" xlink:href="#DejaVuSans-48"/>
       <use x="127.246094" xlink:href="#DejaVuSans-48"/>
      </g>
     </g>
    </g>
    <g id="text_7">
     <!-- Number of features -->
     <g transform="translate(187.4225 335.860562)scale(0.1 -0.1)">
      <defs>
       <path d="M 9.8125 72.90625 
L 23.09375 72.90625 
L 55.421875 11.921875 
L 55.421875 72.90625 
L 64.984375 72.90625 
L 64.984375 0 
L 51.703125 0 
L 19.390625 60.984375 
L 19.390625 0 
L 9.8125 0 
z
" id="DejaVuSans-78"/>
       <path d="M 8.5 21.578125 
L 8.5 54.6875 
L 17.484375 54.6875 
L 17.484375 21.921875 
Q 17.484375 14.15625 20.5 10.265625 
Q 23.53125 6.390625 29.59375 6.390625 
Q 36.859375 6.390625 41.078125 11.03125 
Q 45.3125 15.671875 45.3125 23.6875 
L 45.3125 54.6875 
L 54.296875 54.6875 
L 54.296875 0 
L 45.3125 0 
L 45.3125 8.40625 
Q 42.046875 3.421875 37.71875 1 
Q 33.40625 -1.421875 27.6875 -1.421875 
Q 18.265625 -1.421875 13.375 4.4375 
Q 8.5 10.296875 8.5 21.578125 
z
M 31.109375 56 
z
" id="DejaVuSans-117"/>
       <path d="M 52 44.1875 
Q 55.375 50.25 60.0625 53.125 
Q 64.75 56 71.09375 56 
Q 79.640625 56 84.28125 50.015625 
Q 88.921875 44.046875 88.921875 33.015625 
L 88.921875 0 
L 79.890625 0 
L 79.890625 32.71875 
Q 79.890625 40.578125 77.09375 44.375 
Q 74.3125 48.1875 68.609375 48.1875 
Q 61.625 48.1875 57.5625 43.546875 
Q 53.515625 38.921875 53.515625 30.90625 
L 53.515625 0 
L 44.484375 0 
L 44.484375 32.71875 
Q 44.484375 40.625 41.703125 44.40625 
Q 38.921875 48.1875 33.109375 48.1875 
Q 26.21875 48.1875 22.15625 43.53125 
Q 18.109375 38.875 18.109375 30.90625 
L 18.109375 0 
L 9.078125 0 
L 9.078125 54.6875 
L 18.109375 54.6875 
L 18.109375 46.1875 
Q 21.1875 51.21875 25.484375 53.609375 
Q 29.78125 56 35.6875 56 
Q 41.65625 56 45.828125 52.96875 
Q 50 49.953125 52 44.1875 
z
" id="DejaVuSans-109"/>
       <path d="M 48.6875 27.296875 
Q 48.6875 37.203125 44.609375 42.84375 
Q 40.53125 48.484375 33.40625 48.484375 
Q 26.265625 48.484375 22.1875 42.84375 
Q 18.109375 37.203125 18.109375 27.296875 
Q 18.109375 17.390625 22.1875 11.75 
Q 26.265625 6.109375 33.40625 6.109375 
Q 40.53125 6.109375 44.609375 11.75 
Q 48.6875 17.390625 48.6875 27.296875 
z
M 18.109375 46.390625 
Q 20.953125 51.265625 25.265625 53.625 
Q 29.59375 56 35.59375 56 
Q 45.5625 56 51.78125 48.09375 
Q 58.015625 40.1875 58.015625 27.296875 
Q 58.015625 14.40625 51.78125 6.484375 
Q 45.5625 -1.421875 35.59375 -1.421875 
Q 29.59375 -1.421875 25.265625 0.953125 
Q 20.953125 3.328125 18.109375 8.203125 
L 18.109375 0 
L 9.078125 0 
L 9.078125 75.984375 
L 18.109375 75.984375 
z
" id="DejaVuSans-98"/>
       <path d="M 56.203125 29.59375 
L 56.203125 25.203125 
L 14.890625 25.203125 
Q 15.484375 15.921875 20.484375 11.0625 
Q 25.484375 6.203125 34.421875 6.203125 
Q 39.59375 6.203125 44.453125 7.46875 
Q 49.3125 8.734375 54.109375 11.28125 
L 54.109375 2.78125 
Q 49.265625 0.734375 44.1875 -0.34375 
Q 39.109375 -1.421875 33.890625 -1.421875 
Q 20.796875 -1.421875 13.15625 6.1875 
Q 5.515625 13.8125 5.515625 26.8125 
Q 5.515625 40.234375 12.765625 48.109375 
Q 20.015625 56 32.328125 56 
Q 43.359375 56 49.78125 48.890625 
Q 56.203125 41.796875 56.203125 29.59375 
z
M 47.21875 32.234375 
Q 47.125 39.59375 43.09375 43.984375 
Q 39.0625 48.390625 32.421875 48.390625 
Q 24.90625 48.390625 20.390625 44.140625 
Q 15.875 39.890625 15.1875 32.171875 
z
" id="DejaVuSans-101"/>
       <path d="M 41.109375 46.296875 
Q 39.59375 47.171875 37.8125 47.578125 
Q 36.03125 48 33.890625 48 
Q 26.265625 48 22.1875 43.046875 
Q 18.109375 38.09375 18.109375 28.8125 
L 18.109375 0 
L 9.078125 0 
L 9.078125 54.6875 
L 18.109375 54.6875 
L 18.109375 46.1875 
Q 20.953125 51.171875 25.484375 53.578125 
Q 30.03125 56 36.53125 56 
Q 37.453125 56 38.578125 55.875 
Q 39.703125 55.765625 41.0625 55.515625 
z
" id="DejaVuSans-114"/>
       <path id="DejaVuSans-32"/>
       <path d="M 30.609375 48.390625 
Q 23.390625 48.390625 19.1875 42.75 
Q 14.984375 37.109375 14.984375 27.296875 
Q 14.984375 17.484375 19.15625 11.84375 
Q 23.34375 6.203125 30.609375 6.203125 
Q 37.796875 6.203125 41.984375 11.859375 
Q 46.1875 17.53125 46.1875 27.296875 
Q 46.1875 37.015625 41.984375 42.703125 
Q 37.796875 48.390625 30.609375 48.390625 
z
M 30.609375 56 
Q 42.328125 56 49.015625 48.375 
Q 55.71875 40.765625 55.71875 27.296875 
Q 55.71875 13.875 49.015625 6.21875 
Q 42.328125 -1.421875 30.609375 -1.421875 
Q 18.84375 -1.421875 12.171875 6.21875 
Q 5.515625 13.875 5.515625 27.296875 
Q 5.515625 40.765625 12.171875 48.375 
Q 18.84375 56 30.609375 56 
z
" id="DejaVuSans-111"/>
       <path d="M 37.109375 75.984375 
L 37.109375 68.5 
L 28.515625 68.5 
Q 23.6875 68.5 21.796875 66.546875 
Q 19.921875 64.59375 19.921875 59.515625 
L 19.921875 54.6875 
L 34.71875 54.6875 
L 34.71875 47.703125 
L 19.921875 47.703125 
L 19.921875 0 
L 10.890625 0 
L 10.890625 47.703125 
L 2.296875 47.703125 
L 2.296875 54.6875 
L 10.890625 54.6875 
L 10.890625 58.5 
Q 10.890625 67.625 15.140625 71.796875 
Q 19.390625 75.984375 28.609375 75.984375 
z
" id="DejaVuSans-102"/>
       <path d="M 34.28125 27.484375 
Q 23.390625 27.484375 19.1875 25 
Q 14.984375 22.515625 14.984375 16.5 
Q 14.984375 11.71875 18.140625 8.90625 
Q 21.296875 6.109375 26.703125 6.109375 
Q 34.1875 6.109375 38.703125 11.40625 
Q 43.21875 16.703125 43.21875 25.484375 
L 43.21875 27.484375 
z
M 52.203125 31.203125 
L 52.203125 0 
L 43.21875 0 
L 43.21875 8.296875 
Q 40.140625 3.328125 35.546875 0.953125 
Q 30.953125 -1.421875 24.3125 -1.421875 
Q 15.921875 -1.421875 10.953125 3.296875 
Q 6 8.015625 6 15.921875 
Q 6 25.140625 12.171875 29.828125 
Q 18.359375 34.515625 30.609375 34.515625 
L 43.21875 34.515625 
L 43.21875 35.40625 
Q 43.21875 41.609375 39.140625 45 
Q 35.0625 48.390625 27.6875 48.390625 
Q 23 48.390625 18.546875 47.265625 
Q 14.109375 46.140625 10.015625 43.890625 
L 10.015625 52.203125 
Q 14.9375 54.109375 19.578125 55.046875 
Q 24.21875 56 28.609375 56 
Q 40.484375 56 46.34375 49.84375 
Q 52.203125 43.703125 52.203125 31.203125 
z
" id="DejaVuSans-97"/>
       <path d="M 18.3125 70.21875 
L 18.3125 54.6875 
L 36.8125 54.6875 
L 36.8125 47.703125 
L 18.3125 47.703125 
L 18.3125 18.015625 
Q 18.3125 11.328125 20.140625 9.421875 
Q 21.96875 7.515625 27.59375 7.515625 
L 36.8125 7.515625 
L 36.8125 0 
L 27.59375 0 
Q 17.1875 0 13.234375 3.875 
Q 9.28125 7.765625 9.28125 18.015625 
L 9.28125 47.703125 
L 2.6875 47.703125 
L 2.6875 54.6875 
L 9.28125 54.6875 
L 9.28125 70.21875 
z
" id="DejaVuSans-116"/>
       <path d="M 44.28125 53.078125 
L 44.28125 44.578125 
Q 40.484375 46.53125 36.375 47.5 
Q 32.28125 48.484375 27.875 48.484375 
Q 21.1875 48.484375 17.84375 46.4375 
Q 14.5 44.390625 14.5 40.28125 
Q 14.5 37.15625 16.890625 35.375 
Q 19.28125 33.59375 26.515625 31.984375 
L 29.59375 31.296875 
Q 39.15625 29.25 43.1875 25.515625 
Q 47.21875 21.78125 47.21875 15.09375 
Q 47.21875 7.46875 41.1875 3.015625 
Q 35.15625 -1.421875 24.609375 -1.421875 
Q 20.21875 -1.421875 15.453125 -0.5625 
Q 10.6875 0.296875 5.421875 2 
L 5.421875 11.28125 
Q 10.40625 8.6875 15.234375 7.390625 
Q 20.0625 6.109375 24.8125 6.109375 
Q 31.15625 6.109375 34.5625 8.28125 
Q 37.984375 10.453125 37.984375 14.40625 
Q 37.984375 18.0625 35.515625 20.015625 
Q 33.0625 21.96875 24.703125 23.78125 
L 21.578125 24.515625 
Q 13.234375 26.265625 9.515625 29.90625 
Q 5.8125 33.546875 5.8125 39.890625 
Q 5.8125 47.609375 11.28125 51.796875 
Q 16.75 56 26.8125 56 
Q 31.78125 56 36.171875 55.265625 
Q 40.578125 54.546875 44.28125 53.078125 
z
" id="DejaVuSans-115"/>
      </defs>
      <use xlink:href="#DejaVuSans-78"/>
      <use x="74.804688" xlink:href="#DejaVuSans-117"/>
      <use x="138.183594" xlink:href="#DejaVuSans-109"/>
      <use x="235.595703" xlink:href="#DejaVuSans-98"/>
      <use x="299.072266" xlink:href="#DejaVuSans-101"/>
      <use x="360.595703" xlink:href="#DejaVuSans-114"/>
      <use x="401.708984" xlink:href="#DejaVuSans-32"/>
      <use x="433.496094" xlink:href="#DejaVuSans-111"/>
      <use x="494.677734" xlink:href="#DejaVuSans-102"/>
      <use x="529.882812" xlink:href="#DejaVuSans-32"/>
      <use x="561.669922" xlink:href="#DejaVuSans-102"/>
      <use x="596.875" xlink:href="#DejaVuSans-101"/>
      <use x="658.398438" xlink:href="#DejaVuSans-97"/>
      <use x="719.677734" xlink:href="#DejaVuSans-116"/>
      <use x="758.886719" xlink:href="#DejaVuSans-117"/>
      <use x="822.265625" xlink:href="#DejaVuSans-114"/>
      <use x="861.128906" xlink:href="#DejaVuSans-101"/>
      <use x="922.652344" xlink:href="#DejaVuSans-115"/>
     </g>
    </g>
   </g>
   <g id="matplotlib.axis_2">
    <g id="ytick_1">
     <g id="line2d_7">
      <defs>
       <path d="M 0 0 
L -3.5 0 
" id="m108266c4cd" style="stroke:#000000;stroke-width:0.8;"/>
      </defs>
      <g>
       <use style="stroke:#000000;stroke-width:0.8;" x="57.6" xlink:href="#m108266c4cd" y="289.433831"/>
      </g>
     </g>
     <g id="text_8">
      <!-- 0.50 -->
      <g transform="translate(28.334375 293.23305)scale(0.1 -0.1)">
       <defs>
        <path d="M 10.6875 12.40625 
L 21 12.40625 
L 21 0 
L 10.6875 0 
z
" id="DejaVuSans-46"/>
        <path d="M 10.796875 72.90625 
L 49.515625 72.90625 
L 49.515625 64.59375 
L 19.828125 64.59375 
L 19.828125 46.734375 
Q 21.96875 47.46875 24.109375 47.828125 
Q 26.265625 48.1875 28.421875 48.1875 
Q 40.625 48.1875 47.75 41.5 
Q 54.890625 34.8125 54.890625 23.390625 
Q 54.890625 11.625 47.5625 5.09375 
Q 40.234375 -1.421875 26.90625 -1.421875 
Q 22.3125 -1.421875 17.546875 -0.640625 
Q 12.796875 0.140625 7.71875 1.703125 
L 7.71875 11.625 
Q 12.109375 9.234375 16.796875 8.0625 
Q 21.484375 6.890625 26.703125 6.890625 
Q 35.15625 6.890625 40.078125 11.328125 
Q 45.015625 15.765625 45.015625 23.390625 
Q 45.015625 31 40.078125 35.4375 
Q 35.15625 39.890625 26.703125 39.890625 
Q 22.75 39.890625 18.8125 39.015625 
Q 14.890625 38.140625 10.796875 36.28125 
z
" id="DejaVuSans-53"/>
       </defs>
       <use xlink:href="#DejaVuSans-48"/>
       <use x="63.623047" xlink:href="#DejaVuSans-46"/>
       <use x="95.410156" xlink:href="#DejaVuSans-53"/>
       <use x="159.033203" xlink:href="#DejaVuSans-48"/>
      </g>
     </g>
    </g>
    <g id="ytick_2">
     <g id="line2d_8">
      <g>
       <use style="stroke:#000000;stroke-width:0.8;" x="57.6" xlink:href="#m108266c4cd" y="244.075017"/>
      </g>
     </g>
     <g id="text_9">
      <!-- 0.55 -->
      <g transform="translate(28.334375 247.874236)scale(0.1 -0.1)">
       <use xlink:href="#DejaVuSans-48"/>
       <use x="63.623047" xlink:href="#DejaVuSans-46"/>
       <use x="95.410156" xlink:href="#DejaVuSans-53"/>
       <use x="159.033203" xlink:href="#DejaVuSans-53"/>
      </g>
     </g>
    </g>
    <g id="ytick_3">
     <g id="line2d_9">
      <g>
       <use style="stroke:#000000;stroke-width:0.8;" x="57.6" xlink:href="#m108266c4cd" y="198.716204"/>
      </g>
     </g>
     <g id="text_10">
      <!-- 0.60 -->
      <g transform="translate(28.334375 202.515422)scale(0.1 -0.1)">
       <use xlink:href="#DejaVuSans-48"/>
       <use x="63.623047" xlink:href="#DejaVuSans-46"/>
       <use x="95.410156" xlink:href="#DejaVuSans-54"/>
       <use x="159.033203" xlink:href="#DejaVuSans-48"/>
      </g>
     </g>
    </g>
    <g id="ytick_4">
     <g id="line2d_10">
      <g>
       <use style="stroke:#000000;stroke-width:0.8;" x="57.6" xlink:href="#m108266c4cd" y="153.35739"/>
      </g>
     </g>
     <g id="text_11">
      <!-- 0.65 -->
      <g transform="translate(28.334375 157.156609)scale(0.1 -0.1)">
       <use xlink:href="#DejaVuSans-48"/>
       <use x="63.623047" xlink:href="#DejaVuSans-46"/>
       <use x="95.410156" xlink:href="#DejaVuSans-54"/>
       <use x="159.033203" xlink:href="#DejaVuSans-53"/>
      </g>
     </g>
    </g>
    <g id="ytick_5">
     <g id="line2d_11">
      <g>
       <use style="stroke:#000000;stroke-width:0.8;" x="57.6" xlink:href="#m108266c4cd" y="107.998576"/>
      </g>
     </g>
     <g id="text_12">
      <!-- 0.70 -->
      <g transform="translate(28.334375 111.797795)scale(0.1 -0.1)">
       <defs>
        <path d="M 8.203125 72.90625 
L 55.078125 72.90625 
L 55.078125 68.703125 
L 28.609375 0 
L 18.3125 0 
L 43.21875 64.59375 
L 8.203125 64.59375 
z
" id="DejaVuSans-55"/>
       </defs>
       <use xlink:href="#DejaVuSans-48"/>
       <use x="63.623047" xlink:href="#DejaVuSans-46"/>
       <use x="95.410156" xlink:href="#DejaVuSans-55"/>
       <use x="159.033203" xlink:href="#DejaVuSans-48"/>
      </g>
     </g>
    </g>
    <g id="ytick_6">
     <g id="line2d_12">
      <g>
       <use style="stroke:#000000;stroke-width:0.8;" x="57.6" xlink:href="#m108266c4cd" y="62.639763"/>
      </g>
     </g>
     <g id="text_13">
      <!-- 0.75 -->
      <g transform="translate(28.334375 66.438981)scale(0.1 -0.1)">
       <use xlink:href="#DejaVuSans-48"/>
       <use x="63.623047" xlink:href="#DejaVuSans-46"/>
       <use x="95.410156" xlink:href="#DejaVuSans-55"/>
       <use x="159.033203" xlink:href="#DejaVuSans-53"/>
      </g>
     </g>
    </g>
    <g id="text_14">
     <!-- Accuracy -->
     <g transform="translate(22.254687 197.356125)rotate(-90)scale(0.1 -0.1)">
      <defs>
       <path d="M 34.1875 63.1875 
L 20.796875 26.90625 
L 47.609375 26.90625 
z
M 28.609375 72.90625 
L 39.796875 72.90625 
L 67.578125 0 
L 57.328125 0 
L 50.6875 18.703125 
L 17.828125 18.703125 
L 11.1875 0 
L 0.78125 0 
z
" id="DejaVuSans-65"/>
       <path d="M 48.78125 52.59375 
L 48.78125 44.1875 
Q 44.96875 46.296875 41.140625 47.34375 
Q 37.3125 48.390625 33.40625 48.390625 
Q 24.65625 48.390625 19.8125 42.84375 
Q 14.984375 37.3125 14.984375 27.296875 
Q 14.984375 17.28125 19.8125 11.734375 
Q 24.65625 6.203125 33.40625 6.203125 
Q 37.3125 6.203125 41.140625 7.25 
Q 44.96875 8.296875 48.78125 10.40625 
L 48.78125 2.09375 
Q 45.015625 0.34375 40.984375 -0.53125 
Q 36.96875 -1.421875 32.421875 -1.421875 
Q 20.0625 -1.421875 12.78125 6.34375 
Q 5.515625 14.109375 5.515625 27.296875 
Q 5.515625 40.671875 12.859375 48.328125 
Q 20.21875 56 33.015625 56 
Q 37.15625 56 41.109375 55.140625 
Q 45.0625 54.296875 48.78125 52.59375 
z
" id="DejaVuSans-99"/>
       <path d="M 32.171875 -5.078125 
Q 28.375 -14.84375 24.75 -17.8125 
Q 21.140625 -20.796875 15.09375 -20.796875 
L 7.90625 -20.796875 
L 7.90625 -13.28125 
L 13.1875 -13.28125 
Q 16.890625 -13.28125 18.9375 -11.515625 
Q 21 -9.765625 23.484375 -3.21875 
L 25.09375 0.875 
L 2.984375 54.6875 
L 12.5 54.6875 
L 29.59375 11.921875 
L 46.6875 54.6875 
L 56.203125 54.6875 
z
" id="DejaVuSans-121"/>
      </defs>
      <use xlink:href="#DejaVuSans-65"/>
      <use x="66.658203" xlink:href="#DejaVuSans-99"/>
      <use x="121.638672" xlink:href="#DejaVuSans-99"/>
      <use x="176.619141" xlink:href="#DejaVuSans-117"/>
      <use x="239.998047" xlink:href="#DejaVuSans-114"/>
      <use x="281.111328" xlink:href="#DejaVuSans-97"/>
      <use x="342.390625" xlink:href="#DejaVuSans-99"/>
      <use x="397.371094" xlink:href="#DejaVuSans-121"/>
     </g>
    </g>
   </g>
   <g id="line2d_13">
    <path clip-path="url(#p52ef196b66)" d="M 73.832727 162.429153 
L 77.112066 159.616906 
L 80.391405 161.159106 
L 83.670744 159.0726 
L 86.950083 159.526189 
L 90.229421 155.534613 
L 93.50876 156.532507 
L 96.788099 149.54725 
L 100.067438 151.996626 
L 103.346777 154.718154 
L 106.626116 150.998732 
L 109.905455 148.095768 
L 113.184793 154.536719 
L 116.464132 149.365814 
L 119.743471 146.09998 
L 123.02281 146.735003 
L 126.302149 148.458638 
L 129.581488 145.737109 
L 132.860826 146.372133 
L 136.140165 144.467062 
L 139.419504 149.819403 
L 142.698843 149.637967 
L 145.978182 149.728685 
L 149.257521 148.36792 
L 152.53686 146.281415 
L 155.816198 146.281415 
L 159.095537 149.456532 
L 162.374876 145.555674 
L 165.654215 150.998732 
L 168.933554 149.456532 
L 172.212893 147.914332 
L 175.492231 150.726579 
L 178.77157 151.633755 
L 182.050909 154.446001 
L 185.330248 150.000838 
L 188.609587 146.825721 
L 191.888926 156.713942 
L 195.168264 155.806766 
L 198.447603 154.718154 
L 201.726942 156.260354 
L 205.006281 159.163318 
L 208.28562 161.068388 
L 211.564959 162.429153 
L 214.844298 162.429153 
L 218.123636 167.055752 
L 221.402975 163.427047 
L 224.682314 163.789917 
L 227.961653 165.059964 
L 231.240992 161.612694 
L 234.520331 167.50934 
L 237.799669 164.878529 
L 241.079008 175.855362 
L 244.358347 164.787811 
L 247.637686 180.028372 
L 250.917025 175.038903 
L 254.196364 172.498809 
L 257.475702 167.781493 
L 260.755041 174.857468 
L 264.03438 175.673926 
L 267.313719 178.032585 
L 270.593058 180.300525 
L 273.872397 180.481961 
L 277.151736 182.296313 
L 280.431074 188.555829 
L 283.710413 183.384925 
L 286.989752 184.382818 
L 290.269091 183.022054 
L 293.54843 184.201383 
L 296.827769 196.992569 
L 300.107107 202.526344 
L 303.386446 197.899745 
L 306.665785 199.351227 
L 309.945124 201.800603 
L 313.224463 199.441945 
L 316.503802 207.787966 
L 319.78314 200.530556 
L 323.062479 190.642335 
L 326.341818 206.971508 
L 329.621157 204.249979 
L 332.900496 211.960977 
L 336.179835 205.701461 
L 339.459174 218.583364 
L 342.738512 218.129776 
L 346.017851 214.773224 
L 349.29719 227.745844 
L 352.576529 231.011679 
L 355.855868 229.469479 
L 359.135207 230.739526 
L 362.414545 235.638278 
L 365.693884 238.269089 
L 368.973223 245.617217 
L 372.252562 238.722677 
L 375.531901 239.992724 
L 378.81124 244.619323 
L 382.090579 251.513863 
L 385.369917 257.047638 
L 388.649256 259.769167 
L 391.928595 265.212224 
L 395.207934 265.302942 
L 398.487273 269.022365 
" style="fill:none;stroke:#1f77b4;stroke-linecap:square;stroke-width:1.5;"/>
   </g>
   <g id="line2d_14">
    <path clip-path="url(#p52ef196b66)" d="M 73.832727 153.35739 
L 77.112066 152.994519 
L 80.391405 149.637967 
L 83.670744 146.009262 
L 86.950083 147.370027 
L 90.229421 144.467062 
L 93.50876 148.095768 
L 96.788099 141.745534 
L 100.067438 146.46285 
L 103.346777 149.275097 
L 106.626116 146.644286 
L 109.905455 153.538825 
L 113.184793 150.272991 
L 116.464132 148.186485 
L 119.743471 149.456532 
L 123.02281 149.002944 
L 126.302149 148.730791 
L 129.581488 151.996626 
L 132.860826 153.175955 
L 136.140165 155.988201 
L 139.419504 156.986095 
L 142.698843 152.903802 
L 145.978182 157.076813 
L 149.257521 155.534613 
L 152.53686 160.342647 
L 155.816198 164.606376 
L 159.095537 161.521976 
L 162.374876 165.96714 
L 165.654215 151.81519 
L 168.933554 166.965034 
L 172.212893 163.699199 
L 175.492231 168.416516 
L 178.77157 169.686563 
L 182.050909 165.785705 
L 185.330248 171.682351 
L 188.609587 172.86168 
L 191.888926 173.133833 
L 195.168264 172.952397 
L 198.447603 173.043115 
L 201.726942 174.222444 
L 205.006281 180.481961 
L 208.28562 181.752007 
L 211.564959 180.481961 
L 214.844298 177.306844 
L 218.123636 176.036797 
L 221.402975 186.287889 
L 224.682314 174.403879 
L 227.961653 184.564254 
L 231.240992 184.564254 
L 234.520331 181.026266 
L 237.799669 188.9187 
L 241.079008 186.741477 
L 244.358347 189.644441 
L 247.637686 196.720416 
L 250.917025 192.093817 
L 254.196364 192.184534 
L 257.475702 197.627592 
L 260.755041 198.262615 
L 264.03438 195.903957 
L 267.313719 202.435626 
L 270.593058 201.800603 
L 273.872397 199.169792 
L 277.151736 203.07065 
L 280.431074 205.882896 
L 283.710413 205.610743 
L 286.989752 206.336484 
L 290.269091 203.614955 
L 293.54843 199.62338 
L 296.827769 215.226812 
L 300.107107 212.142412 
L 303.386446 215.6804 
L 306.665785 215.136094 
L 309.945124 212.958871 
L 313.224463 215.498965 
L 316.503802 218.946234 
L 319.78314 227.110821 
L 323.062479 229.288044 
L 326.341818 224.026422 
L 329.621157 225.750056 
L 332.900496 225.205751 
L 336.179835 226.203645 
L 339.459174 237.634066 
L 342.738512 236.454737 
L 346.017851 232.10029 
L 349.29719 241.262771 
L 352.576529 239.448418 
L 355.855868 240.990618 
L 359.135207 243.893582 
L 362.414545 241.625641 
L 365.693884 246.433676 
L 368.973223 252.874627 
L 372.252562 245.798652 
L 375.531901 256.95692 
L 378.81124 253.691086 
L 382.090579 260.04132 
L 385.369917 260.132037 
L 388.649256 265.121507 
L 391.928595 269.657388 
L 395.207934 269.385235 
L 398.487273 271.471741 
" style="fill:none;stroke:#ff7f0e;stroke-linecap:square;stroke-width:1.5;"/>
   </g>
   <g id="line2d_15">
    <path clip-path="url(#p52ef196b66)" d="M 73.832727 53.568 
L 77.112066 68.173538 
L 80.391405 77.154583 
L 83.670744 84.774864 
L 86.950083 87.22424 
L 90.229421 94.84452 
L 93.50876 91.487968 
L 96.788099 95.751697 
L 100.067438 99.380402 
L 103.346777 98.110355 
L 106.626116 104.460589 
L 109.905455 105.639918 
L 113.184793 105.458483 
L 116.464132 107.272835 
L 119.743471 106.002789 
L 123.02281 113.350916 
L 126.302149 112.534458 
L 129.581488 113.169481 
L 132.860826 114.34881 
L 136.140165 118.612539 
L 139.419504 115.165269 
L 142.698843 119.70115 
L 145.978182 121.424785 
L 149.257521 126.232819 
L 152.53686 122.694832 
L 155.816198 125.960667 
L 159.095537 123.783443 
L 162.374876 128.772913 
L 165.654215 136.756064 
L 168.933554 136.121041 
L 172.212893 131.403724 
L 175.492231 135.3953 
L 178.77157 137.935393 
L 182.050909 140.384769 
L 185.330248 145.374239 
L 188.609587 139.840464 
L 191.888926 148.095768 
L 195.168264 146.281415 
L 198.447603 148.095768 
L 201.726942 148.00505 
L 205.006281 149.184379 
L 208.28562 157.983989 
L 211.564959 150.182273 
L 214.844298 153.72026 
L 218.123636 158.800448 
L 221.402975 160.070494 
L 224.682314 155.625331 
L 227.961653 166.420728 
L 231.240992 168.144363 
L 234.520331 170.230869 
L 237.799669 171.954504 
L 241.079008 171.954504 
L 244.358347 177.760432 
L 247.637686 178.939761 
L 250.917025 172.589527 
L 254.196364 172.86168 
L 257.475702 177.488279 
L 260.755041 187.648653 
L 264.03438 183.384925 
L 267.313719 182.205595 
L 270.593058 188.465112 
L 273.872397 182.205595 
L 277.151736 190.914488 
L 280.431074 192.638123 
L 283.710413 191.821664 
L 286.989752 192.819558 
L 290.269091 193.817452 
L 293.54843 196.085392 
L 296.827769 208.42299 
L 300.107107 214.863941 
L 303.386446 213.503177 
L 306.665785 204.068544 
L 309.945124 202.979932 
L 313.224463 209.602319 
L 316.503802 208.513707 
L 319.78314 217.766905 
L 323.062479 208.332272 
L 326.341818 216.133988 
L 329.621157 218.311211 
L 332.900496 221.39561 
L 336.179835 216.315423 
L 339.459174 229.106609 
L 342.738512 228.471585 
L 346.017851 224.48001 
L 349.29719 233.733208 
L 352.576529 238.541242 
L 355.855868 233.733208 
L 359.135207 231.555985 
L 362.414545 236.999042 
L 365.693884 241.988512 
L 368.973223 249.155204 
L 372.252562 232.826031 
L 375.531901 241.262771 
L 378.81124 249.245922 
L 382.090579 250.515969 
L 385.369917 258.136249 
L 388.649256 260.222755 
L 391.928595 264.395766 
L 395.207934 265.75653 
L 398.487273 268.750212 
" style="fill:none;stroke:#2ca02c;stroke-linecap:square;stroke-width:1.5;"/>
   </g>
   <g id="line2d_16">
    <path clip-path="url(#p52ef196b66)" d="M 73.832727 80.783288 
L 77.112066 81.418312 
L 80.391405 86.770652 
L 83.670744 92.93945 
L 86.950083 105.5492 
L 90.229421 119.33828 
L 93.50876 132.764489 
L 96.788099 147.188591 
L 100.067438 166.602164 
L 103.346777 183.112772 
L 106.626116 190.098029 
L 109.905455 206.88079 
L 113.184793 211.507389 
L 116.464132 221.849199 
L 119.743471 227.745844 
L 123.02281 234.005361 
L 126.302149 241.262771 
L 129.581488 246.796546 
L 132.860826 249.427357 
L 136.140165 254.235391 
L 139.419504 252.148886 
L 142.698843 257.410508 
L 145.978182 261.674237 
L 149.257521 260.767061 
L 152.53686 265.302942 
L 155.816198 266.663706 
L 159.095537 267.026577 
L 162.374876 268.931647 
L 165.654215 268.659494 
L 168.933554 268.478059 
L 172.212893 269.929541 
L 175.492231 270.655282 
L 178.77157 270.292411 
L 182.050909 270.927435 
L 185.330248 270.836717 
L 188.609587 271.018152 
L 191.888926 271.10887 
L 195.168264 271.199588 
L 198.447603 271.290305 
L 201.726942 271.199588 
L 205.006281 271.290305 
L 208.28562 271.290305 
L 211.564959 271.290305 
L 214.844298 271.290305 
L 218.123636 271.199588 
L 221.402975 271.199588 
L 224.682314 271.290305 
L 227.961653 271.290305 
L 231.240992 271.290305 
L 234.520331 271.290305 
L 237.799669 271.290305 
L 241.079008 271.290305 
L 244.358347 271.290305 
L 247.637686 271.290305 
L 250.917025 271.290305 
L 254.196364 271.290305 
L 257.475702 271.290305 
L 260.755041 271.290305 
L 264.03438 271.290305 
L 267.313719 271.290305 
L 270.593058 271.290305 
L 273.872397 271.290305 
L 277.151736 271.290305 
L 280.431074 271.290305 
L 283.710413 271.290305 
L 286.989752 271.290305 
L 290.269091 271.290305 
L 293.54843 271.290305 
L 296.827769 271.290305 
L 300.107107 271.290305 
L 303.386446 271.290305 
L 306.665785 271.290305 
L 309.945124 271.290305 
L 313.224463 271.290305 
L 316.503802 271.290305 
L 319.78314 271.290305 
L 323.062479 271.290305 
L 326.341818 271.290305 
L 329.621157 271.290305 
L 332.900496 271.290305 
L 336.179835 271.290305 
L 339.459174 271.290305 
L 342.738512 271.290305 
L 346.017851 271.290305 
L 349.29719 271.290305 
L 352.576529 271.290305 
L 355.855868 271.290305 
L 359.135207 271.290305 
L 362.414545 271.290305 
L 365.693884 271.290305 
L 368.973223 271.290305 
L 372.252562 271.290305 
L 375.531901 271.290305 
L 378.81124 271.290305 
L 382.090579 271.290305 
L 385.369917 271.290305 
L 388.649256 271.290305 
L 391.928595 271.290305 
L 395.207934 271.290305 
L 398.487273 271.290305 
" style="fill:none;stroke:#d62728;stroke-linecap:square;stroke-width:1.5;"/>
   </g>
   <g id="patch_3">
    <path d="M 57.6 307.584 
L 57.6 41.472 
" style="fill:none;stroke:#000000;stroke-linecap:square;stroke-linejoin:miter;stroke-width:0.8;"/>
   </g>
   <g id="patch_4">
    <path d="M 414.72 307.584 
L 414.72 41.472 
" style="fill:none;stroke:#000000;stroke-linecap:square;stroke-linejoin:miter;stroke-width:0.8;"/>
   </g>
   <g id="patch_5">
    <path d="M 57.6 307.584 
L 414.72 307.584 
" style="fill:none;stroke:#000000;stroke-linecap:square;stroke-linejoin:miter;stroke-width:0.8;"/>
   </g>
   <g id="patch_6">
    <path d="M 57.6 41.472 
L 414.72 41.472 
" style="fill:none;stroke:#000000;stroke-linecap:square;stroke-linejoin:miter;stroke-width:0.8;"/>
   </g>
   <g id="text_15">
    <!-- Toy_linear_1000_100 -->
    <g transform="translate(173.59875 35.472)scale(0.12 -0.12)">
     <defs>
      <path d="M -0.296875 72.90625 
L 61.375 72.90625 
L 61.375 64.59375 
L 35.5 64.59375 
L 35.5 0 
L 25.59375 0 
L 25.59375 64.59375 
L -0.296875 64.59375 
z
" id="DejaVuSans-84"/>
      <path d="M 50.984375 -16.609375 
L 50.984375 -23.578125 
L -0.984375 -23.578125 
L -0.984375 -16.609375 
z
" id="DejaVuSans-95"/>
      <path d="M 9.421875 75.984375 
L 18.40625 75.984375 
L 18.40625 0 
L 9.421875 0 
z
" id="DejaVuSans-108"/>
      <path d="M 9.421875 54.6875 
L 18.40625 54.6875 
L 18.40625 0 
L 9.421875 0 
z
M 9.421875 75.984375 
L 18.40625 75.984375 
L 18.40625 64.59375 
L 9.421875 64.59375 
z
" id="DejaVuSans-105"/>
      <path d="M 54.890625 33.015625 
L 54.890625 0 
L 45.90625 0 
L 45.90625 32.71875 
Q 45.90625 40.484375 42.875 44.328125 
Q 39.84375 48.1875 33.796875 48.1875 
Q 26.515625 48.1875 22.3125 43.546875 
Q 18.109375 38.921875 18.109375 30.90625 
L 18.109375 0 
L 9.078125 0 
L 9.078125 54.6875 
L 18.109375 54.6875 
L 18.109375 46.1875 
Q 21.34375 51.125 25.703125 53.5625 
Q 30.078125 56 35.796875 56 
Q 45.21875 56 50.046875 50.171875 
Q 54.890625 44.34375 54.890625 33.015625 
z
" id="DejaVuSans-110"/>
     </defs>
     <use xlink:href="#DejaVuSans-84"/>
     <use x="44.083984" xlink:href="#DejaVuSans-111"/>
     <use x="105.265625" xlink:href="#DejaVuSans-121"/>
     <use x="164.445312" xlink:href="#DejaVuSans-95"/>
     <use x="214.445312" xlink:href="#DejaVuSans-108"/>
     <use x="242.228516" xlink:href="#DejaVuSans-105"/>
     <use x="270.011719" xlink:href="#DejaVuSans-110"/>
     <use x="333.390625" xlink:href="#DejaVuSans-101"/>
     <use x="394.914062" xlink:href="#DejaVuSans-97"/>
     <use x="456.193359" xlink:href="#DejaVuSans-114"/>
     <use x="497.306641" xlink:href="#DejaVuSans-95"/>
     <use x="547.306641" xlink:href="#DejaVuSans-49"/>
     <use x="610.929688" xlink:href="#DejaVuSans-48"/>
     <use x="674.552734" xlink:href="#DejaVuSans-48"/>
     <use x="738.175781" xlink:href="#DejaVuSans-48"/>
     <use x="801.798828" xlink:href="#DejaVuSans-95"/>
     <use x="851.798828" xlink:href="#DejaVuSans-49"/>
     <use x="915.421875" xlink:href="#DejaVuSans-48"/>
     <use x="979.044922" xlink:href="#DejaVuSans-48"/>
    </g>
   </g>
   <g id="legend_1">
    <g id="patch_7">
     <path d="M 300.468437 108.1845 
L 407.72 108.1845 
Q 409.72 108.1845 409.72 106.1845 
L 409.72 48.472 
Q 409.72 46.472 407.72 46.472 
L 300.468437 46.472 
Q 298.468437 46.472 298.468437 48.472 
L 298.468437 106.1845 
Q 298.468437 108.1845 300.468437 108.1845 
z
" style="fill:#ffffff;opacity:0.8;stroke:#cccccc;stroke-linejoin:miter;"/>
    </g>
    <g id="line2d_17">
     <path d="M 302.468437 54.570438 
L 322.468437 54.570438 
" style="fill:none;stroke:#1f77b4;stroke-linecap:square;stroke-width:1.5;"/>
    </g>
    <g id="line2d_18"/>
    <g id="text_16">
     <!-- Random Forest -->
     <g transform="translate(330.468437 58.070438)scale(0.1 -0.1)">
      <defs>
       <path d="M 44.390625 34.1875 
Q 47.5625 33.109375 50.5625 29.59375 
Q 53.5625 26.078125 56.59375 19.921875 
L 66.609375 0 
L 56 0 
L 46.6875 18.703125 
Q 43.0625 26.03125 39.671875 28.421875 
Q 36.28125 30.8125 30.421875 30.8125 
L 19.671875 30.8125 
L 19.671875 0 
L 9.8125 0 
L 9.8125 72.90625 
L 32.078125 72.90625 
Q 44.578125 72.90625 50.734375 67.671875 
Q 56.890625 62.453125 56.890625 51.90625 
Q 56.890625 45.015625 53.6875 40.46875 
Q 50.484375 35.9375 44.390625 34.1875 
z
M 19.671875 64.796875 
L 19.671875 38.921875 
L 32.078125 38.921875 
Q 39.203125 38.921875 42.84375 42.21875 
Q 46.484375 45.515625 46.484375 51.90625 
Q 46.484375 58.296875 42.84375 61.546875 
Q 39.203125 64.796875 32.078125 64.796875 
z
" id="DejaVuSans-82"/>
       <path d="M 45.40625 46.390625 
L 45.40625 75.984375 
L 54.390625 75.984375 
L 54.390625 0 
L 45.40625 0 
L 45.40625 8.203125 
Q 42.578125 3.328125 38.25 0.953125 
Q 33.9375 -1.421875 27.875 -1.421875 
Q 17.96875 -1.421875 11.734375 6.484375 
Q 5.515625 14.40625 5.515625 27.296875 
Q 5.515625 40.1875 11.734375 48.09375 
Q 17.96875 56 27.875 56 
Q 33.9375 56 38.25 53.625 
Q 42.578125 51.265625 45.40625 46.390625 
z
M 14.796875 27.296875 
Q 14.796875 17.390625 18.875 11.75 
Q 22.953125 6.109375 30.078125 6.109375 
Q 37.203125 6.109375 41.296875 11.75 
Q 45.40625 17.390625 45.40625 27.296875 
Q 45.40625 37.203125 41.296875 42.84375 
Q 37.203125 48.484375 30.078125 48.484375 
Q 22.953125 48.484375 18.875 42.84375 
Q 14.796875 37.203125 14.796875 27.296875 
z
" id="DejaVuSans-100"/>
       <path d="M 9.8125 72.90625 
L 51.703125 72.90625 
L 51.703125 64.59375 
L 19.671875 64.59375 
L 19.671875 43.109375 
L 48.578125 43.109375 
L 48.578125 34.8125 
L 19.671875 34.8125 
L 19.671875 0 
L 9.8125 0 
z
" id="DejaVuSans-70"/>
      </defs>
      <use xlink:href="#DejaVuSans-82"/>
      <use x="67.232422" xlink:href="#DejaVuSans-97"/>
      <use x="128.511719" xlink:href="#DejaVuSans-110"/>
      <use x="191.890625" xlink:href="#DejaVuSans-100"/>
      <use x="255.367188" xlink:href="#DejaVuSans-111"/>
      <use x="316.548828" xlink:href="#DejaVuSans-109"/>
      <use x="413.960938" xlink:href="#DejaVuSans-32"/>
      <use x="445.748047" xlink:href="#DejaVuSans-70"/>
      <use x="499.642578" xlink:href="#DejaVuSans-111"/>
      <use x="560.824219" xlink:href="#DejaVuSans-114"/>
      <use x="599.6875" xlink:href="#DejaVuSans-101"/>
      <use x="661.210938" xlink:href="#DejaVuSans-115"/>
      <use x="713.310547" xlink:href="#DejaVuSans-116"/>
     </g>
    </g>
    <g id="line2d_19">
     <path d="M 302.468437 69.248563 
L 322.468437 69.248563 
" style="fill:none;stroke:#ff7f0e;stroke-linecap:square;stroke-width:1.5;"/>
    </g>
    <g id="line2d_20"/>
    <g id="text_17">
     <!-- AdaBoost -->
     <g transform="translate(330.468437 72.748563)scale(0.1 -0.1)">
      <defs>
       <path d="M 19.671875 34.8125 
L 19.671875 8.109375 
L 35.5 8.109375 
Q 43.453125 8.109375 47.28125 11.40625 
Q 51.125 14.703125 51.125 21.484375 
Q 51.125 28.328125 47.28125 31.5625 
Q 43.453125 34.8125 35.5 34.8125 
z
M 19.671875 64.796875 
L 19.671875 42.828125 
L 34.28125 42.828125 
Q 41.5 42.828125 45.03125 45.53125 
Q 48.578125 48.25 48.578125 53.8125 
Q 48.578125 59.328125 45.03125 62.0625 
Q 41.5 64.796875 34.28125 64.796875 
z
M 9.8125 72.90625 
L 35.015625 72.90625 
Q 46.296875 72.90625 52.390625 68.21875 
Q 58.5 63.53125 58.5 54.890625 
Q 58.5 48.1875 55.375 44.234375 
Q 52.25 40.28125 46.1875 39.3125 
Q 53.46875 37.75 57.5 32.78125 
Q 61.53125 27.828125 61.53125 20.40625 
Q 61.53125 10.640625 54.890625 5.3125 
Q 48.25 0 35.984375 0 
L 9.8125 0 
z
" id="DejaVuSans-66"/>
      </defs>
      <use xlink:href="#DejaVuSans-65"/>
      <use x="66.658203" xlink:href="#DejaVuSans-100"/>
      <use x="130.134766" xlink:href="#DejaVuSans-97"/>
      <use x="191.414062" xlink:href="#DejaVuSans-66"/>
      <use x="260.017578" xlink:href="#DejaVuSans-111"/>
      <use x="321.199219" xlink:href="#DejaVuSans-111"/>
      <use x="382.380859" xlink:href="#DejaVuSans-115"/>
      <use x="434.480469" xlink:href="#DejaVuSans-116"/>
     </g>
    </g>
    <g id="line2d_21">
     <path d="M 302.468437 83.926688 
L 322.468437 83.926688 
" style="fill:none;stroke:#2ca02c;stroke-linecap:square;stroke-width:1.5;"/>
    </g>
    <g id="line2d_22"/>
    <g id="text_18">
     <!-- LightGBM -->
     <g transform="translate(330.468437 87.426688)scale(0.1 -0.1)">
      <defs>
       <path d="M 9.8125 72.90625 
L 19.671875 72.90625 
L 19.671875 8.296875 
L 55.171875 8.296875 
L 55.171875 0 
L 9.8125 0 
z
" id="DejaVuSans-76"/>
       <path d="M 45.40625 27.984375 
Q 45.40625 37.75 41.375 43.109375 
Q 37.359375 48.484375 30.078125 48.484375 
Q 22.859375 48.484375 18.828125 43.109375 
Q 14.796875 37.75 14.796875 27.984375 
Q 14.796875 18.265625 18.828125 12.890625 
Q 22.859375 7.515625 30.078125 7.515625 
Q 37.359375 7.515625 41.375 12.890625 
Q 45.40625 18.265625 45.40625 27.984375 
z
M 54.390625 6.78125 
Q 54.390625 -7.171875 48.1875 -13.984375 
Q 42 -20.796875 29.203125 -20.796875 
Q 24.46875 -20.796875 20.265625 -20.09375 
Q 16.0625 -19.390625 12.109375 -17.921875 
L 12.109375 -9.1875 
Q 16.0625 -11.328125 19.921875 -12.34375 
Q 23.78125 -13.375 27.78125 -13.375 
Q 36.625 -13.375 41.015625 -8.765625 
Q 45.40625 -4.15625 45.40625 5.171875 
L 45.40625 9.625 
Q 42.625 4.78125 38.28125 2.390625 
Q 33.9375 0 27.875 0 
Q 17.828125 0 11.671875 7.65625 
Q 5.515625 15.328125 5.515625 27.984375 
Q 5.515625 40.671875 11.671875 48.328125 
Q 17.828125 56 27.875 56 
Q 33.9375 56 38.28125 53.609375 
Q 42.625 51.21875 45.40625 46.390625 
L 45.40625 54.6875 
L 54.390625 54.6875 
z
" id="DejaVuSans-103"/>
       <path d="M 54.890625 33.015625 
L 54.890625 0 
L 45.90625 0 
L 45.90625 32.71875 
Q 45.90625 40.484375 42.875 44.328125 
Q 39.84375 48.1875 33.796875 48.1875 
Q 26.515625 48.1875 22.3125 43.546875 
Q 18.109375 38.921875 18.109375 30.90625 
L 18.109375 0 
L 9.078125 0 
L 9.078125 75.984375 
L 18.109375 75.984375 
L 18.109375 46.1875 
Q 21.34375 51.125 25.703125 53.5625 
Q 30.078125 56 35.796875 56 
Q 45.21875 56 50.046875 50.171875 
Q 54.890625 44.34375 54.890625 33.015625 
z
" id="DejaVuSans-104"/>
       <path d="M 59.515625 10.40625 
L 59.515625 29.984375 
L 43.40625 29.984375 
L 43.40625 38.09375 
L 69.28125 38.09375 
L 69.28125 6.78125 
Q 63.578125 2.734375 56.6875 0.65625 
Q 49.8125 -1.421875 42 -1.421875 
Q 24.90625 -1.421875 15.25 8.5625 
Q 5.609375 18.5625 5.609375 36.375 
Q 5.609375 54.25 15.25 64.234375 
Q 24.90625 74.21875 42 74.21875 
Q 49.125 74.21875 55.546875 72.453125 
Q 61.96875 70.703125 67.390625 67.28125 
L 67.390625 56.78125 
Q 61.921875 61.421875 55.765625 63.765625 
Q 49.609375 66.109375 42.828125 66.109375 
Q 29.4375 66.109375 22.71875 58.640625 
Q 16.015625 51.171875 16.015625 36.375 
Q 16.015625 21.625 22.71875 14.15625 
Q 29.4375 6.6875 42.828125 6.6875 
Q 48.046875 6.6875 52.140625 7.59375 
Q 56.25 8.5 59.515625 10.40625 
z
" id="DejaVuSans-71"/>
       <path d="M 9.8125 72.90625 
L 24.515625 72.90625 
L 43.109375 23.296875 
L 61.8125 72.90625 
L 76.515625 72.90625 
L 76.515625 0 
L 66.890625 0 
L 66.890625 64.015625 
L 48.09375 14.015625 
L 38.1875 14.015625 
L 19.390625 64.015625 
L 19.390625 0 
L 9.8125 0 
z
" id="DejaVuSans-77"/>
      </defs>
      <use xlink:href="#DejaVuSans-76"/>
      <use x="55.712891" xlink:href="#DejaVuSans-105"/>
      <use x="83.496094" xlink:href="#DejaVuSans-103"/>
      <use x="146.972656" xlink:href="#DejaVuSans-104"/>
      <use x="210.351562" xlink:href="#DejaVuSans-116"/>
      <use x="249.560547" xlink:href="#DejaVuSans-71"/>
      <use x="327.050781" xlink:href="#DejaVuSans-66"/>
      <use x="395.654297" xlink:href="#DejaVuSans-77"/>
     </g>
    </g>
    <g id="line2d_23">
     <path d="M 302.468437 98.604813 
L 322.468437 98.604813 
" style="fill:none;stroke:#d62728;stroke-linecap:square;stroke-width:1.5;"/>
    </g>
    <g id="line2d_24"/>
    <g id="text_19">
     <!-- XGBoost -->
     <g transform="translate(330.468437 102.104813)scale(0.1 -0.1)">
      <defs>
       <path d="M 6.296875 72.90625 
L 16.890625 72.90625 
L 35.015625 45.796875 
L 53.21875 72.90625 
L 63.8125 72.90625 
L 40.375 37.890625 
L 65.375 0 
L 54.78125 0 
L 34.28125 31 
L 13.625 0 
L 2.984375 0 
L 29 38.921875 
z
" id="DejaVuSans-88"/>
      </defs>
      <use xlink:href="#DejaVuSans-88"/>
      <use x="68.505859" xlink:href="#DejaVuSans-71"/>
      <use x="145.996094" xlink:href="#DejaVuSans-66"/>
      <use x="214.599609" xlink:href="#DejaVuSans-111"/>
      <use x="275.78125" xlink:href="#DejaVuSans-111"/>
      <use x="336.962891" xlink:href="#DejaVuSans-115"/>
      <use x="389.0625" xlink:href="#DejaVuSans-116"/>
     </g>
    </g>
   </g>
  </g>
 </g>
 <defs>
  <clipPath id="p52ef196b66">
   <rect height="266.112" width="357.12" x="57.6" y="41.472"/>
  </clipPath>
 </defs>
</svg>
